<?xml version="1.0" encoding="utf-8" standalone="no"?>
<!DOCTYPE svg PUBLIC "-//W3C//DTD SVG 1.1//EN"
  "http://www.w3.org/Graphics/SVG/1.1/DTD/svg11.dtd">
<!-- Created with matplotlib (https://matplotlib.org/) -->
<svg height="198pt" version="1.1" viewBox="0 0 277.2 198" width="277.2pt" xmlns="http://www.w3.org/2000/svg" xmlns:xlink="http://www.w3.org/1999/xlink">
 <defs>
  <style type="text/css">
*{stroke-linecap:butt;stroke-linejoin:round;}
  </style>
 </defs>
 <g id="figure_1">
  <g id="patch_1">
   <path d="M 0 198 
L 277.2 198 
L 277.2 0 
L 0 0 
z
" style="fill:#ffffff;"/>
  </g>
  <g id="axes_1">
   <g id="patch_2">
    <path d="M 49.4 160.84 
L 271.2 160.84 
L 271.2 32.4092 
L 49.4 32.4092 
z
" style="fill:#eaeaf2;"/>
   </g>
   <g id="matplotlib.axis_1">
    <g id="xtick_1">
     <g id="line2d_1">
      <path clip-path="url(#pa0af6a28dd)" d="M 85.748569 160.84 
L 85.748569 32.4092 
" style="fill:none;stroke:#ffffff;stroke-linecap:round;"/>
     </g>
     <g id="line2d_2"/>
     <g id="text_1">
      <!-- 0.5 -->
      <defs>
       <path d="M 4.15625 35.296875 
Q 4.15625 48 6.765625 55.734375 
Q 9.375 63.484375 14.515625 67.671875 
Q 19.671875 71.875 27.484375 71.875 
Q 33.25 71.875 37.59375 69.546875 
Q 41.9375 67.234375 44.765625 62.859375 
Q 47.609375 58.5 49.21875 52.21875 
Q 50.828125 45.953125 50.828125 35.296875 
Q 50.828125 22.703125 48.234375 14.96875 
Q 45.65625 7.234375 40.5 3 
Q 35.359375 -1.21875 27.484375 -1.21875 
Q 17.140625 -1.21875 11.234375 6.203125 
Q 4.15625 15.140625 4.15625 35.296875 
z
M 13.1875 35.296875 
Q 13.1875 17.671875 17.3125 11.828125 
Q 21.4375 6 27.484375 6 
Q 33.546875 6 37.671875 11.859375 
Q 41.796875 17.71875 41.796875 35.296875 
Q 41.796875 52.984375 37.671875 58.78125 
Q 33.546875 64.59375 27.390625 64.59375 
Q 21.34375 64.59375 17.71875 59.46875 
Q 13.1875 52.9375 13.1875 35.296875 
z
" id="ArialMT-48"/>
       <path d="M 9.078125 0 
L 9.078125 10.015625 
L 19.09375 10.015625 
L 19.09375 0 
z
" id="ArialMT-46"/>
       <path d="M 4.15625 18.75 
L 13.375 19.53125 
Q 14.40625 12.796875 18.140625 9.390625 
Q 21.875 6 27.15625 6 
Q 33.5 6 37.890625 10.78125 
Q 42.28125 15.578125 42.28125 23.484375 
Q 42.28125 31 38.0625 35.34375 
Q 33.84375 39.703125 27 39.703125 
Q 22.75 39.703125 19.328125 37.765625 
Q 15.921875 35.84375 13.96875 32.765625 
L 5.71875 33.84375 
L 12.640625 70.609375 
L 48.25 70.609375 
L 48.25 62.203125 
L 19.671875 62.203125 
L 15.828125 42.96875 
Q 22.265625 47.46875 29.34375 47.46875 
Q 38.71875 47.46875 45.15625 40.96875 
Q 51.609375 34.46875 51.609375 24.265625 
Q 51.609375 14.546875 45.953125 7.46875 
Q 39.0625 -1.21875 27.15625 -1.21875 
Q 17.390625 -1.21875 11.203125 4.25 
Q 5.03125 9.71875 4.15625 18.75 
z
" id="ArialMT-53"/>
      </defs>
      <g style="fill:#262626;" transform="translate(78.798569 174.997813)scale(0.1 -0.1)">
       <use xlink:href="#ArialMT-48"/>
       <use x="55.615234" xlink:href="#ArialMT-46"/>
       <use x="83.398438" xlink:href="#ArialMT-53"/>
      </g>
     </g>
    </g>
    <g id="xtick_2">
     <g id="line2d_3">
      <path clip-path="url(#pa0af6a28dd)" d="M 122.83887 160.84 
L 122.83887 32.4092 
" style="fill:none;stroke:#ffffff;stroke-linecap:round;"/>
     </g>
     <g id="line2d_4"/>
     <g id="text_2">
      <!-- 1.0 -->
      <defs>
       <path d="M 37.25 0 
L 28.46875 0 
L 28.46875 56 
Q 25.296875 52.984375 20.140625 49.953125 
Q 14.984375 46.921875 10.890625 45.40625 
L 10.890625 53.90625 
Q 18.265625 57.375 23.78125 62.296875 
Q 29.296875 67.234375 31.59375 71.875 
L 37.25 71.875 
z
" id="ArialMT-49"/>
      </defs>
      <g style="fill:#262626;" transform="translate(115.88887 174.997813)scale(0.1 -0.1)">
       <use xlink:href="#ArialMT-49"/>
       <use x="55.615234" xlink:href="#ArialMT-46"/>
       <use x="83.398438" xlink:href="#ArialMT-48"/>
      </g>
     </g>
    </g>
    <g id="xtick_3">
     <g id="line2d_5">
      <path clip-path="url(#pa0af6a28dd)" d="M 159.929171 160.84 
L 159.929171 32.4092 
" style="fill:none;stroke:#ffffff;stroke-linecap:round;"/>
     </g>
     <g id="line2d_6"/>
     <g id="text_3">
      <!-- 1.5 -->
      <g style="fill:#262626;" transform="translate(152.979171 174.997813)scale(0.1 -0.1)">
       <use xlink:href="#ArialMT-49"/>
       <use x="55.615234" xlink:href="#ArialMT-46"/>
       <use x="83.398438" xlink:href="#ArialMT-53"/>
      </g>
     </g>
    </g>
    <g id="xtick_4">
     <g id="line2d_7">
      <path clip-path="url(#pa0af6a28dd)" d="M 197.019472 160.84 
L 197.019472 32.4092 
" style="fill:none;stroke:#ffffff;stroke-linecap:round;"/>
     </g>
     <g id="line2d_8"/>
     <g id="text_4">
      <!-- 2.0 -->
      <defs>
       <path d="M 50.34375 8.453125 
L 50.34375 0 
L 3.03125 0 
Q 2.9375 3.171875 4.046875 6.109375 
Q 5.859375 10.9375 9.828125 15.625 
Q 13.8125 20.3125 21.34375 26.46875 
Q 33.015625 36.03125 37.109375 41.625 
Q 41.21875 47.21875 41.21875 52.203125 
Q 41.21875 57.421875 37.46875 61 
Q 33.734375 64.59375 27.734375 64.59375 
Q 21.390625 64.59375 17.578125 60.78125 
Q 13.765625 56.984375 13.71875 50.25 
L 4.6875 51.171875 
Q 5.609375 61.28125 11.65625 66.578125 
Q 17.71875 71.875 27.9375 71.875 
Q 38.234375 71.875 44.234375 66.15625 
Q 50.25 60.453125 50.25 52 
Q 50.25 47.703125 48.484375 43.546875 
Q 46.734375 39.40625 42.65625 34.8125 
Q 38.578125 30.21875 29.109375 22.21875 
Q 21.1875 15.578125 18.9375 13.203125 
Q 16.703125 10.84375 15.234375 8.453125 
z
" id="ArialMT-50"/>
      </defs>
      <g style="fill:#262626;" transform="translate(190.069472 174.997813)scale(0.1 -0.1)">
       <use xlink:href="#ArialMT-50"/>
       <use x="55.615234" xlink:href="#ArialMT-46"/>
       <use x="83.398438" xlink:href="#ArialMT-48"/>
      </g>
     </g>
    </g>
    <g id="xtick_5">
     <g id="line2d_9">
      <path clip-path="url(#pa0af6a28dd)" d="M 234.109773 160.84 
L 234.109773 32.4092 
" style="fill:none;stroke:#ffffff;stroke-linecap:round;"/>
     </g>
     <g id="line2d_10"/>
     <g id="text_5">
      <!-- 2.5 -->
      <g style="fill:#262626;" transform="translate(227.159773 174.997813)scale(0.1 -0.1)">
       <use xlink:href="#ArialMT-50"/>
       <use x="55.615234" xlink:href="#ArialMT-46"/>
       <use x="83.398438" xlink:href="#ArialMT-53"/>
      </g>
     </g>
    </g>
    <g id="text_6">
     <!-- TotalEnvInteracts -->
     <defs>
      <path d="M 25.921875 0 
L 25.921875 63.140625 
L 2.34375 63.140625 
L 2.34375 71.578125 
L 59.078125 71.578125 
L 59.078125 63.140625 
L 35.40625 63.140625 
L 35.40625 0 
z
" id="ArialMT-84"/>
      <path d="M 3.328125 25.921875 
Q 3.328125 40.328125 11.328125 47.265625 
Q 18.015625 53.03125 27.640625 53.03125 
Q 38.328125 53.03125 45.109375 46.015625 
Q 51.90625 39.015625 51.90625 26.65625 
Q 51.90625 16.65625 48.90625 10.90625 
Q 45.90625 5.171875 40.15625 2 
Q 34.421875 -1.171875 27.640625 -1.171875 
Q 16.75 -1.171875 10.03125 5.8125 
Q 3.328125 12.796875 3.328125 25.921875 
z
M 12.359375 25.921875 
Q 12.359375 15.96875 16.703125 11.015625 
Q 21.046875 6.0625 27.640625 6.0625 
Q 34.1875 6.0625 38.53125 11.03125 
Q 42.875 16.015625 42.875 26.21875 
Q 42.875 35.84375 38.5 40.796875 
Q 34.125 45.75 27.640625 45.75 
Q 21.046875 45.75 16.703125 40.8125 
Q 12.359375 35.890625 12.359375 25.921875 
z
" id="ArialMT-111"/>
      <path d="M 25.78125 7.859375 
L 27.046875 0.09375 
Q 23.34375 -0.6875 20.40625 -0.6875 
Q 15.625 -0.6875 12.984375 0.828125 
Q 10.359375 2.34375 9.28125 4.8125 
Q 8.203125 7.28125 8.203125 15.1875 
L 8.203125 45.015625 
L 1.765625 45.015625 
L 1.765625 51.859375 
L 8.203125 51.859375 
L 8.203125 64.703125 
L 16.9375 69.96875 
L 16.9375 51.859375 
L 25.78125 51.859375 
L 25.78125 45.015625 
L 16.9375 45.015625 
L 16.9375 14.703125 
Q 16.9375 10.9375 17.40625 9.859375 
Q 17.875 8.796875 18.921875 8.15625 
Q 19.96875 7.515625 21.921875 7.515625 
Q 23.390625 7.515625 25.78125 7.859375 
z
" id="ArialMT-116"/>
      <path d="M 40.4375 6.390625 
Q 35.546875 2.25 31.03125 0.53125 
Q 26.515625 -1.171875 21.34375 -1.171875 
Q 12.796875 -1.171875 8.203125 3 
Q 3.609375 7.171875 3.609375 13.671875 
Q 3.609375 17.484375 5.34375 20.625 
Q 7.078125 23.78125 9.890625 25.6875 
Q 12.703125 27.59375 16.21875 28.5625 
Q 18.796875 29.25 24.03125 29.890625 
Q 34.671875 31.15625 39.703125 32.90625 
Q 39.75 34.71875 39.75 35.203125 
Q 39.75 40.578125 37.25 42.78125 
Q 33.890625 45.75 27.25 45.75 
Q 21.046875 45.75 18.09375 43.578125 
Q 15.140625 41.40625 13.71875 35.890625 
L 5.125 37.0625 
Q 6.296875 42.578125 8.984375 45.96875 
Q 11.671875 49.359375 16.75 51.1875 
Q 21.828125 53.03125 28.515625 53.03125 
Q 35.15625 53.03125 39.296875 51.46875 
Q 43.453125 49.90625 45.40625 47.53125 
Q 47.359375 45.171875 48.140625 41.546875 
Q 48.578125 39.3125 48.578125 33.453125 
L 48.578125 21.734375 
Q 48.578125 9.46875 49.140625 6.21875 
Q 49.703125 2.984375 51.375 0 
L 42.1875 0 
Q 40.828125 2.734375 40.4375 6.390625 
z
M 39.703125 26.03125 
Q 34.90625 24.078125 25.34375 22.703125 
Q 19.921875 21.921875 17.671875 20.9375 
Q 15.4375 19.96875 14.203125 18.09375 
Q 12.984375 16.21875 12.984375 13.921875 
Q 12.984375 10.40625 15.640625 8.0625 
Q 18.3125 5.71875 23.4375 5.71875 
Q 28.515625 5.71875 32.46875 7.9375 
Q 36.421875 10.15625 38.28125 14.015625 
Q 39.703125 17 39.703125 22.796875 
z
" id="ArialMT-97"/>
      <path d="M 6.390625 0 
L 6.390625 71.578125 
L 15.1875 71.578125 
L 15.1875 0 
z
" id="ArialMT-108"/>
      <path d="M 7.90625 0 
L 7.90625 71.578125 
L 59.671875 71.578125 
L 59.671875 63.140625 
L 17.390625 63.140625 
L 17.390625 41.21875 
L 56.984375 41.21875 
L 56.984375 32.8125 
L 17.390625 32.8125 
L 17.390625 8.453125 
L 61.328125 8.453125 
L 61.328125 0 
z
" id="ArialMT-69"/>
      <path d="M 6.59375 0 
L 6.59375 51.859375 
L 14.5 51.859375 
L 14.5 44.484375 
Q 20.21875 53.03125 31 53.03125 
Q 35.6875 53.03125 39.625 51.34375 
Q 43.5625 49.65625 45.515625 46.921875 
Q 47.46875 44.1875 48.25 40.4375 
Q 48.734375 37.984375 48.734375 31.890625 
L 48.734375 0 
L 39.9375 0 
L 39.9375 31.546875 
Q 39.9375 36.921875 38.90625 39.578125 
Q 37.890625 42.234375 35.28125 43.8125 
Q 32.671875 45.40625 29.15625 45.40625 
Q 23.53125 45.40625 19.453125 41.84375 
Q 15.375 38.28125 15.375 28.328125 
L 15.375 0 
z
" id="ArialMT-110"/>
      <path d="M 21 0 
L 1.265625 51.859375 
L 10.546875 51.859375 
L 21.6875 20.796875 
Q 23.484375 15.765625 25 10.359375 
Q 26.171875 14.453125 28.265625 20.21875 
L 39.796875 51.859375 
L 48.828125 51.859375 
L 29.203125 0 
z
" id="ArialMT-118"/>
      <path d="M 9.328125 0 
L 9.328125 71.578125 
L 18.796875 71.578125 
L 18.796875 0 
z
" id="ArialMT-73"/>
      <path d="M 42.09375 16.703125 
L 51.171875 15.578125 
Q 49.03125 7.625 43.21875 3.21875 
Q 37.40625 -1.171875 28.375 -1.171875 
Q 17 -1.171875 10.328125 5.828125 
Q 3.65625 12.84375 3.65625 25.484375 
Q 3.65625 38.578125 10.390625 45.796875 
Q 17.140625 53.03125 27.875 53.03125 
Q 38.28125 53.03125 44.875 45.953125 
Q 51.46875 38.875 51.46875 26.03125 
Q 51.46875 25.25 51.421875 23.6875 
L 12.75 23.6875 
Q 13.234375 15.140625 17.578125 10.59375 
Q 21.921875 6.0625 28.421875 6.0625 
Q 33.25 6.0625 36.671875 8.59375 
Q 40.09375 11.140625 42.09375 16.703125 
z
M 13.234375 30.90625 
L 42.1875 30.90625 
Q 41.609375 37.453125 38.875 40.71875 
Q 34.671875 45.796875 27.984375 45.796875 
Q 21.921875 45.796875 17.796875 41.75 
Q 13.671875 37.703125 13.234375 30.90625 
z
" id="ArialMT-101"/>
      <path d="M 6.5 0 
L 6.5 51.859375 
L 14.40625 51.859375 
L 14.40625 44 
Q 17.4375 49.515625 20 51.265625 
Q 22.5625 53.03125 25.640625 53.03125 
Q 30.078125 53.03125 34.671875 50.203125 
L 31.640625 42.046875 
Q 28.421875 43.953125 25.203125 43.953125 
Q 22.3125 43.953125 20.015625 42.21875 
Q 17.71875 40.484375 16.75 37.40625 
Q 15.28125 32.71875 15.28125 27.15625 
L 15.28125 0 
z
" id="ArialMT-114"/>
      <path d="M 40.4375 19 
L 49.078125 17.875 
Q 47.65625 8.9375 41.8125 3.875 
Q 35.984375 -1.171875 27.484375 -1.171875 
Q 16.84375 -1.171875 10.375 5.78125 
Q 3.90625 12.75 3.90625 25.734375 
Q 3.90625 34.125 6.6875 40.421875 
Q 9.46875 46.734375 15.15625 49.875 
Q 20.84375 53.03125 27.546875 53.03125 
Q 35.984375 53.03125 41.359375 48.75 
Q 46.734375 44.484375 48.25 36.625 
L 39.703125 35.296875 
Q 38.484375 40.53125 35.375 43.15625 
Q 32.28125 45.796875 27.875 45.796875 
Q 21.234375 45.796875 17.078125 41.03125 
Q 12.9375 36.28125 12.9375 25.984375 
Q 12.9375 15.53125 16.9375 10.796875 
Q 20.953125 6.0625 27.390625 6.0625 
Q 32.5625 6.0625 36.03125 9.234375 
Q 39.5 12.40625 40.4375 19 
z
" id="ArialMT-99"/>
      <path d="M 3.078125 15.484375 
L 11.765625 16.84375 
Q 12.5 11.625 15.84375 8.84375 
Q 19.1875 6.0625 25.203125 6.0625 
Q 31.25 6.0625 34.171875 8.515625 
Q 37.109375 10.984375 37.109375 14.3125 
Q 37.109375 17.28125 34.515625 19 
Q 32.71875 20.171875 25.53125 21.96875 
Q 15.875 24.421875 12.140625 26.203125 
Q 8.40625 27.984375 6.46875 31.125 
Q 4.546875 34.28125 4.546875 38.09375 
Q 4.546875 41.546875 6.125 44.5 
Q 7.71875 47.46875 10.453125 49.421875 
Q 12.5 50.921875 16.03125 51.96875 
Q 19.578125 53.03125 23.640625 53.03125 
Q 29.734375 53.03125 34.34375 51.265625 
Q 38.96875 49.515625 41.15625 46.5 
Q 43.359375 43.5 44.1875 38.484375 
L 35.59375 37.3125 
Q 35.015625 41.3125 32.203125 43.546875 
Q 29.390625 45.796875 24.265625 45.796875 
Q 18.21875 45.796875 15.625 43.796875 
Q 13.03125 41.796875 13.03125 39.109375 
Q 13.03125 37.40625 14.109375 36.03125 
Q 15.1875 34.625 17.484375 33.6875 
Q 18.796875 33.203125 25.25 31.453125 
Q 34.578125 28.953125 38.25 27.359375 
Q 41.9375 25.78125 44.03125 22.75 
Q 46.140625 19.734375 46.140625 15.234375 
Q 46.140625 10.84375 43.578125 6.953125 
Q 41.015625 3.078125 36.171875 0.953125 
Q 31.34375 -1.171875 25.25 -1.171875 
Q 15.140625 -1.171875 9.84375 3.03125 
Q 4.546875 7.234375 3.078125 15.484375 
z
" id="ArialMT-115"/>
     </defs>
     <g style="fill:#262626;" transform="translate(117.515156 188.858906)scale(0.11 -0.11)">
      <use xlink:href="#ArialMT-84"/>
      <use x="60.912109" xlink:href="#ArialMT-111"/>
      <use x="116.527344" xlink:href="#ArialMT-116"/>
      <use x="144.310547" xlink:href="#ArialMT-97"/>
      <use x="199.925781" xlink:href="#ArialMT-108"/>
      <use x="222.142578" xlink:href="#ArialMT-69"/>
      <use x="288.841797" xlink:href="#ArialMT-110"/>
      <use x="344.457031" xlink:href="#ArialMT-118"/>
      <use x="394.457031" xlink:href="#ArialMT-73"/>
      <use x="422.240234" xlink:href="#ArialMT-110"/>
      <use x="477.855469" xlink:href="#ArialMT-116"/>
      <use x="505.638672" xlink:href="#ArialMT-101"/>
      <use x="561.253906" xlink:href="#ArialMT-114"/>
      <use x="594.554688" xlink:href="#ArialMT-97"/>
      <use x="650.169922" xlink:href="#ArialMT-99"/>
      <use x="700.169922" xlink:href="#ArialMT-116"/>
      <use x="727.953125" xlink:href="#ArialMT-115"/>
     </g>
    </g>
    <g id="text_7">
     <!-- 1e6 -->
     <defs>
      <path d="M 49.75 54.046875 
L 41.015625 53.375 
Q 39.84375 58.546875 37.703125 60.890625 
Q 34.125 64.65625 28.90625 64.65625 
Q 24.703125 64.65625 21.53125 62.3125 
Q 17.390625 59.28125 14.984375 53.46875 
Q 12.59375 47.65625 12.5 36.921875 
Q 15.671875 41.75 20.265625 44.09375 
Q 24.859375 46.4375 29.890625 46.4375 
Q 38.671875 46.4375 44.84375 39.96875 
Q 51.03125 33.5 51.03125 23.25 
Q 51.03125 16.5 48.125 10.71875 
Q 45.21875 4.9375 40.140625 1.859375 
Q 35.0625 -1.21875 28.609375 -1.21875 
Q 17.625 -1.21875 10.6875 6.859375 
Q 3.765625 14.9375 3.765625 33.5 
Q 3.765625 54.25 11.421875 63.671875 
Q 18.109375 71.875 29.4375 71.875 
Q 37.890625 71.875 43.28125 67.140625 
Q 48.6875 62.40625 49.75 54.046875 
z
M 13.875 23.1875 
Q 13.875 18.65625 15.796875 14.5 
Q 17.71875 10.359375 21.1875 8.171875 
Q 24.65625 6 28.46875 6 
Q 34.03125 6 38.03125 10.484375 
Q 42.046875 14.984375 42.046875 22.703125 
Q 42.046875 30.125 38.078125 34.390625 
Q 34.125 38.671875 28.125 38.671875 
Q 22.171875 38.671875 18.015625 34.390625 
Q 13.875 30.125 13.875 23.1875 
z
" id="ArialMT-54"/>
     </defs>
     <g style="fill:#262626;" transform="translate(254.517187 187.143125)scale(0.1 -0.1)">
      <use xlink:href="#ArialMT-49"/>
      <use x="55.615234" xlink:href="#ArialMT-101"/>
      <use x="111.230469" xlink:href="#ArialMT-54"/>
     </g>
    </g>
   </g>
   <g id="matplotlib.axis_2">
    <g id="ytick_1">
     <g id="line2d_11">
      <path clip-path="url(#pa0af6a28dd)" d="M 49.4 124.858256 
L 271.2 124.858256 
" style="fill:none;stroke:#ffffff;stroke-linecap:round;"/>
     </g>
     <g id="line2d_12"/>
     <g id="text_8">
      <!-- 2000 -->
      <g style="fill:#262626;" transform="translate(20.15625 128.437163)scale(0.1 -0.1)">
       <use xlink:href="#ArialMT-50"/>
       <use x="55.615234" xlink:href="#ArialMT-48"/>
       <use x="111.230469" xlink:href="#ArialMT-48"/>
       <use x="166.845703" xlink:href="#ArialMT-48"/>
      </g>
     </g>
    </g>
    <g id="ytick_2">
     <g id="line2d_13">
      <path clip-path="url(#pa0af6a28dd)" d="M 49.4 87.953826 
L 271.2 87.953826 
" style="fill:none;stroke:#ffffff;stroke-linecap:round;"/>
     </g>
     <g id="line2d_14"/>
     <g id="text_9">
      <!-- 4000 -->
      <defs>
       <path d="M 32.328125 0 
L 32.328125 17.140625 
L 1.265625 17.140625 
L 1.265625 25.203125 
L 33.9375 71.578125 
L 41.109375 71.578125 
L 41.109375 25.203125 
L 50.78125 25.203125 
L 50.78125 17.140625 
L 41.109375 17.140625 
L 41.109375 0 
z
M 32.328125 25.203125 
L 32.328125 57.46875 
L 9.90625 25.203125 
z
" id="ArialMT-52"/>
      </defs>
      <g style="fill:#262626;" transform="translate(20.15625 91.532732)scale(0.1 -0.1)">
       <use xlink:href="#ArialMT-52"/>
       <use x="55.615234" xlink:href="#ArialMT-48"/>
       <use x="111.230469" xlink:href="#ArialMT-48"/>
       <use x="166.845703" xlink:href="#ArialMT-48"/>
      </g>
     </g>
    </g>
    <g id="ytick_3">
     <g id="line2d_15">
      <path clip-path="url(#pa0af6a28dd)" d="M 49.4 51.049395 
L 271.2 51.049395 
" style="fill:none;stroke:#ffffff;stroke-linecap:round;"/>
     </g>
     <g id="line2d_16"/>
     <g id="text_10">
      <!-- 6000 -->
      <g style="fill:#262626;" transform="translate(20.15625 54.628302)scale(0.1 -0.1)">
       <use xlink:href="#ArialMT-54"/>
       <use x="55.615234" xlink:href="#ArialMT-48"/>
       <use x="111.230469" xlink:href="#ArialMT-48"/>
       <use x="166.845703" xlink:href="#ArialMT-48"/>
      </g>
     </g>
    </g>
    <g id="text_11">
     <!-- Performance -->
     <defs>
      <path d="M 7.71875 0 
L 7.71875 71.578125 
L 34.71875 71.578125 
Q 41.84375 71.578125 45.609375 70.90625 
Q 50.875 70.015625 54.4375 67.546875 
Q 58.015625 65.09375 60.1875 60.640625 
Q 62.359375 56.203125 62.359375 50.875 
Q 62.359375 41.75 56.546875 35.421875 
Q 50.734375 29.109375 35.546875 29.109375 
L 17.1875 29.109375 
L 17.1875 0 
z
M 17.1875 37.546875 
L 35.6875 37.546875 
Q 44.875 37.546875 48.734375 40.96875 
Q 52.59375 44.390625 52.59375 50.59375 
Q 52.59375 55.078125 50.3125 58.265625 
Q 48.046875 61.46875 44.34375 62.5 
Q 41.9375 63.140625 35.5 63.140625 
L 17.1875 63.140625 
z
" id="ArialMT-80"/>
      <path d="M 8.6875 0 
L 8.6875 45.015625 
L 0.921875 45.015625 
L 0.921875 51.859375 
L 8.6875 51.859375 
L 8.6875 57.375 
Q 8.6875 62.59375 9.625 65.140625 
Q 10.890625 68.5625 14.078125 70.671875 
Q 17.28125 72.796875 23.046875 72.796875 
Q 26.765625 72.796875 31.25 71.921875 
L 29.9375 64.265625 
Q 27.203125 64.75 24.75 64.75 
Q 20.75 64.75 19.09375 63.03125 
Q 17.4375 61.328125 17.4375 56.640625 
L 17.4375 51.859375 
L 27.546875 51.859375 
L 27.546875 45.015625 
L 17.4375 45.015625 
L 17.4375 0 
z
" id="ArialMT-102"/>
      <path d="M 6.59375 0 
L 6.59375 51.859375 
L 14.453125 51.859375 
L 14.453125 44.578125 
Q 16.890625 48.390625 20.9375 50.703125 
Q 25 53.03125 30.171875 53.03125 
Q 35.9375 53.03125 39.625 50.640625 
Q 43.3125 48.25 44.828125 43.953125 
Q 50.984375 53.03125 60.84375 53.03125 
Q 68.5625 53.03125 72.703125 48.75 
Q 76.859375 44.484375 76.859375 35.59375 
L 76.859375 0 
L 68.109375 0 
L 68.109375 32.671875 
Q 68.109375 37.9375 67.25 40.25 
Q 66.40625 42.578125 64.15625 43.984375 
Q 61.921875 45.40625 58.890625 45.40625 
Q 53.421875 45.40625 49.796875 41.765625 
Q 46.1875 38.140625 46.1875 30.125 
L 46.1875 0 
L 37.40625 0 
L 37.40625 33.6875 
Q 37.40625 39.546875 35.25 42.46875 
Q 33.109375 45.40625 28.21875 45.40625 
Q 24.515625 45.40625 21.359375 43.453125 
Q 18.21875 41.5 16.796875 37.734375 
Q 15.375 33.984375 15.375 26.90625 
L 15.375 0 
z
" id="ArialMT-109"/>
     </defs>
     <g style="fill:#262626;" transform="translate(13.97 128.107803)rotate(-90)scale(0.11 -0.11)">
      <use xlink:href="#ArialMT-80"/>
      <use x="66.699219" xlink:href="#ArialMT-101"/>
      <use x="122.314453" xlink:href="#ArialMT-114"/>
      <use x="155.615234" xlink:href="#ArialMT-102"/>
      <use x="183.398438" xlink:href="#ArialMT-111"/>
      <use x="239.013672" xlink:href="#ArialMT-114"/>
      <use x="272.314453" xlink:href="#ArialMT-109"/>
      <use x="355.615234" xlink:href="#ArialMT-97"/>
      <use x="411.230469" xlink:href="#ArialMT-110"/>
      <use x="466.845703" xlink:href="#ArialMT-99"/>
      <use x="516.845703" xlink:href="#ArialMT-101"/>
     </g>
    </g>
   </g>
   <g id="PolyCollection_1">
    <path clip-path="url(#pa0af6a28dd)" d="M 49.4 153.178273 
L 49.4 155.002236 
L 50.141806 153.836852 
L 50.883612 153.315314 
L 51.625418 152.848373 
L 52.367224 152.431726 
L 53.10903 152.013606 
L 53.850836 151.04939 
L 54.592642 150.163108 
L 55.334448 149.772907 
L 56.076254 149.580377 
L 56.81806 149.477554 
L 57.559866 149.105004 
L 58.301672 149.103561 
L 59.043478 148.918151 
L 59.785284 148.473167 
L 60.52709 147.663071 
L 61.268896 147.049432 
L 62.010702 146.025565 
L 62.752508 145.2778 
L 63.494314 144.608394 
L 64.23612 144.209099 
L 64.977926 143.63997 
L 65.719732 143.32436 
L 66.461538 142.67618 
L 67.203344 141.5129 
L 67.945151 140.47023 
L 68.686957 140.944521 
L 69.428763 140.336474 
L 70.170569 139.762525 
L 70.912375 139.117138 
L 71.654181 138.523254 
L 72.395987 138.20759 
L 73.137793 137.119436 
L 73.879599 136.551622 
L 74.621405 135.31116 
L 75.363211 134.437331 
L 76.105017 134.166414 
L 76.846823 132.385238 
L 77.588629 132.003126 
L 78.330435 130.805319 
L 79.072241 129.794035 
L 79.814047 128.428131 
L 80.555853 126.781983 
L 81.297659 125.030734 
L 82.039465 123.05375 
L 82.781271 120.862602 
L 83.523077 119.576944 
L 84.264883 119.224007 
L 85.006689 118.047464 
L 85.748495 116.728312 
L 86.490301 115.459505 
L 87.232107 114.76455 
L 87.973913 114.084164 
L 88.715719 114.52494 
L 89.457525 113.798272 
L 90.199331 112.61844 
L 90.941137 112.672917 
L 91.682943 112.152493 
L 92.424749 109.623833 
L 93.166555 108.492453 
L 93.908361 107.151126 
L 94.650167 107.301139 
L 95.391973 105.48445 
L 96.133779 104.687824 
L 96.875585 102.954713 
L 97.617391 102.528381 
L 98.359197 102.614112 
L 99.101003 102.623989 
L 99.842809 102.294678 
L 100.584615 102.319058 
L 101.326421 102.943429 
L 102.068227 102.678121 
L 102.810033 101.750769 
L 103.551839 100.96119 
L 104.293645 100.731121 
L 105.035452 100.123529 
L 105.777258 99.04631 
L 106.519064 98.400729 
L 107.26087 96.812868 
L 108.002676 95.503958 
L 108.744482 94.451345 
L 109.486288 93.416986 
L 110.228094 92.810568 
L 110.9699 92.517761 
L 111.711706 93.582317 
L 112.453512 95.223203 
L 113.195318 97.532443 
L 113.937124 99.606038 
L 114.67893 100.806435 
L 115.420736 100.323216 
L 116.162542 100.983636 
L 116.904348 102.573475 
L 117.646154 103.707572 
L 118.38796 103.206452 
L 119.129766 101.045552 
L 119.871572 97.789386 
L 120.613378 95.709276 
L 121.355184 93.790915 
L 122.09699 91.992281 
L 122.838796 90.521398 
L 123.580602 92.090154 
L 124.322408 93.532248 
L 125.064214 95.21818 
L 125.80602 95.818535 
L 126.547826 96.11204 
L 127.289632 95.856582 
L 128.031438 97.337927 
L 128.773244 99.274987 
L 129.51505 99.289825 
L 130.256856 99.274878 
L 130.998662 101.116608 
L 131.740468 100.47524 
L 132.482274 101.37237 
L 133.22408 102.491398 
L 133.965886 104.438368 
L 134.707692 106.720137 
L 135.449498 107.963617 
L 136.191304 107.545009 
L 136.93311 106.593076 
L 137.674916 107.640971 
L 138.416722 111.303621 
L 139.158528 110.69893 
L 139.900334 109.87616 
L 140.64214 106.32258 
L 141.383946 103.218514 
L 142.125753 100.322134 
L 142.867559 98.004132 
L 143.609365 95.886058 
L 144.351171 92.914326 
L 145.092977 90.07878 
L 145.834783 90.25739 
L 146.576589 90.941531 
L 147.318395 92.12033 
L 148.060201 94.58845 
L 148.802007 96.750533 
L 149.543813 97.062985 
L 150.285619 97.872796 
L 151.027425 98.643952 
L 151.769231 103.513126 
L 152.511037 102.868135 
L 153.252843 103.276908 
L 153.994649 102.608635 
L 154.736455 101.20457 
L 155.478261 98.965419 
L 156.220067 96.730848 
L 156.961873 97.510805 
L 157.703679 99.794107 
L 158.445485 98.880258 
L 159.187291 99.194673 
L 159.929097 95.697144 
L 160.670903 92.090046 
L 161.412709 88.330744 
L 162.154515 85.981589 
L 162.896321 85.139035 
L 163.638127 85.194044 
L 164.379933 87.35874 
L 165.121739 89.830392 
L 165.863545 94.18869 
L 166.605351 100.177452 
L 167.347157 106.959171 
L 168.088963 112.25529 
L 168.830769 116.455547 
L 169.572575 120.175954 
L 170.314381 123.287966 
L 171.056187 121.590274 
L 171.797993 119.840635 
L 172.539799 118.229456 
L 173.281605 113.719035 
L 174.023411 109.254054 
L 174.765217 103.299031 
L 175.507023 98.089266 
L 176.248829 95.084125 
L 176.990635 93.287672 
L 177.732441 93.934269 
L 178.474247 97.026229 
L 179.216054 99.298587 
L 179.95786 102.112154 
L 180.699666 106.36239 
L 181.441472 109.563418 
L 182.183278 113.4393 
L 182.925084 116.88542 
L 183.66689 118.453231 
L 184.408696 119.063744 
L 185.150502 119.488953 
L 185.892308 119.984447 
L 186.634114 114.928231 
L 187.37592 112.730891 
L 188.117726 110.47872 
L 188.859532 105.587911 
L 189.601338 102.272107 
L 190.343144 98.299721 
L 191.08495 93.243265 
L 191.826756 88.327795 
L 192.568562 85.390833 
L 193.310368 82.986351 
L 194.052174 80.45239 
L 194.79398 78.688325 
L 195.535786 77.192904 
L 196.277592 75.283757 
L 197.019398 75.258848 
L 197.761204 74.596688 
L 198.50301 73.693697 
L 199.244816 73.526487 
L 199.986622 73.039282 
L 200.728428 73.092525 
L 201.470234 71.92494 
L 202.21204 72.379712 
L 202.953846 72.508489 
L 203.695652 73.069462 
L 204.437458 73.313165 
L 205.179264 73.031653 
L 205.92107 72.845841 
L 206.662876 72.821246 
L 207.404682 72.586485 
L 208.146488 72.593074 
L 208.888294 72.120659 
L 209.6301 72.337045 
L 210.371906 71.959052 
L 211.113712 72.508747 
L 211.855518 71.597431 
L 212.597324 71.279398 
L 213.33913 71.176968 
L 214.080936 71.067777 
L 214.822742 71.068822 
L 215.564548 71.250979 
L 216.306355 71.168577 
L 217.048161 71.437476 
L 217.789967 71.257383 
L 218.531773 71.239666 
L 219.273579 71.499534 
L 220.015385 71.789186 
L 220.757191 72.458834 
L 221.498997 72.956055 
L 222.240803 73.541923 
L 222.982609 73.306173 
L 223.724415 73.438102 
L 224.466221 73.089359 
L 225.208027 73.058809 
L 225.949833 72.664641 
L 226.691639 72.553406 
L 227.433445 71.647166 
L 228.175251 71.818144 
L 228.917057 71.202284 
L 229.658863 70.751049 
L 230.400669 69.943045 
L 231.142475 70.021612 
L 231.884281 70.279662 
L 232.626087 71.55753 
L 233.367893 70.702049 
L 234.109699 70.448471 
L 234.851505 70.255486 
L 235.593311 70.182858 
L 236.335117 69.502279 
L 237.076923 69.876427 
L 237.818729 70.024886 
L 238.560535 70.150063 
L 239.302341 70.399472 
L 240.044147 70.09166 
L 240.785953 69.302868 
L 241.527759 69.019353 
L 242.269565 69.009334 
L 243.011371 68.794525 
L 243.753177 68.77887 
L 244.494983 69.36244 
L 245.236789 69.613532 
L 245.978595 69.567365 
L 246.720401 69.916017 
L 247.462207 70.174196 
L 248.204013 69.579042 
L 248.945819 69.694941 
L 249.687625 70.583237 
L 250.429431 70.85508 
L 251.171237 70.911674 
L 251.913043 71.095767 
L 252.654849 70.813452 
L 253.396656 70.46161 
L 254.138462 69.978921 
L 254.880268 69.634439 
L 255.622074 68.647593 
L 256.36388 69.730506 
L 257.105686 68.948563 
L 257.847492 69.135684 
L 258.589298 69.189986 
L 259.331104 68.892026 
L 260.07291 69.305409 
L 260.814716 69.241137 
L 261.556522 69.135697 
L 262.298328 69.27519 
L 263.040134 68.955982 
L 263.78194 68.844213 
L 264.523746 68.09459 
L 265.265552 68.275532 
L 266.007358 67.216152 
L 266.749164 66.846861 
L 267.49097 67.128494 
L 268.232776 66.563745 
L 268.974582 66.461434 
L 269.716388 66.166311 
L 270.458194 65.791535 
L 271.2 66.091765 
L 271.2 39.825287 
L 271.2 39.825287 
L 270.458194 40.218806 
L 269.716388 40.438917 
L 268.974582 40.288747 
L 268.232776 40.134018 
L 267.49097 40.012868 
L 266.749164 40.618317 
L 266.007358 40.714344 
L 265.265552 39.988391 
L 264.523746 40.476546 
L 263.78194 40.091777 
L 263.040134 40.286026 
L 262.298328 40.173094 
L 261.556522 39.804214 
L 260.814716 40.069623 
L 260.07291 40.278982 
L 259.331104 40.681357 
L 258.589298 40.226406 
L 257.847492 40.349963 
L 257.105686 40.888699 
L 256.36388 40.641418 
L 255.622074 40.99217 
L 254.880268 40.995972 
L 254.138462 41.184181 
L 253.396656 41.438275 
L 252.654849 41.410197 
L 251.913043 41.351536 
L 251.171237 41.532922 
L 250.429431 41.63559 
L 249.687625 41.222202 
L 248.945819 41.455024 
L 248.204013 41.434639 
L 247.462207 41.640712 
L 246.720401 41.502785 
L 245.978595 41.460411 
L 245.236789 41.19717 
L 244.494983 41.172927 
L 243.753177 41.44837 
L 243.011371 40.821167 
L 242.269565 40.871447 
L 241.527759 41.023702 
L 240.785953 41.401405 
L 240.044147 40.869737 
L 239.302341 40.859261 
L 238.560535 41.059595 
L 237.818729 41.184013 
L 237.076923 41.73366 
L 236.335117 41.813893 
L 235.593311 41.742658 
L 234.851505 42.205239 
L 234.109699 41.998822 
L 233.367893 42.317163 
L 232.626087 41.432507 
L 231.884281 42.328336 
L 231.142475 41.985992 
L 230.400669 42.135617 
L 229.658863 42.157319 
L 228.917057 41.930688 
L 228.175251 41.696685 
L 227.433445 41.596921 
L 226.691639 41.582533 
L 225.949833 41.540896 
L 225.208027 41.323666 
L 224.466221 41.724212 
L 223.724415 41.0892 
L 222.982609 41.529181 
L 222.240803 41.553672 
L 221.498997 41.547294 
L 220.757191 41.789031 
L 220.015385 41.972585 
L 219.273579 42.255902 
L 218.531773 42.555948 
L 217.789967 43.078045 
L 217.048161 42.964151 
L 216.306355 43.393882 
L 215.564548 43.867917 
L 214.822742 43.975519 
L 214.080936 44.016855 
L 213.33913 43.990117 
L 212.597324 43.811682 
L 211.855518 43.968269 
L 211.113712 43.715408 
L 210.371906 43.568026 
L 209.6301 43.291291 
L 208.888294 43.455016 
L 208.146488 42.963299 
L 207.404682 42.858374 
L 206.662876 42.810989 
L 205.92107 42.965968 
L 205.179264 42.995376 
L 204.437458 43.322976 
L 203.695652 43.641049 
L 202.953846 43.957243 
L 202.21204 44.054873 
L 201.470234 44.710897 
L 200.728428 45.270611 
L 199.986622 45.747642 
L 199.244816 46.02891 
L 198.50301 46.420622 
L 197.761204 46.263971 
L 197.019398 46.223405 
L 196.277592 46.411732 
L 195.535786 46.063901 
L 194.79398 46.223491 
L 194.052174 46.20575 
L 193.310368 46.49477 
L 192.568562 45.31701 
L 191.826756 44.370303 
L 191.08495 43.164455 
L 190.343144 41.795787 
L 189.601338 40.423259 
L 188.859532 40.153913 
L 188.117726 39.666249 
L 187.37592 39.969185 
L 186.634114 39.504455 
L 185.892308 38.246964 
L 185.150502 39.301311 
L 184.408696 40.188209 
L 183.66689 41.417572 
L 182.925084 42.387212 
L 182.183278 43.289489 
L 181.441472 45.33303 
L 180.699666 46.813933 
L 179.95786 48.293737 
L 179.216054 49.51508 
L 178.474247 51.079472 
L 177.732441 51.888884 
L 176.990635 51.810873 
L 176.248829 52.120019 
L 175.507023 51.889825 
L 174.765217 50.744278 
L 174.023411 50.593716 
L 173.281605 50.362167 
L 172.539799 50.082951 
L 171.797993 50.121043 
L 171.056187 49.234311 
L 170.314381 50.245223 
L 169.572575 53.43428 
L 168.830769 54.856873 
L 168.088963 55.360218 
L 167.347157 55.722527 
L 166.605351 55.908461 
L 165.863545 55.508951 
L 165.121739 56.292393 
L 164.379933 55.112891 
L 163.638127 55.23843 
L 162.896321 53.911181 
L 162.154515 50.46839 
L 161.412709 47.926604 
L 160.670903 46.844086 
L 159.929097 44.714267 
L 159.187291 43.620226 
L 158.445485 44.529766 
L 157.703679 44.29211 
L 156.961873 45.783412 
L 156.220067 46.400695 
L 155.478261 45.899697 
L 154.736455 45.37204 
L 153.994649 45.251834 
L 153.252843 45.227086 
L 152.511037 45.3686 
L 151.769231 45.663874 
L 151.027425 47.877502 
L 150.285619 48.377016 
L 149.543813 49.311474 
L 148.802007 49.798773 
L 148.060201 51.307865 
L 147.318395 53.524434 
L 146.576589 55.679645 
L 145.834783 55.770912 
L 145.092977 55.007925 
L 144.351171 52.837044 
L 143.609365 49.397139 
L 142.867559 49.073313 
L 142.125753 49.255113 
L 141.383946 47.842074 
L 140.64214 47.092639 
L 139.900334 47.229573 
L 139.158528 47.506569 
L 138.416722 47.150793 
L 137.674916 49.613949 
L 136.93311 50.681685 
L 136.191304 52.269726 
L 135.449498 54.102513 
L 134.707692 55.73431 
L 133.965886 56.574049 
L 133.22408 58.535048 
L 132.482274 59.893671 
L 131.740468 59.611545 
L 130.998662 59.015888 
L 130.256856 58.560965 
L 129.51505 58.684789 
L 128.773244 60.096849 
L 128.031438 60.462491 
L 127.289632 58.785257 
L 126.547826 58.349439 
L 125.80602 59.146695 
L 125.064214 59.700759 
L 124.322408 60.855945 
L 123.580602 61.04255 
L 122.838796 61.683069 
L 122.09699 62.121523 
L 121.355184 62.299917 
L 120.613378 62.508569 
L 119.871572 61.641795 
L 119.129766 61.646244 
L 118.38796 61.682243 
L 117.646154 62.707006 
L 116.904348 63.952406 
L 116.162542 64.837704 
L 115.420736 65.639605 
L 114.67893 66.232737 
L 113.937124 67.368635 
L 113.195318 69.322792 
L 112.453512 69.789597 
L 111.711706 69.91653 
L 110.9699 68.404855 
L 110.228094 67.70403 
L 109.486288 67.393757 
L 108.744482 68.60555 
L 108.002676 69.110581 
L 107.26087 69.918175 
L 106.519064 69.967774 
L 105.777258 70.331619 
L 105.035452 70.176534 
L 104.293645 70.931842 
L 103.551839 71.010611 
L 102.810033 73.085555 
L 102.068227 73.777914 
L 101.326421 75.226622 
L 100.584615 75.403398 
L 99.842809 76.037778 
L 99.101003 76.889912 
L 98.359197 78.088823 
L 97.617391 78.238406 
L 96.875585 78.343478 
L 96.133779 77.987096 
L 95.391973 78.069732 
L 94.650167 76.693159 
L 93.908361 77.15111 
L 93.166555 77.306109 
L 92.424749 78.79347 
L 91.682943 79.474829 
L 90.941137 79.331945 
L 90.199331 78.560187 
L 89.457525 79.444204 
L 88.715719 80.511389 
L 87.973913 82.15457 
L 87.232107 84.497021 
L 86.490301 85.503994 
L 85.748495 88.01603 
L 85.006689 88.950998 
L 84.264883 89.470432 
L 83.523077 91.355438 
L 82.781271 93.115147 
L 82.039465 94.816768 
L 81.297659 95.927977 
L 80.555853 97.597138 
L 79.814047 100.815113 
L 79.072241 102.08935 
L 78.330435 103.154524 
L 77.588629 103.957227 
L 76.846823 104.527187 
L 76.105017 106.142781 
L 75.363211 106.415998 
L 74.621405 108.444051 
L 73.879599 109.529831 
L 73.137793 111.16162 
L 72.395987 112.216967 
L 71.654181 113.223024 
L 70.912375 114.485012 
L 70.170569 116.903132 
L 69.428763 117.975396 
L 68.686957 120.372425 
L 67.945151 122.37064 
L 67.203344 125.106166 
L 66.461538 126.810894 
L 65.719732 128.625096 
L 64.977926 130.97632 
L 64.23612 132.609371 
L 63.494314 133.321865 
L 62.752508 134.870107 
L 62.010702 136.027056 
L 61.268896 137.073348 
L 60.52709 138.101345 
L 59.785284 139.202821 
L 59.043478 140.215277 
L 58.301672 140.885477 
L 57.559866 141.545127 
L 56.81806 142.419465 
L 56.076254 143.500699 
L 55.334448 144.671942 
L 54.592642 145.731818 
L 53.850836 147.418252 
L 53.10903 149.956924 
L 52.367224 150.644238 
L 51.625418 151.014267 
L 50.883612 151.500189 
L 50.141806 152.053633 
L 49.4 153.178273 
z
" style="fill:#4c72b0;fill-opacity:0.2;"/>
   </g>
   <g id="PolyCollection_2">
    <path clip-path="url(#pa0af6a28dd)" d="M 49.4 152.510463 
L 49.4 154.734302 
L 50.141806 154.396163 
L 50.883612 153.636859 
L 51.625418 153.254836 
L 52.367224 152.67838 
L 53.10903 152.362516 
L 53.850836 150.977601 
L 54.592642 150.436304 
L 55.334448 149.947264 
L 56.076254 149.594745 
L 56.81806 149.087553 
L 57.559866 148.815458 
L 58.301672 148.389226 
L 59.043478 148.226977 
L 59.785284 147.912348 
L 60.52709 147.994575 
L 61.268896 147.731972 
L 62.010702 147.118173 
L 62.752508 147.010288 
L 63.494314 146.430906 
L 64.23612 145.731058 
L 64.977926 145.334437 
L 65.719732 144.883698 
L 66.461538 144.426389 
L 67.203344 143.901575 
L 67.945151 143.096809 
L 68.686957 142.884469 
L 69.428763 141.85968 
L 70.170569 140.597796 
L 70.912375 139.808279 
L 71.654181 139.658052 
L 72.395987 138.867897 
L 73.137793 138.619568 
L 73.879599 137.955901 
L 74.621405 137.67164 
L 75.363211 136.519387 
L 76.105017 136.045656 
L 76.846823 135.387193 
L 77.588629 134.609023 
L 78.330435 134.440672 
L 79.072241 134.135875 
L 79.814047 133.862413 
L 80.555853 133.787314 
L 81.297659 132.404536 
L 82.039465 132.180119 
L 82.781271 131.085766 
L 83.523077 131.07932 
L 84.264883 130.966599 
L 85.006689 130.218647 
L 85.748495 129.914937 
L 86.490301 129.764292 
L 87.232107 129.778295 
L 87.973913 129.045528 
L 88.715719 128.386392 
L 89.457525 128.149053 
L 90.199331 127.375921 
L 90.941137 126.636544 
L 91.682943 126.386435 
L 92.424749 125.152195 
L 93.166555 124.374041 
L 93.908361 124.672383 
L 94.650167 124.476064 
L 95.391973 123.445146 
L 96.133779 122.589318 
L 96.875585 121.305204 
L 97.617391 120.864541 
L 98.359197 119.905336 
L 99.101003 119.89372 
L 99.842809 118.71215 
L 100.584615 118.321004 
L 101.326421 117.916591 
L 102.068227 116.902178 
L 102.810033 116.509032 
L 103.551839 116.196052 
L 104.293645 115.722002 
L 105.035452 114.349126 
L 105.777258 113.840088 
L 106.519064 114.01601 
L 107.26087 113.518044 
L 108.002676 112.78729 
L 108.744482 112.036333 
L 109.486288 110.905919 
L 110.228094 110.154669 
L 110.9699 109.414148 
L 111.711706 108.681772 
L 112.453512 108.837789 
L 113.195318 108.909101 
L 113.937124 108.914321 
L 114.67893 108.338282 
L 115.420736 108.644577 
L 116.162542 108.910768 
L 116.904348 109.799982 
L 117.646154 109.684038 
L 118.38796 109.722364 
L 119.129766 109.337178 
L 119.871572 109.248192 
L 120.613378 109.052678 
L 121.355184 108.978502 
L 122.09699 108.572855 
L 122.838796 108.259987 
L 123.580602 107.544279 
L 124.322408 107.114329 
L 125.064214 107.301046 
L 125.80602 107.78897 
L 126.547826 107.979156 
L 127.289632 107.675556 
L 128.031438 107.692372 
L 128.773244 106.332424 
L 129.51505 106.073719 
L 130.256856 105.911819 
L 130.998662 105.818676 
L 131.740468 105.790612 
L 132.482274 105.25399 
L 133.22408 103.907412 
L 133.965886 102.938327 
L 134.707692 101.720302 
L 135.449498 101.028594 
L 136.191304 99.860189 
L 136.93311 99.781076 
L 137.674916 99.251465 
L 138.416722 98.84042 
L 139.158528 98.573421 
L 139.900334 97.992399 
L 140.64214 97.355905 
L 141.383946 97.368676 
L 142.125753 96.64581 
L 142.867559 96.578954 
L 143.609365 96.997549 
L 144.351171 96.877062 
L 145.092977 97.538651 
L 145.834783 97.690913 
L 146.576589 98.009591 
L 147.318395 97.896401 
L 148.060201 98.080429 
L 148.802007 98.941773 
L 149.543813 98.752436 
L 150.285619 99.482876 
L 151.027425 99.638974 
L 151.769231 98.975225 
L 152.511037 99.260828 
L 153.252843 98.345754 
L 153.994649 98.992295 
L 154.736455 99.952682 
L 155.478261 102.046797 
L 156.220067 104.158305 
L 156.961873 106.306827 
L 157.703679 108.868795 
L 158.445485 110.925948 
L 159.187291 112.315017 
L 159.929097 113.746936 
L 160.670903 114.479296 
L 161.412709 111.271468 
L 162.154515 108.147595 
L 162.896321 104.553361 
L 163.638127 101.040919 
L 164.379933 98.546473 
L 165.121739 97.141836 
L 165.863545 95.835957 
L 166.605351 95.040293 
L 167.347157 94.754804 
L 168.088963 94.017087 
L 168.830769 94.466964 
L 169.572575 94.140729 
L 170.314381 93.65993 
L 171.056187 94.051047 
L 171.797993 95.868437 
L 172.539799 97.112997 
L 173.281605 99.433227 
L 174.023411 102.379039 
L 174.765217 105.837646 
L 175.507023 108.675836 
L 176.248829 112.370969 
L 176.990635 114.42114 
L 177.732441 118.362231 
L 178.474247 121.50413 
L 179.216054 119.484227 
L 179.95786 118.058926 
L 180.699666 117.529919 
L 181.441472 113.92081 
L 182.183278 111.123844 
L 182.925084 108.02162 
L 183.66689 105.534136 
L 184.408696 103.41771 
L 185.150502 101.307017 
L 185.892308 99.955326 
L 186.634114 99.412402 
L 187.37592 100.141317 
L 188.117726 100.585472 
L 188.859532 101.392153 
L 189.601338 102.812959 
L 190.343144 104.781919 
L 191.08495 106.33301 
L 191.826756 106.901837 
L 192.568562 106.828155 
L 193.310368 107.453854 
L 194.052174 105.115364 
L 194.79398 102.931682 
L 195.535786 101.418608 
L 196.277592 99.39249 
L 197.019398 97.266416 
L 197.761204 96.247456 
L 198.50301 94.246924 
L 199.244816 93.447254 
L 199.986622 92.115628 
L 200.728428 92.849522 
L 201.470234 92.99798 
L 202.21204 92.515067 
L 202.953846 92.87225 
L 203.695652 92.11465 
L 204.437458 91.481482 
L 205.179264 92.218516 
L 205.92107 92.075724 
L 206.662876 91.971986 
L 207.404682 91.514754 
L 208.146488 91.596752 
L 208.888294 90.421662 
L 209.6301 90.191643 
L 210.371906 90.541448 
L 211.113712 89.65994 
L 211.855518 89.528471 
L 212.597324 90.27906 
L 213.33913 90.883707 
L 214.080936 92.380951 
L 214.822742 94.472567 
L 215.564548 96.78955 
L 216.306355 99.57407 
L 217.048161 102.180629 
L 217.789967 103.955276 
L 218.531773 106.378291 
L 219.273579 107.058287 
L 220.015385 107.648406 
L 220.757191 104.005029 
L 221.498997 101.537496 
L 222.240803 99.09147 
L 222.982609 97.018586 
L 223.724415 95.191143 
L 224.466221 94.254101 
L 225.208027 92.984786 
L 225.949833 93.527426 
L 226.691639 95.102729 
L 227.433445 99.116068 
L 228.175251 103.385806 
L 228.917057 107.632337 
L 229.658863 111.786727 
L 230.400669 115.435605 
L 231.142475 119.994421 
L 231.884281 123.140593 
L 232.626087 125.949955 
L 233.367893 126.705777 
L 234.109699 122.775744 
L 234.851505 119.94478 
L 235.593311 118.639834 
L 236.335117 118.89507 
L 237.076923 119.882556 
L 237.818729 120.638031 
L 238.560535 121.498029 
L 239.302341 122.42654 
L 240.044147 121.485736 
L 240.785953 120.145327 
L 241.527759 118.648958 
L 242.269565 117.012274 
L 243.011371 114.372535 
L 243.753177 111.755058 
L 244.494983 107.526087 
L 245.236789 105.174068 
L 245.978595 103.565819 
L 246.720401 102.089533 
L 247.462207 100.094022 
L 248.204013 98.134388 
L 248.945819 96.303651 
L 249.687625 94.647316 
L 250.429431 94.076089 
L 251.171237 92.949046 
L 251.913043 92.055638 
L 252.654849 91.456776 
L 253.396656 90.6709 
L 254.138462 90.522617 
L 254.880268 89.969519 
L 255.622074 89.81547 
L 256.36388 89.098415 
L 257.105686 88.724984 
L 257.847492 89.374995 
L 258.589298 88.371295 
L 259.331104 88.345303 
L 260.07291 89.251835 
L 260.814716 89.434277 
L 261.556522 89.266467 
L 262.298328 89.258335 
L 263.040134 89.585739 
L 263.78194 90.197628 
L 264.523746 90.532678 
L 265.265552 90.936705 
L 266.007358 90.495768 
L 266.749164 90.52079 
L 267.49097 91.057479 
L 268.232776 90.267453 
L 268.974582 90.278233 
L 269.716388 90.716327 
L 270.458194 90.499461 
L 271.2 90.495964 
L 271.2 49.493077 
L 271.2 49.493077 
L 270.458194 49.348548 
L 269.716388 49.577791 
L 268.974582 49.615944 
L 268.232776 49.866125 
L 267.49097 49.895065 
L 266.749164 49.983903 
L 266.007358 49.621195 
L 265.265552 50.18989 
L 264.523746 50.371798 
L 263.78194 50.834556 
L 263.040134 51.386556 
L 262.298328 51.750716 
L 261.556522 52.022432 
L 260.814716 52.350226 
L 260.07291 52.659608 
L 259.331104 53.079553 
L 258.589298 53.340798 
L 257.847492 54.101185 
L 257.105686 53.754481 
L 256.36388 54.10384 
L 255.622074 54.783285 
L 254.880268 54.801136 
L 254.138462 54.959261 
L 253.396656 55.630731 
L 252.654849 55.821306 
L 251.913043 55.743641 
L 251.171237 55.551746 
L 250.429431 55.559859 
L 249.687625 55.663152 
L 248.945819 55.405807 
L 248.204013 54.584383 
L 247.462207 54.081181 
L 246.720401 53.502746 
L 245.978595 52.678431 
L 245.236789 51.855719 
L 244.494983 51.086781 
L 243.753177 50.389938 
L 243.011371 49.985807 
L 242.269565 49.914397 
L 241.527759 50.10463 
L 240.785953 50.780999 
L 240.044147 51.573655 
L 239.302341 52.277289 
L 238.560535 55.004372 
L 237.818729 57.03464 
L 237.076923 58.934894 
L 236.335117 60.804289 
L 235.593311 62.022508 
L 234.851505 62.440138 
L 234.109699 62.034811 
L 233.367893 60.782468 
L 232.626087 60.522332 
L 231.884281 61.036551 
L 231.142475 60.307547 
L 230.400669 61.425731 
L 229.658863 63.01137 
L 228.917057 64.608452 
L 228.175251 65.612729 
L 227.433445 65.114757 
L 226.691639 63.869624 
L 225.949833 63.096251 
L 225.208027 60.517453 
L 224.466221 58.45899 
L 223.724415 59.853296 
L 222.982609 61.301901 
L 222.240803 61.353911 
L 221.498997 60.73146 
L 220.757191 60.022285 
L 220.015385 58.260037 
L 219.273579 58.441453 
L 218.531773 58.908683 
L 217.789967 57.541205 
L 217.048161 56.188194 
L 216.306355 57.285895 
L 215.564548 56.374453 
L 214.822742 54.969624 
L 214.080936 54.70486 
L 213.33913 54.445889 
L 212.597324 53.346542 
L 211.855518 51.633604 
L 211.113712 52.094923 
L 210.371906 52.04137 
L 209.6301 52.498563 
L 208.888294 53.147932 
L 208.146488 53.041288 
L 207.404682 53.951324 
L 206.662876 53.142308 
L 205.92107 54.151878 
L 205.179264 54.11104 
L 204.437458 54.654866 
L 203.695652 54.655672 
L 202.953846 54.301566 
L 202.21204 54.447083 
L 201.470234 55.188612 
L 200.728428 55.110093 
L 199.986622 55.344178 
L 199.244816 54.305262 
L 198.50301 54.688301 
L 197.761204 53.978708 
L 197.019398 53.418313 
L 196.277592 52.222043 
L 195.535786 51.253289 
L 194.79398 51.102278 
L 194.052174 50.735581 
L 193.310368 49.418015 
L 192.568562 49.641469 
L 191.826756 49.851112 
L 191.08495 50.891414 
L 190.343144 51.947057 
L 189.601338 53.087803 
L 188.859532 54.96513 
L 188.117726 57.272554 
L 187.37592 59.122878 
L 186.634114 59.325839 
L 185.892308 60.112852 
L 185.150502 60.219469 
L 184.408696 60.186768 
L 183.66689 59.406233 
L 182.925084 58.172672 
L 182.183278 57.397319 
L 181.441472 55.884232 
L 180.699666 53.938067 
L 179.95786 52.799245 
L 179.216054 52.302118 
L 178.474247 51.64829 
L 177.732441 52.742534 
L 176.990635 54.23398 
L 176.248829 55.926135 
L 175.507023 58.18446 
L 174.765217 59.452533 
L 174.023411 60.603848 
L 173.281605 61.93005 
L 172.539799 62.034264 
L 171.797993 62.169978 
L 171.056187 61.024029 
L 170.314381 58.831202 
L 169.572575 59.260156 
L 168.830769 59.035758 
L 168.088963 58.942739 
L 167.347157 59.163039 
L 166.605351 59.722676 
L 165.863545 60.306887 
L 165.121739 61.433337 
L 164.379933 61.689207 
L 163.638127 60.897535 
L 162.896321 60.631342 
L 162.154515 59.89584 
L 161.412709 58.273368 
L 160.670903 56.73914 
L 159.929097 58.421147 
L 159.187291 59.142554 
L 158.445485 59.833784 
L 157.703679 61.655053 
L 156.961873 62.195809 
L 156.220067 63.80045 
L 155.478261 65.146978 
L 154.736455 65.58929 
L 153.994649 64.91029 
L 153.252843 63.653555 
L 152.511037 61.984104 
L 151.769231 61.538482 
L 151.027425 61.555061 
L 150.285619 62.254096 
L 149.543813 62.535993 
L 148.802007 63.368879 
L 148.060201 63.618899 
L 147.318395 62.931943 
L 146.576589 62.508919 
L 145.834783 62.547136 
L 145.092977 62.810126 
L 144.351171 62.788372 
L 143.609365 63.028779 
L 142.867559 63.180928 
L 142.125753 62.569656 
L 141.383946 62.637615 
L 140.64214 62.096388 
L 139.900334 62.672462 
L 139.158528 63.313662 
L 138.416722 63.563155 
L 137.674916 63.661015 
L 136.93311 64.756452 
L 136.191304 64.782096 
L 135.449498 65.088453 
L 134.707692 65.609519 
L 133.965886 66.365474 
L 133.22408 66.935938 
L 132.482274 67.530633 
L 131.740468 68.654732 
L 130.998662 68.818016 
L 130.256856 69.312523 
L 129.51505 70.270507 
L 128.773244 69.880586 
L 128.031438 70.219461 
L 127.289632 70.141663 
L 126.547826 69.672396 
L 125.80602 70.07954 
L 125.064214 69.980714 
L 124.322408 70.590708 
L 123.580602 68.922471 
L 122.838796 69.515031 
L 122.09699 69.854087 
L 121.355184 69.525903 
L 120.613378 69.383739 
L 119.871572 69.489671 
L 119.129766 69.505418 
L 118.38796 70.093007 
L 117.646154 70.612244 
L 116.904348 70.87752 
L 116.162542 71.140417 
L 115.420736 71.497198 
L 114.67893 71.682347 
L 113.937124 71.093172 
L 113.195318 71.66668 
L 112.453512 72.236038 
L 111.711706 72.706465 
L 110.9699 73.25373 
L 110.228094 74.071145 
L 109.486288 73.999651 
L 108.744482 74.224474 
L 108.002676 74.020471 
L 107.26087 74.366537 
L 106.519064 73.686439 
L 105.777258 74.544143 
L 105.035452 76.356415 
L 104.293645 77.783412 
L 103.551839 78.23452 
L 102.810033 78.483236 
L 102.068227 80.009125 
L 101.326421 82.522359 
L 100.584615 84.524076 
L 99.842809 84.753732 
L 99.101003 86.061204 
L 98.359197 87.633368 
L 97.617391 88.008927 
L 96.875585 87.607969 
L 96.133779 86.20846 
L 95.391973 87.070366 
L 94.650167 88.099195 
L 93.908361 87.490846 
L 93.166555 85.784084 
L 92.424749 83.634896 
L 91.682943 84.24068 
L 90.941137 84.472189 
L 90.199331 85.08513 
L 89.457525 86.140116 
L 88.715719 86.801233 
L 87.973913 88.080087 
L 87.232107 88.429931 
L 86.490301 88.597796 
L 85.748495 89.048747 
L 85.006689 89.4415 
L 84.264883 90.668272 
L 83.523077 92.187505 
L 82.781271 92.45918 
L 82.039465 94.135269 
L 81.297659 94.973384 
L 80.555853 95.821138 
L 79.814047 96.414338 
L 79.072241 97.650395 
L 78.330435 99.263192 
L 77.588629 101.147548 
L 76.846823 103.636622 
L 76.105017 105.238326 
L 75.363211 107.449629 
L 74.621405 109.279485 
L 73.879599 111.056575 
L 73.137793 112.73378 
L 72.395987 115.569724 
L 71.654181 117.017752 
L 70.912375 119.607371 
L 70.170569 121.233913 
L 69.428763 123.379178 
L 68.686957 124.392989 
L 67.945151 126.553111 
L 67.203344 127.336509 
L 66.461538 129.634631 
L 65.719732 130.267622 
L 64.977926 131.958966 
L 64.23612 132.039264 
L 63.494314 133.508072 
L 62.752508 134.428344 
L 62.010702 136.307112 
L 61.268896 136.778965 
L 60.52709 138.450548 
L 59.785284 139.619845 
L 59.043478 140.99242 
L 58.301672 141.486172 
L 57.559866 142.773171 
L 56.81806 143.612565 
L 56.076254 144.396906 
L 55.334448 145.176066 
L 54.592642 146.0296 
L 53.850836 147.113657 
L 53.10903 149.348523 
L 52.367224 149.657677 
L 51.625418 150.341114 
L 50.883612 150.816699 
L 50.141806 151.605598 
L 49.4 152.510463 
z
" style="fill:#55a868;fill-opacity:0.2;"/>
   </g>
   <g id="line2d_17">
    <path clip-path="url(#pa0af6a28dd)" d="M 49.4 154.090255 
L 50.141806 152.945242 
L 51.625418 151.93132 
L 52.367224 151.537982 
L 53.10903 150.985265 
L 53.850836 149.233821 
L 54.592642 147.947463 
L 56.076254 146.540538 
L 57.559866 145.325066 
L 59.043478 144.566714 
L 59.785284 143.837994 
L 63.494314 138.96513 
L 64.23612 138.409235 
L 64.977926 137.308145 
L 67.203344 133.309533 
L 67.945151 131.420435 
L 68.686957 130.658473 
L 69.428763 129.155935 
L 70.170569 128.332829 
L 70.912375 126.801075 
L 71.654181 125.873139 
L 72.395987 125.212278 
L 74.621405 121.877606 
L 75.363211 120.426665 
L 76.105017 120.154597 
L 76.846823 118.456212 
L 77.588629 117.980177 
L 79.072241 115.941693 
L 79.814047 114.621622 
L 80.555853 112.18956 
L 83.523077 105.466191 
L 84.264883 104.347219 
L 85.006689 103.499231 
L 85.748495 102.372171 
L 86.490301 100.48175 
L 87.232107 99.630786 
L 87.973913 98.119367 
L 88.715719 97.518165 
L 90.199331 95.589314 
L 90.941137 96.002431 
L 91.682943 95.813661 
L 92.424749 94.208652 
L 93.166555 92.899281 
L 93.908361 92.151118 
L 95.391973 91.777091 
L 96.133779 91.33746 
L 96.875585 90.649096 
L 97.617391 90.383393 
L 98.359197 90.351467 
L 99.842809 89.166228 
L 100.584615 88.861228 
L 101.326421 89.085026 
L 102.810033 87.418162 
L 103.551839 85.985901 
L 104.293645 85.831481 
L 105.035452 85.150031 
L 106.519064 84.184251 
L 107.26087 83.365521 
L 108.002676 82.307269 
L 108.744482 81.528448 
L 109.486288 80.405372 
L 110.228094 80.257299 
L 110.9699 80.461308 
L 111.711706 81.749424 
L 112.453512 82.5064 
L 113.195318 83.427618 
L 114.67893 83.519586 
L 115.420736 82.98141 
L 116.162542 82.91067 
L 116.904348 83.262941 
L 117.646154 83.207289 
L 118.38796 82.444348 
L 119.129766 81.345898 
L 119.871572 79.715591 
L 120.613378 79.108923 
L 122.838796 76.102234 
L 123.580602 76.566352 
L 124.322408 77.194096 
L 125.064214 77.45947 
L 125.80602 77.482615 
L 126.547826 77.230739 
L 127.289632 77.320919 
L 128.031438 78.900209 
L 128.773244 79.685918 
L 129.51505 78.987307 
L 130.256856 78.917922 
L 130.998662 80.066248 
L 131.740468 80.043392 
L 132.482274 80.633021 
L 133.22408 80.513223 
L 133.965886 80.506208 
L 134.707692 81.227224 
L 135.449498 81.033065 
L 136.93311 78.637381 
L 137.674916 78.62746 
L 138.416722 79.227207 
L 139.158528 79.102749 
L 139.900334 78.552866 
L 140.64214 76.707609 
L 141.383946 75.530294 
L 142.125753 74.788624 
L 142.867559 73.538722 
L 143.609365 72.641598 
L 144.351171 72.875685 
L 145.092977 72.543353 
L 145.834783 73.014151 
L 146.576589 73.310588 
L 147.318395 72.822382 
L 148.060201 72.948158 
L 148.802007 73.274653 
L 150.285619 73.124906 
L 151.027425 73.260727 
L 151.769231 74.5885 
L 152.511037 74.118367 
L 153.252843 74.251997 
L 153.994649 73.930235 
L 154.736455 73.288305 
L 156.220067 71.565771 
L 156.961873 71.647108 
L 157.703679 72.043109 
L 159.187291 71.407449 
L 159.929097 70.205705 
L 160.670903 69.467066 
L 161.412709 68.128674 
L 162.154515 68.224989 
L 162.896321 69.525108 
L 163.638127 70.216237 
L 164.379933 71.235815 
L 165.863545 74.848821 
L 167.347157 81.340849 
L 168.088963 83.807754 
L 168.830769 85.65621 
L 169.572575 86.805117 
L 170.314381 86.766595 
L 171.056187 85.412293 
L 171.797993 84.980839 
L 172.539799 84.156203 
L 174.023411 79.923885 
L 174.765217 77.021655 
L 175.507023 74.989545 
L 176.248829 73.602072 
L 176.990635 72.549272 
L 177.732441 72.911576 
L 178.474247 74.05285 
L 179.216054 74.406834 
L 179.95786 75.202946 
L 180.699666 76.588162 
L 182.183278 78.364395 
L 182.925084 79.636316 
L 183.66689 79.935402 
L 185.892308 79.115705 
L 186.634114 77.216343 
L 187.37592 76.350038 
L 188.117726 75.072484 
L 188.859532 72.870912 
L 191.08495 68.20386 
L 191.826756 66.349049 
L 192.568562 65.353921 
L 193.310368 64.74056 
L 194.052174 63.32907 
L 196.277592 60.847744 
L 197.019398 60.741127 
L 200.728428 59.181568 
L 201.470234 58.317919 
L 202.21204 58.217293 
L 204.437458 58.318071 
L 205.179264 58.013514 
L 207.404682 57.722429 
L 209.6301 57.814168 
L 210.371906 57.763539 
L 211.113712 58.112077 
L 212.597324 57.54554 
L 214.080936 57.542316 
L 215.564548 57.559448 
L 216.306355 57.281229 
L 217.789967 57.167714 
L 218.531773 56.897807 
L 220.015385 56.880886 
L 222.240803 57.547797 
L 223.724415 57.263651 
L 224.466221 57.406786 
L 225.208027 57.191237 
L 226.691639 57.067969 
L 227.433445 56.622044 
L 228.175251 56.757415 
L 229.658863 56.454184 
L 230.400669 56.039331 
L 231.142475 56.003802 
L 232.626087 56.495019 
L 233.367893 56.509606 
L 234.109699 56.223646 
L 234.851505 56.230363 
L 236.335117 55.658086 
L 237.076923 55.805043 
L 237.818729 55.604449 
L 239.302341 55.629367 
L 240.785953 55.352136 
L 241.527759 55.021527 
L 243.011371 54.807846 
L 243.753177 55.11362 
L 247.462207 55.907454 
L 248.204013 55.506841 
L 248.945819 55.574983 
L 250.429431 56.245335 
L 252.654849 56.111824 
L 253.396656 55.949942 
L 255.622074 54.819882 
L 256.36388 55.185962 
L 257.847492 54.742824 
L 258.589298 54.708196 
L 260.07291 54.792195 
L 261.556522 54.469956 
L 262.298328 54.724142 
L 263.78194 54.467995 
L 268.232776 53.348882 
L 269.716388 53.302614 
L 270.458194 53.005171 
L 271.2 52.958526 
L 271.2 52.958526 
" style="fill:none;stroke:#4c72b0;stroke-linecap:round;stroke-width:1.75;"/>
   </g>
   <g id="line2d_18">
    <path clip-path="url(#pa0af6a28dd)" d="M 49.4 153.622383 
L 50.141806 153.00088 
L 50.883612 152.226779 
L 51.625418 151.797975 
L 52.367224 151.168029 
L 53.10903 150.855519 
L 53.850836 149.045629 
L 55.334448 147.561665 
L 57.559866 145.794314 
L 58.301672 144.937699 
L 59.043478 144.609698 
L 59.785284 143.766096 
L 60.52709 143.222561 
L 61.268896 142.255469 
L 62.010702 141.712643 
L 62.752508 140.719316 
L 63.494314 139.969489 
L 64.23612 138.885161 
L 64.977926 138.646701 
L 65.719732 137.57566 
L 66.461538 137.03051 
L 67.203344 135.619042 
L 67.945151 134.82496 
L 69.428763 132.619429 
L 70.170569 130.915855 
L 72.395987 127.21881 
L 73.137793 125.676674 
L 75.363211 121.984508 
L 77.588629 117.878285 
L 79.072241 115.893135 
L 79.814047 115.138376 
L 80.555853 114.804226 
L 81.297659 113.68896 
L 82.039465 113.157694 
L 82.781271 111.772473 
L 83.523077 111.633413 
L 84.264883 110.817436 
L 85.006689 109.830073 
L 86.490301 109.181044 
L 87.232107 109.104113 
L 87.973913 108.562807 
L 88.715719 107.593813 
L 89.457525 107.144584 
L 90.199331 106.230526 
L 90.941137 105.554367 
L 91.682943 105.313557 
L 92.424749 104.393545 
L 93.166555 105.079062 
L 93.908361 106.081615 
L 94.650167 106.28763 
L 96.133779 104.398889 
L 97.617391 104.436734 
L 99.101003 102.977462 
L 99.842809 101.732941 
L 100.584615 101.42254 
L 101.326421 100.219475 
L 102.068227 98.455651 
L 102.810033 97.496134 
L 103.551839 97.215286 
L 104.293645 96.752707 
L 105.035452 95.352771 
L 105.777258 94.192116 
L 106.519064 93.851225 
L 107.26087 93.942291 
L 108.002676 93.403881 
L 108.744482 93.130404 
L 109.486288 92.452785 
L 110.228094 92.112907 
L 111.711706 90.694118 
L 113.195318 90.287891 
L 113.937124 90.003746 
L 116.162542 90.025593 
L 116.904348 90.338751 
L 118.38796 89.907685 
L 119.129766 89.421298 
L 122.09699 89.213471 
L 122.838796 88.887509 
L 123.580602 88.233375 
L 124.322408 88.852519 
L 125.064214 88.64088 
L 125.80602 88.934255 
L 126.547826 88.825776 
L 128.031438 88.955916 
L 128.773244 88.106505 
L 129.51505 88.172113 
L 130.256856 87.612171 
L 130.998662 87.318346 
L 131.740468 87.222672 
L 133.965886 84.651901 
L 134.707692 83.66491 
L 136.191304 82.321143 
L 136.93311 82.268764 
L 137.674916 81.45624 
L 139.158528 80.943542 
L 140.64214 79.726147 
L 141.383946 80.003146 
L 142.125753 79.607733 
L 142.867559 79.879941 
L 143.609365 80.013164 
L 144.351171 79.832717 
L 145.092977 80.174388 
L 145.834783 80.119024 
L 147.318395 80.414172 
L 148.060201 80.849664 
L 148.802007 81.155326 
L 149.543813 80.644215 
L 150.285619 80.868486 
L 151.769231 80.256854 
L 153.252843 80.999654 
L 154.736455 82.770986 
L 155.478261 83.596887 
L 156.961873 84.251318 
L 157.703679 85.261924 
L 158.445485 85.379866 
L 159.929097 86.084042 
L 160.670903 85.609218 
L 162.154515 84.021717 
L 163.638127 80.969227 
L 165.121739 79.287586 
L 165.863545 78.071422 
L 166.605351 77.381484 
L 168.088963 76.479913 
L 168.830769 76.751361 
L 169.572575 76.700442 
L 170.314381 76.245566 
L 171.797993 79.019207 
L 172.539799 79.57363 
L 173.281605 80.681638 
L 174.023411 81.491444 
L 174.765217 82.645089 
L 176.248829 84.148552 
L 176.990635 84.32756 
L 178.474247 86.57621 
L 179.216054 85.893173 
L 179.95786 85.429086 
L 180.699666 85.733993 
L 181.441472 84.902521 
L 182.183278 84.260582 
L 182.925084 83.097146 
L 184.408696 81.802239 
L 185.150502 80.763243 
L 186.634114 79.369121 
L 187.37592 79.632098 
L 188.859532 78.178642 
L 189.601338 77.950381 
L 190.343144 78.364488 
L 191.08495 78.612212 
L 192.568562 78.234812 
L 193.310368 78.435934 
L 194.052174 77.925472 
L 194.79398 77.01698 
L 195.535786 76.335949 
L 197.019398 75.342364 
L 197.761204 75.113082 
L 199.244816 73.876258 
L 199.986622 73.729903 
L 200.728428 73.979807 
L 201.470234 74.093296 
L 202.21204 73.481075 
L 202.953846 73.586908 
L 203.695652 73.385161 
L 204.437458 73.068174 
L 205.179264 73.164778 
L 205.92107 73.113801 
L 206.662876 72.557147 
L 207.404682 72.733039 
L 208.888294 71.784797 
L 209.6301 71.345103 
L 210.371906 71.291409 
L 211.855518 70.581038 
L 212.597324 71.812801 
L 214.080936 73.542906 
L 214.822742 74.721096 
L 216.306355 78.429983 
L 217.048161 79.184412 
L 217.789967 80.748241 
L 218.531773 82.643487 
L 220.015385 82.954221 
L 222.982609 79.160244 
L 223.724415 77.522219 
L 224.466221 76.356545 
L 225.208027 76.75112 
L 225.949833 78.311839 
L 226.691639 79.486176 
L 228.175251 84.499268 
L 228.917057 86.120395 
L 229.658863 87.399048 
L 230.400669 88.430668 
L 231.884281 92.088572 
L 232.626087 93.236144 
L 233.367893 93.744123 
L 234.851505 91.192459 
L 235.593311 90.331171 
L 237.818729 88.836336 
L 238.560535 88.251201 
L 240.785953 85.463163 
L 243.753177 81.072498 
L 244.494983 79.306434 
L 245.236789 78.514893 
L 246.720401 77.79614 
L 248.204013 76.359386 
L 248.945819 75.854729 
L 249.687625 75.155234 
L 250.429431 74.817974 
L 251.171237 74.250396 
L 254.880268 72.385327 
L 255.622074 72.299378 
L 256.36388 71.601127 
L 257.105686 71.239733 
L 257.847492 71.73809 
L 258.589298 70.856046 
L 259.331104 70.712428 
L 260.07291 70.955722 
L 260.814716 70.892251 
L 262.298328 70.504525 
L 264.523746 70.452238 
L 265.265552 70.563297 
L 266.007358 70.058482 
L 267.49097 70.476272 
L 268.232776 70.066789 
L 268.974582 69.947089 
L 269.716388 70.147059 
L 270.458194 69.924004 
L 271.2 69.99452 
L 271.2 69.99452 
" style="fill:none;stroke:#55a868;stroke-linecap:round;stroke-width:1.75;"/>
   </g>
   <g id="patch_3">
    <path d="M 49.4 160.84 
L 49.4 32.4092 
" style="fill:none;"/>
   </g>
   <g id="patch_4">
    <path d="M 271.2 160.84 
L 271.2 32.4092 
" style="fill:none;"/>
   </g>
   <g id="patch_5">
    <path d="M 49.4 160.84 
L 271.2 160.84 
" style="fill:none;"/>
   </g>
   <g id="patch_6">
    <path d="M 49.4 32.4092 
L 271.2 32.4092 
" style="fill:none;"/>
   </g>
   <g id="legend_1">
    <g id="line2d_19">
     <path d="M 54.6 17.35449 
L 67.6 17.35449 
" style="fill:none;stroke:#4c72b0;stroke-linecap:round;stroke-width:1.75;"/>
    </g>
    <g id="line2d_20"/>
    <g id="text_12">
     <!-- sac-tf1 -->
     <defs>
      <path d="M 3.171875 21.484375 
L 3.171875 30.328125 
L 30.171875 30.328125 
L 30.171875 21.484375 
z
" id="ArialMT-45"/>
     </defs>
     <g style="fill:#262626;" transform="translate(78 21.90449)scale(0.13 -0.13)">
      <use xlink:href="#ArialMT-115"/>
      <use x="50" xlink:href="#ArialMT-97"/>
      <use x="105.615234" xlink:href="#ArialMT-99"/>
      <use x="155.615234" xlink:href="#ArialMT-45"/>
      <use x="188.916016" xlink:href="#ArialMT-116"/>
      <use x="216.699219" xlink:href="#ArialMT-102"/>
      <use x="244.482422" xlink:href="#ArialMT-49"/>
     </g>
    </g>
    <g id="line2d_21">
     <path d="M 175.414375 17.35449 
L 188.414375 17.35449 
" style="fill:none;stroke:#55a868;stroke-linecap:round;stroke-width:1.75;"/>
    </g>
    <g id="line2d_22"/>
    <g id="text_13">
     <!-- sac-pytorch -->
     <defs>
      <path d="M 6.59375 -19.875 
L 6.59375 51.859375 
L 14.59375 51.859375 
L 14.59375 45.125 
Q 17.4375 49.078125 21 51.046875 
Q 24.5625 53.03125 29.640625 53.03125 
Q 36.28125 53.03125 41.359375 49.609375 
Q 46.4375 46.1875 49.015625 39.953125 
Q 51.609375 33.734375 51.609375 26.3125 
Q 51.609375 18.359375 48.75 11.984375 
Q 45.90625 5.609375 40.453125 2.21875 
Q 35.015625 -1.171875 29 -1.171875 
Q 24.609375 -1.171875 21.109375 0.6875 
Q 17.625 2.546875 15.375 5.375 
L 15.375 -19.875 
z
M 14.546875 25.640625 
Q 14.546875 15.625 18.59375 10.84375 
Q 22.65625 6.0625 28.421875 6.0625 
Q 34.28125 6.0625 38.453125 11.015625 
Q 42.625 15.96875 42.625 26.375 
Q 42.625 36.28125 38.546875 41.203125 
Q 34.46875 46.140625 28.8125 46.140625 
Q 23.1875 46.140625 18.859375 40.890625 
Q 14.546875 35.640625 14.546875 25.640625 
z
" id="ArialMT-112"/>
      <path d="M 6.203125 -19.96875 
L 5.21875 -11.71875 
Q 8.109375 -12.5 10.25 -12.5 
Q 13.1875 -12.5 14.9375 -11.515625 
Q 16.703125 -10.546875 17.828125 -8.796875 
Q 18.65625 -7.46875 20.515625 -2.25 
Q 20.75 -1.515625 21.296875 -0.09375 
L 1.609375 51.859375 
L 11.078125 51.859375 
L 21.875 21.828125 
Q 23.96875 16.109375 25.640625 9.8125 
Q 27.15625 15.875 29.25 21.625 
L 40.328125 51.859375 
L 49.125 51.859375 
L 29.390625 -0.875 
Q 26.21875 -9.421875 24.46875 -12.640625 
Q 22.125 -17 19.09375 -19.015625 
Q 16.0625 -21.046875 11.859375 -21.046875 
Q 9.328125 -21.046875 6.203125 -19.96875 
z
" id="ArialMT-121"/>
      <path d="M 6.59375 0 
L 6.59375 71.578125 
L 15.375 71.578125 
L 15.375 45.90625 
Q 21.53125 53.03125 30.90625 53.03125 
Q 36.671875 53.03125 40.921875 50.75 
Q 45.171875 48.484375 47 44.484375 
Q 48.828125 40.484375 48.828125 32.859375 
L 48.828125 0 
L 40.046875 0 
L 40.046875 32.859375 
Q 40.046875 39.453125 37.1875 42.453125 
Q 34.328125 45.453125 29.109375 45.453125 
Q 25.203125 45.453125 21.75 43.421875 
Q 18.3125 41.40625 16.84375 37.9375 
Q 15.375 34.46875 15.375 28.375 
L 15.375 0 
z
" id="ArialMT-104"/>
     </defs>
     <g style="fill:#262626;" transform="translate(198.814375 21.90449)scale(0.13 -0.13)">
      <use xlink:href="#ArialMT-115"/>
      <use x="50" xlink:href="#ArialMT-97"/>
      <use x="105.615234" xlink:href="#ArialMT-99"/>
      <use x="155.615234" xlink:href="#ArialMT-45"/>
      <use x="188.916016" xlink:href="#ArialMT-112"/>
      <use x="244.53125" xlink:href="#ArialMT-121"/>
      <use x="294.53125" xlink:href="#ArialMT-116"/>
      <use x="322.314453" xlink:href="#ArialMT-111"/>
      <use x="377.929688" xlink:href="#ArialMT-114"/>
      <use x="411.230469" xlink:href="#ArialMT-99"/>
      <use x="461.230469" xlink:href="#ArialMT-104"/>
     </g>
    </g>
   </g>
  </g>
 </g>
 <defs>
  <clipPath id="pa0af6a28dd">
   <rect height="128.4308" width="221.8" x="49.4" y="32.4092"/>
  </clipPath>
 </defs>
</svg>
