<?xml version="1.0" encoding="utf-8" standalone="no"?>
<!DOCTYPE svg PUBLIC "-//W3C//DTD SVG 1.1//EN"
  "http://www.w3.org/Graphics/SVG/1.1/DTD/svg11.dtd">
<!-- Created with matplotlib (https://matplotlib.org/) -->
<svg height="198pt" version="1.1" viewBox="0 0 277.2 198" width="277.2pt" xmlns="http://www.w3.org/2000/svg" xmlns:xlink="http://www.w3.org/1999/xlink">
 <defs>
  <style type="text/css">
*{stroke-linecap:butt;stroke-linejoin:round;}
  </style>
 </defs>
 <g id="figure_1">
  <g id="patch_1">
   <path d="M 0 198 
L 277.2 198 
L 277.2 0 
L 0 0 
z
" style="fill:#ffffff;"/>
  </g>
  <g id="axes_1">
   <g id="patch_2">
    <path d="M 46.61 160.84 
L 271.2 160.84 
L 271.2 32.4092 
L 46.61 32.4092 
z
" style="fill:#eaeaf2;"/>
   </g>
   <g id="matplotlib.axis_1">
    <g id="xtick_1">
     <g id="line2d_1">
      <path clip-path="url(#pd7726b14da)" d="M 83.415794 160.84 
L 83.415794 32.4092 
" style="fill:none;stroke:#ffffff;stroke-linecap:round;"/>
     </g>
     <g id="line2d_2"/>
     <g id="text_1">
      <!-- 0.5 -->
      <defs>
       <path d="M 4.15625 35.296875 
Q 4.15625 48 6.765625 55.734375 
Q 9.375 63.484375 14.515625 67.671875 
Q 19.671875 71.875 27.484375 71.875 
Q 33.25 71.875 37.59375 69.546875 
Q 41.9375 67.234375 44.765625 62.859375 
Q 47.609375 58.5 49.21875 52.21875 
Q 50.828125 45.953125 50.828125 35.296875 
Q 50.828125 22.703125 48.234375 14.96875 
Q 45.65625 7.234375 40.5 3 
Q 35.359375 -1.21875 27.484375 -1.21875 
Q 17.140625 -1.21875 11.234375 6.203125 
Q 4.15625 15.140625 4.15625 35.296875 
z
M 13.1875 35.296875 
Q 13.1875 17.671875 17.3125 11.828125 
Q 21.4375 6 27.484375 6 
Q 33.546875 6 37.671875 11.859375 
Q 41.796875 17.71875 41.796875 35.296875 
Q 41.796875 52.984375 37.671875 58.78125 
Q 33.546875 64.59375 27.390625 64.59375 
Q 21.34375 64.59375 17.71875 59.46875 
Q 13.1875 52.9375 13.1875 35.296875 
z
" id="ArialMT-48"/>
       <path d="M 9.078125 0 
L 9.078125 10.015625 
L 19.09375 10.015625 
L 19.09375 0 
z
" id="ArialMT-46"/>
       <path d="M 4.15625 18.75 
L 13.375 19.53125 
Q 14.40625 12.796875 18.140625 9.390625 
Q 21.875 6 27.15625 6 
Q 33.5 6 37.890625 10.78125 
Q 42.28125 15.578125 42.28125 23.484375 
Q 42.28125 31 38.0625 35.34375 
Q 33.84375 39.703125 27 39.703125 
Q 22.75 39.703125 19.328125 37.765625 
Q 15.921875 35.84375 13.96875 32.765625 
L 5.71875 33.84375 
L 12.640625 70.609375 
L 48.25 70.609375 
L 48.25 62.203125 
L 19.671875 62.203125 
L 15.828125 42.96875 
Q 22.265625 47.46875 29.34375 47.46875 
Q 38.71875 47.46875 45.15625 40.96875 
Q 51.609375 34.46875 51.609375 24.265625 
Q 51.609375 14.546875 45.953125 7.46875 
Q 39.0625 -1.21875 27.15625 -1.21875 
Q 17.390625 -1.21875 11.203125 4.25 
Q 5.03125 9.71875 4.15625 18.75 
z
" id="ArialMT-53"/>
      </defs>
      <g style="fill:#262626;" transform="translate(76.465794 174.997813)scale(0.1 -0.1)">
       <use xlink:href="#ArialMT-48"/>
       <use x="55.615234" xlink:href="#ArialMT-46"/>
       <use x="83.398438" xlink:href="#ArialMT-53"/>
      </g>
     </g>
    </g>
    <g id="xtick_2">
     <g id="line2d_3">
      <path clip-path="url(#pd7726b14da)" d="M 120.97265 160.84 
L 120.97265 32.4092 
" style="fill:none;stroke:#ffffff;stroke-linecap:round;"/>
     </g>
     <g id="line2d_4"/>
     <g id="text_2">
      <!-- 1.0 -->
      <defs>
       <path d="M 37.25 0 
L 28.46875 0 
L 28.46875 56 
Q 25.296875 52.984375 20.140625 49.953125 
Q 14.984375 46.921875 10.890625 45.40625 
L 10.890625 53.90625 
Q 18.265625 57.375 23.78125 62.296875 
Q 29.296875 67.234375 31.59375 71.875 
L 37.25 71.875 
z
" id="ArialMT-49"/>
      </defs>
      <g style="fill:#262626;" transform="translate(114.02265 174.997813)scale(0.1 -0.1)">
       <use xlink:href="#ArialMT-49"/>
       <use x="55.615234" xlink:href="#ArialMT-46"/>
       <use x="83.398438" xlink:href="#ArialMT-48"/>
      </g>
     </g>
    </g>
    <g id="xtick_3">
     <g id="line2d_5">
      <path clip-path="url(#pd7726b14da)" d="M 158.529507 160.84 
L 158.529507 32.4092 
" style="fill:none;stroke:#ffffff;stroke-linecap:round;"/>
     </g>
     <g id="line2d_6"/>
     <g id="text_3">
      <!-- 1.5 -->
      <g style="fill:#262626;" transform="translate(151.579507 174.997813)scale(0.1 -0.1)">
       <use xlink:href="#ArialMT-49"/>
       <use x="55.615234" xlink:href="#ArialMT-46"/>
       <use x="83.398438" xlink:href="#ArialMT-53"/>
      </g>
     </g>
    </g>
    <g id="xtick_4">
     <g id="line2d_7">
      <path clip-path="url(#pd7726b14da)" d="M 196.086363 160.84 
L 196.086363 32.4092 
" style="fill:none;stroke:#ffffff;stroke-linecap:round;"/>
     </g>
     <g id="line2d_8"/>
     <g id="text_4">
      <!-- 2.0 -->
      <defs>
       <path d="M 50.34375 8.453125 
L 50.34375 0 
L 3.03125 0 
Q 2.9375 3.171875 4.046875 6.109375 
Q 5.859375 10.9375 9.828125 15.625 
Q 13.8125 20.3125 21.34375 26.46875 
Q 33.015625 36.03125 37.109375 41.625 
Q 41.21875 47.21875 41.21875 52.203125 
Q 41.21875 57.421875 37.46875 61 
Q 33.734375 64.59375 27.734375 64.59375 
Q 21.390625 64.59375 17.578125 60.78125 
Q 13.765625 56.984375 13.71875 50.25 
L 4.6875 51.171875 
Q 5.609375 61.28125 11.65625 66.578125 
Q 17.71875 71.875 27.9375 71.875 
Q 38.234375 71.875 44.234375 66.15625 
Q 50.25 60.453125 50.25 52 
Q 50.25 47.703125 48.484375 43.546875 
Q 46.734375 39.40625 42.65625 34.8125 
Q 38.578125 30.21875 29.109375 22.21875 
Q 21.1875 15.578125 18.9375 13.203125 
Q 16.703125 10.84375 15.234375 8.453125 
z
" id="ArialMT-50"/>
      </defs>
      <g style="fill:#262626;" transform="translate(189.136363 174.997813)scale(0.1 -0.1)">
       <use xlink:href="#ArialMT-50"/>
       <use x="55.615234" xlink:href="#ArialMT-46"/>
       <use x="83.398438" xlink:href="#ArialMT-48"/>
      </g>
     </g>
    </g>
    <g id="xtick_5">
     <g id="line2d_9">
      <path clip-path="url(#pd7726b14da)" d="M 233.643219 160.84 
L 233.643219 32.4092 
" style="fill:none;stroke:#ffffff;stroke-linecap:round;"/>
     </g>
     <g id="line2d_10"/>
     <g id="text_5">
      <!-- 2.5 -->
      <g style="fill:#262626;" transform="translate(226.693219 174.997813)scale(0.1 -0.1)">
       <use xlink:href="#ArialMT-50"/>
       <use x="55.615234" xlink:href="#ArialMT-46"/>
       <use x="83.398438" xlink:href="#ArialMT-53"/>
      </g>
     </g>
    </g>
    <g id="text_6">
     <!-- TotalEnvInteracts -->
     <defs>
      <path d="M 25.921875 0 
L 25.921875 63.140625 
L 2.34375 63.140625 
L 2.34375 71.578125 
L 59.078125 71.578125 
L 59.078125 63.140625 
L 35.40625 63.140625 
L 35.40625 0 
z
" id="ArialMT-84"/>
      <path d="M 3.328125 25.921875 
Q 3.328125 40.328125 11.328125 47.265625 
Q 18.015625 53.03125 27.640625 53.03125 
Q 38.328125 53.03125 45.109375 46.015625 
Q 51.90625 39.015625 51.90625 26.65625 
Q 51.90625 16.65625 48.90625 10.90625 
Q 45.90625 5.171875 40.15625 2 
Q 34.421875 -1.171875 27.640625 -1.171875 
Q 16.75 -1.171875 10.03125 5.8125 
Q 3.328125 12.796875 3.328125 25.921875 
z
M 12.359375 25.921875 
Q 12.359375 15.96875 16.703125 11.015625 
Q 21.046875 6.0625 27.640625 6.0625 
Q 34.1875 6.0625 38.53125 11.03125 
Q 42.875 16.015625 42.875 26.21875 
Q 42.875 35.84375 38.5 40.796875 
Q 34.125 45.75 27.640625 45.75 
Q 21.046875 45.75 16.703125 40.8125 
Q 12.359375 35.890625 12.359375 25.921875 
z
" id="ArialMT-111"/>
      <path d="M 25.78125 7.859375 
L 27.046875 0.09375 
Q 23.34375 -0.6875 20.40625 -0.6875 
Q 15.625 -0.6875 12.984375 0.828125 
Q 10.359375 2.34375 9.28125 4.8125 
Q 8.203125 7.28125 8.203125 15.1875 
L 8.203125 45.015625 
L 1.765625 45.015625 
L 1.765625 51.859375 
L 8.203125 51.859375 
L 8.203125 64.703125 
L 16.9375 69.96875 
L 16.9375 51.859375 
L 25.78125 51.859375 
L 25.78125 45.015625 
L 16.9375 45.015625 
L 16.9375 14.703125 
Q 16.9375 10.9375 17.40625 9.859375 
Q 17.875 8.796875 18.921875 8.15625 
Q 19.96875 7.515625 21.921875 7.515625 
Q 23.390625 7.515625 25.78125 7.859375 
z
" id="ArialMT-116"/>
      <path d="M 40.4375 6.390625 
Q 35.546875 2.25 31.03125 0.53125 
Q 26.515625 -1.171875 21.34375 -1.171875 
Q 12.796875 -1.171875 8.203125 3 
Q 3.609375 7.171875 3.609375 13.671875 
Q 3.609375 17.484375 5.34375 20.625 
Q 7.078125 23.78125 9.890625 25.6875 
Q 12.703125 27.59375 16.21875 28.5625 
Q 18.796875 29.25 24.03125 29.890625 
Q 34.671875 31.15625 39.703125 32.90625 
Q 39.75 34.71875 39.75 35.203125 
Q 39.75 40.578125 37.25 42.78125 
Q 33.890625 45.75 27.25 45.75 
Q 21.046875 45.75 18.09375 43.578125 
Q 15.140625 41.40625 13.71875 35.890625 
L 5.125 37.0625 
Q 6.296875 42.578125 8.984375 45.96875 
Q 11.671875 49.359375 16.75 51.1875 
Q 21.828125 53.03125 28.515625 53.03125 
Q 35.15625 53.03125 39.296875 51.46875 
Q 43.453125 49.90625 45.40625 47.53125 
Q 47.359375 45.171875 48.140625 41.546875 
Q 48.578125 39.3125 48.578125 33.453125 
L 48.578125 21.734375 
Q 48.578125 9.46875 49.140625 6.21875 
Q 49.703125 2.984375 51.375 0 
L 42.1875 0 
Q 40.828125 2.734375 40.4375 6.390625 
z
M 39.703125 26.03125 
Q 34.90625 24.078125 25.34375 22.703125 
Q 19.921875 21.921875 17.671875 20.9375 
Q 15.4375 19.96875 14.203125 18.09375 
Q 12.984375 16.21875 12.984375 13.921875 
Q 12.984375 10.40625 15.640625 8.0625 
Q 18.3125 5.71875 23.4375 5.71875 
Q 28.515625 5.71875 32.46875 7.9375 
Q 36.421875 10.15625 38.28125 14.015625 
Q 39.703125 17 39.703125 22.796875 
z
" id="ArialMT-97"/>
      <path d="M 6.390625 0 
L 6.390625 71.578125 
L 15.1875 71.578125 
L 15.1875 0 
z
" id="ArialMT-108"/>
      <path d="M 7.90625 0 
L 7.90625 71.578125 
L 59.671875 71.578125 
L 59.671875 63.140625 
L 17.390625 63.140625 
L 17.390625 41.21875 
L 56.984375 41.21875 
L 56.984375 32.8125 
L 17.390625 32.8125 
L 17.390625 8.453125 
L 61.328125 8.453125 
L 61.328125 0 
z
" id="ArialMT-69"/>
      <path d="M 6.59375 0 
L 6.59375 51.859375 
L 14.5 51.859375 
L 14.5 44.484375 
Q 20.21875 53.03125 31 53.03125 
Q 35.6875 53.03125 39.625 51.34375 
Q 43.5625 49.65625 45.515625 46.921875 
Q 47.46875 44.1875 48.25 40.4375 
Q 48.734375 37.984375 48.734375 31.890625 
L 48.734375 0 
L 39.9375 0 
L 39.9375 31.546875 
Q 39.9375 36.921875 38.90625 39.578125 
Q 37.890625 42.234375 35.28125 43.8125 
Q 32.671875 45.40625 29.15625 45.40625 
Q 23.53125 45.40625 19.453125 41.84375 
Q 15.375 38.28125 15.375 28.328125 
L 15.375 0 
z
" id="ArialMT-110"/>
      <path d="M 21 0 
L 1.265625 51.859375 
L 10.546875 51.859375 
L 21.6875 20.796875 
Q 23.484375 15.765625 25 10.359375 
Q 26.171875 14.453125 28.265625 20.21875 
L 39.796875 51.859375 
L 48.828125 51.859375 
L 29.203125 0 
z
" id="ArialMT-118"/>
      <path d="M 9.328125 0 
L 9.328125 71.578125 
L 18.796875 71.578125 
L 18.796875 0 
z
" id="ArialMT-73"/>
      <path d="M 42.09375 16.703125 
L 51.171875 15.578125 
Q 49.03125 7.625 43.21875 3.21875 
Q 37.40625 -1.171875 28.375 -1.171875 
Q 17 -1.171875 10.328125 5.828125 
Q 3.65625 12.84375 3.65625 25.484375 
Q 3.65625 38.578125 10.390625 45.796875 
Q 17.140625 53.03125 27.875 53.03125 
Q 38.28125 53.03125 44.875 45.953125 
Q 51.46875 38.875 51.46875 26.03125 
Q 51.46875 25.25 51.421875 23.6875 
L 12.75 23.6875 
Q 13.234375 15.140625 17.578125 10.59375 
Q 21.921875 6.0625 28.421875 6.0625 
Q 33.25 6.0625 36.671875 8.59375 
Q 40.09375 11.140625 42.09375 16.703125 
z
M 13.234375 30.90625 
L 42.1875 30.90625 
Q 41.609375 37.453125 38.875 40.71875 
Q 34.671875 45.796875 27.984375 45.796875 
Q 21.921875 45.796875 17.796875 41.75 
Q 13.671875 37.703125 13.234375 30.90625 
z
" id="ArialMT-101"/>
      <path d="M 6.5 0 
L 6.5 51.859375 
L 14.40625 51.859375 
L 14.40625 44 
Q 17.4375 49.515625 20 51.265625 
Q 22.5625 53.03125 25.640625 53.03125 
Q 30.078125 53.03125 34.671875 50.203125 
L 31.640625 42.046875 
Q 28.421875 43.953125 25.203125 43.953125 
Q 22.3125 43.953125 20.015625 42.21875 
Q 17.71875 40.484375 16.75 37.40625 
Q 15.28125 32.71875 15.28125 27.15625 
L 15.28125 0 
z
" id="ArialMT-114"/>
      <path d="M 40.4375 19 
L 49.078125 17.875 
Q 47.65625 8.9375 41.8125 3.875 
Q 35.984375 -1.171875 27.484375 -1.171875 
Q 16.84375 -1.171875 10.375 5.78125 
Q 3.90625 12.75 3.90625 25.734375 
Q 3.90625 34.125 6.6875 40.421875 
Q 9.46875 46.734375 15.15625 49.875 
Q 20.84375 53.03125 27.546875 53.03125 
Q 35.984375 53.03125 41.359375 48.75 
Q 46.734375 44.484375 48.25 36.625 
L 39.703125 35.296875 
Q 38.484375 40.53125 35.375 43.15625 
Q 32.28125 45.796875 27.875 45.796875 
Q 21.234375 45.796875 17.078125 41.03125 
Q 12.9375 36.28125 12.9375 25.984375 
Q 12.9375 15.53125 16.9375 10.796875 
Q 20.953125 6.0625 27.390625 6.0625 
Q 32.5625 6.0625 36.03125 9.234375 
Q 39.5 12.40625 40.4375 19 
z
" id="ArialMT-99"/>
      <path d="M 3.078125 15.484375 
L 11.765625 16.84375 
Q 12.5 11.625 15.84375 8.84375 
Q 19.1875 6.0625 25.203125 6.0625 
Q 31.25 6.0625 34.171875 8.515625 
Q 37.109375 10.984375 37.109375 14.3125 
Q 37.109375 17.28125 34.515625 19 
Q 32.71875 20.171875 25.53125 21.96875 
Q 15.875 24.421875 12.140625 26.203125 
Q 8.40625 27.984375 6.46875 31.125 
Q 4.546875 34.28125 4.546875 38.09375 
Q 4.546875 41.546875 6.125 44.5 
Q 7.71875 47.46875 10.453125 49.421875 
Q 12.5 50.921875 16.03125 51.96875 
Q 19.578125 53.03125 23.640625 53.03125 
Q 29.734375 53.03125 34.34375 51.265625 
Q 38.96875 49.515625 41.15625 46.5 
Q 43.359375 43.5 44.1875 38.484375 
L 35.59375 37.3125 
Q 35.015625 41.3125 32.203125 43.546875 
Q 29.390625 45.796875 24.265625 45.796875 
Q 18.21875 45.796875 15.625 43.796875 
Q 13.03125 41.796875 13.03125 39.109375 
Q 13.03125 37.40625 14.109375 36.03125 
Q 15.1875 34.625 17.484375 33.6875 
Q 18.796875 33.203125 25.25 31.453125 
Q 34.578125 28.953125 38.25 27.359375 
Q 41.9375 25.78125 44.03125 22.75 
Q 46.140625 19.734375 46.140625 15.234375 
Q 46.140625 10.84375 43.578125 6.953125 
Q 41.015625 3.078125 36.171875 0.953125 
Q 31.34375 -1.171875 25.25 -1.171875 
Q 15.140625 -1.171875 9.84375 3.03125 
Q 4.546875 7.234375 3.078125 15.484375 
z
" id="ArialMT-115"/>
     </defs>
     <g style="fill:#262626;" transform="translate(116.120156 188.858906)scale(0.11 -0.11)">
      <use xlink:href="#ArialMT-84"/>
      <use x="60.912109" xlink:href="#ArialMT-111"/>
      <use x="116.527344" xlink:href="#ArialMT-116"/>
      <use x="144.310547" xlink:href="#ArialMT-97"/>
      <use x="199.925781" xlink:href="#ArialMT-108"/>
      <use x="222.142578" xlink:href="#ArialMT-69"/>
      <use x="288.841797" xlink:href="#ArialMT-110"/>
      <use x="344.457031" xlink:href="#ArialMT-118"/>
      <use x="394.457031" xlink:href="#ArialMT-73"/>
      <use x="422.240234" xlink:href="#ArialMT-110"/>
      <use x="477.855469" xlink:href="#ArialMT-116"/>
      <use x="505.638672" xlink:href="#ArialMT-101"/>
      <use x="561.253906" xlink:href="#ArialMT-114"/>
      <use x="594.554688" xlink:href="#ArialMT-97"/>
      <use x="650.169922" xlink:href="#ArialMT-99"/>
      <use x="700.169922" xlink:href="#ArialMT-116"/>
      <use x="727.953125" xlink:href="#ArialMT-115"/>
     </g>
    </g>
    <g id="text_7">
     <!-- 1e6 -->
     <defs>
      <path d="M 49.75 54.046875 
L 41.015625 53.375 
Q 39.84375 58.546875 37.703125 60.890625 
Q 34.125 64.65625 28.90625 64.65625 
Q 24.703125 64.65625 21.53125 62.3125 
Q 17.390625 59.28125 14.984375 53.46875 
Q 12.59375 47.65625 12.5 36.921875 
Q 15.671875 41.75 20.265625 44.09375 
Q 24.859375 46.4375 29.890625 46.4375 
Q 38.671875 46.4375 44.84375 39.96875 
Q 51.03125 33.5 51.03125 23.25 
Q 51.03125 16.5 48.125 10.71875 
Q 45.21875 4.9375 40.140625 1.859375 
Q 35.0625 -1.21875 28.609375 -1.21875 
Q 17.625 -1.21875 10.6875 6.859375 
Q 3.765625 14.9375 3.765625 33.5 
Q 3.765625 54.25 11.421875 63.671875 
Q 18.109375 71.875 29.4375 71.875 
Q 37.890625 71.875 43.28125 67.140625 
Q 48.6875 62.40625 49.75 54.046875 
z
M 13.875 23.1875 
Q 13.875 18.65625 15.796875 14.5 
Q 17.71875 10.359375 21.1875 8.171875 
Q 24.65625 6 28.46875 6 
Q 34.03125 6 38.03125 10.484375 
Q 42.046875 14.984375 42.046875 22.703125 
Q 42.046875 30.125 38.078125 34.390625 
Q 34.125 38.671875 28.125 38.671875 
Q 22.171875 38.671875 18.015625 34.390625 
Q 13.875 30.125 13.875 23.1875 
z
" id="ArialMT-54"/>
     </defs>
     <g style="fill:#262626;" transform="translate(254.517187 187.143125)scale(0.1 -0.1)">
      <use xlink:href="#ArialMT-49"/>
      <use x="55.615234" xlink:href="#ArialMT-101"/>
      <use x="111.230469" xlink:href="#ArialMT-54"/>
     </g>
    </g>
   </g>
   <g id="matplotlib.axis_2">
    <g id="ytick_1">
     <g id="line2d_11">
      <path clip-path="url(#pd7726b14da)" d="M 46.61 145.541373 
L 271.2 145.541373 
" style="fill:none;stroke:#ffffff;stroke-linecap:round;"/>
     </g>
     <g id="line2d_12"/>
     <g id="text_8">
      <!-- 30 -->
      <defs>
       <path d="M 4.203125 18.890625 
L 12.984375 20.0625 
Q 14.5 12.59375 18.140625 9.296875 
Q 21.78125 6 27 6 
Q 33.203125 6 37.46875 10.296875 
Q 41.75 14.59375 41.75 20.953125 
Q 41.75 27 37.796875 30.921875 
Q 33.84375 34.859375 27.734375 34.859375 
Q 25.25 34.859375 21.53125 33.890625 
L 22.515625 41.609375 
Q 23.390625 41.5 23.921875 41.5 
Q 29.546875 41.5 34.03125 44.421875 
Q 38.53125 47.359375 38.53125 53.46875 
Q 38.53125 58.296875 35.25 61.46875 
Q 31.984375 64.65625 26.8125 64.65625 
Q 21.6875 64.65625 18.265625 61.421875 
Q 14.84375 58.203125 13.875 51.765625 
L 5.078125 53.328125 
Q 6.6875 62.15625 12.390625 67.015625 
Q 18.109375 71.875 26.609375 71.875 
Q 32.46875 71.875 37.390625 69.359375 
Q 42.328125 66.84375 44.9375 62.5 
Q 47.5625 58.15625 47.5625 53.265625 
Q 47.5625 48.640625 45.0625 44.828125 
Q 42.578125 41.015625 37.703125 38.765625 
Q 44.046875 37.3125 47.5625 32.6875 
Q 51.078125 28.078125 51.078125 21.140625 
Q 51.078125 11.765625 44.234375 5.25 
Q 37.40625 -1.265625 26.953125 -1.265625 
Q 17.53125 -1.265625 11.296875 4.34375 
Q 5.078125 9.96875 4.203125 18.890625 
z
" id="ArialMT-51"/>
      </defs>
      <g style="fill:#262626;" transform="translate(28.488125 149.120279)scale(0.1 -0.1)">
       <use xlink:href="#ArialMT-51"/>
       <use x="55.615234" xlink:href="#ArialMT-48"/>
      </g>
     </g>
    </g>
    <g id="ytick_2">
     <g id="line2d_13">
      <path clip-path="url(#pd7726b14da)" d="M 46.61 108.113072 
L 271.2 108.113072 
" style="fill:none;stroke:#ffffff;stroke-linecap:round;"/>
     </g>
     <g id="line2d_14"/>
     <g id="text_9">
      <!-- 35 -->
      <g style="fill:#262626;" transform="translate(28.488125 111.691978)scale(0.1 -0.1)">
       <use xlink:href="#ArialMT-51"/>
       <use x="55.615234" xlink:href="#ArialMT-53"/>
      </g>
     </g>
    </g>
    <g id="ytick_3">
     <g id="line2d_15">
      <path clip-path="url(#pd7726b14da)" d="M 46.61 70.684771 
L 271.2 70.684771 
" style="fill:none;stroke:#ffffff;stroke-linecap:round;"/>
     </g>
     <g id="line2d_16"/>
     <g id="text_10">
      <!-- 40 -->
      <defs>
       <path d="M 32.328125 0 
L 32.328125 17.140625 
L 1.265625 17.140625 
L 1.265625 25.203125 
L 33.9375 71.578125 
L 41.109375 71.578125 
L 41.109375 25.203125 
L 50.78125 25.203125 
L 50.78125 17.140625 
L 41.109375 17.140625 
L 41.109375 0 
z
M 32.328125 25.203125 
L 32.328125 57.46875 
L 9.90625 25.203125 
z
" id="ArialMT-52"/>
      </defs>
      <g style="fill:#262626;" transform="translate(28.488125 74.263678)scale(0.1 -0.1)">
       <use xlink:href="#ArialMT-52"/>
       <use x="55.615234" xlink:href="#ArialMT-48"/>
      </g>
     </g>
    </g>
    <g id="ytick_4">
     <g id="line2d_17">
      <path clip-path="url(#pd7726b14da)" d="M 46.61 33.25647 
L 271.2 33.25647 
" style="fill:none;stroke:#ffffff;stroke-linecap:round;"/>
     </g>
     <g id="line2d_18"/>
     <g id="text_11">
      <!-- 45 -->
      <g style="fill:#262626;" transform="translate(28.488125 36.835377)scale(0.1 -0.1)">
       <use xlink:href="#ArialMT-52"/>
       <use x="55.615234" xlink:href="#ArialMT-53"/>
      </g>
     </g>
    </g>
    <g id="text_12">
     <!-- Performance -->
     <defs>
      <path d="M 7.71875 0 
L 7.71875 71.578125 
L 34.71875 71.578125 
Q 41.84375 71.578125 45.609375 70.90625 
Q 50.875 70.015625 54.4375 67.546875 
Q 58.015625 65.09375 60.1875 60.640625 
Q 62.359375 56.203125 62.359375 50.875 
Q 62.359375 41.75 56.546875 35.421875 
Q 50.734375 29.109375 35.546875 29.109375 
L 17.1875 29.109375 
L 17.1875 0 
z
M 17.1875 37.546875 
L 35.6875 37.546875 
Q 44.875 37.546875 48.734375 40.96875 
Q 52.59375 44.390625 52.59375 50.59375 
Q 52.59375 55.078125 50.3125 58.265625 
Q 48.046875 61.46875 44.34375 62.5 
Q 41.9375 63.140625 35.5 63.140625 
L 17.1875 63.140625 
z
" id="ArialMT-80"/>
      <path d="M 8.6875 0 
L 8.6875 45.015625 
L 0.921875 45.015625 
L 0.921875 51.859375 
L 8.6875 51.859375 
L 8.6875 57.375 
Q 8.6875 62.59375 9.625 65.140625 
Q 10.890625 68.5625 14.078125 70.671875 
Q 17.28125 72.796875 23.046875 72.796875 
Q 26.765625 72.796875 31.25 71.921875 
L 29.9375 64.265625 
Q 27.203125 64.75 24.75 64.75 
Q 20.75 64.75 19.09375 63.03125 
Q 17.4375 61.328125 17.4375 56.640625 
L 17.4375 51.859375 
L 27.546875 51.859375 
L 27.546875 45.015625 
L 17.4375 45.015625 
L 17.4375 0 
z
" id="ArialMT-102"/>
      <path d="M 6.59375 0 
L 6.59375 51.859375 
L 14.453125 51.859375 
L 14.453125 44.578125 
Q 16.890625 48.390625 20.9375 50.703125 
Q 25 53.03125 30.171875 53.03125 
Q 35.9375 53.03125 39.625 50.640625 
Q 43.3125 48.25 44.828125 43.953125 
Q 50.984375 53.03125 60.84375 53.03125 
Q 68.5625 53.03125 72.703125 48.75 
Q 76.859375 44.484375 76.859375 35.59375 
L 76.859375 0 
L 68.109375 0 
L 68.109375 32.671875 
Q 68.109375 37.9375 67.25 40.25 
Q 66.40625 42.578125 64.15625 43.984375 
Q 61.921875 45.40625 58.890625 45.40625 
Q 53.421875 45.40625 49.796875 41.765625 
Q 46.1875 38.140625 46.1875 30.125 
L 46.1875 0 
L 37.40625 0 
L 37.40625 33.6875 
Q 37.40625 39.546875 35.25 42.46875 
Q 33.109375 45.40625 28.21875 45.40625 
Q 24.515625 45.40625 21.359375 43.453125 
Q 18.21875 41.5 16.796875 37.734375 
Q 15.375 33.984375 15.375 26.90625 
L 15.375 0 
z
" id="ArialMT-109"/>
     </defs>
     <g style="fill:#262626;" transform="translate(22.301875 128.107803)rotate(-90)scale(0.11 -0.11)">
      <use xlink:href="#ArialMT-80"/>
      <use x="66.699219" xlink:href="#ArialMT-101"/>
      <use x="122.314453" xlink:href="#ArialMT-114"/>
      <use x="155.615234" xlink:href="#ArialMT-102"/>
      <use x="183.398438" xlink:href="#ArialMT-111"/>
      <use x="239.013672" xlink:href="#ArialMT-114"/>
      <use x="272.314453" xlink:href="#ArialMT-109"/>
      <use x="355.615234" xlink:href="#ArialMT-97"/>
      <use x="411.230469" xlink:href="#ArialMT-110"/>
      <use x="466.845703" xlink:href="#ArialMT-99"/>
      <use x="516.845703" xlink:href="#ArialMT-101"/>
     </g>
    </g>
   </g>
   <g id="PolyCollection_1">
    <path clip-path="url(#pd7726b14da)" d="M 46.61 99.862414 
L 46.61 153.454933 
L 47.361137 147.165655 
L 48.112274 138.450154 
L 48.863411 132.162759 
L 49.614548 126.28411 
L 50.365686 121.459948 
L 51.116823 104.339139 
L 51.86796 92.733914 
L 52.619097 91.040108 
L 53.370234 88.381203 
L 54.121371 87.677244 
L 54.872508 84.476522 
L 55.623645 81.097595 
L 56.374783 80.422639 
L 57.12592 80.065163 
L 57.877057 79.445649 
L 58.628194 79.401241 
L 59.379331 80.645808 
L 60.130468 80.593032 
L 60.881605 79.224426 
L 61.632742 79.153904 
L 62.38388 78.279929 
L 63.135017 77.760723 
L 63.886154 76.644931 
L 64.637291 75.607982 
L 65.388428 74.501279 
L 66.139565 74.294154 
L 66.890702 74.310678 
L 67.641839 73.178051 
L 68.392977 73.599549 
L 69.144114 72.942759 
L 69.895251 72.670653 
L 70.646388 73.357447 
L 71.397525 72.141483 
L 72.148662 71.487522 
L 72.899799 72.390164 
L 73.650936 71.945288 
L 74.402074 72.188835 
L 75.153211 71.574793 
L 75.904348 72.798727 
L 76.655485 72.311992 
L 77.406622 72.359984 
L 78.157759 72.34249 
L 78.908896 71.853702 
L 79.660033 71.695186 
L 80.411171 73.909222 
L 81.162308 73.210564 
L 81.913445 73.464307 
L 82.664582 72.871116 
L 83.415719 72.258299 
L 84.166856 70.834555 
L 84.917993 70.623137 
L 85.66913 71.107116 
L 86.420268 70.602582 
L 87.171405 69.428029 
L 87.922542 69.50598 
L 88.673679 68.319615 
L 89.424816 67.003417 
L 90.175953 67.568637 
L 90.92709 67.632439 
L 91.678227 66.84641 
L 92.429365 67.269788 
L 93.180502 66.13383 
L 93.931639 65.645233 
L 94.682776 65.188822 
L 95.433913 65.568312 
L 96.18505 65.446523 
L 96.936187 64.42282 
L 97.687324 64.488979 
L 98.438462 63.258484 
L 99.189599 63.15657 
L 99.940736 63.286632 
L 100.691873 62.539573 
L 101.44301 63.135986 
L 102.194147 63.222029 
L 102.945284 63.990433 
L 103.696421 64.980933 
L 104.447559 65.414595 
L 105.198696 65.584263 
L 105.949833 65.478809 
L 106.70097 65.098213 
L 107.452107 64.497916 
L 108.203244 65.431334 
L 108.954381 64.989722 
L 109.705518 64.947004 
L 110.456656 64.351863 
L 111.207793 62.620537 
L 111.95893 60.312645 
L 112.710067 59.955253 
L 113.461204 59.725479 
L 114.212341 59.376262 
L 114.963478 60.096571 
L 115.714615 61.039215 
L 116.465753 59.690173 
L 117.21689 59.277576 
L 117.968027 58.983023 
L 118.719164 59.273858 
L 119.470301 60.140663 
L 120.221438 60.804527 
L 120.972575 60.561855 
L 121.723712 60.684041 
L 122.474849 60.692578 
L 123.225987 60.831772 
L 123.977124 60.393338 
L 124.728261 60.153876 
L 125.479398 60.874886 
L 126.230535 61.655304 
L 126.981672 61.880304 
L 127.732809 62.708624 
L 128.483946 62.859891 
L 129.235084 63.300273 
L 129.986221 63.893427 
L 130.737358 64.370903 
L 131.488495 63.643549 
L 132.239632 63.665765 
L 132.990769 63.91237 
L 133.741906 64.182927 
L 134.493043 63.813001 
L 135.244181 63.138167 
L 135.995318 62.910747 
L 136.746455 62.235246 
L 137.497592 62.525305 
L 138.248729 62.364717 
L 138.999866 61.637628 
L 139.751003 62.130984 
L 140.50214 61.501203 
L 141.253278 60.769243 
L 142.004415 59.993309 
L 142.755552 61.337595 
L 143.506689 62.028988 
L 144.257826 61.564371 
L 145.008963 61.63454 
L 145.7601 62.400484 
L 146.511237 62.054686 
L 147.262375 61.726079 
L 148.013512 61.142564 
L 148.764649 60.813687 
L 149.515786 60.995463 
L 150.266923 61.178551 
L 151.01806 60.200731 
L 151.769197 59.832308 
L 152.520334 59.303098 
L 153.271472 59.036915 
L 154.022609 58.17478 
L 154.773746 57.966446 
L 155.524883 58.500322 
L 156.27602 58.648254 
L 157.027157 59.026094 
L 157.778294 59.388761 
L 158.529431 58.686026 
L 159.280569 58.649419 
L 160.031706 58.500212 
L 160.782843 59.185013 
L 161.53398 59.259099 
L 162.285117 59.354436 
L 163.036254 59.301683 
L 163.787391 59.27681 
L 164.538528 60.218897 
L 165.289666 60.603177 
L 166.040803 60.476842 
L 166.79194 60.908946 
L 167.543077 60.199812 
L 168.294214 60.505948 
L 169.045351 59.707919 
L 169.796488 60.009297 
L 170.547625 59.586965 
L 171.298763 59.526421 
L 172.0499 58.844424 
L 172.801037 58.220625 
L 173.552174 57.743219 
L 174.303311 57.866431 
L 175.054448 57.338035 
L 175.805585 57.404793 
L 176.556722 56.894301 
L 177.30786 57.116603 
L 178.058997 57.216099 
L 178.810134 57.1896 
L 179.561271 57.318101 
L 180.312408 57.166282 
L 181.063545 55.842416 
L 181.814682 55.398999 
L 182.565819 54.916206 
L 183.316957 55.110189 
L 184.068094 54.739189 
L 184.819231 54.487057 
L 185.570368 54.610077 
L 186.321505 54.362187 
L 187.072642 53.407633 
L 187.823779 53.836861 
L 188.574916 54.382682 
L 189.326054 55.650214 
L 190.077191 55.510927 
L 190.828328 54.903818 
L 191.579465 54.401307 
L 192.330602 54.479448 
L 193.081739 54.600753 
L 193.832876 54.830551 
L 194.584013 55.318286 
L 195.335151 56.029001 
L 196.086288 55.836325 
L 196.837425 54.267263 
L 197.588562 53.394566 
L 198.339699 54.630032 
L 199.090836 55.86569 
L 199.841973 56.021722 
L 200.59311 56.324379 
L 201.344247 55.914887 
L 202.095385 55.810938 
L 202.846522 54.892525 
L 203.597659 55.023265 
L 204.348796 54.483537 
L 205.099933 54.530284 
L 205.85107 54.373653 
L 206.602207 52.95061 
L 207.353344 51.837145 
L 208.104482 52.987579 
L 208.855619 52.177253 
L 209.606756 51.801486 
L 210.357893 52.235064 
L 211.10903 53.107505 
L 211.860167 52.879793 
L 212.611304 53.276127 
L 213.362441 53.205891 
L 214.113579 53.221081 
L 214.864716 53.184238 
L 215.615853 54.667244 
L 216.36699 52.376275 
L 217.118127 52.667867 
L 217.869264 53.144589 
L 218.620401 52.473288 
L 219.371538 52.625216 
L 220.122676 53.103442 
L 220.873813 53.031899 
L 221.62495 53.198019 
L 222.376087 53.503435 
L 223.127224 53.575542 
L 223.878361 52.1697 
L 224.629498 53.024266 
L 225.380635 53.045253 
L 226.131773 53.801352 
L 226.88291 52.796244 
L 227.634047 51.828049 
L 228.385184 51.178791 
L 229.136321 50.736521 
L 229.887458 50.32631 
L 230.638595 49.446862 
L 231.389732 49.576843 
L 232.14087 49.4693 
L 232.892007 48.882145 
L 233.643144 49.227468 
L 234.394281 49.594744 
L 235.145418 49.788931 
L 235.896555 50.283735 
L 236.647692 51.152923 
L 237.398829 51.270588 
L 238.149967 51.357698 
L 238.901104 51.403691 
L 239.652241 51.527096 
L 240.403378 51.410527 
L 241.154515 50.559817 
L 241.905652 49.89694 
L 242.656789 48.784036 
L 243.407926 49.603619 
L 244.159064 49.610659 
L 244.910201 50.25585 
L 245.661338 49.678599 
L 246.412475 50.041712 
L 247.163612 50.466358 
L 247.914749 50.76588 
L 248.665886 51.532346 
L 249.417023 52.163202 
L 250.168161 51.83042 
L 250.919298 51.982003 
L 251.670435 51.594725 
L 252.421572 51.279019 
L 253.172709 51.006934 
L 253.923846 50.883426 
L 254.674983 50.722679 
L 255.42612 50.047564 
L 256.177258 49.562666 
L 256.928395 49.547996 
L 257.679532 49.070632 
L 258.430669 49.29666 
L 259.181806 49.314994 
L 259.932943 48.816655 
L 260.68408 49.173515 
L 261.435217 48.78948 
L 262.186355 49.578209 
L 262.937492 50.223437 
L 263.688629 50.292285 
L 264.439766 50.334765 
L 265.190903 50.217067 
L 265.94204 50.380703 
L 266.693177 50.185423 
L 267.444314 52.071269 
L 268.195452 52.441725 
L 268.946589 52.578282 
L 269.697726 53.020299 
L 270.448863 53.308704 
L 271.2 52.987341 
L 271.2 41.55428 
L 271.2 41.55428 
L 270.448863 41.154678 
L 269.697726 40.868091 
L 268.946589 40.982435 
L 268.195452 40.224484 
L 267.444314 40.315674 
L 266.693177 39.520567 
L 265.94204 38.915257 
L 265.190903 38.703988 
L 264.439766 38.266347 
L 263.688629 38.67325 
L 262.937492 38.246964 
L 262.186355 38.854756 
L 261.435217 39.38401 
L 260.68408 38.697635 
L 259.932943 39.275391 
L 259.181806 39.087163 
L 258.430669 39.793918 
L 257.679532 40.328125 
L 256.928395 40.519505 
L 256.177258 40.427242 
L 255.42612 41.294277 
L 254.674983 41.468836 
L 253.923846 41.343047 
L 253.172709 41.17578 
L 252.421572 41.648808 
L 251.670435 41.96192 
L 250.919298 42.667354 
L 250.168161 42.774417 
L 249.417023 42.5204 
L 248.665886 42.75995 
L 247.914749 43.26399 
L 247.163612 43.102625 
L 246.412475 43.33543 
L 245.661338 43.530111 
L 244.910201 43.542174 
L 244.159064 43.900898 
L 243.407926 43.667661 
L 242.656789 42.937148 
L 241.905652 42.523543 
L 241.154515 41.970925 
L 240.403378 41.005476 
L 239.652241 40.941661 
L 238.901104 41.215487 
L 238.149967 40.325136 
L 237.398829 40.055225 
L 236.647692 40.37953 
L 235.896555 40.567095 
L 235.145418 40.407317 
L 234.394281 40.577886 
L 233.643144 41.19227 
L 232.892007 40.92458 
L 232.14087 40.664784 
L 231.389732 40.909609 
L 230.638595 40.953105 
L 229.887458 41.75512 
L 229.136321 41.934902 
L 228.385184 41.240925 
L 227.634047 42.090052 
L 226.88291 42.477569 
L 226.131773 42.330926 
L 225.380635 42.295071 
L 224.629498 42.744932 
L 223.878361 43.174064 
L 223.127224 42.534335 
L 222.376087 42.62934 
L 221.62495 42.159265 
L 220.873813 42.01934 
L 220.122676 41.841572 
L 219.371538 42.176126 
L 218.620401 42.381196 
L 217.869264 42.374236 
L 217.118127 42.755672 
L 216.36699 42.469245 
L 215.615853 42.239049 
L 214.864716 42.535479 
L 214.113579 42.646345 
L 213.362441 42.468271 
L 212.611304 43.069093 
L 211.860167 43.785549 
L 211.10903 43.316676 
L 210.357893 43.1703 
L 209.606756 43.144543 
L 208.855619 42.947104 
L 208.104482 42.727454 
L 207.353344 43.06663 
L 206.602207 43.391401 
L 205.85107 42.83224 
L 205.099933 43.105238 
L 204.348796 42.444612 
L 203.597659 42.593994 
L 202.846522 42.360031 
L 202.095385 42.842558 
L 201.344247 42.45928 
L 200.59311 42.532538 
L 199.841973 43.640723 
L 199.090836 42.775627 
L 198.339699 43.688268 
L 197.588562 43.671824 
L 196.837425 43.882486 
L 196.086288 43.285316 
L 195.335151 43.271645 
L 194.584013 44.110188 
L 193.832876 44.192298 
L 193.081739 44.182181 
L 192.330602 45.087983 
L 191.579465 45.192532 
L 190.828328 45.64327 
L 190.077191 45.161269 
L 189.326054 45.749452 
L 188.574916 45.242153 
L 187.823779 45.05253 
L 187.072642 44.82651 
L 186.321505 44.499838 
L 185.570368 45.296488 
L 184.819231 46.124155 
L 184.068094 45.831209 
L 183.316957 45.70934 
L 182.565819 45.541935 
L 181.814682 45.424627 
L 181.063545 45.354717 
L 180.312408 46.046326 
L 179.561271 47.282284 
L 178.810134 47.828037 
L 178.058997 48.011088 
L 177.30786 47.659161 
L 176.556722 48.034248 
L 175.805585 47.328281 
L 175.054448 46.752803 
L 174.303311 46.405351 
L 173.552174 46.748351 
L 172.801037 46.997219 
L 172.0499 45.981872 
L 171.298763 44.515618 
L 170.547625 44.218835 
L 169.796488 43.850025 
L 169.045351 43.529012 
L 168.294214 42.885183 
L 167.543077 43.048946 
L 166.79194 43.81392 
L 166.040803 44.105599 
L 165.289666 44.189871 
L 164.538528 43.737355 
L 163.787391 44.202781 
L 163.036254 44.834209 
L 162.285117 45.39431 
L 161.53398 45.42478 
L 160.782843 46.484046 
L 160.031706 47.264143 
L 159.280569 47.385524 
L 158.529431 46.702652 
L 157.778294 47.048229 
L 157.027157 46.831592 
L 156.27602 47.386896 
L 155.524883 47.4588 
L 154.773746 47.968822 
L 154.022609 47.699941 
L 153.271472 48.196424 
L 152.520334 47.788896 
L 151.769197 47.074147 
L 151.01806 47.694297 
L 150.266923 47.355995 
L 149.515786 47.021261 
L 148.764649 47.579129 
L 148.013512 47.813071 
L 147.262375 48.028941 
L 146.511237 47.813718 
L 145.7601 48.443463 
L 145.008963 48.688437 
L 144.257826 48.370996 
L 143.506689 48.557345 
L 142.755552 48.341375 
L 142.004415 49.361279 
L 141.253278 49.782053 
L 140.50214 49.570316 
L 139.751003 49.068856 
L 138.999866 48.952872 
L 138.248729 49.178518 
L 137.497592 48.845773 
L 136.746455 49.206902 
L 135.995318 49.62491 
L 135.244181 51.01275 
L 134.493043 50.860346 
L 133.741906 50.402162 
L 132.990769 50.071985 
L 132.239632 49.828806 
L 131.488495 50.008858 
L 130.737358 50.177986 
L 129.986221 50.848286 
L 129.235084 51.713632 
L 128.483946 51.414288 
L 127.732809 51.69518 
L 126.981672 51.075783 
L 126.230535 51.72549 
L 125.479398 52.776314 
L 124.728261 52.713888 
L 123.977124 52.799924 
L 123.225987 53.155115 
L 122.474849 52.603592 
L 121.723712 51.782486 
L 120.972575 50.901395 
L 120.221438 51.810253 
L 119.470301 51.40644 
L 118.719164 51.341587 
L 117.968027 50.954808 
L 117.21689 51.302975 
L 116.465753 52.314707 
L 115.714615 52.660562 
L 114.963478 52.770795 
L 114.212341 53.980277 
L 113.461204 53.461966 
L 112.710067 53.949654 
L 111.95893 53.407913 
L 111.207793 53.033213 
L 110.456656 52.716935 
L 109.705518 52.514915 
L 108.954381 52.285918 
L 108.203244 51.877863 
L 107.452107 51.097301 
L 106.70097 51.368788 
L 105.949833 51.55796 
L 105.198696 52.953104 
L 104.447559 53.346082 
L 103.696421 54.134705 
L 102.945284 55.094984 
L 102.194147 55.510077 
L 101.44301 56.198191 
L 100.691873 56.714238 
L 99.940736 56.313584 
L 99.189599 57.334594 
L 98.438462 56.863226 
L 97.687324 55.980711 
L 96.936187 55.813666 
L 96.18505 55.328821 
L 95.433913 54.454116 
L 94.682776 53.226965 
L 93.931639 52.494766 
L 93.180502 51.813741 
L 92.429365 51.758398 
L 91.678227 53.304259 
L 90.92709 53.184045 
L 90.175953 53.749367 
L 89.424816 54.47892 
L 88.673679 53.90778 
L 87.922542 53.894234 
L 87.171405 54.171159 
L 86.420268 54.480795 
L 85.66913 54.591224 
L 84.917993 55.169393 
L 84.166856 55.212455 
L 83.415719 54.308409 
L 82.664582 54.010761 
L 81.913445 53.843687 
L 81.162308 54.037005 
L 80.411171 53.802682 
L 79.660033 54.503069 
L 78.908896 54.618177 
L 78.157759 54.907708 
L 77.406622 55.863031 
L 76.655485 56.36858 
L 75.904348 56.075324 
L 75.153211 57.048734 
L 74.402074 57.360966 
L 73.650936 57.375393 
L 72.899799 57.647326 
L 72.148662 58.239202 
L 71.397525 59.062505 
L 70.646388 59.505175 
L 69.895251 60.412589 
L 69.144114 60.763507 
L 68.392977 60.539616 
L 67.641839 60.853796 
L 66.890702 60.113716 
L 66.139565 59.102283 
L 65.388428 59.735172 
L 64.637291 59.325925 
L 63.886154 58.374599 
L 63.135017 57.356838 
L 62.38388 57.311479 
L 61.632742 57.488875 
L 60.881605 57.560939 
L 60.130468 57.600475 
L 59.379331 58.406816 
L 58.628194 59.598271 
L 57.877057 60.384937 
L 57.12592 59.788482 
L 56.374783 59.933667 
L 55.623645 60.263228 
L 54.872508 60.336851 
L 54.121371 59.454617 
L 53.370234 59.264356 
L 52.619097 63.2839 
L 51.86796 66.763867 
L 51.116823 77.426023 
L 50.365686 83.854972 
L 49.614548 85.556833 
L 48.863411 88.13806 
L 48.112274 91.499248 
L 47.361137 94.806916 
L 46.61 99.862414 
z
" style="fill:#4c72b0;fill-opacity:0.2;"/>
   </g>
   <g id="PolyCollection_2">
    <path clip-path="url(#pd7726b14da)" d="M 46.61 92.635758 
L 46.61 155.002236 
L 47.361137 145.597337 
L 48.112274 137.878368 
L 48.863411 132.239168 
L 49.614548 126.551663 
L 50.365686 123.134595 
L 51.116823 111.464583 
L 51.86796 104.791277 
L 52.619097 99.148523 
L 53.370234 94.111545 
L 54.121371 87.142417 
L 54.872508 84.360304 
L 55.623645 82.671005 
L 56.374783 81.331001 
L 57.12592 80.279695 
L 57.877057 80.351899 
L 58.628194 84.677804 
L 59.379331 83.869486 
L 60.130468 84.145785 
L 60.881605 84.070281 
L 61.632742 82.367125 
L 62.38388 81.753045 
L 63.135017 81.848528 
L 63.886154 81.860397 
L 64.637291 82.287368 
L 65.388428 82.743988 
L 66.139565 81.554924 
L 66.890702 77.643946 
L 67.641839 77.752836 
L 68.392977 77.934957 
L 69.144114 78.016597 
L 69.895251 78.006806 
L 70.646388 77.524466 
L 71.397525 76.152266 
L 72.148662 76.330843 
L 72.899799 75.124964 
L 73.650936 74.159016 
L 74.402074 75.535751 
L 75.153211 73.696919 
L 75.904348 74.706925 
L 76.655485 74.502864 
L 77.406622 74.011198 
L 78.157759 74.23387 
L 78.908896 74.265936 
L 79.660033 74.564523 
L 80.411171 73.83815 
L 81.162308 74.448164 
L 81.913445 73.918833 
L 82.664582 72.903605 
L 83.415719 72.853269 
L 84.166856 71.352111 
L 84.917993 70.040312 
L 85.66913 69.217569 
L 86.420268 69.169743 
L 87.171405 69.410177 
L 87.922542 69.557773 
L 88.673679 69.674964 
L 89.424816 69.017292 
L 90.175953 68.968771 
L 90.92709 67.47587 
L 91.678227 66.921495 
L 92.429365 66.726655 
L 93.180502 66.905826 
L 93.931639 67.045597 
L 94.682776 66.6339 
L 95.433913 66.052422 
L 96.18505 65.584032 
L 96.936187 64.972562 
L 97.687324 64.655943 
L 98.438462 64.447665 
L 99.189599 65.139103 
L 99.940736 65.24528 
L 100.691873 65.38027 
L 101.44301 65.434894 
L 102.194147 65.252473 
L 102.945284 65.3065 
L 103.696421 64.789913 
L 104.447559 64.16755 
L 105.198696 64.792266 
L 105.949833 63.925485 
L 106.70097 64.199644 
L 107.452107 64.995758 
L 108.203244 65.441355 
L 108.954381 64.329456 
L 109.705518 63.355854 
L 110.456656 62.820339 
L 111.207793 62.792351 
L 111.95893 63.147783 
L 112.710067 64.369392 
L 113.461204 63.992097 
L 114.212341 63.895165 
L 114.963478 64.07984 
L 115.714615 65.022105 
L 116.465753 64.523548 
L 117.21689 65.151949 
L 117.968027 65.912319 
L 118.719164 67.406034 
L 119.470301 67.017492 
L 120.221438 66.867209 
L 120.972575 64.771113 
L 121.723712 64.707 
L 122.474849 65.433107 
L 123.225987 65.273993 
L 123.977124 62.723873 
L 124.728261 63.27899 
L 125.479398 63.185005 
L 126.230535 62.450251 
L 126.981672 61.607201 
L 127.732809 60.468931 
L 128.483946 60.490561 
L 129.235084 61.251854 
L 129.986221 61.210722 
L 130.737358 61.557988 
L 131.488495 60.760894 
L 132.239632 60.321546 
L 132.990769 59.634932 
L 133.741906 58.272328 
L 134.493043 57.158409 
L 135.244181 56.962609 
L 135.995318 56.770109 
L 136.746455 57.082452 
L 137.497592 56.257349 
L 138.248729 56.092663 
L 138.999866 55.533186 
L 139.751003 55.799584 
L 140.50214 56.397138 
L 141.253278 56.684759 
L 142.004415 57.194201 
L 142.755552 57.418817 
L 143.506689 57.463876 
L 144.257826 56.889501 
L 145.008963 56.865707 
L 145.7601 57.389375 
L 146.511237 57.752747 
L 147.262375 57.943422 
L 148.013512 57.993377 
L 148.764649 58.111558 
L 149.515786 58.104572 
L 150.266923 57.09824 
L 151.01806 57.429099 
L 151.769197 57.378368 
L 152.520334 57.673623 
L 153.271472 56.995115 
L 154.022609 56.898947 
L 154.773746 56.708961 
L 155.524883 56.560499 
L 156.27602 56.279294 
L 157.027157 55.911279 
L 157.778294 56.048113 
L 158.529431 56.370492 
L 159.280569 55.868273 
L 160.031706 55.838048 
L 160.782843 55.805537 
L 161.53398 56.173806 
L 162.285117 56.27826 
L 163.036254 56.393679 
L 163.787391 56.581066 
L 164.538528 57.027107 
L 165.289666 57.225383 
L 166.040803 56.476271 
L 166.79194 55.993035 
L 167.543077 56.642288 
L 168.294214 56.61876 
L 169.045351 56.09528 
L 169.796488 55.526687 
L 170.547625 55.39077 
L 171.298763 55.642509 
L 172.0499 55.684258 
L 172.801037 55.191703 
L 173.552174 55.171686 
L 174.303311 55.628698 
L 175.054448 56.527304 
L 175.805585 56.18977 
L 176.556722 56.258301 
L 177.30786 55.946147 
L 178.058997 56.316333 
L 178.810134 56.507555 
L 179.561271 56.111189 
L 180.312408 55.333415 
L 181.063545 55.700385 
L 181.814682 54.728082 
L 182.565819 55.344747 
L 183.316957 54.387878 
L 184.068094 54.567684 
L 184.819231 54.722633 
L 185.570368 54.830234 
L 186.321505 54.666629 
L 187.072642 53.742927 
L 187.823779 53.983328 
L 188.574916 55.176423 
L 189.326054 55.172914 
L 190.077191 55.388467 
L 190.828328 54.36474 
L 191.579465 54.258656 
L 192.330602 53.34721 
L 193.081739 53.460129 
L 193.832876 52.948743 
L 194.584013 52.80866 
L 195.335151 53.120213 
L 196.086288 52.799964 
L 196.837425 51.84461 
L 197.588562 51.654135 
L 198.339699 51.677529 
L 199.090836 52.152144 
L 199.841973 52.144741 
L 200.59311 52.15542 
L 201.344247 51.49275 
L 202.095385 51.462743 
L 202.846522 52.634062 
L 203.597659 52.198353 
L 204.348796 52.232235 
L 205.099933 52.322632 
L 205.85107 52.491567 
L 206.602207 52.364969 
L 207.353344 52.330467 
L 208.104482 52.015035 
L 208.855619 52.004309 
L 209.606756 52.765946 
L 210.357893 52.187774 
L 211.10903 51.365906 
L 211.860167 51.637272 
L 212.611304 51.545276 
L 213.362441 51.676764 
L 214.113579 52.191333 
L 214.864716 52.044759 
L 215.615853 51.684534 
L 216.36699 51.390853 
L 217.118127 51.06193 
L 217.869264 50.625461 
L 218.620401 51.1242 
L 219.371538 51.503682 
L 220.122676 51.71012 
L 220.873813 52.19704 
L 221.62495 51.559234 
L 222.376087 51.214431 
L 223.127224 51.680221 
L 223.878361 52.398339 
L 224.629498 52.771884 
L 225.380635 53.071913 
L 226.131773 53.38306 
L 226.88291 53.424796 
L 227.634047 53.762424 
L 228.385184 53.487497 
L 229.136321 54.111827 
L 229.887458 54.079807 
L 230.638595 53.902378 
L 231.389732 54.182864 
L 232.14087 53.645891 
L 232.892007 53.309117 
L 233.643144 52.644178 
L 234.394281 52.516508 
L 235.145418 52.173794 
L 235.896555 51.343115 
L 236.647692 51.098765 
L 237.398829 50.338411 
L 238.149967 50.586426 
L 238.901104 50.606126 
L 239.652241 50.80395 
L 240.403378 51.312069 
L 241.154515 51.411528 
L 241.905652 50.842964 
L 242.656789 51.291222 
L 243.407926 51.261072 
L 244.159064 51.772643 
L 244.910201 52.411521 
L 245.661338 52.414528 
L 246.412475 52.288987 
L 247.163612 51.508011 
L 247.914749 50.847303 
L 248.665886 50.3752 
L 249.417023 50.459316 
L 250.168161 51.035597 
L 250.919298 50.65877 
L 251.670435 51.040182 
L 252.421572 50.825443 
L 253.172709 50.418072 
L 253.923846 50.236207 
L 254.674983 50.173696 
L 255.42612 50.849294 
L 256.177258 50.609277 
L 256.928395 50.495463 
L 257.679532 50.59255 
L 258.430669 49.425665 
L 259.181806 49.450198 
L 259.932943 49.446343 
L 260.68408 49.200899 
L 261.435217 48.864002 
L 262.186355 48.379627 
L 262.937492 48.288107 
L 263.688629 48.150839 
L 264.439766 48.394483 
L 265.190903 48.372416 
L 265.94204 47.845578 
L 266.693177 48.278913 
L 267.444314 48.204985 
L 268.195452 48.140214 
L 268.946589 49.005703 
L 269.697726 49.408469 
L 270.448863 50.364529 
L 271.2 51.140851 
L 271.2 40.75554 
L 271.2 40.75554 
L 270.448863 41.543164 
L 269.697726 41.513792 
L 268.946589 41.533004 
L 268.195452 41.704376 
L 267.444314 41.572123 
L 266.693177 42.077326 
L 265.94204 41.990426 
L 265.190903 42.155312 
L 264.439766 41.783458 
L 263.688629 41.521594 
L 262.937492 41.473698 
L 262.186355 40.928977 
L 261.435217 41.255629 
L 260.68408 41.219018 
L 259.932943 41.508607 
L 259.181806 41.836487 
L 258.430669 41.680552 
L 257.679532 41.505045 
L 256.928395 41.197858 
L 256.177258 41.80629 
L 255.42612 41.979718 
L 254.674983 42.239857 
L 253.923846 42.655805 
L 253.172709 42.488798 
L 252.421572 42.65592 
L 251.670435 43.127852 
L 250.919298 43.43898 
L 250.168161 43.635058 
L 249.417023 43.43127 
L 248.665886 42.758748 
L 247.914749 42.527502 
L 247.163612 42.133877 
L 246.412475 41.898652 
L 245.661338 41.929783 
L 244.910201 42.225737 
L 244.159064 42.21436 
L 243.407926 41.797788 
L 242.656789 42.180676 
L 241.905652 42.419931 
L 241.154515 43.129683 
L 240.403378 43.535897 
L 239.652241 43.693392 
L 238.901104 43.920773 
L 238.149967 44.115917 
L 237.398829 43.734615 
L 236.647692 43.376288 
L 235.896555 43.342077 
L 235.145418 43.445802 
L 234.394281 43.335703 
L 233.643144 42.944786 
L 232.892007 42.23645 
L 232.14087 42.534209 
L 231.389732 42.611947 
L 230.638595 42.67002 
L 229.887458 42.750287 
L 229.136321 42.978933 
L 228.385184 43.291223 
L 227.634047 43.404635 
L 226.88291 43.317464 
L 226.131773 43.765796 
L 225.380635 43.978071 
L 224.629498 44.191876 
L 223.878361 43.913744 
L 223.127224 44.115905 
L 222.376087 44.541339 
L 221.62495 44.337461 
L 220.873813 44.242853 
L 220.122676 44.236832 
L 219.371538 45.004435 
L 218.620401 45.279579 
L 217.869264 44.808807 
L 217.118127 44.376136 
L 216.36699 43.925732 
L 215.615853 43.838515 
L 214.864716 43.040358 
L 214.113579 43.065503 
L 213.362441 42.992014 
L 212.611304 43.037558 
L 211.860167 43.270714 
L 211.10903 42.863072 
L 210.357893 43.472597 
L 209.606756 43.366417 
L 208.855619 43.373146 
L 208.104482 43.341264 
L 207.353344 43.456642 
L 206.602207 44.010735 
L 205.85107 44.11755 
L 205.099933 44.29817 
L 204.348796 44.962855 
L 203.597659 45.181694 
L 202.846522 45.437684 
L 202.095385 45.477272 
L 201.344247 44.599849 
L 200.59311 44.863806 
L 199.841973 44.43614 
L 199.090836 44.357229 
L 198.339699 44.083516 
L 197.588562 44.181483 
L 196.837425 44.04419 
L 196.086288 43.673058 
L 195.335151 43.414384 
L 194.584013 42.888765 
L 193.832876 42.4973 
L 193.081739 42.56529 
L 192.330602 43.468695 
L 191.579465 43.49216 
L 190.828328 43.669184 
L 190.077191 44.148659 
L 189.326054 43.646242 
L 188.574916 44.23976 
L 187.823779 43.97776 
L 187.072642 44.445125 
L 186.321505 44.727494 
L 185.570368 45.113301 
L 184.819231 44.910329 
L 184.068094 44.02499 
L 183.316957 43.931595 
L 182.565819 43.935318 
L 181.814682 43.692518 
L 181.063545 43.979259 
L 180.312408 43.733231 
L 179.561271 43.749717 
L 178.810134 42.860392 
L 178.058997 42.94069 
L 177.30786 43.221598 
L 176.556722 43.920949 
L 175.805585 44.127231 
L 175.054448 44.124766 
L 174.303311 44.305744 
L 173.552174 44.908565 
L 172.801037 44.659624 
L 172.0499 45.078748 
L 171.298763 45.829345 
L 170.547625 47.142715 
L 169.796488 47.109347 
L 169.045351 47.092696 
L 168.294214 46.910097 
L 167.543077 47.560679 
L 166.79194 48.062228 
L 166.040803 47.655294 
L 165.289666 47.734713 
L 164.538528 48.21753 
L 163.787391 49.403922 
L 163.036254 49.494042 
L 162.285117 49.338489 
L 161.53398 49.480619 
L 160.782843 49.367211 
L 160.031706 48.883926 
L 159.280569 49.801814 
L 158.529431 49.836816 
L 157.778294 50.341574 
L 157.027157 50.498643 
L 156.27602 50.772777 
L 155.524883 49.949796 
L 154.773746 49.782755 
L 154.022609 49.906632 
L 153.271472 49.828681 
L 152.520334 50.09721 
L 151.769197 50.892936 
L 151.01806 50.133446 
L 150.266923 49.956546 
L 149.515786 50.066802 
L 148.764649 50.421946 
L 148.013512 50.59972 
L 147.262375 50.350671 
L 146.511237 50.634032 
L 145.7601 51.118562 
L 145.008963 51.134079 
L 144.257826 51.06264 
L 143.506689 51.053374 
L 142.755552 51.901746 
L 142.004415 52.38854 
L 141.253278 51.894371 
L 140.50214 51.174174 
L 139.751003 50.679113 
L 138.999866 51.095999 
L 138.248729 51.586853 
L 137.497592 51.57699 
L 136.746455 52.190523 
L 135.995318 53.106949 
L 135.244181 52.556269 
L 134.493043 52.638434 
L 133.741906 52.711125 
L 132.990769 52.939782 
L 132.239632 54.092621 
L 131.488495 54.820441 
L 130.737358 54.901446 
L 129.986221 55.296464 
L 129.235084 55.769402 
L 128.483946 56.201407 
L 127.732809 55.834419 
L 126.981672 55.477702 
L 126.230535 54.854448 
L 125.479398 53.916916 
L 124.728261 53.033327 
L 123.977124 52.208859 
L 123.225987 51.323274 
L 122.474849 51.191965 
L 121.723712 50.919388 
L 120.972575 50.29419 
L 120.221438 49.411389 
L 119.470301 49.24036 
L 118.719164 49.378791 
L 117.968027 49.555396 
L 117.21689 49.902786 
L 116.465753 51.000831 
L 115.714615 51.390712 
L 114.963478 51.613253 
L 114.212341 51.65618 
L 113.461204 51.736945 
L 112.710067 51.946485 
L 111.95893 52.241829 
L 111.207793 52.482456 
L 110.456656 53.246876 
L 109.705518 53.798722 
L 108.954381 54.253487 
L 108.203244 54.213722 
L 107.452107 54.564026 
L 106.70097 55.083019 
L 105.949833 55.109375 
L 105.198696 55.277575 
L 104.447559 56.384742 
L 103.696421 56.752507 
L 102.945284 57.691118 
L 102.194147 56.352747 
L 101.44301 56.365788 
L 100.691873 57.246586 
L 99.940736 56.234351 
L 99.189599 56.574111 
L 98.438462 55.995999 
L 97.687324 56.461506 
L 96.936187 56.230011 
L 96.18505 56.033637 
L 95.433913 55.981431 
L 94.682776 56.025347 
L 93.931639 56.920243 
L 93.180502 57.235372 
L 92.429365 56.317977 
L 91.678227 56.559455 
L 90.92709 55.986469 
L 90.175953 56.070702 
L 89.424816 56.398616 
L 88.673679 56.814492 
L 87.922542 56.750571 
L 87.171405 56.614318 
L 86.420268 56.933811 
L 85.66913 56.791199 
L 84.917993 56.990424 
L 84.166856 57.234517 
L 83.415719 55.954925 
L 82.664582 56.764486 
L 81.913445 57.206261 
L 81.162308 56.736501 
L 80.411171 56.493138 
L 79.660033 57.09117 
L 78.908896 57.166515 
L 78.157759 57.263537 
L 77.406622 57.820627 
L 76.655485 58.273279 
L 75.904348 57.38181 
L 75.153211 58.442279 
L 74.402074 57.059034 
L 73.650936 57.219586 
L 72.899799 57.575102 
L 72.148662 56.58167 
L 71.397525 56.195426 
L 70.646388 55.894164 
L 69.895251 55.907874 
L 69.144114 55.050502 
L 68.392977 55.184193 
L 67.641839 55.086362 
L 66.890702 55.383145 
L 66.139565 55.188063 
L 65.388428 55.004277 
L 64.637291 55.951552 
L 63.886154 56.778766 
L 63.135017 57.424338 
L 62.38388 58.213 
L 61.632742 57.150495 
L 60.881605 57.238347 
L 60.130468 56.288833 
L 59.379331 57.536524 
L 58.628194 57.345575 
L 57.877057 59.746898 
L 57.12592 59.638279 
L 56.374783 58.256101 
L 55.623645 58.420155 
L 54.872508 57.915481 
L 54.121371 58.116725 
L 53.370234 57.279424 
L 52.619097 58.828681 
L 51.86796 61.631281 
L 51.116823 71.605394 
L 50.365686 78.207116 
L 49.614548 79.675565 
L 48.863411 81.849929 
L 48.112274 85.558438 
L 47.361137 88.467064 
L 46.61 92.635758 
z
" style="fill:#55a868;fill-opacity:0.2;"/>
   </g>
   <g id="line2d_19">
    <path clip-path="url(#pd7726b14da)" d="M 46.61 126.658674 
L 48.863411 110.150409 
L 49.614548 105.920471 
L 50.365686 102.65746 
L 51.86796 79.74889 
L 52.619097 77.162004 
L 53.370234 73.82278 
L 54.121371 73.56593 
L 54.872508 72.406686 
L 55.623645 70.680411 
L 56.374783 70.178153 
L 57.12592 69.926822 
L 57.877057 69.915293 
L 58.628194 69.499756 
L 59.379331 69.526312 
L 60.130468 69.096753 
L 60.881605 68.392682 
L 61.632742 68.321389 
L 62.38388 67.795704 
L 63.135017 67.558781 
L 64.637291 67.466954 
L 66.139565 66.698218 
L 66.890702 67.212197 
L 67.641839 67.015923 
L 68.392977 67.069583 
L 70.646388 66.431311 
L 72.148662 64.863362 
L 72.899799 65.018745 
L 73.650936 64.66034 
L 74.402074 64.774901 
L 75.153211 64.311763 
L 75.904348 64.437026 
L 76.655485 64.340286 
L 77.406622 64.111507 
L 78.908896 63.235939 
L 79.660033 63.099128 
L 80.411171 63.855952 
L 81.162308 63.623785 
L 81.913445 63.653997 
L 84.917993 62.896265 
L 85.66913 62.84917 
L 86.420268 62.541689 
L 87.171405 61.799594 
L 87.922542 61.700107 
L 88.673679 61.113697 
L 89.424816 60.741168 
L 90.175953 60.659002 
L 91.678227 60.075334 
L 93.180502 58.973785 
L 94.682776 59.207893 
L 95.433913 60.011214 
L 96.18505 60.387672 
L 96.936187 60.118243 
L 97.687324 60.234845 
L 98.438462 60.060855 
L 99.189599 60.245582 
L 99.940736 59.800108 
L 100.691873 59.626905 
L 101.44301 59.667088 
L 102.194147 59.366053 
L 102.945284 59.542708 
L 103.696421 59.557819 
L 105.198696 59.268683 
L 105.949833 58.518385 
L 106.70097 58.2335 
L 107.452107 57.797609 
L 108.203244 58.654598 
L 110.456656 58.534399 
L 111.207793 57.826875 
L 111.95893 56.860279 
L 112.710067 56.952454 
L 113.461204 56.593722 
L 114.212341 56.67827 
L 114.963478 56.433683 
L 115.714615 56.849888 
L 117.21689 55.290275 
L 117.968027 54.968915 
L 118.719164 55.307722 
L 120.221438 56.30739 
L 120.972575 55.731625 
L 122.474849 56.648085 
L 123.225987 56.993444 
L 123.977124 56.596631 
L 124.728261 56.433882 
L 125.479398 56.8256 
L 126.981672 56.478043 
L 127.732809 57.201902 
L 128.483946 57.137089 
L 129.235084 57.506952 
L 130.737358 57.274445 
L 131.488495 56.826203 
L 132.239632 56.747285 
L 133.741906 57.292545 
L 134.493043 57.336673 
L 135.244181 57.075459 
L 135.995318 56.267828 
L 136.746455 55.721074 
L 137.497592 55.685539 
L 138.248729 55.771617 
L 138.999866 55.29525 
L 139.751003 55.59992 
L 140.50214 55.535759 
L 141.253278 55.275648 
L 142.004415 54.677294 
L 142.755552 54.839485 
L 143.506689 55.293166 
L 144.257826 54.967683 
L 145.7601 55.421973 
L 146.511237 54.934202 
L 147.262375 54.87751 
L 148.764649 54.196408 
L 149.515786 54.008362 
L 150.266923 54.267273 
L 151.01806 53.947514 
L 151.769197 53.453227 
L 153.271472 53.616669 
L 154.022609 52.937361 
L 156.27602 53.017575 
L 157.027157 52.928843 
L 157.778294 53.218495 
L 158.529431 52.694339 
L 159.280569 53.017472 
L 160.782843 52.834529 
L 161.53398 52.34194 
L 162.285117 52.374373 
L 163.787391 51.739796 
L 164.538528 51.978126 
L 165.289666 52.396524 
L 166.040803 52.291221 
L 166.79194 52.361433 
L 167.543077 51.624379 
L 168.294214 51.695566 
L 169.045351 51.618466 
L 169.796488 51.929661 
L 170.547625 51.9029 
L 171.298763 52.021019 
L 172.0499 52.413148 
L 172.801037 52.608922 
L 173.552174 52.245785 
L 175.054448 52.045419 
L 175.805585 52.366537 
L 176.556722 52.464275 
L 177.30786 52.387882 
L 178.058997 52.613593 
L 179.561271 52.300192 
L 180.312408 51.606304 
L 181.063545 50.598567 
L 182.565819 50.22907 
L 183.316957 50.409765 
L 184.068094 50.285199 
L 184.819231 50.305606 
L 185.570368 49.953283 
L 186.321505 49.431013 
L 187.072642 49.117071 
L 188.574916 49.812417 
L 189.326054 50.699833 
L 190.077191 50.336098 
L 190.828328 50.273544 
L 191.579465 49.796919 
L 192.330602 49.783715 
L 193.081739 49.391467 
L 195.335151 49.650323 
L 196.086288 49.56082 
L 197.588562 48.533195 
L 198.339699 49.15915 
L 199.090836 49.320659 
L 199.841973 49.831223 
L 200.59311 49.428459 
L 201.344247 49.187083 
L 202.095385 49.326748 
L 202.846522 48.626278 
L 203.597659 48.808629 
L 204.348796 48.464075 
L 205.099933 48.817761 
L 205.85107 48.602947 
L 206.602207 48.171005 
L 207.353344 47.451888 
L 208.104482 47.857517 
L 208.855619 47.562178 
L 209.606756 47.473014 
L 210.357893 47.702682 
L 211.10903 48.21209 
L 211.860167 48.332671 
L 212.611304 48.17261 
L 213.362441 47.837081 
L 214.113579 47.933713 
L 214.864716 47.859858 
L 215.615853 48.453146 
L 216.36699 47.42276 
L 217.118127 47.71177 
L 217.869264 47.759412 
L 218.620401 47.427242 
L 220.122676 47.472507 
L 221.62495 47.678642 
L 222.376087 48.066388 
L 223.127224 48.054938 
L 223.878361 47.671882 
L 224.629498 47.884599 
L 225.380635 47.670162 
L 226.131773 48.066139 
L 226.88291 47.636907 
L 228.385184 46.209858 
L 229.136321 46.335712 
L 229.887458 46.040715 
L 230.638595 45.199984 
L 231.389732 45.243226 
L 232.892007 44.903363 
L 233.643144 45.209869 
L 234.394281 45.086315 
L 235.145418 45.098124 
L 236.647692 45.766227 
L 237.398829 45.662907 
L 238.149967 45.841417 
L 238.901104 46.309589 
L 240.403378 46.208001 
L 241.154515 46.265371 
L 241.905652 46.210242 
L 242.656789 45.860592 
L 243.407926 46.63564 
L 244.910201 46.899012 
L 245.661338 46.604355 
L 247.163612 46.784492 
L 248.665886 47.146148 
L 249.417023 47.341801 
L 250.919298 47.324678 
L 251.670435 46.778323 
L 253.172709 46.091357 
L 254.674983 46.095757 
L 255.42612 45.670921 
L 256.177258 44.994954 
L 256.928395 45.03375 
L 257.679532 44.699378 
L 258.430669 44.545289 
L 259.181806 44.201079 
L 260.68408 43.935575 
L 262.186355 44.216482 
L 262.937492 44.2352 
L 263.688629 44.482768 
L 264.439766 44.300556 
L 266.693177 44.852995 
L 267.444314 46.193471 
L 268.195452 46.333104 
L 268.946589 46.780358 
L 269.697726 46.944195 
L 270.448863 47.231691 
L 271.2 47.27081 
L 271.2 47.27081 
" style="fill:none;stroke:#4c72b0;stroke-linecap:round;stroke-width:1.75;"/>
   </g>
   <g id="line2d_20">
    <path clip-path="url(#pd7726b14da)" d="M 46.61 123.818997 
L 47.361137 117.032201 
L 48.863411 107.044548 
L 49.614548 103.113614 
L 50.365686 100.670856 
L 51.86796 83.211279 
L 52.619097 78.988602 
L 54.121371 72.629571 
L 54.872508 71.137892 
L 55.623645 70.54558 
L 56.374783 69.793551 
L 57.877057 70.049399 
L 58.628194 71.011689 
L 59.379331 70.703005 
L 60.130468 70.217309 
L 60.881605 70.654314 
L 61.632742 69.75881 
L 62.38388 69.983022 
L 63.886154 69.319582 
L 65.388428 68.874133 
L 66.139565 68.371493 
L 66.890702 66.513546 
L 67.641839 66.419599 
L 68.392977 66.559575 
L 69.144114 66.533549 
L 69.895251 66.95734 
L 70.646388 66.709315 
L 71.397525 66.173846 
L 72.148662 66.456256 
L 72.899799 66.350033 
L 73.650936 65.689301 
L 74.402074 66.297392 
L 75.153211 66.069599 
L 75.904348 66.044368 
L 76.655485 66.388071 
L 77.406622 65.915912 
L 78.157759 65.748704 
L 78.908896 65.716225 
L 79.660033 65.827846 
L 80.411171 65.165644 
L 81.162308 65.592333 
L 81.913445 65.562547 
L 82.664582 64.834046 
L 83.415719 64.404097 
L 84.166856 64.293314 
L 84.917993 63.515368 
L 85.66913 63.004384 
L 88.673679 63.244728 
L 89.424816 62.707954 
L 90.175953 62.519736 
L 90.92709 61.73117 
L 91.678227 61.740475 
L 92.429365 61.522316 
L 93.180502 62.070599 
L 93.931639 61.98292 
L 94.682776 61.329623 
L 96.18505 60.808835 
L 96.936187 60.601286 
L 97.687324 60.558724 
L 98.438462 60.221832 
L 99.189599 60.856607 
L 99.940736 60.739815 
L 100.691873 61.313428 
L 101.44301 60.900341 
L 102.194147 60.80261 
L 102.945284 61.498809 
L 103.696421 60.77121 
L 104.447559 60.276146 
L 105.198696 60.03492 
L 105.949833 59.51743 
L 108.203244 59.827539 
L 108.954381 59.291471 
L 109.705518 58.577288 
L 110.456656 58.033607 
L 111.207793 57.637403 
L 111.95893 57.694806 
L 112.710067 58.157939 
L 113.461204 57.864521 
L 114.212341 57.775672 
L 114.963478 57.846546 
L 115.714615 58.206409 
L 116.465753 57.762189 
L 117.21689 57.527368 
L 117.968027 57.733858 
L 118.719164 58.392412 
L 119.470301 58.128926 
L 120.221438 58.139299 
L 120.972575 57.532651 
L 121.723712 57.813194 
L 122.474849 58.312536 
L 123.225987 58.298633 
L 123.977124 57.466366 
L 124.728261 58.156158 
L 125.479398 58.55096 
L 126.230535 58.652349 
L 126.981672 58.542451 
L 127.732809 58.151675 
L 129.235084 58.510628 
L 129.986221 58.253593 
L 130.737358 58.229717 
L 131.488495 57.790668 
L 132.239632 57.207083 
L 133.741906 55.491727 
L 134.493043 54.898422 
L 135.244181 54.759439 
L 135.995318 54.938529 
L 136.746455 54.636487 
L 137.497592 53.917169 
L 138.248729 53.839758 
L 138.999866 53.314592 
L 139.751003 53.239349 
L 142.004415 54.791371 
L 142.755552 54.660282 
L 144.257826 53.976071 
L 145.008963 53.999893 
L 145.7601 54.253969 
L 147.262375 54.147046 
L 148.013512 54.296548 
L 148.764649 54.266752 
L 149.515786 54.085687 
L 150.266923 53.527393 
L 151.769197 54.135652 
L 152.520334 53.885416 
L 153.271472 53.411898 
L 154.022609 53.40279 
L 154.773746 53.245858 
L 155.524883 53.255147 
L 156.27602 53.526036 
L 157.027157 53.204961 
L 158.529431 53.103654 
L 159.280569 52.835043 
L 160.031706 52.360987 
L 161.53398 52.827213 
L 162.285117 52.808374 
L 163.787391 52.992494 
L 164.538528 52.622318 
L 165.289666 52.480048 
L 166.040803 52.065782 
L 166.79194 52.027632 
L 167.543077 52.101483 
L 168.294214 51.764428 
L 170.547625 51.266743 
L 171.298763 50.735927 
L 172.801037 49.925663 
L 173.552174 50.040126 
L 174.303311 49.967221 
L 175.054448 50.326035 
L 176.556722 50.089625 
L 177.30786 49.583872 
L 178.810134 49.683973 
L 179.561271 49.930453 
L 180.312408 49.533323 
L 181.063545 49.839822 
L 181.814682 49.2103 
L 182.565819 49.640033 
L 183.316957 49.159736 
L 184.068094 49.296337 
L 184.819231 49.816481 
L 185.570368 49.971767 
L 186.321505 49.697062 
L 187.072642 49.094026 
L 187.823779 48.980544 
L 188.574916 49.708092 
L 189.326054 49.409578 
L 190.077191 49.768563 
L 190.828328 49.016962 
L 191.579465 48.875408 
L 193.081739 48.012709 
L 193.832876 47.723022 
L 194.584013 47.848712 
L 195.335151 48.267298 
L 196.086288 48.236511 
L 196.837425 47.9444 
L 198.339699 47.880523 
L 199.090836 48.254687 
L 199.841973 48.29044 
L 200.59311 48.509613 
L 201.344247 48.046299 
L 202.095385 48.470008 
L 202.846522 49.035873 
L 203.597659 48.690023 
L 204.348796 48.597545 
L 205.099933 48.310401 
L 206.602207 48.187852 
L 208.104482 47.678149 
L 208.855619 47.688727 
L 209.606756 48.066182 
L 210.357893 47.830186 
L 211.10903 47.114489 
L 211.860167 47.453993 
L 212.611304 47.291417 
L 213.362441 47.334389 
L 214.113579 47.628418 
L 214.864716 47.542558 
L 215.615853 47.761524 
L 216.36699 47.658293 
L 217.869264 47.717134 
L 218.620401 48.201889 
L 219.371538 48.254058 
L 220.122676 47.973476 
L 220.873813 48.219947 
L 221.62495 47.948347 
L 223.127224 47.898063 
L 224.629498 48.48188 
L 226.131773 48.574428 
L 226.88291 48.37113 
L 227.634047 48.583529 
L 228.385184 48.38936 
L 229.136321 48.54538 
L 230.638595 48.286199 
L 231.389732 48.397406 
L 232.892007 47.772784 
L 235.145418 47.809798 
L 235.896555 47.342596 
L 237.398829 47.036513 
L 238.149967 47.351172 
L 239.652241 47.248671 
L 240.403378 47.423983 
L 241.154515 47.270606 
L 241.905652 46.631447 
L 242.656789 46.735949 
L 243.407926 46.52943 
L 244.159064 46.993502 
L 244.910201 47.318629 
L 248.665886 46.566974 
L 250.168161 47.335327 
L 250.919298 47.048875 
L 251.670435 47.084017 
L 253.172709 46.453435 
L 253.923846 46.446006 
L 254.674983 46.206776 
L 255.42612 46.414506 
L 256.177258 46.207784 
L 256.928395 45.846661 
L 257.679532 46.048797 
L 258.430669 45.553109 
L 259.181806 45.643342 
L 261.435217 45.059815 
L 262.186355 44.654302 
L 262.937492 44.880902 
L 263.688629 44.836216 
L 265.190903 45.263864 
L 265.94204 44.918002 
L 266.693177 45.178119 
L 267.444314 44.888554 
L 268.195452 44.922295 
L 268.946589 45.269354 
L 269.697726 45.46113 
L 270.448863 45.953846 
L 271.2 45.948196 
L 271.2 45.948196 
" style="fill:none;stroke:#55a868;stroke-linecap:round;stroke-width:1.75;"/>
   </g>
   <g id="patch_3">
    <path d="M 46.61 160.84 
L 46.61 32.4092 
" style="fill:none;"/>
   </g>
   <g id="patch_4">
    <path d="M 271.2 160.84 
L 271.2 32.4092 
" style="fill:none;"/>
   </g>
   <g id="patch_5">
    <path d="M 46.61 160.84 
L 271.2 160.84 
" style="fill:none;"/>
   </g>
   <g id="patch_6">
    <path d="M 46.61 32.4092 
L 271.2 32.4092 
" style="fill:none;"/>
   </g>
   <g id="legend_1">
    <g id="line2d_21">
     <path d="M 51.81 17.35449 
L 64.81 17.35449 
" style="fill:none;stroke:#4c72b0;stroke-linecap:round;stroke-width:1.75;"/>
    </g>
    <g id="line2d_22"/>
    <g id="text_13">
     <!-- sac-tf1 -->
     <defs>
      <path d="M 3.171875 21.484375 
L 3.171875 30.328125 
L 30.171875 30.328125 
L 30.171875 21.484375 
z
" id="ArialMT-45"/>
     </defs>
     <g style="fill:#262626;" transform="translate(75.21 21.90449)scale(0.13 -0.13)">
      <use xlink:href="#ArialMT-115"/>
      <use x="50" xlink:href="#ArialMT-97"/>
      <use x="105.615234" xlink:href="#ArialMT-99"/>
      <use x="155.615234" xlink:href="#ArialMT-45"/>
      <use x="188.916016" xlink:href="#ArialMT-116"/>
      <use x="216.699219" xlink:href="#ArialMT-102"/>
      <use x="244.482422" xlink:href="#ArialMT-49"/>
     </g>
    </g>
    <g id="line2d_23">
     <path d="M 175.414375 17.35449 
L 188.414375 17.35449 
" style="fill:none;stroke:#55a868;stroke-linecap:round;stroke-width:1.75;"/>
    </g>
    <g id="line2d_24"/>
    <g id="text_14">
     <!-- sac-pytorch -->
     <defs>
      <path d="M 6.59375 -19.875 
L 6.59375 51.859375 
L 14.59375 51.859375 
L 14.59375 45.125 
Q 17.4375 49.078125 21 51.046875 
Q 24.5625 53.03125 29.640625 53.03125 
Q 36.28125 53.03125 41.359375 49.609375 
Q 46.4375 46.1875 49.015625 39.953125 
Q 51.609375 33.734375 51.609375 26.3125 
Q 51.609375 18.359375 48.75 11.984375 
Q 45.90625 5.609375 40.453125 2.21875 
Q 35.015625 -1.171875 29 -1.171875 
Q 24.609375 -1.171875 21.109375 0.6875 
Q 17.625 2.546875 15.375 5.375 
L 15.375 -19.875 
z
M 14.546875 25.640625 
Q 14.546875 15.625 18.59375 10.84375 
Q 22.65625 6.0625 28.421875 6.0625 
Q 34.28125 6.0625 38.453125 11.015625 
Q 42.625 15.96875 42.625 26.375 
Q 42.625 36.28125 38.546875 41.203125 
Q 34.46875 46.140625 28.8125 46.140625 
Q 23.1875 46.140625 18.859375 40.890625 
Q 14.546875 35.640625 14.546875 25.640625 
z
" id="ArialMT-112"/>
      <path d="M 6.203125 -19.96875 
L 5.21875 -11.71875 
Q 8.109375 -12.5 10.25 -12.5 
Q 13.1875 -12.5 14.9375 -11.515625 
Q 16.703125 -10.546875 17.828125 -8.796875 
Q 18.65625 -7.46875 20.515625 -2.25 
Q 20.75 -1.515625 21.296875 -0.09375 
L 1.609375 51.859375 
L 11.078125 51.859375 
L 21.875 21.828125 
Q 23.96875 16.109375 25.640625 9.8125 
Q 27.15625 15.875 29.25 21.625 
L 40.328125 51.859375 
L 49.125 51.859375 
L 29.390625 -0.875 
Q 26.21875 -9.421875 24.46875 -12.640625 
Q 22.125 -17 19.09375 -19.015625 
Q 16.0625 -21.046875 11.859375 -21.046875 
Q 9.328125 -21.046875 6.203125 -19.96875 
z
" id="ArialMT-121"/>
      <path d="M 6.59375 0 
L 6.59375 71.578125 
L 15.375 71.578125 
L 15.375 45.90625 
Q 21.53125 53.03125 30.90625 53.03125 
Q 36.671875 53.03125 40.921875 50.75 
Q 45.171875 48.484375 47 44.484375 
Q 48.828125 40.484375 48.828125 32.859375 
L 48.828125 0 
L 40.046875 0 
L 40.046875 32.859375 
Q 40.046875 39.453125 37.1875 42.453125 
Q 34.328125 45.453125 29.109375 45.453125 
Q 25.203125 45.453125 21.75 43.421875 
Q 18.3125 41.40625 16.84375 37.9375 
Q 15.375 34.46875 15.375 28.375 
L 15.375 0 
z
" id="ArialMT-104"/>
     </defs>
     <g style="fill:#262626;" transform="translate(198.814375 21.90449)scale(0.13 -0.13)">
      <use xlink:href="#ArialMT-115"/>
      <use x="50" xlink:href="#ArialMT-97"/>
      <use x="105.615234" xlink:href="#ArialMT-99"/>
      <use x="155.615234" xlink:href="#ArialMT-45"/>
      <use x="188.916016" xlink:href="#ArialMT-112"/>
      <use x="244.53125" xlink:href="#ArialMT-121"/>
      <use x="294.53125" xlink:href="#ArialMT-116"/>
      <use x="322.314453" xlink:href="#ArialMT-111"/>
      <use x="377.929688" xlink:href="#ArialMT-114"/>
      <use x="411.230469" xlink:href="#ArialMT-99"/>
      <use x="461.230469" xlink:href="#ArialMT-104"/>
     </g>
    </g>
   </g>
  </g>
 </g>
 <defs>
  <clipPath id="pd7726b14da">
   <rect height="128.4308" width="224.59" x="46.61" y="32.4092"/>
  </clipPath>
 </defs>
</svg>
