<?xml version="1.0" encoding="utf-8" standalone="no"?>
<!DOCTYPE svg PUBLIC "-//W3C//DTD SVG 1.1//EN"
  "http://www.w3.org/Graphics/SVG/1.1/DTD/svg11.dtd">
<!-- Created with matplotlib (https://matplotlib.org/) -->
<svg height="198pt" version="1.1" viewBox="0 0 277.2 198" width="277.2pt" xmlns="http://www.w3.org/2000/svg" xmlns:xlink="http://www.w3.org/1999/xlink">
 <defs>
  <style type="text/css">
*{stroke-linecap:butt;stroke-linejoin:round;}
  </style>
 </defs>
 <g id="figure_1">
  <g id="patch_1">
   <path d="M 0 198 
L 277.2 198 
L 277.2 0 
L 0 0 
z
" style="fill:#ffffff;"/>
  </g>
  <g id="axes_1">
   <g id="patch_2">
    <path d="M 54.98 160.84 
L 271.2 160.84 
L 271.2 32.4092 
L 54.98 32.4092 
z
" style="fill:#eaeaf2;"/>
   </g>
   <g id="matplotlib.axis_1">
    <g id="xtick_1">
     <g id="line2d_1">
      <path clip-path="url(#p2fcc8fd7bc)" d="M 90.414119 160.84 
L 90.414119 32.4092 
" style="fill:none;stroke:#ffffff;stroke-linecap:round;"/>
     </g>
     <g id="line2d_2"/>
     <g id="text_1">
      <!-- 0.5 -->
      <defs>
       <path d="M 4.15625 35.296875 
Q 4.15625 48 6.765625 55.734375 
Q 9.375 63.484375 14.515625 67.671875 
Q 19.671875 71.875 27.484375 71.875 
Q 33.25 71.875 37.59375 69.546875 
Q 41.9375 67.234375 44.765625 62.859375 
Q 47.609375 58.5 49.21875 52.21875 
Q 50.828125 45.953125 50.828125 35.296875 
Q 50.828125 22.703125 48.234375 14.96875 
Q 45.65625 7.234375 40.5 3 
Q 35.359375 -1.21875 27.484375 -1.21875 
Q 17.140625 -1.21875 11.234375 6.203125 
Q 4.15625 15.140625 4.15625 35.296875 
z
M 13.1875 35.296875 
Q 13.1875 17.671875 17.3125 11.828125 
Q 21.4375 6 27.484375 6 
Q 33.546875 6 37.671875 11.859375 
Q 41.796875 17.71875 41.796875 35.296875 
Q 41.796875 52.984375 37.671875 58.78125 
Q 33.546875 64.59375 27.390625 64.59375 
Q 21.34375 64.59375 17.71875 59.46875 
Q 13.1875 52.9375 13.1875 35.296875 
z
" id="ArialMT-48"/>
       <path d="M 9.078125 0 
L 9.078125 10.015625 
L 19.09375 10.015625 
L 19.09375 0 
z
" id="ArialMT-46"/>
       <path d="M 4.15625 18.75 
L 13.375 19.53125 
Q 14.40625 12.796875 18.140625 9.390625 
Q 21.875 6 27.15625 6 
Q 33.5 6 37.890625 10.78125 
Q 42.28125 15.578125 42.28125 23.484375 
Q 42.28125 31 38.0625 35.34375 
Q 33.84375 39.703125 27 39.703125 
Q 22.75 39.703125 19.328125 37.765625 
Q 15.921875 35.84375 13.96875 32.765625 
L 5.71875 33.84375 
L 12.640625 70.609375 
L 48.25 70.609375 
L 48.25 62.203125 
L 19.671875 62.203125 
L 15.828125 42.96875 
Q 22.265625 47.46875 29.34375 47.46875 
Q 38.71875 47.46875 45.15625 40.96875 
Q 51.609375 34.46875 51.609375 24.265625 
Q 51.609375 14.546875 45.953125 7.46875 
Q 39.0625 -1.21875 27.15625 -1.21875 
Q 17.390625 -1.21875 11.203125 4.25 
Q 5.03125 9.71875 4.15625 18.75 
z
" id="ArialMT-53"/>
      </defs>
      <g style="fill:#262626;" transform="translate(83.464119 174.997813)scale(0.1 -0.1)">
       <use xlink:href="#ArialMT-48"/>
       <use x="55.615234" xlink:href="#ArialMT-46"/>
       <use x="83.398438" xlink:href="#ArialMT-53"/>
      </g>
     </g>
    </g>
    <g id="xtick_2">
     <g id="line2d_3">
      <path clip-path="url(#p2fcc8fd7bc)" d="M 126.57131 160.84 
L 126.57131 32.4092 
" style="fill:none;stroke:#ffffff;stroke-linecap:round;"/>
     </g>
     <g id="line2d_4"/>
     <g id="text_2">
      <!-- 1.0 -->
      <defs>
       <path d="M 37.25 0 
L 28.46875 0 
L 28.46875 56 
Q 25.296875 52.984375 20.140625 49.953125 
Q 14.984375 46.921875 10.890625 45.40625 
L 10.890625 53.90625 
Q 18.265625 57.375 23.78125 62.296875 
Q 29.296875 67.234375 31.59375 71.875 
L 37.25 71.875 
z
" id="ArialMT-49"/>
      </defs>
      <g style="fill:#262626;" transform="translate(119.62131 174.997813)scale(0.1 -0.1)">
       <use xlink:href="#ArialMT-49"/>
       <use x="55.615234" xlink:href="#ArialMT-46"/>
       <use x="83.398438" xlink:href="#ArialMT-48"/>
      </g>
     </g>
    </g>
    <g id="xtick_3">
     <g id="line2d_5">
      <path clip-path="url(#p2fcc8fd7bc)" d="M 162.7285 160.84 
L 162.7285 32.4092 
" style="fill:none;stroke:#ffffff;stroke-linecap:round;"/>
     </g>
     <g id="line2d_6"/>
     <g id="text_3">
      <!-- 1.5 -->
      <g style="fill:#262626;" transform="translate(155.7785 174.997813)scale(0.1 -0.1)">
       <use xlink:href="#ArialMT-49"/>
       <use x="55.615234" xlink:href="#ArialMT-46"/>
       <use x="83.398438" xlink:href="#ArialMT-53"/>
      </g>
     </g>
    </g>
    <g id="xtick_4">
     <g id="line2d_7">
      <path clip-path="url(#p2fcc8fd7bc)" d="M 198.885691 160.84 
L 198.885691 32.4092 
" style="fill:none;stroke:#ffffff;stroke-linecap:round;"/>
     </g>
     <g id="line2d_8"/>
     <g id="text_4">
      <!-- 2.0 -->
      <defs>
       <path d="M 50.34375 8.453125 
L 50.34375 0 
L 3.03125 0 
Q 2.9375 3.171875 4.046875 6.109375 
Q 5.859375 10.9375 9.828125 15.625 
Q 13.8125 20.3125 21.34375 26.46875 
Q 33.015625 36.03125 37.109375 41.625 
Q 41.21875 47.21875 41.21875 52.203125 
Q 41.21875 57.421875 37.46875 61 
Q 33.734375 64.59375 27.734375 64.59375 
Q 21.390625 64.59375 17.578125 60.78125 
Q 13.765625 56.984375 13.71875 50.25 
L 4.6875 51.171875 
Q 5.609375 61.28125 11.65625 66.578125 
Q 17.71875 71.875 27.9375 71.875 
Q 38.234375 71.875 44.234375 66.15625 
Q 50.25 60.453125 50.25 52 
Q 50.25 47.703125 48.484375 43.546875 
Q 46.734375 39.40625 42.65625 34.8125 
Q 38.578125 30.21875 29.109375 22.21875 
Q 21.1875 15.578125 18.9375 13.203125 
Q 16.703125 10.84375 15.234375 8.453125 
z
" id="ArialMT-50"/>
      </defs>
      <g style="fill:#262626;" transform="translate(191.935691 174.997813)scale(0.1 -0.1)">
       <use xlink:href="#ArialMT-50"/>
       <use x="55.615234" xlink:href="#ArialMT-46"/>
       <use x="83.398438" xlink:href="#ArialMT-48"/>
      </g>
     </g>
    </g>
    <g id="xtick_5">
     <g id="line2d_9">
      <path clip-path="url(#p2fcc8fd7bc)" d="M 235.042882 160.84 
L 235.042882 32.4092 
" style="fill:none;stroke:#ffffff;stroke-linecap:round;"/>
     </g>
     <g id="line2d_10"/>
     <g id="text_5">
      <!-- 2.5 -->
      <g style="fill:#262626;" transform="translate(228.092882 174.997813)scale(0.1 -0.1)">
       <use xlink:href="#ArialMT-50"/>
       <use x="55.615234" xlink:href="#ArialMT-46"/>
       <use x="83.398438" xlink:href="#ArialMT-53"/>
      </g>
     </g>
    </g>
    <g id="text_6">
     <!-- TotalEnvInteracts -->
     <defs>
      <path d="M 25.921875 0 
L 25.921875 63.140625 
L 2.34375 63.140625 
L 2.34375 71.578125 
L 59.078125 71.578125 
L 59.078125 63.140625 
L 35.40625 63.140625 
L 35.40625 0 
z
" id="ArialMT-84"/>
      <path d="M 3.328125 25.921875 
Q 3.328125 40.328125 11.328125 47.265625 
Q 18.015625 53.03125 27.640625 53.03125 
Q 38.328125 53.03125 45.109375 46.015625 
Q 51.90625 39.015625 51.90625 26.65625 
Q 51.90625 16.65625 48.90625 10.90625 
Q 45.90625 5.171875 40.15625 2 
Q 34.421875 -1.171875 27.640625 -1.171875 
Q 16.75 -1.171875 10.03125 5.8125 
Q 3.328125 12.796875 3.328125 25.921875 
z
M 12.359375 25.921875 
Q 12.359375 15.96875 16.703125 11.015625 
Q 21.046875 6.0625 27.640625 6.0625 
Q 34.1875 6.0625 38.53125 11.03125 
Q 42.875 16.015625 42.875 26.21875 
Q 42.875 35.84375 38.5 40.796875 
Q 34.125 45.75 27.640625 45.75 
Q 21.046875 45.75 16.703125 40.8125 
Q 12.359375 35.890625 12.359375 25.921875 
z
" id="ArialMT-111"/>
      <path d="M 25.78125 7.859375 
L 27.046875 0.09375 
Q 23.34375 -0.6875 20.40625 -0.6875 
Q 15.625 -0.6875 12.984375 0.828125 
Q 10.359375 2.34375 9.28125 4.8125 
Q 8.203125 7.28125 8.203125 15.1875 
L 8.203125 45.015625 
L 1.765625 45.015625 
L 1.765625 51.859375 
L 8.203125 51.859375 
L 8.203125 64.703125 
L 16.9375 69.96875 
L 16.9375 51.859375 
L 25.78125 51.859375 
L 25.78125 45.015625 
L 16.9375 45.015625 
L 16.9375 14.703125 
Q 16.9375 10.9375 17.40625 9.859375 
Q 17.875 8.796875 18.921875 8.15625 
Q 19.96875 7.515625 21.921875 7.515625 
Q 23.390625 7.515625 25.78125 7.859375 
z
" id="ArialMT-116"/>
      <path d="M 40.4375 6.390625 
Q 35.546875 2.25 31.03125 0.53125 
Q 26.515625 -1.171875 21.34375 -1.171875 
Q 12.796875 -1.171875 8.203125 3 
Q 3.609375 7.171875 3.609375 13.671875 
Q 3.609375 17.484375 5.34375 20.625 
Q 7.078125 23.78125 9.890625 25.6875 
Q 12.703125 27.59375 16.21875 28.5625 
Q 18.796875 29.25 24.03125 29.890625 
Q 34.671875 31.15625 39.703125 32.90625 
Q 39.75 34.71875 39.75 35.203125 
Q 39.75 40.578125 37.25 42.78125 
Q 33.890625 45.75 27.25 45.75 
Q 21.046875 45.75 18.09375 43.578125 
Q 15.140625 41.40625 13.71875 35.890625 
L 5.125 37.0625 
Q 6.296875 42.578125 8.984375 45.96875 
Q 11.671875 49.359375 16.75 51.1875 
Q 21.828125 53.03125 28.515625 53.03125 
Q 35.15625 53.03125 39.296875 51.46875 
Q 43.453125 49.90625 45.40625 47.53125 
Q 47.359375 45.171875 48.140625 41.546875 
Q 48.578125 39.3125 48.578125 33.453125 
L 48.578125 21.734375 
Q 48.578125 9.46875 49.140625 6.21875 
Q 49.703125 2.984375 51.375 0 
L 42.1875 0 
Q 40.828125 2.734375 40.4375 6.390625 
z
M 39.703125 26.03125 
Q 34.90625 24.078125 25.34375 22.703125 
Q 19.921875 21.921875 17.671875 20.9375 
Q 15.4375 19.96875 14.203125 18.09375 
Q 12.984375 16.21875 12.984375 13.921875 
Q 12.984375 10.40625 15.640625 8.0625 
Q 18.3125 5.71875 23.4375 5.71875 
Q 28.515625 5.71875 32.46875 7.9375 
Q 36.421875 10.15625 38.28125 14.015625 
Q 39.703125 17 39.703125 22.796875 
z
" id="ArialMT-97"/>
      <path d="M 6.390625 0 
L 6.390625 71.578125 
L 15.1875 71.578125 
L 15.1875 0 
z
" id="ArialMT-108"/>
      <path d="M 7.90625 0 
L 7.90625 71.578125 
L 59.671875 71.578125 
L 59.671875 63.140625 
L 17.390625 63.140625 
L 17.390625 41.21875 
L 56.984375 41.21875 
L 56.984375 32.8125 
L 17.390625 32.8125 
L 17.390625 8.453125 
L 61.328125 8.453125 
L 61.328125 0 
z
" id="ArialMT-69"/>
      <path d="M 6.59375 0 
L 6.59375 51.859375 
L 14.5 51.859375 
L 14.5 44.484375 
Q 20.21875 53.03125 31 53.03125 
Q 35.6875 53.03125 39.625 51.34375 
Q 43.5625 49.65625 45.515625 46.921875 
Q 47.46875 44.1875 48.25 40.4375 
Q 48.734375 37.984375 48.734375 31.890625 
L 48.734375 0 
L 39.9375 0 
L 39.9375 31.546875 
Q 39.9375 36.921875 38.90625 39.578125 
Q 37.890625 42.234375 35.28125 43.8125 
Q 32.671875 45.40625 29.15625 45.40625 
Q 23.53125 45.40625 19.453125 41.84375 
Q 15.375 38.28125 15.375 28.328125 
L 15.375 0 
z
" id="ArialMT-110"/>
      <path d="M 21 0 
L 1.265625 51.859375 
L 10.546875 51.859375 
L 21.6875 20.796875 
Q 23.484375 15.765625 25 10.359375 
Q 26.171875 14.453125 28.265625 20.21875 
L 39.796875 51.859375 
L 48.828125 51.859375 
L 29.203125 0 
z
" id="ArialMT-118"/>
      <path d="M 9.328125 0 
L 9.328125 71.578125 
L 18.796875 71.578125 
L 18.796875 0 
z
" id="ArialMT-73"/>
      <path d="M 42.09375 16.703125 
L 51.171875 15.578125 
Q 49.03125 7.625 43.21875 3.21875 
Q 37.40625 -1.171875 28.375 -1.171875 
Q 17 -1.171875 10.328125 5.828125 
Q 3.65625 12.84375 3.65625 25.484375 
Q 3.65625 38.578125 10.390625 45.796875 
Q 17.140625 53.03125 27.875 53.03125 
Q 38.28125 53.03125 44.875 45.953125 
Q 51.46875 38.875 51.46875 26.03125 
Q 51.46875 25.25 51.421875 23.6875 
L 12.75 23.6875 
Q 13.234375 15.140625 17.578125 10.59375 
Q 21.921875 6.0625 28.421875 6.0625 
Q 33.25 6.0625 36.671875 8.59375 
Q 40.09375 11.140625 42.09375 16.703125 
z
M 13.234375 30.90625 
L 42.1875 30.90625 
Q 41.609375 37.453125 38.875 40.71875 
Q 34.671875 45.796875 27.984375 45.796875 
Q 21.921875 45.796875 17.796875 41.75 
Q 13.671875 37.703125 13.234375 30.90625 
z
" id="ArialMT-101"/>
      <path d="M 6.5 0 
L 6.5 51.859375 
L 14.40625 51.859375 
L 14.40625 44 
Q 17.4375 49.515625 20 51.265625 
Q 22.5625 53.03125 25.640625 53.03125 
Q 30.078125 53.03125 34.671875 50.203125 
L 31.640625 42.046875 
Q 28.421875 43.953125 25.203125 43.953125 
Q 22.3125 43.953125 20.015625 42.21875 
Q 17.71875 40.484375 16.75 37.40625 
Q 15.28125 32.71875 15.28125 27.15625 
L 15.28125 0 
z
" id="ArialMT-114"/>
      <path d="M 40.4375 19 
L 49.078125 17.875 
Q 47.65625 8.9375 41.8125 3.875 
Q 35.984375 -1.171875 27.484375 -1.171875 
Q 16.84375 -1.171875 10.375 5.78125 
Q 3.90625 12.75 3.90625 25.734375 
Q 3.90625 34.125 6.6875 40.421875 
Q 9.46875 46.734375 15.15625 49.875 
Q 20.84375 53.03125 27.546875 53.03125 
Q 35.984375 53.03125 41.359375 48.75 
Q 46.734375 44.484375 48.25 36.625 
L 39.703125 35.296875 
Q 38.484375 40.53125 35.375 43.15625 
Q 32.28125 45.796875 27.875 45.796875 
Q 21.234375 45.796875 17.078125 41.03125 
Q 12.9375 36.28125 12.9375 25.984375 
Q 12.9375 15.53125 16.9375 10.796875 
Q 20.953125 6.0625 27.390625 6.0625 
Q 32.5625 6.0625 36.03125 9.234375 
Q 39.5 12.40625 40.4375 19 
z
" id="ArialMT-99"/>
      <path d="M 3.078125 15.484375 
L 11.765625 16.84375 
Q 12.5 11.625 15.84375 8.84375 
Q 19.1875 6.0625 25.203125 6.0625 
Q 31.25 6.0625 34.171875 8.515625 
Q 37.109375 10.984375 37.109375 14.3125 
Q 37.109375 17.28125 34.515625 19 
Q 32.71875 20.171875 25.53125 21.96875 
Q 15.875 24.421875 12.140625 26.203125 
Q 8.40625 27.984375 6.46875 31.125 
Q 4.546875 34.28125 4.546875 38.09375 
Q 4.546875 41.546875 6.125 44.5 
Q 7.71875 47.46875 10.453125 49.421875 
Q 12.5 50.921875 16.03125 51.96875 
Q 19.578125 53.03125 23.640625 53.03125 
Q 29.734375 53.03125 34.34375 51.265625 
Q 38.96875 49.515625 41.15625 46.5 
Q 43.359375 43.5 44.1875 38.484375 
L 35.59375 37.3125 
Q 35.015625 41.3125 32.203125 43.546875 
Q 29.390625 45.796875 24.265625 45.796875 
Q 18.21875 45.796875 15.625 43.796875 
Q 13.03125 41.796875 13.03125 39.109375 
Q 13.03125 37.40625 14.109375 36.03125 
Q 15.1875 34.625 17.484375 33.6875 
Q 18.796875 33.203125 25.25 31.453125 
Q 34.578125 28.953125 38.25 27.359375 
Q 41.9375 25.78125 44.03125 22.75 
Q 46.140625 19.734375 46.140625 15.234375 
Q 46.140625 10.84375 43.578125 6.953125 
Q 41.015625 3.078125 36.171875 0.953125 
Q 31.34375 -1.171875 25.25 -1.171875 
Q 15.140625 -1.171875 9.84375 3.03125 
Q 4.546875 7.234375 3.078125 15.484375 
z
" id="ArialMT-115"/>
     </defs>
     <g style="fill:#262626;" transform="translate(120.305156 188.858906)scale(0.11 -0.11)">
      <use xlink:href="#ArialMT-84"/>
      <use x="60.912109" xlink:href="#ArialMT-111"/>
      <use x="116.527344" xlink:href="#ArialMT-116"/>
      <use x="144.310547" xlink:href="#ArialMT-97"/>
      <use x="199.925781" xlink:href="#ArialMT-108"/>
      <use x="222.142578" xlink:href="#ArialMT-69"/>
      <use x="288.841797" xlink:href="#ArialMT-110"/>
      <use x="344.457031" xlink:href="#ArialMT-118"/>
      <use x="394.457031" xlink:href="#ArialMT-73"/>
      <use x="422.240234" xlink:href="#ArialMT-110"/>
      <use x="477.855469" xlink:href="#ArialMT-116"/>
      <use x="505.638672" xlink:href="#ArialMT-101"/>
      <use x="561.253906" xlink:href="#ArialMT-114"/>
      <use x="594.554688" xlink:href="#ArialMT-97"/>
      <use x="650.169922" xlink:href="#ArialMT-99"/>
      <use x="700.169922" xlink:href="#ArialMT-116"/>
      <use x="727.953125" xlink:href="#ArialMT-115"/>
     </g>
    </g>
    <g id="text_7">
     <!-- 1e6 -->
     <defs>
      <path d="M 49.75 54.046875 
L 41.015625 53.375 
Q 39.84375 58.546875 37.703125 60.890625 
Q 34.125 64.65625 28.90625 64.65625 
Q 24.703125 64.65625 21.53125 62.3125 
Q 17.390625 59.28125 14.984375 53.46875 
Q 12.59375 47.65625 12.5 36.921875 
Q 15.671875 41.75 20.265625 44.09375 
Q 24.859375 46.4375 29.890625 46.4375 
Q 38.671875 46.4375 44.84375 39.96875 
Q 51.03125 33.5 51.03125 23.25 
Q 51.03125 16.5 48.125 10.71875 
Q 45.21875 4.9375 40.140625 1.859375 
Q 35.0625 -1.21875 28.609375 -1.21875 
Q 17.625 -1.21875 10.6875 6.859375 
Q 3.765625 14.9375 3.765625 33.5 
Q 3.765625 54.25 11.421875 63.671875 
Q 18.109375 71.875 29.4375 71.875 
Q 37.890625 71.875 43.28125 67.140625 
Q 48.6875 62.40625 49.75 54.046875 
z
M 13.875 23.1875 
Q 13.875 18.65625 15.796875 14.5 
Q 17.71875 10.359375 21.1875 8.171875 
Q 24.65625 6 28.46875 6 
Q 34.03125 6 38.03125 10.484375 
Q 42.046875 14.984375 42.046875 22.703125 
Q 42.046875 30.125 38.078125 34.390625 
Q 34.125 38.671875 28.125 38.671875 
Q 22.171875 38.671875 18.015625 34.390625 
Q 13.875 30.125 13.875 23.1875 
z
" id="ArialMT-54"/>
     </defs>
     <g style="fill:#262626;" transform="translate(254.517187 187.143125)scale(0.1 -0.1)">
      <use xlink:href="#ArialMT-49"/>
      <use x="55.615234" xlink:href="#ArialMT-101"/>
      <use x="111.230469" xlink:href="#ArialMT-54"/>
     </g>
    </g>
   </g>
   <g id="matplotlib.axis_2">
    <g id="ytick_1">
     <g id="line2d_11">
      <path clip-path="url(#p2fcc8fd7bc)" d="M 54.98 156.48133 
L 271.2 156.48133 
" style="fill:none;stroke:#ffffff;stroke-linecap:round;"/>
     </g>
     <g id="line2d_12"/>
     <g id="text_8">
      <!-- 2500 -->
      <g style="fill:#262626;" transform="translate(25.73625 160.060236)scale(0.1 -0.1)">
       <use xlink:href="#ArialMT-50"/>
       <use x="55.615234" xlink:href="#ArialMT-53"/>
       <use x="111.230469" xlink:href="#ArialMT-48"/>
       <use x="166.845703" xlink:href="#ArialMT-48"/>
      </g>
     </g>
    </g>
    <g id="ytick_2">
     <g id="line2d_13">
      <path clip-path="url(#p2fcc8fd7bc)" d="M 54.98 132.746992 
L 271.2 132.746992 
" style="fill:none;stroke:#ffffff;stroke-linecap:round;"/>
     </g>
     <g id="line2d_14"/>
     <g id="text_9">
      <!-- 5000 -->
      <g style="fill:#262626;" transform="translate(25.73625 136.325899)scale(0.1 -0.1)">
       <use xlink:href="#ArialMT-53"/>
       <use x="55.615234" xlink:href="#ArialMT-48"/>
       <use x="111.230469" xlink:href="#ArialMT-48"/>
       <use x="166.845703" xlink:href="#ArialMT-48"/>
      </g>
     </g>
    </g>
    <g id="ytick_3">
     <g id="line2d_15">
      <path clip-path="url(#p2fcc8fd7bc)" d="M 54.98 109.012655 
L 271.2 109.012655 
" style="fill:none;stroke:#ffffff;stroke-linecap:round;"/>
     </g>
     <g id="line2d_16"/>
     <g id="text_10">
      <!-- 7500 -->
      <defs>
       <path d="M 4.734375 62.203125 
L 4.734375 70.65625 
L 51.078125 70.65625 
L 51.078125 63.8125 
Q 44.234375 56.546875 37.515625 44.484375 
Q 30.8125 32.421875 27.15625 19.671875 
Q 24.515625 10.6875 23.78125 0 
L 14.75 0 
Q 14.890625 8.453125 18.0625 20.40625 
Q 21.234375 32.375 27.171875 43.484375 
Q 33.109375 54.59375 39.796875 62.203125 
z
" id="ArialMT-55"/>
      </defs>
      <g style="fill:#262626;" transform="translate(25.73625 112.591561)scale(0.1 -0.1)">
       <use xlink:href="#ArialMT-55"/>
       <use x="55.615234" xlink:href="#ArialMT-53"/>
       <use x="111.230469" xlink:href="#ArialMT-48"/>
       <use x="166.845703" xlink:href="#ArialMT-48"/>
      </g>
     </g>
    </g>
    <g id="ytick_4">
     <g id="line2d_17">
      <path clip-path="url(#p2fcc8fd7bc)" d="M 54.98 85.278318 
L 271.2 85.278318 
" style="fill:none;stroke:#ffffff;stroke-linecap:round;"/>
     </g>
     <g id="line2d_18"/>
     <g id="text_11">
      <!-- 10000 -->
      <g style="fill:#262626;" transform="translate(20.175312 88.857224)scale(0.1 -0.1)">
       <use xlink:href="#ArialMT-49"/>
       <use x="55.615234" xlink:href="#ArialMT-48"/>
       <use x="111.230469" xlink:href="#ArialMT-48"/>
       <use x="166.845703" xlink:href="#ArialMT-48"/>
       <use x="222.460938" xlink:href="#ArialMT-48"/>
      </g>
     </g>
    </g>
    <g id="ytick_5">
     <g id="line2d_19">
      <path clip-path="url(#p2fcc8fd7bc)" d="M 54.98 61.54398 
L 271.2 61.54398 
" style="fill:none;stroke:#ffffff;stroke-linecap:round;"/>
     </g>
     <g id="line2d_20"/>
     <g id="text_12">
      <!-- 12500 -->
      <g style="fill:#262626;" transform="translate(20.175312 65.122886)scale(0.1 -0.1)">
       <use xlink:href="#ArialMT-49"/>
       <use x="55.615234" xlink:href="#ArialMT-50"/>
       <use x="111.230469" xlink:href="#ArialMT-53"/>
       <use x="166.845703" xlink:href="#ArialMT-48"/>
       <use x="222.460938" xlink:href="#ArialMT-48"/>
      </g>
     </g>
    </g>
    <g id="ytick_6">
     <g id="line2d_21">
      <path clip-path="url(#p2fcc8fd7bc)" d="M 54.98 37.809643 
L 271.2 37.809643 
" style="fill:none;stroke:#ffffff;stroke-linecap:round;"/>
     </g>
     <g id="line2d_22"/>
     <g id="text_13">
      <!-- 15000 -->
      <g style="fill:#262626;" transform="translate(20.175312 41.388549)scale(0.1 -0.1)">
       <use xlink:href="#ArialMT-49"/>
       <use x="55.615234" xlink:href="#ArialMT-53"/>
       <use x="111.230469" xlink:href="#ArialMT-48"/>
       <use x="166.845703" xlink:href="#ArialMT-48"/>
       <use x="222.460938" xlink:href="#ArialMT-48"/>
      </g>
     </g>
    </g>
    <g id="text_14">
     <!-- Performance -->
     <defs>
      <path d="M 7.71875 0 
L 7.71875 71.578125 
L 34.71875 71.578125 
Q 41.84375 71.578125 45.609375 70.90625 
Q 50.875 70.015625 54.4375 67.546875 
Q 58.015625 65.09375 60.1875 60.640625 
Q 62.359375 56.203125 62.359375 50.875 
Q 62.359375 41.75 56.546875 35.421875 
Q 50.734375 29.109375 35.546875 29.109375 
L 17.1875 29.109375 
L 17.1875 0 
z
M 17.1875 37.546875 
L 35.6875 37.546875 
Q 44.875 37.546875 48.734375 40.96875 
Q 52.59375 44.390625 52.59375 50.59375 
Q 52.59375 55.078125 50.3125 58.265625 
Q 48.046875 61.46875 44.34375 62.5 
Q 41.9375 63.140625 35.5 63.140625 
L 17.1875 63.140625 
z
" id="ArialMT-80"/>
      <path d="M 8.6875 0 
L 8.6875 45.015625 
L 0.921875 45.015625 
L 0.921875 51.859375 
L 8.6875 51.859375 
L 8.6875 57.375 
Q 8.6875 62.59375 9.625 65.140625 
Q 10.890625 68.5625 14.078125 70.671875 
Q 17.28125 72.796875 23.046875 72.796875 
Q 26.765625 72.796875 31.25 71.921875 
L 29.9375 64.265625 
Q 27.203125 64.75 24.75 64.75 
Q 20.75 64.75 19.09375 63.03125 
Q 17.4375 61.328125 17.4375 56.640625 
L 17.4375 51.859375 
L 27.546875 51.859375 
L 27.546875 45.015625 
L 17.4375 45.015625 
L 17.4375 0 
z
" id="ArialMT-102"/>
      <path d="M 6.59375 0 
L 6.59375 51.859375 
L 14.453125 51.859375 
L 14.453125 44.578125 
Q 16.890625 48.390625 20.9375 50.703125 
Q 25 53.03125 30.171875 53.03125 
Q 35.9375 53.03125 39.625 50.640625 
Q 43.3125 48.25 44.828125 43.953125 
Q 50.984375 53.03125 60.84375 53.03125 
Q 68.5625 53.03125 72.703125 48.75 
Q 76.859375 44.484375 76.859375 35.59375 
L 76.859375 0 
L 68.109375 0 
L 68.109375 32.671875 
Q 68.109375 37.9375 67.25 40.25 
Q 66.40625 42.578125 64.15625 43.984375 
Q 61.921875 45.40625 58.890625 45.40625 
Q 53.421875 45.40625 49.796875 41.765625 
Q 46.1875 38.140625 46.1875 30.125 
L 46.1875 0 
L 37.40625 0 
L 37.40625 33.6875 
Q 37.40625 39.546875 35.25 42.46875 
Q 33.109375 45.40625 28.21875 45.40625 
Q 24.515625 45.40625 21.359375 43.453125 
Q 18.21875 41.5 16.796875 37.734375 
Q 15.375 33.984375 15.375 26.90625 
L 15.375 0 
z
" id="ArialMT-109"/>
     </defs>
     <g style="fill:#262626;" transform="translate(13.989062 128.107803)rotate(-90)scale(0.11 -0.11)">
      <use xlink:href="#ArialMT-80"/>
      <use x="66.699219" xlink:href="#ArialMT-101"/>
      <use x="122.314453" xlink:href="#ArialMT-114"/>
      <use x="155.615234" xlink:href="#ArialMT-102"/>
      <use x="183.398438" xlink:href="#ArialMT-111"/>
      <use x="239.013672" xlink:href="#ArialMT-114"/>
      <use x="272.314453" xlink:href="#ArialMT-109"/>
      <use x="355.615234" xlink:href="#ArialMT-97"/>
      <use x="411.230469" xlink:href="#ArialMT-110"/>
      <use x="466.845703" xlink:href="#ArialMT-99"/>
      <use x="516.845703" xlink:href="#ArialMT-101"/>
     </g>
    </g>
   </g>
   <g id="PolyCollection_1">
    <path clip-path="url(#p2fcc8fd7bc)" d="M 54.98 147.703679 
L 54.98 150.60585 
L 55.703144 147.322839 
L 56.426288 144.630484 
L 57.149431 142.441722 
L 57.872575 140.585506 
L 58.595719 138.881981 
L 59.318863 133.242602 
L 60.042007 129.676045 
L 60.765151 127.138374 
L 61.488294 125.338354 
L 62.211438 123.633483 
L 62.934582 122.322526 
L 63.657726 120.94063 
L 64.38087 119.825311 
L 65.104013 118.668259 
L 65.827157 117.700388 
L 66.550301 116.562608 
L 67.273445 115.646127 
L 67.996589 114.505102 
L 68.719732 113.492269 
L 69.442876 112.729516 
L 70.16602 111.698641 
L 70.889164 110.559995 
L 71.612308 109.414496 
L 72.335452 108.241613 
L 73.058595 107.417039 
L 73.781739 106.206726 
L 74.504883 105.213483 
L 75.228027 104.22247 
L 75.951171 103.234185 
L 76.674314 102.253973 
L 77.397458 100.950002 
L 78.120602 100.235057 
L 78.843746 99.289731 
L 79.56689 98.455385 
L 80.290033 97.727922 
L 81.013177 96.612902 
L 81.736321 95.831947 
L 82.459465 95.28262 
L 83.182609 94.419788 
L 83.905753 93.841463 
L 84.628896 93.226141 
L 85.35204 92.450109 
L 86.075184 91.524523 
L 86.798328 91.121841 
L 87.521472 90.643196 
L 88.244615 90.192204 
L 88.967759 89.701714 
L 89.690903 89.189808 
L 90.414047 88.706116 
L 91.137191 88.231434 
L 91.860334 87.576922 
L 92.583478 87.352451 
L 93.306622 86.739611 
L 94.029766 86.07693 
L 94.75291 85.424699 
L 95.476054 85.143032 
L 96.199197 84.439678 
L 96.922341 84.06032 
L 97.645485 83.688174 
L 98.368629 83.66813 
L 99.091773 83.241694 
L 99.814916 83.239562 
L 100.53806 82.668938 
L 101.261204 82.59386 
L 101.984348 82.571892 
L 102.707492 82.320213 
L 103.430635 81.876009 
L 104.153779 81.680712 
L 104.876923 81.260947 
L 105.600067 81.038755 
L 106.323211 80.29829 
L 107.046355 80.170483 
L 107.769498 79.674246 
L 108.492642 79.198602 
L 109.215786 78.748597 
L 109.93893 78.150823 
L 110.662074 77.872762 
L 111.385217 77.504349 
L 112.108361 77.191786 
L 112.831505 77.115238 
L 113.554649 76.94646 
L 114.277793 76.756477 
L 115.000936 76.299795 
L 115.72408 75.926225 
L 116.447224 75.664732 
L 117.170368 75.357191 
L 117.893512 75.291602 
L 118.616656 74.9631 
L 119.339799 74.875468 
L 120.062943 74.678276 
L 120.786087 74.313799 
L 121.509231 74.014614 
L 122.232375 74.20337 
L 122.955518 73.919558 
L 123.678662 73.759703 
L 124.401806 73.675363 
L 125.12495 73.487636 
L 125.848094 73.058547 
L 126.571237 73.184743 
L 127.294381 73.957563 
L 128.017525 73.72833 
L 128.740669 73.548342 
L 129.463813 73.181022 
L 130.186957 72.642987 
L 130.9101 72.66623 
L 131.633244 72.43877 
L 132.356388 72.64648 
L 133.079532 72.738463 
L 133.802676 72.987413 
L 134.525819 72.648965 
L 135.248963 71.382418 
L 135.972107 71.539855 
L 136.695251 71.267053 
L 137.418395 71.337231 
L 138.141538 71.0799 
L 138.864682 70.900072 
L 139.587826 70.839586 
L 140.31097 70.38583 
L 141.034114 70.03154 
L 141.757258 69.635941 
L 142.480401 69.622334 
L 143.203545 69.475874 
L 143.926689 69.404026 
L 144.649833 69.46202 
L 145.372977 69.185299 
L 146.09612 68.949857 
L 146.819264 69.014934 
L 147.542408 68.623658 
L 148.265552 68.838661 
L 148.988696 68.691151 
L 149.711839 68.383993 
L 150.434983 68.159624 
L 151.158127 70.988636 
L 151.881271 70.873029 
L 152.604415 70.724839 
L 153.327559 70.535409 
L 154.050702 70.47339 
L 154.773846 70.337515 
L 155.49699 70.47377 
L 156.220134 69.897644 
L 156.943278 69.80308 
L 157.666421 69.766619 
L 158.389565 69.732945 
L 159.112709 66.400244 
L 159.835853 66.657728 
L 160.558997 66.421624 
L 161.28214 66.433748 
L 162.005284 66.67359 
L 162.728428 66.437266 
L 163.451572 66.919511 
L 164.174716 66.888387 
L 164.89786 66.913054 
L 165.621003 66.991493 
L 166.344147 66.892034 
L 167.067291 67.544828 
L 167.790435 66.987709 
L 168.513579 67.118051 
L 169.236722 67.025163 
L 169.959866 66.79962 
L 170.68301 66.650899 
L 171.406154 66.250509 
L 172.129298 66.473052 
L 172.852441 66.307562 
L 173.575585 66.369288 
L 174.298729 66.02938 
L 175.021873 65.68175 
L 175.745017 65.663298 
L 176.468161 65.30887 
L 177.191304 65.275414 
L 177.914448 64.935547 
L 178.637592 64.72566 
L 179.360736 63.948186 
L 180.08388 63.746541 
L 180.807023 63.641179 
L 181.530167 63.693693 
L 182.253311 63.688539 
L 182.976455 63.505097 
L 183.699599 63.556853 
L 184.422742 63.499004 
L 185.145886 63.532802 
L 185.86903 63.627987 
L 186.592174 64.432953 
L 187.315318 64.854536 
L 188.038462 64.975125 
L 188.761605 65.250595 
L 189.484749 64.876868 
L 190.207893 64.73571 
L 190.931037 65.103068 
L 191.654181 66.975846 
L 192.377324 67.563904 
L 193.100468 67.523069 
L 193.823612 67.620156 
L 194.546756 66.617692 
L 195.2699 66.400811 
L 195.993043 66.217539 
L 196.716187 66.20069 
L 197.439331 66.391139 
L 198.162475 66.493296 
L 198.885619 66.555725 
L 199.608763 63.700134 
L 200.331906 63.618435 
L 201.05505 63.58072 
L 201.778194 63.229279 
L 202.501338 63.170319 
L 203.224482 63.318383 
L 203.947625 63.335896 
L 204.670769 63.714295 
L 205.393913 63.524555 
L 206.117057 63.41456 
L 206.840201 62.830853 
L 207.563344 63.047446 
L 208.286488 62.993832 
L 209.009632 63.27187 
L 209.732776 63.410199 
L 210.45592 63.368635 
L 211.179064 63.070861 
L 211.902207 63.024644 
L 212.625351 64.333671 
L 213.348495 64.755384 
L 214.071639 65.217055 
L 214.794783 64.855379 
L 215.517926 64.476488 
L 216.24107 64.257506 
L 216.964214 64.299621 
L 217.687358 64.197108 
L 218.410502 64.226401 
L 219.133645 64.313741 
L 219.856789 63.985553 
L 220.579933 62.736121 
L 221.303077 62.188132 
L 222.026221 62.385886 
L 222.749365 63.514169 
L 223.472508 63.749531 
L 224.195652 63.896737 
L 224.918796 63.625527 
L 225.64194 63.396296 
L 226.365084 63.322516 
L 227.088227 63.180035 
L 227.811371 63.067294 
L 228.534515 62.94974 
L 229.257659 62.669534 
L 229.980803 62.129696 
L 230.703946 61.416054 
L 231.42709 61.201239 
L 232.150234 61.487424 
L 232.873378 61.078783 
L 233.596522 61.226521 
L 234.319666 60.998917 
L 235.042809 60.77826 
L 235.765953 60.583813 
L 236.489097 60.469478 
L 237.212241 60.615854 
L 237.935385 60.286571 
L 238.658528 60.014529 
L 239.381672 60.040711 
L 240.104816 59.475921 
L 240.82796 59.29321 
L 241.551104 59.166008 
L 242.274247 59.048639 
L 242.997391 59.882447 
L 243.720535 60.830498 
L 244.443679 61.348981 
L 245.166823 61.100456 
L 245.889967 61.02812 
L 246.61311 60.98238 
L 247.336254 60.923527 
L 248.059398 60.750438 
L 248.782542 60.472324 
L 249.505686 60.423231 
L 250.228829 60.198803 
L 250.951973 59.413966 
L 251.675117 58.535822 
L 252.398261 57.578965 
L 253.121405 57.787825 
L 253.844548 57.931025 
L 254.567692 57.92044 
L 255.290836 58.025202 
L 256.01398 60.513534 
L 256.737124 64.519439 
L 257.460268 68.643888 
L 258.183411 73.121608 
L 258.906555 77.431437 
L 259.629699 80.925196 
L 260.352843 82.451072 
L 261.075987 82.725834 
L 261.79913 83.303821 
L 262.522274 83.590737 
L 263.245418 83.864107 
L 263.968562 80.049727 
L 264.691706 75.747938 
L 265.414849 71.75543 
L 266.137993 67.526706 
L 266.861137 63.555409 
L 267.584281 60.9791 
L 268.307425 60.027695 
L 269.030569 59.974021 
L 269.753712 59.677905 
L 270.476856 59.778798 
L 271.2 59.952853 
L 271.2 47.195937 
L 271.2 47.195937 
L 270.476856 47.106512 
L 269.753712 47.046565 
L 269.030569 46.959654 
L 268.307425 46.908711 
L 267.584281 46.972937 
L 266.861137 46.366813 
L 266.137993 45.477238 
L 265.414849 44.251799 
L 264.691706 41.618515 
L 263.968562 39.736097 
L 263.245418 38.246964 
L 262.522274 38.889912 
L 261.79913 39.196926 
L 261.075987 40.085572 
L 260.352843 40.839117 
L 259.629699 41.457777 
L 258.906555 43.263492 
L 258.183411 44.700624 
L 257.460268 46.929768 
L 256.737124 49.260537 
L 256.01398 50.826761 
L 255.290836 50.877667 
L 254.567692 50.949396 
L 253.844548 51.473639 
L 253.121405 51.392571 
L 252.398261 51.03716 
L 251.675117 51.071656 
L 250.951973 51.250979 
L 250.228829 51.820199 
L 249.505686 51.248453 
L 248.782542 51.458399 
L 248.059398 51.442142 
L 247.336254 51.755663 
L 246.61311 52.006845 
L 245.889967 51.873033 
L 245.166823 51.985413 
L 244.443679 52.694797 
L 243.720535 52.875737 
L 242.997391 53.061465 
L 242.274247 52.683935 
L 241.551104 52.957163 
L 240.82796 53.054768 
L 240.104816 52.949938 
L 239.381672 53.131587 
L 238.658528 53.154385 
L 237.935385 53.22997 
L 237.212241 53.187067 
L 236.489097 52.786852 
L 235.765953 52.651929 
L 235.042809 52.68048 
L 234.319666 52.982967 
L 233.596522 53.102537 
L 232.873378 53.094754 
L 232.150234 53.404774 
L 231.42709 53.456553 
L 230.703946 53.756953 
L 229.980803 53.771459 
L 229.257659 54.337853 
L 228.534515 54.469993 
L 227.811371 54.409547 
L 227.088227 54.451963 
L 226.365084 54.328621 
L 225.64194 54.144216 
L 224.918796 54.282055 
L 224.195652 54.097735 
L 223.472508 54.350423 
L 222.749365 54.325182 
L 222.026221 54.780077 
L 221.303077 54.557434 
L 220.579933 54.552588 
L 219.856789 54.871457 
L 219.133645 55.181126 
L 218.410502 55.629611 
L 217.687358 55.757589 
L 216.964214 55.872694 
L 216.24107 55.857151 
L 215.517926 56.396206 
L 214.794783 56.654338 
L 214.071639 56.557078 
L 213.348495 56.434257 
L 212.625351 56.56833 
L 211.902207 56.74452 
L 211.179064 56.419357 
L 210.45592 56.293654 
L 209.732776 56.452732 
L 209.009632 56.409281 
L 208.286488 56.451881 
L 207.563344 55.703671 
L 206.840201 55.506619 
L 206.117057 55.360753 
L 205.393913 55.452463 
L 204.670769 55.474945 
L 203.947625 55.77344 
L 203.224482 56.092527 
L 202.501338 55.99519 
L 201.778194 55.974009 
L 201.05505 56.201505 
L 200.331906 56.323511 
L 199.608763 56.598051 
L 198.885619 56.098881 
L 198.162475 56.340871 
L 197.439331 56.61672 
L 196.716187 56.728984 
L 195.993043 56.865492 
L 195.2699 56.786324 
L 194.546756 57.520198 
L 193.823612 57.532325 
L 193.100468 57.572592 
L 192.377324 57.602344 
L 191.654181 57.788731 
L 190.931037 57.518909 
L 190.207893 57.800452 
L 189.484749 57.703063 
L 188.761605 57.650678 
L 188.038462 57.834338 
L 187.315318 57.859799 
L 186.592174 57.551139 
L 185.86903 57.179341 
L 185.145886 56.906499 
L 184.422742 57.053866 
L 183.699599 57.130734 
L 182.976455 57.392379 
L 182.253311 57.391946 
L 181.530167 57.790911 
L 180.807023 58.073278 
L 180.08388 58.175677 
L 179.360736 58.17971 
L 178.637592 58.685224 
L 177.914448 59.043866 
L 177.191304 59.111896 
L 176.468161 59.224356 
L 175.745017 59.29804 
L 175.021873 59.339134 
L 174.298729 59.408949 
L 173.575585 59.021659 
L 172.852441 58.96476 
L 172.129298 58.941742 
L 171.406154 59.18892 
L 170.68301 59.001188 
L 169.959866 59.023525 
L 169.236722 59.514519 
L 168.513579 59.547995 
L 167.790435 59.529502 
L 167.067291 59.589979 
L 166.344147 59.813196 
L 165.621003 59.74389 
L 164.89786 60.073401 
L 164.174716 60.268648 
L 163.451572 60.204514 
L 162.728428 59.743896 
L 162.005284 59.830526 
L 161.28214 59.599397 
L 160.558997 59.855087 
L 159.835853 60.063038 
L 159.112709 60.072412 
L 158.389565 59.143717 
L 157.666421 59.425926 
L 156.943278 59.31325 
L 156.220134 59.459817 
L 155.49699 59.447445 
L 154.773846 59.733426 
L 154.050702 60.087932 
L 153.327559 60.312868 
L 152.604415 60.404281 
L 151.881271 60.433685 
L 151.158127 60.939779 
L 150.434983 61.76969 
L 149.711839 61.899764 
L 148.988696 62.154296 
L 148.265552 62.023174 
L 147.542408 62.127948 
L 146.819264 62.270452 
L 146.09612 62.190357 
L 145.372977 62.073475 
L 144.649833 62.345694 
L 143.926689 62.363701 
L 143.203545 62.121037 
L 142.480401 62.478908 
L 141.757258 62.424397 
L 141.034114 62.580313 
L 140.31097 62.662821 
L 139.587826 63.099015 
L 138.864682 62.968469 
L 138.141538 62.931125 
L 137.418395 62.969298 
L 136.695251 62.685977 
L 135.972107 62.881944 
L 135.248963 63.322811 
L 134.525819 62.723826 
L 133.802676 63.035407 
L 133.079532 62.881424 
L 132.356388 63.151553 
L 131.633244 62.970929 
L 130.9101 63.056647 
L 130.186957 63.214187 
L 129.463813 63.807157 
L 128.740669 63.909251 
L 128.017525 64.172466 
L 127.294381 64.409111 
L 126.571237 64.760081 
L 125.848094 64.828797 
L 125.12495 65.092845 
L 124.401806 65.227083 
L 123.678662 65.588826 
L 122.955518 65.909928 
L 122.232375 65.828563 
L 121.509231 65.757945 
L 120.786087 66.051135 
L 120.062943 66.253325 
L 119.339799 66.265601 
L 118.616656 66.589755 
L 117.893512 66.815885 
L 117.170368 66.840562 
L 116.447224 66.993639 
L 115.72408 66.92176 
L 115.000936 67.237963 
L 114.277793 67.774155 
L 113.554649 67.982427 
L 112.831505 67.934408 
L 112.108361 67.731183 
L 111.385217 67.802397 
L 110.662074 67.805397 
L 109.93893 67.863901 
L 109.215786 68.062768 
L 108.492642 68.142399 
L 107.769498 68.377353 
L 107.046355 68.328857 
L 106.323211 68.128053 
L 105.600067 67.907415 
L 104.876923 68.294731 
L 104.153779 68.736891 
L 103.430635 69.028692 
L 102.707492 69.172802 
L 101.984348 69.438742 
L 101.261204 69.433146 
L 100.53806 69.598107 
L 99.814916 69.801181 
L 99.091773 69.878184 
L 98.368629 70.197803 
L 97.645485 70.63929 
L 96.922341 70.948291 
L 96.199197 71.248084 
L 95.476054 71.542848 
L 94.75291 71.875805 
L 94.029766 71.935068 
L 93.306622 72.267435 
L 92.583478 72.788031 
L 91.860334 73.355659 
L 91.137191 73.703184 
L 90.414047 73.943033 
L 89.690903 74.572937 
L 88.967759 74.806616 
L 88.244615 74.916016 
L 87.521472 75.057619 
L 86.798328 75.580914 
L 86.075184 76.1553 
L 85.35204 76.592934 
L 84.628896 76.926026 
L 83.905753 77.138715 
L 83.182609 77.578136 
L 82.459465 78.077991 
L 81.736321 78.204909 
L 81.013177 78.765371 
L 80.290033 79.402128 
L 79.56689 80.085567 
L 78.843746 80.470354 
L 78.120602 81.372488 
L 77.397458 82.206414 
L 76.674314 82.716246 
L 75.951171 83.408278 
L 75.228027 84.344323 
L 74.504883 85.146056 
L 73.781739 86.13427 
L 73.058595 87.317921 
L 72.335452 88.552239 
L 71.612308 89.862014 
L 70.889164 91.092337 
L 70.16602 92.187796 
L 69.442876 93.391798 
L 68.719732 94.81796 
L 67.996589 96.315438 
L 67.273445 97.70346 
L 66.550301 99.850399 
L 65.827157 102.000102 
L 65.104013 103.884338 
L 64.38087 105.872184 
L 63.657726 107.977826 
L 62.934582 110.513547 
L 62.211438 112.981341 
L 61.488294 115.757967 
L 60.765151 119.498099 
L 60.042007 123.396398 
L 59.318863 128.652311 
L 58.595719 134.984403 
L 57.872575 137.024063 
L 57.149431 139.361662 
L 56.426288 141.835239 
L 55.703144 144.657828 
L 54.98 147.703679 
z
" style="fill:#4c72b0;fill-opacity:0.2;"/>
   </g>
   <g id="PolyCollection_2">
    <path clip-path="url(#p2fcc8fd7bc)" d="M 54.98 149.688131 
L 54.98 155.002236 
L 55.703144 151.511889 
L 56.426288 149.10295 
L 57.149431 146.896341 
L 57.872575 144.831198 
L 58.595719 142.876394 
L 59.318863 137.37497 
L 60.042007 132.667695 
L 60.765151 129.504134 
L 61.488294 126.949922 
L 62.211438 124.819112 
L 62.934582 122.939494 
L 63.657726 121.146405 
L 64.38087 119.533316 
L 65.104013 117.873919 
L 65.827157 116.820028 
L 66.550301 115.500169 
L 67.273445 114.250786 
L 67.996589 114.05846 
L 68.719732 112.885854 
L 69.442876 111.708849 
L 70.16602 110.323778 
L 70.889164 109.284803 
L 71.612308 108.203605 
L 72.335452 107.242514 
L 73.058595 106.266033 
L 73.781739 104.788165 
L 74.504883 103.770346 
L 75.228027 102.84602 
L 75.951171 101.000288 
L 76.674314 100.15862 
L 77.397458 99.541051 
L 78.120602 98.744848 
L 78.843746 97.983098 
L 79.56689 97.029857 
L 80.290033 96.183862 
L 81.013177 95.50923 
L 81.736321 94.877626 
L 82.459465 94.52098 
L 83.182609 93.859842 
L 83.905753 93.475793 
L 84.628896 93.014132 
L 85.35204 92.454092 
L 86.075184 91.981644 
L 86.798328 91.505249 
L 87.521472 91.257383 
L 88.244615 90.848461 
L 88.967759 90.487549 
L 89.690903 90.119202 
L 90.414047 89.460461 
L 91.137191 88.879276 
L 91.860334 88.361398 
L 92.583478 87.997218 
L 93.306622 87.791842 
L 94.029766 87.441148 
L 94.75291 87.318784 
L 95.476054 86.989875 
L 96.199197 86.674215 
L 96.922341 86.293494 
L 97.645485 85.996906 
L 98.368629 85.778712 
L 99.091773 85.580933 
L 99.814916 85.286637 
L 100.53806 84.884054 
L 101.261204 84.567083 
L 101.984348 84.322989 
L 102.707492 84.062043 
L 103.430635 83.760665 
L 104.153779 83.560037 
L 104.876923 83.466354 
L 105.600067 83.255616 
L 106.323211 82.919635 
L 107.046355 82.848802 
L 107.769498 82.748302 
L 108.492642 82.456381 
L 109.215786 82.182129 
L 109.93893 82.097549 
L 110.662074 81.881052 
L 111.385217 81.826613 
L 112.108361 81.793871 
L 112.831505 81.618528 
L 113.554649 81.386357 
L 114.277793 81.280299 
L 115.000936 81.070431 
L 115.72408 80.847126 
L 116.447224 80.808558 
L 117.170368 80.636494 
L 117.893512 80.386441 
L 118.616656 80.217934 
L 119.339799 80.065896 
L 120.062943 79.751983 
L 120.786087 79.574832 
L 121.509231 79.537039 
L 122.232375 79.413255 
L 122.955518 79.168273 
L 123.678662 79.06991 
L 124.401806 79.07969 
L 125.12495 78.973745 
L 125.848094 78.77111 
L 126.571237 78.55873 
L 127.294381 78.278766 
L 128.017525 78.202816 
L 128.740669 77.936592 
L 129.463813 77.809706 
L 130.186957 77.655056 
L 130.9101 77.472109 
L 131.633244 77.292735 
L 132.356388 76.901708 
L 133.079532 76.735501 
L 133.802676 76.594886 
L 134.525819 76.482538 
L 135.248963 76.469698 
L 135.972107 76.33397 
L 136.695251 76.289264 
L 137.418395 76.222808 
L 138.141538 75.951605 
L 138.864682 75.887104 
L 139.587826 75.780773 
L 140.31097 75.621299 
L 141.034114 75.514261 
L 141.757258 75.442083 
L 142.480401 75.390242 
L 143.203545 75.513267 
L 143.926689 75.346827 
L 144.649833 75.262193 
L 145.372977 75.080431 
L 146.09612 75.130169 
L 146.819264 75.05801 
L 147.542408 75.140952 
L 148.265552 75.112552 
L 148.988696 74.957735 
L 149.711839 74.714534 
L 150.434983 74.510412 
L 151.158127 74.204646 
L 151.881271 74.036614 
L 152.604415 74.021879 
L 153.327559 73.907516 
L 154.050702 73.755286 
L 154.773846 73.806813 
L 155.49699 73.595149 
L 156.220134 73.774685 
L 156.943278 73.837764 
L 157.666421 73.843511 
L 158.389565 73.775023 
L 159.112709 73.838706 
L 159.835853 73.767056 
L 160.558997 73.423138 
L 161.28214 73.382465 
L 162.005284 73.292878 
L 162.728428 73.22562 
L 163.451572 72.949561 
L 164.174716 72.515951 
L 164.89786 72.147555 
L 165.621003 72.093025 
L 166.344147 71.933569 
L 167.067291 71.754258 
L 167.790435 71.786051 
L 168.513579 71.645757 
L 169.236722 71.321648 
L 169.959866 71.406639 
L 170.68301 72.728156 
L 171.406154 74.549571 
L 172.129298 77.277912 
L 172.852441 77.961532 
L 173.575585 77.956986 
L 174.298729 78.326779 
L 175.021873 78.222483 
L 175.745017 77.98914 
L 176.468161 77.923381 
L 177.191304 77.806371 
L 177.914448 76.884524 
L 178.637592 73.762817 
L 179.360736 71.622413 
L 180.08388 69.834008 
L 180.807023 69.115761 
L 181.530167 69.091567 
L 182.253311 68.994736 
L 182.976455 69.186829 
L 183.699599 69.193431 
L 184.422742 69.031992 
L 185.145886 69.476017 
L 185.86903 69.215737 
L 186.592174 69.201567 
L 187.315318 69.410356 
L 188.038462 69.210476 
L 188.761605 69.058641 
L 189.484749 69.151988 
L 190.207893 69.142526 
L 190.931037 69.908749 
L 191.654181 70.043396 
L 192.377324 70.09346 
L 193.100468 69.49655 
L 193.823612 69.665474 
L 194.546756 69.391479 
L 195.2699 68.953487 
L 195.993043 69.224696 
L 196.716187 68.86877 
L 197.439331 68.203899 
L 198.162475 68.666416 
L 198.885619 68.081483 
L 199.608763 67.934304 
L 200.331906 67.402496 
L 201.05505 67.244664 
L 201.778194 67.124896 
L 202.501338 67.020582 
L 203.224482 66.565375 
L 203.947625 66.545057 
L 204.670769 66.604257 
L 205.393913 66.079297 
L 206.117057 64.620688 
L 206.840201 64.187392 
L 207.563344 64.116858 
L 208.286488 64.424098 
L 209.009632 64.227858 
L 209.732776 63.651779 
L 210.45592 63.976908 
L 211.179064 63.483734 
L 211.902207 62.831601 
L 212.625351 62.725485 
L 213.348495 62.671872 
L 214.071639 62.772408 
L 214.794783 62.629162 
L 215.517926 62.419266 
L 216.24107 61.920032 
L 216.964214 62.41604 
L 217.687358 62.554136 
L 218.410502 62.176362 
L 219.133645 62.212381 
L 219.856789 62.104465 
L 220.579933 62.149685 
L 221.303077 62.022904 
L 222.026221 61.762076 
L 222.749365 61.960458 
L 223.472508 62.251531 
L 224.195652 62.232636 
L 224.918796 61.419825 
L 225.64194 61.174453 
L 226.365084 60.898826 
L 227.088227 60.829311 
L 227.811371 60.818142 
L 228.534515 60.855513 
L 229.257659 60.857177 
L 229.980803 61.172257 
L 230.703946 60.963651 
L 231.42709 60.498295 
L 232.150234 60.740712 
L 232.873378 60.670614 
L 233.596522 60.346167 
L 234.319666 60.06213 
L 235.042809 60.111385 
L 235.765953 59.911344 
L 236.489097 59.743389 
L 237.212241 59.494733 
L 237.935385 59.178113 
L 238.658528 59.007796 
L 239.381672 59.090012 
L 240.104816 59.022542 
L 240.82796 58.974598 
L 241.551104 59.209568 
L 242.274247 59.086778 
L 242.997391 58.958633 
L 243.720535 58.910123 
L 244.443679 58.655131 
L 245.166823 59.240648 
L 245.889967 59.471117 
L 246.61311 59.782997 
L 247.336254 60.127014 
L 248.059398 59.99905 
L 248.782542 59.970519 
L 249.505686 59.851228 
L 250.228829 59.916236 
L 250.951973 60.42913 
L 251.675117 60.996196 
L 252.398261 60.994426 
L 253.121405 60.731843 
L 253.844548 61.006961 
L 254.567692 60.962547 
L 255.290836 60.39334 
L 256.01398 60.074391 
L 256.737124 59.868588 
L 257.460268 59.611296 
L 258.183411 59.456699 
L 258.906555 59.093503 
L 259.629699 58.330495 
L 260.352843 58.131224 
L 261.075987 57.895975 
L 261.79913 57.105002 
L 262.522274 56.854755 
L 263.245418 56.40168 
L 263.968562 56.464017 
L 264.691706 58.625737 
L 265.414849 59.490476 
L 266.137993 59.681506 
L 266.861137 59.902631 
L 267.584281 60.153129 
L 268.307425 60.770024 
L 269.030569 61.223442 
L 269.753712 62.127808 
L 270.476856 63.104053 
L 271.2 64.537263 
L 271.2 38.646495 
L 271.2 38.646495 
L 270.476856 39.794919 
L 269.753712 40.80046 
L 269.030569 41.138612 
L 268.307425 41.798013 
L 267.584281 41.935293 
L 266.861137 42.289898 
L 266.137993 42.764523 
L 265.414849 43.154212 
L 264.691706 43.369033 
L 263.968562 44.060688 
L 263.245418 44.195651 
L 262.522274 44.198183 
L 261.79913 44.188011 
L 261.075987 44.389736 
L 260.352843 43.98129 
L 259.629699 44.061 
L 258.906555 44.442289 
L 258.183411 44.715505 
L 257.460268 44.703221 
L 256.737124 45.351121 
L 256.01398 45.273976 
L 255.290836 45.735254 
L 254.567692 45.91066 
L 253.844548 45.879435 
L 253.121405 46.146354 
L 252.398261 47.14766 
L 251.675117 47.432523 
L 250.951973 47.413141 
L 250.228829 47.215943 
L 249.505686 47.63276 
L 248.782542 47.531288 
L 248.059398 47.531955 
L 247.336254 47.310545 
L 246.61311 47.049049 
L 245.889967 47.651667 
L 245.166823 47.807772 
L 244.443679 47.126292 
L 243.720535 47.087726 
L 242.997391 47.077585 
L 242.274247 47.472369 
L 241.551104 47.522105 
L 240.82796 48.359442 
L 240.104816 49.06394 
L 239.381672 49.267255 
L 238.658528 49.661283 
L 237.935385 49.749999 
L 237.212241 50.12281 
L 236.489097 50.54644 
L 235.765953 51.065191 
L 235.042809 51.080929 
L 234.319666 51.306175 
L 233.596522 51.263904 
L 232.873378 50.841282 
L 232.150234 50.507193 
L 231.42709 51.170305 
L 230.703946 51.477918 
L 229.980803 51.498395 
L 229.257659 51.651789 
L 228.534515 51.775822 
L 227.811371 52.06146 
L 227.088227 52.376605 
L 226.365084 52.735117 
L 225.64194 53.291544 
L 224.918796 53.547988 
L 224.195652 53.841368 
L 223.472508 53.667894 
L 222.749365 53.412493 
L 222.026221 53.612055 
L 221.303077 53.567858 
L 220.579933 53.85802 
L 219.856789 53.729569 
L 219.133645 53.893639 
L 218.410502 53.464565 
L 217.687358 53.450354 
L 216.964214 53.328586 
L 216.24107 53.100202 
L 215.517926 53.895289 
L 214.794783 54.168303 
L 214.071639 54.308705 
L 213.348495 54.42491 
L 212.625351 54.640265 
L 211.902207 54.822908 
L 211.179064 55.295893 
L 210.45592 55.55521 
L 209.732776 55.536862 
L 209.009632 55.936259 
L 208.286488 56.317148 
L 207.563344 55.603059 
L 206.840201 56.138356 
L 206.117057 56.403848 
L 205.393913 57.00033 
L 204.670769 57.246344 
L 203.947625 57.530985 
L 203.224482 57.089081 
L 202.501338 57.367671 
L 201.778194 57.305555 
L 201.05505 56.895426 
L 200.331906 57.103164 
L 199.608763 57.647217 
L 198.885619 57.295162 
L 198.162475 57.691587 
L 197.439331 57.69252 
L 196.716187 57.207026 
L 195.993043 57.394379 
L 195.2699 58.125604 
L 194.546756 57.824136 
L 193.823612 57.834344 
L 193.100468 58.230523 
L 192.377324 58.326028 
L 191.654181 57.963815 
L 190.931037 58.150879 
L 190.207893 58.624835 
L 189.484749 58.272335 
L 188.761605 58.354237 
L 188.038462 58.011311 
L 187.315318 57.748873 
L 186.592174 57.570733 
L 185.86903 57.738372 
L 185.145886 57.730319 
L 184.422742 57.781737 
L 183.699599 57.848308 
L 182.976455 57.886968 
L 182.253311 57.671848 
L 181.530167 57.807778 
L 180.807023 57.501377 
L 180.08388 57.929258 
L 179.360736 57.890672 
L 178.637592 57.688587 
L 177.914448 56.997764 
L 177.191304 56.335227 
L 176.468161 56.166978 
L 175.745017 56.330584 
L 175.021873 56.509382 
L 174.298729 56.70344 
L 173.575585 56.654988 
L 172.852441 56.925165 
L 172.129298 56.802162 
L 171.406154 58.016942 
L 170.68301 58.374775 
L 169.959866 57.996714 
L 169.236722 58.187806 
L 168.513579 58.355414 
L 167.790435 58.291813 
L 167.067291 58.522979 
L 166.344147 58.312212 
L 165.621003 58.301055 
L 164.89786 58.514565 
L 164.174716 58.930441 
L 163.451572 59.072583 
L 162.728428 59.501177 
L 162.005284 59.457345 
L 161.28214 59.324386 
L 160.558997 59.31899 
L 159.835853 59.580043 
L 159.112709 59.656278 
L 158.389565 59.921473 
L 157.666421 60.258918 
L 156.943278 60.21329 
L 156.220134 59.893668 
L 155.49699 59.87549 
L 154.773846 59.896047 
L 154.050702 59.999485 
L 153.327559 60.165104 
L 152.604415 60.301937 
L 151.881271 60.387755 
L 151.158127 60.591772 
L 150.434983 61.332367 
L 149.711839 61.340265 
L 148.988696 61.532257 
L 148.265552 61.740646 
L 147.542408 61.68194 
L 146.819264 61.445188 
L 146.09612 61.529007 
L 145.372977 61.539876 
L 144.649833 61.781214 
L 143.926689 61.726826 
L 143.203545 61.875778 
L 142.480401 61.671842 
L 141.757258 61.816745 
L 141.034114 61.848832 
L 140.31097 61.918194 
L 139.587826 62.047068 
L 138.864682 62.130741 
L 138.141538 62.203896 
L 137.418395 62.342064 
L 136.695251 62.251103 
L 135.972107 62.218629 
L 135.248963 62.169386 
L 134.525819 61.955843 
L 133.802676 61.972892 
L 133.079532 62.071064 
L 132.356388 62.140691 
L 131.633244 62.447351 
L 130.9101 62.632213 
L 130.186957 62.855263 
L 129.463813 62.97563 
L 128.740669 63.145621 
L 128.017525 63.32829 
L 127.294381 63.429788 
L 126.571237 63.518969 
L 125.848094 63.7313 
L 125.12495 63.860347 
L 124.401806 63.928389 
L 123.678662 63.918456 
L 122.955518 64.021472 
L 122.232375 64.434774 
L 121.509231 64.699597 
L 120.786087 64.928074 
L 120.062943 65.070434 
L 119.339799 65.222534 
L 118.616656 65.371567 
L 117.893512 65.645112 
L 117.170368 66.004282 
L 116.447224 66.121365 
L 115.72408 66.304752 
L 115.000936 66.469494 
L 114.277793 66.268114 
L 113.554649 66.34877 
L 112.831505 66.379557 
L 112.108361 66.765265 
L 111.385217 66.799901 
L 110.662074 66.967668 
L 109.93893 67.060869 
L 109.215786 67.049532 
L 108.492642 67.244816 
L 107.769498 67.446103 
L 107.046355 67.483684 
L 106.323211 67.761509 
L 105.600067 68.037417 
L 104.876923 68.342234 
L 104.153779 68.204668 
L 103.430635 68.410062 
L 102.707492 68.631195 
L 101.984348 68.630858 
L 101.261204 68.817873 
L 100.53806 69.146433 
L 99.814916 69.257582 
L 99.091773 69.679758 
L 98.368629 69.753538 
L 97.645485 69.820697 
L 96.922341 70.03165 
L 96.199197 70.493716 
L 95.476054 70.93309 
L 94.75291 71.509186 
L 94.029766 71.826508 
L 93.306622 72.431898 
L 92.583478 72.667723 
L 91.860334 73.301839 
L 91.137191 73.536564 
L 90.414047 74.429951 
L 89.690903 74.813898 
L 88.967759 75.305333 
L 88.244615 76.398307 
L 87.521472 76.520858 
L 86.798328 76.754398 
L 86.075184 77.163123 
L 85.35204 77.271869 
L 84.628896 77.78994 
L 83.905753 77.966397 
L 83.182609 78.426888 
L 82.459465 78.945685 
L 81.736321 79.737883 
L 81.013177 80.1435 
L 80.290033 80.106676 
L 79.56689 80.933673 
L 78.843746 81.495132 
L 78.120602 82.520955 
L 77.397458 83.561563 
L 76.674314 84.482909 
L 75.951171 85.452303 
L 75.228027 86.063041 
L 74.504883 86.554416 
L 73.781739 87.160722 
L 73.058595 87.961117 
L 72.335452 89.137335 
L 71.612308 90.769893 
L 70.889164 92.45323 
L 70.16602 93.973489 
L 69.442876 95.298299 
L 68.719732 96.799141 
L 67.996589 98.58814 
L 67.273445 100.949487 
L 66.550301 102.78855 
L 65.827157 105.045305 
L 65.104013 107.384806 
L 64.38087 109.425102 
L 63.657726 111.264662 
L 62.934582 113.102289 
L 62.211438 115.340319 
L 61.488294 118.017263 
L 60.765151 121.569401 
L 60.042007 125.226801 
L 59.318863 129.840826 
L 58.595719 136.066029 
L 57.872575 138.07512 
L 57.149431 140.416511 
L 56.426288 143.116137 
L 55.703144 146.378357 
L 54.98 149.688131 
z
" style="fill:#55a868;fill-opacity:0.2;"/>
   </g>
   <g id="line2d_23">
    <path clip-path="url(#p2fcc8fd7bc)" d="M 54.98 149.154765 
L 56.426288 143.232862 
L 57.872575 138.804785 
L 58.595719 136.933192 
L 59.318863 130.947457 
L 60.042007 126.536222 
L 61.488294 120.54816 
L 62.934582 116.418036 
L 63.657726 114.459228 
L 67.273445 106.674794 
L 69.442876 103.060657 
L 75.228027 94.283397 
L 77.397458 91.578208 
L 81.736321 87.018428 
L 82.459465 86.680305 
L 83.182609 85.998962 
L 88.244615 82.55411 
L 89.690903 81.881373 
L 90.414047 81.324575 
L 91.137191 80.967309 
L 94.029766 79.005999 
L 99.091773 76.559939 
L 99.814916 76.520372 
L 100.53806 76.133523 
L 102.707492 75.746508 
L 106.323211 74.213171 
L 107.046355 74.24967 
L 107.769498 74.025799 
L 109.93893 73.007362 
L 112.108361 72.461484 
L 112.831505 72.524823 
L 113.554649 72.464443 
L 114.277793 72.265316 
L 115.000936 71.768879 
L 115.72408 71.423992 
L 116.447224 71.329185 
L 117.170368 71.098877 
L 117.893512 71.053744 
L 119.339799 70.570534 
L 120.062943 70.465801 
L 121.509231 69.886279 
L 122.232375 70.015967 
L 122.955518 69.914743 
L 125.848094 68.943672 
L 126.571237 68.972412 
L 127.294381 69.183337 
L 129.463813 68.494089 
L 130.186957 67.928587 
L 131.633244 67.70485 
L 132.356388 67.899016 
L 133.079532 67.809943 
L 133.802676 68.01141 
L 135.248963 67.352614 
L 136.695251 66.976515 
L 137.418395 67.153264 
L 138.864682 66.934271 
L 139.587826 66.9693 
L 140.31097 66.524325 
L 141.757258 66.030169 
L 142.480401 66.050621 
L 143.203545 65.798455 
L 144.649833 65.903857 
L 145.372977 65.629387 
L 146.09612 65.570107 
L 146.819264 65.642693 
L 147.542408 65.375803 
L 148.988696 65.422723 
L 150.434983 64.964657 
L 151.158127 65.964208 
L 151.881271 65.653357 
L 154.050702 65.280661 
L 154.773846 65.03547 
L 155.49699 64.960607 
L 156.220134 64.678731 
L 156.943278 64.558165 
L 157.666421 64.596272 
L 158.389565 64.438331 
L 159.112709 63.236328 
L 159.835853 63.360383 
L 161.28214 63.016573 
L 162.005284 63.252058 
L 162.728428 63.090581 
L 163.451572 63.562013 
L 164.89786 63.493227 
L 166.344147 63.352615 
L 167.067291 63.567403 
L 167.790435 63.258606 
L 168.513579 63.333023 
L 169.236722 63.269841 
L 169.959866 62.911572 
L 172.852441 62.636161 
L 174.298729 62.719165 
L 175.021873 62.510442 
L 175.745017 62.480669 
L 176.468161 62.266613 
L 177.191304 62.193655 
L 178.637592 61.705442 
L 179.360736 61.063948 
L 181.530167 60.742302 
L 182.976455 60.448738 
L 185.145886 60.21965 
L 185.86903 60.403664 
L 186.592174 60.992046 
L 187.315318 61.357168 
L 188.761605 61.450636 
L 189.484749 61.289965 
L 190.931037 61.310989 
L 191.654181 62.382288 
L 192.377324 62.583124 
L 193.823612 62.576241 
L 195.2699 61.593568 
L 198.885619 61.327303 
L 199.608763 60.149093 
L 201.778194 59.601644 
L 202.501338 59.582754 
L 203.224482 59.705455 
L 203.947625 59.554668 
L 204.670769 59.59462 
L 206.840201 59.168736 
L 207.563344 59.375558 
L 208.286488 59.722856 
L 209.732776 59.931466 
L 211.179064 59.745109 
L 211.902207 59.884582 
L 212.625351 60.451 
L 213.348495 60.594821 
L 214.071639 60.887067 
L 214.794783 60.754859 
L 216.24107 60.057329 
L 216.964214 60.086157 
L 219.133645 59.747433 
L 219.856789 59.428505 
L 220.579933 58.644355 
L 221.303077 58.372783 
L 222.026221 58.582981 
L 222.749365 58.919675 
L 223.472508 59.049977 
L 224.918796 58.953791 
L 225.64194 58.770256 
L 227.088227 58.815999 
L 229.257659 58.503693 
L 229.980803 57.950577 
L 231.42709 57.328896 
L 232.150234 57.446099 
L 232.873378 57.086768 
L 233.596522 57.164529 
L 235.765953 56.617871 
L 236.489097 56.628165 
L 237.212241 56.901461 
L 238.658528 56.584457 
L 239.381672 56.586149 
L 240.104816 56.21293 
L 241.551104 56.061585 
L 242.274247 55.866287 
L 242.997391 56.471956 
L 243.720535 56.853117 
L 244.443679 57.021889 
L 245.166823 56.542935 
L 245.889967 56.450577 
L 246.61311 56.494613 
L 249.505686 55.835842 
L 250.228829 56.009501 
L 251.675117 54.803739 
L 252.398261 54.308063 
L 253.121405 54.590198 
L 253.844548 54.702332 
L 254.567692 54.434918 
L 255.290836 54.451434 
L 256.737124 56.889988 
L 257.460268 57.786828 
L 258.183411 58.911116 
L 258.906555 60.347465 
L 259.629699 61.191487 
L 260.352843 61.645095 
L 261.79913 61.250374 
L 262.522274 61.240325 
L 263.245418 61.055535 
L 264.691706 58.683227 
L 265.414849 58.003615 
L 266.861137 54.961111 
L 267.584281 53.976019 
L 268.307425 53.468203 
L 270.476856 53.442655 
L 271.2 53.574395 
L 271.2 53.574395 
" style="fill:none;stroke:#4c72b0;stroke-linecap:round;stroke-width:1.75;"/>
   </g>
   <g id="line2d_24">
    <path clip-path="url(#p2fcc8fd7bc)" d="M 54.98 152.345184 
L 55.703144 148.945123 
L 57.149431 143.656426 
L 58.595719 139.471212 
L 59.318863 133.607898 
L 60.042007 128.947248 
L 61.488294 122.483592 
L 62.934582 118.020891 
L 66.550301 109.144359 
L 67.273445 107.600137 
L 68.719732 104.842498 
L 72.335452 98.189925 
L 73.781739 95.974443 
L 75.228027 94.45453 
L 75.951171 93.226295 
L 78.843746 89.739115 
L 80.290033 88.145269 
L 81.013177 87.826365 
L 83.905753 85.721095 
L 84.628896 85.402036 
L 85.35204 84.862981 
L 86.075184 84.572384 
L 86.798328 84.129824 
L 88.244615 83.623384 
L 88.967759 82.896441 
L 90.414047 81.945206 
L 91.137191 81.20792 
L 97.645485 77.908801 
L 99.091773 77.630346 
L 100.53806 77.015243 
L 101.984348 76.476924 
L 102.707492 76.346619 
L 104.153779 75.882353 
L 104.876923 75.904294 
L 107.046355 75.166243 
L 107.769498 75.097203 
L 109.215786 74.61583 
L 109.93893 74.579209 
L 111.385217 74.313257 
L 112.108361 74.279568 
L 112.831505 73.999042 
L 114.277793 73.774207 
L 115.000936 73.769963 
L 116.447224 73.464962 
L 117.170368 73.320388 
L 118.616656 72.794751 
L 121.509231 72.118318 
L 122.232375 71.924014 
L 122.955518 71.594872 
L 124.401806 71.504039 
L 125.848094 71.251205 
L 127.294381 70.854277 
L 128.017525 70.765553 
L 129.463813 70.392668 
L 131.633244 69.870043 
L 132.356388 69.5212 
L 134.525819 69.21919 
L 135.248963 69.319542 
L 138.864682 69.008922 
L 142.480401 68.531042 
L 143.203545 68.694523 
L 143.926689 68.536826 
L 144.649833 68.521704 
L 145.372977 68.310153 
L 148.265552 68.426599 
L 150.434983 67.92139 
L 151.158127 67.398209 
L 151.881271 67.212184 
L 153.327559 67.03631 
L 154.050702 66.877385 
L 156.220134 66.834177 
L 156.943278 67.025527 
L 157.666421 67.051215 
L 159.112709 66.747492 
L 159.835853 66.673549 
L 160.558997 66.371064 
L 162.728428 66.363398 
L 164.89786 65.33106 
L 166.344147 65.122891 
L 167.067291 65.138619 
L 169.959866 64.701676 
L 171.406154 66.283257 
L 172.129298 67.040037 
L 172.852441 67.443349 
L 173.575585 67.305987 
L 174.298729 67.515109 
L 176.468161 67.04518 
L 177.191304 67.070799 
L 177.914448 66.941144 
L 178.637592 65.725702 
L 180.08388 63.881633 
L 180.807023 63.308569 
L 181.530167 63.449673 
L 182.253311 63.333292 
L 182.976455 63.536898 
L 184.422742 63.406864 
L 185.145886 63.603168 
L 186.592174 63.38615 
L 187.315318 63.579615 
L 189.484749 63.712161 
L 190.931037 64.029814 
L 191.654181 64.003605 
L 192.377324 64.209744 
L 193.100468 63.863537 
L 195.993043 63.309538 
L 196.716187 63.037898 
L 197.439331 62.948209 
L 198.162475 63.179002 
L 198.885619 62.688322 
L 199.608763 62.79076 
L 200.331906 62.25283 
L 201.05505 62.070045 
L 201.778194 62.215225 
L 202.501338 62.194127 
L 203.224482 61.827228 
L 203.947625 62.038021 
L 204.670769 61.925301 
L 205.393913 61.539813 
L 206.117057 60.512268 
L 207.563344 59.859959 
L 208.286488 60.370623 
L 209.009632 60.082058 
L 209.732776 59.594321 
L 210.45592 59.766059 
L 211.179064 59.389814 
L 211.902207 58.827255 
L 213.348495 58.548391 
L 214.071639 58.540556 
L 215.517926 58.157277 
L 216.24107 57.510117 
L 216.964214 57.872313 
L 217.687358 58.002245 
L 218.410502 57.820464 
L 219.133645 58.05301 
L 219.856789 57.917017 
L 220.579933 58.003853 
L 222.026221 57.687066 
L 222.749365 57.686476 
L 223.472508 57.959712 
L 224.195652 58.037002 
L 224.918796 57.483907 
L 225.64194 57.232998 
L 226.365084 56.816972 
L 227.811371 56.439801 
L 229.257659 56.254483 
L 229.980803 56.335326 
L 230.703946 56.220785 
L 231.42709 55.8343 
L 232.150234 55.623953 
L 233.596522 55.805036 
L 235.765953 55.488267 
L 237.935385 54.464056 
L 240.104816 54.043241 
L 241.551104 53.365837 
L 242.274247 53.279573 
L 242.997391 53.018109 
L 244.443679 52.890711 
L 245.166823 53.52421 
L 245.889967 53.561392 
L 246.61311 53.416023 
L 247.336254 53.718779 
L 248.782542 53.750903 
L 249.505686 53.741994 
L 250.228829 53.566089 
L 251.675117 54.214359 
L 252.398261 54.071043 
L 253.121405 53.439099 
L 254.567692 53.436603 
L 256.01398 52.674184 
L 256.737124 52.609854 
L 257.460268 52.157259 
L 258.183411 52.086102 
L 258.906555 51.767896 
L 259.629699 51.195747 
L 260.352843 51.056257 
L 261.075987 51.142856 
L 261.79913 50.646506 
L 263.968562 50.262353 
L 264.691706 50.997385 
L 265.414849 51.322344 
L 267.584281 51.044211 
L 268.307425 51.284018 
L 269.030569 51.181027 
L 269.753712 51.464134 
L 270.476856 51.449486 
L 271.2 51.591879 
L 271.2 51.591879 
" style="fill:none;stroke:#55a868;stroke-linecap:round;stroke-width:1.75;"/>
   </g>
   <g id="patch_3">
    <path d="M 54.98 160.84 
L 54.98 32.4092 
" style="fill:none;"/>
   </g>
   <g id="patch_4">
    <path d="M 271.2 160.84 
L 271.2 32.4092 
" style="fill:none;"/>
   </g>
   <g id="patch_5">
    <path d="M 54.98 160.84 
L 271.2 160.84 
" style="fill:none;"/>
   </g>
   <g id="patch_6">
    <path d="M 54.98 32.4092 
L 271.2 32.4092 
" style="fill:none;"/>
   </g>
   <g id="legend_1">
    <g id="line2d_25">
     <path d="M 60.18 17.35449 
L 73.18 17.35449 
" style="fill:none;stroke:#4c72b0;stroke-linecap:round;stroke-width:1.75;"/>
    </g>
    <g id="line2d_26"/>
    <g id="text_15">
     <!-- sac-tf1 -->
     <defs>
      <path d="M 3.171875 21.484375 
L 3.171875 30.328125 
L 30.171875 30.328125 
L 30.171875 21.484375 
z
" id="ArialMT-45"/>
     </defs>
     <g style="fill:#262626;" transform="translate(83.58 21.90449)scale(0.13 -0.13)">
      <use xlink:href="#ArialMT-115"/>
      <use x="50" xlink:href="#ArialMT-97"/>
      <use x="105.615234" xlink:href="#ArialMT-99"/>
      <use x="155.615234" xlink:href="#ArialMT-45"/>
      <use x="188.916016" xlink:href="#ArialMT-116"/>
      <use x="216.699219" xlink:href="#ArialMT-102"/>
      <use x="244.482422" xlink:href="#ArialMT-49"/>
     </g>
    </g>
    <g id="line2d_27">
     <path d="M 175.414375 17.35449 
L 188.414375 17.35449 
" style="fill:none;stroke:#55a868;stroke-linecap:round;stroke-width:1.75;"/>
    </g>
    <g id="line2d_28"/>
    <g id="text_16">
     <!-- sac-pytorch -->
     <defs>
      <path d="M 6.59375 -19.875 
L 6.59375 51.859375 
L 14.59375 51.859375 
L 14.59375 45.125 
Q 17.4375 49.078125 21 51.046875 
Q 24.5625 53.03125 29.640625 53.03125 
Q 36.28125 53.03125 41.359375 49.609375 
Q 46.4375 46.1875 49.015625 39.953125 
Q 51.609375 33.734375 51.609375 26.3125 
Q 51.609375 18.359375 48.75 11.984375 
Q 45.90625 5.609375 40.453125 2.21875 
Q 35.015625 -1.171875 29 -1.171875 
Q 24.609375 -1.171875 21.109375 0.6875 
Q 17.625 2.546875 15.375 5.375 
L 15.375 -19.875 
z
M 14.546875 25.640625 
Q 14.546875 15.625 18.59375 10.84375 
Q 22.65625 6.0625 28.421875 6.0625 
Q 34.28125 6.0625 38.453125 11.015625 
Q 42.625 15.96875 42.625 26.375 
Q 42.625 36.28125 38.546875 41.203125 
Q 34.46875 46.140625 28.8125 46.140625 
Q 23.1875 46.140625 18.859375 40.890625 
Q 14.546875 35.640625 14.546875 25.640625 
z
" id="ArialMT-112"/>
      <path d="M 6.203125 -19.96875 
L 5.21875 -11.71875 
Q 8.109375 -12.5 10.25 -12.5 
Q 13.1875 -12.5 14.9375 -11.515625 
Q 16.703125 -10.546875 17.828125 -8.796875 
Q 18.65625 -7.46875 20.515625 -2.25 
Q 20.75 -1.515625 21.296875 -0.09375 
L 1.609375 51.859375 
L 11.078125 51.859375 
L 21.875 21.828125 
Q 23.96875 16.109375 25.640625 9.8125 
Q 27.15625 15.875 29.25 21.625 
L 40.328125 51.859375 
L 49.125 51.859375 
L 29.390625 -0.875 
Q 26.21875 -9.421875 24.46875 -12.640625 
Q 22.125 -17 19.09375 -19.015625 
Q 16.0625 -21.046875 11.859375 -21.046875 
Q 9.328125 -21.046875 6.203125 -19.96875 
z
" id="ArialMT-121"/>
      <path d="M 6.59375 0 
L 6.59375 71.578125 
L 15.375 71.578125 
L 15.375 45.90625 
Q 21.53125 53.03125 30.90625 53.03125 
Q 36.671875 53.03125 40.921875 50.75 
Q 45.171875 48.484375 47 44.484375 
Q 48.828125 40.484375 48.828125 32.859375 
L 48.828125 0 
L 40.046875 0 
L 40.046875 32.859375 
Q 40.046875 39.453125 37.1875 42.453125 
Q 34.328125 45.453125 29.109375 45.453125 
Q 25.203125 45.453125 21.75 43.421875 
Q 18.3125 41.40625 16.84375 37.9375 
Q 15.375 34.46875 15.375 28.375 
L 15.375 0 
z
" id="ArialMT-104"/>
     </defs>
     <g style="fill:#262626;" transform="translate(198.814375 21.90449)scale(0.13 -0.13)">
      <use xlink:href="#ArialMT-115"/>
      <use x="50" xlink:href="#ArialMT-97"/>
      <use x="105.615234" xlink:href="#ArialMT-99"/>
      <use x="155.615234" xlink:href="#ArialMT-45"/>
      <use x="188.916016" xlink:href="#ArialMT-112"/>
      <use x="244.53125" xlink:href="#ArialMT-121"/>
      <use x="294.53125" xlink:href="#ArialMT-116"/>
      <use x="322.314453" xlink:href="#ArialMT-111"/>
      <use x="377.929688" xlink:href="#ArialMT-114"/>
      <use x="411.230469" xlink:href="#ArialMT-99"/>
      <use x="461.230469" xlink:href="#ArialMT-104"/>
     </g>
    </g>
   </g>
  </g>
 </g>
 <defs>
  <clipPath id="p2fcc8fd7bc">
   <rect height="128.4308" width="216.22" x="54.98" y="32.4092"/>
  </clipPath>
 </defs>
</svg>
