<?xml version="1.0" encoding="utf-8" standalone="no"?>
<!DOCTYPE svg PUBLIC "-//W3C//DTD SVG 1.1//EN"
  "http://www.w3.org/Graphics/SVG/1.1/DTD/svg11.dtd">
<!-- Created with matplotlib (https://matplotlib.org/) -->
<svg height="198pt" version="1.1" viewBox="0 0 277.2 198" width="277.2pt" xmlns="http://www.w3.org/2000/svg" xmlns:xlink="http://www.w3.org/1999/xlink">
 <defs>
  <style type="text/css">
*{stroke-linecap:butt;stroke-linejoin:round;}
  </style>
 </defs>
 <g id="figure_1">
  <g id="patch_1">
   <path d="M 0 198 
L 277.2 198 
L 277.2 0 
L 0 0 
z
" style="fill:#ffffff;"/>
  </g>
  <g id="axes_1">
   <g id="patch_2">
    <path d="M 49.4 160.84 
L 271.2 160.84 
L 271.2 32.4092 
L 49.4 32.4092 
z
" style="fill:#eaeaf2;"/>
   </g>
   <g id="matplotlib.axis_1">
    <g id="xtick_1">
     <g id="line2d_1">
      <path clip-path="url(#p0445d44be5)" d="M 85.748569 160.84 
L 85.748569 32.4092 
" style="fill:none;stroke:#ffffff;stroke-linecap:round;"/>
     </g>
     <g id="line2d_2"/>
     <g id="text_1">
      <!-- 0.5 -->
      <defs>
       <path d="M 4.15625 35.296875 
Q 4.15625 48 6.765625 55.734375 
Q 9.375 63.484375 14.515625 67.671875 
Q 19.671875 71.875 27.484375 71.875 
Q 33.25 71.875 37.59375 69.546875 
Q 41.9375 67.234375 44.765625 62.859375 
Q 47.609375 58.5 49.21875 52.21875 
Q 50.828125 45.953125 50.828125 35.296875 
Q 50.828125 22.703125 48.234375 14.96875 
Q 45.65625 7.234375 40.5 3 
Q 35.359375 -1.21875 27.484375 -1.21875 
Q 17.140625 -1.21875 11.234375 6.203125 
Q 4.15625 15.140625 4.15625 35.296875 
z
M 13.1875 35.296875 
Q 13.1875 17.671875 17.3125 11.828125 
Q 21.4375 6 27.484375 6 
Q 33.546875 6 37.671875 11.859375 
Q 41.796875 17.71875 41.796875 35.296875 
Q 41.796875 52.984375 37.671875 58.78125 
Q 33.546875 64.59375 27.390625 64.59375 
Q 21.34375 64.59375 17.71875 59.46875 
Q 13.1875 52.9375 13.1875 35.296875 
z
" id="ArialMT-48"/>
       <path d="M 9.078125 0 
L 9.078125 10.015625 
L 19.09375 10.015625 
L 19.09375 0 
z
" id="ArialMT-46"/>
       <path d="M 4.15625 18.75 
L 13.375 19.53125 
Q 14.40625 12.796875 18.140625 9.390625 
Q 21.875 6 27.15625 6 
Q 33.5 6 37.890625 10.78125 
Q 42.28125 15.578125 42.28125 23.484375 
Q 42.28125 31 38.0625 35.34375 
Q 33.84375 39.703125 27 39.703125 
Q 22.75 39.703125 19.328125 37.765625 
Q 15.921875 35.84375 13.96875 32.765625 
L 5.71875 33.84375 
L 12.640625 70.609375 
L 48.25 70.609375 
L 48.25 62.203125 
L 19.671875 62.203125 
L 15.828125 42.96875 
Q 22.265625 47.46875 29.34375 47.46875 
Q 38.71875 47.46875 45.15625 40.96875 
Q 51.609375 34.46875 51.609375 24.265625 
Q 51.609375 14.546875 45.953125 7.46875 
Q 39.0625 -1.21875 27.15625 -1.21875 
Q 17.390625 -1.21875 11.203125 4.25 
Q 5.03125 9.71875 4.15625 18.75 
z
" id="ArialMT-53"/>
      </defs>
      <g style="fill:#262626;" transform="translate(78.798569 174.997813)scale(0.1 -0.1)">
       <use xlink:href="#ArialMT-48"/>
       <use x="55.615234" xlink:href="#ArialMT-46"/>
       <use x="83.398438" xlink:href="#ArialMT-53"/>
      </g>
     </g>
    </g>
    <g id="xtick_2">
     <g id="line2d_3">
      <path clip-path="url(#p0445d44be5)" d="M 122.83887 160.84 
L 122.83887 32.4092 
" style="fill:none;stroke:#ffffff;stroke-linecap:round;"/>
     </g>
     <g id="line2d_4"/>
     <g id="text_2">
      <!-- 1.0 -->
      <defs>
       <path d="M 37.25 0 
L 28.46875 0 
L 28.46875 56 
Q 25.296875 52.984375 20.140625 49.953125 
Q 14.984375 46.921875 10.890625 45.40625 
L 10.890625 53.90625 
Q 18.265625 57.375 23.78125 62.296875 
Q 29.296875 67.234375 31.59375 71.875 
L 37.25 71.875 
z
" id="ArialMT-49"/>
      </defs>
      <g style="fill:#262626;" transform="translate(115.88887 174.997813)scale(0.1 -0.1)">
       <use xlink:href="#ArialMT-49"/>
       <use x="55.615234" xlink:href="#ArialMT-46"/>
       <use x="83.398438" xlink:href="#ArialMT-48"/>
      </g>
     </g>
    </g>
    <g id="xtick_3">
     <g id="line2d_5">
      <path clip-path="url(#p0445d44be5)" d="M 159.929171 160.84 
L 159.929171 32.4092 
" style="fill:none;stroke:#ffffff;stroke-linecap:round;"/>
     </g>
     <g id="line2d_6"/>
     <g id="text_3">
      <!-- 1.5 -->
      <g style="fill:#262626;" transform="translate(152.979171 174.997813)scale(0.1 -0.1)">
       <use xlink:href="#ArialMT-49"/>
       <use x="55.615234" xlink:href="#ArialMT-46"/>
       <use x="83.398438" xlink:href="#ArialMT-53"/>
      </g>
     </g>
    </g>
    <g id="xtick_4">
     <g id="line2d_7">
      <path clip-path="url(#p0445d44be5)" d="M 197.019472 160.84 
L 197.019472 32.4092 
" style="fill:none;stroke:#ffffff;stroke-linecap:round;"/>
     </g>
     <g id="line2d_8"/>
     <g id="text_4">
      <!-- 2.0 -->
      <defs>
       <path d="M 50.34375 8.453125 
L 50.34375 0 
L 3.03125 0 
Q 2.9375 3.171875 4.046875 6.109375 
Q 5.859375 10.9375 9.828125 15.625 
Q 13.8125 20.3125 21.34375 26.46875 
Q 33.015625 36.03125 37.109375 41.625 
Q 41.21875 47.21875 41.21875 52.203125 
Q 41.21875 57.421875 37.46875 61 
Q 33.734375 64.59375 27.734375 64.59375 
Q 21.390625 64.59375 17.578125 60.78125 
Q 13.765625 56.984375 13.71875 50.25 
L 4.6875 51.171875 
Q 5.609375 61.28125 11.65625 66.578125 
Q 17.71875 71.875 27.9375 71.875 
Q 38.234375 71.875 44.234375 66.15625 
Q 50.25 60.453125 50.25 52 
Q 50.25 47.703125 48.484375 43.546875 
Q 46.734375 39.40625 42.65625 34.8125 
Q 38.578125 30.21875 29.109375 22.21875 
Q 21.1875 15.578125 18.9375 13.203125 
Q 16.703125 10.84375 15.234375 8.453125 
z
" id="ArialMT-50"/>
      </defs>
      <g style="fill:#262626;" transform="translate(190.069472 174.997813)scale(0.1 -0.1)">
       <use xlink:href="#ArialMT-50"/>
       <use x="55.615234" xlink:href="#ArialMT-46"/>
       <use x="83.398438" xlink:href="#ArialMT-48"/>
      </g>
     </g>
    </g>
    <g id="xtick_5">
     <g id="line2d_9">
      <path clip-path="url(#p0445d44be5)" d="M 234.109773 160.84 
L 234.109773 32.4092 
" style="fill:none;stroke:#ffffff;stroke-linecap:round;"/>
     </g>
     <g id="line2d_10"/>
     <g id="text_5">
      <!-- 2.5 -->
      <g style="fill:#262626;" transform="translate(227.159773 174.997813)scale(0.1 -0.1)">
       <use xlink:href="#ArialMT-50"/>
       <use x="55.615234" xlink:href="#ArialMT-46"/>
       <use x="83.398438" xlink:href="#ArialMT-53"/>
      </g>
     </g>
    </g>
    <g id="text_6">
     <!-- TotalEnvInteracts -->
     <defs>
      <path d="M 25.921875 0 
L 25.921875 63.140625 
L 2.34375 63.140625 
L 2.34375 71.578125 
L 59.078125 71.578125 
L 59.078125 63.140625 
L 35.40625 63.140625 
L 35.40625 0 
z
" id="ArialMT-84"/>
      <path d="M 3.328125 25.921875 
Q 3.328125 40.328125 11.328125 47.265625 
Q 18.015625 53.03125 27.640625 53.03125 
Q 38.328125 53.03125 45.109375 46.015625 
Q 51.90625 39.015625 51.90625 26.65625 
Q 51.90625 16.65625 48.90625 10.90625 
Q 45.90625 5.171875 40.15625 2 
Q 34.421875 -1.171875 27.640625 -1.171875 
Q 16.75 -1.171875 10.03125 5.8125 
Q 3.328125 12.796875 3.328125 25.921875 
z
M 12.359375 25.921875 
Q 12.359375 15.96875 16.703125 11.015625 
Q 21.046875 6.0625 27.640625 6.0625 
Q 34.1875 6.0625 38.53125 11.03125 
Q 42.875 16.015625 42.875 26.21875 
Q 42.875 35.84375 38.5 40.796875 
Q 34.125 45.75 27.640625 45.75 
Q 21.046875 45.75 16.703125 40.8125 
Q 12.359375 35.890625 12.359375 25.921875 
z
" id="ArialMT-111"/>
      <path d="M 25.78125 7.859375 
L 27.046875 0.09375 
Q 23.34375 -0.6875 20.40625 -0.6875 
Q 15.625 -0.6875 12.984375 0.828125 
Q 10.359375 2.34375 9.28125 4.8125 
Q 8.203125 7.28125 8.203125 15.1875 
L 8.203125 45.015625 
L 1.765625 45.015625 
L 1.765625 51.859375 
L 8.203125 51.859375 
L 8.203125 64.703125 
L 16.9375 69.96875 
L 16.9375 51.859375 
L 25.78125 51.859375 
L 25.78125 45.015625 
L 16.9375 45.015625 
L 16.9375 14.703125 
Q 16.9375 10.9375 17.40625 9.859375 
Q 17.875 8.796875 18.921875 8.15625 
Q 19.96875 7.515625 21.921875 7.515625 
Q 23.390625 7.515625 25.78125 7.859375 
z
" id="ArialMT-116"/>
      <path d="M 40.4375 6.390625 
Q 35.546875 2.25 31.03125 0.53125 
Q 26.515625 -1.171875 21.34375 -1.171875 
Q 12.796875 -1.171875 8.203125 3 
Q 3.609375 7.171875 3.609375 13.671875 
Q 3.609375 17.484375 5.34375 20.625 
Q 7.078125 23.78125 9.890625 25.6875 
Q 12.703125 27.59375 16.21875 28.5625 
Q 18.796875 29.25 24.03125 29.890625 
Q 34.671875 31.15625 39.703125 32.90625 
Q 39.75 34.71875 39.75 35.203125 
Q 39.75 40.578125 37.25 42.78125 
Q 33.890625 45.75 27.25 45.75 
Q 21.046875 45.75 18.09375 43.578125 
Q 15.140625 41.40625 13.71875 35.890625 
L 5.125 37.0625 
Q 6.296875 42.578125 8.984375 45.96875 
Q 11.671875 49.359375 16.75 51.1875 
Q 21.828125 53.03125 28.515625 53.03125 
Q 35.15625 53.03125 39.296875 51.46875 
Q 43.453125 49.90625 45.40625 47.53125 
Q 47.359375 45.171875 48.140625 41.546875 
Q 48.578125 39.3125 48.578125 33.453125 
L 48.578125 21.734375 
Q 48.578125 9.46875 49.140625 6.21875 
Q 49.703125 2.984375 51.375 0 
L 42.1875 0 
Q 40.828125 2.734375 40.4375 6.390625 
z
M 39.703125 26.03125 
Q 34.90625 24.078125 25.34375 22.703125 
Q 19.921875 21.921875 17.671875 20.9375 
Q 15.4375 19.96875 14.203125 18.09375 
Q 12.984375 16.21875 12.984375 13.921875 
Q 12.984375 10.40625 15.640625 8.0625 
Q 18.3125 5.71875 23.4375 5.71875 
Q 28.515625 5.71875 32.46875 7.9375 
Q 36.421875 10.15625 38.28125 14.015625 
Q 39.703125 17 39.703125 22.796875 
z
" id="ArialMT-97"/>
      <path d="M 6.390625 0 
L 6.390625 71.578125 
L 15.1875 71.578125 
L 15.1875 0 
z
" id="ArialMT-108"/>
      <path d="M 7.90625 0 
L 7.90625 71.578125 
L 59.671875 71.578125 
L 59.671875 63.140625 
L 17.390625 63.140625 
L 17.390625 41.21875 
L 56.984375 41.21875 
L 56.984375 32.8125 
L 17.390625 32.8125 
L 17.390625 8.453125 
L 61.328125 8.453125 
L 61.328125 0 
z
" id="ArialMT-69"/>
      <path d="M 6.59375 0 
L 6.59375 51.859375 
L 14.5 51.859375 
L 14.5 44.484375 
Q 20.21875 53.03125 31 53.03125 
Q 35.6875 53.03125 39.625 51.34375 
Q 43.5625 49.65625 45.515625 46.921875 
Q 47.46875 44.1875 48.25 40.4375 
Q 48.734375 37.984375 48.734375 31.890625 
L 48.734375 0 
L 39.9375 0 
L 39.9375 31.546875 
Q 39.9375 36.921875 38.90625 39.578125 
Q 37.890625 42.234375 35.28125 43.8125 
Q 32.671875 45.40625 29.15625 45.40625 
Q 23.53125 45.40625 19.453125 41.84375 
Q 15.375 38.28125 15.375 28.328125 
L 15.375 0 
z
" id="ArialMT-110"/>
      <path d="M 21 0 
L 1.265625 51.859375 
L 10.546875 51.859375 
L 21.6875 20.796875 
Q 23.484375 15.765625 25 10.359375 
Q 26.171875 14.453125 28.265625 20.21875 
L 39.796875 51.859375 
L 48.828125 51.859375 
L 29.203125 0 
z
" id="ArialMT-118"/>
      <path d="M 9.328125 0 
L 9.328125 71.578125 
L 18.796875 71.578125 
L 18.796875 0 
z
" id="ArialMT-73"/>
      <path d="M 42.09375 16.703125 
L 51.171875 15.578125 
Q 49.03125 7.625 43.21875 3.21875 
Q 37.40625 -1.171875 28.375 -1.171875 
Q 17 -1.171875 10.328125 5.828125 
Q 3.65625 12.84375 3.65625 25.484375 
Q 3.65625 38.578125 10.390625 45.796875 
Q 17.140625 53.03125 27.875 53.03125 
Q 38.28125 53.03125 44.875 45.953125 
Q 51.46875 38.875 51.46875 26.03125 
Q 51.46875 25.25 51.421875 23.6875 
L 12.75 23.6875 
Q 13.234375 15.140625 17.578125 10.59375 
Q 21.921875 6.0625 28.421875 6.0625 
Q 33.25 6.0625 36.671875 8.59375 
Q 40.09375 11.140625 42.09375 16.703125 
z
M 13.234375 30.90625 
L 42.1875 30.90625 
Q 41.609375 37.453125 38.875 40.71875 
Q 34.671875 45.796875 27.984375 45.796875 
Q 21.921875 45.796875 17.796875 41.75 
Q 13.671875 37.703125 13.234375 30.90625 
z
" id="ArialMT-101"/>
      <path d="M 6.5 0 
L 6.5 51.859375 
L 14.40625 51.859375 
L 14.40625 44 
Q 17.4375 49.515625 20 51.265625 
Q 22.5625 53.03125 25.640625 53.03125 
Q 30.078125 53.03125 34.671875 50.203125 
L 31.640625 42.046875 
Q 28.421875 43.953125 25.203125 43.953125 
Q 22.3125 43.953125 20.015625 42.21875 
Q 17.71875 40.484375 16.75 37.40625 
Q 15.28125 32.71875 15.28125 27.15625 
L 15.28125 0 
z
" id="ArialMT-114"/>
      <path d="M 40.4375 19 
L 49.078125 17.875 
Q 47.65625 8.9375 41.8125 3.875 
Q 35.984375 -1.171875 27.484375 -1.171875 
Q 16.84375 -1.171875 10.375 5.78125 
Q 3.90625 12.75 3.90625 25.734375 
Q 3.90625 34.125 6.6875 40.421875 
Q 9.46875 46.734375 15.15625 49.875 
Q 20.84375 53.03125 27.546875 53.03125 
Q 35.984375 53.03125 41.359375 48.75 
Q 46.734375 44.484375 48.25 36.625 
L 39.703125 35.296875 
Q 38.484375 40.53125 35.375 43.15625 
Q 32.28125 45.796875 27.875 45.796875 
Q 21.234375 45.796875 17.078125 41.03125 
Q 12.9375 36.28125 12.9375 25.984375 
Q 12.9375 15.53125 16.9375 10.796875 
Q 20.953125 6.0625 27.390625 6.0625 
Q 32.5625 6.0625 36.03125 9.234375 
Q 39.5 12.40625 40.4375 19 
z
" id="ArialMT-99"/>
      <path d="M 3.078125 15.484375 
L 11.765625 16.84375 
Q 12.5 11.625 15.84375 8.84375 
Q 19.1875 6.0625 25.203125 6.0625 
Q 31.25 6.0625 34.171875 8.515625 
Q 37.109375 10.984375 37.109375 14.3125 
Q 37.109375 17.28125 34.515625 19 
Q 32.71875 20.171875 25.53125 21.96875 
Q 15.875 24.421875 12.140625 26.203125 
Q 8.40625 27.984375 6.46875 31.125 
Q 4.546875 34.28125 4.546875 38.09375 
Q 4.546875 41.546875 6.125 44.5 
Q 7.71875 47.46875 10.453125 49.421875 
Q 12.5 50.921875 16.03125 51.96875 
Q 19.578125 53.03125 23.640625 53.03125 
Q 29.734375 53.03125 34.34375 51.265625 
Q 38.96875 49.515625 41.15625 46.5 
Q 43.359375 43.5 44.1875 38.484375 
L 35.59375 37.3125 
Q 35.015625 41.3125 32.203125 43.546875 
Q 29.390625 45.796875 24.265625 45.796875 
Q 18.21875 45.796875 15.625 43.796875 
Q 13.03125 41.796875 13.03125 39.109375 
Q 13.03125 37.40625 14.109375 36.03125 
Q 15.1875 34.625 17.484375 33.6875 
Q 18.796875 33.203125 25.25 31.453125 
Q 34.578125 28.953125 38.25 27.359375 
Q 41.9375 25.78125 44.03125 22.75 
Q 46.140625 19.734375 46.140625 15.234375 
Q 46.140625 10.84375 43.578125 6.953125 
Q 41.015625 3.078125 36.171875 0.953125 
Q 31.34375 -1.171875 25.25 -1.171875 
Q 15.140625 -1.171875 9.84375 3.03125 
Q 4.546875 7.234375 3.078125 15.484375 
z
" id="ArialMT-115"/>
     </defs>
     <g style="fill:#262626;" transform="translate(117.515156 188.858906)scale(0.11 -0.11)">
      <use xlink:href="#ArialMT-84"/>
      <use x="60.912109" xlink:href="#ArialMT-111"/>
      <use x="116.527344" xlink:href="#ArialMT-116"/>
      <use x="144.310547" xlink:href="#ArialMT-97"/>
      <use x="199.925781" xlink:href="#ArialMT-108"/>
      <use x="222.142578" xlink:href="#ArialMT-69"/>
      <use x="288.841797" xlink:href="#ArialMT-110"/>
      <use x="344.457031" xlink:href="#ArialMT-118"/>
      <use x="394.457031" xlink:href="#ArialMT-73"/>
      <use x="422.240234" xlink:href="#ArialMT-110"/>
      <use x="477.855469" xlink:href="#ArialMT-116"/>
      <use x="505.638672" xlink:href="#ArialMT-101"/>
      <use x="561.253906" xlink:href="#ArialMT-114"/>
      <use x="594.554688" xlink:href="#ArialMT-97"/>
      <use x="650.169922" xlink:href="#ArialMT-99"/>
      <use x="700.169922" xlink:href="#ArialMT-116"/>
      <use x="727.953125" xlink:href="#ArialMT-115"/>
     </g>
    </g>
    <g id="text_7">
     <!-- 1e6 -->
     <defs>
      <path d="M 49.75 54.046875 
L 41.015625 53.375 
Q 39.84375 58.546875 37.703125 60.890625 
Q 34.125 64.65625 28.90625 64.65625 
Q 24.703125 64.65625 21.53125 62.3125 
Q 17.390625 59.28125 14.984375 53.46875 
Q 12.59375 47.65625 12.5 36.921875 
Q 15.671875 41.75 20.265625 44.09375 
Q 24.859375 46.4375 29.890625 46.4375 
Q 38.671875 46.4375 44.84375 39.96875 
Q 51.03125 33.5 51.03125 23.25 
Q 51.03125 16.5 48.125 10.71875 
Q 45.21875 4.9375 40.140625 1.859375 
Q 35.0625 -1.21875 28.609375 -1.21875 
Q 17.625 -1.21875 10.6875 6.859375 
Q 3.765625 14.9375 3.765625 33.5 
Q 3.765625 54.25 11.421875 63.671875 
Q 18.109375 71.875 29.4375 71.875 
Q 37.890625 71.875 43.28125 67.140625 
Q 48.6875 62.40625 49.75 54.046875 
z
M 13.875 23.1875 
Q 13.875 18.65625 15.796875 14.5 
Q 17.71875 10.359375 21.1875 8.171875 
Q 24.65625 6 28.46875 6 
Q 34.03125 6 38.03125 10.484375 
Q 42.046875 14.984375 42.046875 22.703125 
Q 42.046875 30.125 38.078125 34.390625 
Q 34.125 38.671875 28.125 38.671875 
Q 22.171875 38.671875 18.015625 34.390625 
Q 13.875 30.125 13.875 23.1875 
z
" id="ArialMT-54"/>
     </defs>
     <g style="fill:#262626;" transform="translate(254.517187 187.143125)scale(0.1 -0.1)">
      <use xlink:href="#ArialMT-49"/>
      <use x="55.615234" xlink:href="#ArialMT-101"/>
      <use x="111.230469" xlink:href="#ArialMT-54"/>
     </g>
    </g>
   </g>
   <g id="matplotlib.axis_2">
    <g id="ytick_1">
     <g id="line2d_11">
      <path clip-path="url(#p0445d44be5)" d="M 49.4 159.843346 
L 271.2 159.843346 
" style="fill:none;stroke:#ffffff;stroke-linecap:round;"/>
     </g>
     <g id="line2d_12"/>
     <g id="text_8">
      <!-- 0 -->
      <g style="fill:#262626;" transform="translate(36.839062 163.422253)scale(0.1 -0.1)">
       <use xlink:href="#ArialMT-48"/>
      </g>
     </g>
    </g>
    <g id="ytick_2">
     <g id="line2d_13">
      <path clip-path="url(#p0445d44be5)" d="M 49.4 118.752872 
L 271.2 118.752872 
" style="fill:none;stroke:#ffffff;stroke-linecap:round;"/>
     </g>
     <g id="line2d_14"/>
     <g id="text_9">
      <!-- 2000 -->
      <g style="fill:#262626;" transform="translate(20.15625 122.331778)scale(0.1 -0.1)">
       <use xlink:href="#ArialMT-50"/>
       <use x="55.615234" xlink:href="#ArialMT-48"/>
       <use x="111.230469" xlink:href="#ArialMT-48"/>
       <use x="166.845703" xlink:href="#ArialMT-48"/>
      </g>
     </g>
    </g>
    <g id="ytick_3">
     <g id="line2d_15">
      <path clip-path="url(#p0445d44be5)" d="M 49.4 77.662398 
L 271.2 77.662398 
" style="fill:none;stroke:#ffffff;stroke-linecap:round;"/>
     </g>
     <g id="line2d_16"/>
     <g id="text_10">
      <!-- 4000 -->
      <defs>
       <path d="M 32.328125 0 
L 32.328125 17.140625 
L 1.265625 17.140625 
L 1.265625 25.203125 
L 33.9375 71.578125 
L 41.109375 71.578125 
L 41.109375 25.203125 
L 50.78125 25.203125 
L 50.78125 17.140625 
L 41.109375 17.140625 
L 41.109375 0 
z
M 32.328125 25.203125 
L 32.328125 57.46875 
L 9.90625 25.203125 
z
" id="ArialMT-52"/>
      </defs>
      <g style="fill:#262626;" transform="translate(20.15625 81.241304)scale(0.1 -0.1)">
       <use xlink:href="#ArialMT-52"/>
       <use x="55.615234" xlink:href="#ArialMT-48"/>
       <use x="111.230469" xlink:href="#ArialMT-48"/>
       <use x="166.845703" xlink:href="#ArialMT-48"/>
      </g>
     </g>
    </g>
    <g id="ytick_4">
     <g id="line2d_17">
      <path clip-path="url(#p0445d44be5)" d="M 49.4 36.571924 
L 271.2 36.571924 
" style="fill:none;stroke:#ffffff;stroke-linecap:round;"/>
     </g>
     <g id="line2d_18"/>
     <g id="text_11">
      <!-- 6000 -->
      <g style="fill:#262626;" transform="translate(20.15625 40.15083)scale(0.1 -0.1)">
       <use xlink:href="#ArialMT-54"/>
       <use x="55.615234" xlink:href="#ArialMT-48"/>
       <use x="111.230469" xlink:href="#ArialMT-48"/>
       <use x="166.845703" xlink:href="#ArialMT-48"/>
      </g>
     </g>
    </g>
    <g id="text_12">
     <!-- Performance -->
     <defs>
      <path d="M 7.71875 0 
L 7.71875 71.578125 
L 34.71875 71.578125 
Q 41.84375 71.578125 45.609375 70.90625 
Q 50.875 70.015625 54.4375 67.546875 
Q 58.015625 65.09375 60.1875 60.640625 
Q 62.359375 56.203125 62.359375 50.875 
Q 62.359375 41.75 56.546875 35.421875 
Q 50.734375 29.109375 35.546875 29.109375 
L 17.1875 29.109375 
L 17.1875 0 
z
M 17.1875 37.546875 
L 35.6875 37.546875 
Q 44.875 37.546875 48.734375 40.96875 
Q 52.59375 44.390625 52.59375 50.59375 
Q 52.59375 55.078125 50.3125 58.265625 
Q 48.046875 61.46875 44.34375 62.5 
Q 41.9375 63.140625 35.5 63.140625 
L 17.1875 63.140625 
z
" id="ArialMT-80"/>
      <path d="M 8.6875 0 
L 8.6875 45.015625 
L 0.921875 45.015625 
L 0.921875 51.859375 
L 8.6875 51.859375 
L 8.6875 57.375 
Q 8.6875 62.59375 9.625 65.140625 
Q 10.890625 68.5625 14.078125 70.671875 
Q 17.28125 72.796875 23.046875 72.796875 
Q 26.765625 72.796875 31.25 71.921875 
L 29.9375 64.265625 
Q 27.203125 64.75 24.75 64.75 
Q 20.75 64.75 19.09375 63.03125 
Q 17.4375 61.328125 17.4375 56.640625 
L 17.4375 51.859375 
L 27.546875 51.859375 
L 27.546875 45.015625 
L 17.4375 45.015625 
L 17.4375 0 
z
" id="ArialMT-102"/>
      <path d="M 6.59375 0 
L 6.59375 51.859375 
L 14.453125 51.859375 
L 14.453125 44.578125 
Q 16.890625 48.390625 20.9375 50.703125 
Q 25 53.03125 30.171875 53.03125 
Q 35.9375 53.03125 39.625 50.640625 
Q 43.3125 48.25 44.828125 43.953125 
Q 50.984375 53.03125 60.84375 53.03125 
Q 68.5625 53.03125 72.703125 48.75 
Q 76.859375 44.484375 76.859375 35.59375 
L 76.859375 0 
L 68.109375 0 
L 68.109375 32.671875 
Q 68.109375 37.9375 67.25 40.25 
Q 66.40625 42.578125 64.15625 43.984375 
Q 61.921875 45.40625 58.890625 45.40625 
Q 53.421875 45.40625 49.796875 41.765625 
Q 46.1875 38.140625 46.1875 30.125 
L 46.1875 0 
L 37.40625 0 
L 37.40625 33.6875 
Q 37.40625 39.546875 35.25 42.46875 
Q 33.109375 45.40625 28.21875 45.40625 
Q 24.515625 45.40625 21.359375 43.453125 
Q 18.21875 41.5 16.796875 37.734375 
Q 15.375 33.984375 15.375 26.90625 
L 15.375 0 
z
" id="ArialMT-109"/>
     </defs>
     <g style="fill:#262626;" transform="translate(13.97 128.107803)rotate(-90)scale(0.11 -0.11)">
      <use xlink:href="#ArialMT-80"/>
      <use x="66.699219" xlink:href="#ArialMT-101"/>
      <use x="122.314453" xlink:href="#ArialMT-114"/>
      <use x="155.615234" xlink:href="#ArialMT-102"/>
      <use x="183.398438" xlink:href="#ArialMT-111"/>
      <use x="239.013672" xlink:href="#ArialMT-114"/>
      <use x="272.314453" xlink:href="#ArialMT-109"/>
      <use x="355.615234" xlink:href="#ArialMT-97"/>
      <use x="411.230469" xlink:href="#ArialMT-110"/>
      <use x="466.845703" xlink:href="#ArialMT-99"/>
      <use x="516.845703" xlink:href="#ArialMT-101"/>
     </g>
    </g>
   </g>
   <g id="PolyCollection_1">
    <path clip-path="url(#p0445d44be5)" d="M 49.4 152.245114 
L 49.4 155.002236 
L 50.141806 154.073098 
L 50.883612 153.498385 
L 51.625418 152.705992 
L 52.367224 151.722441 
L 53.10903 151.376583 
L 53.850836 150.877188 
L 54.592642 150.350413 
L 55.334448 149.351707 
L 56.076254 147.335802 
L 56.81806 145.466074 
L 57.559866 143.264478 
L 58.301672 141.085439 
L 59.043478 139.579864 
L 59.785284 136.408672 
L 60.52709 134.121785 
L 61.268896 131.570807 
L 62.010702 128.427684 
L 62.752508 124.789212 
L 63.494314 121.658072 
L 64.23612 120.548001 
L 64.977926 119.86315 
L 65.719732 118.926873 
L 66.461538 119.097096 
L 67.203344 117.218483 
L 67.945151 115.893608 
L 68.686957 113.821023 
L 69.428763 112.097995 
L 70.170569 110.706222 
L 70.912375 110.512951 
L 71.654181 108.732917 
L 72.395987 106.949845 
L 73.137793 104.892652 
L 73.879599 102.700905 
L 74.621405 100.73253 
L 75.363211 99.317044 
L 76.105017 98.074143 
L 76.846823 97.409847 
L 77.588629 96.559948 
L 78.330435 95.563121 
L 79.072241 93.611338 
L 79.814047 94.361859 
L 80.555853 93.068224 
L 81.297659 93.810528 
L 82.039465 93.035786 
L 82.781271 91.095861 
L 83.523077 91.084367 
L 84.264883 89.781368 
L 85.006689 88.437485 
L 85.748495 87.545027 
L 86.490301 86.986132 
L 87.232107 86.172418 
L 87.973913 84.879279 
L 88.715719 84.031735 
L 89.457525 80.703187 
L 90.199331 80.277864 
L 90.941137 79.991171 
L 91.682943 79.249132 
L 92.424749 78.792909 
L 93.166555 78.434551 
L 93.908361 77.568075 
L 94.650167 78.80434 
L 95.391973 81.260187 
L 96.133779 82.263408 
L 96.875585 81.473 
L 97.617391 81.578464 
L 98.359197 82.114346 
L 99.101003 81.715307 
L 99.842809 80.728768 
L 100.584615 80.329178 
L 101.326421 80.169537 
L 102.068227 81.563025 
L 102.810033 80.045294 
L 103.551839 79.389154 
L 104.293645 81.068547 
L 105.035452 78.425298 
L 105.777258 76.548733 
L 106.519064 75.188635 
L 107.26087 74.684848 
L 108.002676 74.761901 
L 108.744482 75.918048 
L 109.486288 75.820105 
L 110.228094 75.058161 
L 110.9699 73.728555 
L 111.711706 71.794224 
L 112.453512 71.046501 
L 113.195318 71.472789 
L 113.937124 70.684862 
L 114.67893 70.784572 
L 115.420736 70.202472 
L 116.162542 70.050892 
L 116.904348 69.718943 
L 117.646154 69.474237 
L 118.38796 69.4053 
L 119.129766 68.944078 
L 119.871572 68.875933 
L 120.613378 68.636106 
L 121.355184 68.421205 
L 122.09699 68.449112 
L 122.838796 68.638141 
L 123.580602 68.839278 
L 124.322408 68.924156 
L 125.064214 68.896801 
L 125.80602 68.923052 
L 126.547826 70.922195 
L 127.289632 72.192743 
L 128.031438 72.130768 
L 128.773244 72.007586 
L 129.51505 72.810029 
L 130.256856 73.181136 
L 130.998662 72.327347 
L 131.740468 74.386531 
L 132.482274 74.73467 
L 133.22408 75.28181 
L 133.965886 75.993845 
L 134.707692 74.556467 
L 135.449498 74.022915 
L 136.191304 78.348146 
L 136.93311 80.03498 
L 137.674916 79.629031 
L 138.416722 79.583558 
L 139.158528 80.705289 
L 139.900334 81.88286 
L 140.64214 81.018637 
L 141.383946 81.781543 
L 142.125753 80.86142 
L 142.867559 78.777987 
L 143.609365 78.034993 
L 144.351171 74.118288 
L 145.092977 74.143247 
L 145.834783 73.251746 
L 146.576589 72.783623 
L 147.318395 71.578131 
L 148.060201 69.942056 
L 148.802007 69.919665 
L 149.543813 69.227277 
L 150.285619 69.295312 
L 151.027425 69.770881 
L 151.769231 67.113588 
L 152.511037 66.887422 
L 153.252843 67.82994 
L 153.994649 70.616224 
L 154.736455 73.046599 
L 155.478261 73.564306 
L 156.220067 74.554852 
L 156.961873 74.31772 
L 157.703679 74.154097 
L 158.445485 74.056929 
L 159.187291 73.453433 
L 159.929097 73.415258 
L 160.670903 69.853856 
L 161.412709 66.822869 
L 162.154515 65.106935 
L 162.896321 63.480775 
L 163.638127 63.044451 
L 164.379933 62.428941 
L 165.121739 62.79627 
L 165.863545 62.881093 
L 166.605351 62.728605 
L 167.347157 62.857798 
L 168.088963 62.817398 
L 168.830769 62.532663 
L 169.572575 62.497059 
L 170.314381 62.283227 
L 171.056187 61.893694 
L 171.797993 61.721546 
L 172.539799 63.458242 
L 173.281605 62.840966 
L 174.023411 62.700084 
L 174.765217 62.601361 
L 175.507023 62.259108 
L 176.248829 63.330686 
L 176.990635 63.110159 
L 177.732441 62.685834 
L 178.474247 61.875857 
L 179.216054 62.096179 
L 179.95786 61.948615 
L 180.699666 61.444071 
L 181.441472 61.081462 
L 182.183278 60.84959 
L 182.925084 61.384089 
L 183.66689 63.097762 
L 184.408696 61.678241 
L 185.150502 61.861778 
L 185.892308 62.123445 
L 186.634114 64.490551 
L 187.37592 66.888082 
L 188.117726 69.074335 
L 188.859532 69.671609 
L 189.601338 69.962625 
L 190.343144 70.21289 
L 191.08495 69.777731 
L 191.826756 68.713272 
L 192.568562 68.680342 
L 193.310368 67.791671 
L 194.052174 67.341092 
L 194.79398 62.638841 
L 195.535786 60.443123 
L 196.277592 58.855029 
L 197.019398 59.62501 
L 197.761204 60.578738 
L 198.50301 62.743418 
L 199.244816 64.974894 
L 199.986622 66.780782 
L 200.728428 67.565719 
L 201.470234 68.297472 
L 202.21204 68.579299 
L 202.953846 68.483527 
L 203.695652 68.803235 
L 204.437458 68.918895 
L 205.179264 66.580793 
L 205.92107 65.794391 
L 206.662876 64.261978 
L 207.404682 61.325671 
L 208.146488 59.27526 
L 208.888294 59.016574 
L 209.6301 59.310096 
L 210.371906 59.133369 
L 211.113712 59.092039 
L 211.855518 58.985733 
L 212.597324 58.897586 
L 213.33913 59.425146 
L 214.080936 59.467309 
L 214.822742 59.518875 
L 215.564548 59.328471 
L 216.306355 58.718858 
L 217.048161 58.290308 
L 217.789967 57.674602 
L 218.531773 57.087741 
L 219.273579 56.938169 
L 220.015385 56.591607 
L 220.757191 56.537262 
L 221.498997 56.157167 
L 222.240803 55.594084 
L 222.982609 55.470314 
L 223.724415 55.438365 
L 224.466221 55.065344 
L 225.208027 55.034831 
L 225.949833 54.939927 
L 226.691639 57.016727 
L 227.433445 57.139903 
L 228.175251 57.026895 
L 228.917057 57.372799 
L 229.658863 57.658618 
L 230.400669 57.813868 
L 231.142475 57.660821 
L 231.884281 59.01293 
L 232.626087 59.138771 
L 233.367893 59.094136 
L 234.109699 59.521655 
L 234.851505 57.477407 
L 235.593311 57.424898 
L 236.335117 57.307257 
L 237.076923 56.764918 
L 237.818729 57.093448 
L 238.560535 57.187137 
L 239.302341 57.184488 
L 240.044147 55.8159 
L 240.785953 56.042389 
L 241.527759 55.985827 
L 242.269565 55.389733 
L 243.011371 55.390875 
L 243.753177 55.239839 
L 244.494983 56.465604 
L 245.236789 58.881049 
L 245.978595 59.570833 
L 246.720401 59.621862 
L 247.462207 59.637793 
L 248.204013 61.944494 
L 248.945819 62.048434 
L 249.687625 63.290473 
L 250.429431 66.359386 
L 251.171237 67.453446 
L 251.913043 67.44572 
L 252.654849 65.390201 
L 253.396656 64.137647 
L 254.138462 64.180024 
L 254.880268 64.528452 
L 255.622074 64.629372 
L 256.36388 62.591943 
L 257.105686 62.283665 
L 257.847492 60.254546 
L 258.589298 57.325574 
L 259.331104 56.72932 
L 260.07291 56.554033 
L 260.814716 56.473614 
L 261.556522 56.336785 
L 262.298328 56.397599 
L 263.040134 57.43977 
L 263.78194 58.824987 
L 264.523746 58.823468 
L 265.265552 58.703899 
L 266.007358 58.466512 
L 266.749164 58.150417 
L 267.49097 58.112899 
L 268.232776 58.889047 
L 268.974582 60.091403 
L 269.716388 61.332034 
L 270.458194 57.261686 
L 271.2 53.55942 
L 271.2 39.633461 
L 271.2 39.633461 
L 270.458194 38.883742 
L 269.716388 38.246964 
L 268.974582 38.732935 
L 268.232776 38.884674 
L 267.49097 39.14158 
L 266.749164 39.354453 
L 266.007358 39.268473 
L 265.265552 39.174463 
L 264.523746 39.053205 
L 263.78194 39.24348 
L 263.040134 39.969292 
L 262.298328 40.317867 
L 261.556522 39.639477 
L 260.814716 40.013255 
L 260.07291 40.416098 
L 259.331104 40.674277 
L 258.589298 41.409677 
L 257.847492 42.239014 
L 257.105686 42.206811 
L 256.36388 42.190088 
L 255.622074 42.41685 
L 254.880268 42.486684 
L 254.138462 41.985329 
L 253.396656 40.713861 
L 252.654849 41.01242 
L 251.913043 40.550163 
L 251.171237 40.596462 
L 250.429431 40.408943 
L 249.687625 39.577344 
L 248.945819 38.954238 
L 248.204013 38.994624 
L 247.462207 38.990299 
L 246.720401 38.955954 
L 245.978595 39.856929 
L 245.236789 41.02036 
L 244.494983 41.137944 
L 243.753177 40.64059 
L 243.011371 40.575989 
L 242.269565 40.591325 
L 241.527759 40.811506 
L 240.785953 40.693864 
L 240.044147 41.017088 
L 239.302341 42.367206 
L 238.560535 42.366587 
L 237.818729 41.486909 
L 237.076923 41.346337 
L 236.335117 43.02246 
L 235.593311 43.353307 
L 234.851505 43.419857 
L 234.109699 43.434618 
L 233.367893 43.671211 
L 232.626087 43.962233 
L 231.884281 44.03717 
L 231.142475 42.731157 
L 230.400669 42.969712 
L 229.658863 43.24067 
L 228.917057 42.870818 
L 228.175251 41.71469 
L 227.433445 41.439917 
L 226.691639 41.130299 
L 225.949833 41.364346 
L 225.208027 41.326987 
L 224.466221 41.097616 
L 223.724415 40.843047 
L 222.982609 40.876626 
L 222.240803 40.876367 
L 221.498997 40.723665 
L 220.757191 41.292352 
L 220.015385 41.044654 
L 219.273579 41.718905 
L 218.531773 41.963123 
L 217.789967 42.570213 
L 217.048161 42.177641 
L 216.306355 42.602816 
L 215.564548 43.042574 
L 214.822742 43.267015 
L 214.080936 43.266047 
L 213.33913 44.105047 
L 212.597324 44.461026 
L 211.855518 44.672147 
L 211.113712 44.102919 
L 210.371906 43.894037 
L 209.6301 43.448914 
L 208.888294 43.9932 
L 208.146488 43.867637 
L 207.404682 43.386257 
L 206.662876 42.347057 
L 205.92107 42.552254 
L 205.179264 42.495512 
L 204.437458 41.68112 
L 203.695652 41.758552 
L 202.953846 41.882982 
L 202.21204 42.176691 
L 201.470234 41.882169 
L 200.728428 42.400571 
L 199.986622 42.542225 
L 199.244816 42.026864 
L 198.50301 42.409709 
L 197.761204 43.261321 
L 197.019398 42.855391 
L 196.277592 42.524757 
L 195.535786 44.052719 
L 194.79398 44.961021 
L 194.052174 45.808293 
L 193.310368 45.955464 
L 192.568562 45.665389 
L 191.826756 45.889062 
L 191.08495 47.039915 
L 190.343144 47.221735 
L 189.601338 47.356949 
L 188.859532 47.391111 
L 188.117726 49.538067 
L 187.37592 49.203761 
L 186.634114 49.009424 
L 185.892308 45.991616 
L 185.150502 45.601475 
L 184.408696 45.046996 
L 183.66689 45.377149 
L 182.925084 45.141139 
L 182.183278 45.258127 
L 181.441472 45.414534 
L 180.699666 45.543492 
L 179.95786 45.750731 
L 179.216054 45.59682 
L 178.474247 45.33375 
L 177.732441 45.51948 
L 176.990635 45.780357 
L 176.248829 45.576062 
L 175.507023 44.941273 
L 174.765217 44.859001 
L 174.023411 45.15702 
L 173.281605 45.147447 
L 172.539799 44.860227 
L 171.797993 44.52317 
L 171.056187 44.416652 
L 170.314381 45.279758 
L 169.572575 45.600102 
L 168.830769 45.21679 
L 168.088963 45.695569 
L 167.347157 45.903305 
L 166.605351 45.881819 
L 165.863545 45.432113 
L 165.121739 45.404654 
L 164.379933 45.393144 
L 163.638127 45.314896 
L 162.896321 45.500785 
L 162.154515 44.696526 
L 161.412709 43.887173 
L 160.670903 42.971778 
L 159.929097 41.480091 
L 159.187291 42.034965 
L 158.445485 42.049623 
L 157.703679 42.163018 
L 156.961873 42.236494 
L 156.220067 42.254146 
L 155.478261 43.113528 
L 154.736455 43.260113 
L 153.994649 44.390782 
L 153.252843 45.079011 
L 152.511037 46.34965 
L 151.769231 46.433737 
L 151.027425 45.387088 
L 150.285619 45.627106 
L 149.543813 46.036659 
L 148.802007 46.347565 
L 148.060201 46.697684 
L 147.318395 48.238878 
L 146.576589 48.086967 
L 145.834783 48.139545 
L 145.092977 48.76474 
L 144.351171 49.429954 
L 143.609365 48.032856 
L 142.867559 46.918307 
L 142.125753 46.883759 
L 141.383946 48.405818 
L 140.64214 50.354132 
L 139.900334 50.039047 
L 139.158528 49.502826 
L 138.416722 49.774915 
L 137.674916 49.820081 
L 136.93311 49.688211 
L 136.191304 49.663362 
L 135.449498 49.338001 
L 134.707692 48.606441 
L 133.965886 46.722468 
L 133.22408 45.46017 
L 132.482274 44.15628 
L 131.740468 44.56164 
L 130.998662 45.236876 
L 130.256856 45.052419 
L 129.51505 45.586247 
L 128.773244 46.552293 
L 128.031438 46.190415 
L 127.289632 46.737239 
L 126.547826 47.42057 
L 125.80602 48.612254 
L 125.064214 48.705146 
L 124.322408 48.931268 
L 123.580602 49.327978 
L 122.838796 49.691391 
L 122.09699 49.892722 
L 121.355184 50.026915 
L 120.613378 50.000951 
L 119.871572 50.413789 
L 119.129766 50.646143 
L 118.38796 51.057569 
L 117.646154 51.09282 
L 116.904348 51.328118 
L 116.162542 52.501551 
L 115.420736 52.35371 
L 114.67893 52.830421 
L 113.937124 53.513592 
L 113.195318 54.321179 
L 112.453512 54.090347 
L 111.711706 55.209796 
L 110.9699 55.264527 
L 110.228094 54.783959 
L 109.486288 55.595312 
L 108.744482 55.598436 
L 108.002676 55.824992 
L 107.26087 55.939593 
L 106.519064 55.794987 
L 105.777258 55.434597 
L 105.035452 54.191878 
L 104.293645 53.572194 
L 103.551839 55.568803 
L 102.810033 55.397565 
L 102.068227 55.454409 
L 101.326421 56.06641 
L 100.584615 56.645448 
L 99.842809 57.008848 
L 99.101003 57.114078 
L 98.359197 57.348687 
L 97.617391 57.750412 
L 96.875585 56.748057 
L 96.133779 55.327152 
L 95.391973 55.050023 
L 94.650167 55.730626 
L 93.908361 55.794394 
L 93.166555 56.374842 
L 92.424749 56.350715 
L 91.682943 56.924712 
L 90.941137 56.880941 
L 90.199331 57.361613 
L 89.457525 57.231479 
L 88.715719 57.373032 
L 87.973913 58.186685 
L 87.232107 58.947966 
L 86.490301 59.693704 
L 85.748495 60.542784 
L 85.006689 60.870815 
L 84.264883 61.465748 
L 83.523077 61.878229 
L 82.781271 62.523776 
L 82.039465 64.075305 
L 81.297659 65.239296 
L 80.555853 67.073796 
L 79.814047 66.940958 
L 79.072241 68.323867 
L 78.330435 68.295668 
L 77.588629 68.233069 
L 76.846823 68.487683 
L 76.105017 68.822565 
L 75.363211 69.364258 
L 74.621405 70.570426 
L 73.879599 69.460842 
L 73.137793 69.699845 
L 72.395987 70.319888 
L 71.654181 70.790897 
L 70.912375 72.329396 
L 70.170569 76.134927 
L 69.428763 77.48588 
L 68.686957 79.651821 
L 67.945151 81.87371 
L 67.203344 83.634505 
L 66.461538 85.826692 
L 65.719732 89.071919 
L 64.977926 92.490822 
L 64.23612 94.470815 
L 63.494314 98.404301 
L 62.752508 100.440398 
L 62.010702 101.954248 
L 61.268896 105.659217 
L 60.52709 108.145379 
L 59.785284 111.314136 
L 59.043478 114.263575 
L 58.301672 118.728434 
L 57.559866 121.691019 
L 56.81806 125.697184 
L 56.076254 129.349369 
L 55.334448 132.717816 
L 54.592642 136.425484 
L 53.850836 139.864379 
L 53.10903 143.133287 
L 52.367224 145.546115 
L 51.625418 147.169363 
L 50.883612 148.73278 
L 50.141806 150.068592 
L 49.4 152.245114 
z
" style="fill:#4c72b0;fill-opacity:0.2;"/>
   </g>
   <g id="PolyCollection_2">
    <path clip-path="url(#p0445d44be5)" d="M 49.4 150.804405 
L 49.4 154.716583 
L 50.141806 153.939688 
L 50.883612 153.591896 
L 51.625418 153.378395 
L 52.367224 152.803362 
L 53.10903 152.5004 
L 53.850836 152.039628 
L 54.592642 151.503821 
L 55.334448 150.502502 
L 56.076254 149.877068 
L 56.81806 149.965967 
L 57.559866 150.005828 
L 58.301672 150.116243 
L 59.043478 149.320457 
L 59.785284 148.998832 
L 60.52709 148.077824 
L 61.268896 147.398561 
L 62.010702 145.033828 
L 62.752508 142.996603 
L 63.494314 141.849157 
L 64.23612 139.730459 
L 64.977926 138.385618 
L 65.719732 135.521092 
L 66.461538 131.318969 
L 67.203344 128.15735 
L 67.945151 124.495744 
L 68.686957 121.829855 
L 69.428763 118.599121 
L 70.170569 117.036405 
L 70.912375 114.911007 
L 71.654181 112.218034 
L 72.395987 111.524112 
L 73.137793 109.313616 
L 73.879599 106.25808 
L 74.621405 105.221008 
L 75.363211 103.494368 
L 76.105017 101.796671 
L 76.846823 100.14483 
L 77.588629 100.679656 
L 78.330435 100.741104 
L 79.072241 100.167292 
L 79.814047 100.359986 
L 80.555853 98.083901 
L 81.297659 96.987778 
L 82.039465 96.549938 
L 82.781271 96.35049 
L 83.523077 97.053123 
L 84.264883 97.545592 
L 85.006689 97.80746 
L 85.748495 95.329439 
L 86.490301 93.669597 
L 87.232107 92.193435 
L 87.973913 93.146337 
L 88.715719 93.628405 
L 89.457525 95.312882 
L 90.199331 95.400027 
L 90.941137 94.929408 
L 91.682943 93.768941 
L 92.424749 92.694431 
L 93.166555 92.288524 
L 93.908361 91.52117 
L 94.650167 92.158581 
L 95.391973 92.886307 
L 96.133779 92.259963 
L 96.875585 90.796739 
L 97.617391 89.832357 
L 98.359197 89.71422 
L 99.101003 88.209971 
L 99.842809 89.095757 
L 100.584615 89.472189 
L 101.326421 89.677457 
L 102.068227 89.981107 
L 102.810033 89.701356 
L 103.551839 88.8224 
L 104.293645 86.884279 
L 105.035452 86.918559 
L 105.777258 86.069808 
L 106.519064 86.473476 
L 107.26087 87.049721 
L 108.002676 86.542661 
L 108.744482 85.489787 
L 109.486288 84.930618 
L 110.228094 85.215985 
L 110.9699 85.22466 
L 111.711706 85.618099 
L 112.453512 86.745508 
L 113.195318 86.653919 
L 113.937124 86.459664 
L 114.67893 85.553145 
L 115.420736 84.668578 
L 116.162542 84.043303 
L 116.904348 84.239855 
L 117.646154 84.313299 
L 118.38796 85.183949 
L 119.129766 85.808584 
L 119.871572 86.770483 
L 120.613378 86.252426 
L 121.355184 86.126192 
L 122.09699 85.931365 
L 122.838796 85.825128 
L 123.580602 85.817112 
L 124.322408 85.603776 
L 125.064214 85.117957 
L 125.80602 82.567819 
L 126.547826 81.072261 
L 127.289632 81.172463 
L 128.031438 81.256305 
L 128.773244 80.88732 
L 129.51505 81.141289 
L 130.256856 81.468469 
L 130.998662 81.279351 
L 131.740468 81.693372 
L 132.482274 81.642263 
L 133.22408 81.82045 
L 133.965886 81.765352 
L 134.707692 81.256507 
L 135.449498 79.789143 
L 136.191304 79.685712 
L 136.93311 79.707567 
L 137.674916 79.016718 
L 138.416722 78.381298 
L 139.158528 78.974382 
L 139.900334 79.079798 
L 140.64214 79.053636 
L 141.383946 78.341783 
L 142.125753 78.285246 
L 142.867559 78.22648 
L 143.609365 78.244571 
L 144.351171 78.067197 
L 145.092977 78.88027 
L 145.834783 79.033049 
L 146.576589 79.03501 
L 147.318395 77.851315 
L 148.060201 77.390503 
L 148.802007 77.194639 
L 149.543813 77.254709 
L 150.285619 77.035663 
L 151.027425 77.480476 
L 151.769231 77.072486 
L 152.511037 76.933649 
L 153.252843 76.068392 
L 153.994649 75.513971 
L 154.736455 75.606768 
L 155.478261 75.463759 
L 156.220067 75.371271 
L 156.961873 75.367299 
L 157.703679 74.951954 
L 158.445485 74.857737 
L 159.187291 74.72707 
L 159.929097 74.419001 
L 160.670903 74.362609 
L 161.412709 74.374646 
L 162.154515 74.099717 
L 162.896321 73.765127 
L 163.638127 73.643362 
L 164.379933 73.603365 
L 165.121739 73.402591 
L 165.863545 73.424258 
L 166.605351 74.288689 
L 167.347157 73.836854 
L 168.088963 73.310528 
L 168.830769 73.203645 
L 169.572575 72.727999 
L 170.314381 72.727999 
L 171.056187 72.709536 
L 171.797993 72.969908 
L 172.539799 72.914166 
L 173.281605 73.204033 
L 174.023411 72.992527 
L 174.765217 73.198694 
L 175.507023 73.221947 
L 176.248829 73.197193 
L 176.990635 73.751596 
L 177.732441 73.757702 
L 178.474247 74.481157 
L 179.216054 74.144872 
L 179.95786 73.810777 
L 180.699666 73.614795 
L 181.441472 73.302998 
L 182.183278 73.298352 
L 182.925084 73.650502 
L 183.66689 73.840382 
L 184.408696 73.669295 
L 185.150502 73.232693 
L 185.892308 73.098185 
L 186.634114 72.15394 
L 187.37592 72.170985 
L 188.117726 72.495043 
L 188.859532 73.686465 
L 189.601338 76.211945 
L 190.343144 78.345266 
L 191.08495 77.751965 
L 191.826756 78.04056 
L 192.568562 78.610016 
L 193.310368 78.545061 
L 194.052174 78.527433 
L 194.79398 79.0027 
L 195.535786 78.995001 
L 196.277592 77.161686 
L 197.019398 75.813511 
L 197.761204 74.454196 
L 198.50301 72.813916 
L 199.244816 71.509355 
L 199.986622 71.504413 
L 200.728428 71.133629 
L 201.470234 71.195924 
L 202.21204 70.903936 
L 202.953846 70.499492 
L 203.695652 70.463202 
L 204.437458 70.293268 
L 205.179264 68.76193 
L 205.92107 68.176621 
L 206.662876 67.985586 
L 207.404682 67.979622 
L 208.146488 68.031296 
L 208.888294 67.677559 
L 209.6301 67.498262 
L 210.371906 67.395346 
L 211.113712 67.236965 
L 211.855518 67.115306 
L 212.597324 67.227443 
L 213.33913 67.001243 
L 214.080936 66.718603 
L 214.822742 67.399226 
L 215.564548 67.478018 
L 216.306355 67.323852 
L 217.048161 67.33729 
L 217.789967 68.707397 
L 218.531773 68.741093 
L 219.273579 68.673752 
L 220.015385 68.684059 
L 220.757191 68.897689 
L 221.498997 68.989258 
L 222.240803 69.347143 
L 222.982609 68.512348 
L 223.724415 68.870004 
L 224.466221 68.97778 
L 225.208027 68.887978 
L 225.949833 67.753487 
L 226.691639 67.611802 
L 227.433445 67.666249 
L 228.175251 67.591668 
L 228.917057 66.936885 
L 229.658863 66.805027 
L 230.400669 68.291075 
L 231.142475 69.330166 
L 231.884281 68.823863 
L 232.626087 68.736307 
L 233.367893 69.078854 
L 234.109699 69.291419 
L 234.851505 69.372403 
L 235.593311 69.920582 
L 236.335117 70.084337 
L 237.076923 70.316867 
L 237.818729 70.416774 
L 238.560535 68.171294 
L 239.302341 67.074111 
L 240.044147 66.914468 
L 240.785953 66.974869 
L 241.527759 66.539569 
L 242.269565 67.879822 
L 243.011371 67.733091 
L 243.753177 66.471529 
L 244.494983 66.253511 
L 245.236789 66.126892 
L 245.978595 65.930098 
L 246.720401 65.742166 
L 247.462207 65.526251 
L 248.204013 65.370068 
L 248.945819 65.053927 
L 249.687625 65.134252 
L 250.429431 64.141321 
L 251.171237 63.989827 
L 251.913043 64.167516 
L 252.654849 65.159877 
L 253.396656 65.036062 
L 254.138462 65.036466 
L 254.880268 65.167855 
L 255.622074 65.070607 
L 256.36388 65.174924 
L 257.105686 66.006073 
L 257.847492 66.302414 
L 258.589298 66.489951 
L 259.331104 67.371299 
L 260.07291 67.30554 
L 260.814716 66.211611 
L 261.556522 66.276504 
L 262.298328 66.228709 
L 263.040134 66.380333 
L 263.78194 66.564234 
L 264.523746 66.449752 
L 265.265552 65.77579 
L 266.007358 65.628775 
L 266.749164 66.056408 
L 267.49097 66.056677 
L 268.232776 66.252864 
L 268.974582 66.834514 
L 269.716388 67.401955 
L 270.458194 68.249394 
L 271.2 69.135276 
L 271.2 43.025111 
L 271.2 43.025111 
L 270.458194 43.215691 
L 269.716388 42.873193 
L 268.974582 42.638136 
L 268.232776 42.125138 
L 267.49097 41.882295 
L 266.749164 41.767875 
L 266.007358 43.848042 
L 265.265552 43.776472 
L 264.523746 43.308375 
L 263.78194 43.462324 
L 263.040134 42.063316 
L 262.298328 42.10171 
L 261.556522 42.008527 
L 260.814716 41.957326 
L 260.07291 42.627413 
L 259.331104 42.662875 
L 258.589298 41.955944 
L 257.847492 40.120804 
L 257.105686 40.021294 
L 256.36388 39.379007 
L 255.622074 39.26512 
L 254.880268 39.383886 
L 254.138462 39.131139 
L 253.396656 39.314118 
L 252.654849 39.419049 
L 251.913043 39.402842 
L 251.171237 39.537916 
L 250.429431 39.793785 
L 249.687625 41.754395 
L 248.945819 41.720735 
L 248.204013 41.938124 
L 247.462207 41.895653 
L 246.720401 42.092148 
L 245.978595 42.32924 
L 245.236789 42.40814 
L 244.494983 42.610514 
L 243.753177 42.767211 
L 243.011371 43.716161 
L 242.269565 43.625832 
L 241.527759 42.455862 
L 240.785953 42.360663 
L 240.044147 42.601293 
L 239.302341 42.719215 
L 238.560535 42.124105 
L 237.818729 41.502454 
L 237.076923 41.647798 
L 236.335117 41.591389 
L 235.593311 41.271195 
L 234.851505 39.898573 
L 234.109699 39.999362 
L 233.367893 40.005998 
L 232.626087 40.333856 
L 231.884281 40.191598 
L 231.142475 39.805854 
L 230.400669 40.766454 
L 229.658863 41.337845 
L 228.917057 41.458079 
L 228.175251 42.294427 
L 227.433445 42.472651 
L 226.691639 42.665293 
L 225.949833 42.755835 
L 225.208027 43.396941 
L 224.466221 43.664827 
L 223.724415 43.761361 
L 222.982609 44.563412 
L 222.240803 44.690056 
L 221.498997 44.568896 
L 220.757191 44.539877 
L 220.015385 44.240643 
L 219.273579 44.296732 
L 218.531773 44.204435 
L 217.789967 44.48213 
L 217.048161 44.313519 
L 216.306355 44.279249 
L 215.564548 44.17797 
L 214.822742 44.064292 
L 214.080936 43.58095 
L 213.33913 43.815405 
L 212.597324 43.922296 
L 211.855518 43.521464 
L 211.113712 43.746508 
L 210.371906 44.085663 
L 209.6301 43.873943 
L 208.888294 44.144969 
L 208.146488 44.550301 
L 207.404682 45.231336 
L 206.662876 45.557228 
L 205.92107 46.583299 
L 205.179264 47.716148 
L 204.437458 48.250771 
L 203.695652 48.366119 
L 202.953846 48.492145 
L 202.21204 49.568887 
L 201.470234 49.732377 
L 200.728428 50.045736 
L 199.986622 50.304651 
L 199.244816 50.922291 
L 198.50301 53.234094 
L 197.761204 54.728501 
L 197.019398 55.514302 
L 196.277592 55.715952 
L 195.535786 56.288677 
L 194.79398 56.512438 
L 194.052174 55.690865 
L 193.310368 55.887909 
L 192.568562 55.875948 
L 191.826756 55.45916 
L 191.08495 55.476727 
L 190.343144 53.187597 
L 189.601338 51.606815 
L 188.859532 50.465976 
L 188.117726 48.676654 
L 187.37592 46.884955 
L 186.634114 46.978423 
L 185.892308 48.284137 
L 185.150502 48.43278 
L 184.408696 48.928585 
L 183.66689 49.344408 
L 182.925084 49.609691 
L 182.183278 49.966054 
L 181.441472 50.181494 
L 180.699666 50.743187 
L 179.95786 50.773605 
L 179.216054 51.987872 
L 178.474247 52.650171 
L 177.732441 51.547245 
L 176.990635 51.528401 
L 176.248829 51.661765 
L 175.507023 51.735636 
L 174.765217 51.782911 
L 174.023411 51.931402 
L 173.281605 51.948164 
L 172.539799 51.837169 
L 171.797993 52.055399 
L 171.056187 51.392268 
L 170.314381 50.794942 
L 169.572575 50.873392 
L 168.830769 51.274187 
L 168.088963 51.19934 
L 167.347157 51.458269 
L 166.605351 51.262368 
L 165.863545 50.79829 
L 165.121739 50.708295 
L 164.379933 50.986367 
L 163.638127 51.010926 
L 162.896321 51.087507 
L 162.154515 51.759265 
L 161.412709 51.850301 
L 160.670903 51.971202 
L 159.929097 52.261532 
L 159.187291 52.379202 
L 158.445485 53.311391 
L 157.703679 53.580511 
L 156.961873 54.321702 
L 156.220067 54.27099 
L 155.478261 54.472386 
L 154.736455 54.910807 
L 153.994649 54.641677 
L 153.252843 54.68135 
L 152.511037 55.770196 
L 151.769231 55.997312 
L 151.027425 56.232735 
L 150.285619 56.385604 
L 149.543813 56.42875 
L 148.802007 55.853542 
L 148.060201 56.076791 
L 147.318395 56.910318 
L 146.576589 57.493966 
L 145.834783 57.755686 
L 145.092977 57.953099 
L 144.351171 57.645503 
L 143.609365 57.964491 
L 142.867559 56.992494 
L 142.125753 57.542978 
L 141.383946 57.930838 
L 140.64214 58.221929 
L 139.900334 58.469626 
L 139.158528 59.746798 
L 138.416722 59.468598 
L 137.674916 60.447885 
L 136.93311 61.08721 
L 136.191304 61.156835 
L 135.449498 61.311538 
L 134.707692 62.191596 
L 133.965886 62.92372 
L 133.22408 63.122152 
L 132.482274 63.998928 
L 131.740468 64.274309 
L 130.998662 63.590574 
L 130.256856 63.900986 
L 129.51505 63.15685 
L 128.773244 62.670878 
L 128.031438 62.526104 
L 127.289632 64.075862 
L 126.547826 65.437689 
L 125.80602 65.253907 
L 125.064214 65.153044 
L 124.322408 64.857305 
L 123.580602 65.073142 
L 122.838796 64.936871 
L 122.09699 64.881638 
L 121.355184 64.941101 
L 120.613378 65.261113 
L 119.871572 64.949167 
L 119.129766 65.166761 
L 118.38796 63.919261 
L 117.646154 63.130561 
L 116.904348 61.827973 
L 116.162542 61.679972 
L 115.420736 61.485648 
L 114.67893 61.587013 
L 113.937124 60.817706 
L 113.195318 60.975005 
L 112.453512 61.243895 
L 111.711706 62.254447 
L 110.9699 62.808462 
L 110.228094 63.054194 
L 109.486288 64.001547 
L 108.744482 64.268872 
L 108.002676 64.168926 
L 107.26087 64.315229 
L 106.519064 64.593091 
L 105.777258 65.347724 
L 105.035452 66.365604 
L 104.293645 66.290683 
L 103.551839 66.383972 
L 102.810033 66.015866 
L 102.068227 66.003146 
L 101.326421 65.728488 
L 100.584615 66.246138 
L 99.842809 67.115425 
L 99.101003 67.922322 
L 98.359197 67.792479 
L 97.617391 68.431297 
L 96.875585 68.61507 
L 96.133779 68.973675 
L 95.391973 69.161506 
L 94.650167 69.866296 
L 93.908361 70.48331 
L 93.166555 70.974149 
L 92.424749 71.35619 
L 91.682943 71.648071 
L 90.941137 71.611337 
L 90.199331 71.939466 
L 89.457525 71.797779 
L 88.715719 72.033527 
L 87.973913 71.946483 
L 87.232107 72.937515 
L 86.490301 73.01846 
L 85.748495 73.809277 
L 85.006689 73.571399 
L 84.264883 73.387703 
L 83.523077 73.10011 
L 82.781271 73.736647 
L 82.039465 74.948338 
L 81.297659 75.560343 
L 80.555853 75.572425 
L 79.814047 76.977951 
L 79.072241 77.974468 
L 78.330435 79.871174 
L 77.588629 79.607523 
L 76.846823 79.564964 
L 76.105017 79.828071 
L 75.363211 79.957771 
L 74.621405 79.925018 
L 73.879599 78.870574 
L 73.137793 80.287761 
L 72.395987 82.371673 
L 71.654181 82.898399 
L 70.912375 83.226649 
L 70.170569 85.305218 
L 69.428763 88.075724 
L 68.686957 90.754594 
L 67.945151 93.188527 
L 67.203344 95.301003 
L 66.461538 98.448761 
L 65.719732 101.152631 
L 64.977926 102.0418 
L 64.23612 104.747868 
L 63.494314 108.442913 
L 62.752508 111.679228 
L 62.010702 112.779858 
L 61.268896 115.552483 
L 60.52709 118.190229 
L 59.785284 121.180006 
L 59.043478 125.206778 
L 58.301672 128.444624 
L 57.559866 131.337769 
L 56.81806 134.911131 
L 56.076254 138.120152 
L 55.334448 140.047185 
L 54.592642 142.791084 
L 53.850836 145.074709 
L 53.10903 146.952473 
L 52.367224 148.270696 
L 51.625418 149.501254 
L 50.883612 149.72586 
L 50.141806 150.15631 
L 49.4 150.804405 
z
" style="fill:#55a868;fill-opacity:0.2;"/>
   </g>
   <g id="line2d_19">
    <path clip-path="url(#p0445d44be5)" d="M 49.4 153.623675 
L 50.141806 152.070845 
L 50.883612 151.115582 
L 52.367224 148.634278 
L 53.10903 147.254935 
L 54.592642 143.387949 
L 56.076254 138.342586 
L 59.043478 126.921719 
L 60.52709 121.133582 
L 61.268896 118.615012 
L 62.010702 115.190966 
L 64.23612 107.509408 
L 64.977926 106.176986 
L 65.719732 103.999396 
L 66.461538 102.461894 
L 67.203344 100.426494 
L 67.945151 98.883659 
L 69.428763 94.791937 
L 70.170569 93.420575 
L 70.912375 91.421173 
L 71.654181 89.761907 
L 72.395987 88.634866 
L 73.879599 86.080874 
L 74.621405 85.651478 
L 75.363211 84.340651 
L 76.105017 83.448354 
L 78.330435 81.929395 
L 79.072241 80.967603 
L 79.814047 80.651409 
L 81.297659 79.524912 
L 82.039465 78.555545 
L 82.781271 76.809818 
L 83.523077 76.481298 
L 85.748495 74.043906 
L 87.232107 72.560192 
L 87.973913 71.532982 
L 88.715719 70.702383 
L 89.457525 68.967333 
L 90.199331 68.819738 
L 93.166555 67.404696 
L 93.908361 66.681234 
L 94.650167 67.267483 
L 95.391973 68.155105 
L 96.133779 68.79528 
L 96.875585 69.110528 
L 97.617391 69.664438 
L 98.359197 69.731517 
L 99.101003 69.414693 
L 99.842809 68.868808 
L 101.326421 68.117973 
L 102.068227 68.508717 
L 102.810033 67.721429 
L 104.293645 67.32037 
L 105.035452 66.308588 
L 105.777258 65.991665 
L 106.519064 65.491811 
L 107.26087 65.312221 
L 108.002676 65.293446 
L 108.744482 65.758242 
L 109.486288 65.707709 
L 110.228094 64.92106 
L 110.9699 64.496541 
L 112.453512 62.568424 
L 113.195318 62.896984 
L 113.937124 62.099227 
L 114.67893 61.807496 
L 115.420736 61.278091 
L 116.162542 61.276221 
L 116.904348 60.523531 
L 117.646154 60.283529 
L 118.38796 60.231434 
L 119.129766 59.79511 
L 119.871572 59.644861 
L 120.613378 59.318529 
L 122.09699 59.170917 
L 123.580602 59.083628 
L 125.064214 58.800974 
L 125.80602 58.767653 
L 127.289632 59.464991 
L 128.031438 59.160591 
L 128.773244 59.27994 
L 130.256856 59.116778 
L 130.998662 58.782111 
L 131.740468 59.474085 
L 132.482274 59.445475 
L 133.965886 61.358156 
L 134.707692 61.581454 
L 135.449498 61.680458 
L 136.191304 64.005754 
L 136.93311 64.861596 
L 138.416722 64.679236 
L 139.158528 65.104058 
L 139.900334 65.960954 
L 140.64214 65.686385 
L 141.383946 65.093681 
L 142.867559 62.848147 
L 143.609365 63.033925 
L 144.351171 61.774121 
L 145.092977 61.453994 
L 145.834783 60.695646 
L 146.576589 60.435295 
L 147.318395 59.908504 
L 148.060201 58.31987 
L 148.802007 58.133615 
L 149.543813 57.631968 
L 150.285619 57.461209 
L 151.027425 57.578985 
L 151.769231 56.773662 
L 153.252843 56.454475 
L 153.994649 57.503503 
L 154.736455 58.153356 
L 155.478261 58.338917 
L 156.220067 58.404499 
L 158.445485 58.053276 
L 159.929097 57.447674 
L 161.412709 55.355021 
L 162.896321 54.49078 
L 164.379933 53.911043 
L 165.121739 54.100462 
L 166.605351 54.305212 
L 167.347157 54.380552 
L 168.088963 54.256484 
L 168.830769 53.874727 
L 169.572575 54.048581 
L 170.314381 53.781492 
L 171.056187 53.155173 
L 171.797993 53.122358 
L 172.539799 54.159234 
L 175.507023 53.60019 
L 176.248829 54.453374 
L 176.990635 54.445258 
L 177.732441 54.102657 
L 178.474247 53.604803 
L 179.216054 53.846499 
L 179.95786 53.849673 
L 181.441472 53.247998 
L 182.183278 53.053859 
L 182.925084 53.262614 
L 183.66689 54.237455 
L 184.408696 53.362619 
L 185.892308 54.057531 
L 186.634114 56.749988 
L 188.117726 59.306201 
L 188.859532 58.53136 
L 190.343144 58.717313 
L 191.08495 58.408823 
L 191.826756 57.301167 
L 192.568562 57.172865 
L 194.052174 56.574693 
L 194.79398 53.799931 
L 196.277592 50.689893 
L 197.761204 51.92003 
L 198.50301 52.576564 
L 199.244816 53.500879 
L 199.986622 54.661503 
L 200.728428 54.983145 
L 201.470234 55.089821 
L 202.21204 55.377995 
L 202.953846 55.183255 
L 204.437458 55.300007 
L 205.179264 54.538153 
L 205.92107 54.173322 
L 208.146488 51.571449 
L 209.6301 51.379505 
L 211.855518 51.82894 
L 212.597324 51.679306 
L 213.33913 51.765096 
L 214.080936 51.366678 
L 214.822742 51.392945 
L 215.564548 51.185522 
L 217.048161 50.233974 
L 217.789967 50.122407 
L 218.531773 49.525432 
L 219.273579 49.328537 
L 220.015385 48.81813 
L 220.757191 48.914807 
L 221.498997 48.440416 
L 222.240803 48.235226 
L 224.466221 48.08148 
L 225.208027 48.180909 
L 225.949833 48.152137 
L 226.691639 49.073513 
L 227.433445 49.28991 
L 228.175251 49.370792 
L 228.917057 50.121809 
L 229.658863 50.449644 
L 230.400669 50.39179 
L 231.142475 50.195989 
L 231.884281 51.52505 
L 232.626087 51.550502 
L 233.367893 51.382673 
L 234.109699 51.478136 
L 234.851505 50.448632 
L 235.593311 50.389102 
L 236.335117 50.164859 
L 237.076923 49.055627 
L 237.818729 49.290178 
L 238.560535 49.776862 
L 239.302341 49.775847 
L 240.044147 48.416494 
L 241.527759 48.398667 
L 242.269565 47.990529 
L 243.753177 47.940214 
L 244.494983 48.801774 
L 245.236789 49.950704 
L 245.978595 49.713881 
L 246.720401 49.288908 
L 247.462207 49.314046 
L 248.204013 50.469559 
L 248.945819 50.501336 
L 249.687625 51.433909 
L 250.429431 53.384165 
L 251.171237 54.024954 
L 251.913043 53.997941 
L 253.396656 52.425754 
L 254.138462 53.082677 
L 254.880268 53.507568 
L 255.622074 53.523111 
L 256.36388 52.391016 
L 257.105686 52.245238 
L 257.847492 51.24678 
L 258.589298 49.367625 
L 259.331104 48.701798 
L 261.556522 47.988131 
L 263.78194 49.034234 
L 265.265552 48.939181 
L 267.49097 48.627239 
L 268.232776 48.886861 
L 268.974582 49.412169 
L 269.716388 49.789499 
L 271.2 46.596441 
L 271.2 46.596441 
" style="fill:none;stroke:#4c72b0;stroke-linecap:round;stroke-width:1.75;"/>
   </g>
   <g id="line2d_20">
    <path clip-path="url(#p0445d44be5)" d="M 49.4 152.760494 
L 50.141806 152.047999 
L 50.883612 151.658878 
L 51.625418 151.439825 
L 53.850836 148.557169 
L 54.592642 147.147452 
L 55.334448 145.274844 
L 56.076254 143.99861 
L 58.301672 139.280434 
L 63.494314 125.146035 
L 64.23612 122.239164 
L 65.719732 118.336861 
L 67.203344 111.729176 
L 69.428763 103.337423 
L 70.912375 99.068828 
L 71.654181 97.558216 
L 72.395987 96.947892 
L 73.879599 92.564327 
L 74.621405 92.573013 
L 76.105017 90.812371 
L 76.846823 89.854897 
L 77.588629 90.143589 
L 78.330435 90.306139 
L 79.072241 89.07088 
L 79.814047 88.668968 
L 80.555853 86.828163 
L 82.781271 85.043568 
L 83.523077 85.076617 
L 84.264883 85.466647 
L 85.006689 85.68943 
L 86.490301 83.344029 
L 87.232107 82.565475 
L 87.973913 82.54641 
L 88.715719 82.830966 
L 89.457525 83.55533 
L 90.199331 83.669747 
L 90.941137 83.270373 
L 93.908361 81.00224 
L 95.391973 81.023906 
L 96.133779 80.616819 
L 96.875585 79.705904 
L 97.617391 79.131827 
L 98.359197 78.75335 
L 99.101003 78.066147 
L 99.842809 78.105591 
L 101.326421 77.702972 
L 102.068227 77.992126 
L 102.810033 77.858611 
L 103.551839 77.603186 
L 104.293645 76.587481 
L 105.035452 76.642082 
L 105.777258 75.708766 
L 106.519064 75.533284 
L 107.26087 75.682475 
L 108.002676 75.355793 
L 109.486288 74.466082 
L 110.228094 74.13509 
L 111.711706 73.936273 
L 112.453512 73.994702 
L 113.937124 73.638685 
L 114.67893 73.570079 
L 115.420736 73.077113 
L 116.162542 72.861638 
L 116.904348 73.033914 
L 118.38796 74.551605 
L 119.129766 75.487672 
L 119.871572 75.859825 
L 120.613378 75.75677 
L 122.09699 75.406501 
L 124.322408 75.230541 
L 125.064214 75.135501 
L 125.80602 73.910863 
L 128.031438 71.891205 
L 128.773244 71.779099 
L 129.51505 72.14907 
L 130.256856 72.684727 
L 130.998662 72.434962 
L 131.740468 72.983841 
L 132.482274 72.820596 
L 133.22408 72.471301 
L 133.965886 72.344536 
L 134.707692 71.724052 
L 135.449498 70.550341 
L 136.93311 70.397389 
L 138.416722 68.924948 
L 139.158528 69.36059 
L 139.900334 68.774712 
L 140.64214 68.637783 
L 141.383946 68.13631 
L 142.867559 67.609487 
L 143.609365 68.104531 
L 144.351171 67.85635 
L 145.092977 68.416685 
L 146.576589 68.264488 
L 147.318395 67.380816 
L 148.060201 66.733647 
L 148.802007 66.52409 
L 149.543813 66.841729 
L 150.285619 66.710634 
L 151.027425 66.856605 
L 151.769231 66.534899 
L 152.511037 66.351922 
L 153.252843 65.374871 
L 153.994649 65.077824 
L 154.736455 65.258788 
L 155.478261 64.968073 
L 156.220067 64.82113 
L 156.961873 64.844501 
L 157.703679 64.266232 
L 158.445485 64.084564 
L 159.187291 63.553136 
L 160.670903 63.166906 
L 161.412709 63.112474 
L 162.154515 62.929491 
L 162.896321 62.426317 
L 165.863545 62.111274 
L 166.605351 62.775528 
L 167.347157 62.647561 
L 168.088963 62.254934 
L 168.830769 62.238916 
L 169.572575 61.800696 
L 170.314381 61.761471 
L 171.056187 62.050902 
L 171.797993 62.512653 
L 172.539799 62.375668 
L 173.281605 62.576099 
L 174.023411 62.461965 
L 175.507023 62.478791 
L 176.248829 62.429479 
L 176.990635 62.639998 
L 177.732441 62.652473 
L 178.474247 63.565664 
L 179.216054 63.066372 
L 179.95786 62.292191 
L 180.699666 62.178991 
L 181.441472 61.742246 
L 182.925084 61.630097 
L 183.66689 61.592395 
L 184.408696 61.29894 
L 185.150502 60.832736 
L 185.892308 60.691161 
L 186.634114 59.566181 
L 187.37592 59.52797 
L 188.117726 60.585849 
L 188.859532 62.076221 
L 190.343144 65.766431 
L 191.08495 66.614346 
L 191.826756 66.74986 
L 192.568562 67.242982 
L 194.052174 67.109149 
L 194.79398 67.757569 
L 195.535786 67.641839 
L 196.277592 66.438819 
L 197.019398 65.663906 
L 197.761204 64.591348 
L 199.244816 61.215823 
L 200.728428 60.589683 
L 202.21204 60.236411 
L 202.953846 59.495819 
L 204.437458 59.272019 
L 205.92107 57.37996 
L 206.662876 56.771407 
L 207.404682 56.605479 
L 209.6301 55.686102 
L 210.371906 55.740504 
L 211.855518 55.318385 
L 212.597324 55.574869 
L 214.080936 55.149776 
L 214.822742 55.731759 
L 215.564548 55.827994 
L 217.048161 55.825405 
L 217.789967 56.594764 
L 218.531773 56.472764 
L 220.015385 56.462351 
L 220.757191 56.718783 
L 221.498997 56.779077 
L 222.240803 57.0186 
L 222.982609 56.53788 
L 223.724415 56.315682 
L 224.466221 56.321304 
L 225.208027 56.142459 
L 225.949833 55.254661 
L 228.175251 54.943048 
L 228.917057 54.197482 
L 229.658863 54.071436 
L 230.400669 54.528765 
L 231.884281 54.507731 
L 234.851505 54.635488 
L 235.593311 55.595889 
L 237.076923 55.982332 
L 237.818729 55.959614 
L 238.560535 55.147699 
L 240.044147 54.757881 
L 241.527759 54.497715 
L 242.269565 55.752827 
L 243.011371 55.724626 
L 243.753177 54.61937 
L 247.462207 53.710952 
L 248.204013 53.654096 
L 248.945819 53.387331 
L 249.687625 53.444324 
L 250.429431 51.967553 
L 251.171237 51.763872 
L 251.913043 51.785179 
L 252.654849 52.289463 
L 254.138462 52.083803 
L 254.880268 52.275871 
L 255.622074 52.167863 
L 256.36388 52.276965 
L 257.105686 53.013683 
L 257.847492 53.211609 
L 258.589298 54.222947 
L 259.331104 55.017087 
L 260.07291 54.966477 
L 260.814716 54.084469 
L 263.040134 54.221825 
L 263.78194 55.013279 
L 265.265552 54.776131 
L 266.007358 54.738409 
L 266.749164 53.912142 
L 267.49097 53.969486 
L 268.232776 54.189001 
L 268.974582 54.736325 
L 269.716388 55.137574 
L 270.458194 55.732543 
L 271.2 56.080194 
L 271.2 56.080194 
" style="fill:none;stroke:#55a868;stroke-linecap:round;stroke-width:1.75;"/>
   </g>
   <g id="patch_3">
    <path d="M 49.4 160.84 
L 49.4 32.4092 
" style="fill:none;"/>
   </g>
   <g id="patch_4">
    <path d="M 271.2 160.84 
L 271.2 32.4092 
" style="fill:none;"/>
   </g>
   <g id="patch_5">
    <path d="M 49.4 160.84 
L 271.2 160.84 
" style="fill:none;"/>
   </g>
   <g id="patch_6">
    <path d="M 49.4 32.4092 
L 271.2 32.4092 
" style="fill:none;"/>
   </g>
   <g id="legend_1">
    <g id="line2d_21">
     <path d="M 54.6 17.35449 
L 67.6 17.35449 
" style="fill:none;stroke:#4c72b0;stroke-linecap:round;stroke-width:1.75;"/>
    </g>
    <g id="line2d_22"/>
    <g id="text_13">
     <!-- sac-tf1 -->
     <defs>
      <path d="M 3.171875 21.484375 
L 3.171875 30.328125 
L 30.171875 30.328125 
L 30.171875 21.484375 
z
" id="ArialMT-45"/>
     </defs>
     <g style="fill:#262626;" transform="translate(78 21.90449)scale(0.13 -0.13)">
      <use xlink:href="#ArialMT-115"/>
      <use x="50" xlink:href="#ArialMT-97"/>
      <use x="105.615234" xlink:href="#ArialMT-99"/>
      <use x="155.615234" xlink:href="#ArialMT-45"/>
      <use x="188.916016" xlink:href="#ArialMT-116"/>
      <use x="216.699219" xlink:href="#ArialMT-102"/>
      <use x="244.482422" xlink:href="#ArialMT-49"/>
     </g>
    </g>
    <g id="line2d_23">
     <path d="M 175.414375 17.35449 
L 188.414375 17.35449 
" style="fill:none;stroke:#55a868;stroke-linecap:round;stroke-width:1.75;"/>
    </g>
    <g id="line2d_24"/>
    <g id="text_14">
     <!-- sac-pytorch -->
     <defs>
      <path d="M 6.59375 -19.875 
L 6.59375 51.859375 
L 14.59375 51.859375 
L 14.59375 45.125 
Q 17.4375 49.078125 21 51.046875 
Q 24.5625 53.03125 29.640625 53.03125 
Q 36.28125 53.03125 41.359375 49.609375 
Q 46.4375 46.1875 49.015625 39.953125 
Q 51.609375 33.734375 51.609375 26.3125 
Q 51.609375 18.359375 48.75 11.984375 
Q 45.90625 5.609375 40.453125 2.21875 
Q 35.015625 -1.171875 29 -1.171875 
Q 24.609375 -1.171875 21.109375 0.6875 
Q 17.625 2.546875 15.375 5.375 
L 15.375 -19.875 
z
M 14.546875 25.640625 
Q 14.546875 15.625 18.59375 10.84375 
Q 22.65625 6.0625 28.421875 6.0625 
Q 34.28125 6.0625 38.453125 11.015625 
Q 42.625 15.96875 42.625 26.375 
Q 42.625 36.28125 38.546875 41.203125 
Q 34.46875 46.140625 28.8125 46.140625 
Q 23.1875 46.140625 18.859375 40.890625 
Q 14.546875 35.640625 14.546875 25.640625 
z
" id="ArialMT-112"/>
      <path d="M 6.203125 -19.96875 
L 5.21875 -11.71875 
Q 8.109375 -12.5 10.25 -12.5 
Q 13.1875 -12.5 14.9375 -11.515625 
Q 16.703125 -10.546875 17.828125 -8.796875 
Q 18.65625 -7.46875 20.515625 -2.25 
Q 20.75 -1.515625 21.296875 -0.09375 
L 1.609375 51.859375 
L 11.078125 51.859375 
L 21.875 21.828125 
Q 23.96875 16.109375 25.640625 9.8125 
Q 27.15625 15.875 29.25 21.625 
L 40.328125 51.859375 
L 49.125 51.859375 
L 29.390625 -0.875 
Q 26.21875 -9.421875 24.46875 -12.640625 
Q 22.125 -17 19.09375 -19.015625 
Q 16.0625 -21.046875 11.859375 -21.046875 
Q 9.328125 -21.046875 6.203125 -19.96875 
z
" id="ArialMT-121"/>
      <path d="M 6.59375 0 
L 6.59375 71.578125 
L 15.375 71.578125 
L 15.375 45.90625 
Q 21.53125 53.03125 30.90625 53.03125 
Q 36.671875 53.03125 40.921875 50.75 
Q 45.171875 48.484375 47 44.484375 
Q 48.828125 40.484375 48.828125 32.859375 
L 48.828125 0 
L 40.046875 0 
L 40.046875 32.859375 
Q 40.046875 39.453125 37.1875 42.453125 
Q 34.328125 45.453125 29.109375 45.453125 
Q 25.203125 45.453125 21.75 43.421875 
Q 18.3125 41.40625 16.84375 37.9375 
Q 15.375 34.46875 15.375 28.375 
L 15.375 0 
z
" id="ArialMT-104"/>
     </defs>
     <g style="fill:#262626;" transform="translate(198.814375 21.90449)scale(0.13 -0.13)">
      <use xlink:href="#ArialMT-115"/>
      <use x="50" xlink:href="#ArialMT-97"/>
      <use x="105.615234" xlink:href="#ArialMT-99"/>
      <use x="155.615234" xlink:href="#ArialMT-45"/>
      <use x="188.916016" xlink:href="#ArialMT-112"/>
      <use x="244.53125" xlink:href="#ArialMT-121"/>
      <use x="294.53125" xlink:href="#ArialMT-116"/>
      <use x="322.314453" xlink:href="#ArialMT-111"/>
      <use x="377.929688" xlink:href="#ArialMT-114"/>
      <use x="411.230469" xlink:href="#ArialMT-99"/>
      <use x="461.230469" xlink:href="#ArialMT-104"/>
     </g>
    </g>
   </g>
  </g>
 </g>
 <defs>
  <clipPath id="p0445d44be5">
   <rect height="128.4308" width="221.8" x="49.4" y="32.4092"/>
  </clipPath>
 </defs>
</svg>
