<?xml version="1.0" encoding="utf-8" standalone="no"?>
<!DOCTYPE svg PUBLIC "-//W3C//DTD SVG 1.1//EN"
  "http://www.w3.org/Graphics/SVG/1.1/DTD/svg11.dtd">
<!-- Created with matplotlib (https://matplotlib.org/) -->
<svg height="198pt" version="1.1" viewBox="0 0 277.2 198" width="277.2pt" xmlns="http://www.w3.org/2000/svg" xmlns:xlink="http://www.w3.org/1999/xlink">
 <defs>
  <style type="text/css">
*{stroke-linecap:butt;stroke-linejoin:round;}
  </style>
 </defs>
 <g id="figure_1">
  <g id="patch_1">
   <path d="M 0 198 
L 277.2 198 
L 277.2 0 
L 0 0 
z
" style="fill:#ffffff;"/>
  </g>
  <g id="axes_1">
   <g id="patch_2">
    <path d="M 49.4 160.84 
L 271.2 160.84 
L 271.2 32.4092 
L 49.4 32.4092 
z
" style="fill:#eaeaf2;"/>
   </g>
   <g id="matplotlib.axis_1">
    <g id="xtick_1">
     <g id="line2d_1">
      <path clip-path="url(#p426505bcc1)" d="M 85.748569 160.84 
L 85.748569 32.4092 
" style="fill:none;stroke:#ffffff;stroke-linecap:round;"/>
     </g>
     <g id="line2d_2"/>
     <g id="text_1">
      <!-- 0.5 -->
      <defs>
       <path d="M 4.15625 35.296875 
Q 4.15625 48 6.765625 55.734375 
Q 9.375 63.484375 14.515625 67.671875 
Q 19.671875 71.875 27.484375 71.875 
Q 33.25 71.875 37.59375 69.546875 
Q 41.9375 67.234375 44.765625 62.859375 
Q 47.609375 58.5 49.21875 52.21875 
Q 50.828125 45.953125 50.828125 35.296875 
Q 50.828125 22.703125 48.234375 14.96875 
Q 45.65625 7.234375 40.5 3 
Q 35.359375 -1.21875 27.484375 -1.21875 
Q 17.140625 -1.21875 11.234375 6.203125 
Q 4.15625 15.140625 4.15625 35.296875 
z
M 13.1875 35.296875 
Q 13.1875 17.671875 17.3125 11.828125 
Q 21.4375 6 27.484375 6 
Q 33.546875 6 37.671875 11.859375 
Q 41.796875 17.71875 41.796875 35.296875 
Q 41.796875 52.984375 37.671875 58.78125 
Q 33.546875 64.59375 27.390625 64.59375 
Q 21.34375 64.59375 17.71875 59.46875 
Q 13.1875 52.9375 13.1875 35.296875 
z
" id="ArialMT-48"/>
       <path d="M 9.078125 0 
L 9.078125 10.015625 
L 19.09375 10.015625 
L 19.09375 0 
z
" id="ArialMT-46"/>
       <path d="M 4.15625 18.75 
L 13.375 19.53125 
Q 14.40625 12.796875 18.140625 9.390625 
Q 21.875 6 27.15625 6 
Q 33.5 6 37.890625 10.78125 
Q 42.28125 15.578125 42.28125 23.484375 
Q 42.28125 31 38.0625 35.34375 
Q 33.84375 39.703125 27 39.703125 
Q 22.75 39.703125 19.328125 37.765625 
Q 15.921875 35.84375 13.96875 32.765625 
L 5.71875 33.84375 
L 12.640625 70.609375 
L 48.25 70.609375 
L 48.25 62.203125 
L 19.671875 62.203125 
L 15.828125 42.96875 
Q 22.265625 47.46875 29.34375 47.46875 
Q 38.71875 47.46875 45.15625 40.96875 
Q 51.609375 34.46875 51.609375 24.265625 
Q 51.609375 14.546875 45.953125 7.46875 
Q 39.0625 -1.21875 27.15625 -1.21875 
Q 17.390625 -1.21875 11.203125 4.25 
Q 5.03125 9.71875 4.15625 18.75 
z
" id="ArialMT-53"/>
      </defs>
      <g style="fill:#262626;" transform="translate(78.798569 174.997813)scale(0.1 -0.1)">
       <use xlink:href="#ArialMT-48"/>
       <use x="55.615234" xlink:href="#ArialMT-46"/>
       <use x="83.398438" xlink:href="#ArialMT-53"/>
      </g>
     </g>
    </g>
    <g id="xtick_2">
     <g id="line2d_3">
      <path clip-path="url(#p426505bcc1)" d="M 122.83887 160.84 
L 122.83887 32.4092 
" style="fill:none;stroke:#ffffff;stroke-linecap:round;"/>
     </g>
     <g id="line2d_4"/>
     <g id="text_2">
      <!-- 1.0 -->
      <defs>
       <path d="M 37.25 0 
L 28.46875 0 
L 28.46875 56 
Q 25.296875 52.984375 20.140625 49.953125 
Q 14.984375 46.921875 10.890625 45.40625 
L 10.890625 53.90625 
Q 18.265625 57.375 23.78125 62.296875 
Q 29.296875 67.234375 31.59375 71.875 
L 37.25 71.875 
z
" id="ArialMT-49"/>
      </defs>
      <g style="fill:#262626;" transform="translate(115.88887 174.997813)scale(0.1 -0.1)">
       <use xlink:href="#ArialMT-49"/>
       <use x="55.615234" xlink:href="#ArialMT-46"/>
       <use x="83.398438" xlink:href="#ArialMT-48"/>
      </g>
     </g>
    </g>
    <g id="xtick_3">
     <g id="line2d_5">
      <path clip-path="url(#p426505bcc1)" d="M 159.929171 160.84 
L 159.929171 32.4092 
" style="fill:none;stroke:#ffffff;stroke-linecap:round;"/>
     </g>
     <g id="line2d_6"/>
     <g id="text_3">
      <!-- 1.5 -->
      <g style="fill:#262626;" transform="translate(152.979171 174.997813)scale(0.1 -0.1)">
       <use xlink:href="#ArialMT-49"/>
       <use x="55.615234" xlink:href="#ArialMT-46"/>
       <use x="83.398438" xlink:href="#ArialMT-53"/>
      </g>
     </g>
    </g>
    <g id="xtick_4">
     <g id="line2d_7">
      <path clip-path="url(#p426505bcc1)" d="M 197.019472 160.84 
L 197.019472 32.4092 
" style="fill:none;stroke:#ffffff;stroke-linecap:round;"/>
     </g>
     <g id="line2d_8"/>
     <g id="text_4">
      <!-- 2.0 -->
      <defs>
       <path d="M 50.34375 8.453125 
L 50.34375 0 
L 3.03125 0 
Q 2.9375 3.171875 4.046875 6.109375 
Q 5.859375 10.9375 9.828125 15.625 
Q 13.8125 20.3125 21.34375 26.46875 
Q 33.015625 36.03125 37.109375 41.625 
Q 41.21875 47.21875 41.21875 52.203125 
Q 41.21875 57.421875 37.46875 61 
Q 33.734375 64.59375 27.734375 64.59375 
Q 21.390625 64.59375 17.578125 60.78125 
Q 13.765625 56.984375 13.71875 50.25 
L 4.6875 51.171875 
Q 5.609375 61.28125 11.65625 66.578125 
Q 17.71875 71.875 27.9375 71.875 
Q 38.234375 71.875 44.234375 66.15625 
Q 50.25 60.453125 50.25 52 
Q 50.25 47.703125 48.484375 43.546875 
Q 46.734375 39.40625 42.65625 34.8125 
Q 38.578125 30.21875 29.109375 22.21875 
Q 21.1875 15.578125 18.9375 13.203125 
Q 16.703125 10.84375 15.234375 8.453125 
z
" id="ArialMT-50"/>
      </defs>
      <g style="fill:#262626;" transform="translate(190.069472 174.997813)scale(0.1 -0.1)">
       <use xlink:href="#ArialMT-50"/>
       <use x="55.615234" xlink:href="#ArialMT-46"/>
       <use x="83.398438" xlink:href="#ArialMT-48"/>
      </g>
     </g>
    </g>
    <g id="xtick_5">
     <g id="line2d_9">
      <path clip-path="url(#p426505bcc1)" d="M 234.109773 160.84 
L 234.109773 32.4092 
" style="fill:none;stroke:#ffffff;stroke-linecap:round;"/>
     </g>
     <g id="line2d_10"/>
     <g id="text_5">
      <!-- 2.5 -->
      <g style="fill:#262626;" transform="translate(227.159773 174.997813)scale(0.1 -0.1)">
       <use xlink:href="#ArialMT-50"/>
       <use x="55.615234" xlink:href="#ArialMT-46"/>
       <use x="83.398438" xlink:href="#ArialMT-53"/>
      </g>
     </g>
    </g>
    <g id="text_6">
     <!-- TotalEnvInteracts -->
     <defs>
      <path d="M 25.921875 0 
L 25.921875 63.140625 
L 2.34375 63.140625 
L 2.34375 71.578125 
L 59.078125 71.578125 
L 59.078125 63.140625 
L 35.40625 63.140625 
L 35.40625 0 
z
" id="ArialMT-84"/>
      <path d="M 3.328125 25.921875 
Q 3.328125 40.328125 11.328125 47.265625 
Q 18.015625 53.03125 27.640625 53.03125 
Q 38.328125 53.03125 45.109375 46.015625 
Q 51.90625 39.015625 51.90625 26.65625 
Q 51.90625 16.65625 48.90625 10.90625 
Q 45.90625 5.171875 40.15625 2 
Q 34.421875 -1.171875 27.640625 -1.171875 
Q 16.75 -1.171875 10.03125 5.8125 
Q 3.328125 12.796875 3.328125 25.921875 
z
M 12.359375 25.921875 
Q 12.359375 15.96875 16.703125 11.015625 
Q 21.046875 6.0625 27.640625 6.0625 
Q 34.1875 6.0625 38.53125 11.03125 
Q 42.875 16.015625 42.875 26.21875 
Q 42.875 35.84375 38.5 40.796875 
Q 34.125 45.75 27.640625 45.75 
Q 21.046875 45.75 16.703125 40.8125 
Q 12.359375 35.890625 12.359375 25.921875 
z
" id="ArialMT-111"/>
      <path d="M 25.78125 7.859375 
L 27.046875 0.09375 
Q 23.34375 -0.6875 20.40625 -0.6875 
Q 15.625 -0.6875 12.984375 0.828125 
Q 10.359375 2.34375 9.28125 4.8125 
Q 8.203125 7.28125 8.203125 15.1875 
L 8.203125 45.015625 
L 1.765625 45.015625 
L 1.765625 51.859375 
L 8.203125 51.859375 
L 8.203125 64.703125 
L 16.9375 69.96875 
L 16.9375 51.859375 
L 25.78125 51.859375 
L 25.78125 45.015625 
L 16.9375 45.015625 
L 16.9375 14.703125 
Q 16.9375 10.9375 17.40625 9.859375 
Q 17.875 8.796875 18.921875 8.15625 
Q 19.96875 7.515625 21.921875 7.515625 
Q 23.390625 7.515625 25.78125 7.859375 
z
" id="ArialMT-116"/>
      <path d="M 40.4375 6.390625 
Q 35.546875 2.25 31.03125 0.53125 
Q 26.515625 -1.171875 21.34375 -1.171875 
Q 12.796875 -1.171875 8.203125 3 
Q 3.609375 7.171875 3.609375 13.671875 
Q 3.609375 17.484375 5.34375 20.625 
Q 7.078125 23.78125 9.890625 25.6875 
Q 12.703125 27.59375 16.21875 28.5625 
Q 18.796875 29.25 24.03125 29.890625 
Q 34.671875 31.15625 39.703125 32.90625 
Q 39.75 34.71875 39.75 35.203125 
Q 39.75 40.578125 37.25 42.78125 
Q 33.890625 45.75 27.25 45.75 
Q 21.046875 45.75 18.09375 43.578125 
Q 15.140625 41.40625 13.71875 35.890625 
L 5.125 37.0625 
Q 6.296875 42.578125 8.984375 45.96875 
Q 11.671875 49.359375 16.75 51.1875 
Q 21.828125 53.03125 28.515625 53.03125 
Q 35.15625 53.03125 39.296875 51.46875 
Q 43.453125 49.90625 45.40625 47.53125 
Q 47.359375 45.171875 48.140625 41.546875 
Q 48.578125 39.3125 48.578125 33.453125 
L 48.578125 21.734375 
Q 48.578125 9.46875 49.140625 6.21875 
Q 49.703125 2.984375 51.375 0 
L 42.1875 0 
Q 40.828125 2.734375 40.4375 6.390625 
z
M 39.703125 26.03125 
Q 34.90625 24.078125 25.34375 22.703125 
Q 19.921875 21.921875 17.671875 20.9375 
Q 15.4375 19.96875 14.203125 18.09375 
Q 12.984375 16.21875 12.984375 13.921875 
Q 12.984375 10.40625 15.640625 8.0625 
Q 18.3125 5.71875 23.4375 5.71875 
Q 28.515625 5.71875 32.46875 7.9375 
Q 36.421875 10.15625 38.28125 14.015625 
Q 39.703125 17 39.703125 22.796875 
z
" id="ArialMT-97"/>
      <path d="M 6.390625 0 
L 6.390625 71.578125 
L 15.1875 71.578125 
L 15.1875 0 
z
" id="ArialMT-108"/>
      <path d="M 7.90625 0 
L 7.90625 71.578125 
L 59.671875 71.578125 
L 59.671875 63.140625 
L 17.390625 63.140625 
L 17.390625 41.21875 
L 56.984375 41.21875 
L 56.984375 32.8125 
L 17.390625 32.8125 
L 17.390625 8.453125 
L 61.328125 8.453125 
L 61.328125 0 
z
" id="ArialMT-69"/>
      <path d="M 6.59375 0 
L 6.59375 51.859375 
L 14.5 51.859375 
L 14.5 44.484375 
Q 20.21875 53.03125 31 53.03125 
Q 35.6875 53.03125 39.625 51.34375 
Q 43.5625 49.65625 45.515625 46.921875 
Q 47.46875 44.1875 48.25 40.4375 
Q 48.734375 37.984375 48.734375 31.890625 
L 48.734375 0 
L 39.9375 0 
L 39.9375 31.546875 
Q 39.9375 36.921875 38.90625 39.578125 
Q 37.890625 42.234375 35.28125 43.8125 
Q 32.671875 45.40625 29.15625 45.40625 
Q 23.53125 45.40625 19.453125 41.84375 
Q 15.375 38.28125 15.375 28.328125 
L 15.375 0 
z
" id="ArialMT-110"/>
      <path d="M 21 0 
L 1.265625 51.859375 
L 10.546875 51.859375 
L 21.6875 20.796875 
Q 23.484375 15.765625 25 10.359375 
Q 26.171875 14.453125 28.265625 20.21875 
L 39.796875 51.859375 
L 48.828125 51.859375 
L 29.203125 0 
z
" id="ArialMT-118"/>
      <path d="M 9.328125 0 
L 9.328125 71.578125 
L 18.796875 71.578125 
L 18.796875 0 
z
" id="ArialMT-73"/>
      <path d="M 42.09375 16.703125 
L 51.171875 15.578125 
Q 49.03125 7.625 43.21875 3.21875 
Q 37.40625 -1.171875 28.375 -1.171875 
Q 17 -1.171875 10.328125 5.828125 
Q 3.65625 12.84375 3.65625 25.484375 
Q 3.65625 38.578125 10.390625 45.796875 
Q 17.140625 53.03125 27.875 53.03125 
Q 38.28125 53.03125 44.875 45.953125 
Q 51.46875 38.875 51.46875 26.03125 
Q 51.46875 25.25 51.421875 23.6875 
L 12.75 23.6875 
Q 13.234375 15.140625 17.578125 10.59375 
Q 21.921875 6.0625 28.421875 6.0625 
Q 33.25 6.0625 36.671875 8.59375 
Q 40.09375 11.140625 42.09375 16.703125 
z
M 13.234375 30.90625 
L 42.1875 30.90625 
Q 41.609375 37.453125 38.875 40.71875 
Q 34.671875 45.796875 27.984375 45.796875 
Q 21.921875 45.796875 17.796875 41.75 
Q 13.671875 37.703125 13.234375 30.90625 
z
" id="ArialMT-101"/>
      <path d="M 6.5 0 
L 6.5 51.859375 
L 14.40625 51.859375 
L 14.40625 44 
Q 17.4375 49.515625 20 51.265625 
Q 22.5625 53.03125 25.640625 53.03125 
Q 30.078125 53.03125 34.671875 50.203125 
L 31.640625 42.046875 
Q 28.421875 43.953125 25.203125 43.953125 
Q 22.3125 43.953125 20.015625 42.21875 
Q 17.71875 40.484375 16.75 37.40625 
Q 15.28125 32.71875 15.28125 27.15625 
L 15.28125 0 
z
" id="ArialMT-114"/>
      <path d="M 40.4375 19 
L 49.078125 17.875 
Q 47.65625 8.9375 41.8125 3.875 
Q 35.984375 -1.171875 27.484375 -1.171875 
Q 16.84375 -1.171875 10.375 5.78125 
Q 3.90625 12.75 3.90625 25.734375 
Q 3.90625 34.125 6.6875 40.421875 
Q 9.46875 46.734375 15.15625 49.875 
Q 20.84375 53.03125 27.546875 53.03125 
Q 35.984375 53.03125 41.359375 48.75 
Q 46.734375 44.484375 48.25 36.625 
L 39.703125 35.296875 
Q 38.484375 40.53125 35.375 43.15625 
Q 32.28125 45.796875 27.875 45.796875 
Q 21.234375 45.796875 17.078125 41.03125 
Q 12.9375 36.28125 12.9375 25.984375 
Q 12.9375 15.53125 16.9375 10.796875 
Q 20.953125 6.0625 27.390625 6.0625 
Q 32.5625 6.0625 36.03125 9.234375 
Q 39.5 12.40625 40.4375 19 
z
" id="ArialMT-99"/>
      <path d="M 3.078125 15.484375 
L 11.765625 16.84375 
Q 12.5 11.625 15.84375 8.84375 
Q 19.1875 6.0625 25.203125 6.0625 
Q 31.25 6.0625 34.171875 8.515625 
Q 37.109375 10.984375 37.109375 14.3125 
Q 37.109375 17.28125 34.515625 19 
Q 32.71875 20.171875 25.53125 21.96875 
Q 15.875 24.421875 12.140625 26.203125 
Q 8.40625 27.984375 6.46875 31.125 
Q 4.546875 34.28125 4.546875 38.09375 
Q 4.546875 41.546875 6.125 44.5 
Q 7.71875 47.46875 10.453125 49.421875 
Q 12.5 50.921875 16.03125 51.96875 
Q 19.578125 53.03125 23.640625 53.03125 
Q 29.734375 53.03125 34.34375 51.265625 
Q 38.96875 49.515625 41.15625 46.5 
Q 43.359375 43.5 44.1875 38.484375 
L 35.59375 37.3125 
Q 35.015625 41.3125 32.203125 43.546875 
Q 29.390625 45.796875 24.265625 45.796875 
Q 18.21875 45.796875 15.625 43.796875 
Q 13.03125 41.796875 13.03125 39.109375 
Q 13.03125 37.40625 14.109375 36.03125 
Q 15.1875 34.625 17.484375 33.6875 
Q 18.796875 33.203125 25.25 31.453125 
Q 34.578125 28.953125 38.25 27.359375 
Q 41.9375 25.78125 44.03125 22.75 
Q 46.140625 19.734375 46.140625 15.234375 
Q 46.140625 10.84375 43.578125 6.953125 
Q 41.015625 3.078125 36.171875 0.953125 
Q 31.34375 -1.171875 25.25 -1.171875 
Q 15.140625 -1.171875 9.84375 3.03125 
Q 4.546875 7.234375 3.078125 15.484375 
z
" id="ArialMT-115"/>
     </defs>
     <g style="fill:#262626;" transform="translate(117.515156 188.858906)scale(0.11 -0.11)">
      <use xlink:href="#ArialMT-84"/>
      <use x="60.912109" xlink:href="#ArialMT-111"/>
      <use x="116.527344" xlink:href="#ArialMT-116"/>
      <use x="144.310547" xlink:href="#ArialMT-97"/>
      <use x="199.925781" xlink:href="#ArialMT-108"/>
      <use x="222.142578" xlink:href="#ArialMT-69"/>
      <use x="288.841797" xlink:href="#ArialMT-110"/>
      <use x="344.457031" xlink:href="#ArialMT-118"/>
      <use x="394.457031" xlink:href="#ArialMT-73"/>
      <use x="422.240234" xlink:href="#ArialMT-110"/>
      <use x="477.855469" xlink:href="#ArialMT-116"/>
      <use x="505.638672" xlink:href="#ArialMT-101"/>
      <use x="561.253906" xlink:href="#ArialMT-114"/>
      <use x="594.554688" xlink:href="#ArialMT-97"/>
      <use x="650.169922" xlink:href="#ArialMT-99"/>
      <use x="700.169922" xlink:href="#ArialMT-116"/>
      <use x="727.953125" xlink:href="#ArialMT-115"/>
     </g>
    </g>
    <g id="text_7">
     <!-- 1e6 -->
     <defs>
      <path d="M 49.75 54.046875 
L 41.015625 53.375 
Q 39.84375 58.546875 37.703125 60.890625 
Q 34.125 64.65625 28.90625 64.65625 
Q 24.703125 64.65625 21.53125 62.3125 
Q 17.390625 59.28125 14.984375 53.46875 
Q 12.59375 47.65625 12.5 36.921875 
Q 15.671875 41.75 20.265625 44.09375 
Q 24.859375 46.4375 29.890625 46.4375 
Q 38.671875 46.4375 44.84375 39.96875 
Q 51.03125 33.5 51.03125 23.25 
Q 51.03125 16.5 48.125 10.71875 
Q 45.21875 4.9375 40.140625 1.859375 
Q 35.0625 -1.21875 28.609375 -1.21875 
Q 17.625 -1.21875 10.6875 6.859375 
Q 3.765625 14.9375 3.765625 33.5 
Q 3.765625 54.25 11.421875 63.671875 
Q 18.109375 71.875 29.4375 71.875 
Q 37.890625 71.875 43.28125 67.140625 
Q 48.6875 62.40625 49.75 54.046875 
z
M 13.875 23.1875 
Q 13.875 18.65625 15.796875 14.5 
Q 17.71875 10.359375 21.1875 8.171875 
Q 24.65625 6 28.46875 6 
Q 34.03125 6 38.03125 10.484375 
Q 42.046875 14.984375 42.046875 22.703125 
Q 42.046875 30.125 38.078125 34.390625 
Q 34.125 38.671875 28.125 38.671875 
Q 22.171875 38.671875 18.015625 34.390625 
Q 13.875 30.125 13.875 23.1875 
z
" id="ArialMT-54"/>
     </defs>
     <g style="fill:#262626;" transform="translate(254.517187 187.143125)scale(0.1 -0.1)">
      <use xlink:href="#ArialMT-49"/>
      <use x="55.615234" xlink:href="#ArialMT-101"/>
      <use x="111.230469" xlink:href="#ArialMT-54"/>
     </g>
    </g>
   </g>
   <g id="matplotlib.axis_2">
    <g id="ytick_1">
     <g id="line2d_11">
      <path clip-path="url(#p426505bcc1)" d="M 49.4 132.214344 
L 271.2 132.214344 
" style="fill:none;stroke:#ffffff;stroke-linecap:round;"/>
     </g>
     <g id="line2d_12"/>
     <g id="text_8">
      <!-- 1000 -->
      <g style="fill:#262626;" transform="translate(20.15625 135.79325)scale(0.1 -0.1)">
       <use xlink:href="#ArialMT-49"/>
       <use x="55.615234" xlink:href="#ArialMT-48"/>
       <use x="111.230469" xlink:href="#ArialMT-48"/>
       <use x="166.845703" xlink:href="#ArialMT-48"/>
      </g>
     </g>
    </g>
    <g id="ytick_2">
     <g id="line2d_13">
      <path clip-path="url(#p426505bcc1)" d="M 49.4 99.035606 
L 271.2 99.035606 
" style="fill:none;stroke:#ffffff;stroke-linecap:round;"/>
     </g>
     <g id="line2d_14"/>
     <g id="text_9">
      <!-- 2000 -->
      <g style="fill:#262626;" transform="translate(20.15625 102.614512)scale(0.1 -0.1)">
       <use xlink:href="#ArialMT-50"/>
       <use x="55.615234" xlink:href="#ArialMT-48"/>
       <use x="111.230469" xlink:href="#ArialMT-48"/>
       <use x="166.845703" xlink:href="#ArialMT-48"/>
      </g>
     </g>
    </g>
    <g id="ytick_3">
     <g id="line2d_15">
      <path clip-path="url(#p426505bcc1)" d="M 49.4 65.856867 
L 271.2 65.856867 
" style="fill:none;stroke:#ffffff;stroke-linecap:round;"/>
     </g>
     <g id="line2d_16"/>
     <g id="text_10">
      <!-- 3000 -->
      <defs>
       <path d="M 4.203125 18.890625 
L 12.984375 20.0625 
Q 14.5 12.59375 18.140625 9.296875 
Q 21.78125 6 27 6 
Q 33.203125 6 37.46875 10.296875 
Q 41.75 14.59375 41.75 20.953125 
Q 41.75 27 37.796875 30.921875 
Q 33.84375 34.859375 27.734375 34.859375 
Q 25.25 34.859375 21.53125 33.890625 
L 22.515625 41.609375 
Q 23.390625 41.5 23.921875 41.5 
Q 29.546875 41.5 34.03125 44.421875 
Q 38.53125 47.359375 38.53125 53.46875 
Q 38.53125 58.296875 35.25 61.46875 
Q 31.984375 64.65625 26.8125 64.65625 
Q 21.6875 64.65625 18.265625 61.421875 
Q 14.84375 58.203125 13.875 51.765625 
L 5.078125 53.328125 
Q 6.6875 62.15625 12.390625 67.015625 
Q 18.109375 71.875 26.609375 71.875 
Q 32.46875 71.875 37.390625 69.359375 
Q 42.328125 66.84375 44.9375 62.5 
Q 47.5625 58.15625 47.5625 53.265625 
Q 47.5625 48.640625 45.0625 44.828125 
Q 42.578125 41.015625 37.703125 38.765625 
Q 44.046875 37.3125 47.5625 32.6875 
Q 51.078125 28.078125 51.078125 21.140625 
Q 51.078125 11.765625 44.234375 5.25 
Q 37.40625 -1.265625 26.953125 -1.265625 
Q 17.53125 -1.265625 11.296875 4.34375 
Q 5.078125 9.96875 4.203125 18.890625 
z
" id="ArialMT-51"/>
      </defs>
      <g style="fill:#262626;" transform="translate(20.15625 69.435774)scale(0.1 -0.1)">
       <use xlink:href="#ArialMT-51"/>
       <use x="55.615234" xlink:href="#ArialMT-48"/>
       <use x="111.230469" xlink:href="#ArialMT-48"/>
       <use x="166.845703" xlink:href="#ArialMT-48"/>
      </g>
     </g>
    </g>
    <g id="ytick_4">
     <g id="line2d_17">
      <path clip-path="url(#p426505bcc1)" d="M 49.4 32.678129 
L 271.2 32.678129 
" style="fill:none;stroke:#ffffff;stroke-linecap:round;"/>
     </g>
     <g id="line2d_18"/>
     <g id="text_11">
      <!-- 4000 -->
      <defs>
       <path d="M 32.328125 0 
L 32.328125 17.140625 
L 1.265625 17.140625 
L 1.265625 25.203125 
L 33.9375 71.578125 
L 41.109375 71.578125 
L 41.109375 25.203125 
L 50.78125 25.203125 
L 50.78125 17.140625 
L 41.109375 17.140625 
L 41.109375 0 
z
M 32.328125 25.203125 
L 32.328125 57.46875 
L 9.90625 25.203125 
z
" id="ArialMT-52"/>
      </defs>
      <g style="fill:#262626;" transform="translate(20.15625 36.257035)scale(0.1 -0.1)">
       <use xlink:href="#ArialMT-52"/>
       <use x="55.615234" xlink:href="#ArialMT-48"/>
       <use x="111.230469" xlink:href="#ArialMT-48"/>
       <use x="166.845703" xlink:href="#ArialMT-48"/>
      </g>
     </g>
    </g>
    <g id="text_12">
     <!-- Performance -->
     <defs>
      <path d="M 7.71875 0 
L 7.71875 71.578125 
L 34.71875 71.578125 
Q 41.84375 71.578125 45.609375 70.90625 
Q 50.875 70.015625 54.4375 67.546875 
Q 58.015625 65.09375 60.1875 60.640625 
Q 62.359375 56.203125 62.359375 50.875 
Q 62.359375 41.75 56.546875 35.421875 
Q 50.734375 29.109375 35.546875 29.109375 
L 17.1875 29.109375 
L 17.1875 0 
z
M 17.1875 37.546875 
L 35.6875 37.546875 
Q 44.875 37.546875 48.734375 40.96875 
Q 52.59375 44.390625 52.59375 50.59375 
Q 52.59375 55.078125 50.3125 58.265625 
Q 48.046875 61.46875 44.34375 62.5 
Q 41.9375 63.140625 35.5 63.140625 
L 17.1875 63.140625 
z
" id="ArialMT-80"/>
      <path d="M 8.6875 0 
L 8.6875 45.015625 
L 0.921875 45.015625 
L 0.921875 51.859375 
L 8.6875 51.859375 
L 8.6875 57.375 
Q 8.6875 62.59375 9.625 65.140625 
Q 10.890625 68.5625 14.078125 70.671875 
Q 17.28125 72.796875 23.046875 72.796875 
Q 26.765625 72.796875 31.25 71.921875 
L 29.9375 64.265625 
Q 27.203125 64.75 24.75 64.75 
Q 20.75 64.75 19.09375 63.03125 
Q 17.4375 61.328125 17.4375 56.640625 
L 17.4375 51.859375 
L 27.546875 51.859375 
L 27.546875 45.015625 
L 17.4375 45.015625 
L 17.4375 0 
z
" id="ArialMT-102"/>
      <path d="M 6.59375 0 
L 6.59375 51.859375 
L 14.453125 51.859375 
L 14.453125 44.578125 
Q 16.890625 48.390625 20.9375 50.703125 
Q 25 53.03125 30.171875 53.03125 
Q 35.9375 53.03125 39.625 50.640625 
Q 43.3125 48.25 44.828125 43.953125 
Q 50.984375 53.03125 60.84375 53.03125 
Q 68.5625 53.03125 72.703125 48.75 
Q 76.859375 44.484375 76.859375 35.59375 
L 76.859375 0 
L 68.109375 0 
L 68.109375 32.671875 
Q 68.109375 37.9375 67.25 40.25 
Q 66.40625 42.578125 64.15625 43.984375 
Q 61.921875 45.40625 58.890625 45.40625 
Q 53.421875 45.40625 49.796875 41.765625 
Q 46.1875 38.140625 46.1875 30.125 
L 46.1875 0 
L 37.40625 0 
L 37.40625 33.6875 
Q 37.40625 39.546875 35.25 42.46875 
Q 33.109375 45.40625 28.21875 45.40625 
Q 24.515625 45.40625 21.359375 43.453125 
Q 18.21875 41.5 16.796875 37.734375 
Q 15.375 33.984375 15.375 26.90625 
L 15.375 0 
z
" id="ArialMT-109"/>
     </defs>
     <g style="fill:#262626;" transform="translate(13.97 128.107803)rotate(-90)scale(0.11 -0.11)">
      <use xlink:href="#ArialMT-80"/>
      <use x="66.699219" xlink:href="#ArialMT-101"/>
      <use x="122.314453" xlink:href="#ArialMT-114"/>
      <use x="155.615234" xlink:href="#ArialMT-102"/>
      <use x="183.398438" xlink:href="#ArialMT-111"/>
      <use x="239.013672" xlink:href="#ArialMT-114"/>
      <use x="272.314453" xlink:href="#ArialMT-109"/>
      <use x="355.615234" xlink:href="#ArialMT-97"/>
      <use x="411.230469" xlink:href="#ArialMT-110"/>
      <use x="466.845703" xlink:href="#ArialMT-99"/>
      <use x="516.845703" xlink:href="#ArialMT-101"/>
     </g>
    </g>
   </g>
   <g id="PolyCollection_1">
    <path clip-path="url(#p426505bcc1)" d="M 49.4 150.6792 
L 49.4 155.002236 
L 50.141806 154.106085 
L 50.883612 152.726695 
L 51.625418 151.984886 
L 52.367224 150.576388 
L 53.10903 149.706473 
L 53.850836 148.04966 
L 54.592642 146.46898 
L 55.334448 144.580371 
L 56.076254 143.166924 
L 56.81806 139.750371 
L 57.559866 135.940656 
L 58.301672 133.123296 
L 59.043478 129.597289 
L 59.785284 125.543955 
L 60.52709 124.022402 
L 61.268896 120.97355 
L 62.010702 118.320628 
L 62.752508 116.481769 
L 63.494314 113.729458 
L 64.23612 110.425934 
L 64.977926 109.10051 
L 65.719732 106.675697 
L 66.461538 105.782075 
L 67.203344 104.215407 
L 67.945151 104.483935 
L 68.686957 102.780294 
L 69.428763 103.315543 
L 70.170569 100.885903 
L 70.912375 100.268084 
L 71.654181 100.397843 
L 72.395987 99.700052 
L 73.137793 97.053511 
L 73.879599 96.231049 
L 74.621405 94.844461 
L 75.363211 94.457692 
L 76.105017 91.348011 
L 76.846823 88.877878 
L 77.588629 86.26698 
L 78.330435 85.365511 
L 79.072241 83.342973 
L 79.814047 80.208875 
L 80.555853 79.881981 
L 81.297659 80.342992 
L 82.039465 80.40694 
L 82.781271 80.417961 
L 83.523077 81.133561 
L 84.264883 81.204394 
L 85.006689 82.29334 
L 85.748495 81.179228 
L 86.490301 79.514672 
L 87.232107 79.392616 
L 87.973913 79.058538 
L 88.715719 77.323808 
L 89.457525 77.10918 
L 90.199331 74.501664 
L 90.941137 71.863252 
L 91.682943 69.791373 
L 92.424749 67.222258 
L 93.166555 65.39336 
L 93.908361 66.886701 
L 94.650167 68.322857 
L 95.391973 68.729379 
L 96.133779 72.484625 
L 96.875585 73.661124 
L 97.617391 73.611446 
L 98.359197 74.626959 
L 99.101003 75.931555 
L 99.842809 76.567254 
L 100.584615 78.320613 
L 101.326421 76.716596 
L 102.068227 73.972797 
L 102.810033 71.791981 
L 103.551839 73.118607 
L 104.293645 71.943942 
L 105.035452 73.196764 
L 105.777258 74.480321 
L 106.519064 75.272268 
L 107.26087 75.307635 
L 108.002676 76.185827 
L 108.744482 76.119784 
L 109.486288 76.891353 
L 110.228094 77.071492 
L 110.9699 77.776104 
L 111.711706 73.855386 
L 112.453512 71.033195 
L 113.195318 68.904628 
L 113.937124 66.730891 
L 114.67893 65.131936 
L 115.420736 62.844124 
L 116.162542 60.428868 
L 116.904348 59.555861 
L 117.646154 58.576936 
L 118.38796 58.940815 
L 119.129766 58.655757 
L 119.871572 59.977419 
L 120.613378 60.055897 
L 121.355184 59.043273 
L 122.09699 58.630788 
L 122.838796 58.842531 
L 123.580602 58.852454 
L 124.322408 59.448456 
L 125.064214 59.350427 
L 125.80602 59.39148 
L 126.547826 59.134505 
L 127.289632 59.271599 
L 128.031438 61.050923 
L 128.773244 64.388952 
L 129.51505 64.251387 
L 130.256856 64.208623 
L 130.998662 62.708626 
L 131.740468 62.721285 
L 132.482274 62.077529 
L 133.22408 63.108205 
L 133.965886 62.818661 
L 134.707692 64.35263 
L 135.449498 66.610267 
L 136.191304 66.09683 
L 136.93311 67.021443 
L 137.674916 67.655813 
L 138.416722 67.798844 
L 139.158528 68.828574 
L 139.900334 68.974043 
L 140.64214 69.495404 
L 141.383946 67.119115 
L 142.125753 66.983818 
L 142.867559 63.343981 
L 143.609365 60.508498 
L 144.351171 58.54044 
L 145.092977 57.337447 
L 145.834783 56.180287 
L 146.576589 55.393135 
L 147.318395 53.242001 
L 148.060201 53.595439 
L 148.802007 52.923449 
L 149.543813 52.957318 
L 150.285619 53.322353 
L 151.027425 53.173874 
L 151.769231 53.413929 
L 152.511037 53.931755 
L 153.252843 54.040309 
L 153.994649 53.865928 
L 154.736455 53.947716 
L 155.478261 54.97477 
L 156.220067 54.03061 
L 156.961873 53.957102 
L 157.703679 53.943637 
L 158.445485 53.541502 
L 159.187291 53.378641 
L 159.929097 53.94126 
L 160.670903 53.362826 
L 161.412709 53.799541 
L 162.154515 55.232952 
L 162.896321 55.342275 
L 163.638127 55.162135 
L 164.379933 60.440175 
L 165.121739 61.267711 
L 165.863545 61.700658 
L 166.605351 62.744176 
L 167.347157 63.707085 
L 168.088963 63.392611 
L 168.830769 63.430417 
L 169.572575 62.972409 
L 170.314381 62.720721 
L 171.056187 62.456274 
L 171.797993 62.889584 
L 172.539799 58.953546 
L 173.281605 58.78015 
L 174.023411 58.557189 
L 174.765217 57.805826 
L 175.507023 57.845112 
L 176.248829 58.016939 
L 176.990635 58.422889 
L 177.732441 56.96458 
L 178.474247 55.592882 
L 179.216054 57.364009 
L 179.95786 57.011739 
L 180.699666 56.01157 
L 181.441472 55.205377 
L 182.183278 54.826193 
L 182.925084 54.218229 
L 183.66689 53.279561 
L 184.408696 53.129782 
L 185.150502 52.65181 
L 185.892308 52.597812 
L 186.634114 52.517491 
L 187.37592 52.091386 
L 188.117726 51.621856 
L 188.859532 51.487386 
L 189.601338 56.098117 
L 190.343144 59.906381 
L 191.08495 63.087479 
L 191.826756 65.588316 
L 192.568562 68.84244 
L 193.310368 68.97984 
L 194.052174 69.421211 
L 194.79398 70.271291 
L 195.535786 70.694291 
L 196.277592 71.177483 
L 197.019398 71.603717 
L 197.761204 66.813578 
L 198.50301 62.440254 
L 199.244816 61.728 
L 199.986622 59.848888 
L 200.728428 57.830915 
L 201.470234 58.692764 
L 202.21204 59.123589 
L 202.953846 58.310594 
L 203.695652 55.716528 
L 204.437458 54.875609 
L 205.179264 54.491481 
L 205.92107 54.490806 
L 206.662876 55.519084 
L 207.404682 54.216467 
L 208.146488 54.070219 
L 208.888294 54.516483 
L 209.6301 53.934719 
L 210.371906 52.199223 
L 211.113712 51.758487 
L 211.855518 51.663184 
L 212.597324 51.576953 
L 213.33913 54.252845 
L 214.080936 54.167877 
L 214.822742 53.287239 
L 215.564548 56.711734 
L 216.306355 56.988331 
L 217.048161 56.944447 
L 217.789967 56.923683 
L 218.531773 57.078163 
L 219.273579 57.037305 
L 220.015385 57.079913 
L 220.757191 57.068629 
L 221.498997 54.032732 
L 222.240803 54.381323 
L 222.982609 54.96506 
L 223.724415 52.368916 
L 224.466221 52.130925 
L 225.208027 51.49213 
L 225.949833 51.708091 
L 226.691639 51.71667 
L 227.433445 53.392068 
L 228.175251 53.965856 
L 228.917057 54.294668 
L 229.658863 54.595566 
L 230.400669 56.16726 
L 231.142475 57.703067 
L 231.884281 57.654571 
L 232.626087 57.605305 
L 233.367893 60.032542 
L 234.109699 60.795891 
L 234.851505 60.809442 
L 235.593311 60.247999 
L 236.335117 60.941559 
L 237.076923 60.688361 
L 237.818729 59.924453 
L 238.560535 58.033974 
L 239.302341 57.197938 
L 240.044147 60.464014 
L 240.785953 62.389134 
L 241.527759 60.337294 
L 242.269565 61.669464 
L 243.011371 63.750629 
L 243.753177 61.874645 
L 244.494983 62.996192 
L 245.236789 64.544215 
L 245.978595 67.071469 
L 246.720401 67.978261 
L 247.462207 67.079701 
L 248.204013 66.805991 
L 248.945819 65.871228 
L 249.687625 67.596402 
L 250.429431 67.101059 
L 251.171237 68.329588 
L 251.913043 67.150139 
L 252.654849 64.834489 
L 253.396656 63.057846 
L 254.138462 59.736547 
L 254.880268 62.064224 
L 255.622074 62.767382 
L 256.36388 60.923974 
L 257.105686 63.002084 
L 257.847492 63.68964 
L 258.589298 61.206068 
L 259.331104 59.801964 
L 260.07291 60.145572 
L 260.814716 60.68441 
L 261.556522 60.720969 
L 262.298328 62.04167 
L 263.040134 59.015079 
L 263.78194 59.725913 
L 264.523746 61.571266 
L 265.265552 58.630748 
L 266.007358 58.099637 
L 266.749164 57.678111 
L 267.49097 56.382933 
L 268.232776 56.968538 
L 268.974582 56.881262 
L 269.716388 58.237196 
L 270.458194 58.023994 
L 271.2 60.094423 
L 271.2 42.355951 
L 271.2 42.355951 
L 270.458194 43.054709 
L 269.716388 42.716738 
L 268.974582 43.444514 
L 268.232776 44.120833 
L 267.49097 44.711316 
L 266.749164 43.585186 
L 266.007358 44.023939 
L 265.265552 43.655289 
L 264.523746 42.316187 
L 263.78194 43.108522 
L 263.040134 44.275009 
L 262.298328 42.717181 
L 261.556522 43.353756 
L 260.814716 43.194635 
L 260.07291 42.7079 
L 259.331104 42.388622 
L 258.589298 42.265484 
L 257.847492 39.943105 
L 257.105686 40.815003 
L 256.36388 42.123076 
L 255.622074 40.944279 
L 254.880268 40.383095 
L 254.138462 41.748929 
L 253.396656 41.011824 
L 252.654849 41.003526 
L 251.913043 39.757333 
L 251.171237 39.013242 
L 250.429431 38.94333 
L 249.687625 39.024621 
L 248.945819 39.765271 
L 248.204013 39.373574 
L 247.462207 39.856776 
L 246.720401 39.456935 
L 245.978595 39.844178 
L 245.236789 40.954218 
L 244.494983 40.883944 
L 243.753177 41.480528 
L 243.011371 40.662062 
L 242.269565 41.989623 
L 241.527759 42.408034 
L 240.785953 41.578987 
L 240.044147 42.315942 
L 239.302341 43.405157 
L 238.560535 43.360251 
L 237.818729 42.455534 
L 237.076923 41.529349 
L 236.335117 41.303514 
L 235.593311 41.804213 
L 234.851505 42.303293 
L 234.109699 42.203676 
L 233.367893 43.160563 
L 232.626087 43.97375 
L 231.884281 43.87141 
L 231.142475 43.895212 
L 230.400669 44.651729 
L 229.658863 45.758201 
L 228.917057 46.460417 
L 228.175251 46.680879 
L 227.433445 46.743081 
L 226.691639 45.807038 
L 225.949833 45.873936 
L 225.208027 45.115329 
L 224.466221 44.861356 
L 223.724415 44.89663 
L 222.982609 44.222724 
L 222.240803 44.269734 
L 221.498997 44.344427 
L 220.757191 42.051047 
L 220.015385 42.159848 
L 219.273579 42.12604 
L 218.531773 42.471865 
L 217.789967 42.413561 
L 217.048161 42.457731 
L 216.306355 42.406659 
L 215.564548 42.439103 
L 214.822742 44.810261 
L 214.080936 45.14604 
L 213.33913 45.197498 
L 212.597324 46.079756 
L 211.855518 46.362258 
L 211.113712 46.486063 
L 210.371906 46.208512 
L 209.6301 46.610681 
L 208.888294 46.552409 
L 208.146488 46.698821 
L 207.404682 46.671766 
L 206.662876 46.751299 
L 205.92107 46.554338 
L 205.179264 46.484147 
L 204.437458 46.344138 
L 203.695652 45.671046 
L 202.953846 44.825164 
L 202.21204 44.802982 
L 201.470234 43.692963 
L 200.728428 44.245285 
L 199.986622 44.421692 
L 199.244816 44.170202 
L 198.50301 44.428533 
L 197.761204 43.274297 
L 197.019398 42.158645 
L 196.277592 42.210591 
L 195.535786 42.286445 
L 194.79398 42.109481 
L 194.052174 42.151617 
L 193.310368 42.196516 
L 192.568562 42.083364 
L 191.826756 43.150335 
L 191.08495 44.251617 
L 190.343144 44.716421 
L 189.601338 45.669229 
L 188.859532 46.879945 
L 188.117726 46.851935 
L 187.37592 46.642217 
L 186.634114 46.127272 
L 185.892308 46.012539 
L 185.150502 46.188457 
L 184.408696 46.131746 
L 183.66689 46.332044 
L 182.925084 45.9224 
L 182.183278 46.10654 
L 181.441472 46.031361 
L 180.699666 45.779349 
L 179.95786 45.395437 
L 179.216054 46.307309 
L 178.474247 47.120386 
L 177.732441 46.547904 
L 176.990635 46.372083 
L 176.248829 46.593191 
L 175.507023 46.589255 
L 174.765217 46.622453 
L 174.023411 45.567362 
L 173.281605 45.36369 
L 172.539799 45.116076 
L 171.797993 46.180286 
L 171.056187 45.522885 
L 170.314381 45.450574 
L 169.572575 45.446767 
L 168.830769 44.568048 
L 168.088963 44.914871 
L 167.347157 45.692094 
L 166.605351 46.057485 
L 165.863545 46.57467 
L 165.121739 46.820503 
L 164.379933 47.127342 
L 163.638127 46.954532 
L 162.896321 47.279947 
L 162.154515 47.35626 
L 161.412709 47.850854 
L 160.670903 47.600078 
L 159.929097 47.740442 
L 159.187291 47.482525 
L 158.445485 47.768199 
L 157.703679 47.833457 
L 156.961873 47.903559 
L 156.220067 47.907654 
L 155.478261 47.719982 
L 154.736455 47.963262 
L 153.994649 47.948955 
L 153.252843 48.063473 
L 152.511037 48.033427 
L 151.769231 47.599679 
L 151.027425 47.654578 
L 150.285619 47.757709 
L 149.543813 47.759127 
L 148.802007 47.889111 
L 148.060201 47.904134 
L 147.318395 48.000234 
L 146.576589 47.412016 
L 145.834783 47.204238 
L 145.092977 46.582483 
L 144.351171 46.919063 
L 143.609365 46.485623 
L 142.867559 45.42238 
L 142.125753 43.511572 
L 141.383946 43.357888 
L 140.64214 42.260233 
L 139.900334 42.265232 
L 139.158528 42.23677 
L 138.416722 41.940669 
L 137.674916 41.782476 
L 136.93311 41.635919 
L 136.191304 43.78717 
L 135.449498 44.666996 
L 134.707692 45.524231 
L 133.965886 46.222151 
L 133.22408 46.298222 
L 132.482274 46.059552 
L 131.740468 46.062974 
L 130.998662 46.029947 
L 130.256856 46.977931 
L 129.51505 47.027084 
L 128.773244 47.049683 
L 128.031438 48.376305 
L 127.289632 48.702054 
L 126.547826 48.659123 
L 125.80602 47.937665 
L 125.064214 47.808223 
L 124.322408 47.804989 
L 123.580602 47.715341 
L 122.838796 47.808814 
L 122.09699 47.476226 
L 121.355184 47.293856 
L 120.613378 48.385304 
L 119.871572 48.001149 
L 119.129766 48.124664 
L 118.38796 48.174183 
L 117.646154 48.035236 
L 116.904348 49.246246 
L 116.162542 49.277656 
L 115.420736 48.768903 
L 114.67893 47.817511 
L 113.937124 45.780493 
L 113.195318 44.80032 
L 112.453512 42.499779 
L 111.711706 41.275568 
L 110.9699 39.353878 
L 110.228094 39.693068 
L 109.486288 39.774102 
L 108.744482 39.038305 
L 108.002676 39.064757 
L 107.26087 39.268218 
L 106.519064 39.370911 
L 105.777258 39.910664 
L 105.035452 40.607892 
L 104.293645 40.893293 
L 103.551839 40.412577 
L 102.810033 41.221627 
L 102.068227 40.299724 
L 101.326421 39.291943 
L 100.584615 38.246964 
L 99.842809 39.218503 
L 99.101003 39.603059 
L 98.359197 40.354458 
L 97.617391 41.689443 
L 96.875585 41.741416 
L 96.133779 42.711872 
L 95.391973 44.708827 
L 94.650167 44.981534 
L 93.908361 45.861447 
L 93.166555 47.116029 
L 92.424749 47.699354 
L 91.682943 47.083928 
L 90.941137 47.237484 
L 90.199331 47.181826 
L 89.457525 47.163103 
L 88.715719 47.271307 
L 87.973913 46.467368 
L 87.232107 46.420419 
L 86.490301 46.519341 
L 85.748495 45.964926 
L 85.006689 45.239103 
L 84.264883 44.343225 
L 83.523077 44.210798 
L 82.781271 45.026992 
L 82.039465 45.920375 
L 81.297659 44.55445 
L 80.555853 45.400331 
L 79.814047 45.715304 
L 79.072241 46.045005 
L 78.330435 47.27554 
L 77.588629 47.959665 
L 76.846823 49.196899 
L 76.105017 49.370735 
L 75.363211 50.841551 
L 74.621405 51.514641 
L 73.879599 53.124936 
L 73.137793 54.249512 
L 72.395987 55.845871 
L 71.654181 56.493082 
L 70.912375 56.642596 
L 70.170569 58.151884 
L 69.428763 59.529706 
L 68.686957 61.092973 
L 67.945151 63.046294 
L 67.203344 63.240293 
L 66.461538 66.380347 
L 65.719732 65.800263 
L 64.977926 65.273541 
L 64.23612 65.714602 
L 63.494314 68.504704 
L 62.752508 72.054255 
L 62.010702 75.1438 
L 61.268896 78.686927 
L 60.52709 82.01999 
L 59.785284 84.623281 
L 59.043478 90.196072 
L 58.301672 91.79399 
L 57.559866 99.168012 
L 56.81806 106.234683 
L 56.076254 112.664089 
L 55.334448 119.305551 
L 54.592642 126.073916 
L 53.850836 131.655889 
L 53.10903 136.783257 
L 52.367224 139.813435 
L 51.625418 144.529409 
L 50.883612 145.936004 
L 50.141806 150.478946 
L 49.4 150.6792 
z
" style="fill:#4c72b0;fill-opacity:0.2;"/>
   </g>
   <g id="PolyCollection_2">
    <path clip-path="url(#p426505bcc1)" d="M 49.4 147.352798 
L 49.4 153.191666 
L 50.141806 152.516232 
L 50.883612 151.003051 
L 51.625418 149.95616 
L 52.367224 148.481974 
L 53.10903 147.260009 
L 53.850836 144.162895 
L 54.592642 143.238402 
L 55.334448 140.083069 
L 56.076254 136.737558 
L 56.81806 134.991541 
L 57.559866 131.968403 
L 58.301672 128.575975 
L 59.043478 123.930663 
L 59.785284 121.593681 
L 60.52709 118.625203 
L 61.268896 115.194368 
L 62.010702 112.147645 
L 62.752508 109.624257 
L 63.494314 107.510017 
L 64.23612 105.22347 
L 64.977926 103.6922 
L 65.719732 100.919003 
L 66.461538 99.024436 
L 67.203344 97.012626 
L 67.945151 94.676131 
L 68.686957 90.82276 
L 69.428763 88.278996 
L 70.170569 85.702326 
L 70.912375 83.452558 
L 71.654181 80.900647 
L 72.395987 78.990074 
L 73.137793 79.190624 
L 73.879599 77.386167 
L 74.621405 76.906841 
L 75.363211 76.601986 
L 76.105017 75.07766 
L 76.846823 74.580367 
L 77.588629 74.703176 
L 78.330435 73.60107 
L 79.072241 73.799325 
L 79.814047 72.207159 
L 80.555853 70.645094 
L 81.297659 68.085983 
L 82.039465 67.879802 
L 82.781271 66.184159 
L 83.523077 66.5623 
L 84.264883 66.476352 
L 85.006689 64.449639 
L 85.748495 63.840717 
L 86.490301 65.283397 
L 87.232107 65.171592 
L 87.973913 66.048258 
L 88.715719 66.918747 
L 89.457525 67.877897 
L 90.199331 69.901647 
L 90.941137 72.107808 
L 91.682943 69.608962 
L 92.424749 71.688945 
L 93.166555 71.43816 
L 93.908361 73.37717 
L 94.650167 70.825208 
L 95.391973 70.673494 
L 96.133779 73.144649 
L 96.875585 72.103038 
L 97.617391 72.061775 
L 98.359197 71.908653 
L 99.101003 68.916594 
L 99.842809 72.763524 
L 100.584615 70.364008 
L 101.326421 70.158914 
L 102.068227 68.055398 
L 102.810033 68.542889 
L 103.551839 65.806035 
L 104.293645 62.284815 
L 105.035452 61.700893 
L 105.777258 59.458205 
L 106.519064 59.01294 
L 107.26087 59.042775 
L 108.002676 57.064251 
L 108.744482 57.117569 
L 109.486288 56.863783 
L 110.228094 55.401178 
L 110.9699 54.678076 
L 111.711706 54.657457 
L 112.453512 54.794881 
L 113.195318 54.625854 
L 113.937124 52.7276 
L 114.67893 52.576641 
L 115.420736 52.261667 
L 116.162542 52.583625 
L 116.904348 52.585374 
L 117.646154 52.447222 
L 118.38796 52.390041 
L 119.129766 52.383822 
L 119.871572 52.294072 
L 120.613378 52.323765 
L 121.355184 52.411349 
L 122.09699 52.406595 
L 122.838796 51.596581 
L 123.580602 51.532958 
L 124.322408 51.233105 
L 125.064214 51.117015 
L 125.80602 51.281031 
L 126.547826 51.282777 
L 127.289632 51.221922 
L 128.031438 51.196981 
L 128.773244 52.517032 
L 129.51505 53.202184 
L 130.256856 55.274988 
L 130.998662 55.579263 
L 131.740468 56.884833 
L 132.482274 56.7817 
L 133.22408 56.91125 
L 133.965886 57.595741 
L 134.707692 58.130937 
L 135.449498 58.987785 
L 136.191304 59.847643 
L 136.93311 58.235569 
L 137.674916 57.901072 
L 138.416722 56.407572 
L 139.158528 55.514529 
L 139.900334 54.60097 
L 140.64214 54.650763 
L 141.383946 54.460149 
L 142.125753 54.204339 
L 142.867559 54.08174 
L 143.609365 53.746902 
L 144.351171 54.44646 
L 145.092977 54.40352 
L 145.834783 54.824677 
L 146.576589 54.955735 
L 147.318395 55.790392 
L 148.060201 55.990189 
L 148.802007 56.446953 
L 149.543813 56.652225 
L 150.285619 56.49705 
L 151.027425 56.224085 
L 151.769231 56.734696 
L 152.511037 54.856986 
L 153.252843 54.533349 
L 153.994649 53.615272 
L 154.736455 53.267329 
L 155.478261 53.587117 
L 156.220067 53.345926 
L 156.961873 52.631495 
L 157.703679 53.223641 
L 158.445485 54.714395 
L 159.187291 54.962641 
L 159.929097 56.179263 
L 160.670903 58.299225 
L 161.412709 60.709286 
L 162.154515 61.166604 
L 162.896321 63.043648 
L 163.638127 62.149331 
L 164.379933 63.47366 
L 165.121739 66.162553 
L 165.863545 65.375114 
L 166.605351 66.367183 
L 167.347157 69.03964 
L 168.088963 67.912319 
L 168.830769 65.484629 
L 169.572575 63.617406 
L 170.314381 62.887293 
L 171.056187 61.146575 
L 171.797993 63.028185 
L 172.539799 62.009637 
L 173.281605 60.889994 
L 174.023411 63.393348 
L 174.765217 61.275833 
L 175.507023 60.353312 
L 176.248829 59.144547 
L 176.990635 59.09425 
L 177.732441 59.014161 
L 178.474247 59.950295 
L 179.216054 59.734635 
L 179.95786 57.249071 
L 180.699666 56.74293 
L 181.441472 55.491604 
L 182.183278 53.271879 
L 182.925084 53.817399 
L 183.66689 52.539085 
L 184.408696 53.999402 
L 185.150502 55.747034 
L 185.892308 55.370964 
L 186.634114 54.85674 
L 187.37592 56.832452 
L 188.117726 57.241597 
L 188.859532 57.798026 
L 189.601338 58.356713 
L 190.343144 58.180588 
L 191.08495 56.974303 
L 191.826756 56.187098 
L 192.568562 54.164587 
L 193.310368 53.598487 
L 194.052174 54.269225 
L 194.79398 56.371478 
L 195.535786 56.772699 
L 196.277592 61.347795 
L 197.019398 63.305212 
L 197.761204 65.313059 
L 198.50301 65.522596 
L 199.244816 66.09791 
L 199.986622 66.301639 
L 200.728428 66.893696 
L 201.470234 64.612429 
L 202.21204 64.307706 
L 202.953846 63.80644 
L 203.695652 63.32792 
L 204.437458 59.139901 
L 205.179264 56.566105 
L 205.92107 55.9898 
L 206.662876 55.5786 
L 207.404682 55.467196 
L 208.146488 55.880269 
L 208.888294 54.162615 
L 209.6301 54.058531 
L 210.371906 55.090656 
L 211.113712 56.422198 
L 211.855518 59.072002 
L 212.597324 61.64185 
L 213.33913 63.976987 
L 214.080936 63.432901 
L 214.822742 65.523147 
L 215.564548 66.788678 
L 216.306355 66.154382 
L 217.048161 66.063954 
L 217.789967 66.63156 
L 218.531773 67.458343 
L 219.273579 67.216624 
L 220.015385 64.346784 
L 220.757191 61.946535 
L 221.498997 59.103543 
L 222.240803 62.227334 
L 222.982609 62.126487 
L 223.724415 64.267794 
L 224.466221 63.354791 
L 225.208027 65.506491 
L 225.949833 65.948457 
L 226.691639 63.685087 
L 227.433445 61.776674 
L 228.175251 63.281958 
L 228.917057 63.388119 
L 229.658863 66.006725 
L 230.400669 64.518702 
L 231.142475 64.44681 
L 231.884281 61.87027 
L 232.626087 61.620173 
L 233.367893 61.326541 
L 234.109699 60.628062 
L 234.851505 61.848344 
L 235.593311 63.657563 
L 236.335117 62.278376 
L 237.076923 61.731434 
L 237.818729 60.06558 
L 238.560535 58.007168 
L 239.302341 58.755044 
L 240.044147 58.200094 
L 240.785953 59.242518 
L 241.527759 57.652604 
L 242.269565 57.789578 
L 243.011371 55.579912 
L 243.753177 52.652793 
L 244.494983 52.33868 
L 245.236789 53.878468 
L 245.978595 53.477854 
L 246.720401 55.089944 
L 247.462207 54.603984 
L 248.204013 56.511718 
L 248.945819 56.821845 
L 249.687625 58.98487 
L 250.429431 62.743701 
L 251.171237 64.675823 
L 251.913043 65.563278 
L 252.654849 65.411738 
L 253.396656 64.761997 
L 254.138462 64.864971 
L 254.880268 66.454996 
L 255.622074 64.912423 
L 256.36388 62.166525 
L 257.105686 61.219164 
L 257.847492 59.162322 
L 258.589298 55.818532 
L 259.331104 56.54041 
L 260.07291 55.864994 
L 260.814716 59.304628 
L 261.556522 57.695203 
L 262.298328 57.176148 
L 263.040134 53.408965 
L 263.78194 51.993229 
L 264.523746 52.063202 
L 265.265552 53.71712 
L 266.007358 55.839175 
L 266.749164 57.892358 
L 267.49097 55.529443 
L 268.232776 55.954016 
L 268.974582 53.47032 
L 269.716388 54.857459 
L 270.458194 56.318693 
L 271.2 58.839725 
L 271.2 43.05522 
L 271.2 43.05522 
L 270.458194 44.035685 
L 269.716388 44.250594 
L 268.974582 44.441357 
L 268.232776 43.76195 
L 267.49097 43.742634 
L 266.749164 43.342238 
L 266.007358 44.21221 
L 265.265552 44.608998 
L 264.523746 44.946156 
L 263.78194 45.212263 
L 263.040134 44.709555 
L 262.298328 43.477417 
L 261.556522 43.654008 
L 260.814716 44.715611 
L 260.07291 45.74582 
L 259.331104 45.980201 
L 258.589298 45.426051 
L 257.847492 45.230663 
L 257.105686 45.408315 
L 256.36388 44.928839 
L 255.622074 44.460443 
L 254.880268 44.191126 
L 254.138462 44.420242 
L 253.396656 44.48716 
L 252.654849 42.696036 
L 251.913043 42.686868 
L 251.171237 42.404079 
L 250.429431 42.90812 
L 249.687625 44.255908 
L 248.945819 44.499737 
L 248.204013 45.195141 
L 247.462207 44.86625 
L 246.720401 44.448553 
L 245.978595 44.718153 
L 245.236789 44.564646 
L 244.494983 45.259419 
L 243.753177 45.19394 
L 243.011371 45.292301 
L 242.269565 44.833131 
L 241.527759 44.121098 
L 240.785953 43.776183 
L 240.044147 43.811466 
L 239.302341 43.394244 
L 238.560535 44.675798 
L 237.818729 44.551052 
L 237.076923 44.207174 
L 236.335117 43.725675 
L 235.593311 43.444521 
L 234.851505 43.15157 
L 234.109699 44.629482 
L 233.367893 45.897788 
L 232.626087 45.651402 
L 231.884281 45.71597 
L 231.142475 45.750144 
L 230.400669 44.63745 
L 229.658863 44.922677 
L 228.917057 45.739867 
L 228.175251 45.844242 
L 227.433445 46.261333 
L 226.691639 45.402054 
L 225.949833 42.848232 
L 225.208027 41.786077 
L 224.466221 42.539571 
L 223.724415 42.491966 
L 222.982609 42.481736 
L 222.240803 41.847241 
L 221.498997 41.723765 
L 220.757191 40.519277 
L 220.015385 39.618996 
L 219.273579 38.8055 
L 218.531773 39.745586 
L 217.789967 40.318568 
L 217.048161 40.552936 
L 216.306355 40.503184 
L 215.564548 39.487982 
L 214.822742 40.443233 
L 214.080936 41.357889 
L 213.33913 41.679401 
L 212.597324 42.439179 
L 211.855518 44.051208 
L 211.113712 44.732561 
L 210.371906 44.198477 
L 209.6301 44.212223 
L 208.888294 44.050946 
L 208.146488 43.500964 
L 207.404682 44.187764 
L 206.662876 44.705069 
L 205.92107 44.660393 
L 205.179264 45.221872 
L 204.437458 44.452988 
L 203.695652 43.495845 
L 202.953846 43.853474 
L 202.21204 43.836451 
L 201.470234 43.962038 
L 200.728428 43.965219 
L 199.986622 43.701955 
L 199.244816 43.020391 
L 198.50301 43.461532 
L 197.761204 43.383541 
L 197.019398 44.050272 
L 196.277592 44.326648 
L 195.535786 45.221281 
L 194.79398 46.016148 
L 194.052174 46.342419 
L 193.310368 46.537338 
L 192.568562 44.933422 
L 191.826756 44.284768 
L 191.08495 44.864871 
L 190.343144 43.434854 
L 189.601338 43.278209 
L 188.859532 43.080627 
L 188.117726 43.332069 
L 187.37592 43.263772 
L 186.634114 43.887182 
L 185.892308 44.857648 
L 185.150502 44.942434 
L 184.408696 46.219882 
L 183.66689 46.295002 
L 182.925084 45.028382 
L 182.183278 46.147336 
L 181.441472 45.677602 
L 180.699666 45.254016 
L 179.95786 45.057489 
L 179.216054 44.021172 
L 178.474247 44.092261 
L 177.732441 43.632316 
L 176.990635 43.620895 
L 176.248829 43.20364 
L 175.507023 42.455169 
L 174.765217 43.410313 
L 174.023411 43.099876 
L 173.281605 44.640538 
L 172.539799 44.092222 
L 171.797993 43.732556 
L 171.056187 44.615634 
L 170.314381 43.659872 
L 169.572575 44.288506 
L 168.830769 42.882057 
L 168.088963 41.616539 
L 167.347157 40.9918 
L 166.605351 40.900666 
L 165.863545 39.979947 
L 165.121739 38.89299 
L 164.379933 40.242611 
L 163.638127 40.850718 
L 162.896321 40.329909 
L 162.154515 41.319656 
L 161.412709 40.673536 
L 160.670903 41.810519 
L 159.929097 43.66479 
L 159.187291 44.182759 
L 158.445485 44.240475 
L 157.703679 44.722537 
L 156.961873 44.931046 
L 156.220067 44.68979 
L 155.478261 45.431306 
L 154.736455 46.350713 
L 153.994649 46.108076 
L 153.252843 45.758123 
L 152.511037 45.668329 
L 151.769231 44.965331 
L 151.027425 45.172431 
L 150.285619 45.065393 
L 149.543813 45.206719 
L 148.802007 45.353901 
L 148.060201 45.431408 
L 147.318395 44.589062 
L 146.576589 44.237788 
L 145.834783 44.255052 
L 145.092977 44.216916 
L 144.351171 44.256383 
L 143.609365 44.332136 
L 142.867559 44.368364 
L 142.125753 44.29381 
L 141.383946 44.192945 
L 140.64214 44.074006 
L 139.900334 44.086703 
L 139.158528 44.621803 
L 138.416722 44.707353 
L 137.674916 44.804556 
L 136.93311 44.813279 
L 136.191304 44.099081 
L 135.449498 43.239028 
L 134.707692 43.605247 
L 133.965886 43.802094 
L 133.22408 44.096899 
L 132.482274 44.003504 
L 131.740468 43.978254 
L 130.998662 43.716734 
L 130.256856 43.144174 
L 129.51505 43.529768 
L 128.773244 43.838231 
L 128.031438 44.232371 
L 127.289632 44.26005 
L 126.547826 44.277728 
L 125.80602 44.340909 
L 125.064214 44.316509 
L 124.322408 44.49423 
L 123.580602 44.465742 
L 122.838796 44.593173 
L 122.09699 44.3819 
L 121.355184 44.416039 
L 120.613378 44.462749 
L 119.871572 44.578546 
L 119.129766 44.695844 
L 118.38796 44.895891 
L 117.646154 44.912416 
L 116.904348 44.888853 
L 116.162542 45.053983 
L 115.420736 45.21356 
L 114.67893 45.402342 
L 113.937124 46.373332 
L 113.195318 46.34684 
L 112.453512 46.322566 
L 111.711706 46.359707 
L 110.9699 46.414312 
L 110.228094 46.410502 
L 109.486288 46.224293 
L 108.744482 46.119491 
L 108.002676 46.550311 
L 107.26087 46.792764 
L 106.519064 46.503198 
L 105.777258 45.788867 
L 105.035452 43.756511 
L 104.293645 43.975848 
L 103.551839 44.131491 
L 102.810033 42.816105 
L 102.068227 42.570558 
L 101.326421 40.723204 
L 100.584615 40.936732 
L 99.842809 39.669765 
L 99.101003 41.671018 
L 98.359197 41.149115 
L 97.617391 41.206046 
L 96.875585 41.072199 
L 96.133779 40.060818 
L 95.391973 41.518759 
L 94.650167 42.133383 
L 93.908361 41.224721 
L 93.166555 43.675057 
L 92.424749 44.043833 
L 91.682943 45.688256 
L 90.941137 44.818562 
L 90.199331 46.448031 
L 89.457525 48.153028 
L 88.715719 49.603143 
L 87.973913 50.39444 
L 87.232107 50.023388 
L 86.490301 51.702916 
L 85.748495 52.553326 
L 85.006689 51.808617 
L 84.264883 50.923284 
L 83.523077 50.520939 
L 82.781271 50.901025 
L 82.039465 50.902101 
L 81.297659 50.6337 
L 80.555853 49.921452 
L 79.814047 50.055348 
L 79.072241 51.72562 
L 78.330435 50.911295 
L 77.588629 50.789063 
L 76.846823 51.240421 
L 76.105017 51.599171 
L 75.363211 52.155439 
L 74.621405 52.193811 
L 73.879599 52.016168 
L 73.137793 52.924225 
L 72.395987 56.317883 
L 71.654181 56.526887 
L 70.912375 55.760592 
L 70.170569 57.901878 
L 69.428763 59.116844 
L 68.686957 60.457809 
L 67.945151 60.899825 
L 67.203344 62.74389 
L 66.461538 64.253874 
L 65.719732 66.16097 
L 64.977926 66.8969 
L 64.23612 69.757961 
L 63.494314 74.182336 
L 62.752508 74.84216 
L 62.010702 78.049387 
L 61.268896 80.988338 
L 60.52709 86.531718 
L 59.785284 89.880455 
L 59.043478 96.231604 
L 58.301672 100.467453 
L 57.559866 106.409865 
L 56.81806 112.833376 
L 56.076254 116.788837 
L 55.334448 120.575361 
L 54.592642 127.250379 
L 53.850836 132.04888 
L 53.10903 137.390796 
L 52.367224 138.390067 
L 51.625418 141.104142 
L 50.883612 142.523278 
L 50.141806 145.957012 
L 49.4 147.352798 
z
" style="fill:#55a868;fill-opacity:0.2;"/>
   </g>
   <g id="line2d_19">
    <path clip-path="url(#p426505bcc1)" d="M 49.4 152.840718 
L 50.141806 152.292516 
L 50.883612 149.331349 
L 51.625418 148.257147 
L 52.367224 145.194911 
L 53.10903 143.244865 
L 54.592642 136.271448 
L 56.81806 122.992527 
L 58.301672 112.458643 
L 59.043478 109.896681 
L 59.785284 105.083618 
L 60.52709 103.021196 
L 62.010702 96.732214 
L 62.752508 94.268012 
L 64.23612 88.070268 
L 65.719732 86.23798 
L 66.461538 86.081211 
L 67.203344 83.72785 
L 67.945151 83.765115 
L 68.686957 81.936633 
L 69.428763 81.422624 
L 70.170569 79.518894 
L 70.912375 78.45534 
L 71.654181 78.445462 
L 72.395987 77.772962 
L 73.137793 75.651511 
L 73.879599 74.677993 
L 74.621405 73.179551 
L 75.363211 72.649621 
L 76.105017 70.359373 
L 76.846823 69.037389 
L 77.588629 67.113323 
L 78.330435 66.320525 
L 79.814047 62.96209 
L 80.555853 62.641156 
L 81.297659 62.448721 
L 82.039465 63.163658 
L 82.781271 62.722477 
L 83.523077 62.67218 
L 84.264883 62.773809 
L 85.006689 63.766221 
L 85.748495 63.572077 
L 86.490301 63.017006 
L 87.973913 62.762953 
L 88.715719 62.297557 
L 89.457525 62.136142 
L 91.682943 58.437651 
L 92.424749 57.460806 
L 93.166555 56.254694 
L 93.908361 56.374074 
L 94.650167 56.652196 
L 95.391973 56.719103 
L 96.133779 57.598249 
L 96.875585 57.70127 
L 98.359197 57.490709 
L 99.101003 57.767307 
L 99.842809 57.892878 
L 100.584615 58.283788 
L 101.326421 58.004269 
L 102.068227 57.13626 
L 102.810033 56.506804 
L 103.551839 56.765592 
L 104.293645 56.418618 
L 105.035452 56.902328 
L 105.777258 57.195492 
L 106.519064 57.32159 
L 107.26087 57.287926 
L 108.002676 57.625292 
L 108.744482 57.579044 
L 109.486288 58.332727 
L 110.228094 58.38228 
L 110.9699 58.564991 
L 111.711706 57.565477 
L 112.453512 56.766487 
L 113.195318 56.852474 
L 113.937124 56.255692 
L 114.67893 56.474724 
L 115.420736 55.806514 
L 116.162542 54.853262 
L 116.904348 54.401054 
L 117.646154 53.306086 
L 118.38796 53.557499 
L 119.129766 53.39021 
L 119.871572 53.989284 
L 120.613378 54.2206 
L 121.355184 53.168564 
L 122.09699 53.053507 
L 122.838796 53.325673 
L 123.580602 53.283898 
L 124.322408 53.626722 
L 125.064214 53.579325 
L 125.80602 53.664573 
L 126.547826 53.896814 
L 127.289632 53.986827 
L 128.031438 54.713614 
L 128.773244 55.719318 
L 130.256856 55.593277 
L 130.998662 54.369287 
L 131.740468 54.39213 
L 132.482274 54.068541 
L 133.22408 54.703214 
L 133.965886 54.520406 
L 134.707692 54.93843 
L 135.449498 55.638632 
L 136.93311 54.328681 
L 137.674916 54.719145 
L 138.416722 54.869756 
L 139.158528 55.532672 
L 139.900334 55.619637 
L 140.64214 55.877819 
L 141.383946 55.238502 
L 142.125753 55.247695 
L 145.092977 51.959965 
L 146.576589 51.402576 
L 147.318395 50.621117 
L 148.060201 50.749786 
L 148.802007 50.40628 
L 149.543813 50.358223 
L 150.285619 50.540031 
L 151.027425 50.414226 
L 151.769231 50.506804 
L 152.511037 50.982591 
L 153.252843 51.051891 
L 153.994649 50.907441 
L 154.736455 50.955489 
L 155.478261 51.347376 
L 156.220067 50.969132 
L 157.703679 50.888547 
L 159.187291 50.430583 
L 159.929097 50.840851 
L 160.670903 50.481452 
L 161.412709 50.825197 
L 162.154515 51.294606 
L 162.896321 51.311111 
L 163.638127 51.058334 
L 164.379933 53.783759 
L 165.121739 54.044107 
L 165.863545 54.137664 
L 167.347157 54.699589 
L 168.088963 54.153741 
L 168.830769 53.999233 
L 169.572575 54.209588 
L 171.056187 53.98958 
L 171.797993 54.534935 
L 172.539799 52.034811 
L 176.248829 52.305065 
L 176.990635 52.397486 
L 177.732441 51.756242 
L 178.474247 51.356634 
L 179.216054 51.835659 
L 179.95786 51.203588 
L 181.441472 50.618369 
L 182.183278 50.466367 
L 182.925084 50.070314 
L 184.408696 49.630764 
L 185.892308 49.305176 
L 187.37592 49.366801 
L 188.859532 49.183666 
L 190.343144 52.311401 
L 191.08495 53.669548 
L 191.826756 54.369325 
L 192.568562 55.462902 
L 194.052174 55.786414 
L 195.535786 56.490368 
L 197.019398 56.881181 
L 198.50301 53.434393 
L 199.244816 52.949101 
L 199.986622 52.13529 
L 200.728428 51.0381 
L 201.470234 51.192864 
L 202.21204 51.963285 
L 202.953846 51.567879 
L 203.695652 50.693787 
L 205.92107 50.522572 
L 206.662876 51.135192 
L 207.404682 50.444117 
L 208.146488 50.38452 
L 208.888294 50.534446 
L 209.6301 50.2727 
L 210.371906 49.203868 
L 211.855518 49.012721 
L 212.597324 48.828354 
L 213.33913 49.725172 
L 214.080936 49.656959 
L 214.822742 49.04875 
L 215.564548 49.575418 
L 216.306355 49.697495 
L 218.531773 49.775014 
L 219.273579 49.581673 
L 220.757191 49.559838 
L 221.498997 49.188579 
L 222.240803 49.325529 
L 222.982609 49.593892 
L 223.724415 48.632773 
L 225.208027 48.30373 
L 225.949833 48.791014 
L 226.691639 48.761854 
L 227.433445 50.067574 
L 228.175251 50.323368 
L 228.917057 50.377543 
L 229.658863 50.176884 
L 230.400669 50.409494 
L 231.142475 50.79914 
L 232.626087 50.789528 
L 233.367893 51.596552 
L 234.109699 51.499784 
L 234.851505 51.556367 
L 235.593311 51.026106 
L 237.076923 51.108855 
L 237.818729 51.189993 
L 239.302341 50.301548 
L 240.044147 51.389978 
L 240.785953 51.98406 
L 241.527759 51.372664 
L 243.011371 52.206346 
L 243.753177 51.677587 
L 244.494983 51.940068 
L 245.978595 53.457823 
L 246.720401 53.717598 
L 247.462207 53.468239 
L 248.945819 52.81825 
L 249.687625 53.310512 
L 250.429431 53.022194 
L 251.171237 53.671415 
L 251.913043 53.453736 
L 252.654849 52.919007 
L 253.396656 52.034835 
L 254.138462 50.742738 
L 254.880268 51.223659 
L 255.622074 51.85583 
L 256.36388 51.523525 
L 257.105686 51.908543 
L 258.589298 51.735776 
L 259.331104 51.095293 
L 260.07291 51.426736 
L 260.814716 51.939522 
L 261.556522 52.037362 
L 262.298328 52.379426 
L 263.040134 51.645044 
L 263.78194 51.417217 
L 264.523746 51.943726 
L 265.265552 51.143018 
L 266.007358 51.061788 
L 266.749164 50.631648 
L 268.232776 50.544686 
L 268.974582 50.162888 
L 269.716388 50.476967 
L 270.458194 50.539352 
L 271.2 51.225187 
L 271.2 51.225187 
" style="fill:none;stroke:#4c72b0;stroke-linecap:round;stroke-width:1.75;"/>
   </g>
   <g id="line2d_20">
    <path clip-path="url(#p426505bcc1)" d="M 49.4 150.272232 
L 50.141806 149.236622 
L 50.883612 146.763164 
L 51.625418 145.530151 
L 52.367224 143.436021 
L 53.10903 142.325402 
L 53.850836 138.105888 
L 54.592642 135.244391 
L 55.334448 130.329215 
L 56.076254 126.763197 
L 56.81806 123.912458 
L 59.043478 110.081133 
L 59.785284 105.737068 
L 60.52709 102.578461 
L 61.268896 98.091353 
L 62.752508 92.233209 
L 63.494314 90.846176 
L 64.23612 87.490716 
L 64.977926 85.29455 
L 67.203344 79.878258 
L 70.912375 69.606575 
L 72.395987 67.653979 
L 73.879599 64.701167 
L 75.363211 64.378713 
L 76.105017 63.338416 
L 76.846823 62.910394 
L 77.588629 62.74612 
L 78.330435 62.256183 
L 79.072241 62.762473 
L 79.814047 61.131253 
L 81.297659 59.359841 
L 82.039465 59.390952 
L 82.781271 58.542592 
L 83.523077 58.541619 
L 84.264883 58.699818 
L 85.006689 58.129128 
L 85.748495 58.197021 
L 86.490301 58.493156 
L 87.232107 57.59749 
L 87.973913 58.221349 
L 88.715719 58.260945 
L 89.457525 58.015462 
L 90.199331 58.174839 
L 90.941137 58.463185 
L 91.682943 57.648609 
L 92.424749 57.866389 
L 93.908361 57.300946 
L 94.650167 56.479295 
L 95.391973 56.096126 
L 96.133779 56.602733 
L 98.359197 56.528884 
L 99.101003 55.293806 
L 99.842809 56.216644 
L 100.584615 55.65037 
L 102.068227 55.312978 
L 102.810033 55.679497 
L 103.551839 54.968763 
L 104.293645 53.130331 
L 105.035452 52.728702 
L 105.777258 52.623536 
L 107.26087 52.91777 
L 108.002676 51.807281 
L 109.486288 51.544038 
L 110.228094 50.90584 
L 110.9699 50.546194 
L 113.195318 50.486347 
L 113.937124 49.550466 
L 114.67893 48.989491 
L 115.420736 48.737614 
L 116.162542 48.818804 
L 120.613378 48.393257 
L 122.09699 48.394248 
L 122.838796 48.094877 
L 125.80602 47.81097 
L 128.031438 47.714676 
L 128.773244 48.177631 
L 129.51505 48.365976 
L 130.256856 49.209581 
L 130.998662 49.647998 
L 131.740468 50.431544 
L 132.482274 50.392602 
L 133.965886 50.698917 
L 135.449498 51.113406 
L 136.191304 51.973362 
L 136.93311 51.524424 
L 137.674916 51.352814 
L 138.416722 50.557463 
L 139.158528 50.068166 
L 139.900334 49.343836 
L 141.383946 49.326547 
L 143.609365 49.039519 
L 144.351171 49.351422 
L 145.092977 49.310218 
L 145.834783 49.539864 
L 146.576589 49.596761 
L 148.060201 50.710798 
L 148.802007 50.900427 
L 149.543813 50.929472 
L 151.027425 50.698258 
L 151.769231 50.850013 
L 152.511037 50.262658 
L 153.252843 50.145736 
L 153.994649 49.861674 
L 154.736455 49.809021 
L 155.478261 49.509212 
L 156.220067 49.017858 
L 156.961873 48.781271 
L 157.703679 48.973089 
L 158.445485 49.477435 
L 159.187291 49.5727 
L 159.929097 49.922026 
L 160.670903 50.054872 
L 162.154515 51.24313 
L 162.896321 51.686778 
L 163.638127 51.500024 
L 164.379933 51.858136 
L 165.121739 52.527771 
L 165.863545 52.677531 
L 166.605351 53.633925 
L 167.347157 55.01572 
L 168.088963 54.764429 
L 168.830769 54.183343 
L 169.572575 53.952956 
L 170.314381 53.273582 
L 171.056187 52.881105 
L 171.797993 53.38037 
L 173.281605 52.765266 
L 174.023411 53.246612 
L 175.507023 51.404241 
L 176.248829 51.174093 
L 176.990635 51.357573 
L 177.732441 51.323239 
L 178.474247 52.021278 
L 179.216054 51.877904 
L 179.95786 51.15328 
L 180.699666 50.998473 
L 181.441472 50.584603 
L 182.183278 49.709607 
L 182.925084 49.422891 
L 183.66689 49.417044 
L 184.408696 50.109642 
L 185.150502 50.344734 
L 185.892308 50.114306 
L 186.634114 49.371961 
L 187.37592 50.048112 
L 189.601338 50.817461 
L 190.343144 50.807721 
L 191.08495 50.919587 
L 192.568562 49.549005 
L 193.310368 50.067912 
L 194.052174 50.305822 
L 194.79398 51.193813 
L 195.535786 50.99699 
L 196.277592 52.837222 
L 197.019398 53.677742 
L 197.761204 54.3483 
L 199.244816 54.55915 
L 200.728428 55.429458 
L 201.470234 54.287233 
L 202.953846 53.829957 
L 203.695652 53.411883 
L 204.437458 51.796445 
L 205.179264 50.893989 
L 205.92107 50.325097 
L 206.662876 50.141835 
L 207.404682 49.82748 
L 208.146488 49.690617 
L 208.888294 49.10678 
L 209.6301 49.135377 
L 210.371906 49.644566 
L 211.855518 51.561605 
L 212.597324 52.040514 
L 213.33913 52.828194 
L 214.080936 52.395395 
L 214.822742 52.98319 
L 216.306355 53.328783 
L 217.048161 53.308445 
L 218.531773 53.601964 
L 219.273579 53.011062 
L 220.015385 51.98289 
L 221.498997 50.413654 
L 222.240803 52.037288 
L 222.982609 52.304111 
L 223.724415 53.37988 
L 224.466221 52.947181 
L 225.949833 54.398345 
L 226.691639 54.54357 
L 227.433445 54.019004 
L 228.175251 54.5631 
L 228.917057 54.563993 
L 229.658863 55.464701 
L 230.400669 54.578076 
L 231.142475 55.098477 
L 231.884281 53.79312 
L 232.626087 53.635787 
L 233.367893 53.612164 
L 234.109699 52.628772 
L 234.851505 52.499957 
L 235.593311 53.551042 
L 236.335117 53.002025 
L 237.076923 52.969304 
L 237.818729 52.308316 
L 238.560535 51.341483 
L 239.302341 51.074644 
L 240.044147 51.00578 
L 240.785953 51.50935 
L 241.527759 50.886851 
L 242.269565 51.311355 
L 243.011371 50.436107 
L 243.753177 48.923367 
L 244.494983 48.79905 
L 245.236789 49.221557 
L 245.978595 49.098004 
L 246.720401 49.769249 
L 247.462207 49.735117 
L 248.204013 50.85343 
L 248.945819 50.660791 
L 249.687625 51.620389 
L 250.429431 52.825911 
L 251.913043 54.125073 
L 252.654849 54.053887 
L 253.396656 54.624579 
L 254.138462 54.642607 
L 254.880268 55.323061 
L 255.622074 54.686433 
L 256.36388 53.547682 
L 257.105686 53.313739 
L 257.847492 52.196493 
L 258.589298 50.622292 
L 259.331104 51.260305 
L 260.07291 50.805407 
L 260.814716 52.010119 
L 261.556522 50.674606 
L 262.298328 50.326782 
L 263.040134 49.05926 
L 263.78194 48.602746 
L 264.523746 48.504679 
L 265.265552 49.163059 
L 266.007358 50.025692 
L 266.749164 50.617298 
L 267.49097 49.636038 
L 268.232776 49.857983 
L 268.974582 48.955839 
L 270.458194 50.177189 
L 271.2 50.947473 
L 271.2 50.947473 
" style="fill:none;stroke:#55a868;stroke-linecap:round;stroke-width:1.75;"/>
   </g>
   <g id="patch_3">
    <path d="M 49.4 160.84 
L 49.4 32.4092 
" style="fill:none;"/>
   </g>
   <g id="patch_4">
    <path d="M 271.2 160.84 
L 271.2 32.4092 
" style="fill:none;"/>
   </g>
   <g id="patch_5">
    <path d="M 49.4 160.84 
L 271.2 160.84 
" style="fill:none;"/>
   </g>
   <g id="patch_6">
    <path d="M 49.4 32.4092 
L 271.2 32.4092 
" style="fill:none;"/>
   </g>
   <g id="legend_1">
    <g id="line2d_21">
     <path d="M 54.6 17.35449 
L 67.6 17.35449 
" style="fill:none;stroke:#4c72b0;stroke-linecap:round;stroke-width:1.75;"/>
    </g>
    <g id="line2d_22"/>
    <g id="text_13">
     <!-- sac-tf1 -->
     <defs>
      <path d="M 3.171875 21.484375 
L 3.171875 30.328125 
L 30.171875 30.328125 
L 30.171875 21.484375 
z
" id="ArialMT-45"/>
     </defs>
     <g style="fill:#262626;" transform="translate(78 21.90449)scale(0.13 -0.13)">
      <use xlink:href="#ArialMT-115"/>
      <use x="50" xlink:href="#ArialMT-97"/>
      <use x="105.615234" xlink:href="#ArialMT-99"/>
      <use x="155.615234" xlink:href="#ArialMT-45"/>
      <use x="188.916016" xlink:href="#ArialMT-116"/>
      <use x="216.699219" xlink:href="#ArialMT-102"/>
      <use x="244.482422" xlink:href="#ArialMT-49"/>
     </g>
    </g>
    <g id="line2d_23">
     <path d="M 175.414375 17.35449 
L 188.414375 17.35449 
" style="fill:none;stroke:#55a868;stroke-linecap:round;stroke-width:1.75;"/>
    </g>
    <g id="line2d_24"/>
    <g id="text_14">
     <!-- sac-pytorch -->
     <defs>
      <path d="M 6.59375 -19.875 
L 6.59375 51.859375 
L 14.59375 51.859375 
L 14.59375 45.125 
Q 17.4375 49.078125 21 51.046875 
Q 24.5625 53.03125 29.640625 53.03125 
Q 36.28125 53.03125 41.359375 49.609375 
Q 46.4375 46.1875 49.015625 39.953125 
Q 51.609375 33.734375 51.609375 26.3125 
Q 51.609375 18.359375 48.75 11.984375 
Q 45.90625 5.609375 40.453125 2.21875 
Q 35.015625 -1.171875 29 -1.171875 
Q 24.609375 -1.171875 21.109375 0.6875 
Q 17.625 2.546875 15.375 5.375 
L 15.375 -19.875 
z
M 14.546875 25.640625 
Q 14.546875 15.625 18.59375 10.84375 
Q 22.65625 6.0625 28.421875 6.0625 
Q 34.28125 6.0625 38.453125 11.015625 
Q 42.625 15.96875 42.625 26.375 
Q 42.625 36.28125 38.546875 41.203125 
Q 34.46875 46.140625 28.8125 46.140625 
Q 23.1875 46.140625 18.859375 40.890625 
Q 14.546875 35.640625 14.546875 25.640625 
z
" id="ArialMT-112"/>
      <path d="M 6.203125 -19.96875 
L 5.21875 -11.71875 
Q 8.109375 -12.5 10.25 -12.5 
Q 13.1875 -12.5 14.9375 -11.515625 
Q 16.703125 -10.546875 17.828125 -8.796875 
Q 18.65625 -7.46875 20.515625 -2.25 
Q 20.75 -1.515625 21.296875 -0.09375 
L 1.609375 51.859375 
L 11.078125 51.859375 
L 21.875 21.828125 
Q 23.96875 16.109375 25.640625 9.8125 
Q 27.15625 15.875 29.25 21.625 
L 40.328125 51.859375 
L 49.125 51.859375 
L 29.390625 -0.875 
Q 26.21875 -9.421875 24.46875 -12.640625 
Q 22.125 -17 19.09375 -19.015625 
Q 16.0625 -21.046875 11.859375 -21.046875 
Q 9.328125 -21.046875 6.203125 -19.96875 
z
" id="ArialMT-121"/>
      <path d="M 6.59375 0 
L 6.59375 71.578125 
L 15.375 71.578125 
L 15.375 45.90625 
Q 21.53125 53.03125 30.90625 53.03125 
Q 36.671875 53.03125 40.921875 50.75 
Q 45.171875 48.484375 47 44.484375 
Q 48.828125 40.484375 48.828125 32.859375 
L 48.828125 0 
L 40.046875 0 
L 40.046875 32.859375 
Q 40.046875 39.453125 37.1875 42.453125 
Q 34.328125 45.453125 29.109375 45.453125 
Q 25.203125 45.453125 21.75 43.421875 
Q 18.3125 41.40625 16.84375 37.9375 
Q 15.375 34.46875 15.375 28.375 
L 15.375 0 
z
" id="ArialMT-104"/>
     </defs>
     <g style="fill:#262626;" transform="translate(198.814375 21.90449)scale(0.13 -0.13)">
      <use xlink:href="#ArialMT-115"/>
      <use x="50" xlink:href="#ArialMT-97"/>
      <use x="105.615234" xlink:href="#ArialMT-99"/>
      <use x="155.615234" xlink:href="#ArialMT-45"/>
      <use x="188.916016" xlink:href="#ArialMT-112"/>
      <use x="244.53125" xlink:href="#ArialMT-121"/>
      <use x="294.53125" xlink:href="#ArialMT-116"/>
      <use x="322.314453" xlink:href="#ArialMT-111"/>
      <use x="377.929688" xlink:href="#ArialMT-114"/>
      <use x="411.230469" xlink:href="#ArialMT-99"/>
      <use x="461.230469" xlink:href="#ArialMT-104"/>
     </g>
    </g>
   </g>
  </g>
 </g>
 <defs>
  <clipPath id="p426505bcc1">
   <rect height="128.4308" width="221.8" x="49.4" y="32.4092"/>
  </clipPath>
 </defs>
</svg>
