<?xml version="1.0" encoding="utf-8" standalone="no"?>
<!DOCTYPE svg PUBLIC "-//W3C//DTD SVG 1.1//EN"
  "http://www.w3.org/Graphics/SVG/1.1/DTD/svg11.dtd">
<!-- Created with matplotlib (https://matplotlib.org/) -->
<svg height="198pt" version="1.1" viewBox="0 0 277.2 198" width="277.2pt" xmlns="http://www.w3.org/2000/svg" xmlns:xlink="http://www.w3.org/1999/xlink">
 <defs>
  <style type="text/css">
*{stroke-linecap:butt;stroke-linejoin:round;}
  </style>
 </defs>
 <g id="figure_1">
  <g id="patch_1">
   <path d="M 0 198 
L 277.2 198 
L 277.2 0 
L 0 0 
z
" style="fill:#ffffff;"/>
  </g>
  <g id="axes_1">
   <g id="patch_2">
    <path d="M 54.98 160.84 
L 271.2 160.84 
L 271.2 32.4092 
L 54.98 32.4092 
z
" style="fill:#eaeaf2;"/>
   </g>
   <g id="matplotlib.axis_1">
    <g id="xtick_1">
     <g id="line2d_1">
      <path clip-path="url(#pc841aae5fb)" d="M 90.414119 160.84 
L 90.414119 32.4092 
" style="fill:none;stroke:#ffffff;stroke-linecap:round;"/>
     </g>
     <g id="line2d_2"/>
     <g id="text_1">
      <!-- 0.5 -->
      <defs>
       <path d="M 4.15625 35.296875 
Q 4.15625 48 6.765625 55.734375 
Q 9.375 63.484375 14.515625 67.671875 
Q 19.671875 71.875 27.484375 71.875 
Q 33.25 71.875 37.59375 69.546875 
Q 41.9375 67.234375 44.765625 62.859375 
Q 47.609375 58.5 49.21875 52.21875 
Q 50.828125 45.953125 50.828125 35.296875 
Q 50.828125 22.703125 48.234375 14.96875 
Q 45.65625 7.234375 40.5 3 
Q 35.359375 -1.21875 27.484375 -1.21875 
Q 17.140625 -1.21875 11.234375 6.203125 
Q 4.15625 15.140625 4.15625 35.296875 
z
M 13.1875 35.296875 
Q 13.1875 17.671875 17.3125 11.828125 
Q 21.4375 6 27.484375 6 
Q 33.546875 6 37.671875 11.859375 
Q 41.796875 17.71875 41.796875 35.296875 
Q 41.796875 52.984375 37.671875 58.78125 
Q 33.546875 64.59375 27.390625 64.59375 
Q 21.34375 64.59375 17.71875 59.46875 
Q 13.1875 52.9375 13.1875 35.296875 
z
" id="ArialMT-48"/>
       <path d="M 9.078125 0 
L 9.078125 10.015625 
L 19.09375 10.015625 
L 19.09375 0 
z
" id="ArialMT-46"/>
       <path d="M 4.15625 18.75 
L 13.375 19.53125 
Q 14.40625 12.796875 18.140625 9.390625 
Q 21.875 6 27.15625 6 
Q 33.5 6 37.890625 10.78125 
Q 42.28125 15.578125 42.28125 23.484375 
Q 42.28125 31 38.0625 35.34375 
Q 33.84375 39.703125 27 39.703125 
Q 22.75 39.703125 19.328125 37.765625 
Q 15.921875 35.84375 13.96875 32.765625 
L 5.71875 33.84375 
L 12.640625 70.609375 
L 48.25 70.609375 
L 48.25 62.203125 
L 19.671875 62.203125 
L 15.828125 42.96875 
Q 22.265625 47.46875 29.34375 47.46875 
Q 38.71875 47.46875 45.15625 40.96875 
Q 51.609375 34.46875 51.609375 24.265625 
Q 51.609375 14.546875 45.953125 7.46875 
Q 39.0625 -1.21875 27.15625 -1.21875 
Q 17.390625 -1.21875 11.203125 4.25 
Q 5.03125 9.71875 4.15625 18.75 
z
" id="ArialMT-53"/>
      </defs>
      <g style="fill:#262626;" transform="translate(83.464119 174.997813)scale(0.1 -0.1)">
       <use xlink:href="#ArialMT-48"/>
       <use x="55.615234" xlink:href="#ArialMT-46"/>
       <use x="83.398438" xlink:href="#ArialMT-53"/>
      </g>
     </g>
    </g>
    <g id="xtick_2">
     <g id="line2d_3">
      <path clip-path="url(#pc841aae5fb)" d="M 126.57131 160.84 
L 126.57131 32.4092 
" style="fill:none;stroke:#ffffff;stroke-linecap:round;"/>
     </g>
     <g id="line2d_4"/>
     <g id="text_2">
      <!-- 1.0 -->
      <defs>
       <path d="M 37.25 0 
L 28.46875 0 
L 28.46875 56 
Q 25.296875 52.984375 20.140625 49.953125 
Q 14.984375 46.921875 10.890625 45.40625 
L 10.890625 53.90625 
Q 18.265625 57.375 23.78125 62.296875 
Q 29.296875 67.234375 31.59375 71.875 
L 37.25 71.875 
z
" id="ArialMT-49"/>
      </defs>
      <g style="fill:#262626;" transform="translate(119.62131 174.997813)scale(0.1 -0.1)">
       <use xlink:href="#ArialMT-49"/>
       <use x="55.615234" xlink:href="#ArialMT-46"/>
       <use x="83.398438" xlink:href="#ArialMT-48"/>
      </g>
     </g>
    </g>
    <g id="xtick_3">
     <g id="line2d_5">
      <path clip-path="url(#pc841aae5fb)" d="M 162.7285 160.84 
L 162.7285 32.4092 
" style="fill:none;stroke:#ffffff;stroke-linecap:round;"/>
     </g>
     <g id="line2d_6"/>
     <g id="text_3">
      <!-- 1.5 -->
      <g style="fill:#262626;" transform="translate(155.7785 174.997813)scale(0.1 -0.1)">
       <use xlink:href="#ArialMT-49"/>
       <use x="55.615234" xlink:href="#ArialMT-46"/>
       <use x="83.398438" xlink:href="#ArialMT-53"/>
      </g>
     </g>
    </g>
    <g id="xtick_4">
     <g id="line2d_7">
      <path clip-path="url(#pc841aae5fb)" d="M 198.885691 160.84 
L 198.885691 32.4092 
" style="fill:none;stroke:#ffffff;stroke-linecap:round;"/>
     </g>
     <g id="line2d_8"/>
     <g id="text_4">
      <!-- 2.0 -->
      <defs>
       <path d="M 50.34375 8.453125 
L 50.34375 0 
L 3.03125 0 
Q 2.9375 3.171875 4.046875 6.109375 
Q 5.859375 10.9375 9.828125 15.625 
Q 13.8125 20.3125 21.34375 26.46875 
Q 33.015625 36.03125 37.109375 41.625 
Q 41.21875 47.21875 41.21875 52.203125 
Q 41.21875 57.421875 37.46875 61 
Q 33.734375 64.59375 27.734375 64.59375 
Q 21.390625 64.59375 17.578125 60.78125 
Q 13.765625 56.984375 13.71875 50.25 
L 4.6875 51.171875 
Q 5.609375 61.28125 11.65625 66.578125 
Q 17.71875 71.875 27.9375 71.875 
Q 38.234375 71.875 44.234375 66.15625 
Q 50.25 60.453125 50.25 52 
Q 50.25 47.703125 48.484375 43.546875 
Q 46.734375 39.40625 42.65625 34.8125 
Q 38.578125 30.21875 29.109375 22.21875 
Q 21.1875 15.578125 18.9375 13.203125 
Q 16.703125 10.84375 15.234375 8.453125 
z
" id="ArialMT-50"/>
      </defs>
      <g style="fill:#262626;" transform="translate(191.935691 174.997813)scale(0.1 -0.1)">
       <use xlink:href="#ArialMT-50"/>
       <use x="55.615234" xlink:href="#ArialMT-46"/>
       <use x="83.398438" xlink:href="#ArialMT-48"/>
      </g>
     </g>
    </g>
    <g id="xtick_5">
     <g id="line2d_9">
      <path clip-path="url(#pc841aae5fb)" d="M 235.042882 160.84 
L 235.042882 32.4092 
" style="fill:none;stroke:#ffffff;stroke-linecap:round;"/>
     </g>
     <g id="line2d_10"/>
     <g id="text_5">
      <!-- 2.5 -->
      <g style="fill:#262626;" transform="translate(228.092882 174.997813)scale(0.1 -0.1)">
       <use xlink:href="#ArialMT-50"/>
       <use x="55.615234" xlink:href="#ArialMT-46"/>
       <use x="83.398438" xlink:href="#ArialMT-53"/>
      </g>
     </g>
    </g>
    <g id="text_6">
     <!-- TotalEnvInteracts -->
     <defs>
      <path d="M 25.921875 0 
L 25.921875 63.140625 
L 2.34375 63.140625 
L 2.34375 71.578125 
L 59.078125 71.578125 
L 59.078125 63.140625 
L 35.40625 63.140625 
L 35.40625 0 
z
" id="ArialMT-84"/>
      <path d="M 3.328125 25.921875 
Q 3.328125 40.328125 11.328125 47.265625 
Q 18.015625 53.03125 27.640625 53.03125 
Q 38.328125 53.03125 45.109375 46.015625 
Q 51.90625 39.015625 51.90625 26.65625 
Q 51.90625 16.65625 48.90625 10.90625 
Q 45.90625 5.171875 40.15625 2 
Q 34.421875 -1.171875 27.640625 -1.171875 
Q 16.75 -1.171875 10.03125 5.8125 
Q 3.328125 12.796875 3.328125 25.921875 
z
M 12.359375 25.921875 
Q 12.359375 15.96875 16.703125 11.015625 
Q 21.046875 6.0625 27.640625 6.0625 
Q 34.1875 6.0625 38.53125 11.03125 
Q 42.875 16.015625 42.875 26.21875 
Q 42.875 35.84375 38.5 40.796875 
Q 34.125 45.75 27.640625 45.75 
Q 21.046875 45.75 16.703125 40.8125 
Q 12.359375 35.890625 12.359375 25.921875 
z
" id="ArialMT-111"/>
      <path d="M 25.78125 7.859375 
L 27.046875 0.09375 
Q 23.34375 -0.6875 20.40625 -0.6875 
Q 15.625 -0.6875 12.984375 0.828125 
Q 10.359375 2.34375 9.28125 4.8125 
Q 8.203125 7.28125 8.203125 15.1875 
L 8.203125 45.015625 
L 1.765625 45.015625 
L 1.765625 51.859375 
L 8.203125 51.859375 
L 8.203125 64.703125 
L 16.9375 69.96875 
L 16.9375 51.859375 
L 25.78125 51.859375 
L 25.78125 45.015625 
L 16.9375 45.015625 
L 16.9375 14.703125 
Q 16.9375 10.9375 17.40625 9.859375 
Q 17.875 8.796875 18.921875 8.15625 
Q 19.96875 7.515625 21.921875 7.515625 
Q 23.390625 7.515625 25.78125 7.859375 
z
" id="ArialMT-116"/>
      <path d="M 40.4375 6.390625 
Q 35.546875 2.25 31.03125 0.53125 
Q 26.515625 -1.171875 21.34375 -1.171875 
Q 12.796875 -1.171875 8.203125 3 
Q 3.609375 7.171875 3.609375 13.671875 
Q 3.609375 17.484375 5.34375 20.625 
Q 7.078125 23.78125 9.890625 25.6875 
Q 12.703125 27.59375 16.21875 28.5625 
Q 18.796875 29.25 24.03125 29.890625 
Q 34.671875 31.15625 39.703125 32.90625 
Q 39.75 34.71875 39.75 35.203125 
Q 39.75 40.578125 37.25 42.78125 
Q 33.890625 45.75 27.25 45.75 
Q 21.046875 45.75 18.09375 43.578125 
Q 15.140625 41.40625 13.71875 35.890625 
L 5.125 37.0625 
Q 6.296875 42.578125 8.984375 45.96875 
Q 11.671875 49.359375 16.75 51.1875 
Q 21.828125 53.03125 28.515625 53.03125 
Q 35.15625 53.03125 39.296875 51.46875 
Q 43.453125 49.90625 45.40625 47.53125 
Q 47.359375 45.171875 48.140625 41.546875 
Q 48.578125 39.3125 48.578125 33.453125 
L 48.578125 21.734375 
Q 48.578125 9.46875 49.140625 6.21875 
Q 49.703125 2.984375 51.375 0 
L 42.1875 0 
Q 40.828125 2.734375 40.4375 6.390625 
z
M 39.703125 26.03125 
Q 34.90625 24.078125 25.34375 22.703125 
Q 19.921875 21.921875 17.671875 20.9375 
Q 15.4375 19.96875 14.203125 18.09375 
Q 12.984375 16.21875 12.984375 13.921875 
Q 12.984375 10.40625 15.640625 8.0625 
Q 18.3125 5.71875 23.4375 5.71875 
Q 28.515625 5.71875 32.46875 7.9375 
Q 36.421875 10.15625 38.28125 14.015625 
Q 39.703125 17 39.703125 22.796875 
z
" id="ArialMT-97"/>
      <path d="M 6.390625 0 
L 6.390625 71.578125 
L 15.1875 71.578125 
L 15.1875 0 
z
" id="ArialMT-108"/>
      <path d="M 7.90625 0 
L 7.90625 71.578125 
L 59.671875 71.578125 
L 59.671875 63.140625 
L 17.390625 63.140625 
L 17.390625 41.21875 
L 56.984375 41.21875 
L 56.984375 32.8125 
L 17.390625 32.8125 
L 17.390625 8.453125 
L 61.328125 8.453125 
L 61.328125 0 
z
" id="ArialMT-69"/>
      <path d="M 6.59375 0 
L 6.59375 51.859375 
L 14.5 51.859375 
L 14.5 44.484375 
Q 20.21875 53.03125 31 53.03125 
Q 35.6875 53.03125 39.625 51.34375 
Q 43.5625 49.65625 45.515625 46.921875 
Q 47.46875 44.1875 48.25 40.4375 
Q 48.734375 37.984375 48.734375 31.890625 
L 48.734375 0 
L 39.9375 0 
L 39.9375 31.546875 
Q 39.9375 36.921875 38.90625 39.578125 
Q 37.890625 42.234375 35.28125 43.8125 
Q 32.671875 45.40625 29.15625 45.40625 
Q 23.53125 45.40625 19.453125 41.84375 
Q 15.375 38.28125 15.375 28.328125 
L 15.375 0 
z
" id="ArialMT-110"/>
      <path d="M 21 0 
L 1.265625 51.859375 
L 10.546875 51.859375 
L 21.6875 20.796875 
Q 23.484375 15.765625 25 10.359375 
Q 26.171875 14.453125 28.265625 20.21875 
L 39.796875 51.859375 
L 48.828125 51.859375 
L 29.203125 0 
z
" id="ArialMT-118"/>
      <path d="M 9.328125 0 
L 9.328125 71.578125 
L 18.796875 71.578125 
L 18.796875 0 
z
" id="ArialMT-73"/>
      <path d="M 42.09375 16.703125 
L 51.171875 15.578125 
Q 49.03125 7.625 43.21875 3.21875 
Q 37.40625 -1.171875 28.375 -1.171875 
Q 17 -1.171875 10.328125 5.828125 
Q 3.65625 12.84375 3.65625 25.484375 
Q 3.65625 38.578125 10.390625 45.796875 
Q 17.140625 53.03125 27.875 53.03125 
Q 38.28125 53.03125 44.875 45.953125 
Q 51.46875 38.875 51.46875 26.03125 
Q 51.46875 25.25 51.421875 23.6875 
L 12.75 23.6875 
Q 13.234375 15.140625 17.578125 10.59375 
Q 21.921875 6.0625 28.421875 6.0625 
Q 33.25 6.0625 36.671875 8.59375 
Q 40.09375 11.140625 42.09375 16.703125 
z
M 13.234375 30.90625 
L 42.1875 30.90625 
Q 41.609375 37.453125 38.875 40.71875 
Q 34.671875 45.796875 27.984375 45.796875 
Q 21.921875 45.796875 17.796875 41.75 
Q 13.671875 37.703125 13.234375 30.90625 
z
" id="ArialMT-101"/>
      <path d="M 6.5 0 
L 6.5 51.859375 
L 14.40625 51.859375 
L 14.40625 44 
Q 17.4375 49.515625 20 51.265625 
Q 22.5625 53.03125 25.640625 53.03125 
Q 30.078125 53.03125 34.671875 50.203125 
L 31.640625 42.046875 
Q 28.421875 43.953125 25.203125 43.953125 
Q 22.3125 43.953125 20.015625 42.21875 
Q 17.71875 40.484375 16.75 37.40625 
Q 15.28125 32.71875 15.28125 27.15625 
L 15.28125 0 
z
" id="ArialMT-114"/>
      <path d="M 40.4375 19 
L 49.078125 17.875 
Q 47.65625 8.9375 41.8125 3.875 
Q 35.984375 -1.171875 27.484375 -1.171875 
Q 16.84375 -1.171875 10.375 5.78125 
Q 3.90625 12.75 3.90625 25.734375 
Q 3.90625 34.125 6.6875 40.421875 
Q 9.46875 46.734375 15.15625 49.875 
Q 20.84375 53.03125 27.546875 53.03125 
Q 35.984375 53.03125 41.359375 48.75 
Q 46.734375 44.484375 48.25 36.625 
L 39.703125 35.296875 
Q 38.484375 40.53125 35.375 43.15625 
Q 32.28125 45.796875 27.875 45.796875 
Q 21.234375 45.796875 17.078125 41.03125 
Q 12.9375 36.28125 12.9375 25.984375 
Q 12.9375 15.53125 16.9375 10.796875 
Q 20.953125 6.0625 27.390625 6.0625 
Q 32.5625 6.0625 36.03125 9.234375 
Q 39.5 12.40625 40.4375 19 
z
" id="ArialMT-99"/>
      <path d="M 3.078125 15.484375 
L 11.765625 16.84375 
Q 12.5 11.625 15.84375 8.84375 
Q 19.1875 6.0625 25.203125 6.0625 
Q 31.25 6.0625 34.171875 8.515625 
Q 37.109375 10.984375 37.109375 14.3125 
Q 37.109375 17.28125 34.515625 19 
Q 32.71875 20.171875 25.53125 21.96875 
Q 15.875 24.421875 12.140625 26.203125 
Q 8.40625 27.984375 6.46875 31.125 
Q 4.546875 34.28125 4.546875 38.09375 
Q 4.546875 41.546875 6.125 44.5 
Q 7.71875 47.46875 10.453125 49.421875 
Q 12.5 50.921875 16.03125 51.96875 
Q 19.578125 53.03125 23.640625 53.03125 
Q 29.734375 53.03125 34.34375 51.265625 
Q 38.96875 49.515625 41.15625 46.5 
Q 43.359375 43.5 44.1875 38.484375 
L 35.59375 37.3125 
Q 35.015625 41.3125 32.203125 43.546875 
Q 29.390625 45.796875 24.265625 45.796875 
Q 18.21875 45.796875 15.625 43.796875 
Q 13.03125 41.796875 13.03125 39.109375 
Q 13.03125 37.40625 14.109375 36.03125 
Q 15.1875 34.625 17.484375 33.6875 
Q 18.796875 33.203125 25.25 31.453125 
Q 34.578125 28.953125 38.25 27.359375 
Q 41.9375 25.78125 44.03125 22.75 
Q 46.140625 19.734375 46.140625 15.234375 
Q 46.140625 10.84375 43.578125 6.953125 
Q 41.015625 3.078125 36.171875 0.953125 
Q 31.34375 -1.171875 25.25 -1.171875 
Q 15.140625 -1.171875 9.84375 3.03125 
Q 4.546875 7.234375 3.078125 15.484375 
z
" id="ArialMT-115"/>
     </defs>
     <g style="fill:#262626;" transform="translate(120.305156 188.858906)scale(0.11 -0.11)">
      <use xlink:href="#ArialMT-84"/>
      <use x="60.912109" xlink:href="#ArialMT-111"/>
      <use x="116.527344" xlink:href="#ArialMT-116"/>
      <use x="144.310547" xlink:href="#ArialMT-97"/>
      <use x="199.925781" xlink:href="#ArialMT-108"/>
      <use x="222.142578" xlink:href="#ArialMT-69"/>
      <use x="288.841797" xlink:href="#ArialMT-110"/>
      <use x="344.457031" xlink:href="#ArialMT-118"/>
      <use x="394.457031" xlink:href="#ArialMT-73"/>
      <use x="422.240234" xlink:href="#ArialMT-110"/>
      <use x="477.855469" xlink:href="#ArialMT-116"/>
      <use x="505.638672" xlink:href="#ArialMT-101"/>
      <use x="561.253906" xlink:href="#ArialMT-114"/>
      <use x="594.554688" xlink:href="#ArialMT-97"/>
      <use x="650.169922" xlink:href="#ArialMT-99"/>
      <use x="700.169922" xlink:href="#ArialMT-116"/>
      <use x="727.953125" xlink:href="#ArialMT-115"/>
     </g>
    </g>
    <g id="text_7">
     <!-- 1e6 -->
     <defs>
      <path d="M 49.75 54.046875 
L 41.015625 53.375 
Q 39.84375 58.546875 37.703125 60.890625 
Q 34.125 64.65625 28.90625 64.65625 
Q 24.703125 64.65625 21.53125 62.3125 
Q 17.390625 59.28125 14.984375 53.46875 
Q 12.59375 47.65625 12.5 36.921875 
Q 15.671875 41.75 20.265625 44.09375 
Q 24.859375 46.4375 29.890625 46.4375 
Q 38.671875 46.4375 44.84375 39.96875 
Q 51.03125 33.5 51.03125 23.25 
Q 51.03125 16.5 48.125 10.71875 
Q 45.21875 4.9375 40.140625 1.859375 
Q 35.0625 -1.21875 28.609375 -1.21875 
Q 17.625 -1.21875 10.6875 6.859375 
Q 3.765625 14.9375 3.765625 33.5 
Q 3.765625 54.25 11.421875 63.671875 
Q 18.109375 71.875 29.4375 71.875 
Q 37.890625 71.875 43.28125 67.140625 
Q 48.6875 62.40625 49.75 54.046875 
z
M 13.875 23.1875 
Q 13.875 18.65625 15.796875 14.5 
Q 17.71875 10.359375 21.1875 8.171875 
Q 24.65625 6 28.46875 6 
Q 34.03125 6 38.03125 10.484375 
Q 42.046875 14.984375 42.046875 22.703125 
Q 42.046875 30.125 38.078125 34.390625 
Q 34.125 38.671875 28.125 38.671875 
Q 22.171875 38.671875 18.015625 34.390625 
Q 13.875 30.125 13.875 23.1875 
z
" id="ArialMT-54"/>
     </defs>
     <g style="fill:#262626;" transform="translate(254.517187 187.143125)scale(0.1 -0.1)">
      <use xlink:href="#ArialMT-49"/>
      <use x="55.615234" xlink:href="#ArialMT-101"/>
      <use x="111.230469" xlink:href="#ArialMT-54"/>
     </g>
    </g>
   </g>
   <g id="matplotlib.axis_2">
    <g id="ytick_1">
     <g id="line2d_11">
      <path clip-path="url(#pc841aae5fb)" d="M 54.98 159.685241 
L 271.2 159.685241 
" style="fill:none;stroke:#ffffff;stroke-linecap:round;"/>
     </g>
     <g id="line2d_12"/>
     <g id="text_8">
      <!-- 0 -->
      <g style="fill:#262626;" transform="translate(42.419062 163.264147)scale(0.1 -0.1)">
       <use xlink:href="#ArialMT-48"/>
      </g>
     </g>
    </g>
    <g id="ytick_2">
     <g id="line2d_13">
      <path clip-path="url(#pc841aae5fb)" d="M 54.98 136.014496 
L 271.2 136.014496 
" style="fill:none;stroke:#ffffff;stroke-linecap:round;"/>
     </g>
     <g id="line2d_14"/>
     <g id="text_9">
      <!-- 2500 -->
      <g style="fill:#262626;" transform="translate(25.73625 139.593403)scale(0.1 -0.1)">
       <use xlink:href="#ArialMT-50"/>
       <use x="55.615234" xlink:href="#ArialMT-53"/>
       <use x="111.230469" xlink:href="#ArialMT-48"/>
       <use x="166.845703" xlink:href="#ArialMT-48"/>
      </g>
     </g>
    </g>
    <g id="ytick_3">
     <g id="line2d_15">
      <path clip-path="url(#pc841aae5fb)" d="M 54.98 112.343752 
L 271.2 112.343752 
" style="fill:none;stroke:#ffffff;stroke-linecap:round;"/>
     </g>
     <g id="line2d_16"/>
     <g id="text_10">
      <!-- 5000 -->
      <g style="fill:#262626;" transform="translate(25.73625 115.922658)scale(0.1 -0.1)">
       <use xlink:href="#ArialMT-53"/>
       <use x="55.615234" xlink:href="#ArialMT-48"/>
       <use x="111.230469" xlink:href="#ArialMT-48"/>
       <use x="166.845703" xlink:href="#ArialMT-48"/>
      </g>
     </g>
    </g>
    <g id="ytick_4">
     <g id="line2d_17">
      <path clip-path="url(#pc841aae5fb)" d="M 54.98 88.673008 
L 271.2 88.673008 
" style="fill:none;stroke:#ffffff;stroke-linecap:round;"/>
     </g>
     <g id="line2d_18"/>
     <g id="text_11">
      <!-- 7500 -->
      <defs>
       <path d="M 4.734375 62.203125 
L 4.734375 70.65625 
L 51.078125 70.65625 
L 51.078125 63.8125 
Q 44.234375 56.546875 37.515625 44.484375 
Q 30.8125 32.421875 27.15625 19.671875 
Q 24.515625 10.6875 23.78125 0 
L 14.75 0 
Q 14.890625 8.453125 18.0625 20.40625 
Q 21.234375 32.375 27.171875 43.484375 
Q 33.109375 54.59375 39.796875 62.203125 
z
" id="ArialMT-55"/>
      </defs>
      <g style="fill:#262626;" transform="translate(25.73625 92.251914)scale(0.1 -0.1)">
       <use xlink:href="#ArialMT-55"/>
       <use x="55.615234" xlink:href="#ArialMT-53"/>
       <use x="111.230469" xlink:href="#ArialMT-48"/>
       <use x="166.845703" xlink:href="#ArialMT-48"/>
      </g>
     </g>
    </g>
    <g id="ytick_5">
     <g id="line2d_19">
      <path clip-path="url(#pc841aae5fb)" d="M 54.98 65.002263 
L 271.2 65.002263 
" style="fill:none;stroke:#ffffff;stroke-linecap:round;"/>
     </g>
     <g id="line2d_20"/>
     <g id="text_12">
      <!-- 10000 -->
      <g style="fill:#262626;" transform="translate(20.175312 68.581169)scale(0.1 -0.1)">
       <use xlink:href="#ArialMT-49"/>
       <use x="55.615234" xlink:href="#ArialMT-48"/>
       <use x="111.230469" xlink:href="#ArialMT-48"/>
       <use x="166.845703" xlink:href="#ArialMT-48"/>
       <use x="222.460938" xlink:href="#ArialMT-48"/>
      </g>
     </g>
    </g>
    <g id="ytick_6">
     <g id="line2d_21">
      <path clip-path="url(#pc841aae5fb)" d="M 54.98 41.331519 
L 271.2 41.331519 
" style="fill:none;stroke:#ffffff;stroke-linecap:round;"/>
     </g>
     <g id="line2d_22"/>
     <g id="text_13">
      <!-- 12500 -->
      <g style="fill:#262626;" transform="translate(20.175312 44.910425)scale(0.1 -0.1)">
       <use xlink:href="#ArialMT-49"/>
       <use x="55.615234" xlink:href="#ArialMT-50"/>
       <use x="111.230469" xlink:href="#ArialMT-53"/>
       <use x="166.845703" xlink:href="#ArialMT-48"/>
       <use x="222.460938" xlink:href="#ArialMT-48"/>
      </g>
     </g>
    </g>
    <g id="text_14">
     <!-- Performance -->
     <defs>
      <path d="M 7.71875 0 
L 7.71875 71.578125 
L 34.71875 71.578125 
Q 41.84375 71.578125 45.609375 70.90625 
Q 50.875 70.015625 54.4375 67.546875 
Q 58.015625 65.09375 60.1875 60.640625 
Q 62.359375 56.203125 62.359375 50.875 
Q 62.359375 41.75 56.546875 35.421875 
Q 50.734375 29.109375 35.546875 29.109375 
L 17.1875 29.109375 
L 17.1875 0 
z
M 17.1875 37.546875 
L 35.6875 37.546875 
Q 44.875 37.546875 48.734375 40.96875 
Q 52.59375 44.390625 52.59375 50.59375 
Q 52.59375 55.078125 50.3125 58.265625 
Q 48.046875 61.46875 44.34375 62.5 
Q 41.9375 63.140625 35.5 63.140625 
L 17.1875 63.140625 
z
" id="ArialMT-80"/>
      <path d="M 8.6875 0 
L 8.6875 45.015625 
L 0.921875 45.015625 
L 0.921875 51.859375 
L 8.6875 51.859375 
L 8.6875 57.375 
Q 8.6875 62.59375 9.625 65.140625 
Q 10.890625 68.5625 14.078125 70.671875 
Q 17.28125 72.796875 23.046875 72.796875 
Q 26.765625 72.796875 31.25 71.921875 
L 29.9375 64.265625 
Q 27.203125 64.75 24.75 64.75 
Q 20.75 64.75 19.09375 63.03125 
Q 17.4375 61.328125 17.4375 56.640625 
L 17.4375 51.859375 
L 27.546875 51.859375 
L 27.546875 45.015625 
L 17.4375 45.015625 
L 17.4375 0 
z
" id="ArialMT-102"/>
      <path d="M 6.59375 0 
L 6.59375 51.859375 
L 14.453125 51.859375 
L 14.453125 44.578125 
Q 16.890625 48.390625 20.9375 50.703125 
Q 25 53.03125 30.171875 53.03125 
Q 35.9375 53.03125 39.625 50.640625 
Q 43.3125 48.25 44.828125 43.953125 
Q 50.984375 53.03125 60.84375 53.03125 
Q 68.5625 53.03125 72.703125 48.75 
Q 76.859375 44.484375 76.859375 35.59375 
L 76.859375 0 
L 68.109375 0 
L 68.109375 32.671875 
Q 68.109375 37.9375 67.25 40.25 
Q 66.40625 42.578125 64.15625 43.984375 
Q 61.921875 45.40625 58.890625 45.40625 
Q 53.421875 45.40625 49.796875 41.765625 
Q 46.1875 38.140625 46.1875 30.125 
L 46.1875 0 
L 37.40625 0 
L 37.40625 33.6875 
Q 37.40625 39.546875 35.25 42.46875 
Q 33.109375 45.40625 28.21875 45.40625 
Q 24.515625 45.40625 21.359375 43.453125 
Q 18.21875 41.5 16.796875 37.734375 
Q 15.375 33.984375 15.375 26.90625 
L 15.375 0 
z
" id="ArialMT-109"/>
     </defs>
     <g style="fill:#262626;" transform="translate(13.989062 128.107803)rotate(-90)scale(0.11 -0.11)">
      <use xlink:href="#ArialMT-80"/>
      <use x="66.699219" xlink:href="#ArialMT-101"/>
      <use x="122.314453" xlink:href="#ArialMT-114"/>
      <use x="155.615234" xlink:href="#ArialMT-102"/>
      <use x="183.398438" xlink:href="#ArialMT-111"/>
      <use x="239.013672" xlink:href="#ArialMT-114"/>
      <use x="272.314453" xlink:href="#ArialMT-109"/>
      <use x="355.615234" xlink:href="#ArialMT-97"/>
      <use x="411.230469" xlink:href="#ArialMT-110"/>
      <use x="466.845703" xlink:href="#ArialMT-99"/>
      <use x="516.845703" xlink:href="#ArialMT-101"/>
     </g>
    </g>
   </g>
   <g id="PolyCollection_1">
    <path clip-path="url(#pc841aae5fb)" d="M 54.98 147.063619 
L 54.98 155.002236 
L 55.703144 152.567267 
L 56.426288 150.306159 
L 57.149431 148.410437 
L 57.872575 146.443019 
L 58.595719 144.638089 
L 59.318863 141.161554 
L 60.042007 137.38942 
L 60.765151 134.440547 
L 61.488294 131.483308 
L 62.211438 129.159276 
L 62.934582 127.010869 
L 63.657726 124.736654 
L 64.38087 122.798143 
L 65.104013 120.819436 
L 65.827157 119.544889 
L 66.550301 118.328329 
L 67.273445 116.779437 
L 67.996589 115.726794 
L 68.719732 114.636363 
L 69.442876 113.905075 
L 70.16602 112.850007 
L 70.889164 111.875816 
L 71.612308 110.96908 
L 72.335452 110.378194 
L 73.058595 109.621652 
L 73.781739 108.749361 
L 74.504883 108.142273 
L 75.228027 107.860243 
L 75.951171 107.172922 
L 76.674314 106.500603 
L 77.397458 105.916204 
L 78.120602 105.61825 
L 78.843746 105.648217 
L 79.56689 105.288508 
L 80.290033 104.851193 
L 81.013177 104.257088 
L 81.736321 103.962074 
L 82.459465 103.325837 
L 83.182609 102.981267 
L 83.905753 102.47335 
L 84.628896 102.054708 
L 85.35204 101.512124 
L 86.075184 101.010072 
L 86.798328 100.217333 
L 87.521472 99.821036 
L 88.244615 99.437218 
L 88.967759 99.338068 
L 89.690903 99.141699 
L 90.414047 98.837892 
L 91.137191 98.12851 
L 91.860334 98.2852 
L 92.583478 98.582405 
L 93.306622 98.511553 
L 94.029766 98.445758 
L 94.75291 98.440059 
L 95.476054 98.231904 
L 96.199197 98.06219 
L 96.922341 97.948073 
L 97.645485 97.550783 
L 98.368629 97.424816 
L 99.091773 97.443261 
L 99.814916 96.824053 
L 100.53806 96.113496 
L 101.261204 95.93556 
L 101.984348 95.603216 
L 102.707492 95.071367 
L 103.430635 94.82551 
L 104.153779 94.421955 
L 104.876923 94.252538 
L 105.600067 94.262105 
L 106.323211 93.942863 
L 107.046355 93.533763 
L 107.769498 93.483647 
L 108.492642 93.649291 
L 109.215786 93.391588 
L 109.93893 93.130679 
L 110.662074 92.841684 
L 111.385217 92.874172 
L 112.108361 93.755693 
L 112.831505 94.934454 
L 113.554649 96.287057 
L 114.277793 96.999231 
L 115.000936 97.620283 
L 115.72408 97.854888 
L 116.447224 97.449336 
L 117.170368 97.757788 
L 117.893512 97.80321 
L 118.616656 97.841619 
L 119.339799 97.274607 
L 120.062943 95.324419 
L 120.786087 93.483127 
L 121.509231 92.369602 
L 122.232375 91.840551 
L 122.955518 91.119025 
L 123.678662 90.658231 
L 124.401806 90.245789 
L 125.12495 89.671336 
L 125.848094 89.486017 
L 126.571237 89.400386 
L 127.294381 89.505827 
L 128.017525 89.340222 
L 128.740669 89.051599 
L 129.463813 88.685498 
L 130.186957 88.453679 
L 130.9101 88.381515 
L 131.633244 88.216689 
L 132.356388 88.295827 
L 133.079532 88.417129 
L 133.802676 87.951066 
L 134.525819 87.809618 
L 135.248963 87.793123 
L 135.972107 87.851994 
L 136.695251 87.794554 
L 137.418395 87.505731 
L 138.141538 87.339545 
L 138.864682 86.990372 
L 139.587826 86.91815 
L 140.31097 86.506338 
L 141.034114 86.228254 
L 141.757258 86.299349 
L 142.480401 86.054862 
L 143.203545 85.456812 
L 143.926689 85.074247 
L 144.649833 85.065172 
L 145.372977 84.964946 
L 146.09612 84.730095 
L 146.819264 84.949421 
L 147.542408 84.777363 
L 148.265552 84.792735 
L 148.988696 84.593941 
L 149.711839 84.232539 
L 150.434983 84.25725 
L 151.158127 84.252073 
L 151.881271 84.50578 
L 152.604415 84.401371 
L 153.327559 84.470816 
L 154.050702 84.302229 
L 154.773846 83.837536 
L 155.49699 83.76505 
L 156.220134 83.457359 
L 156.943278 83.362488 
L 157.666421 83.530394 
L 158.389565 83.225832 
L 159.112709 83.028929 
L 159.835853 82.533602 
L 160.558997 82.4296 
L 161.28214 82.240448 
L 162.005284 82.137835 
L 162.728428 82.044181 
L 163.451572 81.816711 
L 164.174716 81.891898 
L 164.89786 81.60815 
L 165.621003 81.146515 
L 166.344147 81.013631 
L 167.067291 81.017334 
L 167.790435 80.949164 
L 168.513579 80.50465 
L 169.236722 80.248487 
L 169.959866 80.135157 
L 170.68301 80.227562 
L 171.406154 80.068176 
L 172.129298 79.71162 
L 172.852441 79.455843 
L 173.575585 79.506115 
L 174.298729 79.525308 
L 175.021873 79.185785 
L 175.745017 78.949838 
L 176.468161 79.082437 
L 177.191304 78.831712 
L 177.914448 78.538877 
L 178.637592 78.243689 
L 179.360736 78.128355 
L 180.08388 78.325222 
L 180.807023 78.158921 
L 181.530167 78.197053 
L 182.253311 78.096915 
L 182.976455 77.917792 
L 183.699599 77.920699 
L 184.422742 77.616962 
L 185.145886 77.61562 
L 185.86903 77.970723 
L 186.592174 77.977408 
L 187.315318 77.76849 
L 188.038462 77.45433 
L 188.761605 77.35431 
L 189.484749 76.99235 
L 190.207893 76.606052 
L 190.931037 76.469264 
L 191.654181 76.154008 
L 192.377324 75.976883 
L 193.100468 75.604354 
L 193.823612 75.156009 
L 194.546756 75.001615 
L 195.2699 75.120237 
L 195.993043 75.484249 
L 196.716187 75.659001 
L 197.439331 75.825692 
L 198.162475 76.007531 
L 198.885619 76.268362 
L 199.608763 76.016039 
L 200.331906 76.069286 
L 201.05505 76.15363 
L 201.778194 76.059888 
L 202.501338 76.327693 
L 203.224482 76.150956 
L 203.947625 75.812156 
L 204.670769 75.617313 
L 205.393913 75.10033 
L 206.117057 74.820536 
L 206.840201 74.497616 
L 207.563344 74.84219 
L 208.286488 74.789544 
L 209.009632 74.537477 
L 209.732776 74.686346 
L 210.45592 74.238621 
L 211.179064 73.982981 
L 211.902207 73.83615 
L 212.625351 73.753897 
L 213.348495 73.588783 
L 214.071639 73.477017 
L 214.794783 73.708037 
L 215.517926 73.55352 
L 216.24107 73.342425 
L 216.964214 73.342001 
L 217.687358 73.145744 
L 218.410502 73.127199 
L 219.133645 73.189461 
L 219.856789 72.978094 
L 220.579933 72.950247 
L 221.303077 72.930536 
L 222.026221 73.301023 
L 222.749365 72.877152 
L 223.472508 72.678301 
L 224.195652 72.745068 
L 224.918796 72.891625 
L 225.64194 72.664639 
L 226.365084 72.642905 
L 227.088227 72.561785 
L 227.811371 72.611479 
L 228.534515 72.344291 
L 229.257659 72.712006 
L 229.980803 72.391628 
L 230.703946 72.311866 
L 231.42709 72.379689 
L 232.150234 71.950032 
L 232.873378 71.639652 
L 233.596522 71.645 
L 234.319666 71.509662 
L 235.042809 71.160126 
L 235.765953 71.093617 
L 236.489097 70.948045 
L 237.212241 70.578191 
L 237.935385 70.632227 
L 238.658528 70.494693 
L 239.381672 70.560575 
L 240.104816 70.656025 
L 240.82796 70.599503 
L 241.551104 70.778796 
L 242.274247 70.865304 
L 242.997391 71.063275 
L 243.720535 71.081307 
L 244.443679 71.138767 
L 245.166823 71.002865 
L 245.889967 71.191398 
L 246.61311 71.440331 
L 247.336254 71.241704 
L 248.059398 71.492988 
L 248.782542 71.613768 
L 249.505686 71.441281 
L 250.228829 71.425295 
L 250.951973 71.182839 
L 251.675117 71.14074 
L 252.398261 71.00463 
L 253.121405 71.275891 
L 253.844548 70.95923 
L 254.567692 70.703905 
L 255.290836 70.578936 
L 256.01398 70.464163 
L 256.737124 70.287041 
L 257.460268 70.235299 
L 258.183411 69.83605 
L 258.906555 69.860865 
L 259.629699 69.686122 
L 260.352843 69.870914 
L 261.075987 69.694776 
L 261.79913 69.581043 
L 262.522274 69.606713 
L 263.245418 69.814873 
L 263.968562 69.512453 
L 264.691706 69.457406 
L 265.414849 69.262532 
L 266.137993 69.562318 
L 266.861137 69.621495 
L 267.584281 70.141294 
L 268.307425 70.129345 
L 269.030569 70.189118 
L 269.753712 70.322519 
L 270.476856 70.31154 
L 271.2 70.263494 
L 271.2 38.898019 
L 271.2 38.898019 
L 270.476856 39.211616 
L 269.753712 39.641608 
L 269.030569 39.59965 
L 268.307425 39.632545 
L 267.584281 39.896206 
L 266.861137 40.051492 
L 266.137993 40.221782 
L 265.414849 40.349832 
L 264.691706 40.505133 
L 263.968562 40.472612 
L 263.245418 40.736869 
L 262.522274 40.945859 
L 261.79913 40.904375 
L 261.075987 41.202983 
L 260.352843 40.988464 
L 259.629699 40.582115 
L 258.906555 41.30609 
L 258.183411 40.997781 
L 257.460268 40.738775 
L 256.737124 40.583915 
L 256.01398 40.847969 
L 255.290836 40.934351 
L 254.567692 41.02975 
L 253.844548 40.985558 
L 253.121405 41.329629 
L 252.398261 41.636264 
L 251.675117 42.125125 
L 250.951973 41.477456 
L 250.228829 41.609991 
L 249.505686 42.3452 
L 248.782542 43.081594 
L 248.059398 42.531424 
L 247.336254 42.64047 
L 246.61311 42.183675 
L 245.889967 41.96565 
L 245.166823 41.637939 
L 244.443679 41.445382 
L 243.720535 40.963489 
L 242.997391 41.126542 
L 242.274247 41.285767 
L 241.551104 40.524728 
L 240.82796 40.454242 
L 240.104816 40.737939 
L 239.381672 40.739855 
L 238.658528 41.388352 
L 237.935385 41.753123 
L 237.212241 41.615164 
L 236.489097 42.079251 
L 235.765953 42.561298 
L 235.042809 42.806589 
L 234.319666 42.746778 
L 233.596522 43.291391 
L 232.873378 43.025887 
L 232.150234 43.140092 
L 231.42709 43.02245 
L 230.703946 42.474088 
L 229.980803 42.328135 
L 229.257659 42.540971 
L 228.534515 42.228466 
L 227.811371 41.94276 
L 227.088227 42.273743 
L 226.365084 42.414845 
L 225.64194 42.207935 
L 224.918796 41.900996 
L 224.195652 41.507438 
L 223.472508 41.283988 
L 222.749365 41.349824 
L 222.026221 41.70954 
L 221.303077 41.860631 
L 220.579933 42.110058 
L 219.856789 42.267303 
L 219.133645 42.428924 
L 218.410502 42.552946 
L 217.687358 42.896759 
L 216.964214 43.449001 
L 216.24107 43.74313 
L 215.517926 44.341416 
L 214.794783 44.737556 
L 214.071639 44.427307 
L 213.348495 44.366142 
L 212.625351 44.299725 
L 211.902207 44.417439 
L 211.179064 44.196077 
L 210.45592 43.867277 
L 209.732776 43.460798 
L 209.009632 43.269469 
L 208.286488 43.035374 
L 207.563344 42.937839 
L 206.840201 42.600494 
L 206.117057 43.15743 
L 205.393913 43.709667 
L 204.670769 43.794051 
L 203.947625 44.314959 
L 203.224482 44.48205 
L 202.501338 44.631257 
L 201.778194 45.373886 
L 201.05505 45.358008 
L 200.331906 45.326725 
L 199.608763 45.248104 
L 198.885619 45.462506 
L 198.162475 45.047762 
L 197.439331 44.636743 
L 196.716187 45.054814 
L 195.993043 44.904126 
L 195.2699 44.650329 
L 194.546756 44.982954 
L 193.823612 44.885528 
L 193.100468 45.332444 
L 192.377324 45.646077 
L 191.654181 45.767894 
L 190.931037 45.844261 
L 190.207893 45.751063 
L 189.484749 46.092208 
L 188.761605 46.219563 
L 188.038462 45.980448 
L 187.315318 45.733154 
L 186.592174 46.011056 
L 185.86903 45.806119 
L 185.145886 45.683289 
L 184.422742 45.594842 
L 183.699599 45.565938 
L 182.976455 45.489682 
L 182.253311 45.66248 
L 181.530167 45.545347 
L 180.807023 45.416212 
L 180.08388 45.798906 
L 179.360736 46.047769 
L 178.637592 45.641515 
L 177.914448 45.773367 
L 177.191304 45.724705 
L 176.468161 45.733938 
L 175.745017 45.499089 
L 175.021873 45.992741 
L 174.298729 46.04515 
L 173.575585 45.895628 
L 172.852441 45.745214 
L 172.129298 45.323544 
L 171.406154 45.633946 
L 170.68301 45.681431 
L 169.959866 45.606759 
L 169.236722 45.864741 
L 168.513579 45.880804 
L 167.790435 46.294008 
L 167.067291 46.092291 
L 166.344147 46.088762 
L 165.621003 46.521256 
L 164.89786 46.737731 
L 164.174716 46.99799 
L 163.451572 46.969281 
L 162.728428 47.720962 
L 162.005284 47.861208 
L 161.28214 48.0321 
L 160.558997 48.539407 
L 159.835853 48.600479 
L 159.112709 49.114327 
L 158.389565 49.326065 
L 157.666421 49.250095 
L 156.943278 49.640201 
L 156.220134 49.96713 
L 155.49699 50.039897 
L 154.773846 49.958515 
L 154.050702 50.247936 
L 153.327559 50.512425 
L 152.604415 50.572687 
L 151.881271 50.881895 
L 151.158127 50.580282 
L 150.434983 50.64716 
L 149.711839 50.823656 
L 148.988696 50.71423 
L 148.265552 51.001157 
L 147.542408 51.376695 
L 146.819264 51.418298 
L 146.09612 51.50028 
L 145.372977 51.419701 
L 144.649833 51.53881 
L 143.926689 51.503899 
L 143.203545 51.732626 
L 142.480401 51.9378 
L 141.757258 52.287386 
L 141.034114 52.259663 
L 140.31097 52.408845 
L 139.587826 52.52709 
L 138.864682 52.626782 
L 138.141538 52.796532 
L 137.418395 53.406739 
L 136.695251 53.309788 
L 135.972107 53.640465 
L 135.248963 53.780116 
L 134.525819 54.217585 
L 133.802676 54.247499 
L 133.079532 54.162774 
L 132.356388 54.642929 
L 131.633244 54.679643 
L 130.9101 54.68541 
L 130.186957 54.971573 
L 129.463813 54.795205 
L 128.740669 55.273065 
L 128.017525 55.752611 
L 127.294381 56.123231 
L 126.571237 56.156131 
L 125.848094 56.400898 
L 125.12495 57.016059 
L 124.401806 56.941721 
L 123.678662 57.219011 
L 122.955518 57.843338 
L 122.232375 58.65484 
L 121.509231 59.282076 
L 120.786087 59.868751 
L 120.062943 59.912994 
L 119.339799 60.058448 
L 118.616656 60.209787 
L 117.893512 60.336556 
L 117.170368 60.596114 
L 116.447224 60.668805 
L 115.72408 60.873146 
L 115.000936 60.911553 
L 114.277793 60.631417 
L 113.554649 60.413468 
L 112.831505 60.476125 
L 112.108361 60.591892 
L 111.385217 59.939336 
L 110.662074 60.311577 
L 109.93893 60.738941 
L 109.215786 60.926998 
L 108.492642 61.001232 
L 107.769498 61.454401 
L 107.046355 62.024611 
L 106.323211 62.240544 
L 105.600067 62.72728 
L 104.876923 63.250939 
L 104.153779 63.315263 
L 103.430635 63.613464 
L 102.707492 63.539804 
L 101.984348 63.780333 
L 101.261204 63.792464 
L 100.53806 64.045966 
L 99.814916 63.699927 
L 99.091773 63.775135 
L 98.368629 64.395436 
L 97.645485 64.831831 
L 96.922341 64.833956 
L 96.199197 65.166817 
L 95.476054 65.504118 
L 94.75291 65.953193 
L 94.029766 66.667227 
L 93.306622 67.508306 
L 92.583478 68.121184 
L 91.860334 68.774736 
L 91.137191 69.391698 
L 90.414047 69.845241 
L 89.690903 70.339366 
L 88.967759 71.09549 
L 88.244615 71.948978 
L 87.521472 72.784548 
L 86.798328 73.648887 
L 86.075184 73.64684 
L 85.35204 73.974292 
L 84.628896 74.377288 
L 83.905753 75.481883 
L 83.182609 76.065028 
L 82.459465 76.649087 
L 81.736321 77.547911 
L 81.013177 78.146927 
L 80.290033 78.858481 
L 79.56689 79.772262 
L 78.843746 80.20512 
L 78.120602 81.377232 
L 77.397458 82.367977 
L 76.674314 83.503647 
L 75.951171 84.540017 
L 75.228027 85.292455 
L 74.504883 86.343515 
L 73.781739 87.336187 
L 73.058595 88.523188 
L 72.335452 89.585732 
L 71.612308 90.59096 
L 70.889164 91.723748 
L 70.16602 93.154995 
L 69.442876 94.762545 
L 68.719732 96.266005 
L 67.996589 97.396647 
L 67.273445 99.361257 
L 66.550301 100.972127 
L 65.827157 102.522925 
L 65.104013 104.587363 
L 64.38087 106.306217 
L 63.657726 108.343641 
L 62.934582 110.66322 
L 62.211438 113.234919 
L 61.488294 115.870335 
L 60.765151 119.388941 
L 60.042007 124.145653 
L 59.318863 128.999672 
L 58.595719 133.761208 
L 57.872575 136.074408 
L 57.149431 138.360491 
L 56.426288 140.928389 
L 55.703144 143.835416 
L 54.98 147.063619 
z
" style="fill:#4c72b0;fill-opacity:0.2;"/>
   </g>
   <g id="PolyCollection_2">
    <path clip-path="url(#pc841aae5fb)" d="M 54.98 143.227463 
L 54.98 152.822792 
L 55.703144 150.30108 
L 56.426288 148.617881 
L 57.149431 146.576013 
L 57.872575 144.570079 
L 58.595719 142.698827 
L 59.318863 138.653324 
L 60.042007 134.474789 
L 60.765151 131.161901 
L 61.488294 128.196693 
L 62.211438 126.008733 
L 62.934582 123.516008 
L 63.657726 121.442472 
L 64.38087 119.081761 
L 65.104013 117.065026 
L 65.827157 115.328682 
L 66.550301 113.68855 
L 67.273445 111.839296 
L 67.996589 110.356603 
L 68.719732 108.788387 
L 69.442876 107.440903 
L 70.16602 105.974904 
L 70.889164 104.970752 
L 71.612308 103.662138 
L 72.335452 102.422615 
L 73.058595 101.435137 
L 73.781739 100.56653 
L 74.504883 99.75123 
L 75.228027 99.33546 
L 75.951171 98.791144 
L 76.674314 98.186047 
L 77.397458 97.745103 
L 78.120602 97.060437 
L 78.843746 96.646573 
L 79.56689 96.045573 
L 80.290033 95.742918 
L 81.013177 95.266072 
L 81.736321 94.436309 
L 82.459465 93.68706 
L 83.182609 93.100056 
L 83.905753 92.52925 
L 84.628896 91.831168 
L 85.35204 91.15947 
L 86.075184 90.661281 
L 86.798328 89.913323 
L 87.521472 89.427786 
L 88.244615 88.708956 
L 88.967759 88.492411 
L 89.690903 88.33425 
L 90.414047 88.298314 
L 91.137191 87.824511 
L 91.860334 87.442778 
L 92.583478 87.487203 
L 93.306622 87.133516 
L 94.029766 86.777237 
L 94.75291 86.464745 
L 95.476054 86.206743 
L 96.199197 86.276502 
L 96.922341 85.659239 
L 97.645485 85.392701 
L 98.368629 84.878653 
L 99.091773 84.550828 
L 99.814916 84.314449 
L 100.53806 83.685025 
L 101.261204 83.419228 
L 101.984348 82.862548 
L 102.707492 82.375716 
L 103.430635 81.832004 
L 104.153779 81.02042 
L 104.876923 80.736752 
L 105.600067 80.041789 
L 106.323211 79.866908 
L 107.046355 79.818995 
L 107.769498 79.289491 
L 108.492642 79.011033 
L 109.215786 78.662571 
L 109.93893 78.443716 
L 110.662074 78.248016 
L 111.385217 77.835115 
L 112.108361 77.458059 
L 112.831505 76.999889 
L 113.554649 76.819807 
L 114.277793 76.231862 
L 115.000936 75.486031 
L 115.72408 75.134214 
L 116.447224 74.9871 
L 117.170368 74.605217 
L 117.893512 74.536455 
L 118.616656 74.522489 
L 119.339799 74.494007 
L 120.062943 74.496216 
L 120.786087 74.423809 
L 121.509231 74.157363 
L 122.232375 74.03758 
L 122.955518 74.060283 
L 123.678662 73.906166 
L 124.401806 73.76641 
L 125.12495 73.792121 
L 125.848094 73.412191 
L 126.571237 73.229409 
L 127.294381 73.048274 
L 128.017525 72.918206 
L 128.740669 72.714041 
L 129.463813 72.879416 
L 130.186957 72.512463 
L 130.9101 72.340682 
L 131.633244 72.448191 
L 132.356388 71.879656 
L 133.079532 71.450671 
L 133.802676 71.446666 
L 134.525819 71.298159 
L 135.248963 71.082725 
L 135.972107 70.878441 
L 136.695251 70.711948 
L 137.418395 70.38082 
L 138.141538 70.623935 
L 138.864682 70.545285 
L 139.587826 70.700852 
L 140.31097 70.790542 
L 141.034114 70.932121 
L 141.757258 70.950412 
L 142.480401 70.723364 
L 143.203545 71.026576 
L 143.926689 71.154497 
L 144.649833 71.116155 
L 145.372977 70.548131 
L 146.09612 70.433781 
L 146.819264 70.263438 
L 147.542408 69.844767 
L 148.265552 69.339934 
L 148.988696 69.257568 
L 149.711839 69.357396 
L 150.434983 69.112921 
L 151.158127 68.660582 
L 151.881271 67.922971 
L 152.604415 67.976262 
L 153.327559 68.165055 
L 154.050702 67.819685 
L 154.773846 68.017931 
L 155.49699 67.795316 
L 156.220134 67.733409 
L 156.943278 67.538079 
L 157.666421 66.725065 
L 158.389565 66.516099 
L 159.112709 65.975079 
L 159.835853 65.939765 
L 160.558997 65.783501 
L 161.28214 66.140371 
L 162.005284 65.730034 
L 162.728428 64.890095 
L 163.451572 64.688294 
L 164.174716 64.403141 
L 164.89786 63.910095 
L 165.621003 64.037667 
L 166.344147 64.02938 
L 167.067291 64.169501 
L 167.790435 64.277118 
L 168.513579 63.972044 
L 169.236722 63.319799 
L 169.959866 63.364362 
L 170.68301 63.512821 
L 171.406154 63.108734 
L 172.129298 63.720639 
L 172.852441 63.652662 
L 173.575585 63.31089 
L 174.298729 62.93076 
L 175.021873 62.921937 
L 175.745017 62.461438 
L 176.468161 62.328034 
L 177.191304 62.191457 
L 177.914448 62.563383 
L 178.637592 62.257305 
L 179.360736 62.635371 
L 180.08388 62.366596 
L 180.807023 62.933327 
L 181.530167 63.165357 
L 182.253311 64.004154 
L 182.976455 63.810151 
L 183.699599 64.159328 
L 184.422742 64.543443 
L 185.145886 64.297119 
L 185.86903 63.601733 
L 186.592174 63.677632 
L 187.315318 63.421378 
L 188.038462 62.82452 
L 188.761605 62.037563 
L 189.484749 61.801478 
L 190.207893 61.255815 
L 190.931037 61.511228 
L 191.654181 61.274303 
L 192.377324 60.779103 
L 193.100468 60.90281 
L 193.823612 61.175742 
L 194.546756 61.180488 
L 195.2699 60.854625 
L 195.993043 61.001774 
L 196.716187 61.371642 
L 197.439331 61.731714 
L 198.162475 61.155262 
L 198.885619 60.509748 
L 199.608763 60.233257 
L 200.331906 59.941633 
L 201.05505 59.66284 
L 201.778194 59.606006 
L 202.501338 59.382766 
L 203.224482 59.361034 
L 203.947625 59.358636 
L 204.670769 59.063046 
L 205.393913 58.498942 
L 206.117057 58.901179 
L 206.840201 59.244799 
L 207.563344 59.133343 
L 208.286488 59.389374 
L 209.009632 59.590497 
L 209.732776 59.201295 
L 210.45592 59.368887 
L 211.179064 59.29419 
L 211.902207 59.074792 
L 212.625351 58.977834 
L 213.348495 58.647856 
L 214.071639 57.902981 
L 214.794783 57.963679 
L 215.517926 57.871786 
L 216.24107 58.135599 
L 216.964214 58.003883 
L 217.687358 58.416581 
L 218.410502 58.04146 
L 219.133645 57.948251 
L 219.856789 57.838788 
L 220.579933 57.756651 
L 221.303077 58.231832 
L 222.026221 58.294811 
L 222.749365 58.126642 
L 223.472508 58.33794 
L 224.195652 57.549253 
L 224.918796 57.517273 
L 225.64194 57.127796 
L 226.365084 57.311373 
L 227.088227 57.058753 
L 227.811371 57.098471 
L 228.534515 57.103599 
L 229.257659 56.773303 
L 229.980803 57.170199 
L 230.703946 57.341343 
L 231.42709 57.254983 
L 232.150234 57.44313 
L 232.873378 57.380041 
L 233.596522 57.594204 
L 234.319666 57.693044 
L 235.042809 58.09165 
L 235.765953 58.585982 
L 236.489097 58.644175 
L 237.212241 58.603775 
L 237.935385 58.211003 
L 238.658528 58.012712 
L 239.381672 57.780859 
L 240.104816 57.701476 
L 240.82796 57.502193 
L 241.551104 57.361325 
L 242.274247 57.458297 
L 242.997391 57.106831 
L 243.720535 56.246627 
L 244.443679 56.080895 
L 245.166823 55.973453 
L 245.889967 56.222489 
L 246.61311 55.805891 
L 247.336254 55.910026 
L 248.059398 55.672523 
L 248.782542 55.893374 
L 249.505686 55.934376 
L 250.228829 56.278707 
L 250.951973 56.892378 
L 251.675117 57.523152 
L 252.398261 57.803543 
L 253.121405 57.842069 
L 253.844548 57.513247 
L 254.567692 57.684336 
L 255.290836 57.948314 
L 256.01398 57.805271 
L 256.737124 57.96113 
L 257.460268 57.869273 
L 258.183411 57.357926 
L 258.906555 56.994308 
L 259.629699 56.330678 
L 260.352843 56.336952 
L 261.075987 56.514601 
L 261.79913 56.831837 
L 262.522274 56.935109 
L 263.245418 56.621856 
L 263.968562 56.838278 
L 264.691706 56.604205 
L 265.414849 56.498086 
L 266.137993 56.405765 
L 266.861137 56.435036 
L 267.584281 56.392116 
L 268.307425 56.160002 
L 269.030569 55.932587 
L 269.753712 55.673325 
L 270.476856 55.593414 
L 271.2 55.767596 
L 271.2 39.949443 
L 271.2 39.949443 
L 270.476856 39.599499 
L 269.753712 39.615188 
L 269.030569 39.414165 
L 268.307425 39.46791 
L 267.584281 39.748821 
L 266.861137 39.283185 
L 266.137993 39.187962 
L 265.414849 39.022343 
L 264.691706 38.688657 
L 263.968562 38.750103 
L 263.245418 38.706099 
L 262.522274 38.797137 
L 261.79913 38.643441 
L 261.075987 38.634187 
L 260.352843 38.57097 
L 259.629699 38.246964 
L 258.906555 38.354599 
L 258.183411 38.649063 
L 257.460268 39.838851 
L 256.737124 39.596401 
L 256.01398 39.330942 
L 255.290836 39.691342 
L 254.567692 39.782182 
L 253.844548 39.907231 
L 253.121405 40.254568 
L 252.398261 40.551407 
L 251.675117 40.532351 
L 250.951973 40.580288 
L 250.228829 40.646647 
L 249.505686 40.228231 
L 248.782542 40.609753 
L 248.059398 40.781227 
L 247.336254 41.144598 
L 246.61311 41.213219 
L 245.889967 41.301406 
L 245.166823 41.122672 
L 244.443679 41.084865 
L 243.720535 41.093921 
L 242.997391 41.431993 
L 242.274247 41.396517 
L 241.551104 41.249298 
L 240.82796 41.380842 
L 240.104816 41.508486 
L 239.381672 41.127921 
L 238.658528 41.042681 
L 237.935385 41.337155 
L 237.212241 41.568654 
L 236.489097 41.575591 
L 235.765953 41.786058 
L 235.042809 41.61117 
L 234.319666 41.900209 
L 233.596522 42.119081 
L 232.873378 42.318125 
L 232.150234 42.258859 
L 231.42709 42.013929 
L 230.703946 42.410903 
L 229.980803 42.470865 
L 229.257659 42.495288 
L 228.534515 42.368308 
L 227.811371 42.295053 
L 227.088227 42.163157 
L 226.365084 41.934623 
L 225.64194 41.506624 
L 224.918796 41.18513 
L 224.195652 41.28212 
L 223.472508 40.921831 
L 222.749365 41.118208 
L 222.026221 40.79257 
L 221.303077 40.774677 
L 220.579933 40.694607 
L 219.856789 40.991944 
L 219.133645 41.259582 
L 218.410502 41.634965 
L 217.687358 41.822386 
L 216.964214 41.777113 
L 216.24107 41.784234 
L 215.517926 42.12988 
L 214.794783 42.06122 
L 214.071639 42.352887 
L 213.348495 42.753079 
L 212.625351 42.999288 
L 211.902207 42.805601 
L 211.179064 42.90031 
L 210.45592 42.712781 
L 209.732776 42.906794 
L 209.009632 43.271958 
L 208.286488 43.556466 
L 207.563344 43.862952 
L 206.840201 44.199495 
L 206.117057 44.165593 
L 205.393913 43.908468 
L 204.670769 44.013977 
L 203.947625 44.134506 
L 203.224482 44.027145 
L 202.501338 44.115174 
L 201.778194 44.068799 
L 201.05505 44.263964 
L 200.331906 44.311297 
L 199.608763 45.006931 
L 198.885619 44.57033 
L 198.162475 44.798843 
L 197.439331 44.665619 
L 196.716187 44.37035 
L 195.993043 44.748402 
L 195.2699 44.56693 
L 194.546756 44.539517 
L 193.823612 44.548379 
L 193.100468 44.183125 
L 192.377324 44.667595 
L 191.654181 43.935914 
L 190.931037 43.84141 
L 190.207893 43.637161 
L 189.484749 43.326968 
L 188.761605 44.244974 
L 188.038462 44.144999 
L 187.315318 44.632041 
L 186.592174 44.578173 
L 185.86903 44.948433 
L 185.145886 45.725096 
L 184.422742 45.596986 
L 183.699599 46.271163 
L 182.976455 46.700584 
L 182.253311 47.066471 
L 181.530167 47.423112 
L 180.807023 46.781407 
L 180.08388 46.618835 
L 179.360736 46.398209 
L 178.637592 46.433375 
L 177.914448 46.147748 
L 177.191304 45.708812 
L 176.468161 45.259081 
L 175.745017 44.81019 
L 175.021873 44.767127 
L 174.298729 44.699582 
L 173.575585 44.687557 
L 172.852441 44.799477 
L 172.129298 44.924309 
L 171.406154 44.947012 
L 170.68301 45.189861 
L 169.959866 45.60714 
L 169.236722 45.811801 
L 168.513579 45.857635 
L 167.790435 46.197175 
L 167.067291 45.954996 
L 166.344147 45.925208 
L 165.621003 46.252005 
L 164.89786 46.546705 
L 164.174716 46.985213 
L 163.451572 47.074032 
L 162.728428 47.125637 
L 162.005284 47.045123 
L 161.28214 47.00917 
L 160.558997 47.118422 
L 159.835853 47.165953 
L 159.112709 47.389501 
L 158.389565 47.768342 
L 157.666421 47.853871 
L 156.943278 48.270068 
L 156.220134 48.502875 
L 155.49699 48.888814 
L 154.773846 48.882088 
L 154.050702 49.274134 
L 153.327559 49.453705 
L 152.604415 49.746281 
L 151.881271 49.804299 
L 151.158127 50.154933 
L 150.434983 50.178737 
L 149.711839 50.491937 
L 148.988696 50.172643 
L 148.265552 50.126256 
L 147.542408 50.282981 
L 146.819264 50.610152 
L 146.09612 50.30465 
L 145.372977 50.379039 
L 144.649833 50.453263 
L 143.926689 50.575811 
L 143.203545 50.729681 
L 142.480401 50.909869 
L 141.757258 51.342131 
L 141.034114 51.430205 
L 140.31097 51.342468 
L 139.587826 51.148144 
L 138.864682 51.291827 
L 138.141538 51.809839 
L 137.418395 52.319036 
L 136.695251 52.580369 
L 135.972107 52.817022 
L 135.248963 52.596701 
L 134.525819 52.73502 
L 133.802676 52.661005 
L 133.079532 52.793093 
L 132.356388 53.03692 
L 131.633244 53.387645 
L 130.9101 53.572227 
L 130.186957 53.689969 
L 129.463813 53.753225 
L 128.740669 54.27059 
L 128.017525 54.380271 
L 127.294381 54.748575 
L 126.571237 54.689411 
L 125.848094 54.65693 
L 125.12495 54.960066 
L 124.401806 55.192837 
L 123.678662 55.408825 
L 122.955518 55.333689 
L 122.232375 55.269309 
L 121.509231 55.905228 
L 120.786087 55.655086 
L 120.062943 55.548873 
L 119.339799 55.731396 
L 118.616656 55.901452 
L 117.893512 56.256313 
L 117.170368 56.566899 
L 116.447224 56.762069 
L 115.72408 57.02846 
L 115.000936 57.293743 
L 114.277793 57.608567 
L 113.554649 56.858297 
L 112.831505 56.931358 
L 112.108361 57.47446 
L 111.385217 57.575677 
L 110.662074 57.77815 
L 109.93893 57.725476 
L 109.215786 57.605292 
L 108.492642 57.647505 
L 107.769498 57.40064 
L 107.046355 57.763832 
L 106.323211 57.706368 
L 105.600067 58.377029 
L 104.876923 58.428216 
L 104.153779 58.605349 
L 103.430635 59.205129 
L 102.707492 59.559427 
L 101.984348 59.870203 
L 101.261204 59.936215 
L 100.53806 60.397211 
L 99.814916 61.139729 
L 99.091773 61.263284 
L 98.368629 61.559981 
L 97.645485 61.468575 
L 96.922341 61.74023 
L 96.199197 61.915844 
L 95.476054 61.772913 
L 94.75291 61.804361 
L 94.029766 61.939261 
L 93.306622 62.142146 
L 92.583478 62.415242 
L 91.860334 62.164018 
L 91.137191 62.523157 
L 90.414047 62.748485 
L 89.690903 63.267613 
L 88.967759 63.695218 
L 88.244615 63.967824 
L 87.521472 64.297301 
L 86.798328 65.293041 
L 86.075184 66.213005 
L 85.35204 66.990954 
L 84.628896 67.194861 
L 83.905753 67.785965 
L 83.182609 67.950208 
L 82.459465 68.571515 
L 81.736321 69.031634 
L 81.013177 69.392641 
L 80.290033 70.016255 
L 79.56689 70.633367 
L 78.843746 70.755154 
L 78.120602 71.093388 
L 77.397458 71.993819 
L 76.674314 72.760762 
L 75.951171 73.404179 
L 75.228027 74.617626 
L 74.504883 75.779259 
L 73.781739 76.965084 
L 73.058595 78.470958 
L 72.335452 79.641301 
L 71.612308 80.951371 
L 70.889164 82.168622 
L 70.16602 83.464267 
L 69.442876 84.970777 
L 68.719732 86.758989 
L 67.996589 88.744941 
L 67.273445 90.400145 
L 66.550301 91.987186 
L 65.827157 93.753985 
L 65.104013 95.629153 
L 64.38087 97.862141 
L 63.657726 100.306715 
L 62.934582 102.909758 
L 62.211438 106.047537 
L 61.488294 108.999991 
L 60.765151 112.595009 
L 60.042007 117.192262 
L 59.318863 122.697086 
L 58.595719 128.388268 
L 57.872575 130.797299 
L 57.149431 133.384783 
L 56.426288 136.285744 
L 55.703144 139.449801 
L 54.98 143.227463 
z
" style="fill:#55a868;fill-opacity:0.2;"/>
   </g>
   <g id="line2d_23">
    <path clip-path="url(#pc841aae5fb)" d="M 54.98 151.032927 
L 56.426288 145.617274 
L 58.595719 139.199648 
L 60.765151 126.914744 
L 61.488294 123.676821 
L 63.657726 116.540147 
L 65.104013 112.7034 
L 65.827157 111.033907 
L 67.273445 108.070347 
L 67.996589 106.561721 
L 69.442876 104.33381 
L 70.889164 101.799782 
L 71.612308 100.78002 
L 73.058595 99.07242 
L 73.781739 98.042774 
L 75.228027 96.576349 
L 76.674314 95.002125 
L 77.397458 94.142091 
L 78.843746 92.926668 
L 79.56689 92.530385 
L 81.013177 91.202007 
L 81.736321 90.754992 
L 82.459465 89.987462 
L 83.905753 88.977617 
L 84.628896 88.215998 
L 86.075184 87.328456 
L 86.798328 86.93311 
L 88.244615 85.693098 
L 91.137191 83.760104 
L 93.306622 83.00993 
L 94.75291 82.196626 
L 96.199197 81.614504 
L 99.091773 80.609198 
L 99.814916 80.26199 
L 101.984348 79.691774 
L 102.707492 79.305586 
L 103.430635 79.219487 
L 104.153779 78.868609 
L 104.876923 78.751738 
L 105.600067 78.494692 
L 107.046355 77.779187 
L 107.769498 77.469024 
L 109.93893 76.93481 
L 110.662074 76.576631 
L 111.385217 76.406754 
L 112.108361 77.173792 
L 115.000936 79.265918 
L 115.72408 79.364017 
L 116.447224 79.059071 
L 117.170368 79.176951 
L 118.616656 79.025703 
L 119.339799 78.666528 
L 120.786087 76.675939 
L 121.509231 75.825839 
L 122.232375 75.247695 
L 122.955518 74.481181 
L 123.678662 73.938621 
L 125.848094 72.943458 
L 126.571237 72.778258 
L 127.294381 72.814529 
L 128.740669 72.162332 
L 129.463813 71.740352 
L 130.186957 71.712626 
L 131.633244 71.448166 
L 132.356388 71.469378 
L 135.248963 70.78662 
L 135.972107 70.74623 
L 138.141538 70.068038 
L 138.864682 69.808577 
L 139.587826 69.72262 
L 141.034114 69.243958 
L 141.757258 69.293367 
L 143.926689 68.289073 
L 144.649833 68.301991 
L 146.09612 68.115187 
L 146.819264 68.183859 
L 148.265552 67.896946 
L 149.711839 67.528098 
L 151.158127 67.416177 
L 151.881271 67.693838 
L 152.604415 67.487029 
L 153.327559 67.491621 
L 154.050702 67.275083 
L 154.773846 66.898025 
L 155.49699 66.902473 
L 157.666421 66.390245 
L 159.112709 66.071628 
L 159.835853 65.56704 
L 160.558997 65.484503 
L 161.28214 65.136274 
L 162.728428 64.882572 
L 163.451572 64.392996 
L 164.174716 64.444944 
L 166.344147 63.551196 
L 167.790435 63.621586 
L 168.513579 63.192727 
L 169.959866 62.870958 
L 170.68301 62.954496 
L 171.406154 62.851061 
L 172.129298 62.517582 
L 174.298729 62.785229 
L 175.021873 62.589263 
L 175.745017 62.224464 
L 176.468161 62.408187 
L 178.637592 61.942602 
L 179.360736 62.088062 
L 180.08388 62.062064 
L 180.807023 61.787567 
L 182.253311 61.879697 
L 182.976455 61.703737 
L 183.699599 61.743319 
L 184.422742 61.605902 
L 185.145886 61.649455 
L 185.86903 61.888421 
L 186.592174 61.994232 
L 187.315318 61.750822 
L 189.484749 61.542279 
L 190.207893 61.178557 
L 190.931037 61.156763 
L 193.100468 60.468399 
L 193.823612 60.020769 
L 195.2699 59.885283 
L 195.993043 60.194188 
L 196.716187 60.356907 
L 197.439331 60.231218 
L 198.885619 60.865434 
L 199.608763 60.632071 
L 201.05505 60.755819 
L 201.778194 60.716887 
L 204.670769 59.705682 
L 206.117057 58.988983 
L 206.840201 58.549055 
L 207.563344 58.890014 
L 209.009632 58.903473 
L 209.732776 59.073572 
L 211.179064 59.089529 
L 211.902207 59.126795 
L 213.348495 58.977462 
L 214.071639 58.952162 
L 214.794783 59.222796 
L 215.517926 58.947468 
L 216.24107 58.542778 
L 216.964214 58.395501 
L 217.687358 58.021251 
L 218.410502 57.840073 
L 219.133645 57.809192 
L 220.579933 57.530152 
L 221.303077 57.395584 
L 222.026221 57.505281 
L 222.749365 57.113488 
L 223.472508 56.981145 
L 224.195652 57.126253 
L 224.918796 57.396311 
L 227.088227 57.417764 
L 227.811371 57.277119 
L 228.534515 57.286378 
L 229.257659 57.626488 
L 229.980803 57.359882 
L 230.703946 57.392977 
L 231.42709 57.70107 
L 232.873378 57.33277 
L 233.596522 57.468196 
L 234.319666 57.12822 
L 235.765953 56.827458 
L 237.212241 56.096677 
L 237.935385 56.192675 
L 239.381672 55.650215 
L 240.104816 55.696982 
L 240.82796 55.526872 
L 241.551104 55.651762 
L 242.274247 56.075535 
L 243.720535 56.022398 
L 244.443679 56.292074 
L 245.166823 56.320402 
L 246.61311 56.812003 
L 248.059398 57.012206 
L 248.782542 57.347681 
L 250.228829 56.517643 
L 250.951973 56.330148 
L 251.675117 56.632932 
L 252.398261 56.320447 
L 253.121405 56.30276 
L 253.844548 55.972394 
L 256.01398 55.656066 
L 256.737124 55.435478 
L 257.460268 55.487037 
L 258.183411 55.416916 
L 258.906555 55.583478 
L 259.629699 55.134119 
L 260.352843 55.429689 
L 261.075987 55.448879 
L 261.79913 55.242709 
L 263.245418 55.275871 
L 263.968562 54.992532 
L 264.691706 54.98127 
L 265.414849 54.806182 
L 266.137993 54.89205 
L 266.861137 54.836493 
L 267.584281 55.01875 
L 268.307425 54.880945 
L 269.753712 54.982063 
L 271.2 54.580757 
L 271.2 54.580757 
" style="fill:none;stroke:#4c72b0;stroke-linecap:round;stroke-width:1.75;"/>
   </g>
   <g id="line2d_24">
    <path clip-path="url(#pc841aae5fb)" d="M 54.98 148.025128 
L 55.703144 144.875441 
L 58.595719 135.543547 
L 60.042007 125.833526 
L 60.765151 121.878455 
L 61.488294 118.598342 
L 64.38087 108.471951 
L 65.827157 104.541333 
L 69.442876 96.20584 
L 70.16602 94.719586 
L 71.612308 92.306755 
L 73.058595 89.953047 
L 74.504883 87.765245 
L 76.674314 85.473405 
L 77.397458 84.869461 
L 78.120602 84.076913 
L 80.290033 82.879586 
L 82.459465 81.129287 
L 83.182609 80.525132 
L 83.905753 80.157608 
L 84.628896 79.513015 
L 85.35204 79.075212 
L 86.075184 78.437143 
L 87.521472 76.862544 
L 88.244615 76.33839 
L 90.414047 75.5234 
L 91.860334 74.803398 
L 92.583478 74.951222 
L 94.029766 74.358249 
L 95.476054 73.989828 
L 96.199197 74.096173 
L 96.922341 73.699735 
L 99.814916 72.727089 
L 100.53806 72.041118 
L 103.430635 70.518567 
L 104.153779 69.812885 
L 104.876923 69.582484 
L 106.323211 68.786638 
L 107.046355 68.791413 
L 107.769498 68.345066 
L 108.492642 68.329269 
L 109.215786 68.133932 
L 110.662074 68.013083 
L 112.108361 67.46626 
L 112.831505 66.965623 
L 113.554649 66.839052 
L 114.277793 66.920214 
L 115.000936 66.389887 
L 116.447224 65.874584 
L 117.893512 65.396384 
L 119.339799 65.112701 
L 120.786087 65.039447 
L 121.509231 65.031296 
L 122.232375 64.653444 
L 123.678662 64.657496 
L 126.571237 63.95941 
L 127.294381 63.898424 
L 128.740669 63.492315 
L 130.9101 62.956454 
L 131.633244 62.917918 
L 133.079532 62.121882 
L 135.972107 61.847731 
L 138.141538 61.216887 
L 138.864682 60.918556 
L 139.587826 60.924498 
L 141.034114 61.181163 
L 141.757258 61.146271 
L 142.480401 60.816616 
L 143.926689 60.865154 
L 144.649833 60.784709 
L 145.372977 60.463585 
L 146.09612 60.369216 
L 146.819264 60.436795 
L 148.265552 59.733095 
L 148.988696 59.715106 
L 149.711839 59.924666 
L 151.158127 59.407757 
L 151.881271 58.863635 
L 153.327559 58.80938 
L 154.050702 58.54691 
L 155.49699 58.342065 
L 156.943278 57.904074 
L 157.666421 57.289468 
L 158.389565 57.14222 
L 159.112709 56.68229 
L 160.558997 56.450961 
L 161.28214 56.574771 
L 162.005284 56.387578 
L 162.728428 56.007866 
L 164.174716 55.694177 
L 164.89786 55.2284 
L 167.067291 55.062249 
L 167.790435 55.237146 
L 169.236722 54.5658 
L 170.68301 54.351341 
L 171.406154 54.027873 
L 172.129298 54.322474 
L 172.852441 54.22607 
L 174.298729 53.815171 
L 175.021873 53.844532 
L 175.745017 53.635814 
L 177.191304 53.950135 
L 177.914448 54.355565 
L 178.637592 54.34534 
L 179.360736 54.51679 
L 180.08388 54.492715 
L 182.253311 55.535312 
L 182.976455 55.255367 
L 184.422742 55.070215 
L 185.145886 55.011108 
L 185.86903 54.275083 
L 187.315318 54.026709 
L 188.038462 53.484759 
L 188.761605 53.141268 
L 189.484749 52.564223 
L 190.207893 52.446488 
L 190.931037 52.676319 
L 191.654181 52.605109 
L 192.377324 52.723349 
L 193.100468 52.542967 
L 193.823612 52.86206 
L 194.546756 52.860002 
L 195.2699 52.710777 
L 195.993043 52.875088 
L 196.716187 52.870996 
L 197.439331 53.198666 
L 198.162475 52.977053 
L 198.885619 52.540039 
L 199.608763 52.620094 
L 200.331906 52.126465 
L 202.501338 51.74897 
L 204.670769 51.538511 
L 205.393913 51.203705 
L 206.117057 51.533386 
L 206.840201 51.722147 
L 207.563344 51.498147 
L 209.009632 51.431227 
L 209.732776 51.054044 
L 212.625351 50.988561 
L 213.348495 50.700467 
L 214.071639 50.127934 
L 215.517926 50.000833 
L 216.964214 49.890498 
L 217.687358 50.119484 
L 219.133645 49.603916 
L 220.579933 49.225629 
L 221.303077 49.503254 
L 223.472508 49.629886 
L 224.195652 49.415687 
L 225.64194 49.31721 
L 226.365084 49.622998 
L 227.811371 49.696762 
L 228.534515 49.735953 
L 229.257659 49.634296 
L 229.980803 49.820532 
L 230.703946 49.876123 
L 231.42709 49.634456 
L 232.150234 49.850995 
L 235.042809 49.85141 
L 235.765953 50.18602 
L 237.212241 50.086214 
L 238.658528 49.527697 
L 239.381672 49.45439 
L 240.104816 49.604981 
L 241.551104 49.305312 
L 242.274247 49.427407 
L 242.997391 49.269412 
L 243.720535 48.670274 
L 245.166823 48.548063 
L 245.889967 48.761947 
L 246.61311 48.509555 
L 247.336254 48.527312 
L 248.059398 48.226875 
L 248.782542 48.251563 
L 249.505686 48.081304 
L 250.951973 48.736333 
L 251.675117 49.027751 
L 252.398261 49.177475 
L 253.121405 49.048318 
L 253.844548 48.710239 
L 255.290836 48.819828 
L 256.01398 48.568106 
L 256.737124 48.778766 
L 257.460268 48.854062 
L 258.183411 48.003495 
L 259.629699 47.288821 
L 262.522274 47.866123 
L 263.245418 47.663977 
L 263.968562 47.794191 
L 264.691706 47.646431 
L 266.137993 47.796863 
L 266.861137 47.85911 
L 267.584281 48.070468 
L 269.030569 47.673376 
L 270.476856 47.596457 
L 271.2 47.858519 
L 271.2 47.858519 
" style="fill:none;stroke:#55a868;stroke-linecap:round;stroke-width:1.75;"/>
   </g>
   <g id="patch_3">
    <path d="M 54.98 160.84 
L 54.98 32.4092 
" style="fill:none;"/>
   </g>
   <g id="patch_4">
    <path d="M 271.2 160.84 
L 271.2 32.4092 
" style="fill:none;"/>
   </g>
   <g id="patch_5">
    <path d="M 54.98 160.84 
L 271.2 160.84 
" style="fill:none;"/>
   </g>
   <g id="patch_6">
    <path d="M 54.98 32.4092 
L 271.2 32.4092 
" style="fill:none;"/>
   </g>
   <g id="legend_1">
    <g id="line2d_25">
     <path d="M 60.18 17.35449 
L 73.18 17.35449 
" style="fill:none;stroke:#4c72b0;stroke-linecap:round;stroke-width:1.75;"/>
    </g>
    <g id="line2d_26"/>
    <g id="text_15">
     <!-- ddpg-tf1 -->
     <defs>
      <path d="M 40.234375 0 
L 40.234375 6.546875 
Q 35.296875 -1.171875 25.734375 -1.171875 
Q 19.53125 -1.171875 14.328125 2.25 
Q 9.125 5.671875 6.265625 11.796875 
Q 3.421875 17.921875 3.421875 25.875 
Q 3.421875 33.640625 6 39.96875 
Q 8.59375 46.296875 13.765625 49.65625 
Q 18.953125 53.03125 25.34375 53.03125 
Q 30.03125 53.03125 33.6875 51.046875 
Q 37.359375 49.078125 39.65625 45.90625 
L 39.65625 71.578125 
L 48.390625 71.578125 
L 48.390625 0 
z
M 12.453125 25.875 
Q 12.453125 15.921875 16.640625 10.984375 
Q 20.84375 6.0625 26.5625 6.0625 
Q 32.328125 6.0625 36.34375 10.765625 
Q 40.375 15.484375 40.375 25.140625 
Q 40.375 35.796875 36.265625 40.765625 
Q 32.171875 45.75 26.171875 45.75 
Q 20.3125 45.75 16.375 40.96875 
Q 12.453125 36.1875 12.453125 25.875 
z
" id="ArialMT-100"/>
      <path d="M 6.59375 -19.875 
L 6.59375 51.859375 
L 14.59375 51.859375 
L 14.59375 45.125 
Q 17.4375 49.078125 21 51.046875 
Q 24.5625 53.03125 29.640625 53.03125 
Q 36.28125 53.03125 41.359375 49.609375 
Q 46.4375 46.1875 49.015625 39.953125 
Q 51.609375 33.734375 51.609375 26.3125 
Q 51.609375 18.359375 48.75 11.984375 
Q 45.90625 5.609375 40.453125 2.21875 
Q 35.015625 -1.171875 29 -1.171875 
Q 24.609375 -1.171875 21.109375 0.6875 
Q 17.625 2.546875 15.375 5.375 
L 15.375 -19.875 
z
M 14.546875 25.640625 
Q 14.546875 15.625 18.59375 10.84375 
Q 22.65625 6.0625 28.421875 6.0625 
Q 34.28125 6.0625 38.453125 11.015625 
Q 42.625 15.96875 42.625 26.375 
Q 42.625 36.28125 38.546875 41.203125 
Q 34.46875 46.140625 28.8125 46.140625 
Q 23.1875 46.140625 18.859375 40.890625 
Q 14.546875 35.640625 14.546875 25.640625 
z
" id="ArialMT-112"/>
      <path d="M 4.984375 -4.296875 
L 13.53125 -5.5625 
Q 14.0625 -9.515625 16.5 -11.328125 
Q 19.78125 -13.765625 25.4375 -13.765625 
Q 31.546875 -13.765625 34.859375 -11.328125 
Q 38.1875 -8.890625 39.359375 -4.5 
Q 40.046875 -1.8125 39.984375 6.78125 
Q 34.234375 0 25.640625 0 
Q 14.9375 0 9.078125 7.71875 
Q 3.21875 15.4375 3.21875 26.21875 
Q 3.21875 33.640625 5.90625 39.90625 
Q 8.59375 46.1875 13.6875 49.609375 
Q 18.796875 53.03125 25.6875 53.03125 
Q 34.859375 53.03125 40.828125 45.609375 
L 40.828125 51.859375 
L 48.921875 51.859375 
L 48.921875 7.03125 
Q 48.921875 -5.078125 46.453125 -10.125 
Q 44 -15.1875 38.640625 -18.109375 
Q 33.296875 -21.046875 25.484375 -21.046875 
Q 16.21875 -21.046875 10.5 -16.875 
Q 4.78125 -12.703125 4.984375 -4.296875 
z
M 12.25 26.859375 
Q 12.25 16.65625 16.296875 11.96875 
Q 20.359375 7.28125 26.46875 7.28125 
Q 32.515625 7.28125 36.609375 11.9375 
Q 40.71875 16.609375 40.71875 26.5625 
Q 40.71875 36.078125 36.5 40.90625 
Q 32.28125 45.75 26.3125 45.75 
Q 20.453125 45.75 16.34375 40.984375 
Q 12.25 36.234375 12.25 26.859375 
z
" id="ArialMT-103"/>
      <path d="M 3.171875 21.484375 
L 3.171875 30.328125 
L 30.171875 30.328125 
L 30.171875 21.484375 
z
" id="ArialMT-45"/>
     </defs>
     <g style="fill:#262626;" transform="translate(83.58 21.90449)scale(0.13 -0.13)">
      <use xlink:href="#ArialMT-100"/>
      <use x="55.615234" xlink:href="#ArialMT-100"/>
      <use x="111.230469" xlink:href="#ArialMT-112"/>
      <use x="166.845703" xlink:href="#ArialMT-103"/>
      <use x="222.460938" xlink:href="#ArialMT-45"/>
      <use x="255.761719" xlink:href="#ArialMT-116"/>
      <use x="283.544922" xlink:href="#ArialMT-102"/>
      <use x="311.328125" xlink:href="#ArialMT-49"/>
     </g>
    </g>
    <g id="line2d_27">
     <path d="M 166.726719 17.35449 
L 179.726719 17.35449 
" style="fill:none;stroke:#55a868;stroke-linecap:round;stroke-width:1.75;"/>
    </g>
    <g id="line2d_28"/>
    <g id="text_16">
     <!-- ddpg-pytorch -->
     <defs>
      <path d="M 6.203125 -19.96875 
L 5.21875 -11.71875 
Q 8.109375 -12.5 10.25 -12.5 
Q 13.1875 -12.5 14.9375 -11.515625 
Q 16.703125 -10.546875 17.828125 -8.796875 
Q 18.65625 -7.46875 20.515625 -2.25 
Q 20.75 -1.515625 21.296875 -0.09375 
L 1.609375 51.859375 
L 11.078125 51.859375 
L 21.875 21.828125 
Q 23.96875 16.109375 25.640625 9.8125 
Q 27.15625 15.875 29.25 21.625 
L 40.328125 51.859375 
L 49.125 51.859375 
L 29.390625 -0.875 
Q 26.21875 -9.421875 24.46875 -12.640625 
Q 22.125 -17 19.09375 -19.015625 
Q 16.0625 -21.046875 11.859375 -21.046875 
Q 9.328125 -21.046875 6.203125 -19.96875 
z
" id="ArialMT-121"/>
      <path d="M 6.59375 0 
L 6.59375 71.578125 
L 15.375 71.578125 
L 15.375 45.90625 
Q 21.53125 53.03125 30.90625 53.03125 
Q 36.671875 53.03125 40.921875 50.75 
Q 45.171875 48.484375 47 44.484375 
Q 48.828125 40.484375 48.828125 32.859375 
L 48.828125 0 
L 40.046875 0 
L 40.046875 32.859375 
Q 40.046875 39.453125 37.1875 42.453125 
Q 34.328125 45.453125 29.109375 45.453125 
Q 25.203125 45.453125 21.75 43.421875 
Q 18.3125 41.40625 16.84375 37.9375 
Q 15.375 34.46875 15.375 28.375 
L 15.375 0 
z
" id="ArialMT-104"/>
     </defs>
     <g style="fill:#262626;" transform="translate(190.126719 21.90449)scale(0.13 -0.13)">
      <use xlink:href="#ArialMT-100"/>
      <use x="55.615234" xlink:href="#ArialMT-100"/>
      <use x="111.230469" xlink:href="#ArialMT-112"/>
      <use x="166.845703" xlink:href="#ArialMT-103"/>
      <use x="222.460938" xlink:href="#ArialMT-45"/>
      <use x="255.761719" xlink:href="#ArialMT-112"/>
      <use x="311.376953" xlink:href="#ArialMT-121"/>
      <use x="361.376953" xlink:href="#ArialMT-116"/>
      <use x="389.160156" xlink:href="#ArialMT-111"/>
      <use x="444.775391" xlink:href="#ArialMT-114"/>
      <use x="478.076172" xlink:href="#ArialMT-99"/>
      <use x="528.076172" xlink:href="#ArialMT-104"/>
     </g>
    </g>
   </g>
  </g>
 </g>
 <defs>
  <clipPath id="pc841aae5fb">
   <rect height="128.4308" width="216.22" x="54.98" y="32.4092"/>
  </clipPath>
 </defs>
</svg>
