<?xml version="1.0" encoding="utf-8" standalone="no"?>
<!DOCTYPE svg PUBLIC "-//W3C//DTD SVG 1.1//EN"
  "http://www.w3.org/Graphics/SVG/1.1/DTD/svg11.dtd">
<!-- Created with matplotlib (https://matplotlib.org/) -->
<svg height="198pt" version="1.1" viewBox="0 0 277.2 198" width="277.2pt" xmlns="http://www.w3.org/2000/svg" xmlns:xlink="http://www.w3.org/1999/xlink">
 <defs>
  <style type="text/css">
*{stroke-linecap:butt;stroke-linejoin:round;}
  </style>
 </defs>
 <g id="figure_1">
  <g id="patch_1">
   <path d="M 0 198 
L 277.2 198 
L 277.2 0 
L 0 0 
z
" style="fill:#ffffff;"/>
  </g>
  <g id="axes_1">
   <g id="patch_2">
    <path d="M 55.25 160.84 
L 271.2 160.84 
L 271.2 32.4092 
L 55.25 32.4092 
z
" style="fill:#eaeaf2;"/>
   </g>
   <g id="matplotlib.axis_1">
    <g id="xtick_1">
     <g id="line2d_1">
      <path clip-path="url(#p5a67cdfd6e)" d="M 90.639872 160.84 
L 90.639872 32.4092 
" style="fill:none;stroke:#ffffff;stroke-linecap:round;"/>
     </g>
     <g id="line2d_2"/>
     <g id="text_1">
      <!-- 0.5 -->
      <defs>
       <path d="M 4.15625 35.296875 
Q 4.15625 48 6.765625 55.734375 
Q 9.375 63.484375 14.515625 67.671875 
Q 19.671875 71.875 27.484375 71.875 
Q 33.25 71.875 37.59375 69.546875 
Q 41.9375 67.234375 44.765625 62.859375 
Q 47.609375 58.5 49.21875 52.21875 
Q 50.828125 45.953125 50.828125 35.296875 
Q 50.828125 22.703125 48.234375 14.96875 
Q 45.65625 7.234375 40.5 3 
Q 35.359375 -1.21875 27.484375 -1.21875 
Q 17.140625 -1.21875 11.234375 6.203125 
Q 4.15625 15.140625 4.15625 35.296875 
z
M 13.1875 35.296875 
Q 13.1875 17.671875 17.3125 11.828125 
Q 21.4375 6 27.484375 6 
Q 33.546875 6 37.671875 11.859375 
Q 41.796875 17.71875 41.796875 35.296875 
Q 41.796875 52.984375 37.671875 58.78125 
Q 33.546875 64.59375 27.390625 64.59375 
Q 21.34375 64.59375 17.71875 59.46875 
Q 13.1875 52.9375 13.1875 35.296875 
z
" id="ArialMT-48"/>
       <path d="M 9.078125 0 
L 9.078125 10.015625 
L 19.09375 10.015625 
L 19.09375 0 
z
" id="ArialMT-46"/>
       <path d="M 4.15625 18.75 
L 13.375 19.53125 
Q 14.40625 12.796875 18.140625 9.390625 
Q 21.875 6 27.15625 6 
Q 33.5 6 37.890625 10.78125 
Q 42.28125 15.578125 42.28125 23.484375 
Q 42.28125 31 38.0625 35.34375 
Q 33.84375 39.703125 27 39.703125 
Q 22.75 39.703125 19.328125 37.765625 
Q 15.921875 35.84375 13.96875 32.765625 
L 5.71875 33.84375 
L 12.640625 70.609375 
L 48.25 70.609375 
L 48.25 62.203125 
L 19.671875 62.203125 
L 15.828125 42.96875 
Q 22.265625 47.46875 29.34375 47.46875 
Q 38.71875 47.46875 45.15625 40.96875 
Q 51.609375 34.46875 51.609375 24.265625 
Q 51.609375 14.546875 45.953125 7.46875 
Q 39.0625 -1.21875 27.15625 -1.21875 
Q 17.390625 -1.21875 11.203125 4.25 
Q 5.03125 9.71875 4.15625 18.75 
z
" id="ArialMT-53"/>
      </defs>
      <g style="fill:#262626;" transform="translate(83.689872 174.997813)scale(0.1 -0.1)">
       <use xlink:href="#ArialMT-48"/>
       <use x="55.615234" xlink:href="#ArialMT-46"/>
       <use x="83.398438" xlink:href="#ArialMT-53"/>
      </g>
     </g>
    </g>
    <g id="xtick_2">
     <g id="line2d_3">
      <path clip-path="url(#p5a67cdfd6e)" d="M 126.751912 160.84 
L 126.751912 32.4092 
" style="fill:none;stroke:#ffffff;stroke-linecap:round;"/>
     </g>
     <g id="line2d_4"/>
     <g id="text_2">
      <!-- 1.0 -->
      <defs>
       <path d="M 37.25 0 
L 28.46875 0 
L 28.46875 56 
Q 25.296875 52.984375 20.140625 49.953125 
Q 14.984375 46.921875 10.890625 45.40625 
L 10.890625 53.90625 
Q 18.265625 57.375 23.78125 62.296875 
Q 29.296875 67.234375 31.59375 71.875 
L 37.25 71.875 
z
" id="ArialMT-49"/>
      </defs>
      <g style="fill:#262626;" transform="translate(119.801912 174.997813)scale(0.1 -0.1)">
       <use xlink:href="#ArialMT-49"/>
       <use x="55.615234" xlink:href="#ArialMT-46"/>
       <use x="83.398438" xlink:href="#ArialMT-48"/>
      </g>
     </g>
    </g>
    <g id="xtick_3">
     <g id="line2d_5">
      <path clip-path="url(#p5a67cdfd6e)" d="M 162.863952 160.84 
L 162.863952 32.4092 
" style="fill:none;stroke:#ffffff;stroke-linecap:round;"/>
     </g>
     <g id="line2d_6"/>
     <g id="text_3">
      <!-- 1.5 -->
      <g style="fill:#262626;" transform="translate(155.913952 174.997813)scale(0.1 -0.1)">
       <use xlink:href="#ArialMT-49"/>
       <use x="55.615234" xlink:href="#ArialMT-46"/>
       <use x="83.398438" xlink:href="#ArialMT-53"/>
      </g>
     </g>
    </g>
    <g id="xtick_4">
     <g id="line2d_7">
      <path clip-path="url(#p5a67cdfd6e)" d="M 198.975992 160.84 
L 198.975992 32.4092 
" style="fill:none;stroke:#ffffff;stroke-linecap:round;"/>
     </g>
     <g id="line2d_8"/>
     <g id="text_4">
      <!-- 2.0 -->
      <defs>
       <path d="M 50.34375 8.453125 
L 50.34375 0 
L 3.03125 0 
Q 2.9375 3.171875 4.046875 6.109375 
Q 5.859375 10.9375 9.828125 15.625 
Q 13.8125 20.3125 21.34375 26.46875 
Q 33.015625 36.03125 37.109375 41.625 
Q 41.21875 47.21875 41.21875 52.203125 
Q 41.21875 57.421875 37.46875 61 
Q 33.734375 64.59375 27.734375 64.59375 
Q 21.390625 64.59375 17.578125 60.78125 
Q 13.765625 56.984375 13.71875 50.25 
L 4.6875 51.171875 
Q 5.609375 61.28125 11.65625 66.578125 
Q 17.71875 71.875 27.9375 71.875 
Q 38.234375 71.875 44.234375 66.15625 
Q 50.25 60.453125 50.25 52 
Q 50.25 47.703125 48.484375 43.546875 
Q 46.734375 39.40625 42.65625 34.8125 
Q 38.578125 30.21875 29.109375 22.21875 
Q 21.1875 15.578125 18.9375 13.203125 
Q 16.703125 10.84375 15.234375 8.453125 
z
" id="ArialMT-50"/>
      </defs>
      <g style="fill:#262626;" transform="translate(192.025992 174.997813)scale(0.1 -0.1)">
       <use xlink:href="#ArialMT-50"/>
       <use x="55.615234" xlink:href="#ArialMT-46"/>
       <use x="83.398438" xlink:href="#ArialMT-48"/>
      </g>
     </g>
    </g>
    <g id="xtick_5">
     <g id="line2d_9">
      <path clip-path="url(#p5a67cdfd6e)" d="M 235.088032 160.84 
L 235.088032 32.4092 
" style="fill:none;stroke:#ffffff;stroke-linecap:round;"/>
     </g>
     <g id="line2d_10"/>
     <g id="text_5">
      <!-- 2.5 -->
      <g style="fill:#262626;" transform="translate(228.138032 174.997813)scale(0.1 -0.1)">
       <use xlink:href="#ArialMT-50"/>
       <use x="55.615234" xlink:href="#ArialMT-46"/>
       <use x="83.398438" xlink:href="#ArialMT-53"/>
      </g>
     </g>
    </g>
    <g id="text_6">
     <!-- TotalEnvInteracts -->
     <defs>
      <path d="M 25.921875 0 
L 25.921875 63.140625 
L 2.34375 63.140625 
L 2.34375 71.578125 
L 59.078125 71.578125 
L 59.078125 63.140625 
L 35.40625 63.140625 
L 35.40625 0 
z
" id="ArialMT-84"/>
      <path d="M 3.328125 25.921875 
Q 3.328125 40.328125 11.328125 47.265625 
Q 18.015625 53.03125 27.640625 53.03125 
Q 38.328125 53.03125 45.109375 46.015625 
Q 51.90625 39.015625 51.90625 26.65625 
Q 51.90625 16.65625 48.90625 10.90625 
Q 45.90625 5.171875 40.15625 2 
Q 34.421875 -1.171875 27.640625 -1.171875 
Q 16.75 -1.171875 10.03125 5.8125 
Q 3.328125 12.796875 3.328125 25.921875 
z
M 12.359375 25.921875 
Q 12.359375 15.96875 16.703125 11.015625 
Q 21.046875 6.0625 27.640625 6.0625 
Q 34.1875 6.0625 38.53125 11.03125 
Q 42.875 16.015625 42.875 26.21875 
Q 42.875 35.84375 38.5 40.796875 
Q 34.125 45.75 27.640625 45.75 
Q 21.046875 45.75 16.703125 40.8125 
Q 12.359375 35.890625 12.359375 25.921875 
z
" id="ArialMT-111"/>
      <path d="M 25.78125 7.859375 
L 27.046875 0.09375 
Q 23.34375 -0.6875 20.40625 -0.6875 
Q 15.625 -0.6875 12.984375 0.828125 
Q 10.359375 2.34375 9.28125 4.8125 
Q 8.203125 7.28125 8.203125 15.1875 
L 8.203125 45.015625 
L 1.765625 45.015625 
L 1.765625 51.859375 
L 8.203125 51.859375 
L 8.203125 64.703125 
L 16.9375 69.96875 
L 16.9375 51.859375 
L 25.78125 51.859375 
L 25.78125 45.015625 
L 16.9375 45.015625 
L 16.9375 14.703125 
Q 16.9375 10.9375 17.40625 9.859375 
Q 17.875 8.796875 18.921875 8.15625 
Q 19.96875 7.515625 21.921875 7.515625 
Q 23.390625 7.515625 25.78125 7.859375 
z
" id="ArialMT-116"/>
      <path d="M 40.4375 6.390625 
Q 35.546875 2.25 31.03125 0.53125 
Q 26.515625 -1.171875 21.34375 -1.171875 
Q 12.796875 -1.171875 8.203125 3 
Q 3.609375 7.171875 3.609375 13.671875 
Q 3.609375 17.484375 5.34375 20.625 
Q 7.078125 23.78125 9.890625 25.6875 
Q 12.703125 27.59375 16.21875 28.5625 
Q 18.796875 29.25 24.03125 29.890625 
Q 34.671875 31.15625 39.703125 32.90625 
Q 39.75 34.71875 39.75 35.203125 
Q 39.75 40.578125 37.25 42.78125 
Q 33.890625 45.75 27.25 45.75 
Q 21.046875 45.75 18.09375 43.578125 
Q 15.140625 41.40625 13.71875 35.890625 
L 5.125 37.0625 
Q 6.296875 42.578125 8.984375 45.96875 
Q 11.671875 49.359375 16.75 51.1875 
Q 21.828125 53.03125 28.515625 53.03125 
Q 35.15625 53.03125 39.296875 51.46875 
Q 43.453125 49.90625 45.40625 47.53125 
Q 47.359375 45.171875 48.140625 41.546875 
Q 48.578125 39.3125 48.578125 33.453125 
L 48.578125 21.734375 
Q 48.578125 9.46875 49.140625 6.21875 
Q 49.703125 2.984375 51.375 0 
L 42.1875 0 
Q 40.828125 2.734375 40.4375 6.390625 
z
M 39.703125 26.03125 
Q 34.90625 24.078125 25.34375 22.703125 
Q 19.921875 21.921875 17.671875 20.9375 
Q 15.4375 19.96875 14.203125 18.09375 
Q 12.984375 16.21875 12.984375 13.921875 
Q 12.984375 10.40625 15.640625 8.0625 
Q 18.3125 5.71875 23.4375 5.71875 
Q 28.515625 5.71875 32.46875 7.9375 
Q 36.421875 10.15625 38.28125 14.015625 
Q 39.703125 17 39.703125 22.796875 
z
" id="ArialMT-97"/>
      <path d="M 6.390625 0 
L 6.390625 71.578125 
L 15.1875 71.578125 
L 15.1875 0 
z
" id="ArialMT-108"/>
      <path d="M 7.90625 0 
L 7.90625 71.578125 
L 59.671875 71.578125 
L 59.671875 63.140625 
L 17.390625 63.140625 
L 17.390625 41.21875 
L 56.984375 41.21875 
L 56.984375 32.8125 
L 17.390625 32.8125 
L 17.390625 8.453125 
L 61.328125 8.453125 
L 61.328125 0 
z
" id="ArialMT-69"/>
      <path d="M 6.59375 0 
L 6.59375 51.859375 
L 14.5 51.859375 
L 14.5 44.484375 
Q 20.21875 53.03125 31 53.03125 
Q 35.6875 53.03125 39.625 51.34375 
Q 43.5625 49.65625 45.515625 46.921875 
Q 47.46875 44.1875 48.25 40.4375 
Q 48.734375 37.984375 48.734375 31.890625 
L 48.734375 0 
L 39.9375 0 
L 39.9375 31.546875 
Q 39.9375 36.921875 38.90625 39.578125 
Q 37.890625 42.234375 35.28125 43.8125 
Q 32.671875 45.40625 29.15625 45.40625 
Q 23.53125 45.40625 19.453125 41.84375 
Q 15.375 38.28125 15.375 28.328125 
L 15.375 0 
z
" id="ArialMT-110"/>
      <path d="M 21 0 
L 1.265625 51.859375 
L 10.546875 51.859375 
L 21.6875 20.796875 
Q 23.484375 15.765625 25 10.359375 
Q 26.171875 14.453125 28.265625 20.21875 
L 39.796875 51.859375 
L 48.828125 51.859375 
L 29.203125 0 
z
" id="ArialMT-118"/>
      <path d="M 9.328125 0 
L 9.328125 71.578125 
L 18.796875 71.578125 
L 18.796875 0 
z
" id="ArialMT-73"/>
      <path d="M 42.09375 16.703125 
L 51.171875 15.578125 
Q 49.03125 7.625 43.21875 3.21875 
Q 37.40625 -1.171875 28.375 -1.171875 
Q 17 -1.171875 10.328125 5.828125 
Q 3.65625 12.84375 3.65625 25.484375 
Q 3.65625 38.578125 10.390625 45.796875 
Q 17.140625 53.03125 27.875 53.03125 
Q 38.28125 53.03125 44.875 45.953125 
Q 51.46875 38.875 51.46875 26.03125 
Q 51.46875 25.25 51.421875 23.6875 
L 12.75 23.6875 
Q 13.234375 15.140625 17.578125 10.59375 
Q 21.921875 6.0625 28.421875 6.0625 
Q 33.25 6.0625 36.671875 8.59375 
Q 40.09375 11.140625 42.09375 16.703125 
z
M 13.234375 30.90625 
L 42.1875 30.90625 
Q 41.609375 37.453125 38.875 40.71875 
Q 34.671875 45.796875 27.984375 45.796875 
Q 21.921875 45.796875 17.796875 41.75 
Q 13.671875 37.703125 13.234375 30.90625 
z
" id="ArialMT-101"/>
      <path d="M 6.5 0 
L 6.5 51.859375 
L 14.40625 51.859375 
L 14.40625 44 
Q 17.4375 49.515625 20 51.265625 
Q 22.5625 53.03125 25.640625 53.03125 
Q 30.078125 53.03125 34.671875 50.203125 
L 31.640625 42.046875 
Q 28.421875 43.953125 25.203125 43.953125 
Q 22.3125 43.953125 20.015625 42.21875 
Q 17.71875 40.484375 16.75 37.40625 
Q 15.28125 32.71875 15.28125 27.15625 
L 15.28125 0 
z
" id="ArialMT-114"/>
      <path d="M 40.4375 19 
L 49.078125 17.875 
Q 47.65625 8.9375 41.8125 3.875 
Q 35.984375 -1.171875 27.484375 -1.171875 
Q 16.84375 -1.171875 10.375 5.78125 
Q 3.90625 12.75 3.90625 25.734375 
Q 3.90625 34.125 6.6875 40.421875 
Q 9.46875 46.734375 15.15625 49.875 
Q 20.84375 53.03125 27.546875 53.03125 
Q 35.984375 53.03125 41.359375 48.75 
Q 46.734375 44.484375 48.25 36.625 
L 39.703125 35.296875 
Q 38.484375 40.53125 35.375 43.15625 
Q 32.28125 45.796875 27.875 45.796875 
Q 21.234375 45.796875 17.078125 41.03125 
Q 12.9375 36.28125 12.9375 25.984375 
Q 12.9375 15.53125 16.9375 10.796875 
Q 20.953125 6.0625 27.390625 6.0625 
Q 32.5625 6.0625 36.03125 9.234375 
Q 39.5 12.40625 40.4375 19 
z
" id="ArialMT-99"/>
      <path d="M 3.078125 15.484375 
L 11.765625 16.84375 
Q 12.5 11.625 15.84375 8.84375 
Q 19.1875 6.0625 25.203125 6.0625 
Q 31.25 6.0625 34.171875 8.515625 
Q 37.109375 10.984375 37.109375 14.3125 
Q 37.109375 17.28125 34.515625 19 
Q 32.71875 20.171875 25.53125 21.96875 
Q 15.875 24.421875 12.140625 26.203125 
Q 8.40625 27.984375 6.46875 31.125 
Q 4.546875 34.28125 4.546875 38.09375 
Q 4.546875 41.546875 6.125 44.5 
Q 7.71875 47.46875 10.453125 49.421875 
Q 12.5 50.921875 16.03125 51.96875 
Q 19.578125 53.03125 23.640625 53.03125 
Q 29.734375 53.03125 34.34375 51.265625 
Q 38.96875 49.515625 41.15625 46.5 
Q 43.359375 43.5 44.1875 38.484375 
L 35.59375 37.3125 
Q 35.015625 41.3125 32.203125 43.546875 
Q 29.390625 45.796875 24.265625 45.796875 
Q 18.21875 45.796875 15.625 43.796875 
Q 13.03125 41.796875 13.03125 39.109375 
Q 13.03125 37.40625 14.109375 36.03125 
Q 15.1875 34.625 17.484375 33.6875 
Q 18.796875 33.203125 25.25 31.453125 
Q 34.578125 28.953125 38.25 27.359375 
Q 41.9375 25.78125 44.03125 22.75 
Q 46.140625 19.734375 46.140625 15.234375 
Q 46.140625 10.84375 43.578125 6.953125 
Q 41.015625 3.078125 36.171875 0.953125 
Q 31.34375 -1.171875 25.25 -1.171875 
Q 15.140625 -1.171875 9.84375 3.03125 
Q 4.546875 7.234375 3.078125 15.484375 
z
" id="ArialMT-115"/>
     </defs>
     <g style="fill:#262626;" transform="translate(120.440156 188.858906)scale(0.11 -0.11)">
      <use xlink:href="#ArialMT-84"/>
      <use x="60.912109" xlink:href="#ArialMT-111"/>
      <use x="116.527344" xlink:href="#ArialMT-116"/>
      <use x="144.310547" xlink:href="#ArialMT-97"/>
      <use x="199.925781" xlink:href="#ArialMT-108"/>
      <use x="222.142578" xlink:href="#ArialMT-69"/>
      <use x="288.841797" xlink:href="#ArialMT-110"/>
      <use x="344.457031" xlink:href="#ArialMT-118"/>
      <use x="394.457031" xlink:href="#ArialMT-73"/>
      <use x="422.240234" xlink:href="#ArialMT-110"/>
      <use x="477.855469" xlink:href="#ArialMT-116"/>
      <use x="505.638672" xlink:href="#ArialMT-101"/>
      <use x="561.253906" xlink:href="#ArialMT-114"/>
      <use x="594.554688" xlink:href="#ArialMT-97"/>
      <use x="650.169922" xlink:href="#ArialMT-99"/>
      <use x="700.169922" xlink:href="#ArialMT-116"/>
      <use x="727.953125" xlink:href="#ArialMT-115"/>
     </g>
    </g>
    <g id="text_7">
     <!-- 1e6 -->
     <defs>
      <path d="M 49.75 54.046875 
L 41.015625 53.375 
Q 39.84375 58.546875 37.703125 60.890625 
Q 34.125 64.65625 28.90625 64.65625 
Q 24.703125 64.65625 21.53125 62.3125 
Q 17.390625 59.28125 14.984375 53.46875 
Q 12.59375 47.65625 12.5 36.921875 
Q 15.671875 41.75 20.265625 44.09375 
Q 24.859375 46.4375 29.890625 46.4375 
Q 38.671875 46.4375 44.84375 39.96875 
Q 51.03125 33.5 51.03125 23.25 
Q 51.03125 16.5 48.125 10.71875 
Q 45.21875 4.9375 40.140625 1.859375 
Q 35.0625 -1.21875 28.609375 -1.21875 
Q 17.625 -1.21875 10.6875 6.859375 
Q 3.765625 14.9375 3.765625 33.5 
Q 3.765625 54.25 11.421875 63.671875 
Q 18.109375 71.875 29.4375 71.875 
Q 37.890625 71.875 43.28125 67.140625 
Q 48.6875 62.40625 49.75 54.046875 
z
M 13.875 23.1875 
Q 13.875 18.65625 15.796875 14.5 
Q 17.71875 10.359375 21.1875 8.171875 
Q 24.65625 6 28.46875 6 
Q 34.03125 6 38.03125 10.484375 
Q 42.046875 14.984375 42.046875 22.703125 
Q 42.046875 30.125 38.078125 34.390625 
Q 34.125 38.671875 28.125 38.671875 
Q 22.171875 38.671875 18.015625 34.390625 
Q 13.875 30.125 13.875 23.1875 
z
" id="ArialMT-54"/>
     </defs>
     <g style="fill:#262626;" transform="translate(254.517187 187.143125)scale(0.1 -0.1)">
      <use xlink:href="#ArialMT-49"/>
      <use x="55.615234" xlink:href="#ArialMT-101"/>
      <use x="111.230469" xlink:href="#ArialMT-54"/>
     </g>
    </g>
   </g>
   <g id="matplotlib.axis_2">
    <g id="ytick_1">
     <g id="line2d_11">
      <path clip-path="url(#p5a67cdfd6e)" d="M 55.25 146.051979 
L 271.2 146.051979 
" style="fill:none;stroke:#ffffff;stroke-linecap:round;"/>
     </g>
     <g id="line2d_12"/>
     <g id="text_8">
      <!-- −1000 -->
      <defs>
       <path d="M 52.828125 31.203125 
L 5.5625 31.203125 
L 5.5625 39.40625 
L 52.828125 39.40625 
z
" id="ArialMT-8722"/>
      </defs>
      <g style="fill:#262626;" transform="translate(20.165625 149.630885)scale(0.1 -0.1)">
       <use xlink:href="#ArialMT-8722"/>
       <use x="58.398438" xlink:href="#ArialMT-49"/>
       <use x="114.013672" xlink:href="#ArialMT-48"/>
       <use x="169.628906" xlink:href="#ArialMT-48"/>
       <use x="225.244141" xlink:href="#ArialMT-48"/>
      </g>
     </g>
    </g>
    <g id="ytick_2">
     <g id="line2d_13">
      <path clip-path="url(#p5a67cdfd6e)" d="M 55.25 106.269508 
L 271.2 106.269508 
" style="fill:none;stroke:#ffffff;stroke-linecap:round;"/>
     </g>
     <g id="line2d_14"/>
     <g id="text_9">
      <!-- 0 -->
      <g style="fill:#262626;" transform="translate(42.689062 109.848415)scale(0.1 -0.1)">
       <use xlink:href="#ArialMT-48"/>
      </g>
     </g>
    </g>
    <g id="ytick_3">
     <g id="line2d_15">
      <path clip-path="url(#p5a67cdfd6e)" d="M 55.25 66.487038 
L 271.2 66.487038 
" style="fill:none;stroke:#ffffff;stroke-linecap:round;"/>
     </g>
     <g id="line2d_16"/>
     <g id="text_10">
      <!-- 1000 -->
      <g style="fill:#262626;" transform="translate(26.00625 70.065944)scale(0.1 -0.1)">
       <use xlink:href="#ArialMT-49"/>
       <use x="55.615234" xlink:href="#ArialMT-48"/>
       <use x="111.230469" xlink:href="#ArialMT-48"/>
       <use x="166.845703" xlink:href="#ArialMT-48"/>
      </g>
     </g>
    </g>
    <g id="text_11">
     <!-- Performance -->
     <defs>
      <path d="M 7.71875 0 
L 7.71875 71.578125 
L 34.71875 71.578125 
Q 41.84375 71.578125 45.609375 70.90625 
Q 50.875 70.015625 54.4375 67.546875 
Q 58.015625 65.09375 60.1875 60.640625 
Q 62.359375 56.203125 62.359375 50.875 
Q 62.359375 41.75 56.546875 35.421875 
Q 50.734375 29.109375 35.546875 29.109375 
L 17.1875 29.109375 
L 17.1875 0 
z
M 17.1875 37.546875 
L 35.6875 37.546875 
Q 44.875 37.546875 48.734375 40.96875 
Q 52.59375 44.390625 52.59375 50.59375 
Q 52.59375 55.078125 50.3125 58.265625 
Q 48.046875 61.46875 44.34375 62.5 
Q 41.9375 63.140625 35.5 63.140625 
L 17.1875 63.140625 
z
" id="ArialMT-80"/>
      <path d="M 8.6875 0 
L 8.6875 45.015625 
L 0.921875 45.015625 
L 0.921875 51.859375 
L 8.6875 51.859375 
L 8.6875 57.375 
Q 8.6875 62.59375 9.625 65.140625 
Q 10.890625 68.5625 14.078125 70.671875 
Q 17.28125 72.796875 23.046875 72.796875 
Q 26.765625 72.796875 31.25 71.921875 
L 29.9375 64.265625 
Q 27.203125 64.75 24.75 64.75 
Q 20.75 64.75 19.09375 63.03125 
Q 17.4375 61.328125 17.4375 56.640625 
L 17.4375 51.859375 
L 27.546875 51.859375 
L 27.546875 45.015625 
L 17.4375 45.015625 
L 17.4375 0 
z
" id="ArialMT-102"/>
      <path d="M 6.59375 0 
L 6.59375 51.859375 
L 14.453125 51.859375 
L 14.453125 44.578125 
Q 16.890625 48.390625 20.9375 50.703125 
Q 25 53.03125 30.171875 53.03125 
Q 35.9375 53.03125 39.625 50.640625 
Q 43.3125 48.25 44.828125 43.953125 
Q 50.984375 53.03125 60.84375 53.03125 
Q 68.5625 53.03125 72.703125 48.75 
Q 76.859375 44.484375 76.859375 35.59375 
L 76.859375 0 
L 68.109375 0 
L 68.109375 32.671875 
Q 68.109375 37.9375 67.25 40.25 
Q 66.40625 42.578125 64.15625 43.984375 
Q 61.921875 45.40625 58.890625 45.40625 
Q 53.421875 45.40625 49.796875 41.765625 
Q 46.1875 38.140625 46.1875 30.125 
L 46.1875 0 
L 37.40625 0 
L 37.40625 33.6875 
Q 37.40625 39.546875 35.25 42.46875 
Q 33.109375 45.40625 28.21875 45.40625 
Q 24.515625 45.40625 21.359375 43.453125 
Q 18.21875 41.5 16.796875 37.734375 
Q 15.375 33.984375 15.375 26.90625 
L 15.375 0 
z
" id="ArialMT-109"/>
     </defs>
     <g style="fill:#262626;" transform="translate(13.979375 128.107803)rotate(-90)scale(0.11 -0.11)">
      <use xlink:href="#ArialMT-80"/>
      <use x="66.699219" xlink:href="#ArialMT-101"/>
      <use x="122.314453" xlink:href="#ArialMT-114"/>
      <use x="155.615234" xlink:href="#ArialMT-102"/>
      <use x="183.398438" xlink:href="#ArialMT-111"/>
      <use x="239.013672" xlink:href="#ArialMT-114"/>
      <use x="272.314453" xlink:href="#ArialMT-109"/>
      <use x="355.615234" xlink:href="#ArialMT-97"/>
      <use x="411.230469" xlink:href="#ArialMT-110"/>
      <use x="466.845703" xlink:href="#ArialMT-99"/>
      <use x="516.845703" xlink:href="#ArialMT-101"/>
     </g>
    </g>
   </g>
   <g id="PolyCollection_1">
    <path clip-path="url(#p5a67cdfd6e)" d="M 55.25 117.263878 
L 55.25 128.892103 
L 55.972241 128.020885 
L 56.694482 127.86457 
L 57.416722 128.266124 
L 58.138963 128.089949 
L 58.861204 128.00172 
L 59.583445 127.392536 
L 60.305686 127.543208 
L 61.027926 129.391496 
L 61.750167 130.254511 
L 62.472408 130.710049 
L 63.194649 130.570272 
L 63.91689 130.654884 
L 64.63913 130.074018 
L 65.361371 129.274781 
L 66.083612 128.32929 
L 66.805853 127.953501 
L 67.528094 127.273412 
L 68.250334 126.179384 
L 68.972575 124.792662 
L 69.694816 123.211874 
L 70.417057 122.966654 
L 71.139298 122.752135 
L 71.861538 121.760409 
L 72.583779 121.761479 
L 73.30602 121.578022 
L 74.028261 121.262049 
L 74.750502 119.765182 
L 75.472742 117.334884 
L 76.194983 115.313303 
L 76.917224 112.377968 
L 77.639465 109.812329 
L 78.361706 106.663003 
L 79.083946 104.5615 
L 79.806187 102.489672 
L 80.528428 100.340084 
L 81.250669 98.33578 
L 81.97291 96.569788 
L 82.695151 95.656715 
L 83.417391 94.858289 
L 84.139632 94.958188 
L 84.861873 94.20917 
L 85.584114 94.013052 
L 86.306355 94.440252 
L 87.028595 94.805414 
L 87.750836 93.992418 
L 88.473077 93.69176 
L 89.195318 93.015892 
L 89.917559 92.784108 
L 90.639799 93.063566 
L 91.36204 94.01692 
L 92.084281 94.481696 
L 92.806522 95.825964 
L 93.528763 96.317324 
L 94.251003 96.667967 
L 94.973244 96.550518 
L 95.695485 96.482151 
L 96.417726 96.108165 
L 97.139967 95.03818 
L 97.862207 94.632267 
L 98.584448 94.717234 
L 99.306689 93.209198 
L 100.02893 91.593098 
L 100.751171 90.50942 
L 101.473411 88.883486 
L 102.195652 87.958481 
L 102.917893 87.142296 
L 103.640134 87.065472 
L 104.362375 86.64073 
L 105.084615 85.628598 
L 105.806856 84.814723 
L 106.529097 83.49457 
L 107.251338 82.999548 
L 107.973579 82.95057 
L 108.695819 84.547197 
L 109.41806 84.383056 
L 110.140301 85.194652 
L 110.862542 85.795532 
L 111.584783 85.069181 
L 112.307023 84.289656 
L 113.029264 84.904266 
L 113.751505 83.678134 
L 114.473746 84.077379 
L 115.195987 83.592025 
L 115.918227 83.547759 
L 116.640468 81.799307 
L 117.362709 80.849718 
L 118.08495 80.22465 
L 118.807191 78.833598 
L 119.529431 79.742983 
L 120.251672 80.639733 
L 120.973913 79.995929 
L 121.696154 80.592566 
L 122.418395 79.348653 
L 123.140635 80.266188 
L 123.862876 80.412288 
L 124.585117 80.037017 
L 125.307358 80.543679 
L 126.029599 80.361715 
L 126.751839 81.670339 
L 127.47408 82.748557 
L 128.196321 84.3015 
L 128.918562 85.916022 
L 129.640803 86.689039 
L 130.363043 91.574519 
L 131.085284 95.263789 
L 131.807525 99.033999 
L 132.529766 101.0067 
L 133.252007 104.148094 
L 133.974247 106.38397 
L 134.696488 107.904854 
L 135.418729 108.827593 
L 136.14097 107.782063 
L 136.863211 109.379866 
L 137.585452 110.07541 
L 138.307692 111.030175 
L 139.029933 111.035938 
L 139.752174 112.718743 
L 140.474415 112.159022 
L 141.196656 110.240268 
L 141.918896 109.269657 
L 142.641137 107.314717 
L 143.363378 108.639343 
L 144.085619 112.335514 
L 144.80786 114.835094 
L 145.5301 115.255894 
L 146.252341 116.922114 
L 146.974582 117.641991 
L 147.696823 118.591726 
L 148.419064 118.721798 
L 149.141304 120.052777 
L 149.863545 121.260296 
L 150.585786 120.286536 
L 151.308027 119.000388 
L 152.030268 117.148453 
L 152.752508 116.747354 
L 153.474749 113.781695 
L 154.19699 111.501792 
L 154.919231 110.799254 
L 155.641472 110.624295 
L 156.363712 111.152563 
L 157.085953 110.338403 
L 157.808194 109.58662 
L 158.530435 109.383731 
L 159.252676 109.78927 
L 159.974916 109.831467 
L 160.697157 109.432351 
L 161.419398 110.448302 
L 162.141639 111.796871 
L 162.86388 112.611557 
L 163.58612 112.230633 
L 164.308361 109.569944 
L 165.030602 107.477938 
L 165.752843 105.732596 
L 166.475084 104.272628 
L 167.197324 103.310556 
L 167.919565 101.737095 
L 168.641806 100.156875 
L 169.364047 97.883779 
L 170.086288 94.761259 
L 170.808528 91.314351 
L 171.530769 90.328904 
L 172.25301 90.321964 
L 172.975251 88.600636 
L 173.697492 87.008633 
L 174.419732 85.430199 
L 175.141973 84.926379 
L 175.864214 82.933123 
L 176.586455 82.676062 
L 177.308696 82.884216 
L 178.030936 84.886769 
L 178.753177 86.01151 
L 179.475418 87.269746 
L 180.197659 88.507079 
L 180.9199 90.836272 
L 181.64214 90.784051 
L 182.364381 92.233237 
L 183.086622 91.916674 
L 183.808863 92.760453 
L 184.531104 91.948 
L 185.253344 90.766614 
L 185.975585 89.062479 
L 186.697826 87.691117 
L 187.420067 86.691692 
L 188.142308 86.172091 
L 188.864548 85.04181 
L 189.586789 85.673959 
L 190.30903 85.671219 
L 191.031271 86.202029 
L 191.753512 86.929532 
L 192.475753 86.311781 
L 193.197993 86.755707 
L 193.920234 87.119225 
L 194.642475 87.563204 
L 195.364716 86.215169 
L 196.086957 87.503794 
L 196.809197 86.747784 
L 197.531438 87.163798 
L 198.253679 86.713143 
L 198.97592 88.713909 
L 199.698161 91.151966 
L 200.420401 91.641254 
L 201.142642 92.916766 
L 201.864883 93.067175 
L 202.587124 95.223702 
L 203.309365 97.404118 
L 204.031605 98.360294 
L 204.753846 100.310156 
L 205.476087 99.722364 
L 206.198328 101.133491 
L 206.920569 100.26275 
L 207.642809 98.762381 
L 208.36505 96 
L 209.087291 95.791646 
L 209.809532 91.049433 
L 210.531773 88.82667 
L 211.254013 88.499123 
L 211.976254 88.008564 
L 212.698495 87.058324 
L 213.420736 87.354891 
L 214.142977 86.950454 
L 214.865217 86.777617 
L 215.587458 88.392511 
L 216.309699 89.86359 
L 217.03194 89.182618 
L 217.754181 85.999659 
L 218.476421 85.213246 
L 219.198662 85.99188 
L 219.920903 86.071105 
L 220.643144 88.800085 
L 221.365385 91.654105 
L 222.087625 93.856468 
L 222.809866 96.71488 
L 223.532107 98.773781 
L 224.254348 103.148386 
L 224.976589 105.813548 
L 225.698829 107.655846 
L 226.42107 109.745385 
L 227.143311 111.558506 
L 227.865552 111.599029 
L 228.587793 113.134483 
L 229.310033 116.173471 
L 230.032274 117.945253 
L 230.754515 120.397288 
L 231.476756 122.796905 
L 232.198997 123.017623 
L 232.921237 125.717302 
L 233.643478 128.740757 
L 234.365719 129.693778 
L 235.08796 130.41962 
L 235.810201 133.00345 
L 236.532441 135.321668 
L 237.254682 135.745236 
L 237.976923 137.450752 
L 238.699164 139.403487 
L 239.421405 139.722836 
L 240.143645 140.249977 
L 240.865886 138.762001 
L 241.588127 137.448567 
L 242.310368 135.575436 
L 243.032609 133.230822 
L 243.754849 131.198961 
L 244.47709 127.085735 
L 245.199331 122.53513 
L 245.921572 121.713968 
L 246.643813 120.055368 
L 247.366054 119.697797 
L 248.088294 119.62267 
L 248.810535 118.918111 
L 249.532776 117.322396 
L 250.255017 117.292083 
L 250.977258 117.617572 
L 251.699498 115.871023 
L 252.421739 114.12079 
L 253.14398 113.759981 
L 253.866221 110.567984 
L 254.588462 109.448529 
L 255.310702 106.834145 
L 256.032943 105.434742 
L 256.755184 104.726645 
L 257.477425 102.830013 
L 258.199666 100.80698 
L 258.921906 100.057298 
L 259.644147 100.198413 
L 260.366388 101.824124 
L 261.088629 102.01142 
L 261.81087 101.803667 
L 262.53311 99.404859 
L 263.255351 99.511906 
L 263.977592 99.052628 
L 264.699833 97.254294 
L 265.422074 96.613926 
L 266.144314 96.949802 
L 266.866555 97.334438 
L 267.588796 96.003059 
L 268.311037 95.250356 
L 269.033278 94.825973 
L 269.755518 94.349003 
L 270.477759 96.568142 
L 271.2 96.726308 
L 271.2 47.639582 
L 271.2 47.639582 
L 270.477759 46.623562 
L 269.755518 51.438221 
L 269.033278 50.32141 
L 268.311037 49.729662 
L 267.588796 48.460404 
L 266.866555 52.575547 
L 266.144314 51.09823 
L 265.422074 52.296074 
L 264.699833 49.690924 
L 263.977592 46.356122 
L 263.255351 46.263393 
L 262.53311 46.5588 
L 261.81087 43.690093 
L 261.088629 43.140399 
L 260.366388 43.779259 
L 259.644147 44.877871 
L 258.921906 41.038898 
L 258.199666 40.97791 
L 257.477425 38.299129 
L 256.755184 38.246964 
L 256.032943 40.484808 
L 255.310702 42.793759 
L 254.588462 43.320503 
L 253.866221 44.077985 
L 253.14398 43.996429 
L 252.421739 44.422017 
L 251.699498 44.21241 
L 250.977258 42.914419 
L 250.255017 44.771745 
L 249.532776 47.384181 
L 248.810535 47.984418 
L 248.088294 46.504096 
L 247.366054 44.930055 
L 246.643813 45.066289 
L 245.921572 45.89647 
L 245.199331 49.116363 
L 244.47709 48.97004 
L 243.754849 50.197439 
L 243.032609 50.361083 
L 242.310368 49.152041 
L 241.588127 47.674855 
L 240.865886 47.732268 
L 240.143645 50.169669 
L 239.421405 52.486896 
L 238.699164 54.045663 
L 237.976923 51.829265 
L 237.254682 50.123599 
L 236.532441 48.018734 
L 235.810201 47.415644 
L 235.08796 48.032558 
L 234.365719 47.894065 
L 233.643478 46.490901 
L 232.921237 47.218635 
L 232.198997 47.058941 
L 231.476756 45.752122 
L 230.754515 43.615673 
L 230.032274 44.293458 
L 229.310033 44.002479 
L 228.587793 44.959035 
L 227.865552 43.326143 
L 227.143311 42.635126 
L 226.42107 43.166974 
L 225.698829 43.100249 
L 224.976589 42.70528 
L 224.254348 43.039171 
L 223.532107 45.884909 
L 222.809866 49.833165 
L 222.087625 52.067737 
L 221.365385 52.481722 
L 220.643144 54.219687 
L 219.920903 54.581318 
L 219.198662 55.36278 
L 218.476421 56.316557 
L 217.754181 57.204695 
L 217.03194 57.240511 
L 216.309699 58.026128 
L 215.587458 58.735617 
L 214.865217 59.339343 
L 214.142977 60.219074 
L 213.420736 60.743906 
L 212.698495 60.192118 
L 211.976254 62.266455 
L 211.254013 60.671415 
L 210.531773 61.141277 
L 209.809532 60.127715 
L 209.087291 52.941959 
L 208.36505 53.023406 
L 207.642809 53.763329 
L 206.920569 54.35377 
L 206.198328 58.063438 
L 205.476087 60.790301 
L 204.753846 61.103533 
L 204.031605 63.30202 
L 203.309365 66.248817 
L 202.587124 65.365154 
L 201.864883 65.379443 
L 201.142642 66.977526 
L 200.420401 66.340748 
L 199.698161 65.475539 
L 198.97592 65.87643 
L 198.253679 63.509369 
L 197.531438 60.915177 
L 196.809197 61.67042 
L 196.086957 58.385277 
L 195.364716 57.165984 
L 194.642475 57.060769 
L 193.920234 57.091133 
L 193.197993 56.113029 
L 192.475753 55.218377 
L 191.753512 51.863118 
L 191.031271 52.701178 
L 190.30903 53.008463 
L 189.586789 55.612031 
L 188.864548 54.391192 
L 188.142308 56.22064 
L 187.420067 55.654 
L 186.697826 54.651525 
L 185.975585 53.190709 
L 185.253344 52.643645 
L 184.531104 53.537597 
L 183.808863 54.351524 
L 183.086622 55.756097 
L 182.364381 55.012156 
L 181.64214 52.563267 
L 180.9199 52.214585 
L 180.197659 50.914542 
L 179.475418 52.426245 
L 178.753177 55.554176 
L 178.030936 58.716507 
L 177.308696 59.27989 
L 176.586455 60.146153 
L 175.864214 58.045338 
L 175.141973 54.296545 
L 174.419732 52.566696 
L 173.697492 51.975098 
L 172.975251 50.639567 
L 172.25301 54.220822 
L 171.530769 54.58226 
L 170.808528 54.49088 
L 170.086288 51.104532 
L 169.364047 48.838404 
L 168.641806 47.675204 
L 167.919565 47.890345 
L 167.197324 48.409453 
L 166.475084 49.732862 
L 165.752843 51.293291 
L 165.030602 54.452703 
L 164.308361 52.35154 
L 163.58612 55.728359 
L 162.86388 54.629125 
L 162.141639 54.704044 
L 161.419398 55.287245 
L 160.697157 55.127172 
L 159.974916 56.401874 
L 159.252676 58.168504 
L 158.530435 59.941544 
L 157.808194 61.742736 
L 157.085953 61.948368 
L 156.363712 62.761005 
L 155.641472 59.596881 
L 154.919231 59.941395 
L 154.19699 62.304887 
L 153.474749 63.328799 
L 152.752508 61.439348 
L 152.030268 61.250289 
L 151.308027 60.911838 
L 150.585786 60.762461 
L 149.863545 59.151885 
L 149.141304 57.339088 
L 148.419064 56.259763 
L 147.696823 58.256809 
L 146.974582 58.970281 
L 146.252341 58.694107 
L 145.5301 60.776461 
L 144.80786 62.177188 
L 144.085619 64.21972 
L 143.363378 64.805985 
L 142.641137 65.973789 
L 141.918896 64.459189 
L 141.196656 65.45563 
L 140.474415 65.291097 
L 139.752174 64.456597 
L 139.029933 64.751478 
L 138.307692 65.594318 
L 137.585452 64.590111 
L 136.863211 62.217722 
L 136.14097 61.238961 
L 135.418729 59.796894 
L 134.696488 57.567848 
L 133.974247 55.968806 
L 133.252007 53.143003 
L 132.529766 50.850512 
L 131.807525 48.520463 
L 131.085284 50.825695 
L 130.363043 50.944224 
L 129.640803 52.149728 
L 128.918562 52.704601 
L 128.196321 53.371109 
L 127.47408 53.858196 
L 126.751839 55.101722 
L 126.029599 54.946336 
L 125.307358 56.655307 
L 124.585117 58.425175 
L 123.862876 58.235663 
L 123.140635 59.320316 
L 122.418395 59.439906 
L 121.696154 60.374288 
L 120.973913 60.961438 
L 120.251672 61.793893 
L 119.529431 62.717192 
L 118.807191 64.714843 
L 118.08495 65.22157 
L 117.362709 65.084794 
L 116.640468 65.090741 
L 115.918227 65.253696 
L 115.195987 64.876762 
L 114.473746 65.459591 
L 113.751505 65.866327 
L 113.029264 65.704826 
L 112.307023 66.7078 
L 111.584783 66.813219 
L 110.862542 65.3141 
L 110.140301 66.416321 
L 109.41806 67.050138 
L 108.695819 66.74663 
L 107.973579 68.686995 
L 107.251338 68.688066 
L 106.529097 69.372739 
L 105.806856 71.037937 
L 105.084615 72.515632 
L 104.362375 73.90419 
L 103.640134 74.308897 
L 102.917893 74.342012 
L 102.195652 74.582004 
L 101.473411 75.494217 
L 100.751171 76.535401 
L 100.02893 76.894291 
L 99.306689 77.43563 
L 98.584448 77.055805 
L 97.862207 76.983313 
L 97.139967 76.744131 
L 96.417726 75.933508 
L 95.695485 76.296483 
L 94.973244 77.294954 
L 94.251003 77.597303 
L 93.528763 78.862272 
L 92.806522 78.657681 
L 92.084281 78.782964 
L 91.36204 79.41481 
L 90.639799 79.611462 
L 89.917559 78.581218 
L 89.195318 77.413179 
L 88.473077 76.95066 
L 87.750836 77.377862 
L 87.028595 78.407882 
L 86.306355 79.38149 
L 85.584114 80.205495 
L 84.861873 81.664545 
L 84.139632 83.211478 
L 83.417391 84.670046 
L 82.695151 86.209172 
L 81.97291 87.845795 
L 81.250669 88.957125 
L 80.528428 89.440407 
L 79.806187 89.358551 
L 79.083946 89.509546 
L 78.361706 90.104455 
L 77.639465 90.522353 
L 76.917224 90.066154 
L 76.194983 90.046026 
L 75.472742 90.610285 
L 74.750502 90.879202 
L 74.028261 92.422074 
L 73.30602 93.989411 
L 72.583779 96.030253 
L 71.861538 98.200233 
L 71.139298 99.840099 
L 70.417057 100.486848 
L 69.694816 101.509416 
L 68.972575 102.69618 
L 68.250334 103.481096 
L 67.528094 103.658357 
L 66.805853 105.073162 
L 66.083612 105.489542 
L 65.361371 106.118264 
L 64.63913 105.845503 
L 63.91689 106.460807 
L 63.194649 106.85556 
L 62.472408 108.575989 
L 61.750167 109.572219 
L 61.027926 110.333053 
L 60.305686 112.240149 
L 59.583445 113.02735 
L 58.861204 114.745736 
L 58.138963 115.456293 
L 57.416722 115.939899 
L 56.694482 117.137207 
L 55.972241 117.177121 
L 55.25 117.263878 
z
" style="fill:#4c72b0;fill-opacity:0.2;"/>
   </g>
   <g id="PolyCollection_2">
    <path clip-path="url(#p5a67cdfd6e)" d="M 55.25 114.719942 
L 55.25 128.363688 
L 55.972241 126.349128 
L 56.694482 124.795026 
L 57.416722 124.186174 
L 58.138963 122.781779 
L 58.861204 121.722447 
L 59.583445 117.495519 
L 60.305686 117.739733 
L 61.027926 118.155956 
L 61.750167 118.94312 
L 62.472408 119.671795 
L 63.194649 119.649131 
L 63.91689 120.191092 
L 64.63913 121.423282 
L 65.361371 121.658991 
L 66.083612 122.651216 
L 66.805853 123.364882 
L 67.528094 124.693224 
L 68.250334 125.507256 
L 68.972575 126.097011 
L 69.694816 126.357575 
L 70.417057 126.523901 
L 71.139298 128.070086 
L 71.861538 127.550005 
L 72.583779 126.1238 
L 73.30602 123.715515 
L 74.028261 121.453929 
L 74.750502 119.17568 
L 75.472742 117.579029 
L 76.194983 114.267827 
L 76.917224 111.967621 
L 77.639465 108.707166 
L 78.361706 106.206683 
L 79.083946 102.457137 
L 79.806187 99.485668 
L 80.528428 97.927335 
L 81.250669 96.979302 
L 81.97291 95.888779 
L 82.695151 95.310267 
L 83.417391 93.12896 
L 84.139632 92.765046 
L 84.861873 91.01257 
L 85.584114 90.198858 
L 86.306355 89.25147 
L 87.028595 88.252784 
L 87.750836 88.043477 
L 88.473077 87.631715 
L 89.195318 87.940898 
L 89.917559 89.356012 
L 90.639799 89.05582 
L 91.36204 88.875379 
L 92.084281 88.169235 
L 92.806522 88.276398 
L 93.528763 88.605766 
L 94.251003 88.318505 
L 94.973244 87.90811 
L 95.695485 87.167384 
L 96.417726 86.804215 
L 97.139967 86.325353 
L 97.862207 84.186149 
L 98.584448 83.777127 
L 99.306689 84.140706 
L 100.02893 84.143081 
L 100.751171 83.875358 
L 101.473411 83.200764 
L 102.195652 82.606909 
L 102.917893 82.854401 
L 103.640134 82.746619 
L 104.362375 83.340163 
L 105.084615 83.339164 
L 105.806856 83.570361 
L 106.529097 83.063447 
L 107.251338 82.723268 
L 107.973579 83.011207 
L 108.695819 82.771598 
L 109.41806 81.84501 
L 110.140301 82.755579 
L 110.862542 83.167856 
L 111.584783 83.605679 
L 112.307023 83.692117 
L 113.029264 84.199079 
L 113.751505 84.085807 
L 114.473746 84.666822 
L 115.195987 84.03176 
L 115.918227 83.624013 
L 116.640468 82.053569 
L 117.362709 81.913491 
L 118.08495 80.023198 
L 118.807191 79.068812 
L 119.529431 78.931185 
L 120.251672 80.31625 
L 120.973913 82.121369 
L 121.696154 83.220842 
L 122.418395 83.817071 
L 123.140635 85.332136 
L 123.862876 86.135965 
L 124.585117 87.515106 
L 125.307358 86.846409 
L 126.029599 87.770871 
L 126.751839 86.953224 
L 127.47408 86.208091 
L 128.196321 86.309106 
L 128.918562 84.458374 
L 129.640803 84.431031 
L 130.363043 85.308491 
L 131.085284 86.236403 
L 131.807525 88.204757 
L 132.529766 91.908122 
L 133.252007 95.680825 
L 133.974247 98.840321 
L 134.696488 102.544742 
L 135.418729 109.528487 
L 136.14097 114.376065 
L 136.863211 119.45318 
L 137.585452 121.949051 
L 138.307692 124.889055 
L 139.029933 127.87437 
L 139.752174 131.7857 
L 140.474415 134.101275 
L 141.196656 137.646604 
L 141.918896 140.815029 
L 142.641137 143.452313 
L 143.363378 144.360222 
L 144.085619 146.567641 
L 144.80786 145.89617 
L 145.5301 145.369881 
L 146.252341 146.274467 
L 146.974582 146.43041 
L 147.696823 146.722001 
L 148.419064 147.558055 
L 149.141304 149.035021 
L 149.863545 148.363419 
L 150.585786 148.452889 
L 151.308027 145.960776 
L 152.030268 146.339003 
L 152.752508 148.963093 
L 153.474749 151.39864 
L 154.19699 151.88476 
L 154.919231 153.487381 
L 155.641472 155.002236 
L 156.363712 154.414362 
L 157.085953 153.697691 
L 157.808194 150.953985 
L 158.530435 146.179738 
L 159.252676 142.387236 
L 159.974916 138.578373 
L 160.697157 134.766505 
L 161.419398 129.088678 
L 162.141639 125.881932 
L 162.86388 122.980681 
L 163.58612 119.712567 
L 164.308361 116.502502 
L 165.030602 115.023972 
L 165.752843 114.07959 
L 166.475084 114.246005 
L 167.197324 113.655642 
L 167.919565 112.477138 
L 168.641806 112.971984 
L 169.364047 113.134165 
L 170.086288 111.565673 
L 170.808528 109.371127 
L 171.530769 105.625339 
L 172.25301 101.642917 
L 172.975251 98.552368 
L 173.697492 95.616868 
L 174.419732 93.628616 
L 175.141973 90.306756 
L 175.864214 88.62283 
L 176.586455 88.792213 
L 177.308696 88.807121 
L 178.030936 88.717803 
L 178.753177 90.021846 
L 179.475418 92.374915 
L 180.197659 94.21375 
L 180.9199 94.719137 
L 181.64214 94.487773 
L 182.364381 92.971908 
L 183.086622 93.46746 
L 183.808863 91.754237 
L 184.531104 90.995745 
L 185.253344 91.285334 
L 185.975585 90.657262 
L 186.697826 90.956927 
L 187.420067 89.703521 
L 188.142308 89.728494 
L 188.864548 89.006848 
L 189.586789 89.94411 
L 190.30903 91.460581 
L 191.031271 93.299427 
L 191.753512 94.413264 
L 192.475753 94.308691 
L 193.197993 95.939802 
L 193.920234 97.892672 
L 194.642475 99.192661 
L 195.364716 101.589338 
L 196.086957 102.271558 
L 196.809197 102.759277 
L 197.531438 102.495795 
L 198.253679 101.279081 
L 198.97592 100.891708 
L 199.698161 101.851767 
L 200.420401 102.522351 
L 201.142642 101.787702 
L 201.864883 101.065104 
L 202.587124 102.910704 
L 203.309365 105.612743 
L 204.031605 106.410717 
L 204.753846 106.931744 
L 205.476087 107.463068 
L 206.198328 107.188879 
L 206.920569 102.747619 
L 207.642809 101.875799 
L 208.36505 100.366762 
L 209.087291 99.993414 
L 209.809532 102.239405 
L 210.531773 101.675842 
L 211.254013 100.981542 
L 211.976254 102.267995 
L 212.698495 106.337991 
L 213.420736 107.831449 
L 214.142977 109.227342 
L 214.865217 110.671524 
L 215.587458 114.05205 
L 216.309699 115.261846 
L 217.03194 116.334474 
L 217.754181 117.524468 
L 218.476421 115.872436 
L 219.198662 115.66117 
L 219.920903 114.900187 
L 220.643144 116.061413 
L 221.365385 117.33818 
L 222.087625 118.530278 
L 222.809866 121.217675 
L 223.532107 123.486132 
L 224.254348 121.678695 
L 224.976589 122.480809 
L 225.698829 122.899037 
L 226.42107 122.130332 
L 227.143311 120.968311 
L 227.865552 120.085474 
L 228.587793 116.978952 
L 229.310033 113.940279 
L 230.032274 111.788377 
L 230.754515 109.835293 
L 231.476756 108.118251 
L 232.198997 108.350901 
L 232.921237 108.749662 
L 233.643478 109.19455 
L 234.365719 108.290917 
L 235.08796 107.983086 
L 235.810201 109.114952 
L 236.532441 108.033551 
L 237.254682 107.780737 
L 237.976923 107.749022 
L 238.699164 107.522079 
L 239.421405 107.869773 
L 240.143645 107.800687 
L 240.865886 108.225249 
L 241.588127 108.61347 
L 242.310368 110.755225 
L 243.032609 112.189502 
L 243.754849 113.403634 
L 244.47709 113.925359 
L 245.199331 113.464499 
L 245.921572 112.826212 
L 246.643813 112.511114 
L 247.366054 110.88995 
L 248.088294 110.322595 
L 248.810535 108.61147 
L 249.532776 106.962642 
L 250.255017 105.349394 
L 250.977258 104.37362 
L 251.699498 102.639774 
L 252.421739 101.271014 
L 253.14398 100.03969 
L 253.866221 101.193729 
L 254.588462 105.149337 
L 255.310702 109.861389 
L 256.032943 112.309443 
L 256.755184 115.055959 
L 257.477425 115.143333 
L 258.199666 115.285975 
L 258.921906 114.302654 
L 259.644147 114.088303 
L 260.366388 114.955352 
L 261.088629 116.128486 
L 261.81087 113.452499 
L 262.53311 109.867954 
L 263.255351 107.205885 
L 263.977592 105.718457 
L 264.699833 103.714981 
L 265.422074 103.452355 
L 266.144314 102.087702 
L 266.866555 100.62376 
L 267.588796 100.263391 
L 268.311037 96.707355 
L 269.033278 93.303189 
L 269.755518 93.462268 
L 270.477759 92.98391 
L 271.2 92.023223 
L 271.2 65.282691 
L 271.2 65.282691 
L 270.477759 65.296027 
L 269.755518 65.358861 
L 269.033278 66.871283 
L 268.311037 66.958758 
L 267.588796 66.946993 
L 266.866555 66.263231 
L 266.144314 67.892305 
L 265.422074 69.836257 
L 264.699833 68.339945 
L 263.977592 70.031402 
L 263.255351 69.804596 
L 262.53311 69.81559 
L 261.81087 70.737555 
L 261.088629 69.959679 
L 260.366388 69.199 
L 259.644147 67.514702 
L 258.921906 66.661261 
L 258.199666 65.996988 
L 257.477425 64.167941 
L 256.755184 64.556272 
L 256.032943 64.948237 
L 255.310702 68.884051 
L 254.588462 73.584588 
L 253.866221 74.791534 
L 253.14398 74.793065 
L 252.421739 73.254372 
L 251.699498 71.107416 
L 250.977258 70.989985 
L 250.255017 68.474685 
L 249.532776 67.507129 
L 248.810535 67.997547 
L 248.088294 68.646265 
L 247.366054 66.260535 
L 246.643813 63.434068 
L 245.921572 62.064081 
L 245.199331 60.258473 
L 244.47709 60.613674 
L 243.754849 61.04904 
L 243.032609 61.760112 
L 242.310368 61.67487 
L 241.588127 62.54489 
L 240.865886 62.867593 
L 240.143645 62.514557 
L 239.421405 63.32525 
L 238.699164 62.612271 
L 237.976923 62.193206 
L 237.254682 63.840404 
L 236.532441 64.181376 
L 235.810201 63.78453 
L 235.08796 64.311775 
L 234.365719 63.881504 
L 233.643478 64.258251 
L 232.921237 63.727766 
L 232.198997 63.663168 
L 231.476756 62.121735 
L 230.754515 63.185712 
L 230.032274 61.960175 
L 229.310033 58.893973 
L 228.587793 55.633089 
L 227.865552 54.115836 
L 227.143311 54.434224 
L 226.42107 55.400376 
L 225.698829 54.375031 
L 224.976589 57.465001 
L 224.254348 59.807508 
L 223.532107 62.060813 
L 222.809866 63.075179 
L 222.087625 66.924002 
L 221.365385 71.275448 
L 220.643144 75.052688 
L 219.920903 76.219762 
L 219.198662 76.523627 
L 218.476421 76.5766 
L 217.754181 77.060726 
L 217.03194 77.569624 
L 216.309699 78.030159 
L 215.587458 76.070118 
L 214.865217 76.276268 
L 214.142977 75.359595 
L 213.420736 73.093526 
L 212.698495 72.706982 
L 211.976254 74.172846 
L 211.254013 74.329484 
L 210.531773 73.307801 
L 209.809532 71.654985 
L 209.087291 71.385451 
L 208.36505 69.941545 
L 207.642809 68.078636 
L 206.920569 69.165856 
L 206.198328 68.132243 
L 205.476087 68.135838 
L 204.753846 67.51427 
L 204.031605 68.744934 
L 203.309365 72.062407 
L 202.587124 74.832976 
L 201.864883 76.804224 
L 201.142642 78.840949 
L 200.420401 78.812527 
L 199.698161 79.872947 
L 198.97592 80.211711 
L 198.253679 77.406918 
L 197.531438 75.760845 
L 196.809197 74.546617 
L 196.086957 73.499355 
L 195.364716 70.620714 
L 194.642475 71.462108 
L 193.920234 70.620179 
L 193.197993 68.803122 
L 192.475753 68.154429 
L 191.753512 67.355478 
L 191.031271 65.719389 
L 190.30903 65.556751 
L 189.586789 66.209999 
L 188.864548 66.897084 
L 188.142308 68.671134 
L 187.420067 69.376512 
L 186.697826 68.839532 
L 185.975585 69.315933 
L 185.253344 70.366763 
L 184.531104 72.902073 
L 183.808863 72.96194 
L 183.086622 74.586894 
L 182.364381 76.264471 
L 181.64214 76.785475 
L 180.9199 76.902745 
L 180.197659 76.406988 
L 179.475418 75.928036 
L 178.753177 76.046579 
L 178.030936 76.980287 
L 177.308696 76.621893 
L 176.586455 77.498671 
L 175.864214 77.752647 
L 175.141973 77.304439 
L 174.419732 77.294461 
L 173.697492 76.300563 
L 172.975251 75.596775 
L 172.25301 75.134253 
L 171.530769 74.65986 
L 170.808528 75.809516 
L 170.086288 76.450716 
L 169.364047 76.69197 
L 168.641806 75.257915 
L 167.919565 76.71514 
L 167.197324 75.59409 
L 166.475084 75.1127 
L 165.752843 74.03991 
L 165.030602 72.868059 
L 164.308361 71.792235 
L 163.58612 71.536543 
L 162.86388 70.266482 
L 162.141639 71.306844 
L 161.419398 72.078863 
L 160.697157 72.967827 
L 159.974916 74.88145 
L 159.252676 77.043048 
L 158.530435 76.545511 
L 157.808194 79.585604 
L 157.085953 82.662587 
L 156.363712 86.143631 
L 155.641472 88.171009 
L 154.919231 91.251192 
L 154.19699 94.764079 
L 153.474749 99.250472 
L 152.752508 101.346674 
L 152.030268 103.885428 
L 151.308027 104.749126 
L 150.585786 104.250565 
L 149.863545 102.877543 
L 149.141304 100.975302 
L 148.419064 101.249902 
L 147.696823 99.195244 
L 146.974582 98.828401 
L 146.252341 96.290692 
L 145.5301 91.536708 
L 144.80786 88.815283 
L 144.085619 86.290898 
L 143.363378 83.550584 
L 142.641137 80.373561 
L 141.918896 75.982858 
L 141.196656 73.864334 
L 140.474415 72.27491 
L 139.752174 72.810262 
L 139.029933 72.850911 
L 138.307692 72.049175 
L 137.585452 72.054886 
L 136.863211 69.74184 
L 136.14097 68.869894 
L 135.418729 70.097016 
L 134.696488 69.345815 
L 133.974247 70.586161 
L 133.252007 71.774002 
L 132.529766 72.617643 
L 131.807525 73.137484 
L 131.085284 72.980783 
L 130.363043 72.04595 
L 129.640803 70.091914 
L 128.918562 69.077231 
L 128.196321 68.545755 
L 127.47408 67.928896 
L 126.751839 69.921683 
L 126.029599 69.169917 
L 125.307358 68.715828 
L 124.585117 69.149849 
L 123.862876 67.278828 
L 123.140635 65.842843 
L 122.418395 66.19317 
L 121.696154 67.198211 
L 120.973913 67.890122 
L 120.251672 68.524481 
L 119.529431 68.255935 
L 118.807191 68.467446 
L 118.08495 68.519156 
L 117.362709 67.40225 
L 116.640468 67.055343 
L 115.918227 68.465919 
L 115.195987 69.402047 
L 114.473746 70.076001 
L 113.751505 70.646803 
L 113.029264 71.576129 
L 112.307023 71.18395 
L 111.584783 73.870107 
L 110.862542 73.873024 
L 110.140301 74.031902 
L 109.41806 75.001837 
L 108.695819 74.207066 
L 107.973579 73.962161 
L 107.251338 74.505702 
L 106.529097 73.419144 
L 105.806856 73.068387 
L 105.084615 72.099746 
L 104.362375 72.571629 
L 103.640134 72.619367 
L 102.917893 72.440378 
L 102.195652 73.661138 
L 101.473411 73.659267 
L 100.751171 73.802728 
L 100.02893 74.782406 
L 99.306689 75.043878 
L 98.584448 76.292387 
L 97.862207 76.551265 
L 97.139967 76.911011 
L 96.417726 77.336167 
L 95.695485 76.762126 
L 94.973244 76.564801 
L 94.251003 76.408604 
L 93.528763 76.125101 
L 92.806522 76.173975 
L 92.084281 76.134119 
L 91.36204 75.958157 
L 90.639799 76.159175 
L 89.917559 77.013591 
L 89.195318 77.629806 
L 88.473077 78.926195 
L 87.750836 79.849548 
L 87.028595 80.388373 
L 86.306355 80.534397 
L 85.584114 81.597839 
L 84.861873 81.765904 
L 84.139632 81.787557 
L 83.417391 82.725241 
L 82.695151 83.457679 
L 81.97291 83.548447 
L 81.250669 84.063996 
L 80.528428 84.445024 
L 79.806187 85.608739 
L 79.083946 85.89245 
L 78.361706 87.420503 
L 77.639465 88.545369 
L 76.917224 89.977685 
L 76.194983 91.234008 
L 75.472742 92.656841 
L 74.750502 93.951114 
L 74.028261 95.604696 
L 73.30602 96.886257 
L 72.583779 98.940584 
L 71.861538 100.773855 
L 71.139298 102.519774 
L 70.417057 103.500854 
L 69.694816 104.513596 
L 68.972575 105.079886 
L 68.250334 105.278184 
L 67.528094 105.501944 
L 66.805853 105.466738 
L 66.083612 105.180327 
L 65.361371 105.518687 
L 64.63913 104.946175 
L 63.91689 105.034003 
L 63.194649 105.48471 
L 62.472408 107.153954 
L 61.750167 108.381453 
L 61.027926 109.500531 
L 60.305686 111.169783 
L 59.583445 112.647251 
L 58.861204 112.808846 
L 58.138963 113.801472 
L 57.416722 114.410833 
L 56.694482 114.722557 
L 55.972241 115.297889 
L 55.25 114.719942 
z
" style="fill:#55a868;fill-opacity:0.2;"/>
   </g>
   <g id="line2d_17">
    <path clip-path="url(#p5a67cdfd6e)" d="M 55.25 123.077991 
L 55.972241 122.599003 
L 56.694482 122.500888 
L 58.861204 121.373728 
L 59.583445 120.209943 
L 60.305686 119.891678 
L 61.750167 119.913365 
L 62.472408 119.643019 
L 63.194649 118.712916 
L 63.91689 118.557845 
L 64.63913 117.95976 
L 65.361371 117.696522 
L 66.083612 116.909416 
L 66.805853 116.513332 
L 67.528094 115.465885 
L 68.250334 114.83024 
L 68.972575 113.744421 
L 69.694816 112.360645 
L 70.417057 111.726751 
L 71.139298 111.296117 
L 71.861538 109.980321 
L 74.028261 106.842061 
L 75.472742 103.972584 
L 77.639465 100.167341 
L 78.361706 98.383729 
L 79.083946 97.035523 
L 81.250669 93.646452 
L 82.695151 90.932943 
L 83.417391 89.764168 
L 84.139632 89.084833 
L 84.861873 87.936858 
L 85.584114 87.109273 
L 87.028595 86.606648 
L 87.750836 85.68514 
L 88.473077 85.32121 
L 89.195318 85.214536 
L 89.917559 85.682663 
L 90.639799 86.337514 
L 91.36204 86.715865 
L 92.084281 86.63233 
L 92.806522 87.241822 
L 93.528763 87.589798 
L 94.251003 87.132635 
L 94.973244 86.922736 
L 95.695485 86.389317 
L 96.417726 86.020837 
L 97.862207 85.80779 
L 98.584448 85.886519 
L 99.306689 85.322414 
L 100.02893 84.243695 
L 100.751171 83.522411 
L 101.473411 82.188851 
L 102.195652 81.270243 
L 102.917893 80.742154 
L 103.640134 80.687185 
L 104.362375 80.27246 
L 105.806856 77.92633 
L 106.529097 76.433654 
L 107.251338 75.843807 
L 107.973579 75.818783 
L 108.695819 75.646914 
L 110.140301 75.805487 
L 110.862542 75.554816 
L 111.584783 75.9412 
L 112.307023 75.498728 
L 113.029264 75.304546 
L 113.751505 74.77223 
L 114.473746 74.768485 
L 115.195987 74.234393 
L 115.918227 74.400728 
L 116.640468 73.445024 
L 117.362709 72.967256 
L 118.08495 72.72311 
L 118.807191 71.774221 
L 119.529431 71.230088 
L 120.251672 71.216813 
L 120.973913 70.478683 
L 121.696154 70.483427 
L 122.418395 69.394279 
L 123.140635 69.793252 
L 123.862876 69.323975 
L 124.585117 69.231096 
L 125.307358 68.599493 
L 126.029599 67.654025 
L 126.751839 68.386031 
L 127.47408 68.303376 
L 128.918562 69.310312 
L 129.640803 69.419384 
L 131.085284 73.044742 
L 131.807525 73.777231 
L 132.529766 75.928606 
L 133.974247 81.176388 
L 135.418729 84.312243 
L 136.14097 84.510512 
L 136.863211 85.798794 
L 137.585452 87.33276 
L 138.307692 88.312247 
L 139.029933 87.893708 
L 139.752174 88.58767 
L 140.474415 88.725059 
L 141.918896 86.864423 
L 142.641137 86.644253 
L 143.363378 86.722664 
L 144.085619 88.277617 
L 144.80786 88.506141 
L 145.5301 88.016177 
L 146.252341 87.808111 
L 146.974582 88.306136 
L 147.696823 88.424268 
L 148.419064 87.49078 
L 149.141304 88.695933 
L 149.863545 90.20609 
L 150.585786 90.524499 
L 151.308027 89.956113 
L 152.030268 89.199371 
L 152.752508 89.093351 
L 153.474749 88.555247 
L 154.919231 85.370325 
L 155.641472 85.110588 
L 156.363712 86.956784 
L 157.085953 86.143385 
L 157.808194 85.664678 
L 158.530435 84.662637 
L 159.252676 83.978887 
L 160.697157 82.279762 
L 161.419398 82.867773 
L 163.58612 83.979496 
L 164.308361 80.960742 
L 165.030602 80.96532 
L 165.752843 78.512944 
L 166.475084 77.002745 
L 167.919565 74.81372 
L 168.641806 73.91604 
L 170.086288 72.932896 
L 170.808528 72.902615 
L 171.530769 72.455582 
L 172.25301 72.271393 
L 172.975251 69.620101 
L 173.697492 69.491866 
L 174.419732 68.998448 
L 175.141973 69.611462 
L 176.586455 71.411107 
L 177.308696 71.082053 
L 178.030936 71.801638 
L 179.475418 69.847995 
L 180.197659 69.710811 
L 180.9199 71.525428 
L 181.64214 71.673659 
L 182.364381 73.622697 
L 183.086622 73.836386 
L 183.808863 73.555988 
L 184.531104 72.742799 
L 185.253344 71.705129 
L 185.975585 71.126594 
L 188.142308 71.196366 
L 188.864548 69.716501 
L 189.586789 70.642995 
L 190.30903 69.339841 
L 191.031271 69.451603 
L 191.753512 69.396325 
L 192.475753 70.765079 
L 193.920234 72.105179 
L 194.642475 72.311987 
L 195.364716 71.690576 
L 196.809197 74.209102 
L 197.531438 74.039488 
L 198.253679 75.111256 
L 198.97592 77.295169 
L 199.698161 78.313752 
L 200.420401 78.991001 
L 201.142642 79.947146 
L 201.864883 79.223309 
L 202.587124 80.294428 
L 203.309365 81.826468 
L 204.031605 80.831157 
L 204.753846 80.706844 
L 205.476087 80.256333 
L 206.198328 79.598464 
L 206.920569 77.30826 
L 207.642809 76.262855 
L 208.36505 74.511703 
L 209.087291 74.366802 
L 209.809532 75.588574 
L 210.531773 74.983973 
L 211.254013 74.585269 
L 211.976254 75.137509 
L 212.698495 73.625221 
L 213.420736 74.049399 
L 214.865217 73.05848 
L 216.309699 73.944859 
L 217.03194 73.211564 
L 217.754181 71.602177 
L 218.476421 70.764901 
L 219.198662 70.67733 
L 219.920903 70.326212 
L 220.643144 71.509886 
L 221.365385 72.067914 
L 222.087625 72.962102 
L 222.809866 73.274023 
L 223.532107 72.329345 
L 224.254348 73.093779 
L 226.42107 76.45618 
L 227.143311 77.096816 
L 227.865552 77.462586 
L 228.587793 79.046759 
L 230.754515 82.00648 
L 231.476756 84.274513 
L 232.198997 85.038282 
L 232.921237 86.467968 
L 234.365719 88.793921 
L 235.08796 89.226089 
L 235.810201 90.209547 
L 237.976923 94.640009 
L 238.699164 96.724575 
L 239.421405 96.104866 
L 240.143645 95.209823 
L 240.865886 93.247134 
L 241.588127 92.561711 
L 242.310368 92.363739 
L 243.032609 91.795952 
L 243.754849 90.6982 
L 244.47709 88.027888 
L 245.921572 83.805219 
L 246.643813 82.560829 
L 247.366054 82.313926 
L 248.088294 83.063383 
L 248.810535 83.451264 
L 249.532776 82.353288 
L 250.255017 81.031914 
L 250.977258 80.265996 
L 251.699498 80.041716 
L 252.421739 79.271403 
L 253.14398 78.878205 
L 253.866221 77.322985 
L 254.588462 76.384516 
L 255.310702 74.813952 
L 256.032943 72.959775 
L 256.755184 71.486804 
L 257.477425 70.564571 
L 258.199666 70.892445 
L 258.921906 70.548098 
L 259.644147 72.538142 
L 260.366388 72.801692 
L 261.088629 72.575909 
L 262.53311 72.98183 
L 263.977592 72.704375 
L 264.699833 73.472609 
L 265.422074 74.455 
L 266.144314 74.024016 
L 266.866555 74.954993 
L 267.588796 72.231732 
L 268.311037 72.490009 
L 269.033278 72.573692 
L 269.755518 72.893612 
L 270.477759 71.595852 
L 271.2 72.182945 
L 271.2 72.182945 
" style="fill:none;stroke:#4c72b0;stroke-linecap:round;stroke-width:1.75;"/>
   </g>
   <g id="line2d_18">
    <path clip-path="url(#p5a67cdfd6e)" d="M 55.25 121.541815 
L 55.972241 120.823509 
L 56.694482 119.758792 
L 57.416722 119.298504 
L 58.861204 117.265646 
L 59.583445 115.071385 
L 61.027926 113.828243 
L 62.472408 113.412874 
L 63.194649 112.56692 
L 63.91689 112.612548 
L 64.63913 113.184728 
L 66.805853 114.41581 
L 67.528094 115.097584 
L 68.972575 115.588449 
L 69.694816 115.435586 
L 70.417057 115.012378 
L 71.139298 115.29493 
L 71.861538 114.16193 
L 72.583779 112.532192 
L 73.30602 110.300886 
L 75.472742 105.117935 
L 76.194983 102.750918 
L 76.917224 100.972653 
L 77.639465 98.626267 
L 78.361706 96.813593 
L 79.083946 94.174793 
L 80.528428 91.18618 
L 81.97291 89.718613 
L 82.695151 89.383973 
L 83.417391 87.927101 
L 84.139632 87.276301 
L 84.861873 86.389237 
L 85.584114 85.898348 
L 86.306355 84.892933 
L 87.028595 84.320578 
L 87.750836 83.946513 
L 88.473077 83.278955 
L 89.195318 82.785352 
L 89.917559 83.184801 
L 90.639799 82.607498 
L 92.084281 82.151677 
L 94.251003 82.363554 
L 94.973244 82.236455 
L 95.695485 81.964755 
L 96.417726 82.070191 
L 97.139967 81.618182 
L 97.862207 80.368707 
L 100.02893 79.462743 
L 100.751171 78.839043 
L 102.917893 77.647389 
L 103.640134 77.682993 
L 104.362375 77.955896 
L 105.084615 77.719455 
L 105.806856 78.319374 
L 106.529097 78.241296 
L 107.251338 78.614485 
L 107.973579 78.486684 
L 110.862542 78.52044 
L 111.584783 78.737893 
L 112.307023 77.438033 
L 113.029264 77.887604 
L 113.751505 77.366305 
L 114.473746 77.371411 
L 115.918227 76.044966 
L 116.640468 74.554456 
L 117.362709 74.657871 
L 119.529431 73.59356 
L 120.251672 74.420365 
L 120.973913 75.005746 
L 121.696154 75.209527 
L 122.418395 75.005121 
L 123.140635 75.587489 
L 123.862876 76.707397 
L 124.585117 78.332478 
L 125.307358 77.781118 
L 126.029599 78.470394 
L 126.751839 78.437453 
L 127.47408 77.068494 
L 128.196321 77.427431 
L 128.918562 76.767802 
L 129.640803 77.261472 
L 130.363043 78.67722 
L 131.807525 80.671121 
L 133.252007 83.727413 
L 133.974247 84.713241 
L 134.696488 85.945278 
L 135.418729 89.812751 
L 136.14097 91.62298 
L 136.863211 94.59751 
L 137.585452 97.001968 
L 138.307692 98.469115 
L 139.752174 102.297981 
L 140.474415 103.188093 
L 141.918896 108.398944 
L 142.641137 111.912937 
L 143.363378 113.955403 
L 144.085619 116.42927 
L 145.5301 118.453294 
L 146.252341 121.282579 
L 146.974582 122.629405 
L 147.696823 122.958622 
L 148.419064 124.403979 
L 150.585786 126.351727 
L 151.308027 125.354951 
L 152.030268 125.112216 
L 152.752508 125.154883 
L 153.474749 125.324556 
L 154.19699 123.324419 
L 156.363712 120.278996 
L 157.085953 118.180139 
L 157.808194 115.269794 
L 158.530435 111.362624 
L 159.252676 109.715142 
L 161.419398 100.58377 
L 162.86388 96.623581 
L 163.58612 95.624555 
L 164.308361 94.147368 
L 165.030602 93.946015 
L 165.752843 94.05975 
L 166.475084 94.679353 
L 167.919565 94.596139 
L 168.641806 94.11495 
L 169.364047 94.913067 
L 170.086288 94.008195 
L 170.808528 92.590322 
L 171.530769 90.142599 
L 172.25301 88.388585 
L 173.697492 85.958715 
L 174.419732 85.461539 
L 175.141973 83.805598 
L 175.864214 83.187738 
L 176.586455 83.145442 
L 177.308696 82.714507 
L 178.753177 83.034213 
L 180.197659 85.310369 
L 180.9199 85.810941 
L 181.64214 85.636624 
L 182.364381 84.618189 
L 183.086622 84.027177 
L 183.808863 82.358088 
L 184.531104 81.948909 
L 185.253344 80.826048 
L 185.975585 79.986598 
L 186.697826 79.898229 
L 188.142308 79.199814 
L 188.864548 77.951966 
L 189.586789 78.077054 
L 190.30903 78.508666 
L 191.031271 79.509408 
L 191.753512 80.884371 
L 192.475753 81.23156 
L 193.197993 82.371462 
L 193.920234 84.256425 
L 194.642475 85.327384 
L 195.364716 86.105026 
L 196.086957 87.885457 
L 196.809197 88.652947 
L 197.531438 89.12832 
L 198.253679 89.342999 
L 198.97592 90.55171 
L 199.698161 90.862357 
L 200.420401 90.667439 
L 201.142642 90.314326 
L 201.864883 88.934664 
L 203.309365 88.837575 
L 204.031605 87.577825 
L 204.753846 87.223007 
L 205.476087 87.799453 
L 206.198328 87.660561 
L 206.920569 85.956737 
L 207.642809 84.977218 
L 208.36505 85.154154 
L 209.087291 85.689432 
L 209.809532 86.947195 
L 210.531773 87.491821 
L 211.254013 87.655513 
L 211.976254 88.22042 
L 212.698495 89.522487 
L 213.420736 90.462488 
L 214.142977 92.293468 
L 214.865217 93.473896 
L 216.309699 96.646002 
L 217.754181 97.292597 
L 218.476421 96.224518 
L 219.198662 96.092398 
L 219.920903 95.559974 
L 220.643144 95.55705 
L 221.365385 94.306814 
L 222.087625 92.72714 
L 222.809866 92.146427 
L 223.532107 92.773473 
L 224.254348 90.743101 
L 224.976589 89.972905 
L 225.698829 88.637034 
L 226.42107 88.765354 
L 227.143311 87.701267 
L 227.865552 87.100655 
L 228.587793 86.30602 
L 229.310033 86.417126 
L 230.032274 86.874276 
L 230.754515 86.510502 
L 231.476756 85.119993 
L 232.198997 86.007035 
L 232.921237 86.238714 
L 233.643478 86.7264 
L 234.365719 86.08621 
L 235.08796 86.147431 
L 235.810201 86.449741 
L 237.254682 85.810571 
L 237.976923 84.971114 
L 238.699164 85.067175 
L 239.421405 85.597512 
L 240.143645 85.157622 
L 240.865886 85.546421 
L 241.588127 85.57918 
L 243.032609 86.974807 
L 243.754849 87.226337 
L 244.47709 87.269516 
L 245.199331 86.861486 
L 247.366054 88.575243 
L 248.088294 89.48443 
L 249.532776 87.234886 
L 250.255017 86.912039 
L 250.977258 87.681802 
L 251.699498 86.873595 
L 252.421739 87.262693 
L 253.14398 87.416378 
L 253.866221 87.992632 
L 254.588462 89.366963 
L 255.310702 89.37272 
L 256.032943 88.62884 
L 256.755184 89.806116 
L 257.477425 89.655637 
L 258.199666 90.641481 
L 258.921906 90.481958 
L 259.644147 90.801503 
L 260.366388 92.077176 
L 261.088629 93.044083 
L 261.81087 92.095027 
L 262.53311 89.841772 
L 263.255351 88.505241 
L 263.977592 87.874929 
L 264.699833 86.027463 
L 265.422074 86.644306 
L 266.866555 83.443495 
L 267.588796 83.605192 
L 269.033278 80.087236 
L 269.755518 79.410565 
L 270.477759 79.139968 
L 271.2 78.652957 
L 271.2 78.652957 
" style="fill:none;stroke:#55a868;stroke-linecap:round;stroke-width:1.75;"/>
   </g>
   <g id="patch_3">
    <path d="M 55.25 160.84 
L 55.25 32.4092 
" style="fill:none;"/>
   </g>
   <g id="patch_4">
    <path d="M 271.2 160.84 
L 271.2 32.4092 
" style="fill:none;"/>
   </g>
   <g id="patch_5">
    <path d="M 55.25 160.84 
L 271.2 160.84 
" style="fill:none;"/>
   </g>
   <g id="patch_6">
    <path d="M 55.25 32.4092 
L 271.2 32.4092 
" style="fill:none;"/>
   </g>
   <g id="legend_1">
    <g id="line2d_19">
     <path d="M 60.45 17.35449 
L 73.45 17.35449 
" style="fill:none;stroke:#4c72b0;stroke-linecap:round;stroke-width:1.75;"/>
    </g>
    <g id="line2d_20"/>
    <g id="text_12">
     <!-- ddpg-tf1 -->
     <defs>
      <path d="M 40.234375 0 
L 40.234375 6.546875 
Q 35.296875 -1.171875 25.734375 -1.171875 
Q 19.53125 -1.171875 14.328125 2.25 
Q 9.125 5.671875 6.265625 11.796875 
Q 3.421875 17.921875 3.421875 25.875 
Q 3.421875 33.640625 6 39.96875 
Q 8.59375 46.296875 13.765625 49.65625 
Q 18.953125 53.03125 25.34375 53.03125 
Q 30.03125 53.03125 33.6875 51.046875 
Q 37.359375 49.078125 39.65625 45.90625 
L 39.65625 71.578125 
L 48.390625 71.578125 
L 48.390625 0 
z
M 12.453125 25.875 
Q 12.453125 15.921875 16.640625 10.984375 
Q 20.84375 6.0625 26.5625 6.0625 
Q 32.328125 6.0625 36.34375 10.765625 
Q 40.375 15.484375 40.375 25.140625 
Q 40.375 35.796875 36.265625 40.765625 
Q 32.171875 45.75 26.171875 45.75 
Q 20.3125 45.75 16.375 40.96875 
Q 12.453125 36.1875 12.453125 25.875 
z
" id="ArialMT-100"/>
      <path d="M 6.59375 -19.875 
L 6.59375 51.859375 
L 14.59375 51.859375 
L 14.59375 45.125 
Q 17.4375 49.078125 21 51.046875 
Q 24.5625 53.03125 29.640625 53.03125 
Q 36.28125 53.03125 41.359375 49.609375 
Q 46.4375 46.1875 49.015625 39.953125 
Q 51.609375 33.734375 51.609375 26.3125 
Q 51.609375 18.359375 48.75 11.984375 
Q 45.90625 5.609375 40.453125 2.21875 
Q 35.015625 -1.171875 29 -1.171875 
Q 24.609375 -1.171875 21.109375 0.6875 
Q 17.625 2.546875 15.375 5.375 
L 15.375 -19.875 
z
M 14.546875 25.640625 
Q 14.546875 15.625 18.59375 10.84375 
Q 22.65625 6.0625 28.421875 6.0625 
Q 34.28125 6.0625 38.453125 11.015625 
Q 42.625 15.96875 42.625 26.375 
Q 42.625 36.28125 38.546875 41.203125 
Q 34.46875 46.140625 28.8125 46.140625 
Q 23.1875 46.140625 18.859375 40.890625 
Q 14.546875 35.640625 14.546875 25.640625 
z
" id="ArialMT-112"/>
      <path d="M 4.984375 -4.296875 
L 13.53125 -5.5625 
Q 14.0625 -9.515625 16.5 -11.328125 
Q 19.78125 -13.765625 25.4375 -13.765625 
Q 31.546875 -13.765625 34.859375 -11.328125 
Q 38.1875 -8.890625 39.359375 -4.5 
Q 40.046875 -1.8125 39.984375 6.78125 
Q 34.234375 0 25.640625 0 
Q 14.9375 0 9.078125 7.71875 
Q 3.21875 15.4375 3.21875 26.21875 
Q 3.21875 33.640625 5.90625 39.90625 
Q 8.59375 46.1875 13.6875 49.609375 
Q 18.796875 53.03125 25.6875 53.03125 
Q 34.859375 53.03125 40.828125 45.609375 
L 40.828125 51.859375 
L 48.921875 51.859375 
L 48.921875 7.03125 
Q 48.921875 -5.078125 46.453125 -10.125 
Q 44 -15.1875 38.640625 -18.109375 
Q 33.296875 -21.046875 25.484375 -21.046875 
Q 16.21875 -21.046875 10.5 -16.875 
Q 4.78125 -12.703125 4.984375 -4.296875 
z
M 12.25 26.859375 
Q 12.25 16.65625 16.296875 11.96875 
Q 20.359375 7.28125 26.46875 7.28125 
Q 32.515625 7.28125 36.609375 11.9375 
Q 40.71875 16.609375 40.71875 26.5625 
Q 40.71875 36.078125 36.5 40.90625 
Q 32.28125 45.75 26.3125 45.75 
Q 20.453125 45.75 16.34375 40.984375 
Q 12.25 36.234375 12.25 26.859375 
z
" id="ArialMT-103"/>
      <path d="M 3.171875 21.484375 
L 3.171875 30.328125 
L 30.171875 30.328125 
L 30.171875 21.484375 
z
" id="ArialMT-45"/>
     </defs>
     <g style="fill:#262626;" transform="translate(83.85 21.90449)scale(0.13 -0.13)">
      <use xlink:href="#ArialMT-100"/>
      <use x="55.615234" xlink:href="#ArialMT-100"/>
      <use x="111.230469" xlink:href="#ArialMT-112"/>
      <use x="166.845703" xlink:href="#ArialMT-103"/>
      <use x="222.460938" xlink:href="#ArialMT-45"/>
      <use x="255.761719" xlink:href="#ArialMT-116"/>
      <use x="283.544922" xlink:href="#ArialMT-102"/>
      <use x="311.328125" xlink:href="#ArialMT-49"/>
     </g>
    </g>
    <g id="line2d_21">
     <path d="M 166.726719 17.35449 
L 179.726719 17.35449 
" style="fill:none;stroke:#55a868;stroke-linecap:round;stroke-width:1.75;"/>
    </g>
    <g id="line2d_22"/>
    <g id="text_13">
     <!-- ddpg-pytorch -->
     <defs>
      <path d="M 6.203125 -19.96875 
L 5.21875 -11.71875 
Q 8.109375 -12.5 10.25 -12.5 
Q 13.1875 -12.5 14.9375 -11.515625 
Q 16.703125 -10.546875 17.828125 -8.796875 
Q 18.65625 -7.46875 20.515625 -2.25 
Q 20.75 -1.515625 21.296875 -0.09375 
L 1.609375 51.859375 
L 11.078125 51.859375 
L 21.875 21.828125 
Q 23.96875 16.109375 25.640625 9.8125 
Q 27.15625 15.875 29.25 21.625 
L 40.328125 51.859375 
L 49.125 51.859375 
L 29.390625 -0.875 
Q 26.21875 -9.421875 24.46875 -12.640625 
Q 22.125 -17 19.09375 -19.015625 
Q 16.0625 -21.046875 11.859375 -21.046875 
Q 9.328125 -21.046875 6.203125 -19.96875 
z
" id="ArialMT-121"/>
      <path d="M 6.59375 0 
L 6.59375 71.578125 
L 15.375 71.578125 
L 15.375 45.90625 
Q 21.53125 53.03125 30.90625 53.03125 
Q 36.671875 53.03125 40.921875 50.75 
Q 45.171875 48.484375 47 44.484375 
Q 48.828125 40.484375 48.828125 32.859375 
L 48.828125 0 
L 40.046875 0 
L 40.046875 32.859375 
Q 40.046875 39.453125 37.1875 42.453125 
Q 34.328125 45.453125 29.109375 45.453125 
Q 25.203125 45.453125 21.75 43.421875 
Q 18.3125 41.40625 16.84375 37.9375 
Q 15.375 34.46875 15.375 28.375 
L 15.375 0 
z
" id="ArialMT-104"/>
     </defs>
     <g style="fill:#262626;" transform="translate(190.126719 21.90449)scale(0.13 -0.13)">
      <use xlink:href="#ArialMT-100"/>
      <use x="55.615234" xlink:href="#ArialMT-100"/>
      <use x="111.230469" xlink:href="#ArialMT-112"/>
      <use x="166.845703" xlink:href="#ArialMT-103"/>
      <use x="222.460938" xlink:href="#ArialMT-45"/>
      <use x="255.761719" xlink:href="#ArialMT-112"/>
      <use x="311.376953" xlink:href="#ArialMT-121"/>
      <use x="361.376953" xlink:href="#ArialMT-116"/>
      <use x="389.160156" xlink:href="#ArialMT-111"/>
      <use x="444.775391" xlink:href="#ArialMT-114"/>
      <use x="478.076172" xlink:href="#ArialMT-99"/>
      <use x="528.076172" xlink:href="#ArialMT-104"/>
     </g>
    </g>
   </g>
  </g>
 </g>
 <defs>
  <clipPath id="p5a67cdfd6e">
   <rect height="128.4308" width="215.95" x="55.25" y="32.4092"/>
  </clipPath>
 </defs>
</svg>
