<?xml version="1.0" encoding="utf-8" standalone="no"?>
<!DOCTYPE svg PUBLIC "-//W3C//DTD SVG 1.1//EN"
  "http://www.w3.org/Graphics/SVG/1.1/DTD/svg11.dtd">
<!-- Created with matplotlib (https://matplotlib.org/) -->
<svg height="198pt" version="1.1" viewBox="0 0 277.2 198" width="277.2pt" xmlns="http://www.w3.org/2000/svg" xmlns:xlink="http://www.w3.org/1999/xlink">
 <defs>
  <style type="text/css">
*{stroke-linecap:butt;stroke-linejoin:round;}
  </style>
 </defs>
 <g id="figure_1">
  <g id="patch_1">
   <path d="M 0 198 
L 277.2 198 
L 277.2 0 
L 0 0 
z
" style="fill:#ffffff;"/>
  </g>
  <g id="axes_1">
   <g id="patch_2">
    <path d="M 43.82 160.84 
L 271.2 160.84 
L 271.2 32.4092 
L 43.82 32.4092 
z
" style="fill:#eaeaf2;"/>
   </g>
   <g id="matplotlib.axis_1">
    <g id="xtick_1">
     <g id="line2d_1">
      <path clip-path="url(#p399f079fb6)" d="M 81.083019 160.84 
L 81.083019 32.4092 
" style="fill:none;stroke:#ffffff;stroke-linecap:round;"/>
     </g>
     <g id="line2d_2"/>
     <g id="text_1">
      <!-- 0.5 -->
      <defs>
       <path d="M 4.15625 35.296875 
Q 4.15625 48 6.765625 55.734375 
Q 9.375 63.484375 14.515625 67.671875 
Q 19.671875 71.875 27.484375 71.875 
Q 33.25 71.875 37.59375 69.546875 
Q 41.9375 67.234375 44.765625 62.859375 
Q 47.609375 58.5 49.21875 52.21875 
Q 50.828125 45.953125 50.828125 35.296875 
Q 50.828125 22.703125 48.234375 14.96875 
Q 45.65625 7.234375 40.5 3 
Q 35.359375 -1.21875 27.484375 -1.21875 
Q 17.140625 -1.21875 11.234375 6.203125 
Q 4.15625 15.140625 4.15625 35.296875 
z
M 13.1875 35.296875 
Q 13.1875 17.671875 17.3125 11.828125 
Q 21.4375 6 27.484375 6 
Q 33.546875 6 37.671875 11.859375 
Q 41.796875 17.71875 41.796875 35.296875 
Q 41.796875 52.984375 37.671875 58.78125 
Q 33.546875 64.59375 27.390625 64.59375 
Q 21.34375 64.59375 17.71875 59.46875 
Q 13.1875 52.9375 13.1875 35.296875 
z
" id="ArialMT-48"/>
       <path d="M 9.078125 0 
L 9.078125 10.015625 
L 19.09375 10.015625 
L 19.09375 0 
z
" id="ArialMT-46"/>
       <path d="M 4.15625 18.75 
L 13.375 19.53125 
Q 14.40625 12.796875 18.140625 9.390625 
Q 21.875 6 27.15625 6 
Q 33.5 6 37.890625 10.78125 
Q 42.28125 15.578125 42.28125 23.484375 
Q 42.28125 31 38.0625 35.34375 
Q 33.84375 39.703125 27 39.703125 
Q 22.75 39.703125 19.328125 37.765625 
Q 15.921875 35.84375 13.96875 32.765625 
L 5.71875 33.84375 
L 12.640625 70.609375 
L 48.25 70.609375 
L 48.25 62.203125 
L 19.671875 62.203125 
L 15.828125 42.96875 
Q 22.265625 47.46875 29.34375 47.46875 
Q 38.71875 47.46875 45.15625 40.96875 
Q 51.609375 34.46875 51.609375 24.265625 
Q 51.609375 14.546875 45.953125 7.46875 
Q 39.0625 -1.21875 27.15625 -1.21875 
Q 17.390625 -1.21875 11.203125 4.25 
Q 5.03125 9.71875 4.15625 18.75 
z
" id="ArialMT-53"/>
      </defs>
      <g style="fill:#262626;" transform="translate(74.133019 174.997813)scale(0.1 -0.1)">
       <use xlink:href="#ArialMT-48"/>
       <use x="55.615234" xlink:href="#ArialMT-46"/>
       <use x="83.398438" xlink:href="#ArialMT-53"/>
      </g>
     </g>
    </g>
    <g id="xtick_2">
     <g id="line2d_3">
      <path clip-path="url(#p399f079fb6)" d="M 119.106431 160.84 
L 119.106431 32.4092 
" style="fill:none;stroke:#ffffff;stroke-linecap:round;"/>
     </g>
     <g id="line2d_4"/>
     <g id="text_2">
      <!-- 1.0 -->
      <defs>
       <path d="M 37.25 0 
L 28.46875 0 
L 28.46875 56 
Q 25.296875 52.984375 20.140625 49.953125 
Q 14.984375 46.921875 10.890625 45.40625 
L 10.890625 53.90625 
Q 18.265625 57.375 23.78125 62.296875 
Q 29.296875 67.234375 31.59375 71.875 
L 37.25 71.875 
z
" id="ArialMT-49"/>
      </defs>
      <g style="fill:#262626;" transform="translate(112.156431 174.997813)scale(0.1 -0.1)">
       <use xlink:href="#ArialMT-49"/>
       <use x="55.615234" xlink:href="#ArialMT-46"/>
       <use x="83.398438" xlink:href="#ArialMT-48"/>
      </g>
     </g>
    </g>
    <g id="xtick_3">
     <g id="line2d_5">
      <path clip-path="url(#p399f079fb6)" d="M 157.129842 160.84 
L 157.129842 32.4092 
" style="fill:none;stroke:#ffffff;stroke-linecap:round;"/>
     </g>
     <g id="line2d_6"/>
     <g id="text_3">
      <!-- 1.5 -->
      <g style="fill:#262626;" transform="translate(150.179842 174.997813)scale(0.1 -0.1)">
       <use xlink:href="#ArialMT-49"/>
       <use x="55.615234" xlink:href="#ArialMT-46"/>
       <use x="83.398438" xlink:href="#ArialMT-53"/>
      </g>
     </g>
    </g>
    <g id="xtick_4">
     <g id="line2d_7">
      <path clip-path="url(#p399f079fb6)" d="M 195.153253 160.84 
L 195.153253 32.4092 
" style="fill:none;stroke:#ffffff;stroke-linecap:round;"/>
     </g>
     <g id="line2d_8"/>
     <g id="text_4">
      <!-- 2.0 -->
      <defs>
       <path d="M 50.34375 8.453125 
L 50.34375 0 
L 3.03125 0 
Q 2.9375 3.171875 4.046875 6.109375 
Q 5.859375 10.9375 9.828125 15.625 
Q 13.8125 20.3125 21.34375 26.46875 
Q 33.015625 36.03125 37.109375 41.625 
Q 41.21875 47.21875 41.21875 52.203125 
Q 41.21875 57.421875 37.46875 61 
Q 33.734375 64.59375 27.734375 64.59375 
Q 21.390625 64.59375 17.578125 60.78125 
Q 13.765625 56.984375 13.71875 50.25 
L 4.6875 51.171875 
Q 5.609375 61.28125 11.65625 66.578125 
Q 17.71875 71.875 27.9375 71.875 
Q 38.234375 71.875 44.234375 66.15625 
Q 50.25 60.453125 50.25 52 
Q 50.25 47.703125 48.484375 43.546875 
Q 46.734375 39.40625 42.65625 34.8125 
Q 38.578125 30.21875 29.109375 22.21875 
Q 21.1875 15.578125 18.9375 13.203125 
Q 16.703125 10.84375 15.234375 8.453125 
z
" id="ArialMT-50"/>
      </defs>
      <g style="fill:#262626;" transform="translate(188.203253 174.997813)scale(0.1 -0.1)">
       <use xlink:href="#ArialMT-50"/>
       <use x="55.615234" xlink:href="#ArialMT-46"/>
       <use x="83.398438" xlink:href="#ArialMT-48"/>
      </g>
     </g>
    </g>
    <g id="xtick_5">
     <g id="line2d_9">
      <path clip-path="url(#p399f079fb6)" d="M 233.176665 160.84 
L 233.176665 32.4092 
" style="fill:none;stroke:#ffffff;stroke-linecap:round;"/>
     </g>
     <g id="line2d_10"/>
     <g id="text_5">
      <!-- 2.5 -->
      <g style="fill:#262626;" transform="translate(226.226665 174.997813)scale(0.1 -0.1)">
       <use xlink:href="#ArialMT-50"/>
       <use x="55.615234" xlink:href="#ArialMT-46"/>
       <use x="83.398438" xlink:href="#ArialMT-53"/>
      </g>
     </g>
    </g>
    <g id="text_6">
     <!-- TotalEnvInteracts -->
     <defs>
      <path d="M 25.921875 0 
L 25.921875 63.140625 
L 2.34375 63.140625 
L 2.34375 71.578125 
L 59.078125 71.578125 
L 59.078125 63.140625 
L 35.40625 63.140625 
L 35.40625 0 
z
" id="ArialMT-84"/>
      <path d="M 3.328125 25.921875 
Q 3.328125 40.328125 11.328125 47.265625 
Q 18.015625 53.03125 27.640625 53.03125 
Q 38.328125 53.03125 45.109375 46.015625 
Q 51.90625 39.015625 51.90625 26.65625 
Q 51.90625 16.65625 48.90625 10.90625 
Q 45.90625 5.171875 40.15625 2 
Q 34.421875 -1.171875 27.640625 -1.171875 
Q 16.75 -1.171875 10.03125 5.8125 
Q 3.328125 12.796875 3.328125 25.921875 
z
M 12.359375 25.921875 
Q 12.359375 15.96875 16.703125 11.015625 
Q 21.046875 6.0625 27.640625 6.0625 
Q 34.1875 6.0625 38.53125 11.03125 
Q 42.875 16.015625 42.875 26.21875 
Q 42.875 35.84375 38.5 40.796875 
Q 34.125 45.75 27.640625 45.75 
Q 21.046875 45.75 16.703125 40.8125 
Q 12.359375 35.890625 12.359375 25.921875 
z
" id="ArialMT-111"/>
      <path d="M 25.78125 7.859375 
L 27.046875 0.09375 
Q 23.34375 -0.6875 20.40625 -0.6875 
Q 15.625 -0.6875 12.984375 0.828125 
Q 10.359375 2.34375 9.28125 4.8125 
Q 8.203125 7.28125 8.203125 15.1875 
L 8.203125 45.015625 
L 1.765625 45.015625 
L 1.765625 51.859375 
L 8.203125 51.859375 
L 8.203125 64.703125 
L 16.9375 69.96875 
L 16.9375 51.859375 
L 25.78125 51.859375 
L 25.78125 45.015625 
L 16.9375 45.015625 
L 16.9375 14.703125 
Q 16.9375 10.9375 17.40625 9.859375 
Q 17.875 8.796875 18.921875 8.15625 
Q 19.96875 7.515625 21.921875 7.515625 
Q 23.390625 7.515625 25.78125 7.859375 
z
" id="ArialMT-116"/>
      <path d="M 40.4375 6.390625 
Q 35.546875 2.25 31.03125 0.53125 
Q 26.515625 -1.171875 21.34375 -1.171875 
Q 12.796875 -1.171875 8.203125 3 
Q 3.609375 7.171875 3.609375 13.671875 
Q 3.609375 17.484375 5.34375 20.625 
Q 7.078125 23.78125 9.890625 25.6875 
Q 12.703125 27.59375 16.21875 28.5625 
Q 18.796875 29.25 24.03125 29.890625 
Q 34.671875 31.15625 39.703125 32.90625 
Q 39.75 34.71875 39.75 35.203125 
Q 39.75 40.578125 37.25 42.78125 
Q 33.890625 45.75 27.25 45.75 
Q 21.046875 45.75 18.09375 43.578125 
Q 15.140625 41.40625 13.71875 35.890625 
L 5.125 37.0625 
Q 6.296875 42.578125 8.984375 45.96875 
Q 11.671875 49.359375 16.75 51.1875 
Q 21.828125 53.03125 28.515625 53.03125 
Q 35.15625 53.03125 39.296875 51.46875 
Q 43.453125 49.90625 45.40625 47.53125 
Q 47.359375 45.171875 48.140625 41.546875 
Q 48.578125 39.3125 48.578125 33.453125 
L 48.578125 21.734375 
Q 48.578125 9.46875 49.140625 6.21875 
Q 49.703125 2.984375 51.375 0 
L 42.1875 0 
Q 40.828125 2.734375 40.4375 6.390625 
z
M 39.703125 26.03125 
Q 34.90625 24.078125 25.34375 22.703125 
Q 19.921875 21.921875 17.671875 20.9375 
Q 15.4375 19.96875 14.203125 18.09375 
Q 12.984375 16.21875 12.984375 13.921875 
Q 12.984375 10.40625 15.640625 8.0625 
Q 18.3125 5.71875 23.4375 5.71875 
Q 28.515625 5.71875 32.46875 7.9375 
Q 36.421875 10.15625 38.28125 14.015625 
Q 39.703125 17 39.703125 22.796875 
z
" id="ArialMT-97"/>
      <path d="M 6.390625 0 
L 6.390625 71.578125 
L 15.1875 71.578125 
L 15.1875 0 
z
" id="ArialMT-108"/>
      <path d="M 7.90625 0 
L 7.90625 71.578125 
L 59.671875 71.578125 
L 59.671875 63.140625 
L 17.390625 63.140625 
L 17.390625 41.21875 
L 56.984375 41.21875 
L 56.984375 32.8125 
L 17.390625 32.8125 
L 17.390625 8.453125 
L 61.328125 8.453125 
L 61.328125 0 
z
" id="ArialMT-69"/>
      <path d="M 6.59375 0 
L 6.59375 51.859375 
L 14.5 51.859375 
L 14.5 44.484375 
Q 20.21875 53.03125 31 53.03125 
Q 35.6875 53.03125 39.625 51.34375 
Q 43.5625 49.65625 45.515625 46.921875 
Q 47.46875 44.1875 48.25 40.4375 
Q 48.734375 37.984375 48.734375 31.890625 
L 48.734375 0 
L 39.9375 0 
L 39.9375 31.546875 
Q 39.9375 36.921875 38.90625 39.578125 
Q 37.890625 42.234375 35.28125 43.8125 
Q 32.671875 45.40625 29.15625 45.40625 
Q 23.53125 45.40625 19.453125 41.84375 
Q 15.375 38.28125 15.375 28.328125 
L 15.375 0 
z
" id="ArialMT-110"/>
      <path d="M 21 0 
L 1.265625 51.859375 
L 10.546875 51.859375 
L 21.6875 20.796875 
Q 23.484375 15.765625 25 10.359375 
Q 26.171875 14.453125 28.265625 20.21875 
L 39.796875 51.859375 
L 48.828125 51.859375 
L 29.203125 0 
z
" id="ArialMT-118"/>
      <path d="M 9.328125 0 
L 9.328125 71.578125 
L 18.796875 71.578125 
L 18.796875 0 
z
" id="ArialMT-73"/>
      <path d="M 42.09375 16.703125 
L 51.171875 15.578125 
Q 49.03125 7.625 43.21875 3.21875 
Q 37.40625 -1.171875 28.375 -1.171875 
Q 17 -1.171875 10.328125 5.828125 
Q 3.65625 12.84375 3.65625 25.484375 
Q 3.65625 38.578125 10.390625 45.796875 
Q 17.140625 53.03125 27.875 53.03125 
Q 38.28125 53.03125 44.875 45.953125 
Q 51.46875 38.875 51.46875 26.03125 
Q 51.46875 25.25 51.421875 23.6875 
L 12.75 23.6875 
Q 13.234375 15.140625 17.578125 10.59375 
Q 21.921875 6.0625 28.421875 6.0625 
Q 33.25 6.0625 36.671875 8.59375 
Q 40.09375 11.140625 42.09375 16.703125 
z
M 13.234375 30.90625 
L 42.1875 30.90625 
Q 41.609375 37.453125 38.875 40.71875 
Q 34.671875 45.796875 27.984375 45.796875 
Q 21.921875 45.796875 17.796875 41.75 
Q 13.671875 37.703125 13.234375 30.90625 
z
" id="ArialMT-101"/>
      <path d="M 6.5 0 
L 6.5 51.859375 
L 14.40625 51.859375 
L 14.40625 44 
Q 17.4375 49.515625 20 51.265625 
Q 22.5625 53.03125 25.640625 53.03125 
Q 30.078125 53.03125 34.671875 50.203125 
L 31.640625 42.046875 
Q 28.421875 43.953125 25.203125 43.953125 
Q 22.3125 43.953125 20.015625 42.21875 
Q 17.71875 40.484375 16.75 37.40625 
Q 15.28125 32.71875 15.28125 27.15625 
L 15.28125 0 
z
" id="ArialMT-114"/>
      <path d="M 40.4375 19 
L 49.078125 17.875 
Q 47.65625 8.9375 41.8125 3.875 
Q 35.984375 -1.171875 27.484375 -1.171875 
Q 16.84375 -1.171875 10.375 5.78125 
Q 3.90625 12.75 3.90625 25.734375 
Q 3.90625 34.125 6.6875 40.421875 
Q 9.46875 46.734375 15.15625 49.875 
Q 20.84375 53.03125 27.546875 53.03125 
Q 35.984375 53.03125 41.359375 48.75 
Q 46.734375 44.484375 48.25 36.625 
L 39.703125 35.296875 
Q 38.484375 40.53125 35.375 43.15625 
Q 32.28125 45.796875 27.875 45.796875 
Q 21.234375 45.796875 17.078125 41.03125 
Q 12.9375 36.28125 12.9375 25.984375 
Q 12.9375 15.53125 16.9375 10.796875 
Q 20.953125 6.0625 27.390625 6.0625 
Q 32.5625 6.0625 36.03125 9.234375 
Q 39.5 12.40625 40.4375 19 
z
" id="ArialMT-99"/>
      <path d="M 3.078125 15.484375 
L 11.765625 16.84375 
Q 12.5 11.625 15.84375 8.84375 
Q 19.1875 6.0625 25.203125 6.0625 
Q 31.25 6.0625 34.171875 8.515625 
Q 37.109375 10.984375 37.109375 14.3125 
Q 37.109375 17.28125 34.515625 19 
Q 32.71875 20.171875 25.53125 21.96875 
Q 15.875 24.421875 12.140625 26.203125 
Q 8.40625 27.984375 6.46875 31.125 
Q 4.546875 34.28125 4.546875 38.09375 
Q 4.546875 41.546875 6.125 44.5 
Q 7.71875 47.46875 10.453125 49.421875 
Q 12.5 50.921875 16.03125 51.96875 
Q 19.578125 53.03125 23.640625 53.03125 
Q 29.734375 53.03125 34.34375 51.265625 
Q 38.96875 49.515625 41.15625 46.5 
Q 43.359375 43.5 44.1875 38.484375 
L 35.59375 37.3125 
Q 35.015625 41.3125 32.203125 43.546875 
Q 29.390625 45.796875 24.265625 45.796875 
Q 18.21875 45.796875 15.625 43.796875 
Q 13.03125 41.796875 13.03125 39.109375 
Q 13.03125 37.40625 14.109375 36.03125 
Q 15.1875 34.625 17.484375 33.6875 
Q 18.796875 33.203125 25.25 31.453125 
Q 34.578125 28.953125 38.25 27.359375 
Q 41.9375 25.78125 44.03125 22.75 
Q 46.140625 19.734375 46.140625 15.234375 
Q 46.140625 10.84375 43.578125 6.953125 
Q 41.015625 3.078125 36.171875 0.953125 
Q 31.34375 -1.171875 25.25 -1.171875 
Q 15.140625 -1.171875 9.84375 3.03125 
Q 4.546875 7.234375 3.078125 15.484375 
z
" id="ArialMT-115"/>
     </defs>
     <g style="fill:#262626;" transform="translate(114.725156 188.858906)scale(0.11 -0.11)">
      <use xlink:href="#ArialMT-84"/>
      <use x="60.912109" xlink:href="#ArialMT-111"/>
      <use x="116.527344" xlink:href="#ArialMT-116"/>
      <use x="144.310547" xlink:href="#ArialMT-97"/>
      <use x="199.925781" xlink:href="#ArialMT-108"/>
      <use x="222.142578" xlink:href="#ArialMT-69"/>
      <use x="288.841797" xlink:href="#ArialMT-110"/>
      <use x="344.457031" xlink:href="#ArialMT-118"/>
      <use x="394.457031" xlink:href="#ArialMT-73"/>
      <use x="422.240234" xlink:href="#ArialMT-110"/>
      <use x="477.855469" xlink:href="#ArialMT-116"/>
      <use x="505.638672" xlink:href="#ArialMT-101"/>
      <use x="561.253906" xlink:href="#ArialMT-114"/>
      <use x="594.554688" xlink:href="#ArialMT-97"/>
      <use x="650.169922" xlink:href="#ArialMT-99"/>
      <use x="700.169922" xlink:href="#ArialMT-116"/>
      <use x="727.953125" xlink:href="#ArialMT-115"/>
     </g>
    </g>
    <g id="text_7">
     <!-- 1e6 -->
     <defs>
      <path d="M 49.75 54.046875 
L 41.015625 53.375 
Q 39.84375 58.546875 37.703125 60.890625 
Q 34.125 64.65625 28.90625 64.65625 
Q 24.703125 64.65625 21.53125 62.3125 
Q 17.390625 59.28125 14.984375 53.46875 
Q 12.59375 47.65625 12.5 36.921875 
Q 15.671875 41.75 20.265625 44.09375 
Q 24.859375 46.4375 29.890625 46.4375 
Q 38.671875 46.4375 44.84375 39.96875 
Q 51.03125 33.5 51.03125 23.25 
Q 51.03125 16.5 48.125 10.71875 
Q 45.21875 4.9375 40.140625 1.859375 
Q 35.0625 -1.21875 28.609375 -1.21875 
Q 17.625 -1.21875 10.6875 6.859375 
Q 3.765625 14.9375 3.765625 33.5 
Q 3.765625 54.25 11.421875 63.671875 
Q 18.109375 71.875 29.4375 71.875 
Q 37.890625 71.875 43.28125 67.140625 
Q 48.6875 62.40625 49.75 54.046875 
z
M 13.875 23.1875 
Q 13.875 18.65625 15.796875 14.5 
Q 17.71875 10.359375 21.1875 8.171875 
Q 24.65625 6 28.46875 6 
Q 34.03125 6 38.03125 10.484375 
Q 42.046875 14.984375 42.046875 22.703125 
Q 42.046875 30.125 38.078125 34.390625 
Q 34.125 38.671875 28.125 38.671875 
Q 22.171875 38.671875 18.015625 34.390625 
Q 13.875 30.125 13.875 23.1875 
z
" id="ArialMT-54"/>
     </defs>
     <g style="fill:#262626;" transform="translate(254.517187 187.143125)scale(0.1 -0.1)">
      <use xlink:href="#ArialMT-49"/>
      <use x="55.615234" xlink:href="#ArialMT-101"/>
      <use x="111.230469" xlink:href="#ArialMT-54"/>
     </g>
    </g>
   </g>
   <g id="matplotlib.axis_2">
    <g id="ytick_1">
     <g id="line2d_11">
      <path clip-path="url(#p399f079fb6)" d="M 43.82 127.404334 
L 271.2 127.404334 
" style="fill:none;stroke:#ffffff;stroke-linecap:round;"/>
     </g>
     <g id="line2d_12"/>
     <g id="text_8">
      <!-- 50 -->
      <g style="fill:#262626;" transform="translate(25.698125 130.98324)scale(0.1 -0.1)">
       <use xlink:href="#ArialMT-53"/>
       <use x="55.615234" xlink:href="#ArialMT-48"/>
      </g>
     </g>
    </g>
    <g id="ytick_2">
     <g id="line2d_13">
      <path clip-path="url(#p399f079fb6)" d="M 43.82 89.878692 
L 271.2 89.878692 
" style="fill:none;stroke:#ffffff;stroke-linecap:round;"/>
     </g>
     <g id="line2d_14"/>
     <g id="text_9">
      <!-- 100 -->
      <g style="fill:#262626;" transform="translate(20.137187 93.457598)scale(0.1 -0.1)">
       <use xlink:href="#ArialMT-49"/>
       <use x="55.615234" xlink:href="#ArialMT-48"/>
       <use x="111.230469" xlink:href="#ArialMT-48"/>
      </g>
     </g>
    </g>
    <g id="ytick_3">
     <g id="line2d_15">
      <path clip-path="url(#p399f079fb6)" d="M 43.82 52.35305 
L 271.2 52.35305 
" style="fill:none;stroke:#ffffff;stroke-linecap:round;"/>
     </g>
     <g id="line2d_16"/>
     <g id="text_10">
      <!-- 150 -->
      <g style="fill:#262626;" transform="translate(20.137187 55.931956)scale(0.1 -0.1)">
       <use xlink:href="#ArialMT-49"/>
       <use x="55.615234" xlink:href="#ArialMT-53"/>
       <use x="111.230469" xlink:href="#ArialMT-48"/>
      </g>
     </g>
    </g>
    <g id="text_11">
     <!-- Performance -->
     <defs>
      <path d="M 7.71875 0 
L 7.71875 71.578125 
L 34.71875 71.578125 
Q 41.84375 71.578125 45.609375 70.90625 
Q 50.875 70.015625 54.4375 67.546875 
Q 58.015625 65.09375 60.1875 60.640625 
Q 62.359375 56.203125 62.359375 50.875 
Q 62.359375 41.75 56.546875 35.421875 
Q 50.734375 29.109375 35.546875 29.109375 
L 17.1875 29.109375 
L 17.1875 0 
z
M 17.1875 37.546875 
L 35.6875 37.546875 
Q 44.875 37.546875 48.734375 40.96875 
Q 52.59375 44.390625 52.59375 50.59375 
Q 52.59375 55.078125 50.3125 58.265625 
Q 48.046875 61.46875 44.34375 62.5 
Q 41.9375 63.140625 35.5 63.140625 
L 17.1875 63.140625 
z
" id="ArialMT-80"/>
      <path d="M 8.6875 0 
L 8.6875 45.015625 
L 0.921875 45.015625 
L 0.921875 51.859375 
L 8.6875 51.859375 
L 8.6875 57.375 
Q 8.6875 62.59375 9.625 65.140625 
Q 10.890625 68.5625 14.078125 70.671875 
Q 17.28125 72.796875 23.046875 72.796875 
Q 26.765625 72.796875 31.25 71.921875 
L 29.9375 64.265625 
Q 27.203125 64.75 24.75 64.75 
Q 20.75 64.75 19.09375 63.03125 
Q 17.4375 61.328125 17.4375 56.640625 
L 17.4375 51.859375 
L 27.546875 51.859375 
L 27.546875 45.015625 
L 17.4375 45.015625 
L 17.4375 0 
z
" id="ArialMT-102"/>
      <path d="M 6.59375 0 
L 6.59375 51.859375 
L 14.453125 51.859375 
L 14.453125 44.578125 
Q 16.890625 48.390625 20.9375 50.703125 
Q 25 53.03125 30.171875 53.03125 
Q 35.9375 53.03125 39.625 50.640625 
Q 43.3125 48.25 44.828125 43.953125 
Q 50.984375 53.03125 60.84375 53.03125 
Q 68.5625 53.03125 72.703125 48.75 
Q 76.859375 44.484375 76.859375 35.59375 
L 76.859375 0 
L 68.109375 0 
L 68.109375 32.671875 
Q 68.109375 37.9375 67.25 40.25 
Q 66.40625 42.578125 64.15625 43.984375 
Q 61.921875 45.40625 58.890625 45.40625 
Q 53.421875 45.40625 49.796875 41.765625 
Q 46.1875 38.140625 46.1875 30.125 
L 46.1875 0 
L 37.40625 0 
L 37.40625 33.6875 
Q 37.40625 39.546875 35.25 42.46875 
Q 33.109375 45.40625 28.21875 45.40625 
Q 24.515625 45.40625 21.359375 43.453125 
Q 18.21875 41.5 16.796875 37.734375 
Q 15.375 33.984375 15.375 26.90625 
L 15.375 0 
z
" id="ArialMT-109"/>
     </defs>
     <g style="fill:#262626;" transform="translate(13.950937 128.107803)rotate(-90)scale(0.11 -0.11)">
      <use xlink:href="#ArialMT-80"/>
      <use x="66.699219" xlink:href="#ArialMT-101"/>
      <use x="122.314453" xlink:href="#ArialMT-114"/>
      <use x="155.615234" xlink:href="#ArialMT-102"/>
      <use x="183.398438" xlink:href="#ArialMT-111"/>
      <use x="239.013672" xlink:href="#ArialMT-114"/>
      <use x="272.314453" xlink:href="#ArialMT-109"/>
      <use x="355.615234" xlink:href="#ArialMT-97"/>
      <use x="411.230469" xlink:href="#ArialMT-110"/>
      <use x="466.845703" xlink:href="#ArialMT-99"/>
      <use x="516.845703" xlink:href="#ArialMT-101"/>
     </g>
    </g>
   </g>
   <g id="PolyCollection_1">
    <path clip-path="url(#p399f079fb6)" d="M 43.82 138.61585 
L 43.82 148.520723 
L 44.580468 147.194261 
L 45.340936 146.002376 
L 46.101405 145.00856 
L 46.861873 143.875216 
L 47.622341 143.20646 
L 48.382809 142.371267 
L 49.143278 140.806692 
L 49.903746 140.410208 
L 50.664214 139.225558 
L 51.424682 138.445994 
L 52.185151 137.689405 
L 52.945619 136.569522 
L 53.706087 135.208527 
L 54.466555 134.698071 
L 55.227023 134.527491 
L 55.987492 134.302197 
L 56.74796 134.5422 
L 57.508428 134.363238 
L 58.268896 134.166693 
L 59.029365 134.643025 
L 59.789833 133.883414 
L 60.550301 133.37433 
L 61.310769 132.804772 
L 62.071237 132.888831 
L 62.831706 132.469714 
L 63.592174 131.671776 
L 64.352642 130.901516 
L 65.11311 129.996971 
L 65.873579 128.937605 
L 66.634047 128.297515 
L 67.394515 127.777954 
L 68.154983 127.044897 
L 68.915452 125.882415 
L 69.67592 125.057059 
L 70.436388 124.380074 
L 71.196856 122.247135 
L 71.957324 120.47968 
L 72.717793 117.977344 
L 73.478261 115.795617 
L 74.238729 112.572158 
L 74.999197 109.913323 
L 75.759666 107.767338 
L 76.520134 107.451886 
L 77.280602 106.387093 
L 78.04107 104.473236 
L 78.801538 102.912879 
L 79.562007 102.394231 
L 80.322475 101.838108 
L 81.082943 100.933165 
L 81.843411 98.727167 
L 82.60388 98.002359 
L 83.364348 95.505366 
L 84.124816 94.422569 
L 84.885284 91.29966 
L 85.645753 89.02582 
L 86.406221 87.616916 
L 87.166689 86.575294 
L 87.927157 84.9916 
L 88.687625 83.263014 
L 89.448094 82.181247 
L 90.208562 82.118178 
L 90.96903 81.981041 
L 91.729498 82.02578 
L 92.489967 81.018353 
L 93.250435 81.630893 
L 94.010903 81.170007 
L 94.771371 80.245125 
L 95.531839 79.338345 
L 96.292308 78.064615 
L 97.052776 78.192936 
L 97.813244 77.861193 
L 98.573712 76.789791 
L 99.334181 75.42383 
L 100.094649 74.517255 
L 100.855117 74.25509 
L 101.615585 73.240739 
L 102.376054 73.337411 
L 103.136522 72.96437 
L 103.89699 72.139062 
L 104.657458 73.431768 
L 105.417926 72.595375 
L 106.178395 72.070315 
L 106.938863 72.032717 
L 107.699331 71.494925 
L 108.459799 71.650373 
L 109.220268 71.224031 
L 109.980736 71.13673 
L 110.741204 71.055924 
L 111.501672 71.634248 
L 112.26214 72.140588 
L 113.022609 70.952686 
L 113.783077 71.013084 
L 114.543545 71.400504 
L 115.304013 71.264313 
L 116.064482 72.374685 
L 116.82495 71.853725 
L 117.585418 70.930974 
L 118.345886 70.933426 
L 119.106355 70.56758 
L 119.866823 70.023778 
L 120.627291 69.955615 
L 121.387759 69.754743 
L 122.148227 69.295143 
L 122.908696 68.701526 
L 123.669164 68.816486 
L 124.429632 68.149088 
L 125.1901 68.349314 
L 125.950569 68.322379 
L 126.711037 67.807673 
L 127.471505 67.953009 
L 128.231973 67.939072 
L 128.992441 67.671498 
L 129.75291 67.29841 
L 130.513378 69.419823 
L 131.273846 71.993407 
L 132.034314 74.312853 
L 132.794783 76.915642 
L 133.555251 78.210836 
L 134.315719 79.471511 
L 135.076187 80.116543 
L 135.836656 81.734112 
L 136.597124 82.552156 
L 137.357592 84.954092 
L 138.11806 85.613887 
L 138.878528 82.815301 
L 139.638997 79.18571 
L 140.399465 76.232993 
L 141.159933 72.889191 
L 141.920401 70.968759 
L 142.68087 69.703714 
L 143.441338 70.311102 
L 144.201806 68.628766 
L 144.962274 68.165378 
L 145.722742 67.235602 
L 146.483211 68.476902 
L 147.243679 69.768813 
L 148.004147 70.633557 
L 148.764615 73.529921 
L 149.525084 77.180382 
L 150.285552 79.02098 
L 151.04602 80.922911 
L 151.806488 82.489899 
L 152.566957 84.491433 
L 153.327425 86.354118 
L 154.087893 88.59906 
L 154.848361 87.385093 
L 155.608829 86.001835 
L 156.369298 82.617778 
L 157.129766 78.96532 
L 157.890234 75.58191 
L 158.650702 74.098152 
L 159.411171 72.56837 
L 160.171639 71.316456 
L 160.932107 72.55563 
L 161.692575 71.41384 
L 162.453043 70.511562 
L 163.213512 70.412607 
L 163.97398 70.392044 
L 164.734448 70.32543 
L 165.494916 71.25593 
L 166.255385 71.518988 
L 167.015853 72.278412 
L 167.776321 72.90939 
L 168.536789 73.083571 
L 169.297258 74.105228 
L 170.057726 76.601702 
L 170.818194 80.314907 
L 171.578662 85.459808 
L 172.33913 89.52995 
L 173.099599 92.303385 
L 173.860067 95.315184 
L 174.620535 96.942752 
L 175.381003 98.085728 
L 176.141472 97.275398 
L 176.90194 97.860688 
L 177.662408 97.348225 
L 178.422876 96.496082 
L 179.183344 94.77859 
L 179.943813 92.882785 
L 180.704281 91.030012 
L 181.464749 89.925483 
L 182.225217 87.73289 
L 182.985686 86.71714 
L 183.746154 85.409616 
L 184.506622 84.043256 
L 185.26709 83.000987 
L 186.027559 82.16926 
L 186.788027 80.043401 
L 187.548495 79.597197 
L 188.308963 77.450552 
L 189.069431 76.125704 
L 189.8299 75.880478 
L 190.590368 77.441157 
L 191.350836 76.449507 
L 192.111304 75.793424 
L 192.871773 76.158274 
L 193.632241 77.613436 
L 194.392709 78.367584 
L 195.153177 79.14456 
L 195.913645 79.507272 
L 196.674114 80.453746 
L 197.434582 81.238363 
L 198.19505 80.395978 
L 198.955518 77.619103 
L 199.715987 78.487647 
L 200.476455 77.69313 
L 201.236923 78.347238 
L 201.997391 79.654599 
L 202.75786 82.198445 
L 203.518328 84.761886 
L 204.278796 87.405831 
L 205.039264 90.223559 
L 205.799732 94.173954 
L 206.560201 97.761809 
L 207.320669 101.000706 
L 208.081137 103.490485 
L 208.841605 106.301241 
L 209.602074 106.528087 
L 210.362542 106.452444 
L 211.12301 105.337929 
L 211.883478 105.097146 
L 212.643946 104.971759 
L 213.404415 104.610146 
L 214.164883 103.854615 
L 214.925351 103.586636 
L 215.685819 102.921369 
L 216.446288 103.284214 
L 217.206756 103.377255 
L 217.967224 101.285198 
L 218.727692 98.290578 
L 219.488161 96.08822 
L 220.248629 94.143898 
L 221.009097 92.848965 
L 221.769565 90.648232 
L 222.530033 88.517186 
L 223.290502 87.660051 
L 224.05097 85.284446 
L 224.811438 81.784323 
L 225.571906 78.829451 
L 226.332375 78.605175 
L 227.092843 78.159701 
L 227.853311 77.453334 
L 228.613779 77.395835 
L 229.374247 76.765045 
L 230.134716 77.274562 
L 230.895184 78.795497 
L 231.655652 81.07692 
L 232.41612 83.19718 
L 233.176589 86.482222 
L 233.937057 88.496492 
L 234.697525 88.099416 
L 235.457993 88.932883 
L 236.218462 89.527381 
L 236.97893 89.953152 
L 237.739398 90.802757 
L 238.499866 90.599027 
L 239.260334 88.733143 
L 240.020803 85.690255 
L 240.781271 83.859656 
L 241.541739 81.525658 
L 242.302207 80.454094 
L 243.062676 79.975114 
L 243.823144 79.200124 
L 244.583612 76.395472 
L 245.34408 74.452795 
L 246.104548 71.219293 
L 246.865017 69.455911 
L 247.625485 69.947921 
L 248.385953 70.241158 
L 249.146421 71.595645 
L 249.90689 72.541852 
L 250.667358 73.317281 
L 251.427826 74.278769 
L 252.188294 75.132199 
L 252.948763 75.908864 
L 253.709231 75.517407 
L 254.469699 75.568484 
L 255.230167 75.298725 
L 255.990635 73.603006 
L 256.751104 72.20795 
L 257.511572 70.449059 
L 258.27204 68.445874 
L 259.032508 66.991514 
L 259.792977 65.825727 
L 260.553445 64.445813 
L 261.313913 63.060863 
L 262.074381 63.004203 
L 262.834849 63.174914 
L 263.595318 63.36642 
L 264.355786 64.728205 
L 265.116254 65.835557 
L 265.876722 67.039509 
L 266.637191 67.28398 
L 267.397659 67.283507 
L 268.158127 68.048875 
L 268.918595 69.157756 
L 269.679064 70.466129 
L 270.439532 72.273993 
L 271.2 73.358497 
L 271.2 47.492527 
L 271.2 47.492527 
L 270.439532 47.804773 
L 269.679064 48.601163 
L 268.918595 49.311465 
L 268.158127 49.432558 
L 267.397659 49.671051 
L 266.637191 49.966392 
L 265.876722 49.778396 
L 265.116254 50.450794 
L 264.355786 50.944744 
L 263.595318 51.018153 
L 262.834849 51.045948 
L 262.074381 51.063153 
L 261.313913 51.454146 
L 260.553445 51.057683 
L 259.792977 51.297225 
L 259.032508 51.053671 
L 258.27204 50.266021 
L 257.511572 50.221784 
L 256.751104 49.924794 
L 255.990635 49.649813 
L 255.230167 49.430706 
L 254.469699 49.564417 
L 253.709231 49.553332 
L 252.948763 49.277483 
L 252.188294 49.720918 
L 251.427826 49.606045 
L 250.667358 50.056448 
L 249.90689 51.953936 
L 249.146421 51.346507 
L 248.385953 51.677478 
L 247.625485 52.052692 
L 246.865017 52.059778 
L 246.104548 51.86267 
L 245.34408 51.396017 
L 244.583612 51.08635 
L 243.823144 51.187675 
L 243.062676 50.991127 
L 242.302207 50.936164 
L 241.541739 49.745847 
L 240.781271 49.547259 
L 240.020803 49.255961 
L 239.260334 48.591128 
L 238.499866 48.677549 
L 237.739398 48.203219 
L 236.97893 48.069067 
L 236.218462 48.112274 
L 235.457993 47.143239 
L 234.697525 47.625913 
L 233.937057 48.522938 
L 233.176589 49.340667 
L 232.41612 50.258513 
L 231.655652 50.691626 
L 230.895184 50.803842 
L 230.134716 50.7713 
L 229.374247 50.876772 
L 228.613779 50.115375 
L 227.853311 49.724922 
L 227.092843 48.588287 
L 226.332375 48.529165 
L 225.571906 47.828929 
L 224.811438 47.081748 
L 224.05097 46.597239 
L 223.290502 46.14094 
L 222.530033 45.866724 
L 221.769565 45.447895 
L 221.009097 44.924418 
L 220.248629 44.753105 
L 219.488161 44.167216 
L 218.727692 43.076157 
L 217.967224 42.479021 
L 217.206756 42.80312 
L 216.446288 42.225724 
L 215.685819 42.145713 
L 214.925351 42.7949 
L 214.164883 42.929577 
L 213.404415 43.446113 
L 212.643946 43.098877 
L 211.883478 43.478546 
L 211.12301 43.361532 
L 210.362542 42.85503 
L 209.602074 42.874269 
L 208.841605 43.143885 
L 208.081137 44.220862 
L 207.320669 44.996453 
L 206.560201 45.280328 
L 205.799732 46.556319 
L 205.039264 47.401346 
L 204.278796 49.373098 
L 203.518328 50.460628 
L 202.75786 52.086 
L 201.997391 53.90127 
L 201.236923 54.506244 
L 200.476455 53.97666 
L 199.715987 53.616641 
L 198.955518 54.139121 
L 198.19505 53.566512 
L 197.434582 53.344656 
L 196.674114 53.431022 
L 195.913645 52.482729 
L 195.153177 52.364128 
L 194.392709 51.654739 
L 193.632241 51.085002 
L 192.871773 50.549694 
L 192.111304 49.47848 
L 191.350836 48.869623 
L 190.590368 48.187048 
L 189.8299 47.60367 
L 189.069431 47.23694 
L 188.308963 47.049907 
L 187.548495 45.735151 
L 186.788027 45.440616 
L 186.027559 44.434826 
L 185.26709 43.939444 
L 184.506622 43.729947 
L 183.746154 43.544698 
L 182.985686 42.98276 
L 182.225217 43.086454 
L 181.464749 42.130968 
L 180.704281 42.066486 
L 179.943813 41.1124 
L 179.183344 40.263598 
L 178.422876 39.325087 
L 177.662408 38.948901 
L 176.90194 39.183221 
L 176.141472 39.591746 
L 175.381003 38.246964 
L 174.620535 38.958126 
L 173.860067 38.872801 
L 173.099599 40.444817 
L 172.33913 41.602612 
L 171.578662 43.813971 
L 170.818194 46.59605 
L 170.057726 48.534305 
L 169.297258 49.584441 
L 168.536789 50.510113 
L 167.776321 50.886088 
L 167.015853 50.855469 
L 166.255385 50.836369 
L 165.494916 51.037564 
L 164.734448 51.250556 
L 163.97398 51.480026 
L 163.213512 51.298349 
L 162.453043 51.418469 
L 161.692575 52.252881 
L 160.932107 52.97776 
L 160.171639 53.384619 
L 159.411171 52.825745 
L 158.650702 52.082093 
L 157.890234 51.622592 
L 157.129766 51.216277 
L 156.369298 51.179874 
L 155.608829 49.934027 
L 154.848361 50.096129 
L 154.087893 51.069975 
L 153.327425 51.300121 
L 152.566957 51.533431 
L 151.806488 52.319256 
L 151.04602 53.169275 
L 150.285552 53.743411 
L 149.525084 54.279434 
L 148.764615 54.758286 
L 148.004147 54.306463 
L 147.243679 52.905471 
L 146.483211 52.876936 
L 145.722742 52.393267 
L 144.962274 53.882543 
L 144.201806 53.68026 
L 143.441338 53.557621 
L 142.68087 53.213239 
L 141.920401 52.474632 
L 141.159933 51.861166 
L 140.399465 50.550952 
L 139.638997 49.554188 
L 138.878528 48.258437 
L 138.11806 47.232766 
L 137.357592 47.228433 
L 136.597124 47.667455 
L 135.836656 48.034722 
L 135.076187 48.537775 
L 134.315719 49.020677 
L 133.555251 49.428707 
L 132.794783 50.40539 
L 132.034314 51.155029 
L 131.273846 52.169328 
L 130.513378 52.293803 
L 129.75291 52.232355 
L 128.992441 52.241211 
L 128.231973 52.241421 
L 127.471505 52.76052 
L 126.711037 52.868956 
L 125.950569 52.544002 
L 125.1901 52.497391 
L 124.429632 52.738257 
L 123.669164 53.09313 
L 122.908696 53.022364 
L 122.148227 53.487111 
L 121.387759 53.742879 
L 120.627291 53.857431 
L 119.866823 54.337542 
L 119.106355 53.603307 
L 118.345886 53.871832 
L 117.585418 54.826779 
L 116.82495 56.004358 
L 116.064482 55.332603 
L 115.304013 54.71573 
L 114.543545 54.756294 
L 113.783077 54.398122 
L 113.022609 54.846252 
L 112.26214 55.076947 
L 111.501672 54.84127 
L 110.741204 55.607718 
L 109.980736 55.344895 
L 109.220268 55.064117 
L 108.459799 53.879315 
L 107.699331 54.04418 
L 106.938863 54.928801 
L 106.178395 54.960493 
L 105.417926 55.159234 
L 104.657458 55.375158 
L 103.89699 56.627635 
L 103.136522 57.140489 
L 102.376054 57.185317 
L 101.615585 57.386771 
L 100.855117 57.278467 
L 100.094649 57.372858 
L 99.334181 57.239394 
L 98.573712 56.892231 
L 97.813244 57.202009 
L 97.052776 57.42863 
L 96.292308 57.305345 
L 95.531839 55.917134 
L 94.771371 56.216102 
L 94.010903 56.668733 
L 93.250435 57.495518 
L 92.489967 58.264875 
L 91.729498 58.079983 
L 90.96903 58.349991 
L 90.208562 58.86453 
L 89.448094 59.477305 
L 88.687625 59.723575 
L 87.927157 60.306611 
L 87.166689 61.320912 
L 86.406221 61.512888 
L 85.645753 61.451608 
L 84.885284 61.22161 
L 84.124816 61.908581 
L 83.364348 63.019251 
L 82.60388 64.088979 
L 81.843411 64.26834 
L 81.082943 63.879994 
L 80.322475 64.383311 
L 79.562007 65.750473 
L 78.801538 66.12412 
L 78.04107 67.145829 
L 77.280602 68.407773 
L 76.520134 69.562273 
L 75.759666 70.397572 
L 74.999197 71.025172 
L 74.238729 70.523334 
L 73.478261 71.544845 
L 72.717793 72.638216 
L 71.957324 73.437191 
L 71.196856 74.109394 
L 70.436388 75.978772 
L 69.67592 77.943329 
L 68.915452 79.597291 
L 68.154983 81.233586 
L 67.394515 83.319206 
L 66.634047 85.742307 
L 65.873579 88.161295 
L 65.11311 90.327852 
L 64.352642 92.616379 
L 63.592174 95.26663 
L 62.831706 96.91418 
L 62.071237 98.829902 
L 61.310769 102.071749 
L 60.550301 103.296198 
L 59.789833 105.31994 
L 59.029365 106.537659 
L 58.268896 108.897573 
L 57.508428 110.103042 
L 56.74796 111.21282 
L 55.987492 113.854842 
L 55.227023 116.051329 
L 54.466555 118.035951 
L 53.706087 119.965186 
L 52.945619 120.446634 
L 52.185151 122.932773 
L 51.424682 124.421632 
L 50.664214 127.35385 
L 49.903746 128.439548 
L 49.143278 131.292293 
L 48.382809 134.150876 
L 47.622341 136.479196 
L 46.861873 137.154669 
L 46.101405 138.326186 
L 45.340936 138.893771 
L 44.580468 139.222629 
L 43.82 138.61585 
z
" style="fill:#4c72b0;fill-opacity:0.2;"/>
   </g>
   <g id="PolyCollection_2">
    <path clip-path="url(#p399f079fb6)" d="M 43.82 144.795046 
L 43.82 155.002236 
L 44.580468 153.900112 
L 45.340936 152.58101 
L 46.101405 150.235058 
L 46.861873 149.365972 
L 47.622341 147.970786 
L 48.382809 146.446362 
L 49.143278 143.748381 
L 49.903746 141.299672 
L 50.664214 140.183436 
L 51.424682 138.412142 
L 52.185151 135.987658 
L 52.945619 134.851007 
L 53.706087 133.743311 
L 54.466555 133.867999 
L 55.227023 132.908869 
L 55.987492 132.455649 
L 56.74796 132.24128 
L 57.508428 131.725856 
L 58.268896 131.342349 
L 59.029365 131.119316 
L 59.789833 131.099772 
L 60.550301 129.500206 
L 61.310769 129.134026 
L 62.071237 129.23145 
L 62.831706 128.309443 
L 63.592174 127.550785 
L 64.352642 128.112842 
L 65.11311 127.930862 
L 65.873579 127.524014 
L 66.634047 127.198986 
L 67.394515 125.73455 
L 68.154983 124.259421 
L 68.915452 124.032342 
L 69.67592 122.481991 
L 70.436388 121.084788 
L 71.196856 119.562858 
L 71.957324 118.571977 
L 72.717793 116.408039 
L 73.478261 114.242571 
L 74.238729 112.226282 
L 74.999197 110.762493 
L 75.759666 110.043619 
L 76.520134 109.893577 
L 77.280602 108.931562 
L 78.04107 108.240772 
L 78.801538 107.255285 
L 79.562007 105.734828 
L 80.322475 104.008425 
L 81.082943 102.422458 
L 81.843411 102.63379 
L 82.60388 100.835102 
L 83.364348 98.571668 
L 84.124816 96.136645 
L 84.885284 92.93901 
L 85.645753 91.201468 
L 86.406221 88.265584 
L 87.166689 85.153365 
L 87.927157 85.004295 
L 88.687625 85.019741 
L 89.448094 85.94055 
L 90.208562 83.96877 
L 90.96903 81.155782 
L 91.729498 80.492672 
L 92.489967 79.443532 
L 93.250435 78.536782 
L 94.010903 78.24769 
L 94.771371 78.616907 
L 95.531839 78.765386 
L 96.292308 78.064003 
L 97.052776 76.732005 
L 97.813244 75.09824 
L 98.573712 75.366471 
L 99.334181 75.37621 
L 100.094649 75.772511 
L 100.855117 75.747855 
L 101.615585 77.117214 
L 102.376054 76.922746 
L 103.136522 77.056792 
L 103.89699 77.478769 
L 104.657458 75.732465 
L 105.417926 75.808951 
L 106.178395 75.050693 
L 106.938863 73.067413 
L 107.699331 72.480402 
L 108.459799 70.737496 
L 109.220268 70.971056 
L 109.980736 69.81354 
L 110.741204 69.307215 
L 111.501672 68.467228 
L 112.26214 68.874402 
L 113.022609 68.413661 
L 113.783077 68.558458 
L 114.543545 68.223092 
L 115.304013 68.538034 
L 116.064482 68.551286 
L 116.82495 68.769991 
L 117.585418 68.875349 
L 118.345886 68.720563 
L 119.106355 68.633034 
L 119.866823 68.605914 
L 120.627291 68.048912 
L 121.387759 67.883362 
L 122.148227 69.003284 
L 122.908696 69.89867 
L 123.669164 70.061833 
L 124.429632 71.086899 
L 125.1901 71.43951 
L 125.950569 72.252937 
L 126.711037 72.417135 
L 127.471505 72.169976 
L 128.231973 72.328055 
L 128.992441 72.62061 
L 129.75291 72.813966 
L 130.513378 73.776314 
L 131.273846 72.650506 
L 132.034314 73.538578 
L 132.794783 72.488589 
L 133.555251 72.0623 
L 134.315719 72.487183 
L 135.076187 73.958455 
L 135.836656 73.8952 
L 136.597124 73.868397 
L 137.357592 73.11558 
L 138.11806 72.677267 
L 138.878528 70.534349 
L 139.638997 70.171494 
L 140.399465 67.944106 
L 141.159933 67.093406 
L 141.920401 66.717472 
L 142.68087 66.968873 
L 143.441338 67.196135 
L 144.201806 67.77819 
L 144.962274 70.187086 
L 145.722742 72.538194 
L 146.483211 74.637291 
L 147.243679 77.378921 
L 148.004147 79.411128 
L 148.764615 81.98628 
L 149.525084 83.244319 
L 150.285552 83.614633 
L 151.04602 81.209279 
L 151.806488 81.127428 
L 152.566957 77.017967 
L 153.327425 74.024701 
L 154.087893 73.121198 
L 154.848361 71.185255 
L 155.608829 68.697697 
L 156.369298 67.542194 
L 157.129766 65.22931 
L 157.890234 63.770181 
L 158.650702 63.739409 
L 159.411171 65.398712 
L 160.171639 64.522005 
L 160.932107 67.444482 
L 161.692575 69.614835 
L 162.453043 69.662818 
L 163.213512 70.128451 
L 163.97398 70.616634 
L 164.734448 71.422631 
L 165.494916 72.084095 
L 166.255385 71.774462 
L 167.015853 69.59999 
L 167.776321 67.635541 
L 168.536789 67.585343 
L 169.297258 66.206517 
L 170.057726 65.866952 
L 170.818194 64.260847 
L 171.578662 63.443178 
L 172.33913 63.033205 
L 173.099599 61.834595 
L 173.860067 61.264163 
L 174.620535 61.066336 
L 175.381003 60.562694 
L 176.141472 62.199654 
L 176.90194 63.986572 
L 177.662408 66.000869 
L 178.422876 67.79952 
L 179.183344 69.487497 
L 179.943813 70.561538 
L 180.704281 71.725896 
L 181.464749 72.34445 
L 182.225217 73.108998 
L 182.985686 73.542136 
L 183.746154 74.341878 
L 184.506622 72.427615 
L 185.26709 70.226465 
L 186.027559 68.965828 
L 186.788027 66.411228 
L 187.548495 65.045641 
L 188.308963 63.942406 
L 189.069431 63.128251 
L 189.8299 62.872336 
L 190.590368 62.116767 
L 191.350836 61.644929 
L 192.111304 61.460377 
L 192.871773 61.114479 
L 193.632241 60.796202 
L 194.392709 59.960026 
L 195.153177 60.340248 
L 195.913645 60.15763 
L 196.674114 60.130343 
L 197.434582 60.242389 
L 198.19505 60.069795 
L 198.955518 60.649361 
L 199.715987 60.38521 
L 200.476455 60.376656 
L 201.236923 60.406731 
L 201.997391 60.731007 
L 202.75786 61.120786 
L 203.518328 61.370426 
L 204.278796 61.894249 
L 205.039264 62.212105 
L 205.799732 62.03092 
L 206.560201 62.192998 
L 207.320669 60.976211 
L 208.081137 60.857209 
L 208.841605 60.697357 
L 209.602074 60.147211 
L 210.362542 60.35645 
L 211.12301 60.40631 
L 211.883478 59.351725 
L 212.643946 59.051325 
L 213.404415 59.540326 
L 214.164883 61.374699 
L 214.925351 63.041223 
L 215.685819 65.844878 
L 216.446288 68.029249 
L 217.206756 70.492563 
L 217.967224 71.84096 
L 218.727692 73.575552 
L 219.488161 75.790061 
L 220.248629 78.502282 
L 221.009097 80.671349 
L 221.769565 81.322002 
L 222.530033 79.085153 
L 223.290502 77.457829 
L 224.05097 75.844603 
L 224.811438 73.816244 
L 225.571906 71.798549 
L 226.332375 71.060637 
L 227.092843 69.707104 
L 227.853311 67.678407 
L 228.613779 65.060625 
L 229.374247 63.42949 
L 230.134716 61.965824 
L 230.895184 63.093753 
L 231.655652 63.716507 
L 232.41612 63.20455 
L 233.176589 63.277675 
L 233.937057 63.130925 
L 234.697525 62.669679 
L 235.457993 61.8138 
L 236.218462 62.178833 
L 236.97893 62.374083 
L 237.739398 62.218116 
L 238.499866 62.035292 
L 239.260334 61.851798 
L 240.020803 64.064784 
L 240.781271 67.128612 
L 241.541739 70.119332 
L 242.302207 73.826319 
L 243.062676 77.912742 
L 243.823144 80.841203 
L 244.583612 83.267459 
L 245.34408 85.324354 
L 246.104548 89.238565 
L 246.865017 92.438043 
L 247.625485 93.439063 
L 248.385953 92.954201 
L 249.146421 91.878611 
L 249.90689 91.125797 
L 250.667358 87.512348 
L 251.427826 85.205016 
L 252.188294 84.850018 
L 252.948763 83.689928 
L 253.709231 82.383443 
L 254.469699 79.100948 
L 255.230167 76.882227 
L 255.990635 74.245663 
L 256.751104 72.812989 
L 257.511572 71.402615 
L 258.27204 69.810941 
L 259.032508 69.705127 
L 259.792977 68.255258 
L 260.553445 66.319626 
L 261.313913 65.063642 
L 262.074381 65.003451 
L 262.834849 64.059842 
L 263.595318 63.56538 
L 264.355786 63.463871 
L 265.116254 62.814905 
L 265.876722 62.342566 
L 266.637191 61.934244 
L 267.397659 62.097517 
L 268.158127 62.194951 
L 268.918595 62.272906 
L 269.679064 62.421822 
L 270.439532 62.021671 
L 271.2 62.5847 
L 271.2 52.503162 
L 271.2 52.503162 
L 270.439532 52.172299 
L 269.679064 52.585765 
L 268.918595 53.185701 
L 268.158127 53.297802 
L 267.397659 53.176194 
L 266.637191 52.74838 
L 265.876722 52.851952 
L 265.116254 52.640756 
L 264.355786 52.353891 
L 263.595318 52.288629 
L 262.834849 51.882614 
L 262.074381 51.913254 
L 261.313913 51.288175 
L 260.553445 50.391574 
L 259.792977 49.840055 
L 259.032508 49.613828 
L 258.27204 49.657777 
L 257.511572 48.894838 
L 256.751104 47.85957 
L 255.990635 47.212587 
L 255.230167 46.761351 
L 254.469699 46.065582 
L 253.709231 45.958868 
L 252.948763 45.384038 
L 252.188294 44.441134 
L 251.427826 43.745314 
L 250.667358 43.469242 
L 249.90689 42.28303 
L 249.146421 41.56483 
L 248.385953 41.189784 
L 247.625485 40.974997 
L 246.865017 40.452748 
L 246.104548 41.595606 
L 245.34408 41.642342 
L 244.583612 42.895869 
L 243.823144 44.491359 
L 243.062676 45.365909 
L 242.302207 47.28943 
L 241.541739 48.438272 
L 240.781271 50.061439 
L 240.020803 51.780006 
L 239.260334 52.638249 
L 238.499866 52.619641 
L 237.739398 52.458982 
L 236.97893 52.18845 
L 236.218462 52.004511 
L 235.457993 52.113972 
L 234.697525 52.418168 
L 233.937057 50.79769 
L 233.176589 50.797936 
L 232.41612 51.189359 
L 231.655652 51.108337 
L 230.895184 51.657325 
L 230.134716 51.792249 
L 229.374247 51.119619 
L 228.613779 50.53171 
L 227.853311 49.551624 
L 227.092843 48.423122 
L 226.332375 47.502368 
L 225.571906 47.212589 
L 224.811438 46.487859 
L 224.05097 45.081607 
L 223.290502 43.848256 
L 222.530033 42.616334 
L 221.769565 41.64892 
L 221.009097 42.602401 
L 220.248629 43.878022 
L 219.488161 45.149624 
L 218.727692 46.391749 
L 217.967224 47.712315 
L 217.206756 48.399198 
L 216.446288 49.295862 
L 215.685819 50.522684 
L 214.925351 51.674224 
L 214.164883 52.899786 
L 213.404415 53.367566 
L 212.643946 52.940167 
L 211.883478 52.704451 
L 211.12301 52.33245 
L 210.362542 52.413145 
L 209.602074 52.211902 
L 208.841605 52.283487 
L 208.081137 52.034793 
L 207.320669 51.623341 
L 206.560201 51.607287 
L 205.799732 51.137635 
L 205.039264 51.229227 
L 204.278796 51.378956 
L 203.518328 51.763823 
L 202.75786 52.011598 
L 201.997391 52.025337 
L 201.236923 51.622997 
L 200.476455 51.227399 
L 199.715987 51.286221 
L 198.955518 51.332782 
L 198.19505 51.413764 
L 197.434582 51.886239 
L 196.674114 52.440924 
L 195.913645 52.515348 
L 195.153177 52.110013 
L 194.392709 51.503859 
L 193.632241 51.475064 
L 192.871773 51.730016 
L 192.111304 51.532448 
L 191.350836 51.42444 
L 190.590368 51.05572 
L 189.8299 50.834253 
L 189.069431 50.724119 
L 188.308963 49.665241 
L 187.548495 48.866733 
L 186.788027 48.216337 
L 186.027559 47.335561 
L 185.26709 46.128035 
L 184.506622 44.831446 
L 183.746154 43.860673 
L 182.985686 44.032043 
L 182.225217 44.542131 
L 181.464749 44.816375 
L 180.704281 44.899642 
L 179.943813 45.512425 
L 179.183344 46.43718 
L 178.422876 47.478793 
L 177.662408 48.507103 
L 176.90194 49.788813 
L 176.141472 50.726917 
L 175.381003 51.345828 
L 174.620535 51.474938 
L 173.860067 51.245779 
L 173.099599 51.027088 
L 172.33913 50.870081 
L 171.578662 51.060518 
L 170.818194 50.847348 
L 170.057726 50.420617 
L 169.297258 50.742365 
L 168.536789 50.977365 
L 167.776321 51.288669 
L 167.015853 51.387087 
L 166.255385 50.983456 
L 165.494916 50.516761 
L 164.734448 50.681058 
L 163.97398 51.26063 
L 163.213512 51.194354 
L 162.453043 51.169737 
L 161.692575 51.513177 
L 160.932107 51.975138 
L 160.171639 52.7107 
L 159.411171 51.887872 
L 158.650702 51.82023 
L 157.890234 50.474879 
L 157.129766 49.216226 
L 156.369298 48.544738 
L 155.608829 48.296536 
L 154.848361 47.150048 
L 154.087893 46.698736 
L 153.327425 46.38106 
L 152.566957 45.442782 
L 151.806488 43.463279 
L 151.04602 44.80217 
L 150.285552 43.871084 
L 149.525084 44.011055 
L 148.764615 45.797705 
L 148.004147 47.346403 
L 147.243679 48.249302 
L 146.483211 49.8341 
L 145.722742 51.000985 
L 144.962274 52.670822 
L 144.201806 54.022107 
L 143.441338 54.699561 
L 142.68087 54.563516 
L 141.920401 54.333313 
L 141.159933 54.679947 
L 140.399465 54.431214 
L 139.638997 53.500581 
L 138.878528 53.586611 
L 138.11806 53.895364 
L 137.357592 53.683908 
L 136.597124 52.983994 
L 135.836656 52.694262 
L 135.076187 51.637445 
L 134.315719 52.574338 
L 133.555251 53.476544 
L 132.794783 53.318839 
L 132.034314 52.875873 
L 131.273846 53.015699 
L 130.513378 52.776342 
L 129.75291 53.510158 
L 128.992441 53.507801 
L 128.231973 53.467006 
L 127.471505 54.104413 
L 126.711037 55.068883 
L 125.950569 54.936649 
L 125.1901 55.027681 
L 124.429632 55.188858 
L 123.669164 55.254889 
L 122.908696 55.534174 
L 122.148227 55.554059 
L 121.387759 55.909002 
L 120.627291 56.281776 
L 119.866823 56.565269 
L 119.106355 56.832201 
L 118.345886 56.384731 
L 117.585418 56.494409 
L 116.82495 56.752649 
L 116.064482 56.759457 
L 115.304013 56.746015 
L 114.543545 56.808508 
L 113.783077 57.434639 
L 113.022609 57.380613 
L 112.26214 57.307224 
L 111.501672 57.791877 
L 110.741204 57.81782 
L 109.980736 58.035151 
L 109.220268 57.962915 
L 108.459799 58.39377 
L 107.699331 58.676872 
L 106.938863 59.029497 
L 106.178395 58.977552 
L 105.417926 58.59576 
L 104.657458 59.685471 
L 103.89699 59.511539 
L 103.136522 60.399868 
L 102.376054 61.075805 
L 101.615585 61.017288 
L 100.855117 61.985718 
L 100.094649 62.557342 
L 99.334181 63.030755 
L 98.573712 63.467524 
L 97.813244 63.836845 
L 97.052776 63.652363 
L 96.292308 63.619088 
L 95.531839 63.33943 
L 94.771371 64.424585 
L 94.010903 65.073081 
L 93.250435 65.988275 
L 92.489967 66.169442 
L 91.729498 66.008168 
L 90.96903 65.969506 
L 90.208562 65.537241 
L 89.448094 65.692455 
L 88.687625 66.439597 
L 87.927157 67.917654 
L 87.166689 68.485301 
L 86.406221 67.879788 
L 85.645753 67.878451 
L 84.885284 68.429749 
L 84.124816 69.102982 
L 83.364348 69.84938 
L 82.60388 70.658341 
L 81.843411 71.678678 
L 81.082943 72.43827 
L 80.322475 73.460402 
L 79.562007 73.517353 
L 78.801538 74.40149 
L 78.04107 75.246024 
L 77.280602 77.002099 
L 76.520134 78.604974 
L 75.759666 79.117493 
L 74.999197 79.525453 
L 74.238729 80.021971 
L 73.478261 78.965396 
L 72.717793 80.673157 
L 71.957324 81.830147 
L 71.196856 82.899827 
L 70.436388 84.443235 
L 69.67592 85.390243 
L 68.915452 85.436044 
L 68.154983 86.226056 
L 67.394515 88.14522 
L 66.634047 90.066751 
L 65.873579 92.128973 
L 65.11311 93.985811 
L 64.352642 96.46423 
L 63.592174 100.155816 
L 62.831706 102.465408 
L 62.071237 104.105691 
L 61.310769 106.720159 
L 60.550301 108.791575 
L 59.789833 110.798087 
L 59.029365 112.881736 
L 58.268896 115.573563 
L 57.508428 117.812636 
L 56.74796 120.648075 
L 55.987492 121.7488 
L 55.227023 122.465856 
L 54.466555 124.19849 
L 53.706087 125.586842 
L 52.945619 127.094017 
L 52.185151 129.678331 
L 51.424682 131.350923 
L 50.664214 133.169862 
L 49.903746 134.565211 
L 49.143278 136.125399 
L 48.382809 137.061101 
L 47.622341 139.667216 
L 46.861873 140.657675 
L 46.101405 141.550736 
L 45.340936 142.738691 
L 44.580468 143.982817 
L 43.82 144.795046 
z
" style="fill:#55a868;fill-opacity:0.2;"/>
   </g>
   <g id="line2d_17">
    <path clip-path="url(#p399f079fb6)" d="M 43.82 143.568287 
L 44.580468 143.208445 
L 46.101405 141.667373 
L 46.861873 140.514943 
L 47.622341 139.842828 
L 48.382809 138.261071 
L 49.143278 136.049492 
L 49.903746 134.424878 
L 50.664214 133.289704 
L 51.424682 131.433813 
L 52.185151 130.311089 
L 52.945619 128.508078 
L 53.706087 127.586857 
L 56.74796 122.87751 
L 58.268896 121.532133 
L 59.789833 119.601677 
L 60.550301 118.335264 
L 61.310769 117.43826 
L 62.071237 115.859366 
L 63.592174 113.469203 
L 65.873579 108.54945 
L 68.154983 104.139241 
L 69.67592 101.500194 
L 70.436388 100.179423 
L 71.196856 98.178264 
L 71.957324 96.958435 
L 73.478261 93.670231 
L 74.238729 91.547746 
L 74.999197 90.469247 
L 75.759666 89.082455 
L 76.520134 88.50708 
L 77.280602 87.397433 
L 78.04107 85.809532 
L 78.801538 84.518499 
L 79.562007 84.072352 
L 80.322475 83.110709 
L 81.082943 82.406579 
L 81.843411 81.497754 
L 82.60388 81.045669 
L 83.364348 79.262308 
L 84.124816 78.165575 
L 84.885284 76.260635 
L 85.645753 75.238714 
L 87.166689 73.948103 
L 88.687625 71.493295 
L 89.448094 70.829276 
L 90.96903 70.165516 
L 91.729498 70.052881 
L 92.489967 69.641614 
L 93.250435 69.563205 
L 95.531839 67.62774 
L 97.052776 67.810783 
L 97.813244 67.531601 
L 98.573712 66.841011 
L 100.094649 65.945057 
L 100.855117 65.766779 
L 101.615585 65.313755 
L 102.376054 65.261364 
L 103.136522 65.05243 
L 103.89699 64.383349 
L 104.657458 64.403463 
L 105.417926 63.877304 
L 106.178395 63.515404 
L 106.938863 63.480759 
L 107.699331 62.769552 
L 108.459799 62.764844 
L 109.220268 63.144074 
L 110.741204 63.331821 
L 111.501672 63.237759 
L 112.26214 63.608768 
L 113.022609 62.899469 
L 113.783077 62.705603 
L 114.543545 63.078399 
L 115.304013 62.990022 
L 116.064482 63.853644 
L 116.82495 63.929041 
L 117.585418 62.878877 
L 118.345886 62.402629 
L 119.106355 62.085443 
L 119.866823 62.18066 
L 122.148227 61.391127 
L 122.908696 60.861945 
L 123.669164 60.954808 
L 124.429632 60.443673 
L 127.471505 60.356764 
L 128.231973 60.090247 
L 129.75291 59.765382 
L 131.273846 62.081367 
L 132.034314 62.733941 
L 132.794783 63.660516 
L 133.555251 63.819771 
L 134.315719 64.246094 
L 135.076187 64.327159 
L 135.836656 64.884417 
L 136.597124 65.109805 
L 137.357592 66.091262 
L 138.11806 66.423326 
L 138.878528 65.536869 
L 140.399465 63.391972 
L 141.159933 62.375178 
L 141.920401 61.721696 
L 142.68087 61.458477 
L 143.441338 61.934362 
L 144.201806 61.154513 
L 144.962274 61.023961 
L 145.722742 59.814434 
L 146.483211 60.676919 
L 147.243679 61.337142 
L 148.004147 62.47001 
L 149.525084 65.729908 
L 151.04602 67.046093 
L 151.806488 67.404577 
L 152.566957 68.012432 
L 153.327425 68.827119 
L 154.087893 69.834518 
L 154.848361 68.740611 
L 155.608829 67.967931 
L 156.369298 66.898826 
L 157.129766 65.090799 
L 157.890234 63.602251 
L 159.411171 62.697058 
L 160.171639 62.350537 
L 160.932107 62.766695 
L 162.453043 60.965015 
L 163.213512 60.855478 
L 163.97398 60.936035 
L 164.734448 60.787993 
L 165.494916 61.146747 
L 166.255385 61.177678 
L 167.776321 61.897739 
L 168.536789 61.796842 
L 169.297258 61.844834 
L 170.057726 62.568003 
L 170.818194 63.455478 
L 171.578662 64.63689 
L 173.099599 66.374101 
L 174.620535 67.950439 
L 176.90194 68.521955 
L 177.662408 68.148563 
L 178.422876 67.910584 
L 179.183344 67.521094 
L 184.506622 63.886602 
L 185.26709 63.470215 
L 186.027559 63.302043 
L 186.788027 62.742008 
L 187.548495 62.666174 
L 188.308963 62.25023 
L 189.069431 61.681322 
L 189.8299 61.742074 
L 190.590368 62.814103 
L 191.350836 62.659565 
L 192.111304 62.635952 
L 192.871773 63.353984 
L 193.632241 64.349219 
L 195.153177 65.754344 
L 195.913645 65.995001 
L 196.674114 66.942384 
L 197.434582 67.29151 
L 198.19505 66.981245 
L 198.955518 65.879112 
L 199.715987 66.052144 
L 200.476455 65.834895 
L 201.236923 66.426741 
L 202.75786 67.142222 
L 203.518328 67.611257 
L 204.278796 68.389464 
L 205.039264 68.812453 
L 205.799732 70.365137 
L 206.560201 71.521068 
L 207.320669 72.998579 
L 208.841605 74.722563 
L 210.362542 74.653737 
L 211.12301 74.349731 
L 211.883478 74.287846 
L 212.643946 74.035318 
L 213.404415 74.02813 
L 214.164883 73.392096 
L 214.925351 73.190768 
L 215.685819 72.533541 
L 217.206756 73.090188 
L 218.727692 70.683367 
L 221.009097 68.886691 
L 222.530033 67.191955 
L 223.290502 66.900496 
L 224.05097 65.940843 
L 224.811438 64.433036 
L 225.571906 63.32919 
L 226.332375 63.56717 
L 227.092843 63.373994 
L 228.613779 63.755605 
L 229.374247 63.820908 
L 230.134716 64.022931 
L 230.895184 64.799669 
L 231.655652 65.884273 
L 232.41612 66.727847 
L 233.176589 67.911445 
L 233.937057 68.509715 
L 234.697525 67.862664 
L 235.457993 68.038061 
L 236.218462 68.819828 
L 236.97893 69.01111 
L 237.739398 69.502988 
L 238.499866 69.638288 
L 239.260334 68.662136 
L 240.020803 67.473108 
L 240.781271 66.703458 
L 241.541739 65.635753 
L 242.302207 65.695129 
L 243.823144 65.1939 
L 244.583612 63.740911 
L 245.34408 62.924406 
L 246.104548 61.540981 
L 246.865017 60.757844 
L 247.625485 61.000306 
L 248.385953 60.959318 
L 249.146421 61.471076 
L 249.90689 62.247894 
L 250.667358 61.686865 
L 251.427826 61.942407 
L 252.188294 62.426559 
L 252.948763 62.593173 
L 255.230167 62.364716 
L 255.990635 61.626409 
L 256.751104 61.066372 
L 257.511572 60.335421 
L 258.27204 59.355947 
L 259.032508 59.022593 
L 259.792977 58.561476 
L 260.553445 57.751748 
L 261.313913 57.257504 
L 262.074381 57.033678 
L 263.595318 57.192286 
L 264.355786 57.836475 
L 265.876722 58.408952 
L 266.637191 58.625186 
L 267.397659 58.477279 
L 268.158127 58.740716 
L 268.918595 59.234611 
L 269.679064 59.533646 
L 271.2 60.425512 
L 271.2 60.425512 
" style="fill:none;stroke:#4c72b0;stroke-linecap:round;stroke-width:1.75;"/>
   </g>
   <g id="line2d_18">
    <path clip-path="url(#p399f079fb6)" d="M 43.82 149.898641 
L 44.580468 148.941465 
L 45.340936 147.659851 
L 46.101405 145.892897 
L 46.861873 145.011823 
L 47.622341 143.819001 
L 49.903746 137.932441 
L 50.664214 136.676649 
L 52.185151 132.832995 
L 52.945619 130.972512 
L 53.706087 129.665076 
L 54.466555 129.033245 
L 55.227023 127.687362 
L 56.74796 126.444678 
L 57.508428 124.769246 
L 59.789833 120.948929 
L 60.550301 119.14589 
L 62.831706 115.387426 
L 65.11311 110.958337 
L 66.634047 108.632868 
L 68.154983 105.242738 
L 68.915452 104.734193 
L 69.67592 103.936117 
L 70.436388 102.764012 
L 71.196856 101.231342 
L 71.957324 100.201062 
L 72.717793 98.540598 
L 73.478261 96.603983 
L 74.238729 96.124127 
L 74.999197 95.143973 
L 75.759666 94.580556 
L 76.520134 94.249275 
L 78.04107 91.743398 
L 78.801538 90.828388 
L 79.562007 89.626091 
L 80.322475 88.734414 
L 81.082943 87.430364 
L 81.843411 87.156234 
L 83.364348 84.210524 
L 84.124816 82.619814 
L 84.885284 80.684379 
L 85.645753 79.539959 
L 87.166689 76.819333 
L 87.927157 76.460974 
L 88.687625 75.729669 
L 89.448094 75.816502 
L 90.96903 73.562644 
L 91.729498 73.25042 
L 93.250435 72.262529 
L 94.010903 71.660386 
L 94.771371 71.520746 
L 95.531839 71.052408 
L 96.292308 70.841545 
L 97.813244 69.467543 
L 98.573712 69.416997 
L 99.334181 69.203482 
L 100.094649 69.164926 
L 100.855117 68.866786 
L 101.615585 69.067251 
L 102.376054 68.999276 
L 103.89699 68.495154 
L 104.657458 67.708968 
L 105.417926 67.202356 
L 106.178395 67.014122 
L 106.938863 66.048455 
L 107.699331 65.578637 
L 108.459799 64.565633 
L 109.220268 64.466985 
L 109.980736 63.924345 
L 111.501672 63.129553 
L 112.26214 63.090813 
L 113.022609 62.897137 
L 113.783077 62.996549 
L 114.543545 62.5158 
L 115.304013 62.642025 
L 117.585418 62.684879 
L 118.345886 62.552647 
L 119.106355 62.732617 
L 119.866823 62.585592 
L 120.627291 62.165344 
L 121.387759 61.896182 
L 122.908696 62.716422 
L 123.669164 62.658361 
L 124.429632 63.137878 
L 125.1901 63.233595 
L 125.950569 63.594793 
L 126.711037 63.743009 
L 127.471505 63.137194 
L 128.231973 62.897531 
L 129.75291 63.162062 
L 130.513378 63.276328 
L 131.273846 62.833103 
L 132.034314 63.207226 
L 132.794783 62.903714 
L 134.315719 62.530761 
L 135.076187 62.79795 
L 135.836656 63.294731 
L 136.597124 63.426195 
L 138.11806 63.286315 
L 138.878528 62.06048 
L 139.638997 61.836038 
L 140.399465 61.18766 
L 141.920401 60.525392 
L 143.441338 60.947848 
L 144.201806 60.900148 
L 144.962274 61.428954 
L 145.722742 61.769589 
L 147.243679 62.814111 
L 148.764615 63.891992 
L 149.525084 63.627687 
L 150.285552 63.742859 
L 151.806488 62.295353 
L 153.327425 60.202881 
L 154.087893 59.909967 
L 155.608829 58.497117 
L 156.369298 58.043466 
L 157.129766 57.222768 
L 157.890234 57.12253 
L 158.650702 57.779819 
L 159.411171 58.643292 
L 160.171639 58.616352 
L 160.932107 59.70981 
L 161.692575 60.564006 
L 162.453043 60.416277 
L 165.494916 61.300428 
L 166.255385 61.378959 
L 167.776321 59.462105 
L 168.536789 59.281354 
L 169.297258 58.474441 
L 170.057726 58.143784 
L 170.818194 57.554098 
L 172.33913 56.951643 
L 173.099599 56.430842 
L 173.860067 56.254971 
L 174.620535 56.270637 
L 175.381003 55.954261 
L 176.90194 56.887692 
L 179.183344 57.962339 
L 179.943813 58.036981 
L 182.225217 58.825565 
L 182.985686 58.78709 
L 183.746154 59.101275 
L 185.26709 58.17725 
L 186.027559 58.150694 
L 186.788027 57.313783 
L 187.548495 56.956187 
L 188.308963 56.803823 
L 189.069431 56.926185 
L 189.8299 56.853294 
L 190.590368 56.586243 
L 192.871773 56.422248 
L 194.392709 55.731943 
L 195.153177 56.225131 
L 195.913645 56.336489 
L 196.674114 56.285634 
L 198.19505 55.741779 
L 198.955518 55.991071 
L 199.715987 55.835715 
L 200.476455 55.802027 
L 201.236923 56.014864 
L 201.997391 56.378172 
L 202.75786 56.566192 
L 204.278796 56.636602 
L 205.039264 56.720666 
L 205.799732 56.584277 
L 206.560201 56.900142 
L 207.320669 56.299776 
L 208.841605 56.490422 
L 209.602074 56.179556 
L 210.362542 56.384798 
L 211.12301 56.36938 
L 211.883478 56.028088 
L 212.643946 55.995746 
L 213.404415 56.453946 
L 214.164883 57.137242 
L 214.925351 57.357723 
L 215.685819 58.183781 
L 216.446288 58.662555 
L 217.206756 59.445881 
L 217.967224 59.776637 
L 218.727692 59.983651 
L 219.488161 60.469842 
L 220.248629 61.190152 
L 221.009097 61.636875 
L 221.769565 61.485461 
L 222.530033 60.850744 
L 224.811438 60.152052 
L 225.571906 59.505569 
L 227.092843 59.065113 
L 227.853311 58.615016 
L 228.613779 57.796168 
L 230.134716 56.879036 
L 230.895184 57.375539 
L 231.655652 57.412422 
L 233.176589 57.037806 
L 233.937057 56.964307 
L 234.697525 57.543923 
L 235.457993 56.963886 
L 237.739398 57.338549 
L 239.260334 57.245024 
L 241.541739 59.278802 
L 243.062676 61.639325 
L 243.823144 62.666281 
L 245.34408 63.483348 
L 246.104548 65.417086 
L 246.865017 66.445395 
L 247.625485 67.20703 
L 248.385953 67.071992 
L 249.146421 66.72172 
L 249.90689 66.704414 
L 251.427826 64.475165 
L 252.188294 64.645576 
L 252.948763 64.536983 
L 253.709231 64.171155 
L 254.469699 62.583265 
L 255.230167 61.821789 
L 255.990635 60.729125 
L 256.751104 60.336279 
L 257.511572 60.148726 
L 258.27204 59.734359 
L 259.032508 59.659477 
L 260.553445 58.3556 
L 261.313913 58.175909 
L 262.074381 58.458353 
L 262.834849 57.971228 
L 265.116254 57.727831 
L 265.876722 57.597259 
L 266.637191 57.341312 
L 267.397659 57.636856 
L 268.158127 57.746377 
L 268.918595 57.729303 
L 269.679064 57.503794 
L 270.439532 57.096985 
L 271.2 57.543931 
L 271.2 57.543931 
" style="fill:none;stroke:#55a868;stroke-linecap:round;stroke-width:1.75;"/>
   </g>
   <g id="patch_3">
    <path d="M 43.82 160.84 
L 43.82 32.4092 
" style="fill:none;"/>
   </g>
   <g id="patch_4">
    <path d="M 271.2 160.84 
L 271.2 32.4092 
" style="fill:none;"/>
   </g>
   <g id="patch_5">
    <path d="M 43.82 160.84 
L 271.2 160.84 
" style="fill:none;"/>
   </g>
   <g id="patch_6">
    <path d="M 43.82 32.4092 
L 271.2 32.4092 
" style="fill:none;"/>
   </g>
   <g id="legend_1">
    <g id="line2d_19">
     <path d="M 49.02 17.35449 
L 62.02 17.35449 
" style="fill:none;stroke:#4c72b0;stroke-linecap:round;stroke-width:1.75;"/>
    </g>
    <g id="line2d_20"/>
    <g id="text_12">
     <!-- ddpg-tf1 -->
     <defs>
      <path d="M 40.234375 0 
L 40.234375 6.546875 
Q 35.296875 -1.171875 25.734375 -1.171875 
Q 19.53125 -1.171875 14.328125 2.25 
Q 9.125 5.671875 6.265625 11.796875 
Q 3.421875 17.921875 3.421875 25.875 
Q 3.421875 33.640625 6 39.96875 
Q 8.59375 46.296875 13.765625 49.65625 
Q 18.953125 53.03125 25.34375 53.03125 
Q 30.03125 53.03125 33.6875 51.046875 
Q 37.359375 49.078125 39.65625 45.90625 
L 39.65625 71.578125 
L 48.390625 71.578125 
L 48.390625 0 
z
M 12.453125 25.875 
Q 12.453125 15.921875 16.640625 10.984375 
Q 20.84375 6.0625 26.5625 6.0625 
Q 32.328125 6.0625 36.34375 10.765625 
Q 40.375 15.484375 40.375 25.140625 
Q 40.375 35.796875 36.265625 40.765625 
Q 32.171875 45.75 26.171875 45.75 
Q 20.3125 45.75 16.375 40.96875 
Q 12.453125 36.1875 12.453125 25.875 
z
" id="ArialMT-100"/>
      <path d="M 6.59375 -19.875 
L 6.59375 51.859375 
L 14.59375 51.859375 
L 14.59375 45.125 
Q 17.4375 49.078125 21 51.046875 
Q 24.5625 53.03125 29.640625 53.03125 
Q 36.28125 53.03125 41.359375 49.609375 
Q 46.4375 46.1875 49.015625 39.953125 
Q 51.609375 33.734375 51.609375 26.3125 
Q 51.609375 18.359375 48.75 11.984375 
Q 45.90625 5.609375 40.453125 2.21875 
Q 35.015625 -1.171875 29 -1.171875 
Q 24.609375 -1.171875 21.109375 0.6875 
Q 17.625 2.546875 15.375 5.375 
L 15.375 -19.875 
z
M 14.546875 25.640625 
Q 14.546875 15.625 18.59375 10.84375 
Q 22.65625 6.0625 28.421875 6.0625 
Q 34.28125 6.0625 38.453125 11.015625 
Q 42.625 15.96875 42.625 26.375 
Q 42.625 36.28125 38.546875 41.203125 
Q 34.46875 46.140625 28.8125 46.140625 
Q 23.1875 46.140625 18.859375 40.890625 
Q 14.546875 35.640625 14.546875 25.640625 
z
" id="ArialMT-112"/>
      <path d="M 4.984375 -4.296875 
L 13.53125 -5.5625 
Q 14.0625 -9.515625 16.5 -11.328125 
Q 19.78125 -13.765625 25.4375 -13.765625 
Q 31.546875 -13.765625 34.859375 -11.328125 
Q 38.1875 -8.890625 39.359375 -4.5 
Q 40.046875 -1.8125 39.984375 6.78125 
Q 34.234375 0 25.640625 0 
Q 14.9375 0 9.078125 7.71875 
Q 3.21875 15.4375 3.21875 26.21875 
Q 3.21875 33.640625 5.90625 39.90625 
Q 8.59375 46.1875 13.6875 49.609375 
Q 18.796875 53.03125 25.6875 53.03125 
Q 34.859375 53.03125 40.828125 45.609375 
L 40.828125 51.859375 
L 48.921875 51.859375 
L 48.921875 7.03125 
Q 48.921875 -5.078125 46.453125 -10.125 
Q 44 -15.1875 38.640625 -18.109375 
Q 33.296875 -21.046875 25.484375 -21.046875 
Q 16.21875 -21.046875 10.5 -16.875 
Q 4.78125 -12.703125 4.984375 -4.296875 
z
M 12.25 26.859375 
Q 12.25 16.65625 16.296875 11.96875 
Q 20.359375 7.28125 26.46875 7.28125 
Q 32.515625 7.28125 36.609375 11.9375 
Q 40.71875 16.609375 40.71875 26.5625 
Q 40.71875 36.078125 36.5 40.90625 
Q 32.28125 45.75 26.3125 45.75 
Q 20.453125 45.75 16.34375 40.984375 
Q 12.25 36.234375 12.25 26.859375 
z
" id="ArialMT-103"/>
      <path d="M 3.171875 21.484375 
L 3.171875 30.328125 
L 30.171875 30.328125 
L 30.171875 21.484375 
z
" id="ArialMT-45"/>
     </defs>
     <g style="fill:#262626;" transform="translate(72.42 21.90449)scale(0.13 -0.13)">
      <use xlink:href="#ArialMT-100"/>
      <use x="55.615234" xlink:href="#ArialMT-100"/>
      <use x="111.230469" xlink:href="#ArialMT-112"/>
      <use x="166.845703" xlink:href="#ArialMT-103"/>
      <use x="222.460938" xlink:href="#ArialMT-45"/>
      <use x="255.761719" xlink:href="#ArialMT-116"/>
      <use x="283.544922" xlink:href="#ArialMT-102"/>
      <use x="311.328125" xlink:href="#ArialMT-49"/>
     </g>
    </g>
    <g id="line2d_21">
     <path d="M 166.726719 17.35449 
L 179.726719 17.35449 
" style="fill:none;stroke:#55a868;stroke-linecap:round;stroke-width:1.75;"/>
    </g>
    <g id="line2d_22"/>
    <g id="text_13">
     <!-- ddpg-pytorch -->
     <defs>
      <path d="M 6.203125 -19.96875 
L 5.21875 -11.71875 
Q 8.109375 -12.5 10.25 -12.5 
Q 13.1875 -12.5 14.9375 -11.515625 
Q 16.703125 -10.546875 17.828125 -8.796875 
Q 18.65625 -7.46875 20.515625 -2.25 
Q 20.75 -1.515625 21.296875 -0.09375 
L 1.609375 51.859375 
L 11.078125 51.859375 
L 21.875 21.828125 
Q 23.96875 16.109375 25.640625 9.8125 
Q 27.15625 15.875 29.25 21.625 
L 40.328125 51.859375 
L 49.125 51.859375 
L 29.390625 -0.875 
Q 26.21875 -9.421875 24.46875 -12.640625 
Q 22.125 -17 19.09375 -19.015625 
Q 16.0625 -21.046875 11.859375 -21.046875 
Q 9.328125 -21.046875 6.203125 -19.96875 
z
" id="ArialMT-121"/>
      <path d="M 6.59375 0 
L 6.59375 71.578125 
L 15.375 71.578125 
L 15.375 45.90625 
Q 21.53125 53.03125 30.90625 53.03125 
Q 36.671875 53.03125 40.921875 50.75 
Q 45.171875 48.484375 47 44.484375 
Q 48.828125 40.484375 48.828125 32.859375 
L 48.828125 0 
L 40.046875 0 
L 40.046875 32.859375 
Q 40.046875 39.453125 37.1875 42.453125 
Q 34.328125 45.453125 29.109375 45.453125 
Q 25.203125 45.453125 21.75 43.421875 
Q 18.3125 41.40625 16.84375 37.9375 
Q 15.375 34.46875 15.375 28.375 
L 15.375 0 
z
" id="ArialMT-104"/>
     </defs>
     <g style="fill:#262626;" transform="translate(190.126719 21.90449)scale(0.13 -0.13)">
      <use xlink:href="#ArialMT-100"/>
      <use x="55.615234" xlink:href="#ArialMT-100"/>
      <use x="111.230469" xlink:href="#ArialMT-112"/>
      <use x="166.845703" xlink:href="#ArialMT-103"/>
      <use x="222.460938" xlink:href="#ArialMT-45"/>
      <use x="255.761719" xlink:href="#ArialMT-112"/>
      <use x="311.376953" xlink:href="#ArialMT-121"/>
      <use x="361.376953" xlink:href="#ArialMT-116"/>
      <use x="389.160156" xlink:href="#ArialMT-111"/>
      <use x="444.775391" xlink:href="#ArialMT-114"/>
      <use x="478.076172" xlink:href="#ArialMT-99"/>
      <use x="528.076172" xlink:href="#ArialMT-104"/>
     </g>
    </g>
   </g>
  </g>
 </g>
 <defs>
  <clipPath id="p399f079fb6">
   <rect height="128.4308" width="227.38" x="43.82" y="32.4092"/>
  </clipPath>
 </defs>
</svg>
