<?xml version="1.0" encoding="utf-8" standalone="no"?>
<!DOCTYPE svg PUBLIC "-//W3C//DTD SVG 1.1//EN"
  "http://www.w3.org/Graphics/SVG/1.1/DTD/svg11.dtd">
<!-- Created with matplotlib (https://matplotlib.org/) -->
<svg height="198pt" version="1.1" viewBox="0 0 277.2 198" width="277.2pt" xmlns="http://www.w3.org/2000/svg" xmlns:xlink="http://www.w3.org/1999/xlink">
 <defs>
  <style type="text/css">
*{stroke-linecap:butt;stroke-linejoin:round;}
  </style>
 </defs>
 <g id="figure_1">
  <g id="patch_1">
   <path d="M 0 198 
L 277.2 198 
L 277.2 0 
L 0 0 
z
" style="fill:#ffffff;"/>
  </g>
  <g id="axes_1">
   <g id="patch_2">
    <path d="M 49.4 160.84 
L 271.2 160.84 
L 271.2 32.4092 
L 49.4 32.4092 
z
" style="fill:#eaeaf2;"/>
   </g>
   <g id="matplotlib.axis_1">
    <g id="xtick_1">
     <g id="line2d_1">
      <path clip-path="url(#p6743f2f992)" d="M 85.748569 160.84 
L 85.748569 32.4092 
" style="fill:none;stroke:#ffffff;stroke-linecap:round;"/>
     </g>
     <g id="line2d_2"/>
     <g id="text_1">
      <!-- 0.5 -->
      <defs>
       <path d="M 4.15625 35.296875 
Q 4.15625 48 6.765625 55.734375 
Q 9.375 63.484375 14.515625 67.671875 
Q 19.671875 71.875 27.484375 71.875 
Q 33.25 71.875 37.59375 69.546875 
Q 41.9375 67.234375 44.765625 62.859375 
Q 47.609375 58.5 49.21875 52.21875 
Q 50.828125 45.953125 50.828125 35.296875 
Q 50.828125 22.703125 48.234375 14.96875 
Q 45.65625 7.234375 40.5 3 
Q 35.359375 -1.21875 27.484375 -1.21875 
Q 17.140625 -1.21875 11.234375 6.203125 
Q 4.15625 15.140625 4.15625 35.296875 
z
M 13.1875 35.296875 
Q 13.1875 17.671875 17.3125 11.828125 
Q 21.4375 6 27.484375 6 
Q 33.546875 6 37.671875 11.859375 
Q 41.796875 17.71875 41.796875 35.296875 
Q 41.796875 52.984375 37.671875 58.78125 
Q 33.546875 64.59375 27.390625 64.59375 
Q 21.34375 64.59375 17.71875 59.46875 
Q 13.1875 52.9375 13.1875 35.296875 
z
" id="ArialMT-48"/>
       <path d="M 9.078125 0 
L 9.078125 10.015625 
L 19.09375 10.015625 
L 19.09375 0 
z
" id="ArialMT-46"/>
       <path d="M 4.15625 18.75 
L 13.375 19.53125 
Q 14.40625 12.796875 18.140625 9.390625 
Q 21.875 6 27.15625 6 
Q 33.5 6 37.890625 10.78125 
Q 42.28125 15.578125 42.28125 23.484375 
Q 42.28125 31 38.0625 35.34375 
Q 33.84375 39.703125 27 39.703125 
Q 22.75 39.703125 19.328125 37.765625 
Q 15.921875 35.84375 13.96875 32.765625 
L 5.71875 33.84375 
L 12.640625 70.609375 
L 48.25 70.609375 
L 48.25 62.203125 
L 19.671875 62.203125 
L 15.828125 42.96875 
Q 22.265625 47.46875 29.34375 47.46875 
Q 38.71875 47.46875 45.15625 40.96875 
Q 51.609375 34.46875 51.609375 24.265625 
Q 51.609375 14.546875 45.953125 7.46875 
Q 39.0625 -1.21875 27.15625 -1.21875 
Q 17.390625 -1.21875 11.203125 4.25 
Q 5.03125 9.71875 4.15625 18.75 
z
" id="ArialMT-53"/>
      </defs>
      <g style="fill:#262626;" transform="translate(78.798569 174.997813)scale(0.1 -0.1)">
       <use xlink:href="#ArialMT-48"/>
       <use x="55.615234" xlink:href="#ArialMT-46"/>
       <use x="83.398438" xlink:href="#ArialMT-53"/>
      </g>
     </g>
    </g>
    <g id="xtick_2">
     <g id="line2d_3">
      <path clip-path="url(#p6743f2f992)" d="M 122.83887 160.84 
L 122.83887 32.4092 
" style="fill:none;stroke:#ffffff;stroke-linecap:round;"/>
     </g>
     <g id="line2d_4"/>
     <g id="text_2">
      <!-- 1.0 -->
      <defs>
       <path d="M 37.25 0 
L 28.46875 0 
L 28.46875 56 
Q 25.296875 52.984375 20.140625 49.953125 
Q 14.984375 46.921875 10.890625 45.40625 
L 10.890625 53.90625 
Q 18.265625 57.375 23.78125 62.296875 
Q 29.296875 67.234375 31.59375 71.875 
L 37.25 71.875 
z
" id="ArialMT-49"/>
      </defs>
      <g style="fill:#262626;" transform="translate(115.88887 174.997813)scale(0.1 -0.1)">
       <use xlink:href="#ArialMT-49"/>
       <use x="55.615234" xlink:href="#ArialMT-46"/>
       <use x="83.398438" xlink:href="#ArialMT-48"/>
      </g>
     </g>
    </g>
    <g id="xtick_3">
     <g id="line2d_5">
      <path clip-path="url(#p6743f2f992)" d="M 159.929171 160.84 
L 159.929171 32.4092 
" style="fill:none;stroke:#ffffff;stroke-linecap:round;"/>
     </g>
     <g id="line2d_6"/>
     <g id="text_3">
      <!-- 1.5 -->
      <g style="fill:#262626;" transform="translate(152.979171 174.997813)scale(0.1 -0.1)">
       <use xlink:href="#ArialMT-49"/>
       <use x="55.615234" xlink:href="#ArialMT-46"/>
       <use x="83.398438" xlink:href="#ArialMT-53"/>
      </g>
     </g>
    </g>
    <g id="xtick_4">
     <g id="line2d_7">
      <path clip-path="url(#p6743f2f992)" d="M 197.019472 160.84 
L 197.019472 32.4092 
" style="fill:none;stroke:#ffffff;stroke-linecap:round;"/>
     </g>
     <g id="line2d_8"/>
     <g id="text_4">
      <!-- 2.0 -->
      <defs>
       <path d="M 50.34375 8.453125 
L 50.34375 0 
L 3.03125 0 
Q 2.9375 3.171875 4.046875 6.109375 
Q 5.859375 10.9375 9.828125 15.625 
Q 13.8125 20.3125 21.34375 26.46875 
Q 33.015625 36.03125 37.109375 41.625 
Q 41.21875 47.21875 41.21875 52.203125 
Q 41.21875 57.421875 37.46875 61 
Q 33.734375 64.59375 27.734375 64.59375 
Q 21.390625 64.59375 17.578125 60.78125 
Q 13.765625 56.984375 13.71875 50.25 
L 4.6875 51.171875 
Q 5.609375 61.28125 11.65625 66.578125 
Q 17.71875 71.875 27.9375 71.875 
Q 38.234375 71.875 44.234375 66.15625 
Q 50.25 60.453125 50.25 52 
Q 50.25 47.703125 48.484375 43.546875 
Q 46.734375 39.40625 42.65625 34.8125 
Q 38.578125 30.21875 29.109375 22.21875 
Q 21.1875 15.578125 18.9375 13.203125 
Q 16.703125 10.84375 15.234375 8.453125 
z
" id="ArialMT-50"/>
      </defs>
      <g style="fill:#262626;" transform="translate(190.069472 174.997813)scale(0.1 -0.1)">
       <use xlink:href="#ArialMT-50"/>
       <use x="55.615234" xlink:href="#ArialMT-46"/>
       <use x="83.398438" xlink:href="#ArialMT-48"/>
      </g>
     </g>
    </g>
    <g id="xtick_5">
     <g id="line2d_9">
      <path clip-path="url(#p6743f2f992)" d="M 234.109773 160.84 
L 234.109773 32.4092 
" style="fill:none;stroke:#ffffff;stroke-linecap:round;"/>
     </g>
     <g id="line2d_10"/>
     <g id="text_5">
      <!-- 2.5 -->
      <g style="fill:#262626;" transform="translate(227.159773 174.997813)scale(0.1 -0.1)">
       <use xlink:href="#ArialMT-50"/>
       <use x="55.615234" xlink:href="#ArialMT-46"/>
       <use x="83.398438" xlink:href="#ArialMT-53"/>
      </g>
     </g>
    </g>
    <g id="text_6">
     <!-- TotalEnvInteracts -->
     <defs>
      <path d="M 25.921875 0 
L 25.921875 63.140625 
L 2.34375 63.140625 
L 2.34375 71.578125 
L 59.078125 71.578125 
L 59.078125 63.140625 
L 35.40625 63.140625 
L 35.40625 0 
z
" id="ArialMT-84"/>
      <path d="M 3.328125 25.921875 
Q 3.328125 40.328125 11.328125 47.265625 
Q 18.015625 53.03125 27.640625 53.03125 
Q 38.328125 53.03125 45.109375 46.015625 
Q 51.90625 39.015625 51.90625 26.65625 
Q 51.90625 16.65625 48.90625 10.90625 
Q 45.90625 5.171875 40.15625 2 
Q 34.421875 -1.171875 27.640625 -1.171875 
Q 16.75 -1.171875 10.03125 5.8125 
Q 3.328125 12.796875 3.328125 25.921875 
z
M 12.359375 25.921875 
Q 12.359375 15.96875 16.703125 11.015625 
Q 21.046875 6.0625 27.640625 6.0625 
Q 34.1875 6.0625 38.53125 11.03125 
Q 42.875 16.015625 42.875 26.21875 
Q 42.875 35.84375 38.5 40.796875 
Q 34.125 45.75 27.640625 45.75 
Q 21.046875 45.75 16.703125 40.8125 
Q 12.359375 35.890625 12.359375 25.921875 
z
" id="ArialMT-111"/>
      <path d="M 25.78125 7.859375 
L 27.046875 0.09375 
Q 23.34375 -0.6875 20.40625 -0.6875 
Q 15.625 -0.6875 12.984375 0.828125 
Q 10.359375 2.34375 9.28125 4.8125 
Q 8.203125 7.28125 8.203125 15.1875 
L 8.203125 45.015625 
L 1.765625 45.015625 
L 1.765625 51.859375 
L 8.203125 51.859375 
L 8.203125 64.703125 
L 16.9375 69.96875 
L 16.9375 51.859375 
L 25.78125 51.859375 
L 25.78125 45.015625 
L 16.9375 45.015625 
L 16.9375 14.703125 
Q 16.9375 10.9375 17.40625 9.859375 
Q 17.875 8.796875 18.921875 8.15625 
Q 19.96875 7.515625 21.921875 7.515625 
Q 23.390625 7.515625 25.78125 7.859375 
z
" id="ArialMT-116"/>
      <path d="M 40.4375 6.390625 
Q 35.546875 2.25 31.03125 0.53125 
Q 26.515625 -1.171875 21.34375 -1.171875 
Q 12.796875 -1.171875 8.203125 3 
Q 3.609375 7.171875 3.609375 13.671875 
Q 3.609375 17.484375 5.34375 20.625 
Q 7.078125 23.78125 9.890625 25.6875 
Q 12.703125 27.59375 16.21875 28.5625 
Q 18.796875 29.25 24.03125 29.890625 
Q 34.671875 31.15625 39.703125 32.90625 
Q 39.75 34.71875 39.75 35.203125 
Q 39.75 40.578125 37.25 42.78125 
Q 33.890625 45.75 27.25 45.75 
Q 21.046875 45.75 18.09375 43.578125 
Q 15.140625 41.40625 13.71875 35.890625 
L 5.125 37.0625 
Q 6.296875 42.578125 8.984375 45.96875 
Q 11.671875 49.359375 16.75 51.1875 
Q 21.828125 53.03125 28.515625 53.03125 
Q 35.15625 53.03125 39.296875 51.46875 
Q 43.453125 49.90625 45.40625 47.53125 
Q 47.359375 45.171875 48.140625 41.546875 
Q 48.578125 39.3125 48.578125 33.453125 
L 48.578125 21.734375 
Q 48.578125 9.46875 49.140625 6.21875 
Q 49.703125 2.984375 51.375 0 
L 42.1875 0 
Q 40.828125 2.734375 40.4375 6.390625 
z
M 39.703125 26.03125 
Q 34.90625 24.078125 25.34375 22.703125 
Q 19.921875 21.921875 17.671875 20.9375 
Q 15.4375 19.96875 14.203125 18.09375 
Q 12.984375 16.21875 12.984375 13.921875 
Q 12.984375 10.40625 15.640625 8.0625 
Q 18.3125 5.71875 23.4375 5.71875 
Q 28.515625 5.71875 32.46875 7.9375 
Q 36.421875 10.15625 38.28125 14.015625 
Q 39.703125 17 39.703125 22.796875 
z
" id="ArialMT-97"/>
      <path d="M 6.390625 0 
L 6.390625 71.578125 
L 15.1875 71.578125 
L 15.1875 0 
z
" id="ArialMT-108"/>
      <path d="M 7.90625 0 
L 7.90625 71.578125 
L 59.671875 71.578125 
L 59.671875 63.140625 
L 17.390625 63.140625 
L 17.390625 41.21875 
L 56.984375 41.21875 
L 56.984375 32.8125 
L 17.390625 32.8125 
L 17.390625 8.453125 
L 61.328125 8.453125 
L 61.328125 0 
z
" id="ArialMT-69"/>
      <path d="M 6.59375 0 
L 6.59375 51.859375 
L 14.5 51.859375 
L 14.5 44.484375 
Q 20.21875 53.03125 31 53.03125 
Q 35.6875 53.03125 39.625 51.34375 
Q 43.5625 49.65625 45.515625 46.921875 
Q 47.46875 44.1875 48.25 40.4375 
Q 48.734375 37.984375 48.734375 31.890625 
L 48.734375 0 
L 39.9375 0 
L 39.9375 31.546875 
Q 39.9375 36.921875 38.90625 39.578125 
Q 37.890625 42.234375 35.28125 43.8125 
Q 32.671875 45.40625 29.15625 45.40625 
Q 23.53125 45.40625 19.453125 41.84375 
Q 15.375 38.28125 15.375 28.328125 
L 15.375 0 
z
" id="ArialMT-110"/>
      <path d="M 21 0 
L 1.265625 51.859375 
L 10.546875 51.859375 
L 21.6875 20.796875 
Q 23.484375 15.765625 25 10.359375 
Q 26.171875 14.453125 28.265625 20.21875 
L 39.796875 51.859375 
L 48.828125 51.859375 
L 29.203125 0 
z
" id="ArialMT-118"/>
      <path d="M 9.328125 0 
L 9.328125 71.578125 
L 18.796875 71.578125 
L 18.796875 0 
z
" id="ArialMT-73"/>
      <path d="M 42.09375 16.703125 
L 51.171875 15.578125 
Q 49.03125 7.625 43.21875 3.21875 
Q 37.40625 -1.171875 28.375 -1.171875 
Q 17 -1.171875 10.328125 5.828125 
Q 3.65625 12.84375 3.65625 25.484375 
Q 3.65625 38.578125 10.390625 45.796875 
Q 17.140625 53.03125 27.875 53.03125 
Q 38.28125 53.03125 44.875 45.953125 
Q 51.46875 38.875 51.46875 26.03125 
Q 51.46875 25.25 51.421875 23.6875 
L 12.75 23.6875 
Q 13.234375 15.140625 17.578125 10.59375 
Q 21.921875 6.0625 28.421875 6.0625 
Q 33.25 6.0625 36.671875 8.59375 
Q 40.09375 11.140625 42.09375 16.703125 
z
M 13.234375 30.90625 
L 42.1875 30.90625 
Q 41.609375 37.453125 38.875 40.71875 
Q 34.671875 45.796875 27.984375 45.796875 
Q 21.921875 45.796875 17.796875 41.75 
Q 13.671875 37.703125 13.234375 30.90625 
z
" id="ArialMT-101"/>
      <path d="M 6.5 0 
L 6.5 51.859375 
L 14.40625 51.859375 
L 14.40625 44 
Q 17.4375 49.515625 20 51.265625 
Q 22.5625 53.03125 25.640625 53.03125 
Q 30.078125 53.03125 34.671875 50.203125 
L 31.640625 42.046875 
Q 28.421875 43.953125 25.203125 43.953125 
Q 22.3125 43.953125 20.015625 42.21875 
Q 17.71875 40.484375 16.75 37.40625 
Q 15.28125 32.71875 15.28125 27.15625 
L 15.28125 0 
z
" id="ArialMT-114"/>
      <path d="M 40.4375 19 
L 49.078125 17.875 
Q 47.65625 8.9375 41.8125 3.875 
Q 35.984375 -1.171875 27.484375 -1.171875 
Q 16.84375 -1.171875 10.375 5.78125 
Q 3.90625 12.75 3.90625 25.734375 
Q 3.90625 34.125 6.6875 40.421875 
Q 9.46875 46.734375 15.15625 49.875 
Q 20.84375 53.03125 27.546875 53.03125 
Q 35.984375 53.03125 41.359375 48.75 
Q 46.734375 44.484375 48.25 36.625 
L 39.703125 35.296875 
Q 38.484375 40.53125 35.375 43.15625 
Q 32.28125 45.796875 27.875 45.796875 
Q 21.234375 45.796875 17.078125 41.03125 
Q 12.9375 36.28125 12.9375 25.984375 
Q 12.9375 15.53125 16.9375 10.796875 
Q 20.953125 6.0625 27.390625 6.0625 
Q 32.5625 6.0625 36.03125 9.234375 
Q 39.5 12.40625 40.4375 19 
z
" id="ArialMT-99"/>
      <path d="M 3.078125 15.484375 
L 11.765625 16.84375 
Q 12.5 11.625 15.84375 8.84375 
Q 19.1875 6.0625 25.203125 6.0625 
Q 31.25 6.0625 34.171875 8.515625 
Q 37.109375 10.984375 37.109375 14.3125 
Q 37.109375 17.28125 34.515625 19 
Q 32.71875 20.171875 25.53125 21.96875 
Q 15.875 24.421875 12.140625 26.203125 
Q 8.40625 27.984375 6.46875 31.125 
Q 4.546875 34.28125 4.546875 38.09375 
Q 4.546875 41.546875 6.125 44.5 
Q 7.71875 47.46875 10.453125 49.421875 
Q 12.5 50.921875 16.03125 51.96875 
Q 19.578125 53.03125 23.640625 53.03125 
Q 29.734375 53.03125 34.34375 51.265625 
Q 38.96875 49.515625 41.15625 46.5 
Q 43.359375 43.5 44.1875 38.484375 
L 35.59375 37.3125 
Q 35.015625 41.3125 32.203125 43.546875 
Q 29.390625 45.796875 24.265625 45.796875 
Q 18.21875 45.796875 15.625 43.796875 
Q 13.03125 41.796875 13.03125 39.109375 
Q 13.03125 37.40625 14.109375 36.03125 
Q 15.1875 34.625 17.484375 33.6875 
Q 18.796875 33.203125 25.25 31.453125 
Q 34.578125 28.953125 38.25 27.359375 
Q 41.9375 25.78125 44.03125 22.75 
Q 46.140625 19.734375 46.140625 15.234375 
Q 46.140625 10.84375 43.578125 6.953125 
Q 41.015625 3.078125 36.171875 0.953125 
Q 31.34375 -1.171875 25.25 -1.171875 
Q 15.140625 -1.171875 9.84375 3.03125 
Q 4.546875 7.234375 3.078125 15.484375 
z
" id="ArialMT-115"/>
     </defs>
     <g style="fill:#262626;" transform="translate(117.515156 188.858906)scale(0.11 -0.11)">
      <use xlink:href="#ArialMT-84"/>
      <use x="60.912109" xlink:href="#ArialMT-111"/>
      <use x="116.527344" xlink:href="#ArialMT-116"/>
      <use x="144.310547" xlink:href="#ArialMT-97"/>
      <use x="199.925781" xlink:href="#ArialMT-108"/>
      <use x="222.142578" xlink:href="#ArialMT-69"/>
      <use x="288.841797" xlink:href="#ArialMT-110"/>
      <use x="344.457031" xlink:href="#ArialMT-118"/>
      <use x="394.457031" xlink:href="#ArialMT-73"/>
      <use x="422.240234" xlink:href="#ArialMT-110"/>
      <use x="477.855469" xlink:href="#ArialMT-116"/>
      <use x="505.638672" xlink:href="#ArialMT-101"/>
      <use x="561.253906" xlink:href="#ArialMT-114"/>
      <use x="594.554688" xlink:href="#ArialMT-97"/>
      <use x="650.169922" xlink:href="#ArialMT-99"/>
      <use x="700.169922" xlink:href="#ArialMT-116"/>
      <use x="727.953125" xlink:href="#ArialMT-115"/>
     </g>
    </g>
    <g id="text_7">
     <!-- 1e6 -->
     <defs>
      <path d="M 49.75 54.046875 
L 41.015625 53.375 
Q 39.84375 58.546875 37.703125 60.890625 
Q 34.125 64.65625 28.90625 64.65625 
Q 24.703125 64.65625 21.53125 62.3125 
Q 17.390625 59.28125 14.984375 53.46875 
Q 12.59375 47.65625 12.5 36.921875 
Q 15.671875 41.75 20.265625 44.09375 
Q 24.859375 46.4375 29.890625 46.4375 
Q 38.671875 46.4375 44.84375 39.96875 
Q 51.03125 33.5 51.03125 23.25 
Q 51.03125 16.5 48.125 10.71875 
Q 45.21875 4.9375 40.140625 1.859375 
Q 35.0625 -1.21875 28.609375 -1.21875 
Q 17.625 -1.21875 10.6875 6.859375 
Q 3.765625 14.9375 3.765625 33.5 
Q 3.765625 54.25 11.421875 63.671875 
Q 18.109375 71.875 29.4375 71.875 
Q 37.890625 71.875 43.28125 67.140625 
Q 48.6875 62.40625 49.75 54.046875 
z
M 13.875 23.1875 
Q 13.875 18.65625 15.796875 14.5 
Q 17.71875 10.359375 21.1875 8.171875 
Q 24.65625 6 28.46875 6 
Q 34.03125 6 38.03125 10.484375 
Q 42.046875 14.984375 42.046875 22.703125 
Q 42.046875 30.125 38.078125 34.390625 
Q 34.125 38.671875 28.125 38.671875 
Q 22.171875 38.671875 18.015625 34.390625 
Q 13.875 30.125 13.875 23.1875 
z
" id="ArialMT-54"/>
     </defs>
     <g style="fill:#262626;" transform="translate(254.517187 187.143125)scale(0.1 -0.1)">
      <use xlink:href="#ArialMT-49"/>
      <use x="55.615234" xlink:href="#ArialMT-101"/>
      <use x="111.230469" xlink:href="#ArialMT-54"/>
     </g>
    </g>
   </g>
   <g id="matplotlib.axis_2">
    <g id="ytick_1">
     <g id="line2d_11">
      <path clip-path="url(#p6743f2f992)" d="M 49.4 136.648517 
L 271.2 136.648517 
" style="fill:none;stroke:#ffffff;stroke-linecap:round;"/>
     </g>
     <g id="line2d_12"/>
     <g id="text_8">
      <!-- 500 -->
      <g style="fill:#262626;" transform="translate(25.717187 140.227423)scale(0.1 -0.1)">
       <use xlink:href="#ArialMT-53"/>
       <use x="55.615234" xlink:href="#ArialMT-48"/>
       <use x="111.230469" xlink:href="#ArialMT-48"/>
      </g>
     </g>
    </g>
    <g id="ytick_2">
     <g id="line2d_13">
      <path clip-path="url(#p6743f2f992)" d="M 49.4 112.096684 
L 271.2 112.096684 
" style="fill:none;stroke:#ffffff;stroke-linecap:round;"/>
     </g>
     <g id="line2d_14"/>
     <g id="text_9">
      <!-- 1000 -->
      <g style="fill:#262626;" transform="translate(20.15625 115.67559)scale(0.1 -0.1)">
       <use xlink:href="#ArialMT-49"/>
       <use x="55.615234" xlink:href="#ArialMT-48"/>
       <use x="111.230469" xlink:href="#ArialMT-48"/>
       <use x="166.845703" xlink:href="#ArialMT-48"/>
      </g>
     </g>
    </g>
    <g id="ytick_3">
     <g id="line2d_15">
      <path clip-path="url(#p6743f2f992)" d="M 49.4 87.544851 
L 271.2 87.544851 
" style="fill:none;stroke:#ffffff;stroke-linecap:round;"/>
     </g>
     <g id="line2d_16"/>
     <g id="text_10">
      <!-- 1500 -->
      <g style="fill:#262626;" transform="translate(20.15625 91.123758)scale(0.1 -0.1)">
       <use xlink:href="#ArialMT-49"/>
       <use x="55.615234" xlink:href="#ArialMT-53"/>
       <use x="111.230469" xlink:href="#ArialMT-48"/>
       <use x="166.845703" xlink:href="#ArialMT-48"/>
      </g>
     </g>
    </g>
    <g id="ytick_4">
     <g id="line2d_17">
      <path clip-path="url(#p6743f2f992)" d="M 49.4 62.993019 
L 271.2 62.993019 
" style="fill:none;stroke:#ffffff;stroke-linecap:round;"/>
     </g>
     <g id="line2d_18"/>
     <g id="text_11">
      <!-- 2000 -->
      <g style="fill:#262626;" transform="translate(20.15625 66.571925)scale(0.1 -0.1)">
       <use xlink:href="#ArialMT-50"/>
       <use x="55.615234" xlink:href="#ArialMT-48"/>
       <use x="111.230469" xlink:href="#ArialMT-48"/>
       <use x="166.845703" xlink:href="#ArialMT-48"/>
      </g>
     </g>
    </g>
    <g id="ytick_5">
     <g id="line2d_19">
      <path clip-path="url(#p6743f2f992)" d="M 49.4 38.441186 
L 271.2 38.441186 
" style="fill:none;stroke:#ffffff;stroke-linecap:round;"/>
     </g>
     <g id="line2d_20"/>
     <g id="text_12">
      <!-- 2500 -->
      <g style="fill:#262626;" transform="translate(20.15625 42.020093)scale(0.1 -0.1)">
       <use xlink:href="#ArialMT-50"/>
       <use x="55.615234" xlink:href="#ArialMT-53"/>
       <use x="111.230469" xlink:href="#ArialMT-48"/>
       <use x="166.845703" xlink:href="#ArialMT-48"/>
      </g>
     </g>
    </g>
    <g id="text_13">
     <!-- Performance -->
     <defs>
      <path d="M 7.71875 0 
L 7.71875 71.578125 
L 34.71875 71.578125 
Q 41.84375 71.578125 45.609375 70.90625 
Q 50.875 70.015625 54.4375 67.546875 
Q 58.015625 65.09375 60.1875 60.640625 
Q 62.359375 56.203125 62.359375 50.875 
Q 62.359375 41.75 56.546875 35.421875 
Q 50.734375 29.109375 35.546875 29.109375 
L 17.1875 29.109375 
L 17.1875 0 
z
M 17.1875 37.546875 
L 35.6875 37.546875 
Q 44.875 37.546875 48.734375 40.96875 
Q 52.59375 44.390625 52.59375 50.59375 
Q 52.59375 55.078125 50.3125 58.265625 
Q 48.046875 61.46875 44.34375 62.5 
Q 41.9375 63.140625 35.5 63.140625 
L 17.1875 63.140625 
z
" id="ArialMT-80"/>
      <path d="M 8.6875 0 
L 8.6875 45.015625 
L 0.921875 45.015625 
L 0.921875 51.859375 
L 8.6875 51.859375 
L 8.6875 57.375 
Q 8.6875 62.59375 9.625 65.140625 
Q 10.890625 68.5625 14.078125 70.671875 
Q 17.28125 72.796875 23.046875 72.796875 
Q 26.765625 72.796875 31.25 71.921875 
L 29.9375 64.265625 
Q 27.203125 64.75 24.75 64.75 
Q 20.75 64.75 19.09375 63.03125 
Q 17.4375 61.328125 17.4375 56.640625 
L 17.4375 51.859375 
L 27.546875 51.859375 
L 27.546875 45.015625 
L 17.4375 45.015625 
L 17.4375 0 
z
" id="ArialMT-102"/>
      <path d="M 6.59375 0 
L 6.59375 51.859375 
L 14.453125 51.859375 
L 14.453125 44.578125 
Q 16.890625 48.390625 20.9375 50.703125 
Q 25 53.03125 30.171875 53.03125 
Q 35.9375 53.03125 39.625 50.640625 
Q 43.3125 48.25 44.828125 43.953125 
Q 50.984375 53.03125 60.84375 53.03125 
Q 68.5625 53.03125 72.703125 48.75 
Q 76.859375 44.484375 76.859375 35.59375 
L 76.859375 0 
L 68.109375 0 
L 68.109375 32.671875 
Q 68.109375 37.9375 67.25 40.25 
Q 66.40625 42.578125 64.15625 43.984375 
Q 61.921875 45.40625 58.890625 45.40625 
Q 53.421875 45.40625 49.796875 41.765625 
Q 46.1875 38.140625 46.1875 30.125 
L 46.1875 0 
L 37.40625 0 
L 37.40625 33.6875 
Q 37.40625 39.546875 35.25 42.46875 
Q 33.109375 45.40625 28.21875 45.40625 
Q 24.515625 45.40625 21.359375 43.453125 
Q 18.21875 41.5 16.796875 37.734375 
Q 15.375 33.984375 15.375 26.90625 
L 15.375 0 
z
" id="ArialMT-109"/>
     </defs>
     <g style="fill:#262626;" transform="translate(13.97 128.107803)rotate(-90)scale(0.11 -0.11)">
      <use xlink:href="#ArialMT-80"/>
      <use x="66.699219" xlink:href="#ArialMT-101"/>
      <use x="122.314453" xlink:href="#ArialMT-114"/>
      <use x="155.615234" xlink:href="#ArialMT-102"/>
      <use x="183.398438" xlink:href="#ArialMT-111"/>
      <use x="239.013672" xlink:href="#ArialMT-114"/>
      <use x="272.314453" xlink:href="#ArialMT-109"/>
      <use x="355.615234" xlink:href="#ArialMT-97"/>
      <use x="411.230469" xlink:href="#ArialMT-110"/>
      <use x="466.845703" xlink:href="#ArialMT-99"/>
      <use x="516.845703" xlink:href="#ArialMT-101"/>
     </g>
    </g>
   </g>
   <g id="PolyCollection_1">
    <path clip-path="url(#p6743f2f992)" d="M 49.4 142.622131 
L 49.4 155.002236 
L 50.141806 153.946789 
L 50.883612 152.725012 
L 51.625418 152.085464 
L 52.367224 150.06341 
L 53.10903 147.729495 
L 53.850836 144.681791 
L 54.592642 142.855083 
L 55.334448 140.69494 
L 56.076254 138.402586 
L 56.81806 134.16313 
L 57.559866 132.849429 
L 58.301672 130.209924 
L 59.043478 130.390576 
L 59.785284 128.776107 
L 60.52709 126.900781 
L 61.268896 126.031362 
L 62.010702 125.967366 
L 62.752508 126.059195 
L 63.494314 123.555874 
L 64.23612 122.578283 
L 64.977926 121.501842 
L 65.719732 119.256044 
L 66.461538 119.546711 
L 67.203344 119.903361 
L 67.945151 117.64056 
L 68.686957 116.161846 
L 69.428763 116.466902 
L 70.170569 113.848496 
L 70.912375 112.495295 
L 71.654181 108.992034 
L 72.395987 108.086143 
L 73.137793 108.863822 
L 73.879599 111.85375 
L 74.621405 110.406367 
L 75.363211 110.103318 
L 76.105017 107.621837 
L 76.846823 106.213728 
L 77.588629 106.56931 
L 78.330435 107.828795 
L 79.072241 108.38352 
L 79.814047 105.066306 
L 80.555853 104.772364 
L 81.297659 102.029186 
L 82.039465 101.831381 
L 82.781271 100.6899 
L 83.523077 102.561037 
L 84.264883 100.789707 
L 85.006689 103.227118 
L 85.748495 105.563997 
L 86.490301 101.434201 
L 87.232107 99.909002 
L 87.973913 100.931203 
L 88.715719 102.980188 
L 89.457525 101.467752 
L 90.199331 102.183407 
L 90.941137 103.739232 
L 91.682943 104.513877 
L 92.424749 102.92655 
L 93.166555 101.408097 
L 93.908361 101.584433 
L 94.650167 104.454629 
L 95.391973 99.024167 
L 96.133779 98.044393 
L 96.875585 96.549261 
L 97.617391 93.133462 
L 98.359197 93.200756 
L 99.101003 90.592778 
L 99.842809 87.724138 
L 100.584615 85.339912 
L 101.326421 85.493201 
L 102.068227 79.998621 
L 102.810033 79.278071 
L 103.551839 81.04977 
L 104.293645 81.663188 
L 105.035452 82.223874 
L 105.777258 83.972775 
L 106.519064 87.545507 
L 107.26087 91.382569 
L 108.002676 89.645258 
L 108.744482 91.078318 
L 109.486288 92.502147 
L 110.228094 88.797826 
L 110.9699 88.432925 
L 111.711706 89.639704 
L 112.453512 87.634802 
L 113.195318 88.697231 
L 113.937124 86.512315 
L 114.67893 83.746427 
L 115.420736 83.490552 
L 116.162542 84.463445 
L 116.904348 84.421594 
L 117.646154 83.37777 
L 118.38796 84.829816 
L 119.129766 85.905777 
L 119.871572 84.239927 
L 120.613378 82.840633 
L 121.355184 82.560385 
L 122.09699 86.328948 
L 122.838796 82.856587 
L 123.580602 82.216272 
L 124.322408 85.793558 
L 125.064214 82.74742 
L 125.80602 82.784252 
L 126.547826 78.424073 
L 127.289632 82.563708 
L 128.031438 81.986536 
L 128.773244 83.808519 
L 129.51505 84.740346 
L 130.256856 82.780019 
L 130.998662 80.818415 
L 131.740468 85.539317 
L 132.482274 82.71103 
L 133.22408 81.56835 
L 133.965886 82.634847 
L 134.707692 84.007464 
L 135.449498 83.401897 
L 136.191304 84.557412 
L 136.93311 84.992406 
L 137.674916 81.247474 
L 138.416722 81.982287 
L 139.158528 85.715137 
L 139.900334 84.8565 
L 140.64214 88.135665 
L 141.383946 88.964453 
L 142.125753 92.245226 
L 142.867559 92.32691 
L 143.609365 94.447803 
L 144.351171 93.103622 
L 145.092977 94.78641 
L 145.834783 96.329673 
L 146.576589 96.059744 
L 147.318395 95.54357 
L 148.060201 95.517512 
L 148.802007 97.473355 
L 149.543813 96.516313 
L 150.285619 96.265184 
L 151.027425 97.250236 
L 151.769231 98.530574 
L 152.511037 100.483468 
L 153.252843 99.685129 
L 153.994649 96.298713 
L 154.736455 99.177199 
L 155.478261 97.572701 
L 156.220067 99.900581 
L 156.961873 97.212954 
L 157.703679 99.042128 
L 158.445485 93.667482 
L 159.187291 93.747103 
L 159.929097 91.747507 
L 160.670903 89.489699 
L 161.412709 87.040382 
L 162.154515 86.730005 
L 162.896321 84.88726 
L 163.638127 85.239509 
L 164.379933 82.675863 
L 165.121739 86.643527 
L 165.863545 86.552434 
L 166.605351 89.701859 
L 167.347157 88.774337 
L 168.088963 88.80188 
L 168.830769 88.251665 
L 169.572575 91.562812 
L 170.314381 92.132619 
L 171.056187 93.781882 
L 171.797993 92.162927 
L 172.539799 92.937669 
L 173.281605 92.350507 
L 174.023411 90.867284 
L 174.765217 88.924136 
L 175.507023 89.702334 
L 176.248829 89.3151 
L 176.990635 93.664959 
L 177.732441 88.231118 
L 178.474247 87.201556 
L 179.216054 85.856712 
L 179.95786 86.22485 
L 180.699666 87.963168 
L 181.441472 85.166369 
L 182.183278 83.54151 
L 182.925084 82.537269 
L 183.66689 84.708565 
L 184.408696 83.917469 
L 185.150502 82.146001 
L 185.892308 82.636569 
L 186.634114 83.156571 
L 187.37592 83.914171 
L 188.117726 88.156504 
L 188.859532 88.958927 
L 189.601338 89.630975 
L 190.343144 91.560154 
L 191.08495 93.250459 
L 191.826756 93.425726 
L 192.568562 92.930032 
L 193.310368 96.285392 
L 194.052174 97.469895 
L 194.79398 96.633752 
L 195.535786 99.025295 
L 196.277592 95.280211 
L 197.019398 98.328707 
L 197.761204 99.841191 
L 198.50301 98.601099 
L 199.244816 96.309954 
L 199.986622 96.492248 
L 200.728428 95.9168 
L 201.470234 95.85545 
L 202.21204 93.68911 
L 202.953846 91.777261 
L 203.695652 93.954875 
L 204.437458 92.494096 
L 205.179264 89.555842 
L 205.92107 90.223211 
L 206.662876 90.681589 
L 207.404682 88.950182 
L 208.146488 88.87882 
L 208.888294 87.392809 
L 209.6301 85.576082 
L 210.371906 87.392404 
L 211.113712 86.4022 
L 211.855518 84.699599 
L 212.597324 82.894335 
L 213.33913 83.037499 
L 214.080936 79.778289 
L 214.822742 77.945217 
L 215.564548 81.835399 
L 216.306355 81.359159 
L 217.048161 79.023177 
L 217.789967 81.720507 
L 218.531773 79.662928 
L 219.273579 77.598571 
L 220.015385 77.879496 
L 220.757191 76.197696 
L 221.498997 77.957003 
L 222.240803 81.792306 
L 222.982609 83.094204 
L 223.724415 78.594942 
L 224.466221 81.436613 
L 225.208027 82.867627 
L 225.949833 81.907643 
L 226.691639 81.55316 
L 227.433445 81.695852 
L 228.175251 78.716951 
L 228.917057 79.643146 
L 229.658863 80.443245 
L 230.400669 81.592371 
L 231.142475 80.381532 
L 231.884281 80.211831 
L 232.626087 78.764021 
L 233.367893 79.056936 
L 234.109699 80.80698 
L 234.851505 83.653706 
L 235.593311 82.462673 
L 236.335117 84.999997 
L 237.076923 80.122878 
L 237.818729 77.556461 
L 238.560535 75.040832 
L 239.302341 73.601591 
L 240.044147 75.892477 
L 240.785953 80.163515 
L 241.527759 81.059296 
L 242.269565 80.534256 
L 243.011371 82.588797 
L 243.753177 85.94363 
L 244.494983 88.581277 
L 245.236789 84.140088 
L 245.978595 82.167776 
L 246.720401 82.022184 
L 247.462207 84.260162 
L 248.204013 83.444069 
L 248.945819 85.903799 
L 249.687625 88.062919 
L 250.429431 89.53683 
L 251.171237 88.165926 
L 251.913043 92.450348 
L 252.654849 92.182793 
L 253.396656 97.964251 
L 254.138462 105.593195 
L 254.880268 102.592596 
L 255.622074 100.309758 
L 256.36388 99.388271 
L 257.105686 96.968262 
L 257.847492 91.12222 
L 258.589298 91.677749 
L 259.331104 94.915294 
L 260.07291 91.775034 
L 260.814716 87.628838 
L 261.556522 86.894344 
L 262.298328 84.893116 
L 263.040134 83.905559 
L 263.78194 84.068182 
L 264.523746 84.759008 
L 265.265552 83.581713 
L 266.007358 85.469769 
L 266.749164 87.125372 
L 267.49097 88.783537 
L 268.232776 88.773667 
L 268.974582 91.10845 
L 269.716388 88.572132 
L 270.458194 89.441028 
L 271.2 93.187394 
L 271.2 38.246964 
L 271.2 38.246964 
L 270.458194 38.690809 
L 269.716388 43.525561 
L 268.974582 43.114584 
L 268.232776 44.439497 
L 267.49097 44.684345 
L 266.749164 44.778833 
L 266.007358 46.711511 
L 265.265552 44.918801 
L 264.523746 46.875862 
L 263.78194 49.804307 
L 263.040134 53.239585 
L 262.298328 54.571014 
L 261.556522 54.186769 
L 260.814716 56.106719 
L 260.07291 57.027001 
L 259.331104 60.212065 
L 258.589298 62.578879 
L 257.847492 65.030132 
L 257.105686 64.053731 
L 256.36388 63.19293 
L 255.622074 67.595995 
L 254.880268 67.397573 
L 254.138462 66.194747 
L 253.396656 66.837884 
L 252.654849 64.186137 
L 251.913043 65.538859 
L 251.171237 64.586265 
L 250.429431 64.387078 
L 249.687625 62.388771 
L 248.945819 62.30374 
L 248.204013 61.783452 
L 247.462207 59.939958 
L 246.720401 58.457882 
L 245.978595 59.544506 
L 245.236789 58.260007 
L 244.494983 54.827426 
L 243.753177 54.29654 
L 243.011371 56.451276 
L 242.269565 61.672919 
L 241.527759 60.788136 
L 240.785953 59.391133 
L 240.044147 61.54906 
L 239.302341 58.758789 
L 238.560535 57.983176 
L 237.818729 55.04221 
L 237.076923 53.921527 
L 236.335117 54.888599 
L 235.593311 49.039202 
L 234.851505 48.021145 
L 234.109699 47.765643 
L 233.367893 47.723314 
L 232.626087 47.948694 
L 231.884281 48.078431 
L 231.142475 50.969353 
L 230.400669 49.972921 
L 229.658863 50.42329 
L 228.917057 54.417036 
L 228.175251 49.713065 
L 227.433445 53.371143 
L 226.691639 51.849872 
L 225.949833 53.246682 
L 225.208027 54.66852 
L 224.466221 53.945236 
L 223.724415 55.777543 
L 222.982609 51.542653 
L 222.240803 48.463002 
L 221.498997 47.747683 
L 220.757191 48.582711 
L 220.015385 52.749111 
L 219.273579 55.492784 
L 218.531773 55.978654 
L 217.789967 56.453452 
L 217.048161 58.799436 
L 216.306355 57.610403 
L 215.564548 59.867917 
L 214.822742 59.124793 
L 214.080936 60.550351 
L 213.33913 63.975452 
L 212.597324 65.838749 
L 211.855518 63.168392 
L 211.113712 60.340189 
L 210.371906 59.908121 
L 209.6301 58.462091 
L 208.888294 59.006006 
L 208.146488 61.873199 
L 207.404682 63.881728 
L 206.662876 64.800647 
L 205.92107 64.924137 
L 205.179264 65.626172 
L 204.437458 64.532143 
L 203.695652 59.48698 
L 202.953846 61.46211 
L 202.21204 60.37512 
L 201.470234 62.346224 
L 200.728428 66.201655 
L 199.986622 64.712084 
L 199.244816 64.273063 
L 198.50301 65.612561 
L 197.761204 63.829172 
L 197.019398 63.38226 
L 196.277592 57.59224 
L 195.535786 61.049621 
L 194.79398 60.075283 
L 194.052174 61.778262 
L 193.310368 58.053404 
L 192.568562 55.922985 
L 191.826756 55.164619 
L 191.08495 56.560839 
L 190.343144 56.728868 
L 189.601338 57.670427 
L 188.859532 56.395595 
L 188.117726 61.933685 
L 187.37592 59.673905 
L 186.634114 59.718419 
L 185.892308 56.084631 
L 185.150502 53.480067 
L 184.408696 53.217589 
L 183.66689 51.044066 
L 182.925084 49.452856 
L 182.183278 46.891877 
L 181.441472 48.667656 
L 180.699666 45.269504 
L 179.95786 48.162371 
L 179.216054 44.737285 
L 178.474247 51.048421 
L 177.732441 49.168504 
L 176.990635 49.18117 
L 176.248829 51.117377 
L 175.507023 51.890837 
L 174.765217 53.766494 
L 174.023411 53.551441 
L 173.281605 52.659582 
L 172.539799 55.553538 
L 171.797993 55.404906 
L 171.056187 58.320803 
L 170.314381 53.103699 
L 169.572575 53.328562 
L 168.830769 50.368116 
L 168.088963 48.397327 
L 167.347157 47.29522 
L 166.605351 47.761087 
L 165.863545 45.614492 
L 165.121739 44.002807 
L 164.379933 44.984404 
L 163.638127 47.816415 
L 162.896321 50.463059 
L 162.154515 53.413786 
L 161.412709 52.368663 
L 160.670903 53.358786 
L 159.929097 54.452281 
L 159.187291 56.230453 
L 158.445485 58.830112 
L 157.703679 59.127427 
L 156.961873 60.926846 
L 156.220067 62.871984 
L 155.478261 60.859052 
L 154.736455 57.537619 
L 153.994649 56.854978 
L 153.252843 59.34057 
L 152.511037 58.282042 
L 151.769231 61.038551 
L 151.027425 58.243641 
L 150.285619 58.588743 
L 149.543813 57.60477 
L 148.802007 58.994004 
L 148.060201 55.572618 
L 147.318395 56.726178 
L 146.576589 57.759153 
L 145.834783 58.7268 
L 145.092977 56.167423 
L 144.351171 61.224051 
L 143.609365 58.735016 
L 142.867559 61.805781 
L 142.125753 58.845147 
L 141.383946 58.202977 
L 140.64214 57.388668 
L 139.900334 60.792243 
L 139.158528 60.006317 
L 138.416722 58.508862 
L 137.674916 58.596851 
L 136.93311 56.031148 
L 136.191304 55.159626 
L 135.449498 57.563199 
L 134.707692 60.538461 
L 133.965886 60.883558 
L 133.22408 62.210546 
L 132.482274 59.398253 
L 131.740468 62.398714 
L 130.998662 62.690738 
L 130.256856 62.639337 
L 129.51505 63.042263 
L 128.773244 60.416171 
L 128.031438 60.520805 
L 127.289632 59.501578 
L 126.547826 59.250785 
L 125.80602 57.999703 
L 125.064214 59.165397 
L 124.322408 60.392977 
L 123.580602 61.375627 
L 122.838796 63.348111 
L 122.09699 64.33976 
L 121.355184 63.50683 
L 120.613378 65.666146 
L 119.871572 63.559537 
L 119.129766 62.446113 
L 118.38796 64.348183 
L 117.646154 60.752873 
L 116.904348 65.360529 
L 116.162542 63.389003 
L 115.420736 63.482851 
L 114.67893 58.988497 
L 113.937124 60.00907 
L 113.195318 59.839411 
L 112.453512 58.644153 
L 111.711706 57.833941 
L 110.9699 59.15603 
L 110.228094 62.215028 
L 109.486288 59.792859 
L 108.744482 58.273581 
L 108.002676 61.246466 
L 107.26087 57.548675 
L 106.519064 61.934209 
L 105.777258 62.139134 
L 105.035452 65.398254 
L 104.293645 69.570966 
L 103.551839 70.112754 
L 102.810033 69.841725 
L 102.068227 69.439608 
L 101.326421 70.177083 
L 100.584615 70.066626 
L 99.842809 66.341167 
L 99.101003 67.863924 
L 98.359197 70.621448 
L 97.617391 72.12044 
L 96.875585 68.377756 
L 96.133779 70.205511 
L 95.391973 71.203015 
L 94.650167 72.662487 
L 93.908361 71.710596 
L 93.166555 72.112694 
L 92.424749 76.361394 
L 91.682943 78.193298 
L 90.941137 78.119876 
L 90.199331 77.76302 
L 89.457525 74.404486 
L 88.715719 76.288303 
L 87.973913 77.564815 
L 87.232107 72.290924 
L 86.490301 71.743181 
L 85.748495 70.664151 
L 85.006689 69.497722 
L 84.264883 66.42758 
L 83.523077 65.127037 
L 82.781271 64.52783 
L 82.039465 64.265339 
L 81.297659 66.86573 
L 80.555853 64.599344 
L 79.814047 62.038496 
L 79.072241 64.915253 
L 78.330435 61.609823 
L 77.588629 61.624213 
L 76.846823 65.384609 
L 76.105017 66.983529 
L 75.363211 63.108528 
L 74.621405 67.568132 
L 73.879599 72.053937 
L 73.137793 78.208237 
L 72.395987 76.810277 
L 71.654181 80.295243 
L 70.912375 82.950933 
L 70.170569 84.039433 
L 69.428763 87.653747 
L 68.686957 87.71313 
L 67.945151 86.201363 
L 67.203344 87.137691 
L 66.461538 92.783033 
L 65.719732 92.937987 
L 64.977926 93.906227 
L 64.23612 98.857658 
L 63.494314 101.912798 
L 62.752508 102.362046 
L 62.010702 106.371667 
L 61.268896 107.990436 
L 60.52709 112.837876 
L 59.785284 117.125286 
L 59.043478 120.233959 
L 58.301672 121.795405 
L 57.559866 125.433479 
L 56.81806 127.047854 
L 56.076254 128.12916 
L 55.334448 129.46383 
L 54.592642 131.470334 
L 53.850836 134.082969 
L 53.10903 137.621424 
L 52.367224 137.702491 
L 51.625418 139.063701 
L 50.883612 140.583367 
L 50.141806 142.751339 
L 49.4 142.622131 
z
" style="fill:#4c72b0;fill-opacity:0.2;"/>
   </g>
   <g id="PolyCollection_2">
    <path clip-path="url(#p6743f2f992)" d="M 49.4 142.443261 
L 49.4 148.995394 
L 50.141806 148.230004 
L 50.883612 147.545973 
L 51.625418 144.825655 
L 52.367224 144.603726 
L 53.10903 143.321196 
L 53.850836 141.091635 
L 54.592642 140.368123 
L 55.334448 137.88703 
L 56.076254 135.02971 
L 56.81806 134.511089 
L 57.559866 132.272734 
L 58.301672 129.424522 
L 59.043478 127.581154 
L 59.785284 124.397511 
L 60.52709 123.533 
L 61.268896 123.298064 
L 62.010702 124.557302 
L 62.752508 123.820738 
L 63.494314 123.353619 
L 64.23612 122.643064 
L 64.977926 119.108187 
L 65.719732 114.21415 
L 66.461538 112.130985 
L 67.203344 107.208221 
L 67.945151 105.462915 
L 68.686957 104.650255 
L 69.428763 101.777565 
L 70.170569 101.633563 
L 70.912375 102.247823 
L 71.654181 100.251774 
L 72.395987 98.183297 
L 73.137793 99.034615 
L 73.879599 100.642604 
L 74.621405 100.030178 
L 75.363211 98.767753 
L 76.105017 102.178109 
L 76.846823 102.645175 
L 77.588629 105.254031 
L 78.330435 105.862921 
L 79.072241 104.880533 
L 79.814047 105.490758 
L 80.555853 105.743113 
L 81.297659 106.171985 
L 82.039465 108.343003 
L 82.781271 107.428531 
L 83.523077 108.810005 
L 84.264883 106.780645 
L 85.006689 107.218582 
L 85.748495 105.302186 
L 86.490301 105.958958 
L 87.232107 105.446071 
L 87.973913 105.214127 
L 88.715719 103.133341 
L 89.457525 99.744859 
L 90.199331 101.294824 
L 90.941137 99.670739 
L 91.682943 97.991583 
L 92.424749 99.976959 
L 93.166555 100.364727 
L 93.908361 98.005481 
L 94.650167 95.130903 
L 95.391973 95.119366 
L 96.133779 95.438304 
L 96.875585 92.838914 
L 97.617391 93.406733 
L 98.359197 95.25875 
L 99.101003 96.290974 
L 99.842809 93.79717 
L 100.584615 93.933952 
L 101.326421 93.997326 
L 102.068227 94.106134 
L 102.810033 97.286095 
L 103.551839 96.570395 
L 104.293645 96.736809 
L 105.035452 94.242158 
L 105.777258 93.544507 
L 106.519064 89.434033 
L 107.26087 89.622366 
L 108.002676 91.515416 
L 108.744482 86.661272 
L 109.486288 86.007759 
L 110.228094 89.110153 
L 110.9699 86.78716 
L 111.711706 87.426045 
L 112.453512 90.468451 
L 113.195318 92.695334 
L 113.937124 93.495745 
L 114.67893 96.05986 
L 115.420736 98.765788 
L 116.162542 99.476692 
L 116.904348 100.54859 
L 117.646154 96.821135 
L 118.38796 96.141178 
L 119.129766 99.83903 
L 119.871572 96.608242 
L 120.613378 96.438891 
L 121.355184 96.744466 
L 122.09699 97.287011 
L 122.838796 95.602357 
L 123.580602 95.005221 
L 124.322408 97.084592 
L 125.064214 95.080977 
L 125.80602 96.518286 
L 126.547826 95.919612 
L 127.289632 93.6534 
L 128.031438 95.050502 
L 128.773244 93.653007 
L 129.51505 95.545441 
L 130.256856 93.202933 
L 130.998662 95.183813 
L 131.740468 92.939365 
L 132.482274 91.4218 
L 133.22408 94.221521 
L 133.965886 93.390302 
L 134.707692 92.673134 
L 135.449498 92.890086 
L 136.191304 90.789574 
L 136.93311 92.896017 
L 137.674916 93.914296 
L 138.416722 96.198545 
L 139.158528 93.640792 
L 139.900334 95.753419 
L 140.64214 96.778923 
L 141.383946 94.958051 
L 142.125753 99.265485 
L 142.867559 102.592543 
L 143.609365 104.418019 
L 144.351171 103.100573 
L 145.092977 101.745177 
L 145.834783 103.289218 
L 146.576589 105.497663 
L 147.318395 103.396408 
L 148.060201 100.84677 
L 148.802007 101.093494 
L 149.543813 102.35576 
L 150.285619 99.681526 
L 151.027425 96.345824 
L 151.769231 97.766232 
L 152.511037 100.238014 
L 153.252843 101.34534 
L 153.994649 105.132903 
L 154.736455 105.010534 
L 155.478261 103.661299 
L 156.220067 99.691954 
L 156.961873 98.285236 
L 157.703679 96.279246 
L 158.445485 90.963939 
L 159.187291 86.9867 
L 159.929097 87.819414 
L 160.670903 88.090796 
L 161.412709 86.885519 
L 162.154515 89.787304 
L 162.896321 91.890527 
L 163.638127 90.709508 
L 164.379933 95.335384 
L 165.121739 95.760699 
L 165.863545 92.332531 
L 166.605351 91.484315 
L 167.347157 92.235035 
L 168.088963 90.268222 
L 168.830769 88.575628 
L 169.572575 87.818955 
L 170.314381 88.534519 
L 171.056187 85.229589 
L 171.797993 87.942412 
L 172.539799 86.53517 
L 173.281605 87.447239 
L 174.023411 90.524521 
L 174.765217 89.690952 
L 175.507023 90.576719 
L 176.248829 92.546652 
L 176.990635 94.703906 
L 177.732441 94.398037 
L 178.474247 89.236851 
L 179.216054 90.675194 
L 179.95786 89.562809 
L 180.699666 93.09052 
L 181.441472 91.159129 
L 182.183278 93.243623 
L 182.925084 88.850642 
L 183.66689 88.372154 
L 184.408696 90.024073 
L 185.150502 89.842487 
L 185.892308 89.337942 
L 186.634114 92.226108 
L 187.37592 88.871198 
L 188.117726 87.900948 
L 188.859532 89.352922 
L 189.601338 92.403367 
L 190.343144 93.545243 
L 191.08495 99.794048 
L 191.826756 98.605039 
L 192.568562 98.204884 
L 193.310368 96.842533 
L 194.052174 92.866246 
L 194.79398 91.487366 
L 195.535786 91.391973 
L 196.277592 89.438001 
L 197.019398 87.77102 
L 197.761204 86.311457 
L 198.50301 85.781481 
L 199.244816 83.24697 
L 199.986622 84.654036 
L 200.728428 82.831295 
L 201.470234 85.215825 
L 202.21204 88.641144 
L 202.953846 84.757482 
L 203.695652 87.625257 
L 204.437458 86.324885 
L 205.179264 87.020011 
L 205.92107 88.208797 
L 206.662876 88.741463 
L 207.404682 92.313564 
L 208.146488 92.629896 
L 208.888294 95.054446 
L 209.6301 92.133105 
L 210.371906 91.578015 
L 211.113712 95.37348 
L 211.855518 94.836177 
L 212.597324 93.805771 
L 213.33913 90.747223 
L 214.080936 93.752844 
L 214.822742 91.64136 
L 215.564548 90.899277 
L 216.306355 88.608346 
L 217.048161 88.209251 
L 217.789967 89.366278 
L 218.531773 84.334869 
L 219.273579 83.877155 
L 220.015385 82.669969 
L 220.757191 85.27482 
L 221.498997 85.449216 
L 222.240803 85.47264 
L 222.982609 83.191437 
L 223.724415 83.630609 
L 224.466221 85.245719 
L 225.208027 83.585826 
L 225.949833 84.081181 
L 226.691639 84.962757 
L 227.433445 83.779148 
L 228.175251 85.836866 
L 228.917057 86.591091 
L 229.658863 89.398367 
L 230.400669 87.081164 
L 231.142475 88.77947 
L 231.884281 89.036086 
L 232.626087 89.933668 
L 233.367893 89.603155 
L 234.109699 91.220116 
L 234.851505 88.650414 
L 235.593311 87.129179 
L 236.335117 85.588302 
L 237.076923 84.691919 
L 237.818729 84.790707 
L 238.560535 86.593939 
L 239.302341 89.056447 
L 240.044147 93.12219 
L 240.785953 93.763545 
L 241.527759 95.136003 
L 242.269565 95.19449 
L 243.011371 95.92202 
L 243.753177 98.027041 
L 244.494983 100.64437 
L 245.236789 102.750046 
L 245.978595 101.651194 
L 246.720401 102.070706 
L 247.462207 102.595003 
L 248.204013 100.015821 
L 248.945819 99.115227 
L 249.687625 99.043349 
L 250.429431 96.948472 
L 251.171237 96.698637 
L 251.913043 96.855089 
L 252.654849 94.92211 
L 253.396656 93.875885 
L 254.138462 92.252338 
L 254.880268 94.091224 
L 255.622074 90.844789 
L 256.36388 89.602231 
L 257.105686 86.47785 
L 257.847492 85.882895 
L 258.589298 83.731161 
L 259.331104 85.199943 
L 260.07291 86.609552 
L 260.814716 87.021127 
L 261.556522 86.22038 
L 262.298328 85.752178 
L 263.040134 88.094333 
L 263.78194 90.281149 
L 264.523746 88.583194 
L 265.265552 94.964256 
L 266.007358 94.67559 
L 266.749164 94.955581 
L 267.49097 93.177141 
L 268.232776 92.884426 
L 268.974582 91.246809 
L 269.716388 92.816296 
L 270.458194 95.232066 
L 271.2 92.803739 
L 271.2 67.408288 
L 271.2 67.408288 
L 270.458194 69.673148 
L 269.716388 69.643222 
L 268.974582 69.462021 
L 268.232776 66.263583 
L 267.49097 66.744736 
L 266.749164 67.876404 
L 266.007358 69.939847 
L 265.265552 67.927113 
L 264.523746 66.940981 
L 263.78194 64.394216 
L 263.040134 61.106552 
L 262.298328 59.091435 
L 261.556522 57.771698 
L 260.814716 56.311268 
L 260.07291 55.56303 
L 259.331104 57.278867 
L 258.589298 54.016492 
L 257.847492 52.6704 
L 257.105686 51.578646 
L 256.36388 50.160674 
L 255.622074 47.073129 
L 254.880268 46.255554 
L 254.138462 47.512488 
L 253.396656 43.259167 
L 252.654849 44.737364 
L 251.913043 47.31775 
L 251.171237 46.567193 
L 250.429431 49.582312 
L 249.687625 47.845983 
L 248.945819 46.555789 
L 248.204013 45.673264 
L 247.462207 46.762235 
L 246.720401 48.439704 
L 245.978595 47.693479 
L 245.236789 47.964808 
L 244.494983 46.629436 
L 243.753177 44.570357 
L 243.011371 43.709561 
L 242.269565 40.900418 
L 241.527759 39.885761 
L 240.785953 42.639573 
L 240.044147 46.862758 
L 239.302341 45.405714 
L 238.560535 46.078983 
L 237.818729 49.10557 
L 237.076923 53.247528 
L 236.335117 53.18692 
L 235.593311 55.525495 
L 234.851505 55.881332 
L 234.109699 54.324806 
L 233.367893 55.311155 
L 232.626087 52.481819 
L 231.884281 49.085411 
L 231.142475 48.726627 
L 230.400669 49.482171 
L 229.658863 49.994204 
L 228.917057 46.995394 
L 228.175251 49.908793 
L 227.433445 48.147472 
L 226.691639 48.270523 
L 225.949833 46.708322 
L 225.208027 47.260838 
L 224.466221 49.231988 
L 223.724415 48.297228 
L 222.982609 50.266187 
L 222.240803 51.253226 
L 221.498997 51.955485 
L 220.757191 53.899287 
L 220.015385 55.164238 
L 219.273579 54.123695 
L 218.531773 56.789228 
L 217.789967 56.443655 
L 217.048161 56.833201 
L 216.306355 56.120312 
L 215.564548 55.41827 
L 214.822742 57.024727 
L 214.080936 54.89419 
L 213.33913 53.281158 
L 212.597324 52.092685 
L 211.855518 51.804341 
L 211.113712 55.475075 
L 210.371906 52.931506 
L 209.6301 53.048218 
L 208.888294 55.420248 
L 208.146488 56.534588 
L 207.404682 60.57264 
L 206.662876 64.536698 
L 205.92107 62.299792 
L 205.179264 66.753056 
L 204.437458 66.04593 
L 203.695652 64.25889 
L 202.953846 63.966923 
L 202.21204 65.068275 
L 201.470234 63.796823 
L 200.728428 63.219912 
L 199.986622 62.66354 
L 199.244816 59.771684 
L 198.50301 59.32201 
L 197.761204 59.350561 
L 197.019398 56.81872 
L 196.277592 59.461609 
L 195.535786 57.787676 
L 194.79398 56.75224 
L 194.052174 55.199045 
L 193.310368 55.524108 
L 192.568562 53.955849 
L 191.826756 51.46615 
L 191.08495 51.986744 
L 190.343144 51.876876 
L 189.601338 54.168912 
L 188.859532 57.585809 
L 188.117726 57.056594 
L 187.37592 56.066906 
L 186.634114 54.050023 
L 185.892308 52.529545 
L 185.150502 54.014229 
L 184.408696 55.738181 
L 183.66689 60.199688 
L 182.925084 62.651188 
L 182.183278 61.977375 
L 181.441472 64.455117 
L 180.699666 65.214012 
L 179.95786 65.460921 
L 179.216054 64.78715 
L 178.474247 65.93603 
L 177.732441 65.886138 
L 176.990635 62.566986 
L 176.248829 60.098005 
L 175.507023 60.331619 
L 174.765217 61.591609 
L 174.023411 64.5829 
L 173.281605 64.815167 
L 172.539799 63.853328 
L 171.797993 67.875999 
L 171.056187 68.342207 
L 170.314381 67.261596 
L 169.572575 66.359673 
L 168.830769 67.527342 
L 168.088963 70.086008 
L 167.347157 73.462244 
L 166.605351 71.9293 
L 165.863545 65.955452 
L 165.121739 65.49468 
L 164.379933 66.329396 
L 163.638127 63.690192 
L 162.896321 64.915662 
L 162.154515 64.955027 
L 161.412709 68.190726 
L 160.670903 68.629996 
L 159.929097 69.291852 
L 159.187291 67.917683 
L 158.445485 65.903184 
L 157.703679 63.167754 
L 156.961873 63.709497 
L 156.220067 62.715548 
L 155.478261 61.736226 
L 154.736455 59.411044 
L 153.994649 62.406288 
L 153.252843 63.696188 
L 152.511037 62.590122 
L 151.769231 61.020661 
L 151.027425 62.736427 
L 150.285619 59.745221 
L 149.543813 57.047592 
L 148.802007 57.762813 
L 148.060201 58.297579 
L 147.318395 59.861663 
L 146.576589 59.520079 
L 145.834783 58.280348 
L 145.092977 66.101887 
L 144.351171 65.92676 
L 143.609365 68.974219 
L 142.867559 69.358486 
L 142.125753 71.617468 
L 141.383946 75.926154 
L 140.64214 73.049205 
L 139.900334 73.475386 
L 139.158528 74.36285 
L 138.416722 75.767644 
L 137.674916 79.926132 
L 136.93311 78.263736 
L 136.191304 77.557324 
L 135.449498 72.796458 
L 134.707692 71.917277 
L 133.965886 70.8011 
L 133.22408 73.430868 
L 132.482274 72.53804 
L 131.740468 69.241322 
L 130.998662 66.702427 
L 130.256856 60.414 
L 129.51505 58.434723 
L 128.773244 54.759159 
L 128.031438 54.432301 
L 127.289632 54.528618 
L 126.547826 56.131934 
L 125.80602 55.968458 
L 125.064214 52.574385 
L 124.322408 54.567709 
L 123.580602 56.349383 
L 122.838796 56.307639 
L 122.09699 56.534113 
L 121.355184 57.837614 
L 120.613378 61.514278 
L 119.871572 62.235498 
L 119.129766 62.788035 
L 118.38796 67.21322 
L 117.646154 68.015663 
L 116.904348 69.525288 
L 116.162542 67.305187 
L 115.420736 65.674263 
L 114.67893 68.246545 
L 113.937124 69.713316 
L 113.195318 70.148506 
L 112.453512 68.736349 
L 111.711706 67.617726 
L 110.9699 64.476585 
L 110.228094 61.235598 
L 109.486288 62.70731 
L 108.744482 60.186367 
L 108.002676 57.009293 
L 107.26087 61.834483 
L 106.519064 59.366747 
L 105.777258 58.584397 
L 105.035452 58.158369 
L 104.293645 58.408827 
L 103.551839 65.288085 
L 102.810033 68.169475 
L 102.068227 68.198377 
L 101.326421 68.30837 
L 100.584615 68.448477 
L 99.842809 71.290836 
L 99.101003 69.199969 
L 98.359197 72.114173 
L 97.617391 74.052468 
L 96.875585 73.087441 
L 96.133779 73.57357 
L 95.391973 72.430206 
L 94.650167 71.398279 
L 93.908361 73.574787 
L 93.166555 69.967245 
L 92.424749 70.080551 
L 91.682943 67.883716 
L 90.941137 68.997762 
L 90.199331 72.387691 
L 89.457525 74.333556 
L 88.715719 70.742572 
L 87.973913 67.785779 
L 87.232107 67.167167 
L 86.490301 67.173704 
L 85.748495 67.813426 
L 85.006689 70.093725 
L 84.264883 72.329039 
L 83.523077 74.438557 
L 82.781271 71.182502 
L 82.039465 70.489266 
L 81.297659 72.025732 
L 80.555853 70.18296 
L 79.814047 69.365411 
L 79.072241 71.255505 
L 78.330435 73.480208 
L 77.588629 73.732331 
L 76.846823 74.735894 
L 76.105017 72.960004 
L 75.363211 74.223765 
L 74.621405 75.998561 
L 73.879599 75.387249 
L 73.137793 74.916538 
L 72.395987 75.820915 
L 71.654181 75.924873 
L 70.912375 78.456244 
L 70.170569 78.908673 
L 69.428763 79.912611 
L 68.686957 79.550305 
L 67.945151 84.952735 
L 67.203344 87.422999 
L 66.461538 88.389892 
L 65.719732 87.667015 
L 64.977926 90.84802 
L 64.23612 97.166801 
L 63.494314 99.673562 
L 62.752508 98.889086 
L 62.010702 102.474285 
L 61.268896 107.254584 
L 60.52709 112.10337 
L 59.785284 114.489649 
L 59.043478 115.606933 
L 58.301672 117.151982 
L 57.559866 120.234192 
L 56.81806 122.693789 
L 56.076254 124.451953 
L 55.334448 128.002383 
L 54.592642 131.285124 
L 53.850836 134.218747 
L 53.10903 137.491691 
L 52.367224 139.477065 
L 51.625418 140.6932 
L 50.883612 141.680327 
L 50.141806 143.291985 
L 49.4 142.443261 
z
" style="fill:#55a868;fill-opacity:0.2;"/>
   </g>
   <g id="line2d_21">
    <path clip-path="url(#p6743f2f992)" d="M 49.4 148.812184 
L 50.141806 148.349064 
L 50.883612 146.65419 
L 51.625418 145.574582 
L 52.367224 143.882951 
L 53.10903 142.67546 
L 53.850836 139.38238 
L 55.334448 135.079385 
L 56.076254 133.265873 
L 56.81806 130.605492 
L 57.559866 129.141454 
L 58.301672 126.002664 
L 59.043478 125.312268 
L 59.785284 122.950697 
L 61.268896 117.010899 
L 62.010702 116.169517 
L 62.752508 114.21062 
L 63.494314 112.734336 
L 64.23612 110.717971 
L 64.977926 107.704035 
L 65.719732 106.097015 
L 66.461538 106.164872 
L 67.203344 103.520526 
L 67.945151 101.920962 
L 69.428763 102.060324 
L 70.170569 98.943964 
L 70.912375 97.723114 
L 71.654181 94.643639 
L 72.395987 92.44821 
L 73.137793 93.536029 
L 73.879599 91.953843 
L 74.621405 88.987249 
L 75.363211 86.605923 
L 76.105017 87.302683 
L 77.588629 84.096761 
L 78.330435 84.719309 
L 79.072241 86.649386 
L 79.814047 83.552401 
L 80.555853 84.685854 
L 81.297659 84.447458 
L 82.039465 83.04836 
L 82.781271 82.608865 
L 83.523077 83.844037 
L 84.264883 83.608644 
L 85.006689 86.36242 
L 85.748495 88.114074 
L 86.490301 86.588691 
L 87.232107 86.099963 
L 87.973913 89.248009 
L 88.715719 89.634246 
L 89.457525 87.936119 
L 90.199331 89.973214 
L 90.941137 90.929554 
L 91.682943 91.353588 
L 92.424749 89.643972 
L 93.166555 86.760396 
L 93.908361 86.647515 
L 94.650167 88.558558 
L 95.391973 85.113591 
L 96.133779 84.124952 
L 96.875585 82.463508 
L 97.617391 82.626951 
L 98.359197 81.911102 
L 99.101003 79.228351 
L 99.842809 77.032652 
L 100.584615 77.703269 
L 101.326421 77.835142 
L 102.068227 74.719114 
L 102.810033 74.559898 
L 103.551839 75.581262 
L 104.293645 75.617077 
L 105.035452 73.811064 
L 105.777258 73.055954 
L 106.519064 74.739858 
L 107.26087 74.465622 
L 108.002676 75.445862 
L 108.744482 74.675949 
L 109.486288 76.147503 
L 110.228094 75.506427 
L 110.9699 73.794477 
L 111.711706 73.736822 
L 112.453512 73.139478 
L 113.195318 74.268321 
L 113.937124 73.260692 
L 114.67893 71.367462 
L 115.420736 73.486702 
L 116.162542 73.926224 
L 116.904348 74.891061 
L 117.646154 72.065322 
L 118.38796 74.589 
L 119.129766 74.175945 
L 119.871572 73.899732 
L 120.613378 74.25339 
L 121.355184 73.033608 
L 122.09699 75.334354 
L 122.838796 73.102349 
L 123.580602 71.79595 
L 124.322408 73.093268 
L 125.064214 70.956408 
L 125.80602 70.391978 
L 126.547826 68.837429 
L 127.289632 71.032643 
L 128.031438 71.25367 
L 128.773244 72.112345 
L 129.51505 73.891305 
L 130.256856 72.709678 
L 130.998662 71.754576 
L 131.740468 73.969015 
L 132.482274 71.054642 
L 133.22408 71.889448 
L 133.965886 71.759203 
L 134.707692 72.272963 
L 135.449498 70.482548 
L 136.191304 69.858519 
L 136.93311 70.511777 
L 137.674916 69.922162 
L 138.416722 70.245575 
L 139.158528 72.860727 
L 140.64214 72.762166 
L 141.383946 73.583715 
L 142.125753 75.545187 
L 142.867559 77.066346 
L 143.609365 76.59141 
L 144.351171 77.163836 
L 145.092977 75.476917 
L 145.834783 77.528236 
L 146.576589 76.909448 
L 147.318395 76.134874 
L 148.060201 75.545065 
L 148.802007 78.23368 
L 149.543813 77.060541 
L 151.027425 77.746938 
L 151.769231 79.784562 
L 152.511037 79.382755 
L 153.252843 79.51285 
L 153.994649 76.576846 
L 154.736455 78.357409 
L 155.478261 79.215876 
L 156.220067 81.386282 
L 156.961873 79.0699 
L 157.703679 79.084777 
L 158.445485 76.248797 
L 159.187291 74.988778 
L 160.670903 71.424242 
L 161.412709 69.704523 
L 162.154515 70.071896 
L 162.896321 67.675159 
L 163.638127 66.527962 
L 164.379933 63.830133 
L 165.121739 65.323167 
L 165.863545 66.083463 
L 166.605351 68.731473 
L 167.347157 68.034778 
L 168.088963 68.599603 
L 168.830769 69.309891 
L 169.572575 72.445687 
L 170.314381 72.618159 
L 171.056187 76.051343 
L 171.797993 73.783917 
L 172.539799 74.245604 
L 173.281605 72.505045 
L 174.023411 72.209363 
L 174.765217 71.345315 
L 176.248829 70.216238 
L 176.990635 71.423064 
L 177.732441 68.699811 
L 178.474247 69.124989 
L 179.216054 65.296999 
L 179.95786 67.19361 
L 180.699666 66.616336 
L 181.441472 66.917013 
L 182.183278 65.216694 
L 182.925084 65.995062 
L 183.66689 67.876315 
L 184.408696 68.567529 
L 185.150502 67.813034 
L 185.892308 69.3606 
L 186.634114 71.437495 
L 187.37592 71.794038 
L 188.117726 75.045095 
L 188.859532 72.677261 
L 189.601338 73.650701 
L 190.343144 74.144511 
L 191.08495 74.905649 
L 191.826756 74.295172 
L 192.568562 74.426508 
L 194.052174 79.624079 
L 194.79398 78.354518 
L 195.535786 80.037458 
L 196.277592 76.436225 
L 197.019398 80.855483 
L 197.761204 81.835181 
L 198.50301 82.10683 
L 199.244816 80.291509 
L 199.986622 80.602166 
L 200.728428 81.059227 
L 202.21204 77.032115 
L 202.953846 76.619685 
L 203.695652 76.720927 
L 204.437458 78.51312 
L 205.179264 77.591007 
L 205.92107 77.573674 
L 206.662876 77.741118 
L 207.404682 76.415955 
L 208.146488 75.376009 
L 208.888294 73.199407 
L 209.6301 72.019087 
L 210.371906 73.650262 
L 211.113712 73.371195 
L 212.597324 74.366542 
L 213.33913 73.506476 
L 214.080936 70.16432 
L 214.822742 68.535005 
L 215.564548 70.851658 
L 216.306355 69.484781 
L 217.048161 68.911306 
L 217.789967 69.08698 
L 220.015385 65.314304 
L 220.757191 62.390204 
L 221.498997 62.852343 
L 222.982609 67.318428 
L 223.724415 67.186242 
L 224.466221 67.690925 
L 225.208027 68.768074 
L 225.949833 67.577162 
L 226.691639 66.701516 
L 227.433445 67.533498 
L 228.175251 64.215008 
L 228.917057 67.030091 
L 229.658863 65.433267 
L 230.400669 65.782646 
L 231.142475 65.675442 
L 231.884281 64.145131 
L 232.626087 63.356358 
L 233.367893 63.390125 
L 234.109699 64.286311 
L 234.851505 65.837426 
L 235.593311 65.750937 
L 236.335117 69.944298 
L 237.076923 67.022202 
L 237.818729 66.299335 
L 238.560535 66.512004 
L 239.302341 66.18019 
L 240.044147 68.720769 
L 241.527759 70.923716 
L 242.269565 71.103588 
L 243.011371 69.520036 
L 243.753177 70.120085 
L 244.494983 71.704351 
L 245.236789 71.200047 
L 245.978595 70.856141 
L 246.720401 70.240033 
L 247.462207 72.10006 
L 248.204013 72.61376 
L 248.945819 74.10377 
L 249.687625 75.225845 
L 250.429431 76.961954 
L 251.171237 76.376096 
L 251.913043 78.994604 
L 252.654849 78.184465 
L 253.396656 82.401067 
L 254.138462 85.893971 
L 255.622074 83.952876 
L 256.36388 81.290601 
L 257.105686 80.510996 
L 257.847492 78.076176 
L 258.589298 77.128314 
L 259.331104 77.563679 
L 260.07291 74.401017 
L 260.814716 71.867779 
L 261.556522 70.540557 
L 262.298328 69.732065 
L 263.040134 68.572572 
L 263.78194 66.936244 
L 264.523746 65.817435 
L 265.265552 64.250257 
L 266.007358 66.09064 
L 266.749164 65.952102 
L 267.49097 66.733941 
L 268.232776 66.606582 
L 268.974582 67.111517 
L 269.716388 66.048846 
L 270.458194 64.065918 
L 271.2 65.717179 
L 271.2 65.717179 
" style="fill:none;stroke:#4c72b0;stroke-linecap:round;stroke-width:1.75;"/>
   </g>
   <g id="line2d_22">
    <path clip-path="url(#p6743f2f992)" d="M 49.4 145.719328 
L 50.141806 145.760994 
L 50.883612 144.61315 
L 51.625418 142.759428 
L 52.367224 142.040395 
L 53.10903 140.406444 
L 53.850836 137.655191 
L 54.592642 135.826624 
L 56.076254 129.740831 
L 56.81806 128.602439 
L 57.559866 126.253463 
L 58.301672 123.288252 
L 59.043478 121.594043 
L 59.785284 119.44358 
L 60.52709 117.818185 
L 61.268896 115.276324 
L 62.010702 113.515794 
L 62.752508 111.354912 
L 63.494314 111.513591 
L 64.23612 109.904932 
L 64.977926 104.978103 
L 65.719732 100.940583 
L 66.461538 100.260438 
L 67.203344 97.31561 
L 67.945151 95.207825 
L 68.686957 92.10028 
L 69.428763 90.845088 
L 70.170569 90.271118 
L 70.912375 90.352033 
L 71.654181 88.088323 
L 72.395987 87.002106 
L 73.137793 86.975577 
L 73.879599 88.014926 
L 74.621405 88.01437 
L 75.363211 86.495759 
L 76.846823 88.690534 
L 77.588629 89.493181 
L 78.330435 89.671564 
L 79.072241 88.068019 
L 79.814047 87.428085 
L 80.555853 87.963036 
L 81.297659 89.098858 
L 82.039465 89.416135 
L 82.781271 89.305517 
L 83.523077 91.624281 
L 84.264883 89.554842 
L 85.006689 88.656154 
L 85.748495 86.557806 
L 86.490301 86.566331 
L 87.232107 86.306619 
L 87.973913 86.499953 
L 88.715719 86.937957 
L 89.457525 87.039207 
L 90.199331 86.841258 
L 90.941137 84.334251 
L 91.682943 82.93765 
L 92.424749 85.028755 
L 93.166555 85.165986 
L 93.908361 85.790134 
L 94.650167 83.264591 
L 95.391973 83.774786 
L 96.133779 84.505937 
L 96.875585 82.963178 
L 97.617391 83.729601 
L 98.359197 83.686461 
L 99.101003 82.745471 
L 99.842809 82.544003 
L 100.584615 81.191215 
L 102.068227 81.152256 
L 102.810033 82.727785 
L 103.551839 80.92924 
L 104.293645 77.572818 
L 105.035452 76.200264 
L 105.777258 76.064452 
L 106.519064 74.40039 
L 107.26087 75.728424 
L 108.002676 74.262355 
L 108.744482 73.42382 
L 110.228094 75.172876 
L 110.9699 75.631872 
L 113.195318 81.42192 
L 113.937124 81.604531 
L 114.67893 82.153203 
L 115.420736 82.220026 
L 116.162542 83.390939 
L 116.904348 85.036939 
L 117.646154 82.418399 
L 118.38796 81.677199 
L 119.129766 81.313533 
L 119.871572 79.42187 
L 120.613378 78.976584 
L 121.355184 77.29104 
L 122.09699 76.910562 
L 122.838796 75.954998 
L 123.580602 75.677302 
L 124.322408 75.82615 
L 125.064214 73.827681 
L 125.80602 76.243372 
L 126.547826 76.025773 
L 127.289632 74.091009 
L 128.031438 74.741402 
L 128.773244 74.206083 
L 129.51505 76.990082 
L 130.256856 76.808466 
L 130.998662 80.94312 
L 131.740468 81.090343 
L 132.482274 81.97992 
L 133.22408 83.826194 
L 133.965886 82.095701 
L 134.707692 82.295206 
L 135.449498 82.843272 
L 137.674916 86.920214 
L 138.416722 85.983095 
L 139.158528 84.001821 
L 139.900334 84.614403 
L 140.64214 84.914064 
L 141.383946 85.442102 
L 142.125753 85.441476 
L 142.867559 85.975515 
L 143.609365 86.696119 
L 144.351171 84.513667 
L 145.092977 83.923532 
L 145.834783 80.784783 
L 146.576589 82.508871 
L 147.318395 81.629035 
L 148.060201 79.572175 
L 148.802007 79.428154 
L 149.543813 79.701676 
L 150.285619 79.713374 
L 151.769231 79.393447 
L 152.511037 81.414068 
L 153.994649 83.769596 
L 154.736455 82.210789 
L 155.478261 82.698762 
L 156.220067 81.203751 
L 156.961873 80.997367 
L 158.445485 78.433562 
L 159.187291 77.452192 
L 159.929097 78.555633 
L 160.670903 78.360396 
L 161.412709 77.538122 
L 162.154515 77.371165 
L 162.896321 78.403095 
L 163.638127 77.19985 
L 164.379933 80.83239 
L 165.121739 80.627689 
L 165.863545 79.143992 
L 166.605351 81.706808 
L 167.347157 82.848639 
L 168.088963 80.177115 
L 168.830769 78.051485 
L 169.572575 77.089314 
L 170.314381 77.898058 
L 171.056187 76.785898 
L 171.797993 77.909205 
L 172.539799 75.194249 
L 173.281605 76.131203 
L 174.023411 77.553711 
L 174.765217 75.64128 
L 175.507023 75.454169 
L 176.248829 76.322328 
L 176.990635 78.635446 
L 177.732441 80.142088 
L 178.474247 77.586441 
L 179.216054 77.731172 
L 179.95786 77.511865 
L 180.699666 79.152266 
L 181.441472 77.807123 
L 182.183278 77.610499 
L 182.925084 75.750915 
L 184.408696 72.881127 
L 185.892308 70.933743 
L 186.634114 73.138066 
L 187.37592 72.469052 
L 188.117726 72.478771 
L 188.859532 73.469366 
L 189.601338 73.286139 
L 190.343144 72.711059 
L 191.08495 75.890396 
L 191.826756 75.035594 
L 192.568562 76.080367 
L 193.310368 76.18332 
L 194.052174 74.032646 
L 194.79398 74.119803 
L 195.535786 74.589824 
L 196.277592 74.449805 
L 197.019398 72.29487 
L 197.761204 72.831009 
L 198.50301 72.551746 
L 199.244816 71.509327 
L 199.986622 73.658788 
L 200.728428 73.025603 
L 201.470234 74.506324 
L 202.21204 76.85471 
L 202.953846 74.362202 
L 203.695652 75.942074 
L 204.437458 76.185407 
L 205.179264 76.886533 
L 205.92107 75.254295 
L 206.662876 76.63908 
L 207.404682 76.443102 
L 208.146488 74.582242 
L 208.888294 75.237347 
L 209.6301 72.590661 
L 210.371906 72.254761 
L 211.113712 75.424278 
L 211.855518 73.320259 
L 212.597324 72.949228 
L 213.33913 72.014191 
L 214.080936 74.323517 
L 214.822742 74.333044 
L 215.564548 73.158774 
L 216.306355 72.364329 
L 217.048161 72.521226 
L 217.789967 72.904967 
L 218.531773 70.562048 
L 219.273579 69.000425 
L 220.015385 68.917104 
L 220.757191 69.587054 
L 221.498997 68.702351 
L 222.240803 68.362933 
L 222.982609 66.728812 
L 223.724415 65.963918 
L 224.466221 67.238853 
L 225.208027 65.423332 
L 225.949833 65.394751 
L 226.691639 66.61664 
L 227.433445 65.96331 
L 228.175251 67.87283 
L 228.917057 66.793242 
L 229.658863 69.696286 
L 230.400669 68.281667 
L 231.142475 68.753048 
L 231.884281 69.060749 
L 232.626087 71.207743 
L 233.367893 72.457155 
L 234.109699 72.772461 
L 234.851505 72.265873 
L 235.593311 71.327337 
L 236.335117 69.387611 
L 237.076923 68.969723 
L 237.818729 66.948139 
L 238.560535 66.336461 
L 239.302341 67.23108 
L 240.044147 69.992474 
L 240.785953 68.201559 
L 241.527759 67.510882 
L 242.269565 68.047454 
L 245.236789 75.357427 
L 245.978595 74.672336 
L 246.720401 75.255205 
L 247.462207 74.678619 
L 248.204013 72.844542 
L 248.945819 72.835508 
L 249.687625 73.444666 
L 250.429431 73.265392 
L 251.171237 71.632915 
L 251.913043 72.08642 
L 252.654849 69.829737 
L 253.396656 68.567526 
L 254.138462 69.882413 
L 254.880268 70.173389 
L 255.622074 68.958959 
L 256.36388 69.881453 
L 257.105686 69.028248 
L 257.847492 69.276647 
L 258.589298 68.873827 
L 259.331104 71.239405 
L 260.07291 71.086291 
L 260.814716 71.666197 
L 262.298328 72.421806 
L 263.040134 74.600442 
L 263.78194 77.337683 
L 264.523746 77.762088 
L 265.265552 81.445685 
L 266.007358 82.307719 
L 266.749164 81.415993 
L 267.49097 79.960939 
L 268.232776 79.574005 
L 269.716388 81.229759 
L 270.458194 82.452607 
L 271.2 80.106014 
L 271.2 80.106014 
" style="fill:none;stroke:#55a868;stroke-linecap:round;stroke-width:1.75;"/>
   </g>
   <g id="patch_3">
    <path d="M 49.4 160.84 
L 49.4 32.4092 
" style="fill:none;"/>
   </g>
   <g id="patch_4">
    <path d="M 271.2 160.84 
L 271.2 32.4092 
" style="fill:none;"/>
   </g>
   <g id="patch_5">
    <path d="M 49.4 160.84 
L 271.2 160.84 
" style="fill:none;"/>
   </g>
   <g id="patch_6">
    <path d="M 49.4 32.4092 
L 271.2 32.4092 
" style="fill:none;"/>
   </g>
   <g id="legend_1">
    <g id="line2d_23">
     <path d="M 54.6 17.35449 
L 67.6 17.35449 
" style="fill:none;stroke:#4c72b0;stroke-linecap:round;stroke-width:1.75;"/>
    </g>
    <g id="line2d_24"/>
    <g id="text_14">
     <!-- ddpg-tf1 -->
     <defs>
      <path d="M 40.234375 0 
L 40.234375 6.546875 
Q 35.296875 -1.171875 25.734375 -1.171875 
Q 19.53125 -1.171875 14.328125 2.25 
Q 9.125 5.671875 6.265625 11.796875 
Q 3.421875 17.921875 3.421875 25.875 
Q 3.421875 33.640625 6 39.96875 
Q 8.59375 46.296875 13.765625 49.65625 
Q 18.953125 53.03125 25.34375 53.03125 
Q 30.03125 53.03125 33.6875 51.046875 
Q 37.359375 49.078125 39.65625 45.90625 
L 39.65625 71.578125 
L 48.390625 71.578125 
L 48.390625 0 
z
M 12.453125 25.875 
Q 12.453125 15.921875 16.640625 10.984375 
Q 20.84375 6.0625 26.5625 6.0625 
Q 32.328125 6.0625 36.34375 10.765625 
Q 40.375 15.484375 40.375 25.140625 
Q 40.375 35.796875 36.265625 40.765625 
Q 32.171875 45.75 26.171875 45.75 
Q 20.3125 45.75 16.375 40.96875 
Q 12.453125 36.1875 12.453125 25.875 
z
" id="ArialMT-100"/>
      <path d="M 6.59375 -19.875 
L 6.59375 51.859375 
L 14.59375 51.859375 
L 14.59375 45.125 
Q 17.4375 49.078125 21 51.046875 
Q 24.5625 53.03125 29.640625 53.03125 
Q 36.28125 53.03125 41.359375 49.609375 
Q 46.4375 46.1875 49.015625 39.953125 
Q 51.609375 33.734375 51.609375 26.3125 
Q 51.609375 18.359375 48.75 11.984375 
Q 45.90625 5.609375 40.453125 2.21875 
Q 35.015625 -1.171875 29 -1.171875 
Q 24.609375 -1.171875 21.109375 0.6875 
Q 17.625 2.546875 15.375 5.375 
L 15.375 -19.875 
z
M 14.546875 25.640625 
Q 14.546875 15.625 18.59375 10.84375 
Q 22.65625 6.0625 28.421875 6.0625 
Q 34.28125 6.0625 38.453125 11.015625 
Q 42.625 15.96875 42.625 26.375 
Q 42.625 36.28125 38.546875 41.203125 
Q 34.46875 46.140625 28.8125 46.140625 
Q 23.1875 46.140625 18.859375 40.890625 
Q 14.546875 35.640625 14.546875 25.640625 
z
" id="ArialMT-112"/>
      <path d="M 4.984375 -4.296875 
L 13.53125 -5.5625 
Q 14.0625 -9.515625 16.5 -11.328125 
Q 19.78125 -13.765625 25.4375 -13.765625 
Q 31.546875 -13.765625 34.859375 -11.328125 
Q 38.1875 -8.890625 39.359375 -4.5 
Q 40.046875 -1.8125 39.984375 6.78125 
Q 34.234375 0 25.640625 0 
Q 14.9375 0 9.078125 7.71875 
Q 3.21875 15.4375 3.21875 26.21875 
Q 3.21875 33.640625 5.90625 39.90625 
Q 8.59375 46.1875 13.6875 49.609375 
Q 18.796875 53.03125 25.6875 53.03125 
Q 34.859375 53.03125 40.828125 45.609375 
L 40.828125 51.859375 
L 48.921875 51.859375 
L 48.921875 7.03125 
Q 48.921875 -5.078125 46.453125 -10.125 
Q 44 -15.1875 38.640625 -18.109375 
Q 33.296875 -21.046875 25.484375 -21.046875 
Q 16.21875 -21.046875 10.5 -16.875 
Q 4.78125 -12.703125 4.984375 -4.296875 
z
M 12.25 26.859375 
Q 12.25 16.65625 16.296875 11.96875 
Q 20.359375 7.28125 26.46875 7.28125 
Q 32.515625 7.28125 36.609375 11.9375 
Q 40.71875 16.609375 40.71875 26.5625 
Q 40.71875 36.078125 36.5 40.90625 
Q 32.28125 45.75 26.3125 45.75 
Q 20.453125 45.75 16.34375 40.984375 
Q 12.25 36.234375 12.25 26.859375 
z
" id="ArialMT-103"/>
      <path d="M 3.171875 21.484375 
L 3.171875 30.328125 
L 30.171875 30.328125 
L 30.171875 21.484375 
z
" id="ArialMT-45"/>
     </defs>
     <g style="fill:#262626;" transform="translate(78 21.90449)scale(0.13 -0.13)">
      <use xlink:href="#ArialMT-100"/>
      <use x="55.615234" xlink:href="#ArialMT-100"/>
      <use x="111.230469" xlink:href="#ArialMT-112"/>
      <use x="166.845703" xlink:href="#ArialMT-103"/>
      <use x="222.460938" xlink:href="#ArialMT-45"/>
      <use x="255.761719" xlink:href="#ArialMT-116"/>
      <use x="283.544922" xlink:href="#ArialMT-102"/>
      <use x="311.328125" xlink:href="#ArialMT-49"/>
     </g>
    </g>
    <g id="line2d_25">
     <path d="M 166.726719 17.35449 
L 179.726719 17.35449 
" style="fill:none;stroke:#55a868;stroke-linecap:round;stroke-width:1.75;"/>
    </g>
    <g id="line2d_26"/>
    <g id="text_15">
     <!-- ddpg-pytorch -->
     <defs>
      <path d="M 6.203125 -19.96875 
L 5.21875 -11.71875 
Q 8.109375 -12.5 10.25 -12.5 
Q 13.1875 -12.5 14.9375 -11.515625 
Q 16.703125 -10.546875 17.828125 -8.796875 
Q 18.65625 -7.46875 20.515625 -2.25 
Q 20.75 -1.515625 21.296875 -0.09375 
L 1.609375 51.859375 
L 11.078125 51.859375 
L 21.875 21.828125 
Q 23.96875 16.109375 25.640625 9.8125 
Q 27.15625 15.875 29.25 21.625 
L 40.328125 51.859375 
L 49.125 51.859375 
L 29.390625 -0.875 
Q 26.21875 -9.421875 24.46875 -12.640625 
Q 22.125 -17 19.09375 -19.015625 
Q 16.0625 -21.046875 11.859375 -21.046875 
Q 9.328125 -21.046875 6.203125 -19.96875 
z
" id="ArialMT-121"/>
      <path d="M 6.59375 0 
L 6.59375 71.578125 
L 15.375 71.578125 
L 15.375 45.90625 
Q 21.53125 53.03125 30.90625 53.03125 
Q 36.671875 53.03125 40.921875 50.75 
Q 45.171875 48.484375 47 44.484375 
Q 48.828125 40.484375 48.828125 32.859375 
L 48.828125 0 
L 40.046875 0 
L 40.046875 32.859375 
Q 40.046875 39.453125 37.1875 42.453125 
Q 34.328125 45.453125 29.109375 45.453125 
Q 25.203125 45.453125 21.75 43.421875 
Q 18.3125 41.40625 16.84375 37.9375 
Q 15.375 34.46875 15.375 28.375 
L 15.375 0 
z
" id="ArialMT-104"/>
     </defs>
     <g style="fill:#262626;" transform="translate(190.126719 21.90449)scale(0.13 -0.13)">
      <use xlink:href="#ArialMT-100"/>
      <use x="55.615234" xlink:href="#ArialMT-100"/>
      <use x="111.230469" xlink:href="#ArialMT-112"/>
      <use x="166.845703" xlink:href="#ArialMT-103"/>
      <use x="222.460938" xlink:href="#ArialMT-45"/>
      <use x="255.761719" xlink:href="#ArialMT-112"/>
      <use x="311.376953" xlink:href="#ArialMT-121"/>
      <use x="361.376953" xlink:href="#ArialMT-116"/>
      <use x="389.160156" xlink:href="#ArialMT-111"/>
      <use x="444.775391" xlink:href="#ArialMT-114"/>
      <use x="478.076172" xlink:href="#ArialMT-99"/>
      <use x="528.076172" xlink:href="#ArialMT-104"/>
     </g>
    </g>
   </g>
  </g>
 </g>
 <defs>
  <clipPath id="p6743f2f992">
   <rect height="128.4308" width="221.8" x="49.4" y="32.4092"/>
  </clipPath>
 </defs>
</svg>
