<?xml version="1.0" encoding="utf-8" standalone="no"?>
<!DOCTYPE svg PUBLIC "-//W3C//DTD SVG 1.1//EN"
  "http://www.w3.org/Graphics/SVG/1.1/DTD/svg11.dtd">
<!-- Created with matplotlib (https://matplotlib.org/) -->
<svg height="198pt" version="1.1" viewBox="0 0 277.2 198" width="277.2pt" xmlns="http://www.w3.org/2000/svg" xmlns:xlink="http://www.w3.org/1999/xlink">
 <defs>
  <style type="text/css">
*{stroke-linecap:butt;stroke-linejoin:round;}
  </style>
 </defs>
 <g id="figure_1">
  <g id="patch_1">
   <path d="M 0 198 
L 277.2 198 
L 277.2 0 
L 0 0 
z
" style="fill:#ffffff;"/>
  </g>
  <g id="axes_1">
   <g id="patch_2">
    <path d="M 49.4 160.84 
L 271.2 160.84 
L 271.2 32.4092 
L 49.4 32.4092 
z
" style="fill:#eaeaf2;"/>
   </g>
   <g id="matplotlib.axis_1">
    <g id="xtick_1">
     <g id="line2d_1">
      <path clip-path="url(#p1d1933ced8)" d="M 85.748569 160.84 
L 85.748569 32.4092 
" style="fill:none;stroke:#ffffff;stroke-linecap:round;"/>
     </g>
     <g id="line2d_2"/>
     <g id="text_1">
      <!-- 0.5 -->
      <defs>
       <path d="M 4.15625 35.296875 
Q 4.15625 48 6.765625 55.734375 
Q 9.375 63.484375 14.515625 67.671875 
Q 19.671875 71.875 27.484375 71.875 
Q 33.25 71.875 37.59375 69.546875 
Q 41.9375 67.234375 44.765625 62.859375 
Q 47.609375 58.5 49.21875 52.21875 
Q 50.828125 45.953125 50.828125 35.296875 
Q 50.828125 22.703125 48.234375 14.96875 
Q 45.65625 7.234375 40.5 3 
Q 35.359375 -1.21875 27.484375 -1.21875 
Q 17.140625 -1.21875 11.234375 6.203125 
Q 4.15625 15.140625 4.15625 35.296875 
z
M 13.1875 35.296875 
Q 13.1875 17.671875 17.3125 11.828125 
Q 21.4375 6 27.484375 6 
Q 33.546875 6 37.671875 11.859375 
Q 41.796875 17.71875 41.796875 35.296875 
Q 41.796875 52.984375 37.671875 58.78125 
Q 33.546875 64.59375 27.390625 64.59375 
Q 21.34375 64.59375 17.71875 59.46875 
Q 13.1875 52.9375 13.1875 35.296875 
z
" id="ArialMT-48"/>
       <path d="M 9.078125 0 
L 9.078125 10.015625 
L 19.09375 10.015625 
L 19.09375 0 
z
" id="ArialMT-46"/>
       <path d="M 4.15625 18.75 
L 13.375 19.53125 
Q 14.40625 12.796875 18.140625 9.390625 
Q 21.875 6 27.15625 6 
Q 33.5 6 37.890625 10.78125 
Q 42.28125 15.578125 42.28125 23.484375 
Q 42.28125 31 38.0625 35.34375 
Q 33.84375 39.703125 27 39.703125 
Q 22.75 39.703125 19.328125 37.765625 
Q 15.921875 35.84375 13.96875 32.765625 
L 5.71875 33.84375 
L 12.640625 70.609375 
L 48.25 70.609375 
L 48.25 62.203125 
L 19.671875 62.203125 
L 15.828125 42.96875 
Q 22.265625 47.46875 29.34375 47.46875 
Q 38.71875 47.46875 45.15625 40.96875 
Q 51.609375 34.46875 51.609375 24.265625 
Q 51.609375 14.546875 45.953125 7.46875 
Q 39.0625 -1.21875 27.15625 -1.21875 
Q 17.390625 -1.21875 11.203125 4.25 
Q 5.03125 9.71875 4.15625 18.75 
z
" id="ArialMT-53"/>
      </defs>
      <g style="fill:#262626;" transform="translate(78.798569 174.997813)scale(0.1 -0.1)">
       <use xlink:href="#ArialMT-48"/>
       <use x="55.615234" xlink:href="#ArialMT-46"/>
       <use x="83.398438" xlink:href="#ArialMT-53"/>
      </g>
     </g>
    </g>
    <g id="xtick_2">
     <g id="line2d_3">
      <path clip-path="url(#p1d1933ced8)" d="M 122.83887 160.84 
L 122.83887 32.4092 
" style="fill:none;stroke:#ffffff;stroke-linecap:round;"/>
     </g>
     <g id="line2d_4"/>
     <g id="text_2">
      <!-- 1.0 -->
      <defs>
       <path d="M 37.25 0 
L 28.46875 0 
L 28.46875 56 
Q 25.296875 52.984375 20.140625 49.953125 
Q 14.984375 46.921875 10.890625 45.40625 
L 10.890625 53.90625 
Q 18.265625 57.375 23.78125 62.296875 
Q 29.296875 67.234375 31.59375 71.875 
L 37.25 71.875 
z
" id="ArialMT-49"/>
      </defs>
      <g style="fill:#262626;" transform="translate(115.88887 174.997813)scale(0.1 -0.1)">
       <use xlink:href="#ArialMT-49"/>
       <use x="55.615234" xlink:href="#ArialMT-46"/>
       <use x="83.398438" xlink:href="#ArialMT-48"/>
      </g>
     </g>
    </g>
    <g id="xtick_3">
     <g id="line2d_5">
      <path clip-path="url(#p1d1933ced8)" d="M 159.929171 160.84 
L 159.929171 32.4092 
" style="fill:none;stroke:#ffffff;stroke-linecap:round;"/>
     </g>
     <g id="line2d_6"/>
     <g id="text_3">
      <!-- 1.5 -->
      <g style="fill:#262626;" transform="translate(152.979171 174.997813)scale(0.1 -0.1)">
       <use xlink:href="#ArialMT-49"/>
       <use x="55.615234" xlink:href="#ArialMT-46"/>
       <use x="83.398438" xlink:href="#ArialMT-53"/>
      </g>
     </g>
    </g>
    <g id="xtick_4">
     <g id="line2d_7">
      <path clip-path="url(#p1d1933ced8)" d="M 197.019472 160.84 
L 197.019472 32.4092 
" style="fill:none;stroke:#ffffff;stroke-linecap:round;"/>
     </g>
     <g id="line2d_8"/>
     <g id="text_4">
      <!-- 2.0 -->
      <defs>
       <path d="M 50.34375 8.453125 
L 50.34375 0 
L 3.03125 0 
Q 2.9375 3.171875 4.046875 6.109375 
Q 5.859375 10.9375 9.828125 15.625 
Q 13.8125 20.3125 21.34375 26.46875 
Q 33.015625 36.03125 37.109375 41.625 
Q 41.21875 47.21875 41.21875 52.203125 
Q 41.21875 57.421875 37.46875 61 
Q 33.734375 64.59375 27.734375 64.59375 
Q 21.390625 64.59375 17.578125 60.78125 
Q 13.765625 56.984375 13.71875 50.25 
L 4.6875 51.171875 
Q 5.609375 61.28125 11.65625 66.578125 
Q 17.71875 71.875 27.9375 71.875 
Q 38.234375 71.875 44.234375 66.15625 
Q 50.25 60.453125 50.25 52 
Q 50.25 47.703125 48.484375 43.546875 
Q 46.734375 39.40625 42.65625 34.8125 
Q 38.578125 30.21875 29.109375 22.21875 
Q 21.1875 15.578125 18.9375 13.203125 
Q 16.703125 10.84375 15.234375 8.453125 
z
" id="ArialMT-50"/>
      </defs>
      <g style="fill:#262626;" transform="translate(190.069472 174.997813)scale(0.1 -0.1)">
       <use xlink:href="#ArialMT-50"/>
       <use x="55.615234" xlink:href="#ArialMT-46"/>
       <use x="83.398438" xlink:href="#ArialMT-48"/>
      </g>
     </g>
    </g>
    <g id="xtick_5">
     <g id="line2d_9">
      <path clip-path="url(#p1d1933ced8)" d="M 234.109773 160.84 
L 234.109773 32.4092 
" style="fill:none;stroke:#ffffff;stroke-linecap:round;"/>
     </g>
     <g id="line2d_10"/>
     <g id="text_5">
      <!-- 2.5 -->
      <g style="fill:#262626;" transform="translate(227.159773 174.997813)scale(0.1 -0.1)">
       <use xlink:href="#ArialMT-50"/>
       <use x="55.615234" xlink:href="#ArialMT-46"/>
       <use x="83.398438" xlink:href="#ArialMT-53"/>
      </g>
     </g>
    </g>
    <g id="text_6">
     <!-- TotalEnvInteracts -->
     <defs>
      <path d="M 25.921875 0 
L 25.921875 63.140625 
L 2.34375 63.140625 
L 2.34375 71.578125 
L 59.078125 71.578125 
L 59.078125 63.140625 
L 35.40625 63.140625 
L 35.40625 0 
z
" id="ArialMT-84"/>
      <path d="M 3.328125 25.921875 
Q 3.328125 40.328125 11.328125 47.265625 
Q 18.015625 53.03125 27.640625 53.03125 
Q 38.328125 53.03125 45.109375 46.015625 
Q 51.90625 39.015625 51.90625 26.65625 
Q 51.90625 16.65625 48.90625 10.90625 
Q 45.90625 5.171875 40.15625 2 
Q 34.421875 -1.171875 27.640625 -1.171875 
Q 16.75 -1.171875 10.03125 5.8125 
Q 3.328125 12.796875 3.328125 25.921875 
z
M 12.359375 25.921875 
Q 12.359375 15.96875 16.703125 11.015625 
Q 21.046875 6.0625 27.640625 6.0625 
Q 34.1875 6.0625 38.53125 11.03125 
Q 42.875 16.015625 42.875 26.21875 
Q 42.875 35.84375 38.5 40.796875 
Q 34.125 45.75 27.640625 45.75 
Q 21.046875 45.75 16.703125 40.8125 
Q 12.359375 35.890625 12.359375 25.921875 
z
" id="ArialMT-111"/>
      <path d="M 25.78125 7.859375 
L 27.046875 0.09375 
Q 23.34375 -0.6875 20.40625 -0.6875 
Q 15.625 -0.6875 12.984375 0.828125 
Q 10.359375 2.34375 9.28125 4.8125 
Q 8.203125 7.28125 8.203125 15.1875 
L 8.203125 45.015625 
L 1.765625 45.015625 
L 1.765625 51.859375 
L 8.203125 51.859375 
L 8.203125 64.703125 
L 16.9375 69.96875 
L 16.9375 51.859375 
L 25.78125 51.859375 
L 25.78125 45.015625 
L 16.9375 45.015625 
L 16.9375 14.703125 
Q 16.9375 10.9375 17.40625 9.859375 
Q 17.875 8.796875 18.921875 8.15625 
Q 19.96875 7.515625 21.921875 7.515625 
Q 23.390625 7.515625 25.78125 7.859375 
z
" id="ArialMT-116"/>
      <path d="M 40.4375 6.390625 
Q 35.546875 2.25 31.03125 0.53125 
Q 26.515625 -1.171875 21.34375 -1.171875 
Q 12.796875 -1.171875 8.203125 3 
Q 3.609375 7.171875 3.609375 13.671875 
Q 3.609375 17.484375 5.34375 20.625 
Q 7.078125 23.78125 9.890625 25.6875 
Q 12.703125 27.59375 16.21875 28.5625 
Q 18.796875 29.25 24.03125 29.890625 
Q 34.671875 31.15625 39.703125 32.90625 
Q 39.75 34.71875 39.75 35.203125 
Q 39.75 40.578125 37.25 42.78125 
Q 33.890625 45.75 27.25 45.75 
Q 21.046875 45.75 18.09375 43.578125 
Q 15.140625 41.40625 13.71875 35.890625 
L 5.125 37.0625 
Q 6.296875 42.578125 8.984375 45.96875 
Q 11.671875 49.359375 16.75 51.1875 
Q 21.828125 53.03125 28.515625 53.03125 
Q 35.15625 53.03125 39.296875 51.46875 
Q 43.453125 49.90625 45.40625 47.53125 
Q 47.359375 45.171875 48.140625 41.546875 
Q 48.578125 39.3125 48.578125 33.453125 
L 48.578125 21.734375 
Q 48.578125 9.46875 49.140625 6.21875 
Q 49.703125 2.984375 51.375 0 
L 42.1875 0 
Q 40.828125 2.734375 40.4375 6.390625 
z
M 39.703125 26.03125 
Q 34.90625 24.078125 25.34375 22.703125 
Q 19.921875 21.921875 17.671875 20.9375 
Q 15.4375 19.96875 14.203125 18.09375 
Q 12.984375 16.21875 12.984375 13.921875 
Q 12.984375 10.40625 15.640625 8.0625 
Q 18.3125 5.71875 23.4375 5.71875 
Q 28.515625 5.71875 32.46875 7.9375 
Q 36.421875 10.15625 38.28125 14.015625 
Q 39.703125 17 39.703125 22.796875 
z
" id="ArialMT-97"/>
      <path d="M 6.390625 0 
L 6.390625 71.578125 
L 15.1875 71.578125 
L 15.1875 0 
z
" id="ArialMT-108"/>
      <path d="M 7.90625 0 
L 7.90625 71.578125 
L 59.671875 71.578125 
L 59.671875 63.140625 
L 17.390625 63.140625 
L 17.390625 41.21875 
L 56.984375 41.21875 
L 56.984375 32.8125 
L 17.390625 32.8125 
L 17.390625 8.453125 
L 61.328125 8.453125 
L 61.328125 0 
z
" id="ArialMT-69"/>
      <path d="M 6.59375 0 
L 6.59375 51.859375 
L 14.5 51.859375 
L 14.5 44.484375 
Q 20.21875 53.03125 31 53.03125 
Q 35.6875 53.03125 39.625 51.34375 
Q 43.5625 49.65625 45.515625 46.921875 
Q 47.46875 44.1875 48.25 40.4375 
Q 48.734375 37.984375 48.734375 31.890625 
L 48.734375 0 
L 39.9375 0 
L 39.9375 31.546875 
Q 39.9375 36.921875 38.90625 39.578125 
Q 37.890625 42.234375 35.28125 43.8125 
Q 32.671875 45.40625 29.15625 45.40625 
Q 23.53125 45.40625 19.453125 41.84375 
Q 15.375 38.28125 15.375 28.328125 
L 15.375 0 
z
" id="ArialMT-110"/>
      <path d="M 21 0 
L 1.265625 51.859375 
L 10.546875 51.859375 
L 21.6875 20.796875 
Q 23.484375 15.765625 25 10.359375 
Q 26.171875 14.453125 28.265625 20.21875 
L 39.796875 51.859375 
L 48.828125 51.859375 
L 29.203125 0 
z
" id="ArialMT-118"/>
      <path d="M 9.328125 0 
L 9.328125 71.578125 
L 18.796875 71.578125 
L 18.796875 0 
z
" id="ArialMT-73"/>
      <path d="M 42.09375 16.703125 
L 51.171875 15.578125 
Q 49.03125 7.625 43.21875 3.21875 
Q 37.40625 -1.171875 28.375 -1.171875 
Q 17 -1.171875 10.328125 5.828125 
Q 3.65625 12.84375 3.65625 25.484375 
Q 3.65625 38.578125 10.390625 45.796875 
Q 17.140625 53.03125 27.875 53.03125 
Q 38.28125 53.03125 44.875 45.953125 
Q 51.46875 38.875 51.46875 26.03125 
Q 51.46875 25.25 51.421875 23.6875 
L 12.75 23.6875 
Q 13.234375 15.140625 17.578125 10.59375 
Q 21.921875 6.0625 28.421875 6.0625 
Q 33.25 6.0625 36.671875 8.59375 
Q 40.09375 11.140625 42.09375 16.703125 
z
M 13.234375 30.90625 
L 42.1875 30.90625 
Q 41.609375 37.453125 38.875 40.71875 
Q 34.671875 45.796875 27.984375 45.796875 
Q 21.921875 45.796875 17.796875 41.75 
Q 13.671875 37.703125 13.234375 30.90625 
z
" id="ArialMT-101"/>
      <path d="M 6.5 0 
L 6.5 51.859375 
L 14.40625 51.859375 
L 14.40625 44 
Q 17.4375 49.515625 20 51.265625 
Q 22.5625 53.03125 25.640625 53.03125 
Q 30.078125 53.03125 34.671875 50.203125 
L 31.640625 42.046875 
Q 28.421875 43.953125 25.203125 43.953125 
Q 22.3125 43.953125 20.015625 42.21875 
Q 17.71875 40.484375 16.75 37.40625 
Q 15.28125 32.71875 15.28125 27.15625 
L 15.28125 0 
z
" id="ArialMT-114"/>
      <path d="M 40.4375 19 
L 49.078125 17.875 
Q 47.65625 8.9375 41.8125 3.875 
Q 35.984375 -1.171875 27.484375 -1.171875 
Q 16.84375 -1.171875 10.375 5.78125 
Q 3.90625 12.75 3.90625 25.734375 
Q 3.90625 34.125 6.6875 40.421875 
Q 9.46875 46.734375 15.15625 49.875 
Q 20.84375 53.03125 27.546875 53.03125 
Q 35.984375 53.03125 41.359375 48.75 
Q 46.734375 44.484375 48.25 36.625 
L 39.703125 35.296875 
Q 38.484375 40.53125 35.375 43.15625 
Q 32.28125 45.796875 27.875 45.796875 
Q 21.234375 45.796875 17.078125 41.03125 
Q 12.9375 36.28125 12.9375 25.984375 
Q 12.9375 15.53125 16.9375 10.796875 
Q 20.953125 6.0625 27.390625 6.0625 
Q 32.5625 6.0625 36.03125 9.234375 
Q 39.5 12.40625 40.4375 19 
z
" id="ArialMT-99"/>
      <path d="M 3.078125 15.484375 
L 11.765625 16.84375 
Q 12.5 11.625 15.84375 8.84375 
Q 19.1875 6.0625 25.203125 6.0625 
Q 31.25 6.0625 34.171875 8.515625 
Q 37.109375 10.984375 37.109375 14.3125 
Q 37.109375 17.28125 34.515625 19 
Q 32.71875 20.171875 25.53125 21.96875 
Q 15.875 24.421875 12.140625 26.203125 
Q 8.40625 27.984375 6.46875 31.125 
Q 4.546875 34.28125 4.546875 38.09375 
Q 4.546875 41.546875 6.125 44.5 
Q 7.71875 47.46875 10.453125 49.421875 
Q 12.5 50.921875 16.03125 51.96875 
Q 19.578125 53.03125 23.640625 53.03125 
Q 29.734375 53.03125 34.34375 51.265625 
Q 38.96875 49.515625 41.15625 46.5 
Q 43.359375 43.5 44.1875 38.484375 
L 35.59375 37.3125 
Q 35.015625 41.3125 32.203125 43.546875 
Q 29.390625 45.796875 24.265625 45.796875 
Q 18.21875 45.796875 15.625 43.796875 
Q 13.03125 41.796875 13.03125 39.109375 
Q 13.03125 37.40625 14.109375 36.03125 
Q 15.1875 34.625 17.484375 33.6875 
Q 18.796875 33.203125 25.25 31.453125 
Q 34.578125 28.953125 38.25 27.359375 
Q 41.9375 25.78125 44.03125 22.75 
Q 46.140625 19.734375 46.140625 15.234375 
Q 46.140625 10.84375 43.578125 6.953125 
Q 41.015625 3.078125 36.171875 0.953125 
Q 31.34375 -1.171875 25.25 -1.171875 
Q 15.140625 -1.171875 9.84375 3.03125 
Q 4.546875 7.234375 3.078125 15.484375 
z
" id="ArialMT-115"/>
     </defs>
     <g style="fill:#262626;" transform="translate(117.515156 188.858906)scale(0.11 -0.11)">
      <use xlink:href="#ArialMT-84"/>
      <use x="60.912109" xlink:href="#ArialMT-111"/>
      <use x="116.527344" xlink:href="#ArialMT-116"/>
      <use x="144.310547" xlink:href="#ArialMT-97"/>
      <use x="199.925781" xlink:href="#ArialMT-108"/>
      <use x="222.142578" xlink:href="#ArialMT-69"/>
      <use x="288.841797" xlink:href="#ArialMT-110"/>
      <use x="344.457031" xlink:href="#ArialMT-118"/>
      <use x="394.457031" xlink:href="#ArialMT-73"/>
      <use x="422.240234" xlink:href="#ArialMT-110"/>
      <use x="477.855469" xlink:href="#ArialMT-116"/>
      <use x="505.638672" xlink:href="#ArialMT-101"/>
      <use x="561.253906" xlink:href="#ArialMT-114"/>
      <use x="594.554688" xlink:href="#ArialMT-97"/>
      <use x="650.169922" xlink:href="#ArialMT-99"/>
      <use x="700.169922" xlink:href="#ArialMT-116"/>
      <use x="727.953125" xlink:href="#ArialMT-115"/>
     </g>
    </g>
    <g id="text_7">
     <!-- 1e6 -->
     <defs>
      <path d="M 49.75 54.046875 
L 41.015625 53.375 
Q 39.84375 58.546875 37.703125 60.890625 
Q 34.125 64.65625 28.90625 64.65625 
Q 24.703125 64.65625 21.53125 62.3125 
Q 17.390625 59.28125 14.984375 53.46875 
Q 12.59375 47.65625 12.5 36.921875 
Q 15.671875 41.75 20.265625 44.09375 
Q 24.859375 46.4375 29.890625 46.4375 
Q 38.671875 46.4375 44.84375 39.96875 
Q 51.03125 33.5 51.03125 23.25 
Q 51.03125 16.5 48.125 10.71875 
Q 45.21875 4.9375 40.140625 1.859375 
Q 35.0625 -1.21875 28.609375 -1.21875 
Q 17.625 -1.21875 10.6875 6.859375 
Q 3.765625 14.9375 3.765625 33.5 
Q 3.765625 54.25 11.421875 63.671875 
Q 18.109375 71.875 29.4375 71.875 
Q 37.890625 71.875 43.28125 67.140625 
Q 48.6875 62.40625 49.75 54.046875 
z
M 13.875 23.1875 
Q 13.875 18.65625 15.796875 14.5 
Q 17.71875 10.359375 21.1875 8.171875 
Q 24.65625 6 28.46875 6 
Q 34.03125 6 38.03125 10.484375 
Q 42.046875 14.984375 42.046875 22.703125 
Q 42.046875 30.125 38.078125 34.390625 
Q 34.125 38.671875 28.125 38.671875 
Q 22.171875 38.671875 18.015625 34.390625 
Q 13.875 30.125 13.875 23.1875 
z
" id="ArialMT-54"/>
     </defs>
     <g style="fill:#262626;" transform="translate(254.517187 187.143125)scale(0.1 -0.1)">
      <use xlink:href="#ArialMT-49"/>
      <use x="55.615234" xlink:href="#ArialMT-101"/>
      <use x="111.230469" xlink:href="#ArialMT-54"/>
     </g>
    </g>
   </g>
   <g id="matplotlib.axis_2">
    <g id="ytick_1">
     <g id="line2d_11">
      <path clip-path="url(#p1d1933ced8)" d="M 49.4 155.560976 
L 271.2 155.560976 
" style="fill:none;stroke:#ffffff;stroke-linecap:round;"/>
     </g>
     <g id="line2d_12"/>
     <g id="text_8">
      <!-- 0 -->
      <g style="fill:#262626;" transform="translate(36.839062 159.139882)scale(0.1 -0.1)">
       <use xlink:href="#ArialMT-48"/>
      </g>
     </g>
    </g>
    <g id="ytick_2">
     <g id="line2d_13">
      <path clip-path="url(#p1d1933ced8)" d="M 49.4 125.605886 
L 271.2 125.605886 
" style="fill:none;stroke:#ffffff;stroke-linecap:round;"/>
     </g>
     <g id="line2d_14"/>
     <g id="text_9">
      <!-- 1000 -->
      <g style="fill:#262626;" transform="translate(20.15625 129.184792)scale(0.1 -0.1)">
       <use xlink:href="#ArialMT-49"/>
       <use x="55.615234" xlink:href="#ArialMT-48"/>
       <use x="111.230469" xlink:href="#ArialMT-48"/>
       <use x="166.845703" xlink:href="#ArialMT-48"/>
      </g>
     </g>
    </g>
    <g id="ytick_3">
     <g id="line2d_15">
      <path clip-path="url(#p1d1933ced8)" d="M 49.4 95.650796 
L 271.2 95.650796 
" style="fill:none;stroke:#ffffff;stroke-linecap:round;"/>
     </g>
     <g id="line2d_16"/>
     <g id="text_10">
      <!-- 2000 -->
      <g style="fill:#262626;" transform="translate(20.15625 99.229703)scale(0.1 -0.1)">
       <use xlink:href="#ArialMT-50"/>
       <use x="55.615234" xlink:href="#ArialMT-48"/>
       <use x="111.230469" xlink:href="#ArialMT-48"/>
       <use x="166.845703" xlink:href="#ArialMT-48"/>
      </g>
     </g>
    </g>
    <g id="ytick_4">
     <g id="line2d_17">
      <path clip-path="url(#p1d1933ced8)" d="M 49.4 65.695707 
L 271.2 65.695707 
" style="fill:none;stroke:#ffffff;stroke-linecap:round;"/>
     </g>
     <g id="line2d_18"/>
     <g id="text_11">
      <!-- 3000 -->
      <defs>
       <path d="M 4.203125 18.890625 
L 12.984375 20.0625 
Q 14.5 12.59375 18.140625 9.296875 
Q 21.78125 6 27 6 
Q 33.203125 6 37.46875 10.296875 
Q 41.75 14.59375 41.75 20.953125 
Q 41.75 27 37.796875 30.921875 
Q 33.84375 34.859375 27.734375 34.859375 
Q 25.25 34.859375 21.53125 33.890625 
L 22.515625 41.609375 
Q 23.390625 41.5 23.921875 41.5 
Q 29.546875 41.5 34.03125 44.421875 
Q 38.53125 47.359375 38.53125 53.46875 
Q 38.53125 58.296875 35.25 61.46875 
Q 31.984375 64.65625 26.8125 64.65625 
Q 21.6875 64.65625 18.265625 61.421875 
Q 14.84375 58.203125 13.875 51.765625 
L 5.078125 53.328125 
Q 6.6875 62.15625 12.390625 67.015625 
Q 18.109375 71.875 26.609375 71.875 
Q 32.46875 71.875 37.390625 69.359375 
Q 42.328125 66.84375 44.9375 62.5 
Q 47.5625 58.15625 47.5625 53.265625 
Q 47.5625 48.640625 45.0625 44.828125 
Q 42.578125 41.015625 37.703125 38.765625 
Q 44.046875 37.3125 47.5625 32.6875 
Q 51.078125 28.078125 51.078125 21.140625 
Q 51.078125 11.765625 44.234375 5.25 
Q 37.40625 -1.265625 26.953125 -1.265625 
Q 17.53125 -1.265625 11.296875 4.34375 
Q 5.078125 9.96875 4.203125 18.890625 
z
" id="ArialMT-51"/>
      </defs>
      <g style="fill:#262626;" transform="translate(20.15625 69.274613)scale(0.1 -0.1)">
       <use xlink:href="#ArialMT-51"/>
       <use x="55.615234" xlink:href="#ArialMT-48"/>
       <use x="111.230469" xlink:href="#ArialMT-48"/>
       <use x="166.845703" xlink:href="#ArialMT-48"/>
      </g>
     </g>
    </g>
    <g id="ytick_5">
     <g id="line2d_19">
      <path clip-path="url(#p1d1933ced8)" d="M 49.4 35.740617 
L 271.2 35.740617 
" style="fill:none;stroke:#ffffff;stroke-linecap:round;"/>
     </g>
     <g id="line2d_20"/>
     <g id="text_12">
      <!-- 4000 -->
      <defs>
       <path d="M 32.328125 0 
L 32.328125 17.140625 
L 1.265625 17.140625 
L 1.265625 25.203125 
L 33.9375 71.578125 
L 41.109375 71.578125 
L 41.109375 25.203125 
L 50.78125 25.203125 
L 50.78125 17.140625 
L 41.109375 17.140625 
L 41.109375 0 
z
M 32.328125 25.203125 
L 32.328125 57.46875 
L 9.90625 25.203125 
z
" id="ArialMT-52"/>
      </defs>
      <g style="fill:#262626;" transform="translate(20.15625 39.319523)scale(0.1 -0.1)">
       <use xlink:href="#ArialMT-52"/>
       <use x="55.615234" xlink:href="#ArialMT-48"/>
       <use x="111.230469" xlink:href="#ArialMT-48"/>
       <use x="166.845703" xlink:href="#ArialMT-48"/>
      </g>
     </g>
    </g>
    <g id="text_13">
     <!-- Performance -->
     <defs>
      <path d="M 7.71875 0 
L 7.71875 71.578125 
L 34.71875 71.578125 
Q 41.84375 71.578125 45.609375 70.90625 
Q 50.875 70.015625 54.4375 67.546875 
Q 58.015625 65.09375 60.1875 60.640625 
Q 62.359375 56.203125 62.359375 50.875 
Q 62.359375 41.75 56.546875 35.421875 
Q 50.734375 29.109375 35.546875 29.109375 
L 17.1875 29.109375 
L 17.1875 0 
z
M 17.1875 37.546875 
L 35.6875 37.546875 
Q 44.875 37.546875 48.734375 40.96875 
Q 52.59375 44.390625 52.59375 50.59375 
Q 52.59375 55.078125 50.3125 58.265625 
Q 48.046875 61.46875 44.34375 62.5 
Q 41.9375 63.140625 35.5 63.140625 
L 17.1875 63.140625 
z
" id="ArialMT-80"/>
      <path d="M 8.6875 0 
L 8.6875 45.015625 
L 0.921875 45.015625 
L 0.921875 51.859375 
L 8.6875 51.859375 
L 8.6875 57.375 
Q 8.6875 62.59375 9.625 65.140625 
Q 10.890625 68.5625 14.078125 70.671875 
Q 17.28125 72.796875 23.046875 72.796875 
Q 26.765625 72.796875 31.25 71.921875 
L 29.9375 64.265625 
Q 27.203125 64.75 24.75 64.75 
Q 20.75 64.75 19.09375 63.03125 
Q 17.4375 61.328125 17.4375 56.640625 
L 17.4375 51.859375 
L 27.546875 51.859375 
L 27.546875 45.015625 
L 17.4375 45.015625 
L 17.4375 0 
z
" id="ArialMT-102"/>
      <path d="M 6.59375 0 
L 6.59375 51.859375 
L 14.453125 51.859375 
L 14.453125 44.578125 
Q 16.890625 48.390625 20.9375 50.703125 
Q 25 53.03125 30.171875 53.03125 
Q 35.9375 53.03125 39.625 50.640625 
Q 43.3125 48.25 44.828125 43.953125 
Q 50.984375 53.03125 60.84375 53.03125 
Q 68.5625 53.03125 72.703125 48.75 
Q 76.859375 44.484375 76.859375 35.59375 
L 76.859375 0 
L 68.109375 0 
L 68.109375 32.671875 
Q 68.109375 37.9375 67.25 40.25 
Q 66.40625 42.578125 64.15625 43.984375 
Q 61.921875 45.40625 58.890625 45.40625 
Q 53.421875 45.40625 49.796875 41.765625 
Q 46.1875 38.140625 46.1875 30.125 
L 46.1875 0 
L 37.40625 0 
L 37.40625 33.6875 
Q 37.40625 39.546875 35.25 42.46875 
Q 33.109375 45.40625 28.21875 45.40625 
Q 24.515625 45.40625 21.359375 43.453125 
Q 18.21875 41.5 16.796875 37.734375 
Q 15.375 33.984375 15.375 26.90625 
L 15.375 0 
z
" id="ArialMT-109"/>
     </defs>
     <g style="fill:#262626;" transform="translate(13.97 128.107803)rotate(-90)scale(0.11 -0.11)">
      <use xlink:href="#ArialMT-80"/>
      <use x="66.699219" xlink:href="#ArialMT-101"/>
      <use x="122.314453" xlink:href="#ArialMT-114"/>
      <use x="155.615234" xlink:href="#ArialMT-102"/>
      <use x="183.398438" xlink:href="#ArialMT-111"/>
      <use x="239.013672" xlink:href="#ArialMT-114"/>
      <use x="272.314453" xlink:href="#ArialMT-109"/>
      <use x="355.615234" xlink:href="#ArialMT-97"/>
      <use x="411.230469" xlink:href="#ArialMT-110"/>
      <use x="466.845703" xlink:href="#ArialMT-99"/>
      <use x="516.845703" xlink:href="#ArialMT-101"/>
     </g>
    </g>
   </g>
   <g id="PolyCollection_1">
    <path clip-path="url(#p1d1933ced8)" d="M 49.4 152.359906 
L 49.4 155.002236 
L 50.141806 154.68301 
L 50.883612 154.482902 
L 51.625418 154.222949 
L 52.367224 154.268498 
L 53.10903 154.181431 
L 53.850836 154.134037 
L 54.592642 153.995562 
L 55.334448 153.791157 
L 56.076254 153.703325 
L 56.81806 153.448771 
L 57.559866 153.420235 
L 58.301672 153.397086 
L 59.043478 153.197044 
L 59.785284 153.15754 
L 60.52709 153.005553 
L 61.268896 152.958773 
L 62.010702 152.791005 
L 62.752508 152.794779 
L 63.494314 153.005386 
L 64.23612 152.808 
L 64.977926 152.513376 
L 65.719732 152.371794 
L 66.461538 151.878404 
L 67.203344 151.771547 
L 67.945151 151.663294 
L 68.686957 150.6004 
L 69.428763 149.940513 
L 70.170569 149.379613 
L 70.912375 149.037243 
L 71.654181 148.024452 
L 72.395987 147.476567 
L 73.137793 146.697364 
L 73.879599 145.986415 
L 74.621405 145.659581 
L 75.363211 145.470848 
L 76.105017 144.804093 
L 76.846823 144.625685 
L 77.588629 144.470344 
L 78.330435 144.333552 
L 79.072241 144.075422 
L 79.814047 143.982015 
L 80.555853 143.453149 
L 81.297659 143.602573 
L 82.039465 143.742789 
L 82.781271 143.511245 
L 83.523077 143.879493 
L 84.264883 144.068954 
L 85.006689 144.647829 
L 85.748495 143.700927 
L 86.490301 142.622064 
L 87.232107 142.3759 
L 87.973913 142.904189 
L 88.715719 143.716287 
L 89.457525 143.111743 
L 90.199331 141.722654 
L 90.941137 141.357799 
L 91.682943 140.985681 
L 92.424749 140.136023 
L 93.166555 139.716745 
L 93.908361 138.926362 
L 94.650167 138.738265 
L 95.391973 138.672965 
L 96.133779 137.929201 
L 96.875585 136.607208 
L 97.617391 136.406623 
L 98.359197 136.436128 
L 99.101003 136.610159 
L 99.842809 135.05302 
L 100.584615 134.769376 
L 101.326421 133.782766 
L 102.068227 132.995155 
L 102.810033 132.688568 
L 103.551839 131.822986 
L 104.293645 131.320461 
L 105.035452 131.067782 
L 105.777258 130.216291 
L 106.519064 129.689126 
L 107.26087 129.434486 
L 108.002676 129.384772 
L 108.744482 130.199782 
L 109.486288 130.288269 
L 110.228094 130.825493 
L 110.9699 130.165827 
L 111.711706 129.519782 
L 112.453512 129.19542 
L 113.195318 128.857169 
L 113.937124 128.555515 
L 114.67893 127.414901 
L 115.420736 126.633839 
L 116.162542 126.164234 
L 116.904348 125.794833 
L 117.646154 126.128167 
L 118.38796 125.288643 
L 119.129766 125.514309 
L 119.871572 125.685747 
L 120.613378 126.218199 
L 121.355184 126.492682 
L 122.09699 126.703157 
L 122.838796 125.837968 
L 123.580602 124.690723 
L 124.322408 124.219477 
L 125.064214 123.94825 
L 125.80602 122.762127 
L 126.547826 122.375705 
L 127.289632 122.078517 
L 128.031438 121.945825 
L 128.773244 121.531396 
L 129.51505 120.655031 
L 130.256856 119.913443 
L 130.998662 120.852612 
L 131.740468 120.985052 
L 132.482274 120.307814 
L 133.22408 119.470333 
L 133.965886 120.480125 
L 134.707692 121.789713 
L 135.449498 122.190026 
L 136.191304 121.960135 
L 136.93311 123.100504 
L 137.674916 121.20588 
L 138.416722 120.945516 
L 139.158528 119.853065 
L 139.900334 118.953305 
L 140.64214 119.049979 
L 141.383946 119.562601 
L 142.125753 119.454529 
L 142.867559 118.81409 
L 143.609365 118.979168 
L 144.351171 118.088208 
L 145.092977 118.261394 
L 145.834783 118.314678 
L 146.576589 118.033352 
L 147.318395 117.887577 
L 148.060201 117.69872 
L 148.802007 118.26564 
L 149.543813 117.278351 
L 150.285619 117.232215 
L 151.027425 116.682377 
L 151.769231 115.379896 
L 152.511037 115.549238 
L 153.252843 115.411986 
L 153.994649 114.213073 
L 154.736455 114.023653 
L 155.478261 113.549969 
L 156.220067 113.540327 
L 156.961873 113.166478 
L 157.703679 111.986893 
L 158.445485 112.113567 
L 159.187291 112.754205 
L 159.929097 112.342309 
L 160.670903 112.279312 
L 161.412709 112.852219 
L 162.154515 113.328109 
L 162.896321 114.781337 
L 163.638127 116.686271 
L 164.379933 116.427929 
L 165.121739 115.825045 
L 165.863545 115.582032 
L 166.605351 113.052757 
L 167.347157 111.69468 
L 168.088963 112.342225 
L 168.830769 111.612019 
L 169.572575 111.358075 
L 170.314381 111.592598 
L 171.056187 111.42129 
L 171.797993 109.38289 
L 172.539799 108.764553 
L 173.281605 109.330077 
L 174.023411 108.441792 
L 174.765217 109.20385 
L 175.507023 110.310202 
L 176.248829 110.02703 
L 176.990635 110.339027 
L 177.732441 108.844108 
L 178.474247 108.816216 
L 179.216054 108.862651 
L 179.95786 109.066037 
L 180.699666 112.013568 
L 181.441472 114.38661 
L 182.183278 118.073913 
L 182.925084 119.124707 
L 183.66689 120.021298 
L 184.408696 119.968758 
L 185.150502 121.24694 
L 185.892308 120.163973 
L 186.634114 120.819219 
L 187.37592 119.240298 
L 188.117726 117.406157 
L 188.859532 115.618081 
L 189.601338 112.903541 
L 190.343144 111.419917 
L 191.08495 110.968859 
L 191.826756 109.580516 
L 192.568562 108.703529 
L 193.310368 108.640554 
L 194.052174 108.918066 
L 194.79398 109.120641 
L 195.535786 109.798143 
L 196.277592 109.711504 
L 197.019398 108.910421 
L 197.761204 107.879327 
L 198.50301 108.432211 
L 199.244816 109.56916 
L 199.986622 109.030499 
L 200.728428 109.623012 
L 201.470234 109.219889 
L 202.21204 109.899265 
L 202.953846 109.253166 
L 203.695652 107.408774 
L 204.437458 107.463236 
L 205.179264 108.26757 
L 205.92107 109.554821 
L 206.662876 109.405155 
L 207.404682 107.140819 
L 208.146488 107.121391 
L 208.888294 106.387755 
L 209.6301 106.62541 
L 210.371906 105.761714 
L 211.113712 106.27834 
L 211.855518 108.77053 
L 212.597324 109.235634 
L 213.33913 108.06454 
L 214.080936 110.03642 
L 214.822742 110.29708 
L 215.564548 112.562399 
L 216.306355 112.574115 
L 217.048161 112.185713 
L 217.789967 113.374964 
L 218.531773 115.057465 
L 219.273579 115.846885 
L 220.015385 116.003217 
L 220.757191 117.070034 
L 221.498997 119.750363 
L 222.240803 119.144473 
L 222.982609 119.291534 
L 223.724415 120.977209 
L 224.466221 120.917214 
L 225.208027 119.669033 
L 225.949833 118.248773 
L 226.691639 117.511973 
L 227.433445 116.715662 
L 228.175251 116.234316 
L 228.917057 115.561004 
L 229.658863 114.580602 
L 230.400669 113.919423 
L 231.142475 112.572072 
L 231.884281 111.434721 
L 232.626087 111.025223 
L 233.367893 110.425607 
L 234.109699 109.848914 
L 234.851505 108.892949 
L 235.593311 107.672944 
L 236.335117 107.919406 
L 237.076923 106.999501 
L 237.818729 105.240484 
L 238.560535 106.176786 
L 239.302341 107.389453 
L 240.044147 107.837289 
L 240.785953 107.863096 
L 241.527759 109.448052 
L 242.269565 108.657923 
L 243.011371 109.311872 
L 243.753177 108.637785 
L 244.494983 105.541408 
L 245.236789 104.40595 
L 245.978595 103.808902 
L 246.720401 102.107158 
L 247.462207 101.482386 
L 248.204013 101.642723 
L 248.945819 100.193772 
L 249.687625 99.011088 
L 250.429431 101.180193 
L 251.171237 101.560862 
L 251.913043 102.830334 
L 252.654849 104.23716 
L 253.396656 103.45443 
L 254.138462 105.297394 
L 254.880268 106.340993 
L 255.622074 106.224537 
L 256.36388 106.795939 
L 257.105686 107.92377 
L 257.847492 110.393393 
L 258.589298 108.964379 
L 259.331104 108.838118 
L 260.07291 107.785572 
L 260.814716 108.341561 
L 261.556522 110.032642 
L 262.298328 108.717852 
L 263.040134 108.609737 
L 263.78194 108.633415 
L 264.523746 109.119075 
L 265.265552 108.509247 
L 266.007358 107.877957 
L 266.749164 107.42649 
L 267.49097 106.65738 
L 268.232776 106.860484 
L 268.974582 106.116641 
L 269.716388 105.403681 
L 270.458194 105.680496 
L 271.2 106.789012 
L 271.2 47.753109 
L 271.2 47.753109 
L 270.458194 47.759618 
L 269.716388 47.559496 
L 268.974582 49.984428 
L 268.232776 52.97615 
L 267.49097 52.609864 
L 266.749164 53.287934 
L 266.007358 51.809852 
L 265.265552 52.788046 
L 264.523746 52.7625 
L 263.78194 53.557227 
L 263.040134 53.817665 
L 262.298328 53.502463 
L 261.556522 56.297259 
L 260.814716 54.948467 
L 260.07291 51.662423 
L 259.331104 53.520314 
L 258.589298 54.092623 
L 257.847492 56.94324 
L 257.105686 54.525926 
L 256.36388 53.453102 
L 255.622074 52.068211 
L 254.880268 51.269986 
L 254.138462 50.162153 
L 253.396656 46.219941 
L 252.654849 45.765581 
L 251.913043 44.706145 
L 251.171237 42.103286 
L 250.429431 41.13347 
L 249.687625 38.246964 
L 248.945819 41.571459 
L 248.204013 42.47144 
L 247.462207 41.422108 
L 246.720401 42.563179 
L 245.978595 43.60344 
L 245.236789 45.164032 
L 244.494983 46.200205 
L 243.753177 50.4707 
L 243.011371 51.598443 
L 242.269565 51.310489 
L 241.527759 52.779949 
L 240.785953 51.453534 
L 240.044147 50.501325 
L 239.302341 49.865435 
L 238.560535 49.799226 
L 237.818729 49.017456 
L 237.076923 51.633294 
L 236.335117 49.091647 
L 235.593311 46.715697 
L 234.851505 46.496409 
L 234.109699 45.361842 
L 233.367893 43.786946 
L 232.626087 43.442651 
L 231.884281 43.78191 
L 231.142475 46.429724 
L 230.400669 48.063713 
L 229.658863 49.679848 
L 228.917057 47.918867 
L 228.175251 48.066337 
L 227.433445 48.985544 
L 226.691639 49.365517 
L 225.949833 50.587516 
L 225.208027 54.014676 
L 224.466221 55.209138 
L 223.724415 56.101622 
L 222.982609 56.227586 
L 222.240803 57.634438 
L 221.498997 62.049885 
L 220.757191 59.598212 
L 220.015385 60.247575 
L 219.273579 61.325741 
L 218.531773 58.562949 
L 217.789967 59.351005 
L 217.048161 57.678634 
L 216.306355 57.78553 
L 215.564548 54.782076 
L 214.822742 53.039888 
L 214.080936 49.212965 
L 213.33913 44.49336 
L 212.597324 47.531645 
L 211.855518 50.304962 
L 211.113712 48.002557 
L 210.371906 49.773505 
L 209.6301 48.969259 
L 208.888294 48.039314 
L 208.146488 48.616581 
L 207.404682 50.080152 
L 206.662876 54.317711 
L 205.92107 56.580613 
L 205.179264 56.144253 
L 204.437458 53.404601 
L 203.695652 52.583559 
L 202.953846 54.099336 
L 202.21204 53.979082 
L 201.470234 53.662162 
L 200.728428 54.332768 
L 199.986622 52.733181 
L 199.244816 50.549967 
L 198.50301 50.159386 
L 197.761204 49.611059 
L 197.019398 50.423778 
L 196.277592 53.528225 
L 195.535786 51.856867 
L 194.79398 51.812536 
L 194.052174 52.171338 
L 193.310368 51.410273 
L 192.568562 53.256692 
L 191.826756 53.65744 
L 191.08495 55.628248 
L 190.343144 54.672756 
L 189.601338 55.067165 
L 188.859532 59.947498 
L 188.117726 58.218294 
L 187.37592 57.596108 
L 186.634114 56.110353 
L 185.892308 55.422125 
L 185.150502 57.624704 
L 184.408696 58.317053 
L 183.66689 57.829461 
L 182.925084 57.495091 
L 182.183278 60.463632 
L 181.441472 59.718428 
L 180.699666 56.411068 
L 179.95786 54.1149 
L 179.216054 54.365246 
L 178.474247 52.674837 
L 177.732441 52.729166 
L 176.990635 52.600635 
L 176.248829 52.217 
L 175.507023 51.148543 
L 174.765217 51.397008 
L 174.023411 48.894223 
L 173.281605 49.773979 
L 172.539799 51.047829 
L 171.797993 52.642487 
L 171.056187 54.868344 
L 170.314381 57.668452 
L 169.572575 57.880263 
L 168.830769 58.581155 
L 168.088963 58.479389 
L 167.347157 57.759074 
L 166.605351 57.612921 
L 165.863545 59.658297 
L 165.121739 57.40804 
L 164.379933 58.662666 
L 163.638127 59.121472 
L 162.896321 55.43201 
L 162.154515 54.107511 
L 161.412709 53.475789 
L 160.670903 53.09881 
L 159.929097 53.82464 
L 159.187291 55.232197 
L 158.445485 55.009203 
L 157.703679 53.030649 
L 156.961873 55.969656 
L 156.220067 55.688923 
L 155.478261 56.364727 
L 154.736455 57.546954 
L 153.994649 58.212801 
L 153.252843 61.357627 
L 152.511037 61.405242 
L 151.769231 62.121071 
L 151.027425 61.154132 
L 150.285619 62.614719 
L 149.543813 65.252364 
L 148.802007 65.719849 
L 148.060201 65.802639 
L 147.318395 65.701364 
L 146.576589 66.473259 
L 145.834783 68.239048 
L 145.092977 67.888542 
L 144.351171 69.219196 
L 143.609365 68.902239 
L 142.867559 70.965542 
L 142.125753 72.764734 
L 141.383946 73.683597 
L 140.64214 75.443542 
L 139.900334 75.733607 
L 139.158528 77.066442 
L 138.416722 78.425574 
L 137.674916 78.158146 
L 136.93311 77.541773 
L 136.191304 77.631352 
L 135.449498 77.870918 
L 134.707692 78.508317 
L 133.965886 76.603557 
L 133.22408 76.215543 
L 132.482274 77.016475 
L 131.740468 75.922885 
L 130.998662 75.049523 
L 130.256856 73.531256 
L 129.51505 75.119284 
L 128.773244 76.293208 
L 128.031438 78.065401 
L 127.289632 76.525177 
L 126.547826 78.119369 
L 125.80602 79.010151 
L 125.064214 80.165549 
L 124.322408 77.761282 
L 123.580602 77.247064 
L 122.838796 77.224711 
L 122.09699 76.705936 
L 121.355184 75.861881 
L 120.613378 74.350596 
L 119.871572 72.921333 
L 119.129766 74.136184 
L 118.38796 73.292047 
L 117.646154 76.397199 
L 116.904348 74.726314 
L 116.162542 76.672887 
L 115.420736 79.580441 
L 114.67893 81.493185 
L 113.937124 83.612006 
L 113.195318 83.318814 
L 112.453512 84.380642 
L 111.711706 86.535666 
L 110.9699 87.37423 
L 110.228094 89.495483 
L 109.486288 88.77439 
L 108.744482 91.268561 
L 108.002676 91.022312 
L 107.26087 90.322228 
L 106.519064 90.2691 
L 105.777258 90.437175 
L 105.035452 91.756635 
L 104.293645 90.03428 
L 103.551839 89.28085 
L 102.810033 90.906137 
L 102.068227 90.151201 
L 101.326421 90.382915 
L 100.584615 90.798224 
L 99.842809 92.979967 
L 99.101003 94.614292 
L 98.359197 95.283116 
L 97.617391 93.698494 
L 96.875585 92.779915 
L 96.133779 94.692401 
L 95.391973 96.674255 
L 94.650167 96.292628 
L 93.908361 97.690105 
L 93.166555 99.68491 
L 92.424749 99.173322 
L 91.682943 99.615949 
L 90.941137 100.411329 
L 90.199331 102.32031 
L 89.457525 105.400779 
L 88.715719 108.445391 
L 87.973913 110.616216 
L 87.232107 113.852477 
L 86.490301 116.754109 
L 85.748495 116.368043 
L 85.006689 115.224108 
L 84.264883 117.898598 
L 83.523077 119.1485 
L 82.781271 119.898841 
L 82.039465 120.033321 
L 81.297659 118.613279 
L 80.555853 119.397508 
L 79.814047 121.036426 
L 79.072241 120.394981 
L 78.330435 120.181856 
L 77.588629 121.569288 
L 76.846823 123.684366 
L 76.105017 124.815647 
L 75.363211 125.264958 
L 74.621405 126.428965 
L 73.879599 128.257716 
L 73.137793 131.19448 
L 72.395987 132.149967 
L 71.654181 133.320555 
L 70.912375 134.737283 
L 70.170569 136.996099 
L 69.428763 138.377515 
L 68.686957 139.077532 
L 67.945151 139.874142 
L 67.203344 141.478532 
L 66.461538 143.189417 
L 65.719732 144.031656 
L 64.977926 145.246023 
L 64.23612 145.926693 
L 63.494314 146.276985 
L 62.752508 147.466782 
L 62.010702 148.279974 
L 61.268896 149.071999 
L 60.52709 149.528866 
L 59.785284 150.089423 
L 59.043478 150.310829 
L 58.301672 150.593806 
L 57.559866 150.721928 
L 56.81806 150.809242 
L 56.076254 151.326442 
L 55.334448 151.542581 
L 54.592642 151.737933 
L 53.850836 151.761445 
L 53.10903 151.855671 
L 52.367224 151.998358 
L 51.625418 152.024804 
L 50.883612 152.138709 
L 50.141806 152.235918 
L 49.4 152.359906 
z
" style="fill:#4c72b0;fill-opacity:0.2;"/>
   </g>
   <g id="PolyCollection_2">
    <path clip-path="url(#p1d1933ced8)" d="M 49.4 152.06669 
L 49.4 154.881696 
L 50.141806 154.561904 
L 50.883612 154.382792 
L 51.625418 154.150767 
L 52.367224 154.04054 
L 53.10903 153.754186 
L 53.850836 154.039057 
L 54.592642 153.785447 
L 55.334448 153.660263 
L 56.076254 153.566179 
L 56.81806 153.489448 
L 57.559866 153.33728 
L 58.301672 153.18532 
L 59.043478 153.173561 
L 59.785284 153.214418 
L 60.52709 152.947322 
L 61.268896 152.950193 
L 62.010702 152.453858 
L 62.752508 152.05216 
L 63.494314 151.631446 
L 64.23612 151.503884 
L 64.977926 151.176112 
L 65.719732 150.886549 
L 66.461538 150.580774 
L 67.203344 150.119117 
L 67.945151 149.598077 
L 68.686957 149.439493 
L 69.428763 149.449384 
L 70.170569 149.161819 
L 70.912375 148.852491 
L 71.654181 148.498595 
L 72.395987 148.30778 
L 73.137793 148.314443 
L 73.879599 147.739332 
L 74.621405 147.287573 
L 75.363211 147.101855 
L 76.105017 146.649143 
L 76.846823 145.971026 
L 77.588629 145.162035 
L 78.330435 143.81441 
L 79.072241 143.101354 
L 79.814047 142.121899 
L 80.555853 141.177027 
L 81.297659 140.60269 
L 82.039465 139.793817 
L 82.781271 139.364237 
L 83.523077 138.7966 
L 84.264883 139.3949 
L 85.006689 138.376927 
L 85.748495 138.105553 
L 86.490301 137.318969 
L 87.232107 136.465488 
L 87.973913 136.385115 
L 88.715719 135.221417 
L 89.457525 134.557271 
L 90.199331 134.609942 
L 90.941137 133.985141 
L 91.682943 134.119033 
L 92.424749 133.630154 
L 93.166555 133.026304 
L 93.908361 132.217389 
L 94.650167 132.214161 
L 95.391973 132.445767 
L 96.133779 131.366638 
L 96.875585 130.538716 
L 97.617391 130.46552 
L 98.359197 128.052489 
L 99.101003 128.879336 
L 99.842809 128.566828 
L 100.584615 128.476103 
L 101.326421 127.735777 
L 102.068227 127.530552 
L 102.810033 127.568435 
L 103.551839 126.779351 
L 104.293645 126.340468 
L 105.035452 126.989133 
L 105.777258 127.252767 
L 106.519064 127.382685 
L 107.26087 126.22754 
L 108.002676 125.414929 
L 108.744482 125.047798 
L 109.486288 124.872732 
L 110.228094 124.215692 
L 110.9699 123.306076 
L 111.711706 122.842687 
L 112.453512 121.605421 
L 113.195318 122.145337 
L 113.937124 121.7688 
L 114.67893 121.760631 
L 115.420736 122.075402 
L 116.162542 121.945288 
L 116.904348 120.180562 
L 117.646154 119.905853 
L 118.38796 120.132356 
L 119.129766 120.814594 
L 119.871572 121.234566 
L 120.613378 122.127119 
L 121.355184 120.779715 
L 122.09699 120.161095 
L 122.838796 120.833887 
L 123.580602 121.012789 
L 124.322408 121.630488 
L 125.064214 122.02111 
L 125.80602 121.407368 
L 126.547826 120.881552 
L 127.289632 120.624921 
L 128.031438 121.185404 
L 128.773244 120.975805 
L 129.51505 121.278129 
L 130.256856 120.916259 
L 130.998662 120.114594 
L 131.740468 119.34879 
L 132.482274 119.206864 
L 133.22408 118.976067 
L 133.965886 120.109281 
L 134.707692 119.487463 
L 135.449498 120.481585 
L 136.191304 120.260196 
L 136.93311 120.575339 
L 137.674916 119.983269 
L 138.416722 120.038404 
L 139.158528 119.105184 
L 139.900334 119.312448 
L 140.64214 119.166519 
L 141.383946 119.658348 
L 142.125753 119.068097 
L 142.867559 120.17857 
L 143.609365 119.449076 
L 144.351171 119.445439 
L 145.092977 118.954036 
L 145.834783 118.672752 
L 146.576589 117.560468 
L 147.318395 118.842607 
L 148.060201 118.510979 
L 148.802007 119.639655 
L 149.543813 118.935895 
L 150.285619 118.65287 
L 151.027425 117.927 
L 151.769231 117.480542 
L 152.511037 117.099747 
L 153.252843 118.011459 
L 153.994649 117.717176 
L 154.736455 119.464202 
L 155.478261 118.773076 
L 156.220067 118.242827 
L 156.961873 117.068749 
L 157.703679 117.921295 
L 158.445485 117.456617 
L 159.187291 117.764567 
L 159.929097 117.8298 
L 160.670903 117.626189 
L 161.412709 116.904606 
L 162.154515 116.850302 
L 162.896321 115.856064 
L 163.638127 117.099784 
L 164.379933 118.070827 
L 165.121739 118.118889 
L 165.863545 119.579256 
L 166.605351 120.688123 
L 167.347157 119.027179 
L 168.088963 118.372266 
L 168.830769 118.046017 
L 169.572575 116.97191 
L 170.314381 117.40991 
L 171.056187 115.863699 
L 171.797993 114.972387 
L 172.539799 114.43003 
L 173.281605 115.05603 
L 174.023411 114.182662 
L 174.765217 114.776929 
L 175.507023 115.033799 
L 176.248829 114.350394 
L 176.990635 114.413263 
L 177.732441 114.812099 
L 178.474247 114.517444 
L 179.216054 113.416609 
L 179.95786 113.119886 
L 180.699666 112.147445 
L 181.441472 112.311004 
L 182.183278 111.561032 
L 182.925084 112.347048 
L 183.66689 113.382286 
L 184.408696 111.913909 
L 185.150502 111.385619 
L 185.892308 111.635107 
L 186.634114 110.784702 
L 187.37592 111.612387 
L 188.117726 112.41122 
L 188.859532 111.732102 
L 189.601338 110.301894 
L 190.343144 110.073541 
L 191.08495 107.682653 
L 191.826756 106.624813 
L 192.568562 107.037175 
L 193.310368 106.448511 
L 194.052174 107.637408 
L 194.79398 107.409457 
L 195.535786 106.519711 
L 196.277592 106.792742 
L 197.019398 106.770332 
L 197.761204 106.878669 
L 198.50301 106.248017 
L 199.244816 107.546377 
L 199.986622 109.324908 
L 200.728428 109.893451 
L 201.470234 110.815404 
L 202.21204 109.947055 
L 202.953846 109.812163 
L 203.695652 110.293188 
L 204.437458 110.688469 
L 205.179264 112.132079 
L 205.92107 112.354027 
L 206.662876 113.9453 
L 207.404682 113.175485 
L 208.146488 111.940467 
L 208.888294 111.780051 
L 209.6301 112.065735 
L 210.371906 112.288204 
L 211.113712 112.931753 
L 211.855518 112.353576 
L 212.597324 111.772148 
L 213.33913 109.707045 
L 214.080936 109.198779 
L 214.822742 107.771262 
L 215.564548 107.753141 
L 216.306355 107.541794 
L 217.048161 106.926693 
L 217.789967 106.967389 
L 218.531773 107.305879 
L 219.273579 107.342532 
L 220.015385 106.336195 
L 220.757191 106.466813 
L 221.498997 107.695036 
L 222.240803 108.710048 
L 222.982609 108.156459 
L 223.724415 107.127374 
L 224.466221 107.416498 
L 225.208027 108.324234 
L 225.949833 108.270389 
L 226.691639 108.177017 
L 227.433445 109.000176 
L 228.175251 109.586508 
L 228.917057 109.020233 
L 229.658863 109.741351 
L 230.400669 110.365617 
L 231.142475 109.825819 
L 231.884281 108.773663 
L 232.626087 107.966999 
L 233.367893 106.722902 
L 234.109699 107.098725 
L 234.851505 106.598973 
L 235.593311 106.631265 
L 236.335117 107.290302 
L 237.076923 107.949349 
L 237.818729 108.057312 
L 238.560535 106.828388 
L 239.302341 107.130277 
L 240.044147 108.388029 
L 240.785953 109.878386 
L 241.527759 110.739517 
L 242.269565 110.386967 
L 243.011371 110.687689 
L 243.753177 109.736399 
L 244.494983 109.262332 
L 245.236789 107.353086 
L 245.978595 106.279171 
L 246.720401 106.920479 
L 247.462207 106.663902 
L 248.204013 106.67464 
L 248.945819 106.533027 
L 249.687625 107.102927 
L 250.429431 106.954763 
L 251.171237 106.651167 
L 251.913043 106.621053 
L 252.654849 107.196003 
L 253.396656 108.744317 
L 254.138462 110.432899 
L 254.880268 110.682973 
L 255.622074 111.570628 
L 256.36388 111.018212 
L 257.105686 111.648485 
L 257.847492 110.452868 
L 258.589298 111.757658 
L 259.331104 110.460247 
L 260.07291 110.843004 
L 260.814716 110.580852 
L 261.556522 108.351867 
L 262.298328 106.942058 
L 263.040134 106.232306 
L 263.78194 104.728599 
L 264.523746 104.909501 
L 265.265552 105.294642 
L 266.007358 105.709194 
L 266.749164 105.013359 
L 267.49097 106.526577 
L 268.232776 106.098622 
L 268.974582 105.771432 
L 269.716388 107.385549 
L 270.458194 107.378292 
L 271.2 106.849233 
L 271.2 50.674614 
L 271.2 50.674614 
L 270.458194 49.388603 
L 269.716388 49.482672 
L 268.974582 47.92851 
L 268.232776 49.186247 
L 267.49097 50.856887 
L 266.749164 46.754412 
L 266.007358 48.23222 
L 265.265552 46.899533 
L 264.523746 45.129664 
L 263.78194 44.07433 
L 263.040134 46.595251 
L 262.298328 46.602289 
L 261.556522 47.375716 
L 260.814716 50.423757 
L 260.07291 50.650256 
L 259.331104 48.923298 
L 258.589298 52.162583 
L 257.847492 52.292133 
L 257.105686 54.451929 
L 256.36388 57.186997 
L 255.622074 60.04413 
L 254.880268 59.64118 
L 254.138462 61.114064 
L 253.396656 59.517662 
L 252.654849 56.400207 
L 251.913043 54.951824 
L 251.171237 54.718815 
L 250.429431 53.603314 
L 249.687625 54.639958 
L 248.945819 52.453297 
L 248.204013 51.785623 
L 247.462207 51.79035 
L 246.720401 50.726731 
L 245.978595 51.729229 
L 245.236789 52.393534 
L 244.494983 54.29508 
L 243.753177 55.766034 
L 243.011371 56.074334 
L 242.269565 55.169668 
L 241.527759 55.196288 
L 240.785953 54.367199 
L 240.044147 53.726838 
L 239.302341 52.671544 
L 238.560535 52.451389 
L 237.818729 53.149049 
L 237.076923 54.801214 
L 236.335117 51.665983 
L 235.593311 49.549375 
L 234.851505 50.14934 
L 234.109699 52.900565 
L 233.367893 54.083732 
L 232.626087 54.691862 
L 231.884281 55.361246 
L 231.142475 54.802708 
L 230.400669 53.604765 
L 229.658863 52.773276 
L 228.917057 52.366326 
L 228.175251 56.090695 
L 227.433445 55.152243 
L 226.691639 53.494716 
L 225.949833 51.114217 
L 225.208027 49.91124 
L 224.466221 50.08879 
L 223.724415 51.289086 
L 222.982609 51.408109 
L 222.240803 52.652964 
L 221.498997 49.997595 
L 220.757191 47.461453 
L 220.015385 47.355367 
L 219.273579 49.965048 
L 218.531773 52.457439 
L 217.789967 52.679747 
L 217.048161 51.23355 
L 216.306355 52.01561 
L 215.564548 53.372714 
L 214.822742 55.450835 
L 214.080936 56.363433 
L 213.33913 56.284543 
L 212.597324 59.793205 
L 211.855518 58.553407 
L 211.113712 58.224899 
L 210.371906 55.7105 
L 209.6301 55.984576 
L 208.888294 57.566411 
L 208.146488 56.961994 
L 207.404682 56.44031 
L 206.662876 56.935086 
L 205.92107 54.312021 
L 205.179264 54.11643 
L 204.437458 53.888208 
L 203.695652 52.277197 
L 202.953846 50.585137 
L 202.21204 50.184884 
L 201.470234 53.132059 
L 200.728428 51.326704 
L 199.986622 51.748556 
L 199.244816 51.534437 
L 198.50301 49.040176 
L 197.761204 48.294755 
L 197.019398 49.057171 
L 196.277592 48.723056 
L 195.535786 50.07419 
L 194.79398 52.727088 
L 194.052174 53.573744 
L 193.310368 51.450863 
L 192.568562 52.573337 
L 191.826756 51.255413 
L 191.08495 52.419102 
L 190.343144 54.891071 
L 189.601338 55.264715 
L 188.859532 57.641772 
L 188.117726 57.7954 
L 187.37592 57.892834 
L 186.634114 55.661985 
L 185.892308 57.139818 
L 185.150502 56.359732 
L 184.408696 57.045201 
L 183.66689 60.555914 
L 182.925084 60.463734 
L 182.183278 58.61279 
L 181.441472 61.242898 
L 180.699666 59.651426 
L 179.95786 58.975547 
L 179.216054 58.87911 
L 178.474247 58.078892 
L 177.732441 59.675083 
L 176.990635 60.80617 
L 176.248829 61.916156 
L 175.507023 61.416746 
L 174.765217 61.484975 
L 174.023411 64.68646 
L 173.281605 66.569988 
L 172.539799 67.123755 
L 171.797993 68.488747 
L 171.056187 70.900155 
L 170.314381 72.909887 
L 169.572575 72.855083 
L 168.830769 75.563884 
L 168.088963 76.376226 
L 167.347157 75.244728 
L 166.605351 76.256602 
L 165.863545 73.076661 
L 165.121739 70.893481 
L 164.379933 71.103358 
L 163.638127 70.029567 
L 162.896321 68.279739 
L 162.154515 68.886774 
L 161.412709 66.8212 
L 160.670903 67.311088 
L 159.929097 67.962327 
L 159.187291 66.816663 
L 158.445485 65.383945 
L 157.703679 67.699174 
L 156.961873 68.079297 
L 156.220067 69.273912 
L 155.478261 68.970876 
L 154.736455 70.825135 
L 153.994649 69.560413 
L 153.252843 71.433902 
L 152.511037 70.542757 
L 151.769231 69.195406 
L 151.027425 68.297336 
L 150.285619 68.846246 
L 149.543813 68.772834 
L 148.802007 72.286379 
L 148.060201 71.011432 
L 147.318395 72.094892 
L 146.576589 72.451567 
L 145.834783 72.63924 
L 145.092977 72.169533 
L 144.351171 74.674321 
L 143.609365 75.388321 
L 142.867559 77.736589 
L 142.125753 76.680025 
L 141.383946 77.569013 
L 140.64214 77.035532 
L 139.900334 78.134362 
L 139.158528 77.816614 
L 138.416722 78.096398 
L 137.674916 76.737732 
L 136.93311 77.771934 
L 136.191304 73.228852 
L 135.449498 73.113946 
L 134.707692 70.613224 
L 133.965886 71.704536 
L 133.22408 69.794503 
L 132.482274 67.780556 
L 131.740468 69.290769 
L 130.998662 69.966939 
L 130.256856 72.065452 
L 129.51505 72.006825 
L 128.773244 69.931719 
L 128.031438 70.884338 
L 127.289632 71.11869 
L 126.547826 74.73121 
L 125.80602 74.674864 
L 125.064214 75.840167 
L 124.322408 75.72627 
L 123.580602 74.52538 
L 122.838796 75.221749 
L 122.09699 74.463713 
L 121.355184 75.588931 
L 120.613378 76.1217 
L 119.871572 78.258801 
L 119.129766 78.2261 
L 118.38796 77.718138 
L 117.646154 78.063688 
L 116.904348 79.019683 
L 116.162542 80.2795 
L 115.420736 82.115262 
L 114.67893 80.690053 
L 113.937124 79.428652 
L 113.195318 80.042679 
L 112.453512 80.763249 
L 111.711706 79.556805 
L 110.9699 80.366566 
L 110.228094 81.253701 
L 109.486288 82.041519 
L 108.744482 81.843358 
L 108.002676 81.312964 
L 107.26087 82.660697 
L 106.519064 85.849956 
L 105.777258 85.347535 
L 105.035452 85.913935 
L 104.293645 87.547152 
L 103.551839 87.878599 
L 102.810033 89.338085 
L 102.068227 89.695478 
L 101.326421 90.379844 
L 100.584615 91.849833 
L 99.842809 92.77593 
L 99.101003 92.757127 
L 98.359197 91.869449 
L 97.617391 95.474733 
L 96.875585 95.99837 
L 96.133779 95.755815 
L 95.391973 98.696689 
L 94.650167 99.233023 
L 93.908361 98.953551 
L 93.166555 100.8041 
L 92.424749 102.440708 
L 91.682943 105.171261 
L 90.941137 106.294689 
L 90.199331 108.392898 
L 89.457525 107.986134 
L 88.715719 110.118806 
L 87.973913 111.467424 
L 87.232107 110.286185 
L 86.490301 111.50598 
L 85.748495 112.858248 
L 85.006689 113.240738 
L 84.264883 113.054611 
L 83.523077 112.390332 
L 82.781271 113.265612 
L 82.039465 113.759525 
L 81.297659 115.132066 
L 80.555853 116.861744 
L 79.814047 119.051808 
L 79.072241 120.784105 
L 78.330435 121.690927 
L 77.588629 122.814909 
L 76.846823 122.958254 
L 76.105017 122.933463 
L 75.363211 125.532889 
L 74.621405 126.928418 
L 73.879599 128.544418 
L 73.137793 129.639476 
L 72.395987 130.95619 
L 71.654181 131.921664 
L 70.912375 134.088877 
L 70.170569 134.978417 
L 69.428763 135.920202 
L 68.686957 137.771924 
L 67.945151 139.760226 
L 67.203344 140.462704 
L 66.461538 141.793051 
L 65.719732 142.785912 
L 64.977926 143.767224 
L 64.23612 144.549587 
L 63.494314 145.425066 
L 62.752508 145.719162 
L 62.010702 146.536697 
L 61.268896 147.969812 
L 60.52709 148.570689 
L 59.785284 148.783506 
L 59.043478 149.152969 
L 58.301672 149.767338 
L 57.559866 150.164493 
L 56.81806 150.293738 
L 56.076254 150.64649 
L 55.334448 150.828423 
L 54.592642 151.21619 
L 53.850836 151.488184 
L 53.10903 151.34918 
L 52.367224 151.561676 
L 51.625418 151.73308 
L 50.883612 151.958013 
L 50.141806 152.103249 
L 49.4 152.06669 
z
" style="fill:#55a868;fill-opacity:0.2;"/>
   </g>
   <g id="line2d_21">
    <path clip-path="url(#p1d1933ced8)" d="M 49.4 153.681071 
L 51.625418 153.123876 
L 52.367224 153.133428 
L 56.076254 152.514884 
L 56.81806 152.129007 
L 58.301672 151.995446 
L 61.268896 151.015386 
L 63.494314 149.641185 
L 64.23612 149.367346 
L 64.977926 148.879699 
L 66.461538 147.53391 
L 68.686957 144.838966 
L 69.428763 144.159014 
L 70.170569 143.187856 
L 71.654181 140.672503 
L 73.137793 138.945922 
L 73.879599 137.122066 
L 74.621405 136.044273 
L 76.846823 134.155025 
L 77.588629 133.019816 
L 78.330435 132.257704 
L 79.072241 132.235201 
L 79.814047 132.50922 
L 80.555853 131.425328 
L 81.297659 131.107926 
L 82.039465 131.888055 
L 83.523077 131.513997 
L 84.264883 130.983776 
L 85.006689 129.935969 
L 85.748495 130.034485 
L 86.490301 129.688086 
L 87.973913 126.760203 
L 88.715719 126.080839 
L 89.457525 124.256261 
L 90.199331 122.021482 
L 90.941137 120.884564 
L 92.424749 119.654673 
L 93.166555 119.700828 
L 93.908361 118.308234 
L 94.650167 117.515446 
L 95.391973 117.67361 
L 96.133779 116.310801 
L 96.875585 114.693562 
L 97.617391 115.052558 
L 98.359197 115.859622 
L 99.101003 115.612225 
L 99.842809 114.016494 
L 100.584615 112.7838 
L 101.326421 112.082841 
L 102.068227 111.573178 
L 102.810033 111.797352 
L 103.551839 110.551918 
L 104.293645 110.67737 
L 105.035452 111.412208 
L 105.777258 110.326733 
L 106.519064 109.979113 
L 107.26087 109.878357 
L 108.002676 110.203542 
L 108.744482 110.734172 
L 109.486288 109.53133 
L 110.228094 110.160488 
L 110.9699 108.770029 
L 111.711706 108.027724 
L 112.453512 106.788031 
L 113.195318 106.087991 
L 113.937124 106.083761 
L 114.67893 104.454043 
L 115.420736 103.10714 
L 116.162542 101.418561 
L 116.904348 100.260573 
L 117.646154 101.262683 
L 118.38796 99.290345 
L 119.129766 99.825247 
L 119.871572 99.30354 
L 121.355184 101.177282 
L 122.09699 101.704547 
L 122.838796 101.531339 
L 123.580602 100.968893 
L 124.322408 100.99038 
L 125.064214 102.0569 
L 125.80602 100.886139 
L 126.547826 100.247537 
L 127.289632 99.301847 
L 128.031438 100.005613 
L 130.256856 96.72235 
L 130.998662 97.951067 
L 131.740468 98.453969 
L 132.482274 98.662145 
L 133.22408 97.842938 
L 133.965886 98.541841 
L 134.707692 100.149015 
L 135.449498 100.030472 
L 136.191304 99.795744 
L 136.93311 100.321138 
L 137.674916 99.682013 
L 138.416722 99.685545 
L 139.900334 97.343456 
L 140.64214 97.246761 
L 142.125753 96.109631 
L 142.867559 94.889816 
L 143.609365 93.940704 
L 144.351171 93.653702 
L 145.092977 93.074968 
L 145.834783 93.276863 
L 146.576589 92.253306 
L 147.318395 91.79447 
L 148.060201 91.750679 
L 148.802007 91.992745 
L 149.543813 91.265358 
L 150.285619 89.923467 
L 151.027425 88.918254 
L 153.252843 88.384807 
L 153.994649 86.212937 
L 154.736455 85.785304 
L 155.478261 84.957348 
L 156.220067 84.614625 
L 156.961873 84.568067 
L 157.703679 82.508771 
L 158.445485 83.561385 
L 159.187291 83.993201 
L 159.929097 83.083474 
L 160.670903 82.689061 
L 162.154515 83.71781 
L 162.896321 85.106673 
L 163.638127 87.903872 
L 164.379933 87.545298 
L 165.121739 86.616543 
L 165.863545 87.620165 
L 166.605351 85.332839 
L 167.347157 84.726877 
L 168.088963 85.410807 
L 168.830769 85.096587 
L 169.572575 84.619169 
L 170.314381 84.630525 
L 171.056187 83.144817 
L 171.797993 81.012688 
L 172.539799 79.906191 
L 173.281605 79.552028 
L 174.023411 78.668008 
L 174.765217 80.300429 
L 176.990635 81.469831 
L 177.732441 80.786637 
L 178.474247 80.745526 
L 179.216054 81.613949 
L 179.95786 81.590469 
L 182.183278 89.268773 
L 182.925084 88.309899 
L 183.66689 88.925379 
L 185.150502 89.435822 
L 185.892308 87.793049 
L 186.634114 88.464786 
L 187.37592 88.418203 
L 188.117726 87.812225 
L 188.859532 87.78279 
L 189.601338 83.985353 
L 190.343144 83.046336 
L 191.08495 83.298553 
L 191.826756 81.618978 
L 192.568562 80.980111 
L 193.310368 80.025413 
L 194.052174 80.544702 
L 194.79398 80.466589 
L 195.535786 80.827505 
L 196.277592 81.619865 
L 197.019398 79.6671 
L 197.761204 78.745193 
L 198.50301 79.295798 
L 199.986622 80.88184 
L 200.728428 81.97789 
L 201.470234 81.441026 
L 202.21204 81.939173 
L 202.953846 81.676251 
L 203.695652 79.996166 
L 204.437458 80.433918 
L 205.179264 82.205912 
L 205.92107 83.067717 
L 206.662876 81.861433 
L 207.404682 78.610485 
L 208.888294 77.213535 
L 209.6301 77.797334 
L 210.371906 77.767609 
L 211.113712 77.140448 
L 211.855518 79.537746 
L 212.597324 78.38364 
L 213.33913 76.27895 
L 214.080936 79.624693 
L 215.564548 83.672238 
L 216.306355 85.179823 
L 217.048161 84.932174 
L 217.789967 86.362984 
L 218.531773 86.810207 
L 219.273579 88.586313 
L 220.015385 88.125396 
L 220.757191 88.334123 
L 221.498997 90.900124 
L 222.240803 88.389456 
L 222.982609 87.75956 
L 223.724415 88.539415 
L 224.466221 88.063176 
L 225.208027 86.841855 
L 225.949833 84.418144 
L 226.691639 83.438745 
L 228.917057 81.739936 
L 229.658863 82.130225 
L 230.400669 80.991568 
L 231.142475 79.500898 
L 231.884281 77.608315 
L 232.626087 77.233937 
L 233.367893 77.106277 
L 234.109699 77.605378 
L 234.851505 77.694679 
L 235.593311 77.194321 
L 236.335117 78.505526 
L 237.076923 79.316397 
L 237.818729 77.12897 
L 238.560535 77.988006 
L 240.044147 79.169307 
L 240.785953 79.658315 
L 241.527759 81.114001 
L 242.269565 79.984206 
L 243.011371 80.455157 
L 243.753177 79.554242 
L 244.494983 75.870806 
L 245.978595 73.706171 
L 246.720401 72.335169 
L 247.462207 71.452247 
L 248.204013 72.057081 
L 248.945819 70.882615 
L 249.687625 68.629026 
L 250.429431 71.156832 
L 251.171237 71.832074 
L 251.913043 73.768239 
L 252.654849 75.00137 
L 253.396656 74.837186 
L 254.138462 77.729774 
L 254.880268 78.80549 
L 255.622074 79.146374 
L 257.105686 81.224848 
L 257.847492 83.668316 
L 258.589298 81.528501 
L 259.331104 81.179216 
L 260.07291 79.723998 
L 260.814716 81.645014 
L 261.556522 83.164951 
L 262.298328 81.110158 
L 263.040134 81.213701 
L 264.523746 80.940788 
L 265.265552 80.648647 
L 266.007358 79.843905 
L 266.749164 80.357212 
L 267.49097 79.633622 
L 268.232776 79.918317 
L 269.716388 76.481589 
L 270.458194 76.720057 
L 271.2 77.27106 
L 271.2 77.27106 
" style="fill:none;stroke:#4c72b0;stroke-linecap:round;stroke-width:1.75;"/>
   </g>
   <g id="line2d_22">
    <path clip-path="url(#p1d1933ced8)" d="M 49.4 153.474193 
L 52.367224 152.801108 
L 53.10903 152.551683 
L 53.850836 152.763621 
L 55.334448 152.244343 
L 57.559866 151.750886 
L 61.268896 150.460003 
L 62.010702 149.495277 
L 62.752508 148.885661 
L 63.494314 148.528256 
L 64.977926 147.471668 
L 66.461538 146.186913 
L 67.203344 145.29091 
L 67.945151 144.679152 
L 69.428763 142.684793 
L 70.912375 141.470684 
L 71.654181 140.21013 
L 73.137793 138.97696 
L 73.879599 138.141875 
L 74.621405 137.107996 
L 75.363211 136.317372 
L 76.105017 134.791303 
L 76.846823 134.46464 
L 77.588629 133.988472 
L 78.330435 132.752669 
L 79.072241 131.942729 
L 81.297659 127.867378 
L 82.039465 126.776671 
L 82.781271 126.314924 
L 83.523077 125.593466 
L 84.264883 126.224755 
L 85.748495 125.481901 
L 87.232107 123.375836 
L 87.973913 123.926269 
L 89.457525 121.271702 
L 90.199331 121.50142 
L 90.941137 120.139915 
L 91.682943 119.645147 
L 92.424749 118.035431 
L 93.166555 116.915202 
L 93.908361 115.58547 
L 94.650167 115.723592 
L 95.391973 115.571228 
L 96.133779 113.561226 
L 97.617391 112.970126 
L 98.359197 109.960969 
L 99.101003 110.818231 
L 99.842809 110.671379 
L 100.584615 110.162968 
L 101.326421 109.05781 
L 102.068227 108.613015 
L 102.810033 108.45326 
L 103.551839 107.328975 
L 105.035452 106.451534 
L 105.777258 106.300151 
L 106.519064 106.61632 
L 107.26087 104.444118 
L 108.002676 103.363947 
L 109.486288 103.457126 
L 110.228094 102.734696 
L 110.9699 101.836321 
L 111.711706 101.199746 
L 113.195318 101.094008 
L 113.937124 100.598726 
L 114.67893 101.225342 
L 115.420736 102.095332 
L 116.162542 101.112394 
L 116.904348 99.600122 
L 117.646154 98.984771 
L 118.38796 98.925247 
L 119.129766 99.520347 
L 119.871572 99.746683 
L 120.613378 99.124409 
L 122.09699 97.312404 
L 122.838796 98.027818 
L 123.580602 97.769084 
L 124.322408 98.678379 
L 125.064214 98.930639 
L 125.80602 98.041116 
L 126.547826 97.806381 
L 127.289632 95.871805 
L 128.031438 96.034871 
L 128.773244 95.453762 
L 129.51505 96.642477 
L 130.256856 96.490856 
L 130.998662 95.040767 
L 132.482274 93.49371 
L 133.22408 94.385285 
L 133.965886 95.906908 
L 134.707692 95.050343 
L 135.449498 96.797766 
L 136.191304 96.744524 
L 136.93311 99.173636 
L 137.674916 98.360501 
L 138.416722 99.067401 
L 139.158528 98.460899 
L 139.900334 98.723405 
L 140.64214 98.101026 
L 141.383946 98.613681 
L 142.125753 97.874061 
L 142.867559 98.957579 
L 143.609365 97.418698 
L 144.351171 97.05988 
L 145.092977 95.561784 
L 145.834783 95.655996 
L 146.576589 95.006017 
L 147.318395 95.46875 
L 148.060201 94.761205 
L 148.802007 95.963017 
L 149.543813 93.854365 
L 150.285619 93.749558 
L 151.027425 93.112168 
L 151.769231 93.337974 
L 152.511037 93.821252 
L 153.252843 94.722681 
L 153.994649 93.638795 
L 154.736455 95.144669 
L 155.478261 93.871976 
L 156.220067 93.75837 
L 156.961873 92.574023 
L 157.703679 92.810234 
L 158.445485 91.420281 
L 159.187291 92.290615 
L 159.929097 92.896063 
L 160.670903 92.468638 
L 161.412709 91.862903 
L 162.154515 92.868538 
L 162.896321 92.067902 
L 163.638127 93.564675 
L 164.379933 94.587092 
L 165.121739 94.506185 
L 165.863545 96.327959 
L 166.605351 98.472363 
L 167.347157 97.135954 
L 168.088963 97.374246 
L 168.830769 96.804951 
L 169.572575 94.913496 
L 170.314381 95.159899 
L 171.797993 91.730567 
L 172.539799 90.776893 
L 173.281605 90.813009 
L 174.765217 88.130952 
L 175.507023 88.225272 
L 176.248829 88.133275 
L 176.990635 87.609716 
L 177.732441 87.243591 
L 178.474247 86.298168 
L 180.699666 85.899435 
L 181.441472 86.776951 
L 182.183278 85.086911 
L 182.925084 86.405391 
L 183.66689 86.9691 
L 184.408696 84.479555 
L 185.150502 83.872676 
L 185.892308 84.387462 
L 186.634114 83.223343 
L 187.37592 84.75261 
L 188.117726 85.10331 
L 188.859532 84.686937 
L 189.601338 82.783305 
L 190.343144 82.482306 
L 191.08495 80.050877 
L 191.826756 78.940113 
L 192.568562 79.805256 
L 193.310368 78.949687 
L 194.052174 80.605576 
L 194.79398 80.068272 
L 195.535786 78.29695 
L 196.277592 77.757899 
L 197.019398 77.913751 
L 197.761204 77.586712 
L 198.50301 77.644097 
L 199.244816 79.540407 
L 199.986622 80.536732 
L 200.728428 80.610077 
L 201.470234 81.973731 
L 202.21204 80.06597 
L 202.953846 80.19865 
L 204.437458 82.288339 
L 205.179264 83.124254 
L 205.92107 83.333024 
L 206.662876 85.440193 
L 207.404682 84.807898 
L 208.146488 84.45123 
L 208.888294 84.673231 
L 209.6301 84.025155 
L 210.371906 83.999352 
L 211.113712 85.578326 
L 211.855518 85.453492 
L 212.597324 85.782676 
L 213.33913 82.995794 
L 214.080936 82.781106 
L 215.564548 80.562927 
L 217.048161 79.080122 
L 217.789967 79.823568 
L 218.531773 79.881659 
L 219.273579 78.65379 
L 220.015385 76.845781 
L 220.757191 76.964133 
L 222.240803 80.681506 
L 222.982609 79.782284 
L 224.466221 78.752644 
L 225.208027 79.117737 
L 225.949833 79.692303 
L 227.433445 82.076209 
L 228.175251 82.838601 
L 228.917057 80.693279 
L 229.658863 81.257314 
L 230.400669 81.985191 
L 231.142475 82.314263 
L 231.884281 82.067454 
L 232.626087 81.329431 
L 233.367893 80.403317 
L 234.109699 79.999645 
L 234.851505 78.374157 
L 235.593311 78.09032 
L 236.335117 79.478142 
L 237.076923 81.375281 
L 237.818729 80.60318 
L 238.560535 79.639888 
L 239.302341 79.900911 
L 240.785953 82.122792 
L 241.527759 82.967902 
L 242.269565 82.778318 
L 243.011371 83.381011 
L 243.753177 82.751216 
L 244.494983 81.778706 
L 245.236789 79.87331 
L 245.978595 79.0042 
L 246.720401 78.823605 
L 247.462207 79.227126 
L 248.204013 79.230132 
L 248.945819 79.493162 
L 249.687625 80.871443 
L 250.429431 80.279039 
L 251.171237 80.684991 
L 251.913043 80.786438 
L 252.654849 81.798105 
L 253.396656 84.130989 
L 254.138462 85.773482 
L 254.880268 85.162077 
L 255.622074 85.807379 
L 256.36388 84.102605 
L 257.105686 83.050207 
L 257.847492 81.372501 
L 258.589298 81.960121 
L 259.331104 79.691773 
L 260.07291 80.74663 
L 260.814716 80.502305 
L 261.556522 77.863792 
L 262.298328 76.772173 
L 263.040134 76.413779 
L 263.78194 74.401465 
L 264.523746 75.019583 
L 265.265552 76.097087 
L 266.007358 76.970707 
L 266.749164 75.883885 
L 267.49097 78.691732 
L 268.232776 77.642435 
L 268.974582 76.849971 
L 269.716388 78.434111 
L 270.458194 78.383448 
L 271.2 78.761924 
L 271.2 78.761924 
" style="fill:none;stroke:#55a868;stroke-linecap:round;stroke-width:1.75;"/>
   </g>
   <g id="patch_3">
    <path d="M 49.4 160.84 
L 49.4 32.4092 
" style="fill:none;"/>
   </g>
   <g id="patch_4">
    <path d="M 271.2 160.84 
L 271.2 32.4092 
" style="fill:none;"/>
   </g>
   <g id="patch_5">
    <path d="M 49.4 160.84 
L 271.2 160.84 
" style="fill:none;"/>
   </g>
   <g id="patch_6">
    <path d="M 49.4 32.4092 
L 271.2 32.4092 
" style="fill:none;"/>
   </g>
   <g id="legend_1">
    <g id="line2d_23">
     <path d="M 54.6 17.35449 
L 67.6 17.35449 
" style="fill:none;stroke:#4c72b0;stroke-linecap:round;stroke-width:1.75;"/>
    </g>
    <g id="line2d_24"/>
    <g id="text_14">
     <!-- ddpg-tf1 -->
     <defs>
      <path d="M 40.234375 0 
L 40.234375 6.546875 
Q 35.296875 -1.171875 25.734375 -1.171875 
Q 19.53125 -1.171875 14.328125 2.25 
Q 9.125 5.671875 6.265625 11.796875 
Q 3.421875 17.921875 3.421875 25.875 
Q 3.421875 33.640625 6 39.96875 
Q 8.59375 46.296875 13.765625 49.65625 
Q 18.953125 53.03125 25.34375 53.03125 
Q 30.03125 53.03125 33.6875 51.046875 
Q 37.359375 49.078125 39.65625 45.90625 
L 39.65625 71.578125 
L 48.390625 71.578125 
L 48.390625 0 
z
M 12.453125 25.875 
Q 12.453125 15.921875 16.640625 10.984375 
Q 20.84375 6.0625 26.5625 6.0625 
Q 32.328125 6.0625 36.34375 10.765625 
Q 40.375 15.484375 40.375 25.140625 
Q 40.375 35.796875 36.265625 40.765625 
Q 32.171875 45.75 26.171875 45.75 
Q 20.3125 45.75 16.375 40.96875 
Q 12.453125 36.1875 12.453125 25.875 
z
" id="ArialMT-100"/>
      <path d="M 6.59375 -19.875 
L 6.59375 51.859375 
L 14.59375 51.859375 
L 14.59375 45.125 
Q 17.4375 49.078125 21 51.046875 
Q 24.5625 53.03125 29.640625 53.03125 
Q 36.28125 53.03125 41.359375 49.609375 
Q 46.4375 46.1875 49.015625 39.953125 
Q 51.609375 33.734375 51.609375 26.3125 
Q 51.609375 18.359375 48.75 11.984375 
Q 45.90625 5.609375 40.453125 2.21875 
Q 35.015625 -1.171875 29 -1.171875 
Q 24.609375 -1.171875 21.109375 0.6875 
Q 17.625 2.546875 15.375 5.375 
L 15.375 -19.875 
z
M 14.546875 25.640625 
Q 14.546875 15.625 18.59375 10.84375 
Q 22.65625 6.0625 28.421875 6.0625 
Q 34.28125 6.0625 38.453125 11.015625 
Q 42.625 15.96875 42.625 26.375 
Q 42.625 36.28125 38.546875 41.203125 
Q 34.46875 46.140625 28.8125 46.140625 
Q 23.1875 46.140625 18.859375 40.890625 
Q 14.546875 35.640625 14.546875 25.640625 
z
" id="ArialMT-112"/>
      <path d="M 4.984375 -4.296875 
L 13.53125 -5.5625 
Q 14.0625 -9.515625 16.5 -11.328125 
Q 19.78125 -13.765625 25.4375 -13.765625 
Q 31.546875 -13.765625 34.859375 -11.328125 
Q 38.1875 -8.890625 39.359375 -4.5 
Q 40.046875 -1.8125 39.984375 6.78125 
Q 34.234375 0 25.640625 0 
Q 14.9375 0 9.078125 7.71875 
Q 3.21875 15.4375 3.21875 26.21875 
Q 3.21875 33.640625 5.90625 39.90625 
Q 8.59375 46.1875 13.6875 49.609375 
Q 18.796875 53.03125 25.6875 53.03125 
Q 34.859375 53.03125 40.828125 45.609375 
L 40.828125 51.859375 
L 48.921875 51.859375 
L 48.921875 7.03125 
Q 48.921875 -5.078125 46.453125 -10.125 
Q 44 -15.1875 38.640625 -18.109375 
Q 33.296875 -21.046875 25.484375 -21.046875 
Q 16.21875 -21.046875 10.5 -16.875 
Q 4.78125 -12.703125 4.984375 -4.296875 
z
M 12.25 26.859375 
Q 12.25 16.65625 16.296875 11.96875 
Q 20.359375 7.28125 26.46875 7.28125 
Q 32.515625 7.28125 36.609375 11.9375 
Q 40.71875 16.609375 40.71875 26.5625 
Q 40.71875 36.078125 36.5 40.90625 
Q 32.28125 45.75 26.3125 45.75 
Q 20.453125 45.75 16.34375 40.984375 
Q 12.25 36.234375 12.25 26.859375 
z
" id="ArialMT-103"/>
      <path d="M 3.171875 21.484375 
L 3.171875 30.328125 
L 30.171875 30.328125 
L 30.171875 21.484375 
z
" id="ArialMT-45"/>
     </defs>
     <g style="fill:#262626;" transform="translate(78 21.90449)scale(0.13 -0.13)">
      <use xlink:href="#ArialMT-100"/>
      <use x="55.615234" xlink:href="#ArialMT-100"/>
      <use x="111.230469" xlink:href="#ArialMT-112"/>
      <use x="166.845703" xlink:href="#ArialMT-103"/>
      <use x="222.460938" xlink:href="#ArialMT-45"/>
      <use x="255.761719" xlink:href="#ArialMT-116"/>
      <use x="283.544922" xlink:href="#ArialMT-102"/>
      <use x="311.328125" xlink:href="#ArialMT-49"/>
     </g>
    </g>
    <g id="line2d_25">
     <path d="M 166.726719 17.35449 
L 179.726719 17.35449 
" style="fill:none;stroke:#55a868;stroke-linecap:round;stroke-width:1.75;"/>
    </g>
    <g id="line2d_26"/>
    <g id="text_15">
     <!-- ddpg-pytorch -->
     <defs>
      <path d="M 6.203125 -19.96875 
L 5.21875 -11.71875 
Q 8.109375 -12.5 10.25 -12.5 
Q 13.1875 -12.5 14.9375 -11.515625 
Q 16.703125 -10.546875 17.828125 -8.796875 
Q 18.65625 -7.46875 20.515625 -2.25 
Q 20.75 -1.515625 21.296875 -0.09375 
L 1.609375 51.859375 
L 11.078125 51.859375 
L 21.875 21.828125 
Q 23.96875 16.109375 25.640625 9.8125 
Q 27.15625 15.875 29.25 21.625 
L 40.328125 51.859375 
L 49.125 51.859375 
L 29.390625 -0.875 
Q 26.21875 -9.421875 24.46875 -12.640625 
Q 22.125 -17 19.09375 -19.015625 
Q 16.0625 -21.046875 11.859375 -21.046875 
Q 9.328125 -21.046875 6.203125 -19.96875 
z
" id="ArialMT-121"/>
      <path d="M 6.59375 0 
L 6.59375 71.578125 
L 15.375 71.578125 
L 15.375 45.90625 
Q 21.53125 53.03125 30.90625 53.03125 
Q 36.671875 53.03125 40.921875 50.75 
Q 45.171875 48.484375 47 44.484375 
Q 48.828125 40.484375 48.828125 32.859375 
L 48.828125 0 
L 40.046875 0 
L 40.046875 32.859375 
Q 40.046875 39.453125 37.1875 42.453125 
Q 34.328125 45.453125 29.109375 45.453125 
Q 25.203125 45.453125 21.75 43.421875 
Q 18.3125 41.40625 16.84375 37.9375 
Q 15.375 34.46875 15.375 28.375 
L 15.375 0 
z
" id="ArialMT-104"/>
     </defs>
     <g style="fill:#262626;" transform="translate(190.126719 21.90449)scale(0.13 -0.13)">
      <use xlink:href="#ArialMT-100"/>
      <use x="55.615234" xlink:href="#ArialMT-100"/>
      <use x="111.230469" xlink:href="#ArialMT-112"/>
      <use x="166.845703" xlink:href="#ArialMT-103"/>
      <use x="222.460938" xlink:href="#ArialMT-45"/>
      <use x="255.761719" xlink:href="#ArialMT-112"/>
      <use x="311.376953" xlink:href="#ArialMT-121"/>
      <use x="361.376953" xlink:href="#ArialMT-116"/>
      <use x="389.160156" xlink:href="#ArialMT-111"/>
      <use x="444.775391" xlink:href="#ArialMT-114"/>
      <use x="478.076172" xlink:href="#ArialMT-99"/>
      <use x="528.076172" xlink:href="#ArialMT-104"/>
     </g>
    </g>
   </g>
  </g>
 </g>
 <defs>
  <clipPath id="p1d1933ced8">
   <rect height="128.4308" width="221.8" x="49.4" y="32.4092"/>
  </clipPath>
 </defs>
</svg>
