<?xml version="1.0" encoding="utf-8" standalone="no"?>
<!DOCTYPE svg PUBLIC "-//W3C//DTD SVG 1.1//EN"
  "http://www.w3.org/Graphics/SVG/1.1/DTD/svg11.dtd">
<!-- Created with matplotlib (https://matplotlib.org/) -->
<svg height="198pt" version="1.1" viewBox="0 0 277.2 198" width="277.2pt" xmlns="http://www.w3.org/2000/svg" xmlns:xlink="http://www.w3.org/1999/xlink">
 <defs>
  <style type="text/css">
*{stroke-linecap:butt;stroke-linejoin:round;}
  </style>
 </defs>
 <g id="figure_1">
  <g id="patch_1">
   <path d="M 0 198 
L 277.2 198 
L 277.2 0 
L 0 0 
z
" style="fill:#ffffff;"/>
  </g>
  <g id="axes_1">
   <g id="patch_2">
    <path d="M 43.82 160.84 
L 271.2 160.84 
L 271.2 32.4092 
L 43.82 32.4092 
z
" style="fill:#eaeaf2;"/>
   </g>
   <g id="matplotlib.axis_1">
    <g id="xtick_1">
     <g id="line2d_1">
      <path clip-path="url(#pc8c6c12092)" d="M 81.083019 160.84 
L 81.083019 32.4092 
" style="fill:none;stroke:#ffffff;stroke-linecap:round;"/>
     </g>
     <g id="line2d_2"/>
     <g id="text_1">
      <!-- 0.5 -->
      <defs>
       <path d="M 4.15625 35.296875 
Q 4.15625 48 6.765625 55.734375 
Q 9.375 63.484375 14.515625 67.671875 
Q 19.671875 71.875 27.484375 71.875 
Q 33.25 71.875 37.59375 69.546875 
Q 41.9375 67.234375 44.765625 62.859375 
Q 47.609375 58.5 49.21875 52.21875 
Q 50.828125 45.953125 50.828125 35.296875 
Q 50.828125 22.703125 48.234375 14.96875 
Q 45.65625 7.234375 40.5 3 
Q 35.359375 -1.21875 27.484375 -1.21875 
Q 17.140625 -1.21875 11.234375 6.203125 
Q 4.15625 15.140625 4.15625 35.296875 
z
M 13.1875 35.296875 
Q 13.1875 17.671875 17.3125 11.828125 
Q 21.4375 6 27.484375 6 
Q 33.546875 6 37.671875 11.859375 
Q 41.796875 17.71875 41.796875 35.296875 
Q 41.796875 52.984375 37.671875 58.78125 
Q 33.546875 64.59375 27.390625 64.59375 
Q 21.34375 64.59375 17.71875 59.46875 
Q 13.1875 52.9375 13.1875 35.296875 
z
" id="ArialMT-48"/>
       <path d="M 9.078125 0 
L 9.078125 10.015625 
L 19.09375 10.015625 
L 19.09375 0 
z
" id="ArialMT-46"/>
       <path d="M 4.15625 18.75 
L 13.375 19.53125 
Q 14.40625 12.796875 18.140625 9.390625 
Q 21.875 6 27.15625 6 
Q 33.5 6 37.890625 10.78125 
Q 42.28125 15.578125 42.28125 23.484375 
Q 42.28125 31 38.0625 35.34375 
Q 33.84375 39.703125 27 39.703125 
Q 22.75 39.703125 19.328125 37.765625 
Q 15.921875 35.84375 13.96875 32.765625 
L 5.71875 33.84375 
L 12.640625 70.609375 
L 48.25 70.609375 
L 48.25 62.203125 
L 19.671875 62.203125 
L 15.828125 42.96875 
Q 22.265625 47.46875 29.34375 47.46875 
Q 38.71875 47.46875 45.15625 40.96875 
Q 51.609375 34.46875 51.609375 24.265625 
Q 51.609375 14.546875 45.953125 7.46875 
Q 39.0625 -1.21875 27.15625 -1.21875 
Q 17.390625 -1.21875 11.203125 4.25 
Q 5.03125 9.71875 4.15625 18.75 
z
" id="ArialMT-53"/>
      </defs>
      <g style="fill:#262626;" transform="translate(74.133019 174.997813)scale(0.1 -0.1)">
       <use xlink:href="#ArialMT-48"/>
       <use x="55.615234" xlink:href="#ArialMT-46"/>
       <use x="83.398438" xlink:href="#ArialMT-53"/>
      </g>
     </g>
    </g>
    <g id="xtick_2">
     <g id="line2d_3">
      <path clip-path="url(#pc8c6c12092)" d="M 119.106431 160.84 
L 119.106431 32.4092 
" style="fill:none;stroke:#ffffff;stroke-linecap:round;"/>
     </g>
     <g id="line2d_4"/>
     <g id="text_2">
      <!-- 1.0 -->
      <defs>
       <path d="M 37.25 0 
L 28.46875 0 
L 28.46875 56 
Q 25.296875 52.984375 20.140625 49.953125 
Q 14.984375 46.921875 10.890625 45.40625 
L 10.890625 53.90625 
Q 18.265625 57.375 23.78125 62.296875 
Q 29.296875 67.234375 31.59375 71.875 
L 37.25 71.875 
z
" id="ArialMT-49"/>
      </defs>
      <g style="fill:#262626;" transform="translate(112.156431 174.997813)scale(0.1 -0.1)">
       <use xlink:href="#ArialMT-49"/>
       <use x="55.615234" xlink:href="#ArialMT-46"/>
       <use x="83.398438" xlink:href="#ArialMT-48"/>
      </g>
     </g>
    </g>
    <g id="xtick_3">
     <g id="line2d_5">
      <path clip-path="url(#pc8c6c12092)" d="M 157.129842 160.84 
L 157.129842 32.4092 
" style="fill:none;stroke:#ffffff;stroke-linecap:round;"/>
     </g>
     <g id="line2d_6"/>
     <g id="text_3">
      <!-- 1.5 -->
      <g style="fill:#262626;" transform="translate(150.179842 174.997813)scale(0.1 -0.1)">
       <use xlink:href="#ArialMT-49"/>
       <use x="55.615234" xlink:href="#ArialMT-46"/>
       <use x="83.398438" xlink:href="#ArialMT-53"/>
      </g>
     </g>
    </g>
    <g id="xtick_4">
     <g id="line2d_7">
      <path clip-path="url(#pc8c6c12092)" d="M 195.153253 160.84 
L 195.153253 32.4092 
" style="fill:none;stroke:#ffffff;stroke-linecap:round;"/>
     </g>
     <g id="line2d_8"/>
     <g id="text_4">
      <!-- 2.0 -->
      <defs>
       <path d="M 50.34375 8.453125 
L 50.34375 0 
L 3.03125 0 
Q 2.9375 3.171875 4.046875 6.109375 
Q 5.859375 10.9375 9.828125 15.625 
Q 13.8125 20.3125 21.34375 26.46875 
Q 33.015625 36.03125 37.109375 41.625 
Q 41.21875 47.21875 41.21875 52.203125 
Q 41.21875 57.421875 37.46875 61 
Q 33.734375 64.59375 27.734375 64.59375 
Q 21.390625 64.59375 17.578125 60.78125 
Q 13.765625 56.984375 13.71875 50.25 
L 4.6875 51.171875 
Q 5.609375 61.28125 11.65625 66.578125 
Q 17.71875 71.875 27.9375 71.875 
Q 38.234375 71.875 44.234375 66.15625 
Q 50.25 60.453125 50.25 52 
Q 50.25 47.703125 48.484375 43.546875 
Q 46.734375 39.40625 42.65625 34.8125 
Q 38.578125 30.21875 29.109375 22.21875 
Q 21.1875 15.578125 18.9375 13.203125 
Q 16.703125 10.84375 15.234375 8.453125 
z
" id="ArialMT-50"/>
      </defs>
      <g style="fill:#262626;" transform="translate(188.203253 174.997813)scale(0.1 -0.1)">
       <use xlink:href="#ArialMT-50"/>
       <use x="55.615234" xlink:href="#ArialMT-46"/>
       <use x="83.398438" xlink:href="#ArialMT-48"/>
      </g>
     </g>
    </g>
    <g id="xtick_5">
     <g id="line2d_9">
      <path clip-path="url(#pc8c6c12092)" d="M 233.176665 160.84 
L 233.176665 32.4092 
" style="fill:none;stroke:#ffffff;stroke-linecap:round;"/>
     </g>
     <g id="line2d_10"/>
     <g id="text_5">
      <!-- 2.5 -->
      <g style="fill:#262626;" transform="translate(226.226665 174.997813)scale(0.1 -0.1)">
       <use xlink:href="#ArialMT-50"/>
       <use x="55.615234" xlink:href="#ArialMT-46"/>
       <use x="83.398438" xlink:href="#ArialMT-53"/>
      </g>
     </g>
    </g>
    <g id="text_6">
     <!-- TotalEnvInteracts -->
     <defs>
      <path d="M 25.921875 0 
L 25.921875 63.140625 
L 2.34375 63.140625 
L 2.34375 71.578125 
L 59.078125 71.578125 
L 59.078125 63.140625 
L 35.40625 63.140625 
L 35.40625 0 
z
" id="ArialMT-84"/>
      <path d="M 3.328125 25.921875 
Q 3.328125 40.328125 11.328125 47.265625 
Q 18.015625 53.03125 27.640625 53.03125 
Q 38.328125 53.03125 45.109375 46.015625 
Q 51.90625 39.015625 51.90625 26.65625 
Q 51.90625 16.65625 48.90625 10.90625 
Q 45.90625 5.171875 40.15625 2 
Q 34.421875 -1.171875 27.640625 -1.171875 
Q 16.75 -1.171875 10.03125 5.8125 
Q 3.328125 12.796875 3.328125 25.921875 
z
M 12.359375 25.921875 
Q 12.359375 15.96875 16.703125 11.015625 
Q 21.046875 6.0625 27.640625 6.0625 
Q 34.1875 6.0625 38.53125 11.03125 
Q 42.875 16.015625 42.875 26.21875 
Q 42.875 35.84375 38.5 40.796875 
Q 34.125 45.75 27.640625 45.75 
Q 21.046875 45.75 16.703125 40.8125 
Q 12.359375 35.890625 12.359375 25.921875 
z
" id="ArialMT-111"/>
      <path d="M 25.78125 7.859375 
L 27.046875 0.09375 
Q 23.34375 -0.6875 20.40625 -0.6875 
Q 15.625 -0.6875 12.984375 0.828125 
Q 10.359375 2.34375 9.28125 4.8125 
Q 8.203125 7.28125 8.203125 15.1875 
L 8.203125 45.015625 
L 1.765625 45.015625 
L 1.765625 51.859375 
L 8.203125 51.859375 
L 8.203125 64.703125 
L 16.9375 69.96875 
L 16.9375 51.859375 
L 25.78125 51.859375 
L 25.78125 45.015625 
L 16.9375 45.015625 
L 16.9375 14.703125 
Q 16.9375 10.9375 17.40625 9.859375 
Q 17.875 8.796875 18.921875 8.15625 
Q 19.96875 7.515625 21.921875 7.515625 
Q 23.390625 7.515625 25.78125 7.859375 
z
" id="ArialMT-116"/>
      <path d="M 40.4375 6.390625 
Q 35.546875 2.25 31.03125 0.53125 
Q 26.515625 -1.171875 21.34375 -1.171875 
Q 12.796875 -1.171875 8.203125 3 
Q 3.609375 7.171875 3.609375 13.671875 
Q 3.609375 17.484375 5.34375 20.625 
Q 7.078125 23.78125 9.890625 25.6875 
Q 12.703125 27.59375 16.21875 28.5625 
Q 18.796875 29.25 24.03125 29.890625 
Q 34.671875 31.15625 39.703125 32.90625 
Q 39.75 34.71875 39.75 35.203125 
Q 39.75 40.578125 37.25 42.78125 
Q 33.890625 45.75 27.25 45.75 
Q 21.046875 45.75 18.09375 43.578125 
Q 15.140625 41.40625 13.71875 35.890625 
L 5.125 37.0625 
Q 6.296875 42.578125 8.984375 45.96875 
Q 11.671875 49.359375 16.75 51.1875 
Q 21.828125 53.03125 28.515625 53.03125 
Q 35.15625 53.03125 39.296875 51.46875 
Q 43.453125 49.90625 45.40625 47.53125 
Q 47.359375 45.171875 48.140625 41.546875 
Q 48.578125 39.3125 48.578125 33.453125 
L 48.578125 21.734375 
Q 48.578125 9.46875 49.140625 6.21875 
Q 49.703125 2.984375 51.375 0 
L 42.1875 0 
Q 40.828125 2.734375 40.4375 6.390625 
z
M 39.703125 26.03125 
Q 34.90625 24.078125 25.34375 22.703125 
Q 19.921875 21.921875 17.671875 20.9375 
Q 15.4375 19.96875 14.203125 18.09375 
Q 12.984375 16.21875 12.984375 13.921875 
Q 12.984375 10.40625 15.640625 8.0625 
Q 18.3125 5.71875 23.4375 5.71875 
Q 28.515625 5.71875 32.46875 7.9375 
Q 36.421875 10.15625 38.28125 14.015625 
Q 39.703125 17 39.703125 22.796875 
z
" id="ArialMT-97"/>
      <path d="M 6.390625 0 
L 6.390625 71.578125 
L 15.1875 71.578125 
L 15.1875 0 
z
" id="ArialMT-108"/>
      <path d="M 7.90625 0 
L 7.90625 71.578125 
L 59.671875 71.578125 
L 59.671875 63.140625 
L 17.390625 63.140625 
L 17.390625 41.21875 
L 56.984375 41.21875 
L 56.984375 32.8125 
L 17.390625 32.8125 
L 17.390625 8.453125 
L 61.328125 8.453125 
L 61.328125 0 
z
" id="ArialMT-69"/>
      <path d="M 6.59375 0 
L 6.59375 51.859375 
L 14.5 51.859375 
L 14.5 44.484375 
Q 20.21875 53.03125 31 53.03125 
Q 35.6875 53.03125 39.625 51.34375 
Q 43.5625 49.65625 45.515625 46.921875 
Q 47.46875 44.1875 48.25 40.4375 
Q 48.734375 37.984375 48.734375 31.890625 
L 48.734375 0 
L 39.9375 0 
L 39.9375 31.546875 
Q 39.9375 36.921875 38.90625 39.578125 
Q 37.890625 42.234375 35.28125 43.8125 
Q 32.671875 45.40625 29.15625 45.40625 
Q 23.53125 45.40625 19.453125 41.84375 
Q 15.375 38.28125 15.375 28.328125 
L 15.375 0 
z
" id="ArialMT-110"/>
      <path d="M 21 0 
L 1.265625 51.859375 
L 10.546875 51.859375 
L 21.6875 20.796875 
Q 23.484375 15.765625 25 10.359375 
Q 26.171875 14.453125 28.265625 20.21875 
L 39.796875 51.859375 
L 48.828125 51.859375 
L 29.203125 0 
z
" id="ArialMT-118"/>
      <path d="M 9.328125 0 
L 9.328125 71.578125 
L 18.796875 71.578125 
L 18.796875 0 
z
" id="ArialMT-73"/>
      <path d="M 42.09375 16.703125 
L 51.171875 15.578125 
Q 49.03125 7.625 43.21875 3.21875 
Q 37.40625 -1.171875 28.375 -1.171875 
Q 17 -1.171875 10.328125 5.828125 
Q 3.65625 12.84375 3.65625 25.484375 
Q 3.65625 38.578125 10.390625 45.796875 
Q 17.140625 53.03125 27.875 53.03125 
Q 38.28125 53.03125 44.875 45.953125 
Q 51.46875 38.875 51.46875 26.03125 
Q 51.46875 25.25 51.421875 23.6875 
L 12.75 23.6875 
Q 13.234375 15.140625 17.578125 10.59375 
Q 21.921875 6.0625 28.421875 6.0625 
Q 33.25 6.0625 36.671875 8.59375 
Q 40.09375 11.140625 42.09375 16.703125 
z
M 13.234375 30.90625 
L 42.1875 30.90625 
Q 41.609375 37.453125 38.875 40.71875 
Q 34.671875 45.796875 27.984375 45.796875 
Q 21.921875 45.796875 17.796875 41.75 
Q 13.671875 37.703125 13.234375 30.90625 
z
" id="ArialMT-101"/>
      <path d="M 6.5 0 
L 6.5 51.859375 
L 14.40625 51.859375 
L 14.40625 44 
Q 17.4375 49.515625 20 51.265625 
Q 22.5625 53.03125 25.640625 53.03125 
Q 30.078125 53.03125 34.671875 50.203125 
L 31.640625 42.046875 
Q 28.421875 43.953125 25.203125 43.953125 
Q 22.3125 43.953125 20.015625 42.21875 
Q 17.71875 40.484375 16.75 37.40625 
Q 15.28125 32.71875 15.28125 27.15625 
L 15.28125 0 
z
" id="ArialMT-114"/>
      <path d="M 40.4375 19 
L 49.078125 17.875 
Q 47.65625 8.9375 41.8125 3.875 
Q 35.984375 -1.171875 27.484375 -1.171875 
Q 16.84375 -1.171875 10.375 5.78125 
Q 3.90625 12.75 3.90625 25.734375 
Q 3.90625 34.125 6.6875 40.421875 
Q 9.46875 46.734375 15.15625 49.875 
Q 20.84375 53.03125 27.546875 53.03125 
Q 35.984375 53.03125 41.359375 48.75 
Q 46.734375 44.484375 48.25 36.625 
L 39.703125 35.296875 
Q 38.484375 40.53125 35.375 43.15625 
Q 32.28125 45.796875 27.875 45.796875 
Q 21.234375 45.796875 17.078125 41.03125 
Q 12.9375 36.28125 12.9375 25.984375 
Q 12.9375 15.53125 16.9375 10.796875 
Q 20.953125 6.0625 27.390625 6.0625 
Q 32.5625 6.0625 36.03125 9.234375 
Q 39.5 12.40625 40.4375 19 
z
" id="ArialMT-99"/>
      <path d="M 3.078125 15.484375 
L 11.765625 16.84375 
Q 12.5 11.625 15.84375 8.84375 
Q 19.1875 6.0625 25.203125 6.0625 
Q 31.25 6.0625 34.171875 8.515625 
Q 37.109375 10.984375 37.109375 14.3125 
Q 37.109375 17.28125 34.515625 19 
Q 32.71875 20.171875 25.53125 21.96875 
Q 15.875 24.421875 12.140625 26.203125 
Q 8.40625 27.984375 6.46875 31.125 
Q 4.546875 34.28125 4.546875 38.09375 
Q 4.546875 41.546875 6.125 44.5 
Q 7.71875 47.46875 10.453125 49.421875 
Q 12.5 50.921875 16.03125 51.96875 
Q 19.578125 53.03125 23.640625 53.03125 
Q 29.734375 53.03125 34.34375 51.265625 
Q 38.96875 49.515625 41.15625 46.5 
Q 43.359375 43.5 44.1875 38.484375 
L 35.59375 37.3125 
Q 35.015625 41.3125 32.203125 43.546875 
Q 29.390625 45.796875 24.265625 45.796875 
Q 18.21875 45.796875 15.625 43.796875 
Q 13.03125 41.796875 13.03125 39.109375 
Q 13.03125 37.40625 14.109375 36.03125 
Q 15.1875 34.625 17.484375 33.6875 
Q 18.796875 33.203125 25.25 31.453125 
Q 34.578125 28.953125 38.25 27.359375 
Q 41.9375 25.78125 44.03125 22.75 
Q 46.140625 19.734375 46.140625 15.234375 
Q 46.140625 10.84375 43.578125 6.953125 
Q 41.015625 3.078125 36.171875 0.953125 
Q 31.34375 -1.171875 25.25 -1.171875 
Q 15.140625 -1.171875 9.84375 3.03125 
Q 4.546875 7.234375 3.078125 15.484375 
z
" id="ArialMT-115"/>
     </defs>
     <g style="fill:#262626;" transform="translate(114.725156 188.858906)scale(0.11 -0.11)">
      <use xlink:href="#ArialMT-84"/>
      <use x="60.912109" xlink:href="#ArialMT-111"/>
      <use x="116.527344" xlink:href="#ArialMT-116"/>
      <use x="144.310547" xlink:href="#ArialMT-97"/>
      <use x="199.925781" xlink:href="#ArialMT-108"/>
      <use x="222.142578" xlink:href="#ArialMT-69"/>
      <use x="288.841797" xlink:href="#ArialMT-110"/>
      <use x="344.457031" xlink:href="#ArialMT-118"/>
      <use x="394.457031" xlink:href="#ArialMT-73"/>
      <use x="422.240234" xlink:href="#ArialMT-110"/>
      <use x="477.855469" xlink:href="#ArialMT-116"/>
      <use x="505.638672" xlink:href="#ArialMT-101"/>
      <use x="561.253906" xlink:href="#ArialMT-114"/>
      <use x="594.554688" xlink:href="#ArialMT-97"/>
      <use x="650.169922" xlink:href="#ArialMT-99"/>
      <use x="700.169922" xlink:href="#ArialMT-116"/>
      <use x="727.953125" xlink:href="#ArialMT-115"/>
     </g>
    </g>
    <g id="text_7">
     <!-- 1e6 -->
     <defs>
      <path d="M 49.75 54.046875 
L 41.015625 53.375 
Q 39.84375 58.546875 37.703125 60.890625 
Q 34.125 64.65625 28.90625 64.65625 
Q 24.703125 64.65625 21.53125 62.3125 
Q 17.390625 59.28125 14.984375 53.46875 
Q 12.59375 47.65625 12.5 36.921875 
Q 15.671875 41.75 20.265625 44.09375 
Q 24.859375 46.4375 29.890625 46.4375 
Q 38.671875 46.4375 44.84375 39.96875 
Q 51.03125 33.5 51.03125 23.25 
Q 51.03125 16.5 48.125 10.71875 
Q 45.21875 4.9375 40.140625 1.859375 
Q 35.0625 -1.21875 28.609375 -1.21875 
Q 17.625 -1.21875 10.6875 6.859375 
Q 3.765625 14.9375 3.765625 33.5 
Q 3.765625 54.25 11.421875 63.671875 
Q 18.109375 71.875 29.4375 71.875 
Q 37.890625 71.875 43.28125 67.140625 
Q 48.6875 62.40625 49.75 54.046875 
z
M 13.875 23.1875 
Q 13.875 18.65625 15.796875 14.5 
Q 17.71875 10.359375 21.1875 8.171875 
Q 24.65625 6 28.46875 6 
Q 34.03125 6 38.03125 10.484375 
Q 42.046875 14.984375 42.046875 22.703125 
Q 42.046875 30.125 38.078125 34.390625 
Q 34.125 38.671875 28.125 38.671875 
Q 22.171875 38.671875 18.015625 34.390625 
Q 13.875 30.125 13.875 23.1875 
z
" id="ArialMT-54"/>
     </defs>
     <g style="fill:#262626;" transform="translate(254.517187 187.143125)scale(0.1 -0.1)">
      <use xlink:href="#ArialMT-49"/>
      <use x="55.615234" xlink:href="#ArialMT-101"/>
      <use x="111.230469" xlink:href="#ArialMT-54"/>
     </g>
    </g>
   </g>
   <g id="matplotlib.axis_2">
    <g id="ytick_1">
     <g id="line2d_11">
      <path clip-path="url(#pc8c6c12092)" d="M 43.82 151.066951 
L 271.2 151.066951 
" style="fill:none;stroke:#ffffff;stroke-linecap:round;"/>
     </g>
     <g id="line2d_12"/>
     <g id="text_8">
      <!-- 25 -->
      <g style="fill:#262626;" transform="translate(25.698125 154.645858)scale(0.1 -0.1)">
       <use xlink:href="#ArialMT-50"/>
       <use x="55.615234" xlink:href="#ArialMT-53"/>
      </g>
     </g>
    </g>
    <g id="ytick_2">
     <g id="line2d_13">
      <path clip-path="url(#pc8c6c12092)" d="M 43.82 124.620529 
L 271.2 124.620529 
" style="fill:none;stroke:#ffffff;stroke-linecap:round;"/>
     </g>
     <g id="line2d_14"/>
     <g id="text_9">
      <!-- 50 -->
      <g style="fill:#262626;" transform="translate(25.698125 128.199435)scale(0.1 -0.1)">
       <use xlink:href="#ArialMT-53"/>
       <use x="55.615234" xlink:href="#ArialMT-48"/>
      </g>
     </g>
    </g>
    <g id="ytick_3">
     <g id="line2d_15">
      <path clip-path="url(#pc8c6c12092)" d="M 43.82 98.174106 
L 271.2 98.174106 
" style="fill:none;stroke:#ffffff;stroke-linecap:round;"/>
     </g>
     <g id="line2d_16"/>
     <g id="text_10">
      <!-- 75 -->
      <defs>
       <path d="M 4.734375 62.203125 
L 4.734375 70.65625 
L 51.078125 70.65625 
L 51.078125 63.8125 
Q 44.234375 56.546875 37.515625 44.484375 
Q 30.8125 32.421875 27.15625 19.671875 
Q 24.515625 10.6875 23.78125 0 
L 14.75 0 
Q 14.890625 8.453125 18.0625 20.40625 
Q 21.234375 32.375 27.171875 43.484375 
Q 33.109375 54.59375 39.796875 62.203125 
z
" id="ArialMT-55"/>
      </defs>
      <g style="fill:#262626;" transform="translate(25.698125 101.753012)scale(0.1 -0.1)">
       <use xlink:href="#ArialMT-55"/>
       <use x="55.615234" xlink:href="#ArialMT-53"/>
      </g>
     </g>
    </g>
    <g id="ytick_4">
     <g id="line2d_17">
      <path clip-path="url(#pc8c6c12092)" d="M 43.82 71.727683 
L 271.2 71.727683 
" style="fill:none;stroke:#ffffff;stroke-linecap:round;"/>
     </g>
     <g id="line2d_18"/>
     <g id="text_11">
      <!-- 100 -->
      <g style="fill:#262626;" transform="translate(20.137187 75.30659)scale(0.1 -0.1)">
       <use xlink:href="#ArialMT-49"/>
       <use x="55.615234" xlink:href="#ArialMT-48"/>
       <use x="111.230469" xlink:href="#ArialMT-48"/>
      </g>
     </g>
    </g>
    <g id="ytick_5">
     <g id="line2d_19">
      <path clip-path="url(#pc8c6c12092)" d="M 43.82 45.281261 
L 271.2 45.281261 
" style="fill:none;stroke:#ffffff;stroke-linecap:round;"/>
     </g>
     <g id="line2d_20"/>
     <g id="text_12">
      <!-- 125 -->
      <g style="fill:#262626;" transform="translate(20.137187 48.860167)scale(0.1 -0.1)">
       <use xlink:href="#ArialMT-49"/>
       <use x="55.615234" xlink:href="#ArialMT-50"/>
       <use x="111.230469" xlink:href="#ArialMT-53"/>
      </g>
     </g>
    </g>
    <g id="text_13">
     <!-- Performance -->
     <defs>
      <path d="M 7.71875 0 
L 7.71875 71.578125 
L 34.71875 71.578125 
Q 41.84375 71.578125 45.609375 70.90625 
Q 50.875 70.015625 54.4375 67.546875 
Q 58.015625 65.09375 60.1875 60.640625 
Q 62.359375 56.203125 62.359375 50.875 
Q 62.359375 41.75 56.546875 35.421875 
Q 50.734375 29.109375 35.546875 29.109375 
L 17.1875 29.109375 
L 17.1875 0 
z
M 17.1875 37.546875 
L 35.6875 37.546875 
Q 44.875 37.546875 48.734375 40.96875 
Q 52.59375 44.390625 52.59375 50.59375 
Q 52.59375 55.078125 50.3125 58.265625 
Q 48.046875 61.46875 44.34375 62.5 
Q 41.9375 63.140625 35.5 63.140625 
L 17.1875 63.140625 
z
" id="ArialMT-80"/>
      <path d="M 8.6875 0 
L 8.6875 45.015625 
L 0.921875 45.015625 
L 0.921875 51.859375 
L 8.6875 51.859375 
L 8.6875 57.375 
Q 8.6875 62.59375 9.625 65.140625 
Q 10.890625 68.5625 14.078125 70.671875 
Q 17.28125 72.796875 23.046875 72.796875 
Q 26.765625 72.796875 31.25 71.921875 
L 29.9375 64.265625 
Q 27.203125 64.75 24.75 64.75 
Q 20.75 64.75 19.09375 63.03125 
Q 17.4375 61.328125 17.4375 56.640625 
L 17.4375 51.859375 
L 27.546875 51.859375 
L 27.546875 45.015625 
L 17.4375 45.015625 
L 17.4375 0 
z
" id="ArialMT-102"/>
      <path d="M 6.59375 0 
L 6.59375 51.859375 
L 14.453125 51.859375 
L 14.453125 44.578125 
Q 16.890625 48.390625 20.9375 50.703125 
Q 25 53.03125 30.171875 53.03125 
Q 35.9375 53.03125 39.625 50.640625 
Q 43.3125 48.25 44.828125 43.953125 
Q 50.984375 53.03125 60.84375 53.03125 
Q 68.5625 53.03125 72.703125 48.75 
Q 76.859375 44.484375 76.859375 35.59375 
L 76.859375 0 
L 68.109375 0 
L 68.109375 32.671875 
Q 68.109375 37.9375 67.25 40.25 
Q 66.40625 42.578125 64.15625 43.984375 
Q 61.921875 45.40625 58.890625 45.40625 
Q 53.421875 45.40625 49.796875 41.765625 
Q 46.1875 38.140625 46.1875 30.125 
L 46.1875 0 
L 37.40625 0 
L 37.40625 33.6875 
Q 37.40625 39.546875 35.25 42.46875 
Q 33.109375 45.40625 28.21875 45.40625 
Q 24.515625 45.40625 21.359375 43.453125 
Q 18.21875 41.5 16.796875 37.734375 
Q 15.375 33.984375 15.375 26.90625 
L 15.375 0 
z
" id="ArialMT-109"/>
     </defs>
     <g style="fill:#262626;" transform="translate(13.950937 128.107803)rotate(-90)scale(0.11 -0.11)">
      <use xlink:href="#ArialMT-80"/>
      <use x="66.699219" xlink:href="#ArialMT-101"/>
      <use x="122.314453" xlink:href="#ArialMT-114"/>
      <use x="155.615234" xlink:href="#ArialMT-102"/>
      <use x="183.398438" xlink:href="#ArialMT-111"/>
      <use x="239.013672" xlink:href="#ArialMT-114"/>
      <use x="272.314453" xlink:href="#ArialMT-109"/>
      <use x="355.615234" xlink:href="#ArialMT-97"/>
      <use x="411.230469" xlink:href="#ArialMT-110"/>
      <use x="466.845703" xlink:href="#ArialMT-99"/>
      <use x="516.845703" xlink:href="#ArialMT-101"/>
     </g>
    </g>
   </g>
   <g id="PolyCollection_1">
    <path clip-path="url(#pc8c6c12092)" d="M 43.82 140.096686 
L 43.82 148.798176 
L 44.580468 147.546879 
L 45.340936 146.282404 
L 46.101405 145.659874 
L 46.861873 144.648689 
L 47.622341 144.327419 
L 48.382809 143.67052 
L 49.143278 141.654144 
L 49.903746 140.995164 
L 50.664214 141.005654 
L 51.424682 140.124411 
L 52.185151 138.80858 
L 52.945619 138.213188 
L 53.706087 137.595491 
L 54.466555 136.598048 
L 55.227023 135.416496 
L 55.987492 134.584084 
L 56.74796 133.702612 
L 57.508428 133.529829 
L 58.268896 133.198541 
L 59.029365 133.924447 
L 59.789833 134.922251 
L 60.550301 135.803244 
L 61.310769 136.80154 
L 62.071237 137.473087 
L 62.831706 138.310606 
L 63.592174 138.402386 
L 64.352642 139.505563 
L 65.11311 139.942447 
L 65.873579 140.649266 
L 66.634047 141.398987 
L 67.394515 141.430917 
L 68.154983 141.713711 
L 68.915452 141.699585 
L 69.67592 142.002379 
L 70.436388 142.312138 
L 71.196856 142.57661 
L 71.957324 142.668817 
L 72.717793 142.572768 
L 73.478261 142.84951 
L 74.238729 142.930775 
L 74.999197 142.670038 
L 75.759666 142.644878 
L 76.520134 142.659345 
L 77.280602 142.973328 
L 78.04107 142.639915 
L 78.801538 142.586288 
L 79.562007 142.590602 
L 80.322475 142.621147 
L 81.082943 142.892103 
L 81.843411 142.914098 
L 82.60388 143.083805 
L 83.364348 143.318514 
L 84.124816 143.391446 
L 84.885284 143.409886 
L 85.645753 143.404806 
L 86.406221 143.587042 
L 87.166689 143.591479 
L 87.927157 143.632682 
L 88.687625 144.043676 
L 89.448094 143.942648 
L 90.208562 143.852475 
L 90.96903 143.920402 
L 91.729498 143.880473 
L 92.489967 143.813413 
L 93.250435 143.806062 
L 94.010903 143.987129 
L 94.771371 144.097692 
L 95.531839 144.254842 
L 96.292308 144.264368 
L 97.052776 144.084693 
L 97.813244 144.076918 
L 98.573712 144.213423 
L 99.334181 144.075063 
L 100.094649 144.175164 
L 100.855117 144.171853 
L 101.615585 144.235955 
L 102.376054 144.148909 
L 103.136522 144.028826 
L 103.89699 143.920079 
L 104.657458 143.988244 
L 105.417926 143.965787 
L 106.178395 144.006279 
L 106.938863 143.826471 
L 107.699331 143.89567 
L 108.459799 143.884196 
L 109.220268 143.930667 
L 109.980736 143.849515 
L 110.741204 143.737107 
L 111.501672 143.863294 
L 112.26214 143.981844 
L 113.022609 143.825083 
L 113.783077 143.862378 
L 114.543545 143.976533 
L 115.304013 144.214719 
L 116.064482 144.12462 
L 116.82495 144.091384 
L 117.585418 144.169017 
L 118.345886 144.257075 
L 119.106355 144.451116 
L 119.866823 144.329449 
L 120.627291 144.341487 
L 121.387759 144.2968 
L 122.148227 144.048153 
L 122.908696 143.833085 
L 123.669164 143.679194 
L 124.429632 143.569427 
L 125.1901 143.595291 
L 125.950569 143.561059 
L 126.711037 143.45219 
L 127.471505 143.179986 
L 128.231973 143.145541 
L 128.992441 142.900446 
L 129.75291 142.621873 
L 130.513378 142.626567 
L 131.273846 142.527493 
L 132.034314 142.304837 
L 132.794783 142.260039 
L 133.555251 141.991096 
L 134.315719 141.736398 
L 135.076187 141.591999 
L 135.836656 141.526266 
L 136.597124 141.337908 
L 137.357592 141.408603 
L 138.11806 141.458964 
L 138.878528 141.40568 
L 139.638997 141.370879 
L 140.399465 141.484243 
L 141.159933 141.658822 
L 141.920401 142.04516 
L 142.68087 142.119572 
L 143.441338 142.281536 
L 144.201806 142.597578 
L 144.962274 142.766193 
L 145.722742 142.721955 
L 146.483211 142.816686 
L 147.243679 142.84503 
L 148.004147 142.911786 
L 148.764615 142.974356 
L 149.525084 142.946203 
L 150.285552 142.727395 
L 151.04602 142.814301 
L 151.806488 142.849848 
L 152.566957 142.636454 
L 153.327425 142.576497 
L 154.087893 142.71806 
L 154.848361 142.819722 
L 155.608829 142.951187 
L 156.369298 143.015661 
L 157.129766 142.096656 
L 157.890234 141.944356 
L 158.650702 141.841711 
L 159.411171 141.762364 
L 160.171639 141.715437 
L 160.932107 141.846899 
L 161.692575 141.86404 
L 162.453043 141.637868 
L 163.213512 141.526155 
L 163.97398 141.429789 
L 164.734448 141.311407 
L 165.494916 142.30213 
L 166.255385 142.28718 
L 167.015853 142.232916 
L 167.776321 142.179521 
L 168.536789 142.189093 
L 169.297258 142.007344 
L 170.057726 141.947102 
L 170.818194 142.0449 
L 171.578662 142.070218 
L 172.33913 142.0922 
L 173.099599 142.073323 
L 173.860067 141.866962 
L 174.620535 141.931503 
L 175.381003 141.907361 
L 176.141472 141.772882 
L 176.90194 141.615564 
L 177.662408 141.47686 
L 178.422876 141.470442 
L 179.183344 141.222156 
L 179.943813 141.186791 
L 180.704281 141.263553 
L 181.464749 141.330232 
L 182.225217 141.024216 
L 182.985686 140.852746 
L 183.746154 140.65086 
L 184.506622 140.739235 
L 185.26709 140.699036 
L 186.027559 140.719031 
L 186.788027 140.798459 
L 187.548495 140.891461 
L 188.308963 140.765079 
L 189.069431 140.657192 
L 189.8299 140.482698 
L 190.590368 140.335812 
L 191.350836 140.273444 
L 192.111304 140.239486 
L 192.871773 139.846745 
L 193.632241 139.722989 
L 194.392709 139.719702 
L 195.153177 139.578882 
L 195.913645 139.621747 
L 196.674114 139.733975 
L 197.434582 139.7918 
L 198.19505 139.880205 
L 198.955518 140.454111 
L 199.715987 140.679022 
L 200.476455 140.924275 
L 201.236923 141.300469 
L 201.997391 141.279922 
L 202.75786 141.400457 
L 203.518328 141.380423 
L 204.278796 141.243835 
L 205.039264 141.213394 
L 205.799732 141.047335 
L 206.560201 141.006259 
L 207.320669 141.000684 
L 208.081137 141.013308 
L 208.841605 140.896095 
L 209.602074 141.244354 
L 210.362542 141.370502 
L 211.12301 141.290996 
L 211.883478 141.512461 
L 212.643946 141.578502 
L 213.404415 141.707735 
L 214.164883 141.789306 
L 214.925351 141.939278 
L 215.685819 141.81811 
L 216.446288 141.698066 
L 217.206756 141.739147 
L 217.967224 141.534566 
L 218.727692 141.629159 
L 219.488161 141.5379 
L 220.248629 141.262712 
L 221.009097 141.331868 
L 221.769565 141.195199 
L 222.530033 141.016413 
L 223.290502 140.753441 
L 224.05097 140.706611 
L 224.811438 140.769979 
L 225.571906 140.83632 
L 226.332375 140.602171 
L 227.092843 140.565957 
L 227.853311 140.556948 
L 228.613779 140.60978 
L 229.374247 140.523417 
L 230.134716 140.344017 
L 230.895184 140.118163 
L 231.655652 140.049187 
L 232.41612 139.907366 
L 233.176589 139.793154 
L 233.937057 139.595506 
L 234.697525 139.428041 
L 235.457993 139.223242 
L 236.218462 139.142291 
L 236.97893 139.002641 
L 237.739398 138.995484 
L 238.499866 139.002656 
L 239.260334 139.039846 
L 240.020803 139.078553 
L 240.781271 139.07182 
L 241.541739 138.962663 
L 242.302207 138.929609 
L 243.062676 139.131654 
L 243.823144 139.36105 
L 244.583612 139.342197 
L 245.34408 139.309244 
L 246.104548 139.116755 
L 246.865017 138.98325 
L 247.625485 139.009747 
L 248.385953 138.833466 
L 249.146421 138.645559 
L 249.90689 138.519092 
L 250.667358 138.612616 
L 251.427826 138.126804 
L 252.188294 137.620094 
L 252.948763 137.510639 
L 253.709231 136.37867 
L 254.469699 136.270776 
L 255.230167 136.06466 
L 255.990635 135.968358 
L 256.751104 135.962064 
L 257.511572 136.0785 
L 258.27204 136.086769 
L 259.032508 136.011238 
L 259.792977 136.082937 
L 260.553445 136.276809 
L 261.313913 136.125921 
L 262.074381 137.33056 
L 262.834849 137.435429 
L 263.595318 137.349728 
L 264.355786 137.377245 
L 265.116254 137.518002 
L 265.876722 137.4795 
L 266.637191 137.549413 
L 267.397659 137.640726 
L 268.158127 137.734136 
L 268.918595 137.691472 
L 269.679064 137.856448 
L 270.439532 137.666821 
L 271.2 137.66492 
L 271.2 90.90388 
L 271.2 90.90388 
L 270.439532 91.334366 
L 269.679064 91.289102 
L 268.918595 91.230268 
L 268.158127 91.259722 
L 267.397659 91.308224 
L 266.637191 91.242695 
L 265.876722 91.383956 
L 265.116254 91.353749 
L 264.355786 91.443503 
L 263.595318 91.762948 
L 262.834849 91.662402 
L 262.074381 91.325099 
L 261.313913 93.814076 
L 260.553445 93.802203 
L 259.792977 93.843247 
L 259.032508 93.968824 
L 258.27204 94.000953 
L 257.511572 94.015329 
L 256.751104 94.088305 
L 255.990635 93.978462 
L 255.230167 93.90451 
L 254.469699 93.852574 
L 253.709231 94.062152 
L 252.948763 92.1435 
L 252.188294 92.500705 
L 251.427826 92.595763 
L 250.667358 92.682448 
L 249.90689 92.953866 
L 249.146421 93.277701 
L 248.385953 93.565372 
L 247.625485 93.786576 
L 246.865017 94.11121 
L 246.104548 94.327921 
L 245.34408 94.414299 
L 244.583612 94.124328 
L 243.823144 94.237412 
L 243.062676 94.428662 
L 242.302207 94.391889 
L 241.541739 94.408882 
L 240.781271 94.339453 
L 240.020803 94.394456 
L 239.260334 94.450836 
L 238.499866 94.366078 
L 237.739398 94.317688 
L 236.97893 94.484821 
L 236.218462 94.678125 
L 235.457993 94.439898 
L 234.697525 94.293538 
L 233.937057 94.44816 
L 233.176589 94.378701 
L 232.41612 94.24752 
L 231.655652 94.307034 
L 230.895184 94.271036 
L 230.134716 94.29777 
L 229.374247 94.45327 
L 228.613779 94.371341 
L 227.853311 94.227277 
L 227.092843 94.208187 
L 226.332375 94.271938 
L 225.571906 94.344875 
L 224.811438 94.746646 
L 224.05097 94.958573 
L 223.290502 95.007228 
L 222.530033 94.991053 
L 221.769565 94.996095 
L 221.009097 95.179939 
L 220.248629 95.330012 
L 219.488161 95.466366 
L 218.727692 95.742387 
L 217.967224 95.864359 
L 217.206756 95.806299 
L 216.446288 95.598404 
L 215.685819 95.662568 
L 214.925351 95.596204 
L 214.164883 95.711896 
L 213.404415 95.782383 
L 212.643946 95.714402 
L 211.883478 95.905832 
L 211.12301 95.967665 
L 210.362542 96.050827 
L 209.602074 96.076544 
L 208.841605 96.043893 
L 208.081137 96.095223 
L 207.320669 96.202623 
L 206.560201 96.33497 
L 205.799732 96.325915 
L 205.039264 96.345171 
L 204.278796 96.468456 
L 203.518328 96.262196 
L 202.75786 96.170314 
L 201.997391 96.085657 
L 201.236923 96.19133 
L 200.476455 96.504419 
L 199.715987 96.34328 
L 198.955518 96.734209 
L 198.19505 97.030438 
L 197.434582 97.172303 
L 196.674114 97.156565 
L 195.913645 96.910149 
L 195.153177 97.046908 
L 194.392709 97.011988 
L 193.632241 97.053717 
L 192.871773 97.23658 
L 192.111304 96.959591 
L 191.350836 97.143744 
L 190.590368 96.52553 
L 189.8299 96.234891 
L 189.069431 96.107248 
L 188.308963 96.102382 
L 187.548495 96.362812 
L 186.788027 95.999892 
L 186.027559 96.097576 
L 185.26709 96.046198 
L 184.506622 95.865244 
L 183.746154 95.855666 
L 182.985686 95.822691 
L 182.225217 95.881644 
L 181.464749 95.773779 
L 180.704281 95.916046 
L 179.943813 96.071901 
L 179.183344 96.279052 
L 178.422876 96.582604 
L 177.662408 96.67934 
L 176.90194 96.737987 
L 176.141472 96.69649 
L 175.381003 96.683098 
L 174.620535 96.687777 
L 173.860067 96.853597 
L 173.099599 96.989969 
L 172.33913 96.955737 
L 171.578662 96.811387 
L 170.818194 96.565112 
L 170.057726 96.618912 
L 169.297258 96.607177 
L 168.536789 96.598825 
L 167.776321 96.670631 
L 167.015853 96.983184 
L 166.255385 97.284067 
L 165.494916 97.63027 
L 164.734448 99.467166 
L 163.97398 99.73958 
L 163.213512 99.85789 
L 162.453043 100.036512 
L 161.692575 100.111957 
L 160.932107 100.27434 
L 160.171639 100.591729 
L 159.411171 100.742521 
L 158.650702 100.56583 
L 157.890234 100.457755 
L 157.129766 100.147114 
L 156.369298 98.473576 
L 155.608829 98.26771 
L 154.848361 98.440277 
L 154.087893 98.31289 
L 153.327425 98.397988 
L 152.566957 98.308881 
L 151.806488 97.765475 
L 151.04602 97.628263 
L 150.285552 97.841566 
L 149.525084 97.561078 
L 148.764615 97.607787 
L 148.004147 97.63445 
L 147.243679 97.637926 
L 146.483211 97.784749 
L 145.722742 97.996228 
L 144.962274 97.932742 
L 144.201806 98.072471 
L 143.441338 98.505574 
L 142.68087 98.550891 
L 141.920401 98.428173 
L 141.159933 98.858556 
L 140.399465 99.179566 
L 139.638997 99.160698 
L 138.878528 99.184733 
L 138.11806 99.131598 
L 137.357592 99.371454 
L 136.597124 99.574492 
L 135.836656 99.607971 
L 135.076187 99.789766 
L 134.315719 100.068275 
L 133.555251 100.269553 
L 132.794783 100.223733 
L 132.034314 100.19661 
L 131.273846 100.346229 
L 130.513378 100.622725 
L 129.75291 100.806464 
L 128.992441 100.478672 
L 128.231973 100.374138 
L 127.471505 100.271282 
L 126.711037 100.158684 
L 125.950569 100.132934 
L 125.1901 100.003173 
L 124.429632 100.21704 
L 123.669164 99.971873 
L 122.908696 100.041172 
L 122.148227 99.949806 
L 121.387759 99.657046 
L 120.627291 99.630478 
L 119.866823 99.612387 
L 119.106355 99.482126 
L 118.345886 99.480393 
L 117.585418 99.466884 
L 116.82495 99.411922 
L 116.064482 99.211968 
L 115.304013 99.42903 
L 114.543545 99.401933 
L 113.783077 99.445016 
L 113.022609 99.400415 
L 112.26214 99.800411 
L 111.501672 99.899761 
L 110.741204 100.177774 
L 109.980736 100.056024 
L 109.220268 99.987725 
L 108.459799 100.224275 
L 107.699331 100.158289 
L 106.938863 100.11939 
L 106.178395 100.039466 
L 105.417926 99.918887 
L 104.657458 99.922295 
L 103.89699 99.691265 
L 103.136522 99.735116 
L 102.376054 99.584506 
L 101.615585 99.805597 
L 100.855117 99.700393 
L 100.094649 99.533364 
L 99.334181 99.686294 
L 98.573712 99.486648 
L 97.813244 99.589506 
L 97.052776 99.570766 
L 96.292308 99.53065 
L 95.531839 99.432208 
L 94.771371 99.305358 
L 94.010903 99.524841 
L 93.250435 99.493576 
L 92.489967 99.606525 
L 91.729498 99.732478 
L 90.96903 99.709892 
L 90.208562 99.966418 
L 89.448094 100.188006 
L 88.687625 100.392228 
L 87.927157 100.818936 
L 87.166689 100.976229 
L 86.406221 101.259569 
L 85.645753 101.650345 
L 84.885284 101.844091 
L 84.124816 101.991371 
L 83.364348 102.091868 
L 82.60388 102.615756 
L 81.843411 103.095301 
L 81.082943 102.905817 
L 80.322475 103.421019 
L 79.562007 103.559539 
L 78.801538 103.689837 
L 78.04107 103.789654 
L 77.280602 103.409145 
L 76.520134 103.769061 
L 75.759666 104.040972 
L 74.999197 104.188082 
L 74.238729 104.123727 
L 73.478261 104.300405 
L 72.717793 104.95048 
L 71.957324 105.112394 
L 71.196856 105.6554 
L 70.436388 106.548131 
L 69.67592 107.564789 
L 68.915452 108.24731 
L 68.154983 108.79802 
L 67.394515 109.562108 
L 66.634047 109.886529 
L 65.873579 111.574202 
L 65.11311 113.300806 
L 64.352642 114.553033 
L 63.592174 116.682254 
L 62.831706 117.11195 
L 62.071237 118.649313 
L 61.310769 120.071219 
L 60.550301 122.311392 
L 59.789833 124.16075 
L 59.029365 126.605273 
L 58.268896 129.231277 
L 57.508428 129.503024 
L 56.74796 129.719051 
L 55.987492 129.743625 
L 55.227023 130.10788 
L 54.466555 130.421925 
L 53.706087 130.803676 
L 52.945619 131.33553 
L 52.185151 131.725295 
L 51.424682 132.526735 
L 50.664214 132.91315 
L 49.903746 133.806902 
L 49.143278 134.775249 
L 48.382809 136.758227 
L 47.622341 138.094351 
L 46.861873 138.411456 
L 46.101405 138.735874 
L 45.340936 139.156652 
L 44.580468 139.341497 
L 43.82 140.096686 
z
" style="fill:#4c72b0;fill-opacity:0.2;"/>
   </g>
   <g id="PolyCollection_2">
    <path clip-path="url(#pc8c6c12092)" d="M 43.82 140.038375 
L 43.82 155.002236 
L 44.580468 150.622843 
L 45.340936 149.140082 
L 46.101405 147.811344 
L 46.861873 146.008325 
L 47.622341 144.842359 
L 48.382809 142.805951 
L 49.143278 140.686225 
L 49.903746 139.0179 
L 50.664214 138.360421 
L 51.424682 138.510842 
L 52.185151 138.723465 
L 52.945619 139.981752 
L 53.706087 140.149941 
L 54.466555 140.352235 
L 55.227023 139.773022 
L 55.987492 139.930855 
L 56.74796 139.801042 
L 57.508428 138.190278 
L 58.268896 138.110458 
L 59.029365 137.473383 
L 59.789833 136.454846 
L 60.550301 135.555197 
L 61.310769 135.006348 
L 62.071237 134.665452 
L 62.831706 135.143201 
L 63.592174 135.07288 
L 64.352642 134.860115 
L 65.11311 134.959398 
L 65.873579 134.406219 
L 66.634047 134.616966 
L 67.394515 135.007673 
L 68.154983 135.448241 
L 68.915452 136.199549 
L 69.67592 136.356238 
L 70.436388 136.503819 
L 71.196856 135.983144 
L 71.957324 136.233875 
L 72.717793 136.409962 
L 73.478261 136.323197 
L 74.238729 137.041831 
L 74.999197 137.155106 
L 75.759666 137.13803 
L 76.520134 136.87008 
L 77.280602 136.595033 
L 78.04107 136.093514 
L 78.801538 136.119616 
L 79.562007 135.872223 
L 80.322475 135.778835 
L 81.082943 135.744654 
L 81.843411 135.97374 
L 82.60388 135.968444 
L 83.364348 135.969235 
L 84.124816 135.887906 
L 84.885284 136.12745 
L 85.645753 136.350787 
L 86.406221 136.51337 
L 87.166689 136.341049 
L 87.927157 136.758747 
L 88.687625 136.805136 
L 89.448094 136.659178 
L 90.208562 136.539574 
L 90.96903 136.424239 
L 91.729498 136.490778 
L 92.489967 136.368371 
L 93.250435 136.277291 
L 94.010903 135.807018 
L 94.771371 135.665399 
L 95.531839 135.755741 
L 96.292308 135.376245 
L 97.052776 135.207721 
L 97.813244 134.885814 
L 98.573712 134.640946 
L 99.334181 134.180782 
L 100.094649 133.259449 
L 100.855117 133.167889 
L 101.615585 132.792695 
L 102.376054 133.03258 
L 103.136522 132.935978 
L 103.89699 132.876522 
L 104.657458 132.707835 
L 105.417926 132.824272 
L 106.178395 132.320377 
L 106.938863 132.657545 
L 107.699331 132.743702 
L 108.459799 132.981941 
L 109.220268 133.149246 
L 109.980736 133.36951 
L 110.741204 133.451828 
L 111.501672 133.848348 
L 112.26214 133.760564 
L 113.022609 133.902519 
L 113.783077 133.751578 
L 114.543545 133.922599 
L 115.304013 133.903091 
L 116.064482 133.801727 
L 116.82495 133.841164 
L 117.585418 133.487766 
L 118.345886 133.363484 
L 119.106355 133.51093 
L 119.866823 133.497975 
L 120.627291 133.52717 
L 121.387759 133.674071 
L 122.148227 133.539825 
L 122.908696 133.418887 
L 123.669164 133.3865 
L 124.429632 133.341515 
L 125.1901 133.293576 
L 125.950569 133.516339 
L 126.711037 133.687164 
L 127.471505 133.730903 
L 128.231973 133.629811 
L 128.992441 133.625223 
L 129.75291 133.622339 
L 130.513378 133.707078 
L 131.273846 133.999307 
L 132.034314 134.121639 
L 132.794783 134.187472 
L 133.555251 134.043616 
L 134.315719 133.999992 
L 135.076187 133.916049 
L 135.836656 133.695266 
L 136.597124 133.600711 
L 137.357592 133.708421 
L 138.11806 133.740758 
L 138.878528 133.586645 
L 139.638997 133.69699 
L 140.399465 133.580259 
L 141.159933 133.732217 
L 141.920401 133.846305 
L 142.68087 133.782188 
L 143.441338 133.504988 
L 144.201806 133.588949 
L 144.962274 133.768651 
L 145.722742 133.625255 
L 146.483211 133.564117 
L 147.243679 133.592019 
L 148.004147 133.362841 
L 148.764615 133.215268 
L 149.525084 133.155644 
L 150.285552 133.286373 
L 151.04602 133.626294 
L 151.806488 133.896885 
L 152.566957 134.097878 
L 153.327425 134.151936 
L 154.087893 134.105 
L 154.848361 134.241737 
L 155.608829 134.376711 
L 156.369298 134.573204 
L 157.129766 134.630537 
L 157.890234 134.66201 
L 158.650702 134.640007 
L 159.411171 134.121704 
L 160.171639 134.314705 
L 160.932107 134.15858 
L 161.692575 133.412345 
L 162.453043 133.452577 
L 163.213512 133.363509 
L 163.97398 133.448009 
L 164.734448 133.131207 
L 165.494916 133.209788 
L 166.255385 132.979928 
L 167.015853 132.707733 
L 167.776321 133.029202 
L 168.536789 132.439513 
L 169.297258 132.603484 
L 170.057726 133.253561 
L 170.818194 133.350714 
L 171.578662 133.42384 
L 172.33913 132.947011 
L 173.099599 133.069464 
L 173.860067 132.827028 
L 174.620535 132.961638 
L 175.381003 132.174931 
L 176.141472 132.068519 
L 176.90194 132.286609 
L 177.662408 131.486307 
L 178.422876 131.802408 
L 179.183344 131.3974 
L 179.943813 130.624645 
L 180.704281 130.696069 
L 181.464749 129.923087 
L 182.225217 129.444659 
L 182.985686 128.825841 
L 183.746154 129.38965 
L 184.506622 129.240829 
L 185.26709 128.527895 
L 186.027559 128.826988 
L 186.788027 127.761228 
L 187.548495 127.482227 
L 188.308963 127.488649 
L 189.069431 127.451686 
L 189.8299 127.854596 
L 190.590368 128.460935 
L 191.350836 129.066355 
L 192.111304 128.864572 
L 192.871773 129.078335 
L 193.632241 129.972767 
L 194.392709 130.018696 
L 195.153177 131.121552 
L 195.913645 131.94106 
L 196.674114 132.607729 
L 197.434582 133.097578 
L 198.19505 133.087955 
L 198.955518 132.743535 
L 199.715987 133.071246 
L 200.476455 132.904841 
L 201.236923 132.792359 
L 201.997391 132.048242 
L 202.75786 131.570426 
L 203.518328 131.403144 
L 204.278796 131.355552 
L 205.039264 131.626736 
L 205.799732 131.636929 
L 206.560201 131.185104 
L 207.320669 131.251681 
L 208.081137 130.655007 
L 208.841605 130.305881 
L 209.602074 129.615468 
L 210.362542 129.672133 
L 211.12301 129.603322 
L 211.883478 129.451605 
L 212.643946 129.128148 
L 213.404415 128.458069 
L 214.164883 127.92555 
L 214.925351 127.61533 
L 215.685819 127.204428 
L 216.446288 127.115959 
L 217.206756 126.928028 
L 217.967224 127.263928 
L 218.727692 127.500783 
L 219.488161 127.262442 
L 220.248629 127.114964 
L 221.009097 127.101756 
L 221.769565 127.014951 
L 222.530033 127.163909 
L 223.290502 127.247749 
L 224.05097 127.388867 
L 224.811438 127.649315 
L 225.571906 127.799576 
L 226.332375 127.506203 
L 227.092843 127.247228 
L 227.853311 127.55836 
L 228.613779 127.691056 
L 229.374247 127.721393 
L 230.134716 127.794434 
L 230.895184 127.725393 
L 231.655652 127.753311 
L 232.41612 127.600262 
L 233.176589 127.303731 
L 233.937057 127.173903 
L 234.697525 126.98892 
L 235.457993 126.740009 
L 236.218462 126.407328 
L 236.97893 126.219312 
L 237.739398 125.926643 
L 238.499866 126.008819 
L 239.260334 125.964099 
L 240.020803 125.895673 
L 240.781271 126.005406 
L 241.541739 126.179931 
L 242.302207 126.262112 
L 243.062676 126.204146 
L 243.823144 126.385375 
L 244.583612 126.630197 
L 245.34408 126.634249 
L 246.104548 126.707329 
L 246.865017 126.695563 
L 247.625485 126.767912 
L 248.385953 126.869098 
L 249.146421 126.749721 
L 249.90689 126.395267 
L 250.667358 126.24076 
L 251.427826 126.135152 
L 252.188294 126.042848 
L 252.948763 125.689512 
L 253.709231 125.641894 
L 254.469699 125.598672 
L 255.230167 125.352997 
L 255.990635 125.047938 
L 256.751104 124.73875 
L 257.511572 124.82601 
L 258.27204 124.848919 
L 259.032508 124.74092 
L 259.792977 124.677741 
L 260.553445 124.647513 
L 261.313913 124.747462 
L 262.074381 124.564474 
L 262.834849 124.544814 
L 263.595318 124.608353 
L 264.355786 124.685226 
L 265.116254 124.833523 
L 265.876722 124.631519 
L 266.637191 124.725214 
L 267.397659 124.811078 
L 268.158127 125.00213 
L 268.918595 125.003843 
L 269.679064 124.956039 
L 270.439532 125.073021 
L 271.2 125.092318 
L 271.2 38.538255 
L 271.2 38.538255 
L 270.439532 38.246964 
L 269.679064 38.367718 
L 268.918595 38.409231 
L 268.158127 38.304821 
L 267.397659 38.450549 
L 266.637191 38.344952 
L 265.876722 38.593327 
L 265.116254 38.477502 
L 264.355786 38.594567 
L 263.595318 38.587426 
L 262.834849 38.677565 
L 262.074381 38.780386 
L 261.313913 38.654546 
L 260.553445 39.189998 
L 259.792977 39.15112 
L 259.032508 38.813366 
L 258.27204 38.66954 
L 257.511572 38.604274 
L 256.751104 38.452799 
L 255.990635 38.782243 
L 255.230167 38.93721 
L 254.469699 39.081424 
L 253.709231 39.269907 
L 252.948763 39.316164 
L 252.188294 38.685688 
L 251.427826 38.957138 
L 250.667358 39.281705 
L 249.90689 39.5167 
L 249.146421 39.421991 
L 248.385953 39.624062 
L 247.625485 39.589495 
L 246.865017 39.686766 
L 246.104548 39.314599 
L 245.34408 39.106565 
L 244.583612 39.191136 
L 243.823144 39.324732 
L 243.062676 39.277445 
L 242.302207 39.1786 
L 241.541739 38.855661 
L 240.781271 38.730925 
L 240.020803 38.890737 
L 239.260334 38.864393 
L 238.499866 38.668551 
L 237.739398 38.941347 
L 236.97893 39.274187 
L 236.218462 39.877164 
L 235.457993 39.735754 
L 234.697525 39.640973 
L 233.937057 39.589403 
L 233.176589 39.662421 
L 232.41612 40.102476 
L 231.655652 40.177384 
L 230.895184 40.216587 
L 230.134716 40.372084 
L 229.374247 40.182312 
L 228.613779 40.058404 
L 227.853311 39.79683 
L 227.092843 39.829823 
L 226.332375 40.150821 
L 225.571906 40.628509 
L 224.811438 40.510071 
L 224.05097 40.19153 
L 223.290502 39.878156 
L 222.530033 39.427268 
L 221.769565 39.172947 
L 221.009097 39.338391 
L 220.248629 39.752925 
L 219.488161 39.695492 
L 218.727692 39.8039 
L 217.967224 39.719439 
L 217.206756 39.198098 
L 216.446288 39.274362 
L 215.685819 39.245797 
L 214.925351 39.647768 
L 214.164883 39.956835 
L 213.404415 40.305174 
L 212.643946 40.977617 
L 211.883478 40.640507 
L 211.12301 41.207309 
L 210.362542 41.749435 
L 209.602074 42.105241 
L 208.841605 42.646283 
L 208.081137 43.122381 
L 207.320669 43.581136 
L 206.560201 43.940851 
L 205.799732 44.010923 
L 205.039264 44.080581 
L 204.278796 43.981768 
L 203.518328 44.09507 
L 202.75786 43.627573 
L 201.997391 43.452005 
L 201.236923 43.028031 
L 200.476455 43.141047 
L 199.715987 43.129678 
L 198.955518 44.427575 
L 198.19505 45.630075 
L 197.434582 46.566722 
L 196.674114 47.007008 
L 195.913645 46.711533 
L 195.153177 46.644205 
L 194.392709 46.043571 
L 193.632241 45.791943 
L 192.871773 45.598823 
L 192.111304 45.399307 
L 191.350836 45.170223 
L 190.590368 43.495831 
L 189.8299 41.644845 
L 189.069431 40.519871 
L 188.308963 41.012632 
L 187.548495 40.968409 
L 186.788027 41.172256 
L 186.027559 42.227284 
L 185.26709 41.838777 
L 184.506622 42.292516 
L 183.746154 42.154806 
L 182.985686 41.450937 
L 182.225217 41.930125 
L 181.464749 42.117392 
L 180.704281 42.373245 
L 179.943813 41.595595 
L 179.183344 41.910505 
L 178.422876 42.672988 
L 177.662408 43.029767 
L 176.90194 43.224739 
L 176.141472 42.980695 
L 175.381003 43.048643 
L 174.620535 43.595115 
L 173.860067 43.811611 
L 173.099599 43.889853 
L 172.33913 43.886365 
L 171.578662 43.915192 
L 170.818194 43.913512 
L 170.057726 43.659512 
L 169.297258 43.387511 
L 168.536789 43.673277 
L 167.776321 43.756139 
L 167.015853 43.775488 
L 166.255385 43.573886 
L 165.494916 43.43256 
L 164.734448 43.450681 
L 163.97398 43.349139 
L 163.213512 43.58894 
L 162.453043 43.730223 
L 161.692575 43.678483 
L 160.932107 43.781645 
L 160.171639 43.940413 
L 159.411171 44.110078 
L 158.650702 44.205979 
L 157.890234 44.201551 
L 157.129766 44.468052 
L 156.369298 44.820454 
L 155.608829 44.469822 
L 154.848361 44.461001 
L 154.087893 44.606523 
L 153.327425 44.165184 
L 152.566957 44.278723 
L 151.806488 44.119719 
L 151.04602 44.135043 
L 150.285552 44.160889 
L 149.525084 44.402858 
L 148.764615 44.516833 
L 148.004147 44.317764 
L 147.243679 44.896045 
L 146.483211 45.415139 
L 145.722742 45.165258 
L 144.962274 45.966357 
L 144.201806 46.226574 
L 143.441338 46.421435 
L 142.68087 46.564839 
L 141.920401 46.925476 
L 141.159933 48.233462 
L 140.399465 48.922347 
L 139.638997 49.361244 
L 138.878528 49.657481 
L 138.11806 49.720714 
L 137.357592 50.455743 
L 136.597124 51.369769 
L 135.836656 51.157657 
L 135.076187 51.513941 
L 134.315719 51.863111 
L 133.555251 52.473868 
L 132.794783 51.187382 
L 132.034314 51.432024 
L 131.273846 51.489957 
L 130.513378 52.898124 
L 129.75291 54.55446 
L 128.992441 54.51055 
L 128.231973 53.9443 
L 127.471505 54.168689 
L 126.711037 54.118934 
L 125.950569 54.454351 
L 125.1901 53.985345 
L 124.429632 54.13265 
L 123.669164 54.052462 
L 122.908696 54.261096 
L 122.148227 53.313924 
L 121.387759 52.311931 
L 120.627291 53.660544 
L 119.866823 55.595948 
L 119.106355 56.630896 
L 118.345886 56.728586 
L 117.585418 56.559582 
L 116.82495 56.393525 
L 116.064482 58.966711 
L 115.304013 58.793505 
L 114.543545 60.445356 
L 113.783077 59.748299 
L 113.022609 60.188833 
L 112.26214 60.120385 
L 111.501672 59.908802 
L 110.741204 61.493954 
L 109.980736 64.853679 
L 109.220268 67.281478 
L 108.459799 70.950289 
L 107.699331 70.260731 
L 106.938863 73.358763 
L 106.178395 75.990025 
L 105.417926 79.556106 
L 104.657458 81.69877 
L 103.89699 84.496441 
L 103.136522 86.659791 
L 102.376054 88.401195 
L 101.615585 89.733036 
L 100.855117 90.961414 
L 100.094649 91.483556 
L 99.334181 93.537912 
L 98.573712 94.041152 
L 97.813244 93.980177 
L 97.052776 94.379884 
L 96.292308 95.383021 
L 95.531839 95.868439 
L 94.771371 96.449782 
L 94.010903 96.890827 
L 93.250435 96.81029 
L 92.489967 97.420917 
L 91.729498 97.691172 
L 90.96903 98.029267 
L 90.208562 97.972824 
L 89.448094 98.059126 
L 88.687625 98.254048 
L 87.927157 98.462586 
L 87.166689 98.597625 
L 86.406221 98.392163 
L 85.645753 98.779424 
L 84.885284 99.113329 
L 84.124816 99.335893 
L 83.364348 99.589846 
L 82.60388 99.908695 
L 81.843411 100.574101 
L 81.082943 101.031159 
L 80.322475 101.61367 
L 79.562007 102.485114 
L 78.801538 102.797447 
L 78.04107 103.36158 
L 77.280602 103.711581 
L 76.520134 104.197878 
L 75.759666 104.862981 
L 74.999197 105.500057 
L 74.238729 106.240798 
L 73.478261 108.01268 
L 72.717793 109.121121 
L 71.957324 109.727755 
L 71.196856 110.040419 
L 70.436388 110.018854 
L 69.67592 110.886891 
L 68.915452 111.064691 
L 68.154983 112.439207 
L 67.394515 113.75671 
L 66.634047 115.061835 
L 65.873579 116.576942 
L 65.11311 116.329708 
L 64.352642 116.840865 
L 63.592174 117.868123 
L 62.831706 118.656278 
L 62.071237 120.23519 
L 61.310769 120.324266 
L 60.550301 121.599753 
L 59.789833 121.408712 
L 59.029365 121.141166 
L 58.268896 121.446845 
L 57.508428 120.954589 
L 56.74796 120.696764 
L 55.987492 121.145797 
L 55.227023 121.909758 
L 54.466555 122.214775 
L 53.706087 123.487604 
L 52.945619 125.258336 
L 52.185151 125.660641 
L 51.424682 127.693428 
L 50.664214 129.796606 
L 49.903746 132.492618 
L 49.143278 134.537248 
L 48.382809 135.749079 
L 47.622341 137.156732 
L 46.861873 137.484389 
L 46.101405 137.667839 
L 45.340936 138.290377 
L 44.580468 139.107651 
L 43.82 140.038375 
z
" style="fill:#55a868;fill-opacity:0.2;"/>
   </g>
   <g id="line2d_21">
    <path clip-path="url(#pc8c6c12092)" d="M 43.82 144.447431 
L 44.580468 143.444188 
L 45.340936 142.719528 
L 46.101405 142.197874 
L 46.861873 141.530073 
L 47.622341 141.210885 
L 48.382809 140.214373 
L 49.143278 138.214697 
L 49.903746 137.401033 
L 50.664214 136.959402 
L 51.424682 136.325573 
L 52.185151 135.266937 
L 53.706087 134.199583 
L 55.987492 132.163855 
L 56.74796 131.710832 
L 58.268896 131.214909 
L 59.029365 130.26486 
L 59.789833 129.5415 
L 60.550301 129.057318 
L 61.310769 128.43638 
L 62.831706 127.711278 
L 63.592174 127.54232 
L 65.873579 126.111734 
L 66.634047 125.642758 
L 68.154983 125.255866 
L 71.957324 123.890605 
L 76.520134 123.214203 
L 80.322475 123.021083 
L 81.082943 122.89896 
L 81.843411 123.0047 
L 83.364348 122.705191 
L 84.885284 122.626988 
L 92.489967 121.709969 
L 93.250435 121.649819 
L 94.010903 121.755985 
L 94.771371 121.701525 
L 96.292308 121.897509 
L 97.813244 121.833212 
L 103.136522 121.881971 
L 103.89699 121.805672 
L 104.657458 121.95527 
L 106.938863 121.972931 
L 108.459799 122.054235 
L 109.980736 121.95277 
L 112.26214 121.891127 
L 113.022609 121.612749 
L 122.148227 121.998979 
L 125.1901 121.799232 
L 126.711037 121.805437 
L 127.471505 121.725634 
L 128.992441 121.689559 
L 129.75291 121.714168 
L 131.273846 121.436861 
L 132.034314 121.250723 
L 133.555251 121.130324 
L 135.076187 120.690883 
L 138.11806 120.295281 
L 151.806488 120.307662 
L 152.566957 120.472668 
L 154.087893 120.515475 
L 154.848361 120.63 
L 155.608829 120.609449 
L 156.369298 120.744619 
L 157.129766 121.121885 
L 159.411171 121.252443 
L 163.97398 120.584684 
L 164.734448 120.389287 
L 165.494916 119.9662 
L 167.776321 119.425076 
L 170.818194 119.305006 
L 172.33913 119.523968 
L 173.099599 119.531646 
L 173.860067 119.36028 
L 178.422876 119.026523 
L 179.183344 118.750604 
L 180.704281 118.5898 
L 182.225217 118.45293 
L 183.746154 118.253263 
L 186.788027 118.399176 
L 187.548495 118.627137 
L 188.308963 118.43373 
L 189.8299 118.358794 
L 190.590368 118.430671 
L 191.350836 118.708594 
L 194.392709 118.365845 
L 195.913645 118.265948 
L 196.674114 118.44527 
L 205.039264 118.779283 
L 207.320669 118.601654 
L 208.841605 118.469994 
L 209.602074 118.660449 
L 210.362542 118.710664 
L 211.12301 118.62933 
L 211.883478 118.709146 
L 212.643946 118.646452 
L 214.164883 118.750601 
L 215.685819 118.740339 
L 216.446288 118.648235 
L 217.206756 118.772723 
L 219.488161 118.502133 
L 220.248629 118.296362 
L 221.009097 118.255903 
L 223.290502 117.880334 
L 224.811438 117.758313 
L 226.332375 117.437055 
L 227.853311 117.392113 
L 229.374247 117.488343 
L 230.895184 117.194599 
L 233.937057 117.021833 
L 234.697525 116.860789 
L 242.302207 116.660749 
L 243.823144 116.799231 
L 244.583612 116.733262 
L 245.34408 116.861772 
L 248.385953 116.199419 
L 249.90689 115.736479 
L 250.667358 115.647532 
L 252.948763 114.82707 
L 253.709231 115.220411 
L 255.230167 114.984585 
L 259.792977 114.963092 
L 260.553445 115.039506 
L 261.313913 114.969999 
L 262.074381 114.327829 
L 262.834849 114.548916 
L 263.595318 114.556338 
L 264.355786 114.410374 
L 269.679064 114.572775 
L 270.439532 114.500593 
L 271.2 114.2844 
L 271.2 114.2844 
" style="fill:none;stroke:#4c72b0;stroke-linecap:round;stroke-width:1.75;"/>
   </g>
   <g id="line2d_22">
    <path clip-path="url(#pc8c6c12092)" d="M 43.82 147.520305 
L 44.580468 144.865247 
L 46.101405 142.739591 
L 46.861873 141.746357 
L 47.622341 140.999545 
L 50.664214 134.078514 
L 52.185151 132.192053 
L 52.945619 132.620044 
L 53.706087 131.818772 
L 55.227023 130.84139 
L 56.74796 130.248903 
L 57.508428 129.572434 
L 58.268896 129.778652 
L 59.789833 128.931779 
L 60.550301 128.577475 
L 61.310769 127.665307 
L 62.071237 127.450321 
L 64.352642 125.85049 
L 65.873579 125.491581 
L 66.634047 124.839401 
L 68.154983 123.943724 
L 68.915452 123.63212 
L 69.67592 123.621565 
L 71.196856 123.011782 
L 71.957324 122.980815 
L 72.717793 122.765541 
L 74.238729 121.641314 
L 75.759666 121.000505 
L 78.04107 119.727547 
L 79.562007 119.178669 
L 80.322475 118.696252 
L 81.082943 118.387906 
L 81.843411 118.273921 
L 82.60388 117.93857 
L 84.124816 117.6119 
L 85.645753 117.565105 
L 86.406221 117.452766 
L 87.166689 117.469337 
L 87.927157 117.610667 
L 90.96903 117.226753 
L 92.489967 116.894644 
L 93.250435 116.54379 
L 94.771371 116.05759 
L 95.531839 115.81209 
L 96.292308 115.379633 
L 97.052776 114.793803 
L 97.813244 114.432996 
L 98.573712 114.341049 
L 99.334181 113.859347 
L 100.094649 112.371502 
L 100.855117 112.064652 
L 101.615585 111.262866 
L 102.376054 110.716887 
L 103.136522 109.797885 
L 103.89699 108.686481 
L 104.657458 107.203303 
L 105.417926 106.190189 
L 106.178395 104.155201 
L 106.938863 103.008154 
L 107.699331 101.502217 
L 108.459799 101.966115 
L 109.220268 100.215362 
L 109.980736 99.111594 
L 110.741204 97.472891 
L 111.501672 96.878575 
L 113.022609 97.045676 
L 113.783077 96.749939 
L 114.543545 97.183977 
L 115.304013 96.348298 
L 116.064482 96.384219 
L 116.82495 95.117345 
L 117.585418 95.023674 
L 119.106355 95.070913 
L 119.866823 94.546961 
L 120.627291 93.593857 
L 121.387759 92.993001 
L 122.908696 93.839992 
L 123.669164 93.719481 
L 124.429632 93.737083 
L 125.1901 93.639461 
L 125.950569 93.985345 
L 126.711037 93.903049 
L 127.471505 93.949796 
L 128.231973 93.787055 
L 128.992441 94.067886 
L 129.75291 94.088399 
L 130.513378 93.302601 
L 131.273846 92.744632 
L 132.034314 92.776832 
L 132.794783 92.687427 
L 133.555251 93.258742 
L 135.076187 92.714995 
L 135.836656 92.426461 
L 136.597124 92.48524 
L 138.11806 91.730736 
L 139.638997 91.529117 
L 141.159933 90.982839 
L 141.920401 90.38589 
L 143.441338 89.963212 
L 144.962274 89.867504 
L 145.722742 89.395256 
L 146.483211 89.489628 
L 147.243679 89.244032 
L 148.004147 88.840302 
L 148.764615 88.866051 
L 150.285552 88.723631 
L 152.566957 89.188301 
L 153.327425 89.15856 
L 154.087893 89.355761 
L 155.608829 89.423266 
L 156.369298 89.696829 
L 157.890234 89.431781 
L 158.650702 89.422993 
L 159.411171 89.115891 
L 160.171639 89.127559 
L 160.932107 88.970112 
L 161.692575 88.545414 
L 162.453043 88.5914 
L 164.734448 88.290944 
L 166.255385 88.276907 
L 167.015853 88.241611 
L 167.776321 88.392671 
L 168.536789 88.056395 
L 169.297258 87.995498 
L 170.057726 88.456536 
L 170.818194 88.632113 
L 171.578662 88.669516 
L 172.33913 88.416688 
L 173.099599 88.479659 
L 173.860067 88.319319 
L 174.620535 88.278377 
L 175.381003 87.611787 
L 176.141472 87.524607 
L 176.90194 87.755674 
L 177.662408 87.258037 
L 178.422876 87.237698 
L 179.943813 86.11012 
L 180.704281 86.534657 
L 181.464749 86.02024 
L 182.225217 85.687392 
L 182.985686 85.138389 
L 183.746154 85.772228 
L 184.506622 85.766673 
L 185.26709 85.183336 
L 186.027559 85.527136 
L 186.788027 84.466742 
L 187.548495 84.225318 
L 188.308963 84.25064 
L 189.069431 83.985779 
L 189.8299 84.749721 
L 191.350836 87.118289 
L 192.111304 87.13194 
L 192.871773 87.338579 
L 193.632241 87.882355 
L 194.392709 88.031133 
L 195.153177 88.882879 
L 196.674114 89.807368 
L 197.434582 89.83215 
L 198.19505 89.359015 
L 198.955518 88.585555 
L 199.715987 88.100462 
L 201.236923 87.910195 
L 202.75786 87.598999 
L 203.518328 87.749107 
L 204.278796 87.66866 
L 205.039264 87.853659 
L 205.799732 87.823926 
L 207.320669 87.416409 
L 209.602074 85.860355 
L 210.362542 85.710784 
L 211.883478 85.046056 
L 212.643946 85.052882 
L 213.404415 84.381621 
L 214.164883 83.941192 
L 215.685819 83.225113 
L 217.206756 83.063063 
L 217.967224 83.491684 
L 218.727692 83.652341 
L 219.488161 83.478967 
L 220.248629 83.433944 
L 221.769565 83.093949 
L 224.05097 83.790198 
L 224.811438 84.079693 
L 225.571906 84.214043 
L 227.092843 83.538526 
L 230.134716 84.083259 
L 232.41612 83.851369 
L 233.176589 83.483076 
L 236.218462 83.142246 
L 237.739398 82.433995 
L 238.499866 82.338685 
L 240.020803 82.393205 
L 240.781271 82.368165 
L 243.823144 82.855054 
L 246.104548 83.010964 
L 246.865017 83.191164 
L 249.146421 83.085856 
L 250.667358 82.761233 
L 252.188294 82.364268 
L 252.948763 82.502838 
L 254.469699 82.340048 
L 255.990635 81.91509 
L 256.751104 81.595775 
L 258.27204 81.759229 
L 259.032508 81.777143 
L 259.792977 81.914431 
L 260.553445 81.918756 
L 261.313913 81.701004 
L 266.637191 81.535083 
L 268.158127 81.653476 
L 269.679064 81.661878 
L 270.439532 81.659992 
L 271.2 81.815286 
L 271.2 81.815286 
" style="fill:none;stroke:#55a868;stroke-linecap:round;stroke-width:1.75;"/>
   </g>
   <g id="patch_3">
    <path d="M 43.82 160.84 
L 43.82 32.4092 
" style="fill:none;"/>
   </g>
   <g id="patch_4">
    <path d="M 271.2 160.84 
L 271.2 32.4092 
" style="fill:none;"/>
   </g>
   <g id="patch_5">
    <path d="M 43.82 160.84 
L 271.2 160.84 
" style="fill:none;"/>
   </g>
   <g id="patch_6">
    <path d="M 43.82 32.4092 
L 271.2 32.4092 
" style="fill:none;"/>
   </g>
   <g id="legend_1">
    <g id="line2d_23">
     <path d="M 49.02 17.35449 
L 62.02 17.35449 
" style="fill:none;stroke:#4c72b0;stroke-linecap:round;stroke-width:1.75;"/>
    </g>
    <g id="line2d_24"/>
    <g id="text_14">
     <!-- td3-tf1 -->
     <defs>
      <path d="M 40.234375 0 
L 40.234375 6.546875 
Q 35.296875 -1.171875 25.734375 -1.171875 
Q 19.53125 -1.171875 14.328125 2.25 
Q 9.125 5.671875 6.265625 11.796875 
Q 3.421875 17.921875 3.421875 25.875 
Q 3.421875 33.640625 6 39.96875 
Q 8.59375 46.296875 13.765625 49.65625 
Q 18.953125 53.03125 25.34375 53.03125 
Q 30.03125 53.03125 33.6875 51.046875 
Q 37.359375 49.078125 39.65625 45.90625 
L 39.65625 71.578125 
L 48.390625 71.578125 
L 48.390625 0 
z
M 12.453125 25.875 
Q 12.453125 15.921875 16.640625 10.984375 
Q 20.84375 6.0625 26.5625 6.0625 
Q 32.328125 6.0625 36.34375 10.765625 
Q 40.375 15.484375 40.375 25.140625 
Q 40.375 35.796875 36.265625 40.765625 
Q 32.171875 45.75 26.171875 45.75 
Q 20.3125 45.75 16.375 40.96875 
Q 12.453125 36.1875 12.453125 25.875 
z
" id="ArialMT-100"/>
      <path d="M 4.203125 18.890625 
L 12.984375 20.0625 
Q 14.5 12.59375 18.140625 9.296875 
Q 21.78125 6 27 6 
Q 33.203125 6 37.46875 10.296875 
Q 41.75 14.59375 41.75 20.953125 
Q 41.75 27 37.796875 30.921875 
Q 33.84375 34.859375 27.734375 34.859375 
Q 25.25 34.859375 21.53125 33.890625 
L 22.515625 41.609375 
Q 23.390625 41.5 23.921875 41.5 
Q 29.546875 41.5 34.03125 44.421875 
Q 38.53125 47.359375 38.53125 53.46875 
Q 38.53125 58.296875 35.25 61.46875 
Q 31.984375 64.65625 26.8125 64.65625 
Q 21.6875 64.65625 18.265625 61.421875 
Q 14.84375 58.203125 13.875 51.765625 
L 5.078125 53.328125 
Q 6.6875 62.15625 12.390625 67.015625 
Q 18.109375 71.875 26.609375 71.875 
Q 32.46875 71.875 37.390625 69.359375 
Q 42.328125 66.84375 44.9375 62.5 
Q 47.5625 58.15625 47.5625 53.265625 
Q 47.5625 48.640625 45.0625 44.828125 
Q 42.578125 41.015625 37.703125 38.765625 
Q 44.046875 37.3125 47.5625 32.6875 
Q 51.078125 28.078125 51.078125 21.140625 
Q 51.078125 11.765625 44.234375 5.25 
Q 37.40625 -1.265625 26.953125 -1.265625 
Q 17.53125 -1.265625 11.296875 4.34375 
Q 5.078125 9.96875 4.203125 18.890625 
z
" id="ArialMT-51"/>
      <path d="M 3.171875 21.484375 
L 3.171875 30.328125 
L 30.171875 30.328125 
L 30.171875 21.484375 
z
" id="ArialMT-45"/>
     </defs>
     <g style="fill:#262626;" transform="translate(72.42 21.90449)scale(0.13 -0.13)">
      <use xlink:href="#ArialMT-116"/>
      <use x="27.783203" xlink:href="#ArialMT-100"/>
      <use x="83.398438" xlink:href="#ArialMT-51"/>
      <use x="139.013672" xlink:href="#ArialMT-45"/>
      <use x="172.314453" xlink:href="#ArialMT-116"/>
      <use x="200.097656" xlink:href="#ArialMT-102"/>
      <use x="227.880859" xlink:href="#ArialMT-49"/>
     </g>
    </g>
    <g id="line2d_25">
     <path d="M 173.267344 17.35449 
L 186.267344 17.35449 
" style="fill:none;stroke:#55a868;stroke-linecap:round;stroke-width:1.75;"/>
    </g>
    <g id="line2d_26"/>
    <g id="text_15">
     <!-- td3-pyTorch -->
     <defs>
      <path d="M 6.59375 -19.875 
L 6.59375 51.859375 
L 14.59375 51.859375 
L 14.59375 45.125 
Q 17.4375 49.078125 21 51.046875 
Q 24.5625 53.03125 29.640625 53.03125 
Q 36.28125 53.03125 41.359375 49.609375 
Q 46.4375 46.1875 49.015625 39.953125 
Q 51.609375 33.734375 51.609375 26.3125 
Q 51.609375 18.359375 48.75 11.984375 
Q 45.90625 5.609375 40.453125 2.21875 
Q 35.015625 -1.171875 29 -1.171875 
Q 24.609375 -1.171875 21.109375 0.6875 
Q 17.625 2.546875 15.375 5.375 
L 15.375 -19.875 
z
M 14.546875 25.640625 
Q 14.546875 15.625 18.59375 10.84375 
Q 22.65625 6.0625 28.421875 6.0625 
Q 34.28125 6.0625 38.453125 11.015625 
Q 42.625 15.96875 42.625 26.375 
Q 42.625 36.28125 38.546875 41.203125 
Q 34.46875 46.140625 28.8125 46.140625 
Q 23.1875 46.140625 18.859375 40.890625 
Q 14.546875 35.640625 14.546875 25.640625 
z
" id="ArialMT-112"/>
      <path d="M 6.203125 -19.96875 
L 5.21875 -11.71875 
Q 8.109375 -12.5 10.25 -12.5 
Q 13.1875 -12.5 14.9375 -11.515625 
Q 16.703125 -10.546875 17.828125 -8.796875 
Q 18.65625 -7.46875 20.515625 -2.25 
Q 20.75 -1.515625 21.296875 -0.09375 
L 1.609375 51.859375 
L 11.078125 51.859375 
L 21.875 21.828125 
Q 23.96875 16.109375 25.640625 9.8125 
Q 27.15625 15.875 29.25 21.625 
L 40.328125 51.859375 
L 49.125 51.859375 
L 29.390625 -0.875 
Q 26.21875 -9.421875 24.46875 -12.640625 
Q 22.125 -17 19.09375 -19.015625 
Q 16.0625 -21.046875 11.859375 -21.046875 
Q 9.328125 -21.046875 6.203125 -19.96875 
z
" id="ArialMT-121"/>
      <path d="M 6.59375 0 
L 6.59375 71.578125 
L 15.375 71.578125 
L 15.375 45.90625 
Q 21.53125 53.03125 30.90625 53.03125 
Q 36.671875 53.03125 40.921875 50.75 
Q 45.171875 48.484375 47 44.484375 
Q 48.828125 40.484375 48.828125 32.859375 
L 48.828125 0 
L 40.046875 0 
L 40.046875 32.859375 
Q 40.046875 39.453125 37.1875 42.453125 
Q 34.328125 45.453125 29.109375 45.453125 
Q 25.203125 45.453125 21.75 43.421875 
Q 18.3125 41.40625 16.84375 37.9375 
Q 15.375 34.46875 15.375 28.375 
L 15.375 0 
z
" id="ArialMT-104"/>
     </defs>
     <g style="fill:#262626;" transform="translate(196.667344 21.90449)scale(0.13 -0.13)">
      <use xlink:href="#ArialMT-116"/>
      <use x="27.783203" xlink:href="#ArialMT-100"/>
      <use x="83.398438" xlink:href="#ArialMT-51"/>
      <use x="139.013672" xlink:href="#ArialMT-45"/>
      <use x="172.314453" xlink:href="#ArialMT-112"/>
      <use x="227.929688" xlink:href="#ArialMT-121"/>
      <use x="277.929688" xlink:href="#ArialMT-84"/>
      <use x="338.841797" xlink:href="#ArialMT-111"/>
      <use x="394.457031" xlink:href="#ArialMT-114"/>
      <use x="427.757812" xlink:href="#ArialMT-99"/>
      <use x="477.757812" xlink:href="#ArialMT-104"/>
     </g>
    </g>
   </g>
  </g>
 </g>
 <defs>
  <clipPath id="pc8c6c12092">
   <rect height="128.4308" width="227.38" x="43.82" y="32.4092"/>
  </clipPath>
 </defs>
</svg>
