<?xml version="1.0" encoding="utf-8" standalone="no"?>
<!DOCTYPE svg PUBLIC "-//W3C//DTD SVG 1.1//EN"
  "http://www.w3.org/Graphics/SVG/1.1/DTD/svg11.dtd">
<!-- Created with matplotlib (https://matplotlib.org/) -->
<svg height="198pt" version="1.1" viewBox="0 0 277.2 198" width="277.2pt" xmlns="http://www.w3.org/2000/svg" xmlns:xlink="http://www.w3.org/1999/xlink">
 <defs>
  <style type="text/css">
*{stroke-linecap:butt;stroke-linejoin:round;}
  </style>
 </defs>
 <g id="figure_1">
  <g id="patch_1">
   <path d="M 0 198 
L 277.2 198 
L 277.2 0 
L 0 0 
z
" style="fill:#ffffff;"/>
  </g>
  <g id="axes_1">
   <g id="patch_2">
    <path d="M 49.4 160.84 
L 271.2 160.84 
L 271.2 32.4092 
L 49.4 32.4092 
z
" style="fill:#eaeaf2;"/>
   </g>
   <g id="matplotlib.axis_1">
    <g id="xtick_1">
     <g id="line2d_1">
      <path clip-path="url(#p2f6edcd6dd)" d="M 85.748569 160.84 
L 85.748569 32.4092 
" style="fill:none;stroke:#ffffff;stroke-linecap:round;"/>
     </g>
     <g id="line2d_2"/>
     <g id="text_1">
      <!-- 0.5 -->
      <defs>
       <path d="M 4.15625 35.296875 
Q 4.15625 48 6.765625 55.734375 
Q 9.375 63.484375 14.515625 67.671875 
Q 19.671875 71.875 27.484375 71.875 
Q 33.25 71.875 37.59375 69.546875 
Q 41.9375 67.234375 44.765625 62.859375 
Q 47.609375 58.5 49.21875 52.21875 
Q 50.828125 45.953125 50.828125 35.296875 
Q 50.828125 22.703125 48.234375 14.96875 
Q 45.65625 7.234375 40.5 3 
Q 35.359375 -1.21875 27.484375 -1.21875 
Q 17.140625 -1.21875 11.234375 6.203125 
Q 4.15625 15.140625 4.15625 35.296875 
z
M 13.1875 35.296875 
Q 13.1875 17.671875 17.3125 11.828125 
Q 21.4375 6 27.484375 6 
Q 33.546875 6 37.671875 11.859375 
Q 41.796875 17.71875 41.796875 35.296875 
Q 41.796875 52.984375 37.671875 58.78125 
Q 33.546875 64.59375 27.390625 64.59375 
Q 21.34375 64.59375 17.71875 59.46875 
Q 13.1875 52.9375 13.1875 35.296875 
z
" id="ArialMT-48"/>
       <path d="M 9.078125 0 
L 9.078125 10.015625 
L 19.09375 10.015625 
L 19.09375 0 
z
" id="ArialMT-46"/>
       <path d="M 4.15625 18.75 
L 13.375 19.53125 
Q 14.40625 12.796875 18.140625 9.390625 
Q 21.875 6 27.15625 6 
Q 33.5 6 37.890625 10.78125 
Q 42.28125 15.578125 42.28125 23.484375 
Q 42.28125 31 38.0625 35.34375 
Q 33.84375 39.703125 27 39.703125 
Q 22.75 39.703125 19.328125 37.765625 
Q 15.921875 35.84375 13.96875 32.765625 
L 5.71875 33.84375 
L 12.640625 70.609375 
L 48.25 70.609375 
L 48.25 62.203125 
L 19.671875 62.203125 
L 15.828125 42.96875 
Q 22.265625 47.46875 29.34375 47.46875 
Q 38.71875 47.46875 45.15625 40.96875 
Q 51.609375 34.46875 51.609375 24.265625 
Q 51.609375 14.546875 45.953125 7.46875 
Q 39.0625 -1.21875 27.15625 -1.21875 
Q 17.390625 -1.21875 11.203125 4.25 
Q 5.03125 9.71875 4.15625 18.75 
z
" id="ArialMT-53"/>
      </defs>
      <g style="fill:#262626;" transform="translate(78.798569 174.997813)scale(0.1 -0.1)">
       <use xlink:href="#ArialMT-48"/>
       <use x="55.615234" xlink:href="#ArialMT-46"/>
       <use x="83.398438" xlink:href="#ArialMT-53"/>
      </g>
     </g>
    </g>
    <g id="xtick_2">
     <g id="line2d_3">
      <path clip-path="url(#p2f6edcd6dd)" d="M 122.83887 160.84 
L 122.83887 32.4092 
" style="fill:none;stroke:#ffffff;stroke-linecap:round;"/>
     </g>
     <g id="line2d_4"/>
     <g id="text_2">
      <!-- 1.0 -->
      <defs>
       <path d="M 37.25 0 
L 28.46875 0 
L 28.46875 56 
Q 25.296875 52.984375 20.140625 49.953125 
Q 14.984375 46.921875 10.890625 45.40625 
L 10.890625 53.90625 
Q 18.265625 57.375 23.78125 62.296875 
Q 29.296875 67.234375 31.59375 71.875 
L 37.25 71.875 
z
" id="ArialMT-49"/>
      </defs>
      <g style="fill:#262626;" transform="translate(115.88887 174.997813)scale(0.1 -0.1)">
       <use xlink:href="#ArialMT-49"/>
       <use x="55.615234" xlink:href="#ArialMT-46"/>
       <use x="83.398438" xlink:href="#ArialMT-48"/>
      </g>
     </g>
    </g>
    <g id="xtick_3">
     <g id="line2d_5">
      <path clip-path="url(#p2f6edcd6dd)" d="M 159.929171 160.84 
L 159.929171 32.4092 
" style="fill:none;stroke:#ffffff;stroke-linecap:round;"/>
     </g>
     <g id="line2d_6"/>
     <g id="text_3">
      <!-- 1.5 -->
      <g style="fill:#262626;" transform="translate(152.979171 174.997813)scale(0.1 -0.1)">
       <use xlink:href="#ArialMT-49"/>
       <use x="55.615234" xlink:href="#ArialMT-46"/>
       <use x="83.398438" xlink:href="#ArialMT-53"/>
      </g>
     </g>
    </g>
    <g id="xtick_4">
     <g id="line2d_7">
      <path clip-path="url(#p2f6edcd6dd)" d="M 197.019472 160.84 
L 197.019472 32.4092 
" style="fill:none;stroke:#ffffff;stroke-linecap:round;"/>
     </g>
     <g id="line2d_8"/>
     <g id="text_4">
      <!-- 2.0 -->
      <defs>
       <path d="M 50.34375 8.453125 
L 50.34375 0 
L 3.03125 0 
Q 2.9375 3.171875 4.046875 6.109375 
Q 5.859375 10.9375 9.828125 15.625 
Q 13.8125 20.3125 21.34375 26.46875 
Q 33.015625 36.03125 37.109375 41.625 
Q 41.21875 47.21875 41.21875 52.203125 
Q 41.21875 57.421875 37.46875 61 
Q 33.734375 64.59375 27.734375 64.59375 
Q 21.390625 64.59375 17.578125 60.78125 
Q 13.765625 56.984375 13.71875 50.25 
L 4.6875 51.171875 
Q 5.609375 61.28125 11.65625 66.578125 
Q 17.71875 71.875 27.9375 71.875 
Q 38.234375 71.875 44.234375 66.15625 
Q 50.25 60.453125 50.25 52 
Q 50.25 47.703125 48.484375 43.546875 
Q 46.734375 39.40625 42.65625 34.8125 
Q 38.578125 30.21875 29.109375 22.21875 
Q 21.1875 15.578125 18.9375 13.203125 
Q 16.703125 10.84375 15.234375 8.453125 
z
" id="ArialMT-50"/>
      </defs>
      <g style="fill:#262626;" transform="translate(190.069472 174.997813)scale(0.1 -0.1)">
       <use xlink:href="#ArialMT-50"/>
       <use x="55.615234" xlink:href="#ArialMT-46"/>
       <use x="83.398438" xlink:href="#ArialMT-48"/>
      </g>
     </g>
    </g>
    <g id="xtick_5">
     <g id="line2d_9">
      <path clip-path="url(#p2f6edcd6dd)" d="M 234.109773 160.84 
L 234.109773 32.4092 
" style="fill:none;stroke:#ffffff;stroke-linecap:round;"/>
     </g>
     <g id="line2d_10"/>
     <g id="text_5">
      <!-- 2.5 -->
      <g style="fill:#262626;" transform="translate(227.159773 174.997813)scale(0.1 -0.1)">
       <use xlink:href="#ArialMT-50"/>
       <use x="55.615234" xlink:href="#ArialMT-46"/>
       <use x="83.398438" xlink:href="#ArialMT-53"/>
      </g>
     </g>
    </g>
    <g id="text_6">
     <!-- TotalEnvInteracts -->
     <defs>
      <path d="M 25.921875 0 
L 25.921875 63.140625 
L 2.34375 63.140625 
L 2.34375 71.578125 
L 59.078125 71.578125 
L 59.078125 63.140625 
L 35.40625 63.140625 
L 35.40625 0 
z
" id="ArialMT-84"/>
      <path d="M 3.328125 25.921875 
Q 3.328125 40.328125 11.328125 47.265625 
Q 18.015625 53.03125 27.640625 53.03125 
Q 38.328125 53.03125 45.109375 46.015625 
Q 51.90625 39.015625 51.90625 26.65625 
Q 51.90625 16.65625 48.90625 10.90625 
Q 45.90625 5.171875 40.15625 2 
Q 34.421875 -1.171875 27.640625 -1.171875 
Q 16.75 -1.171875 10.03125 5.8125 
Q 3.328125 12.796875 3.328125 25.921875 
z
M 12.359375 25.921875 
Q 12.359375 15.96875 16.703125 11.015625 
Q 21.046875 6.0625 27.640625 6.0625 
Q 34.1875 6.0625 38.53125 11.03125 
Q 42.875 16.015625 42.875 26.21875 
Q 42.875 35.84375 38.5 40.796875 
Q 34.125 45.75 27.640625 45.75 
Q 21.046875 45.75 16.703125 40.8125 
Q 12.359375 35.890625 12.359375 25.921875 
z
" id="ArialMT-111"/>
      <path d="M 25.78125 7.859375 
L 27.046875 0.09375 
Q 23.34375 -0.6875 20.40625 -0.6875 
Q 15.625 -0.6875 12.984375 0.828125 
Q 10.359375 2.34375 9.28125 4.8125 
Q 8.203125 7.28125 8.203125 15.1875 
L 8.203125 45.015625 
L 1.765625 45.015625 
L 1.765625 51.859375 
L 8.203125 51.859375 
L 8.203125 64.703125 
L 16.9375 69.96875 
L 16.9375 51.859375 
L 25.78125 51.859375 
L 25.78125 45.015625 
L 16.9375 45.015625 
L 16.9375 14.703125 
Q 16.9375 10.9375 17.40625 9.859375 
Q 17.875 8.796875 18.921875 8.15625 
Q 19.96875 7.515625 21.921875 7.515625 
Q 23.390625 7.515625 25.78125 7.859375 
z
" id="ArialMT-116"/>
      <path d="M 40.4375 6.390625 
Q 35.546875 2.25 31.03125 0.53125 
Q 26.515625 -1.171875 21.34375 -1.171875 
Q 12.796875 -1.171875 8.203125 3 
Q 3.609375 7.171875 3.609375 13.671875 
Q 3.609375 17.484375 5.34375 20.625 
Q 7.078125 23.78125 9.890625 25.6875 
Q 12.703125 27.59375 16.21875 28.5625 
Q 18.796875 29.25 24.03125 29.890625 
Q 34.671875 31.15625 39.703125 32.90625 
Q 39.75 34.71875 39.75 35.203125 
Q 39.75 40.578125 37.25 42.78125 
Q 33.890625 45.75 27.25 45.75 
Q 21.046875 45.75 18.09375 43.578125 
Q 15.140625 41.40625 13.71875 35.890625 
L 5.125 37.0625 
Q 6.296875 42.578125 8.984375 45.96875 
Q 11.671875 49.359375 16.75 51.1875 
Q 21.828125 53.03125 28.515625 53.03125 
Q 35.15625 53.03125 39.296875 51.46875 
Q 43.453125 49.90625 45.40625 47.53125 
Q 47.359375 45.171875 48.140625 41.546875 
Q 48.578125 39.3125 48.578125 33.453125 
L 48.578125 21.734375 
Q 48.578125 9.46875 49.140625 6.21875 
Q 49.703125 2.984375 51.375 0 
L 42.1875 0 
Q 40.828125 2.734375 40.4375 6.390625 
z
M 39.703125 26.03125 
Q 34.90625 24.078125 25.34375 22.703125 
Q 19.921875 21.921875 17.671875 20.9375 
Q 15.4375 19.96875 14.203125 18.09375 
Q 12.984375 16.21875 12.984375 13.921875 
Q 12.984375 10.40625 15.640625 8.0625 
Q 18.3125 5.71875 23.4375 5.71875 
Q 28.515625 5.71875 32.46875 7.9375 
Q 36.421875 10.15625 38.28125 14.015625 
Q 39.703125 17 39.703125 22.796875 
z
" id="ArialMT-97"/>
      <path d="M 6.390625 0 
L 6.390625 71.578125 
L 15.1875 71.578125 
L 15.1875 0 
z
" id="ArialMT-108"/>
      <path d="M 7.90625 0 
L 7.90625 71.578125 
L 59.671875 71.578125 
L 59.671875 63.140625 
L 17.390625 63.140625 
L 17.390625 41.21875 
L 56.984375 41.21875 
L 56.984375 32.8125 
L 17.390625 32.8125 
L 17.390625 8.453125 
L 61.328125 8.453125 
L 61.328125 0 
z
" id="ArialMT-69"/>
      <path d="M 6.59375 0 
L 6.59375 51.859375 
L 14.5 51.859375 
L 14.5 44.484375 
Q 20.21875 53.03125 31 53.03125 
Q 35.6875 53.03125 39.625 51.34375 
Q 43.5625 49.65625 45.515625 46.921875 
Q 47.46875 44.1875 48.25 40.4375 
Q 48.734375 37.984375 48.734375 31.890625 
L 48.734375 0 
L 39.9375 0 
L 39.9375 31.546875 
Q 39.9375 36.921875 38.90625 39.578125 
Q 37.890625 42.234375 35.28125 43.8125 
Q 32.671875 45.40625 29.15625 45.40625 
Q 23.53125 45.40625 19.453125 41.84375 
Q 15.375 38.28125 15.375 28.328125 
L 15.375 0 
z
" id="ArialMT-110"/>
      <path d="M 21 0 
L 1.265625 51.859375 
L 10.546875 51.859375 
L 21.6875 20.796875 
Q 23.484375 15.765625 25 10.359375 
Q 26.171875 14.453125 28.265625 20.21875 
L 39.796875 51.859375 
L 48.828125 51.859375 
L 29.203125 0 
z
" id="ArialMT-118"/>
      <path d="M 9.328125 0 
L 9.328125 71.578125 
L 18.796875 71.578125 
L 18.796875 0 
z
" id="ArialMT-73"/>
      <path d="M 42.09375 16.703125 
L 51.171875 15.578125 
Q 49.03125 7.625 43.21875 3.21875 
Q 37.40625 -1.171875 28.375 -1.171875 
Q 17 -1.171875 10.328125 5.828125 
Q 3.65625 12.84375 3.65625 25.484375 
Q 3.65625 38.578125 10.390625 45.796875 
Q 17.140625 53.03125 27.875 53.03125 
Q 38.28125 53.03125 44.875 45.953125 
Q 51.46875 38.875 51.46875 26.03125 
Q 51.46875 25.25 51.421875 23.6875 
L 12.75 23.6875 
Q 13.234375 15.140625 17.578125 10.59375 
Q 21.921875 6.0625 28.421875 6.0625 
Q 33.25 6.0625 36.671875 8.59375 
Q 40.09375 11.140625 42.09375 16.703125 
z
M 13.234375 30.90625 
L 42.1875 30.90625 
Q 41.609375 37.453125 38.875 40.71875 
Q 34.671875 45.796875 27.984375 45.796875 
Q 21.921875 45.796875 17.796875 41.75 
Q 13.671875 37.703125 13.234375 30.90625 
z
" id="ArialMT-101"/>
      <path d="M 6.5 0 
L 6.5 51.859375 
L 14.40625 51.859375 
L 14.40625 44 
Q 17.4375 49.515625 20 51.265625 
Q 22.5625 53.03125 25.640625 53.03125 
Q 30.078125 53.03125 34.671875 50.203125 
L 31.640625 42.046875 
Q 28.421875 43.953125 25.203125 43.953125 
Q 22.3125 43.953125 20.015625 42.21875 
Q 17.71875 40.484375 16.75 37.40625 
Q 15.28125 32.71875 15.28125 27.15625 
L 15.28125 0 
z
" id="ArialMT-114"/>
      <path d="M 40.4375 19 
L 49.078125 17.875 
Q 47.65625 8.9375 41.8125 3.875 
Q 35.984375 -1.171875 27.484375 -1.171875 
Q 16.84375 -1.171875 10.375 5.78125 
Q 3.90625 12.75 3.90625 25.734375 
Q 3.90625 34.125 6.6875 40.421875 
Q 9.46875 46.734375 15.15625 49.875 
Q 20.84375 53.03125 27.546875 53.03125 
Q 35.984375 53.03125 41.359375 48.75 
Q 46.734375 44.484375 48.25 36.625 
L 39.703125 35.296875 
Q 38.484375 40.53125 35.375 43.15625 
Q 32.28125 45.796875 27.875 45.796875 
Q 21.234375 45.796875 17.078125 41.03125 
Q 12.9375 36.28125 12.9375 25.984375 
Q 12.9375 15.53125 16.9375 10.796875 
Q 20.953125 6.0625 27.390625 6.0625 
Q 32.5625 6.0625 36.03125 9.234375 
Q 39.5 12.40625 40.4375 19 
z
" id="ArialMT-99"/>
      <path d="M 3.078125 15.484375 
L 11.765625 16.84375 
Q 12.5 11.625 15.84375 8.84375 
Q 19.1875 6.0625 25.203125 6.0625 
Q 31.25 6.0625 34.171875 8.515625 
Q 37.109375 10.984375 37.109375 14.3125 
Q 37.109375 17.28125 34.515625 19 
Q 32.71875 20.171875 25.53125 21.96875 
Q 15.875 24.421875 12.140625 26.203125 
Q 8.40625 27.984375 6.46875 31.125 
Q 4.546875 34.28125 4.546875 38.09375 
Q 4.546875 41.546875 6.125 44.5 
Q 7.71875 47.46875 10.453125 49.421875 
Q 12.5 50.921875 16.03125 51.96875 
Q 19.578125 53.03125 23.640625 53.03125 
Q 29.734375 53.03125 34.34375 51.265625 
Q 38.96875 49.515625 41.15625 46.5 
Q 43.359375 43.5 44.1875 38.484375 
L 35.59375 37.3125 
Q 35.015625 41.3125 32.203125 43.546875 
Q 29.390625 45.796875 24.265625 45.796875 
Q 18.21875 45.796875 15.625 43.796875 
Q 13.03125 41.796875 13.03125 39.109375 
Q 13.03125 37.40625 14.109375 36.03125 
Q 15.1875 34.625 17.484375 33.6875 
Q 18.796875 33.203125 25.25 31.453125 
Q 34.578125 28.953125 38.25 27.359375 
Q 41.9375 25.78125 44.03125 22.75 
Q 46.140625 19.734375 46.140625 15.234375 
Q 46.140625 10.84375 43.578125 6.953125 
Q 41.015625 3.078125 36.171875 0.953125 
Q 31.34375 -1.171875 25.25 -1.171875 
Q 15.140625 -1.171875 9.84375 3.03125 
Q 4.546875 7.234375 3.078125 15.484375 
z
" id="ArialMT-115"/>
     </defs>
     <g style="fill:#262626;" transform="translate(117.515156 188.858906)scale(0.11 -0.11)">
      <use xlink:href="#ArialMT-84"/>
      <use x="60.912109" xlink:href="#ArialMT-111"/>
      <use x="116.527344" xlink:href="#ArialMT-116"/>
      <use x="144.310547" xlink:href="#ArialMT-97"/>
      <use x="199.925781" xlink:href="#ArialMT-108"/>
      <use x="222.142578" xlink:href="#ArialMT-69"/>
      <use x="288.841797" xlink:href="#ArialMT-110"/>
      <use x="344.457031" xlink:href="#ArialMT-118"/>
      <use x="394.457031" xlink:href="#ArialMT-73"/>
      <use x="422.240234" xlink:href="#ArialMT-110"/>
      <use x="477.855469" xlink:href="#ArialMT-116"/>
      <use x="505.638672" xlink:href="#ArialMT-101"/>
      <use x="561.253906" xlink:href="#ArialMT-114"/>
      <use x="594.554688" xlink:href="#ArialMT-97"/>
      <use x="650.169922" xlink:href="#ArialMT-99"/>
      <use x="700.169922" xlink:href="#ArialMT-116"/>
      <use x="727.953125" xlink:href="#ArialMT-115"/>
     </g>
    </g>
    <g id="text_7">
     <!-- 1e6 -->
     <defs>
      <path d="M 49.75 54.046875 
L 41.015625 53.375 
Q 39.84375 58.546875 37.703125 60.890625 
Q 34.125 64.65625 28.90625 64.65625 
Q 24.703125 64.65625 21.53125 62.3125 
Q 17.390625 59.28125 14.984375 53.46875 
Q 12.59375 47.65625 12.5 36.921875 
Q 15.671875 41.75 20.265625 44.09375 
Q 24.859375 46.4375 29.890625 46.4375 
Q 38.671875 46.4375 44.84375 39.96875 
Q 51.03125 33.5 51.03125 23.25 
Q 51.03125 16.5 48.125 10.71875 
Q 45.21875 4.9375 40.140625 1.859375 
Q 35.0625 -1.21875 28.609375 -1.21875 
Q 17.625 -1.21875 10.6875 6.859375 
Q 3.765625 14.9375 3.765625 33.5 
Q 3.765625 54.25 11.421875 63.671875 
Q 18.109375 71.875 29.4375 71.875 
Q 37.890625 71.875 43.28125 67.140625 
Q 48.6875 62.40625 49.75 54.046875 
z
M 13.875 23.1875 
Q 13.875 18.65625 15.796875 14.5 
Q 17.71875 10.359375 21.1875 8.171875 
Q 24.65625 6 28.46875 6 
Q 34.03125 6 38.03125 10.484375 
Q 42.046875 14.984375 42.046875 22.703125 
Q 42.046875 30.125 38.078125 34.390625 
Q 34.125 38.671875 28.125 38.671875 
Q 22.171875 38.671875 18.015625 34.390625 
Q 13.875 30.125 13.875 23.1875 
z
" id="ArialMT-54"/>
     </defs>
     <g style="fill:#262626;" transform="translate(254.517187 187.143125)scale(0.1 -0.1)">
      <use xlink:href="#ArialMT-49"/>
      <use x="55.615234" xlink:href="#ArialMT-101"/>
      <use x="111.230469" xlink:href="#ArialMT-54"/>
     </g>
    </g>
   </g>
   <g id="matplotlib.axis_2">
    <g id="ytick_1">
     <g id="line2d_11">
      <path clip-path="url(#p2f6edcd6dd)" d="M 49.4 159.413986 
L 271.2 159.413986 
" style="fill:none;stroke:#ffffff;stroke-linecap:round;"/>
     </g>
     <g id="line2d_12"/>
     <g id="text_8">
      <!-- 0 -->
      <g style="fill:#262626;" transform="translate(36.839062 162.992892)scale(0.1 -0.1)">
       <use xlink:href="#ArialMT-48"/>
      </g>
     </g>
    </g>
    <g id="ytick_2">
     <g id="line2d_13">
      <path clip-path="url(#p2f6edcd6dd)" d="M 49.4 129.54819 
L 271.2 129.54819 
" style="fill:none;stroke:#ffffff;stroke-linecap:round;"/>
     </g>
     <g id="line2d_14"/>
     <g id="text_9">
      <!-- 1000 -->
      <g style="fill:#262626;" transform="translate(20.15625 133.127096)scale(0.1 -0.1)">
       <use xlink:href="#ArialMT-49"/>
       <use x="55.615234" xlink:href="#ArialMT-48"/>
       <use x="111.230469" xlink:href="#ArialMT-48"/>
       <use x="166.845703" xlink:href="#ArialMT-48"/>
      </g>
     </g>
    </g>
    <g id="ytick_3">
     <g id="line2d_15">
      <path clip-path="url(#p2f6edcd6dd)" d="M 49.4 99.682394 
L 271.2 99.682394 
" style="fill:none;stroke:#ffffff;stroke-linecap:round;"/>
     </g>
     <g id="line2d_16"/>
     <g id="text_10">
      <!-- 2000 -->
      <g style="fill:#262626;" transform="translate(20.15625 103.2613)scale(0.1 -0.1)">
       <use xlink:href="#ArialMT-50"/>
       <use x="55.615234" xlink:href="#ArialMT-48"/>
       <use x="111.230469" xlink:href="#ArialMT-48"/>
       <use x="166.845703" xlink:href="#ArialMT-48"/>
      </g>
     </g>
    </g>
    <g id="ytick_4">
     <g id="line2d_17">
      <path clip-path="url(#p2f6edcd6dd)" d="M 49.4 69.816598 
L 271.2 69.816598 
" style="fill:none;stroke:#ffffff;stroke-linecap:round;"/>
     </g>
     <g id="line2d_18"/>
     <g id="text_11">
      <!-- 3000 -->
      <defs>
       <path d="M 4.203125 18.890625 
L 12.984375 20.0625 
Q 14.5 12.59375 18.140625 9.296875 
Q 21.78125 6 27 6 
Q 33.203125 6 37.46875 10.296875 
Q 41.75 14.59375 41.75 20.953125 
Q 41.75 27 37.796875 30.921875 
Q 33.84375 34.859375 27.734375 34.859375 
Q 25.25 34.859375 21.53125 33.890625 
L 22.515625 41.609375 
Q 23.390625 41.5 23.921875 41.5 
Q 29.546875 41.5 34.03125 44.421875 
Q 38.53125 47.359375 38.53125 53.46875 
Q 38.53125 58.296875 35.25 61.46875 
Q 31.984375 64.65625 26.8125 64.65625 
Q 21.6875 64.65625 18.265625 61.421875 
Q 14.84375 58.203125 13.875 51.765625 
L 5.078125 53.328125 
Q 6.6875 62.15625 12.390625 67.015625 
Q 18.109375 71.875 26.609375 71.875 
Q 32.46875 71.875 37.390625 69.359375 
Q 42.328125 66.84375 44.9375 62.5 
Q 47.5625 58.15625 47.5625 53.265625 
Q 47.5625 48.640625 45.0625 44.828125 
Q 42.578125 41.015625 37.703125 38.765625 
Q 44.046875 37.3125 47.5625 32.6875 
Q 51.078125 28.078125 51.078125 21.140625 
Q 51.078125 11.765625 44.234375 5.25 
Q 37.40625 -1.265625 26.953125 -1.265625 
Q 17.53125 -1.265625 11.296875 4.34375 
Q 5.078125 9.96875 4.203125 18.890625 
z
" id="ArialMT-51"/>
      </defs>
      <g style="fill:#262626;" transform="translate(20.15625 73.395504)scale(0.1 -0.1)">
       <use xlink:href="#ArialMT-51"/>
       <use x="55.615234" xlink:href="#ArialMT-48"/>
       <use x="111.230469" xlink:href="#ArialMT-48"/>
       <use x="166.845703" xlink:href="#ArialMT-48"/>
      </g>
     </g>
    </g>
    <g id="ytick_5">
     <g id="line2d_19">
      <path clip-path="url(#p2f6edcd6dd)" d="M 49.4 39.950802 
L 271.2 39.950802 
" style="fill:none;stroke:#ffffff;stroke-linecap:round;"/>
     </g>
     <g id="line2d_20"/>
     <g id="text_12">
      <!-- 4000 -->
      <defs>
       <path d="M 32.328125 0 
L 32.328125 17.140625 
L 1.265625 17.140625 
L 1.265625 25.203125 
L 33.9375 71.578125 
L 41.109375 71.578125 
L 41.109375 25.203125 
L 50.78125 25.203125 
L 50.78125 17.140625 
L 41.109375 17.140625 
L 41.109375 0 
z
M 32.328125 25.203125 
L 32.328125 57.46875 
L 9.90625 25.203125 
z
" id="ArialMT-52"/>
      </defs>
      <g style="fill:#262626;" transform="translate(20.15625 43.529709)scale(0.1 -0.1)">
       <use xlink:href="#ArialMT-52"/>
       <use x="55.615234" xlink:href="#ArialMT-48"/>
       <use x="111.230469" xlink:href="#ArialMT-48"/>
       <use x="166.845703" xlink:href="#ArialMT-48"/>
      </g>
     </g>
    </g>
    <g id="text_13">
     <!-- Performance -->
     <defs>
      <path d="M 7.71875 0 
L 7.71875 71.578125 
L 34.71875 71.578125 
Q 41.84375 71.578125 45.609375 70.90625 
Q 50.875 70.015625 54.4375 67.546875 
Q 58.015625 65.09375 60.1875 60.640625 
Q 62.359375 56.203125 62.359375 50.875 
Q 62.359375 41.75 56.546875 35.421875 
Q 50.734375 29.109375 35.546875 29.109375 
L 17.1875 29.109375 
L 17.1875 0 
z
M 17.1875 37.546875 
L 35.6875 37.546875 
Q 44.875 37.546875 48.734375 40.96875 
Q 52.59375 44.390625 52.59375 50.59375 
Q 52.59375 55.078125 50.3125 58.265625 
Q 48.046875 61.46875 44.34375 62.5 
Q 41.9375 63.140625 35.5 63.140625 
L 17.1875 63.140625 
z
" id="ArialMT-80"/>
      <path d="M 8.6875 0 
L 8.6875 45.015625 
L 0.921875 45.015625 
L 0.921875 51.859375 
L 8.6875 51.859375 
L 8.6875 57.375 
Q 8.6875 62.59375 9.625 65.140625 
Q 10.890625 68.5625 14.078125 70.671875 
Q 17.28125 72.796875 23.046875 72.796875 
Q 26.765625 72.796875 31.25 71.921875 
L 29.9375 64.265625 
Q 27.203125 64.75 24.75 64.75 
Q 20.75 64.75 19.09375 63.03125 
Q 17.4375 61.328125 17.4375 56.640625 
L 17.4375 51.859375 
L 27.546875 51.859375 
L 27.546875 45.015625 
L 17.4375 45.015625 
L 17.4375 0 
z
" id="ArialMT-102"/>
      <path d="M 6.59375 0 
L 6.59375 51.859375 
L 14.453125 51.859375 
L 14.453125 44.578125 
Q 16.890625 48.390625 20.9375 50.703125 
Q 25 53.03125 30.171875 53.03125 
Q 35.9375 53.03125 39.625 50.640625 
Q 43.3125 48.25 44.828125 43.953125 
Q 50.984375 53.03125 60.84375 53.03125 
Q 68.5625 53.03125 72.703125 48.75 
Q 76.859375 44.484375 76.859375 35.59375 
L 76.859375 0 
L 68.109375 0 
L 68.109375 32.671875 
Q 68.109375 37.9375 67.25 40.25 
Q 66.40625 42.578125 64.15625 43.984375 
Q 61.921875 45.40625 58.890625 45.40625 
Q 53.421875 45.40625 49.796875 41.765625 
Q 46.1875 38.140625 46.1875 30.125 
L 46.1875 0 
L 37.40625 0 
L 37.40625 33.6875 
Q 37.40625 39.546875 35.25 42.46875 
Q 33.109375 45.40625 28.21875 45.40625 
Q 24.515625 45.40625 21.359375 43.453125 
Q 18.21875 41.5 16.796875 37.734375 
Q 15.375 33.984375 15.375 26.90625 
L 15.375 0 
z
" id="ArialMT-109"/>
     </defs>
     <g style="fill:#262626;" transform="translate(13.97 128.107803)rotate(-90)scale(0.11 -0.11)">
      <use xlink:href="#ArialMT-80"/>
      <use x="66.699219" xlink:href="#ArialMT-101"/>
      <use x="122.314453" xlink:href="#ArialMT-114"/>
      <use x="155.615234" xlink:href="#ArialMT-102"/>
      <use x="183.398438" xlink:href="#ArialMT-111"/>
      <use x="239.013672" xlink:href="#ArialMT-114"/>
      <use x="272.314453" xlink:href="#ArialMT-109"/>
      <use x="355.615234" xlink:href="#ArialMT-97"/>
      <use x="411.230469" xlink:href="#ArialMT-110"/>
      <use x="466.845703" xlink:href="#ArialMT-99"/>
      <use x="516.845703" xlink:href="#ArialMT-101"/>
     </g>
    </g>
   </g>
   <g id="PolyCollection_1">
    <path clip-path="url(#p2f6edcd6dd)" d="M 49.4 148.555013 
L 49.4 153.88637 
L 50.141806 153.210526 
L 50.883612 152.652868 
L 51.625418 151.856072 
L 52.367224 150.698535 
L 53.10903 149.815701 
L 53.850836 149.060493 
L 54.592642 148.008515 
L 55.334448 146.396823 
L 56.076254 144.684115 
L 56.81806 142.873501 
L 57.559866 141.505039 
L 58.301672 140.240243 
L 59.043478 138.612291 
L 59.785284 138.288987 
L 60.52709 138.204684 
L 61.268896 136.608479 
L 62.010702 135.441178 
L 62.752508 134.960655 
L 63.494314 134.463014 
L 64.23612 133.511121 
L 64.977926 131.92927 
L 65.719732 128.814756 
L 66.461538 127.532369 
L 67.203344 124.63615 
L 67.945151 123.413769 
L 68.686957 121.914695 
L 69.428763 121.941307 
L 70.170569 120.280156 
L 70.912375 117.192058 
L 71.654181 115.490589 
L 72.395987 113.676271 
L 73.137793 112.444138 
L 73.879599 111.507485 
L 74.621405 111.294748 
L 75.363211 111.279186 
L 76.105017 110.254828 
L 76.846823 108.984016 
L 77.588629 108.015086 
L 78.330435 107.106033 
L 79.072241 108.10417 
L 79.814047 107.911178 
L 80.555853 108.72877 
L 81.297659 108.93262 
L 82.039465 109.476728 
L 82.781271 107.691069 
L 83.523077 107.172519 
L 84.264883 105.665308 
L 85.006689 105.769175 
L 85.748495 106.747676 
L 86.490301 107.039668 
L 87.232107 105.277091 
L 87.973913 104.940455 
L 88.715719 102.962966 
L 89.457525 101.274885 
L 90.199331 100.424749 
L 90.941137 99.604368 
L 91.682943 99.39438 
L 92.424749 98.34042 
L 93.166555 97.150591 
L 93.908361 94.794492 
L 94.650167 93.520005 
L 95.391973 93.758985 
L 96.133779 92.756221 
L 96.875585 92.973668 
L 97.617391 92.438861 
L 98.359197 91.353217 
L 99.101003 90.933369 
L 99.842809 90.17969 
L 100.584615 90.256557 
L 101.326421 90.432929 
L 102.068227 91.019697 
L 102.810033 90.782851 
L 103.551839 89.821383 
L 104.293645 90.123705 
L 105.035452 89.413371 
L 105.777258 91.173354 
L 106.519064 90.203095 
L 107.26087 89.851075 
L 108.002676 89.858498 
L 108.744482 89.454729 
L 109.486288 88.906628 
L 110.228094 88.485682 
L 110.9699 88.156669 
L 111.711706 86.755163 
L 112.453512 86.616549 
L 113.195318 86.897954 
L 113.937124 84.461364 
L 114.67893 84.835416 
L 115.420736 84.620063 
L 116.162542 83.77979 
L 116.904348 84.18362 
L 117.646154 81.465115 
L 118.38796 82.0719 
L 119.129766 82.492288 
L 119.871572 83.046344 
L 120.613378 82.334794 
L 121.355184 81.698952 
L 122.09699 81.556436 
L 122.838796 82.15882 
L 123.580602 80.189675 
L 124.322408 81.233336 
L 125.064214 81.19675 
L 125.80602 83.179009 
L 126.547826 83.659727 
L 127.289632 85.435063 
L 128.031438 83.955288 
L 128.773244 82.253713 
L 129.51505 82.971369 
L 130.256856 84.564655 
L 130.998662 83.513455 
L 131.740468 83.18839 
L 132.482274 82.10533 
L 133.22408 81.312065 
L 133.965886 79.9794 
L 134.707692 77.499432 
L 135.449498 74.522777 
L 136.191304 75.869308 
L 136.93311 76.034186 
L 137.674916 73.46294 
L 138.416722 71.548662 
L 139.158528 73.638886 
L 139.900334 74.854372 
L 140.64214 76.507711 
L 141.383946 77.476449 
L 142.125753 79.651777 
L 142.867559 80.059681 
L 143.609365 78.387381 
L 144.351171 76.221213 
L 145.092977 75.881133 
L 145.834783 76.596594 
L 146.576589 76.457492 
L 147.318395 74.832548 
L 148.060201 74.566737 
L 148.802007 72.977094 
L 149.543813 69.461196 
L 150.285619 69.573238 
L 151.027425 69.303991 
L 151.769231 69.888498 
L 152.511037 68.286641 
L 153.252843 71.274029 
L 153.994649 71.146629 
L 154.736455 70.200456 
L 155.478261 69.958786 
L 156.220067 70.563324 
L 156.961873 73.15301 
L 157.703679 74.383899 
L 158.445485 73.103643 
L 159.187291 73.166349 
L 159.929097 70.818721 
L 160.670903 71.099132 
L 161.412709 67.309502 
L 162.154515 68.859391 
L 162.896321 69.783842 
L 163.638127 67.415578 
L 164.379933 69.557126 
L 165.121739 66.311225 
L 165.863545 69.388044 
L 166.605351 69.123977 
L 167.347157 68.859577 
L 168.088963 70.517906 
L 168.830769 67.633651 
L 169.572575 68.753786 
L 170.314381 67.841893 
L 171.056187 67.125806 
L 171.797993 67.49761 
L 172.539799 66.265248 
L 173.281605 68.012237 
L 174.023411 69.081595 
L 174.765217 70.686184 
L 175.507023 70.032649 
L 176.248829 67.509632 
L 176.990635 70.155174 
L 177.732441 72.164443 
L 178.474247 72.075075 
L 179.216054 72.097057 
L 179.95786 71.733647 
L 180.699666 71.399061 
L 181.441472 68.685628 
L 182.183278 64.892334 
L 182.925084 63.312771 
L 183.66689 64.178463 
L 184.408696 63.62014 
L 185.150502 63.012271 
L 185.892308 60.597084 
L 186.634114 64.020421 
L 187.37592 65.808054 
L 188.117726 66.613861 
L 188.859532 66.419436 
L 189.601338 66.326254 
L 190.343144 66.484475 
L 191.08495 66.57948 
L 191.826756 68.14858 
L 192.568562 68.532554 
L 193.310368 71.192533 
L 194.052174 68.816585 
L 194.79398 65.154022 
L 195.535786 63.204469 
L 196.277592 63.214515 
L 197.019398 63.180437 
L 197.761204 63.103745 
L 198.50301 63.381187 
L 199.244816 62.213275 
L 199.986622 62.756579 
L 200.728428 60.483056 
L 201.470234 58.990213 
L 202.21204 59.964218 
L 202.953846 61.603313 
L 203.695652 61.740506 
L 204.437458 62.155996 
L 205.179264 61.842963 
L 205.92107 61.518231 
L 206.662876 60.850761 
L 207.404682 60.528771 
L 208.146488 61.662979 
L 208.888294 61.922551 
L 209.6301 60.649805 
L 210.371906 61.679605 
L 211.113712 60.978592 
L 211.855518 60.985124 
L 212.597324 61.323199 
L 213.33913 61.260961 
L 214.080936 61.209058 
L 214.822742 61.942569 
L 215.564548 64.00386 
L 216.306355 61.469378 
L 217.048161 61.467737 
L 217.789967 61.282399 
L 218.531773 59.834991 
L 219.273579 63.45392 
L 220.015385 64.998617 
L 220.757191 67.828363 
L 221.498997 68.036189 
L 222.240803 68.22334 
L 222.982609 66.314119 
L 223.724415 67.506068 
L 224.466221 69.744461 
L 225.208027 71.251822 
L 225.949833 70.139636 
L 226.691639 72.241311 
L 227.433445 70.342358 
L 228.175251 68.654251 
L 228.917057 67.392048 
L 229.658863 68.753539 
L 230.400669 72.315462 
L 231.142475 75.552523 
L 231.884281 76.390066 
L 232.626087 74.09737 
L 233.367893 74.842323 
L 234.109699 75.533807 
L 234.851505 72.340134 
L 235.593311 71.887264 
L 236.335117 72.032852 
L 237.076923 72.120633 
L 237.818729 69.622013 
L 238.560535 66.231365 
L 239.302341 63.364015 
L 240.044147 62.199762 
L 240.785953 62.820541 
L 241.527759 61.668921 
L 242.269565 61.681148 
L 243.011371 63.381783 
L 243.753177 64.57531 
L 244.494983 64.074369 
L 245.236789 65.404938 
L 245.978595 65.510291 
L 246.720401 69.265697 
L 247.462207 69.068566 
L 248.204013 69.296124 
L 248.945819 70.118962 
L 249.687625 70.113337 
L 250.429431 69.777501 
L 251.171237 69.139033 
L 251.913043 69.542778 
L 252.654849 69.6754 
L 253.396656 70.699778 
L 254.138462 69.84627 
L 254.880268 69.145169 
L 255.622074 67.714879 
L 256.36388 65.385193 
L 257.105686 67.582052 
L 257.847492 66.907696 
L 258.589298 71.404668 
L 259.331104 71.719644 
L 260.07291 69.096571 
L 260.814716 69.863037 
L 261.556522 71.366996 
L 262.298328 72.746856 
L 263.040134 70.614378 
L 263.78194 71.046891 
L 264.523746 71.779192 
L 265.265552 69.66487 
L 266.007358 68.831401 
L 266.749164 64.104057 
L 267.49097 62.478415 
L 268.232776 63.867164 
L 268.974582 64.888656 
L 269.716388 63.896762 
L 270.458194 62.943468 
L 271.2 64.533249 
L 271.2 49.196736 
L 271.2 49.196736 
L 270.458194 49.859085 
L 269.716388 50.020814 
L 268.974582 50.97956 
L 268.232776 51.082109 
L 267.49097 50.729463 
L 266.749164 50.361625 
L 266.007358 48.949807 
L 265.265552 48.60729 
L 264.523746 51.347039 
L 263.78194 49.726084 
L 263.040134 49.254208 
L 262.298328 48.866928 
L 261.556522 48.894466 
L 260.814716 49.670784 
L 260.07291 49.693584 
L 259.331104 49.681439 
L 258.589298 52.729645 
L 257.847492 52.017897 
L 257.105686 52.322525 
L 256.36388 50.069605 
L 255.622074 49.688455 
L 254.880268 49.538804 
L 254.138462 50.157278 
L 253.396656 50.316893 
L 252.654849 51.178782 
L 251.913043 51.071836 
L 251.171237 51.833447 
L 250.429431 50.918098 
L 249.687625 50.59574 
L 248.945819 49.714475 
L 248.204013 49.72837 
L 247.462207 51.33662 
L 246.720401 53.318491 
L 245.978595 53.479155 
L 245.236789 53.279245 
L 244.494983 53.411724 
L 243.753177 53.390808 
L 243.011371 52.42611 
L 242.269565 51.758183 
L 241.527759 53.0827 
L 240.785953 53.347605 
L 240.044147 53.692461 
L 239.302341 50.773656 
L 238.560535 47.698866 
L 237.818729 47.883389 
L 237.076923 47.83974 
L 236.335117 48.165914 
L 235.593311 48.159121 
L 234.851505 48.957676 
L 234.109699 46.539811 
L 233.367893 46.948909 
L 232.626087 48.803173 
L 231.884281 50.383455 
L 231.142475 51.472582 
L 230.400669 51.787874 
L 229.658863 51.505529 
L 228.917057 49.756368 
L 228.175251 50.705812 
L 227.433445 50.824004 
L 226.691639 50.989104 
L 225.949833 50.432858 
L 225.208027 50.142914 
L 224.466221 48.550728 
L 223.724415 47.658284 
L 222.982609 49.29113 
L 222.240803 48.763124 
L 221.498997 48.77073 
L 220.757191 48.696161 
L 220.015385 50.980008 
L 219.273579 51.466414 
L 218.531773 50.95665 
L 217.789967 51.675315 
L 217.048161 51.999744 
L 216.306355 51.90529 
L 215.564548 51.709247 
L 214.822742 51.665902 
L 214.080936 51.408881 
L 213.33913 51.597301 
L 212.597324 51.053163 
L 211.855518 49.869733 
L 211.113712 49.3237 
L 210.371906 50.600299 
L 209.6301 50.446553 
L 208.888294 47.908003 
L 208.146488 47.71587 
L 207.404682 48.645162 
L 206.662876 48.475137 
L 205.92107 48.472273 
L 205.179264 48.722938 
L 204.437458 49.235839 
L 203.695652 49.085678 
L 202.953846 49.014667 
L 202.21204 49.398803 
L 201.470234 50.197603 
L 200.728428 52.393743 
L 199.986622 52.92111 
L 199.244816 51.982262 
L 198.50301 52.015788 
L 197.761204 52.310333 
L 197.019398 52.113274 
L 196.277592 51.278159 
L 195.535786 51.431974 
L 194.79398 52.481948 
L 194.052174 52.419064 
L 193.310368 51.449404 
L 192.568562 49.180069 
L 191.826756 48.159312 
L 191.08495 51.328383 
L 190.343144 50.361576 
L 189.601338 50.652515 
L 188.859532 50.636213 
L 188.117726 51.084339 
L 187.37592 51.800998 
L 186.634114 52.037929 
L 185.892308 51.565433 
L 185.150502 51.065958 
L 184.408696 52.067244 
L 183.66689 51.267559 
L 182.925084 50.88046 
L 182.183278 51.297054 
L 181.441472 52.433276 
L 180.699666 53.178102 
L 179.95786 55.132724 
L 179.216054 55.316857 
L 178.474247 53.932661 
L 177.732441 54.953245 
L 176.990635 53.885373 
L 176.248829 54.98724 
L 175.507023 54.01288 
L 174.765217 54.087044 
L 174.023411 55.261728 
L 173.281605 55.627566 
L 172.539799 54.272352 
L 171.797993 53.702516 
L 171.056187 56.036353 
L 170.314381 57.194802 
L 169.572575 58.21263 
L 168.830769 58.595223 
L 168.088963 58.422416 
L 167.347157 58.224088 
L 166.605351 56.977353 
L 165.863545 54.978948 
L 165.121739 54.520358 
L 164.379933 54.982732 
L 163.638127 55.353465 
L 162.896321 52.846429 
L 162.154515 52.063551 
L 161.412709 51.094142 
L 160.670903 52.090647 
L 159.929097 52.222741 
L 159.187291 52.226916 
L 158.445485 53.412643 
L 157.703679 54.613426 
L 156.961873 55.001071 
L 156.220067 53.297603 
L 155.478261 53.226939 
L 154.736455 54.972889 
L 153.994649 55.76459 
L 153.252843 57.836937 
L 152.511037 56.881799 
L 151.769231 56.039604 
L 151.027425 54.341306 
L 150.285619 57.286897 
L 149.543813 59.923941 
L 148.802007 58.036662 
L 148.060201 59.933506 
L 147.318395 60.902252 
L 146.576589 59.726526 
L 145.834783 60.215873 
L 145.092977 60.586997 
L 144.351171 61.681456 
L 143.609365 58.401177 
L 142.867559 59.06093 
L 142.125753 57.113233 
L 141.383946 56.217118 
L 140.64214 55.852453 
L 139.900334 56.610602 
L 139.158528 56.282808 
L 138.416722 55.329121 
L 137.674916 56.221298 
L 136.93311 56.194254 
L 136.191304 54.876255 
L 135.449498 54.285985 
L 134.707692 52.878617 
L 133.965886 51.513479 
L 133.22408 51.063086 
L 132.482274 51.411767 
L 131.740468 52.252334 
L 130.998662 52.330944 
L 130.256856 53.919482 
L 129.51505 52.662666 
L 128.773244 50.216198 
L 128.031438 49.012568 
L 127.289632 48.575002 
L 126.547826 48.967248 
L 125.80602 48.534132 
L 125.064214 48.942567 
L 124.322408 49.918125 
L 123.580602 48.895148 
L 122.838796 47.943289 
L 122.09699 45.959368 
L 121.355184 45.785957 
L 120.613378 46.405309 
L 119.871572 46.934738 
L 119.129766 48.101362 
L 118.38796 47.978127 
L 117.646154 47.741185 
L 116.904348 46.759878 
L 116.162542 45.191287 
L 115.420736 45.3673 
L 114.67893 45.179972 
L 113.937124 44.855307 
L 113.195318 45.892378 
L 112.453512 45.099439 
L 111.711706 45.312725 
L 110.9699 44.59354 
L 110.228094 43.430032 
L 109.486288 44.538335 
L 108.744482 44.59478 
L 108.002676 45.473456 
L 107.26087 45.505953 
L 106.519064 45.757335 
L 105.777258 46.250143 
L 105.035452 44.60279 
L 104.293645 46.157772 
L 103.551839 45.810677 
L 102.810033 47.300768 
L 102.068227 48.208131 
L 101.326421 47.467657 
L 100.584615 47.17513 
L 99.842809 47.227491 
L 99.101003 48.715961 
L 98.359197 48.698098 
L 97.617391 49.321469 
L 96.875585 50.012983 
L 96.133779 49.932445 
L 95.391973 52.352164 
L 94.650167 51.38881 
L 93.908361 52.505596 
L 93.166555 55.119749 
L 92.424749 56.32546 
L 91.682943 58.026795 
L 90.941137 57.016812 
L 90.199331 57.940017 
L 89.457525 57.357 
L 88.715719 58.109301 
L 87.973913 58.603142 
L 87.232107 58.497487 
L 86.490301 58.190691 
L 85.748495 58.079827 
L 85.006689 59.269197 
L 84.264883 59.71248 
L 83.523077 59.383654 
L 82.781271 60.560098 
L 82.039465 61.517391 
L 81.297659 61.812097 
L 80.555853 61.378965 
L 79.814047 60.644223 
L 79.072241 61.925038 
L 78.330435 62.048517 
L 77.588629 61.890376 
L 76.846823 61.501014 
L 76.105017 63.212083 
L 75.363211 65.38174 
L 74.621405 65.167302 
L 73.879599 67.707799 
L 73.137793 68.568537 
L 72.395987 69.337348 
L 71.654181 71.157534 
L 70.912375 72.1117 
L 70.170569 75.385017 
L 69.428763 78.965686 
L 68.686957 80.64815 
L 67.945151 81.33831 
L 67.203344 81.795237 
L 66.461538 83.987239 
L 65.719732 85.846263 
L 64.977926 89.977152 
L 64.23612 91.916499 
L 63.494314 96.639871 
L 62.752508 100.8277 
L 62.010702 103.647034 
L 61.268896 105.773735 
L 60.52709 108.742512 
L 59.785284 113.089002 
L 59.043478 116.279936 
L 58.301672 119.191502 
L 57.559866 121.512192 
L 56.81806 123.899017 
L 56.076254 128.721167 
L 55.334448 131.027967 
L 54.592642 132.95374 
L 53.850836 135.975856 
L 53.10903 140.311388 
L 52.367224 141.744194 
L 51.625418 142.968294 
L 50.883612 145.205321 
L 50.141806 147.332696 
L 49.4 148.555013 
z
" style="fill:#4c72b0;fill-opacity:0.2;"/>
   </g>
   <g id="PolyCollection_2">
    <path clip-path="url(#p2f6edcd6dd)" d="M 49.4 148.278708 
L 49.4 154.734922 
L 50.141806 155.002236 
L 50.883612 154.598521 
L 51.625418 153.794033 
L 52.367224 152.894743 
L 53.10903 152.129999 
L 53.850836 150.852488 
L 54.592642 149.241975 
L 55.334448 148.03927 
L 56.076254 146.561053 
L 56.81806 144.770504 
L 57.559866 143.191426 
L 58.301672 141.119391 
L 59.043478 139.533857 
L 59.785284 138.019525 
L 60.52709 135.773326 
L 61.268896 133.722299 
L 62.010702 132.84166 
L 62.752508 131.390856 
L 63.494314 129.589736 
L 64.23612 127.7293 
L 64.977926 126.426804 
L 65.719732 125.42123 
L 66.461538 123.439786 
L 67.203344 121.486863 
L 67.945151 119.570147 
L 68.686957 117.899766 
L 69.428763 115.754117 
L 70.170569 114.903804 
L 70.912375 113.563529 
L 71.654181 113.639805 
L 72.395987 112.773842 
L 73.137793 111.640355 
L 73.879599 111.985462 
L 74.621405 112.188887 
L 75.363211 111.973662 
L 76.105017 111.99232 
L 76.846823 111.335302 
L 77.588629 111.446539 
L 78.330435 110.490259 
L 79.072241 110.194622 
L 79.814047 108.513529 
L 80.555853 108.918953 
L 81.297659 108.462166 
L 82.039465 106.388795 
L 82.781271 106.044385 
L 83.523077 106.866388 
L 84.264883 107.111375 
L 85.006689 108.341222 
L 85.748495 108.001024 
L 86.490301 108.295318 
L 87.232107 107.25835 
L 87.973913 107.598666 
L 88.715719 106.639595 
L 89.457525 106.170968 
L 90.199331 107.123785 
L 90.941137 107.420887 
L 91.682943 106.231983 
L 92.424749 106.257506 
L 93.166555 105.749437 
L 93.908361 105.02272 
L 94.650167 104.572544 
L 95.391973 105.25747 
L 96.133779 105.520165 
L 96.875585 105.373866 
L 97.617391 106.730201 
L 98.359197 106.731963 
L 99.101003 106.940834 
L 99.842809 108.041638 
L 100.584615 108.508028 
L 101.326421 108.172657 
L 102.068227 109.322881 
L 102.810033 109.78286 
L 103.551839 108.399648 
L 104.293645 108.402602 
L 105.035452 109.14276 
L 105.777258 108.313569 
L 106.519064 107.467281 
L 107.26087 106.011887 
L 108.002676 104.953339 
L 108.744482 103.745514 
L 109.486288 103.862833 
L 110.228094 103.554679 
L 110.9699 103.050896 
L 111.711706 103.165155 
L 112.453512 103.296484 
L 113.195318 101.83673 
L 113.937124 101.489344 
L 114.67893 102.636126 
L 115.420736 102.575027 
L 116.162542 103.361452 
L 116.904348 103.15292 
L 117.646154 103.081012 
L 118.38796 102.716332 
L 119.129766 103.775077 
L 119.871572 104.365657 
L 120.613378 103.70294 
L 121.355184 104.246117 
L 122.09699 105.094282 
L 122.838796 104.88068 
L 123.580602 105.495137 
L 124.322408 105.444382 
L 125.064214 105.753994 
L 125.80602 106.645912 
L 126.547826 107.40722 
L 127.289632 107.736776 
L 128.031438 107.512409 
L 128.773244 108.022519 
L 129.51505 108.406133 
L 130.256856 108.281759 
L 130.998662 108.792142 
L 131.740468 108.430861 
L 132.482274 108.414019 
L 133.22408 109.379355 
L 133.965886 109.107358 
L 134.707692 109.346175 
L 135.449498 108.564549 
L 136.191304 109.420913 
L 136.93311 110.389206 
L 137.674916 110.694044 
L 138.416722 110.37111 
L 139.158528 110.082078 
L 139.900334 110.942639 
L 140.64214 110.37577 
L 141.383946 109.302594 
L 142.125753 108.483493 
L 142.867559 108.403954 
L 143.609365 107.528638 
L 144.351171 108.481788 
L 145.092977 107.66565 
L 145.834783 107.792756 
L 146.576589 107.912547 
L 147.318395 107.891007 
L 148.060201 107.375038 
L 148.802007 108.143042 
L 149.543813 107.473674 
L 150.285619 108.623556 
L 151.027425 108.825617 
L 151.769231 109.336145 
L 152.511037 108.208182 
L 153.252843 107.558293 
L 153.994649 106.688533 
L 154.736455 106.237285 
L 155.478261 105.559733 
L 156.220067 105.19249 
L 156.961873 104.809411 
L 157.703679 103.847393 
L 158.445485 103.14823 
L 159.187291 102.31259 
L 159.929097 101.765618 
L 160.670903 102.259021 
L 161.412709 101.965074 
L 162.154515 102.684309 
L 162.896321 103.218189 
L 163.638127 103.902953 
L 164.379933 105.082085 
L 165.121739 106.32958 
L 165.863545 107.987571 
L 166.605351 108.186605 
L 167.347157 107.543783 
L 168.088963 107.797473 
L 168.830769 107.991569 
L 169.572575 108.636354 
L 170.314381 108.081737 
L 171.056187 108.414531 
L 171.797993 110.151469 
L 172.539799 109.588811 
L 173.281605 109.896112 
L 174.023411 109.795772 
L 174.765217 109.647033 
L 175.507023 110.010711 
L 176.248829 109.778479 
L 176.990635 109.482074 
L 177.732441 109.6095 
L 178.474247 110.914251 
L 179.216054 110.591029 
L 179.95786 108.787242 
L 180.699666 108.983333 
L 181.441472 108.148338 
L 182.183278 107.821326 
L 182.925084 107.434785 
L 183.66689 107.568796 
L 184.408696 108.522304 
L 185.150502 108.5942 
L 185.892308 108.10886 
L 186.634114 107.476188 
L 187.37592 106.920787 
L 188.117726 107.54773 
L 188.859532 108.072175 
L 189.601338 107.115015 
L 190.343144 106.421817 
L 191.08495 107.699996 
L 191.826756 108.580555 
L 192.568562 106.669401 
L 193.310368 105.211183 
L 194.052174 105.422985 
L 194.79398 105.701011 
L 195.535786 106.069769 
L 196.277592 105.128804 
L 197.019398 104.1936 
L 197.761204 104.895201 
L 198.50301 105.825904 
L 199.244816 106.060685 
L 199.986622 107.181294 
L 200.728428 108.921763 
L 201.470234 109.482385 
L 202.21204 110.103918 
L 202.953846 109.640672 
L 203.695652 110.437829 
L 204.437458 112.189124 
L 205.179264 111.839621 
L 205.92107 110.110411 
L 206.662876 110.577398 
L 207.404682 109.676599 
L 208.146488 108.712941 
L 208.888294 106.980123 
L 209.6301 107.920089 
L 210.371906 107.81478 
L 211.113712 107.108563 
L 211.855518 106.22653 
L 212.597324 105.821173 
L 213.33913 105.912556 
L 214.080936 106.128162 
L 214.822742 104.55057 
L 215.564548 105.290625 
L 216.306355 104.820805 
L 217.048161 105.124071 
L 217.789967 103.997903 
L 218.531773 104.519815 
L 219.273579 103.719515 
L 220.015385 103.410335 
L 220.757191 103.407493 
L 221.498997 102.952166 
L 222.240803 103.708742 
L 222.982609 104.993548 
L 223.724415 104.054652 
L 224.466221 104.189801 
L 225.208027 105.106662 
L 225.949833 106.31792 
L 226.691639 105.179201 
L 227.433445 105.595049 
L 228.175251 105.905147 
L 228.917057 106.549539 
L 229.658863 106.963536 
L 230.400669 107.418027 
L 231.142475 105.315449 
L 231.884281 104.375404 
L 232.626087 104.416841 
L 233.367893 103.402506 
L 234.109699 103.018888 
L 234.851505 104.201308 
L 235.593311 104.503495 
L 236.335117 104.449864 
L 237.076923 103.4871 
L 237.818729 103.097975 
L 238.560535 104.169321 
L 239.302341 104.914992 
L 240.044147 105.868976 
L 240.785953 105.580724 
L 241.527759 106.246889 
L 242.269565 107.043765 
L 243.011371 106.994142 
L 243.753177 106.712843 
L 244.494983 105.73088 
L 245.236789 106.00395 
L 245.978595 105.689473 
L 246.720401 105.002956 
L 247.462207 104.741184 
L 248.204013 103.830786 
L 248.945819 104.672915 
L 249.687625 104.463317 
L 250.429431 103.645111 
L 251.171237 102.806261 
L 251.913043 103.779194 
L 252.654849 105.590492 
L 253.396656 105.836687 
L 254.138462 105.794705 
L 254.880268 106.517042 
L 255.622074 108.033555 
L 256.36388 108.647298 
L 257.105686 107.944118 
L 257.847492 107.106539 
L 258.589298 108.401331 
L 259.331104 108.160018 
L 260.07291 107.529936 
L 260.814716 106.165527 
L 261.556522 105.09149 
L 262.298328 105.146354 
L 263.040134 104.857872 
L 263.78194 104.365043 
L 264.523746 106.024296 
L 265.265552 104.36477 
L 266.007358 104.310992 
L 266.749164 103.801283 
L 267.49097 104.59536 
L 268.232776 104.376557 
L 268.974582 105.345044 
L 269.716388 105.948242 
L 270.458194 106.091594 
L 271.2 105.887889 
L 271.2 40.014683 
L 271.2 40.014683 
L 270.458194 42.244218 
L 269.716388 41.46908 
L 268.974582 41.026673 
L 268.232776 40.464544 
L 267.49097 40.782782 
L 266.749164 40.409651 
L 266.007358 41.346929 
L 265.265552 41.671536 
L 264.523746 44.401136 
L 263.78194 43.343532 
L 263.040134 45.341114 
L 262.298328 44.915339 
L 261.556522 44.14824 
L 260.814716 45.117712 
L 260.07291 45.760113 
L 259.331104 46.242712 
L 258.589298 47.243036 
L 257.847492 46.962032 
L 257.105686 47.703866 
L 256.36388 45.363012 
L 255.622074 45.513226 
L 254.880268 43.184519 
L 254.138462 42.254006 
L 253.396656 43.626725 
L 252.654849 41.959086 
L 251.913043 40.879704 
L 251.171237 40.155324 
L 250.429431 39.925885 
L 249.687625 41.974776 
L 248.945819 42.170559 
L 248.204013 41.761494 
L 247.462207 42.278156 
L 246.720401 42.592392 
L 245.978595 44.064745 
L 245.236789 42.978694 
L 244.494983 43.058336 
L 243.753177 43.647816 
L 243.011371 44.156032 
L 242.269565 45.43588 
L 241.527759 45.730967 
L 240.785953 44.801629 
L 240.044147 45.79536 
L 239.302341 44.941563 
L 238.560535 44.39191 
L 237.818729 44.436851 
L 237.076923 45.012783 
L 236.335117 45.871431 
L 235.593311 45.36359 
L 234.851505 44.139101 
L 234.109699 41.9595 
L 233.367893 41.689653 
L 232.626087 42.548337 
L 231.884281 40.698668 
L 231.142475 41.154642 
L 230.400669 42.930582 
L 229.658863 42.430844 
L 228.917057 41.273407 
L 228.175251 41.886933 
L 227.433445 42.607184 
L 226.691639 41.955051 
L 225.949833 42.897082 
L 225.208027 42.231587 
L 224.466221 39.913784 
L 223.724415 40.11349 
L 222.982609 41.019884 
L 222.240803 39.032596 
L 221.498997 38.562767 
L 220.757191 39.776399 
L 220.015385 39.417153 
L 219.273579 38.970155 
L 218.531773 39.670881 
L 217.789967 38.567491 
L 217.048161 38.246964 
L 216.306355 39.563016 
L 215.564548 41.108948 
L 214.822742 40.052541 
L 214.080936 42.164872 
L 213.33913 42.369137 
L 212.597324 41.66814 
L 211.855518 41.761168 
L 211.113712 42.091858 
L 210.371906 42.140694 
L 209.6301 42.461086 
L 208.888294 43.207807 
L 208.146488 44.025222 
L 207.404682 44.331312 
L 206.662876 45.790975 
L 205.92107 44.91143 
L 205.179264 46.199534 
L 204.437458 46.37852 
L 203.695652 45.550384 
L 202.953846 47.027146 
L 202.21204 48.597326 
L 201.470234 48.788571 
L 200.728428 47.858085 
L 199.986622 45.524929 
L 199.244816 44.947365 
L 198.50301 44.220524 
L 197.761204 43.113565 
L 197.019398 41.393094 
L 196.277592 41.893726 
L 195.535786 42.545746 
L 194.79398 41.915214 
L 194.052174 40.875991 
L 193.310368 40.973808 
L 192.568562 41.316242 
L 191.826756 43.598551 
L 191.08495 43.144498 
L 190.343144 42.307924 
L 189.601338 42.440875 
L 188.859532 42.31535 
L 188.117726 41.12661 
L 187.37592 41.276718 
L 186.634114 43.384435 
L 185.892308 44.997311 
L 185.150502 46.656152 
L 184.408696 47.445576 
L 183.66689 45.166972 
L 182.925084 44.72111 
L 182.183278 46.516908 
L 181.441472 48.103935 
L 180.699666 49.100737 
L 179.95786 49.527103 
L 179.216054 52.870192 
L 178.474247 51.675875 
L 177.732441 51.437703 
L 176.990635 49.969281 
L 176.248829 49.657998 
L 175.507023 50.145354 
L 174.765217 49.891976 
L 174.023411 48.800296 
L 173.281605 48.278064 
L 172.539799 49.542401 
L 171.797993 49.378029 
L 171.056187 46.2798 
L 170.314381 44.816019 
L 169.572575 43.081148 
L 168.830769 42.817051 
L 168.088963 42.146585 
L 167.347157 43.093867 
L 166.605351 43.154867 
L 165.863545 44.068461 
L 165.121739 42.548882 
L 164.379933 40.585976 
L 163.638127 40.575809 
L 162.896321 40.592142 
L 162.154515 40.354929 
L 161.412709 40.598636 
L 160.670903 40.952753 
L 159.929097 40.868102 
L 159.187291 41.025773 
L 158.445485 41.978975 
L 157.703679 42.808876 
L 156.961873 44.766603 
L 156.220067 46.238356 
L 155.478261 46.435724 
L 154.736455 46.399649 
L 153.994649 46.711949 
L 153.252843 47.416785 
L 152.511037 48.869148 
L 151.769231 52.695395 
L 151.027425 51.481837 
L 150.285619 51.056317 
L 149.543813 49.129977 
L 148.802007 47.607733 
L 148.060201 46.59691 
L 147.318395 47.63754 
L 146.576589 48.197739 
L 145.834783 47.888814 
L 145.092977 47.907684 
L 144.351171 47.320644 
L 143.609365 45.185724 
L 142.867559 44.594342 
L 142.125753 44.300769 
L 141.383946 44.725823 
L 140.64214 44.587103 
L 139.900334 45.840863 
L 139.158528 44.570898 
L 138.416722 46.114182 
L 137.674916 46.79044 
L 136.93311 45.528749 
L 136.191304 45.528318 
L 135.449498 44.445999 
L 134.707692 45.049582 
L 133.965886 45.019481 
L 133.22408 45.075895 
L 132.482274 44.607347 
L 131.740468 43.656972 
L 130.998662 43.628393 
L 130.256856 42.598157 
L 129.51505 42.650993 
L 128.773244 42.543863 
L 128.031438 42.014658 
L 127.289632 41.897674 
L 126.547826 41.369196 
L 125.80602 41.517023 
L 125.064214 41.620536 
L 124.322408 41.742106 
L 123.580602 43.019709 
L 122.838796 43.202266 
L 122.09699 43.73253 
L 121.355184 42.961414 
L 120.613378 42.636857 
L 119.871572 43.232988 
L 119.129766 43.053918 
L 118.38796 42.4655 
L 117.646154 42.440154 
L 116.904348 42.103321 
L 116.162542 41.737337 
L 115.420736 40.605229 
L 114.67893 40.650879 
L 113.937124 39.169083 
L 113.195318 39.656869 
L 112.453512 41.591404 
L 111.711706 40.70326 
L 110.9699 40.730965 
L 110.228094 41.39229 
L 109.486288 42.147349 
L 108.744482 42.55787 
L 108.002676 44.2014 
L 107.26087 45.581811 
L 106.519064 46.630489 
L 105.777258 47.130403 
L 105.035452 48.26004 
L 104.293645 48.155266 
L 103.551839 48.697932 
L 102.810033 50.110376 
L 102.068227 49.318638 
L 101.326421 48.883142 
L 100.584615 49.7054 
L 99.842809 48.831945 
L 99.101003 47.39616 
L 98.359197 47.498794 
L 97.617391 47.684239 
L 96.875585 47.106654 
L 96.133779 46.27261 
L 95.391973 47.228441 
L 94.650167 46.200937 
L 93.908361 46.976066 
L 93.166555 46.924847 
L 92.424749 46.494988 
L 91.682943 46.83396 
L 90.941137 47.486884 
L 90.199331 47.17867 
L 89.457525 46.818245 
L 88.715719 46.68638 
L 87.973913 47.979735 
L 87.232107 46.187485 
L 86.490301 46.805964 
L 85.748495 47.495181 
L 85.006689 48.863921 
L 84.264883 48.0034 
L 83.523077 47.906224 
L 82.781271 47.959566 
L 82.039465 49.314191 
L 81.297659 51.370324 
L 80.555853 52.239451 
L 79.814047 51.908345 
L 79.072241 55.090723 
L 78.330435 55.372438 
L 77.588629 55.588574 
L 76.846823 54.766828 
L 76.105017 55.795455 
L 75.363211 56.151254 
L 74.621405 56.266035 
L 73.879599 56.186701 
L 73.137793 57.709201 
L 72.395987 60.186033 
L 71.654181 61.070469 
L 70.912375 61.770345 
L 70.170569 64.020583 
L 69.428763 66.076569 
L 68.686957 68.414662 
L 67.945151 71.221663 
L 67.203344 74.153448 
L 66.461538 78.039188 
L 65.719732 78.906157 
L 64.977926 80.109344 
L 64.23612 80.954888 
L 63.494314 84.464334 
L 62.752508 88.348101 
L 62.010702 91.431782 
L 61.268896 96.234791 
L 60.52709 100.047899 
L 59.785284 103.458894 
L 59.043478 107.125745 
L 58.301672 110.923994 
L 57.559866 115.395537 
L 56.81806 120.635194 
L 56.076254 125.383158 
L 55.334448 128.956198 
L 54.592642 131.355351 
L 53.850836 134.091177 
L 53.10903 137.824619 
L 52.367224 139.04287 
L 51.625418 140.859211 
L 50.883612 142.878467 
L 50.141806 144.320387 
L 49.4 148.278708 
z
" style="fill:#55a868;fill-opacity:0.2;"/>
   </g>
   <g id="line2d_21">
    <path clip-path="url(#p2f6edcd6dd)" d="M 49.4 151.220691 
L 50.141806 150.271611 
L 53.10903 145.063544 
L 53.850836 142.518175 
L 56.076254 136.702641 
L 56.81806 133.386259 
L 58.301672 129.715872 
L 59.043478 127.446113 
L 59.785284 125.688995 
L 61.268896 121.191107 
L 62.752508 117.894178 
L 63.494314 115.551442 
L 64.23612 112.71381 
L 64.977926 110.953211 
L 65.719732 107.33051 
L 66.461538 105.759804 
L 67.203344 103.215694 
L 67.945151 102.376039 
L 68.686957 101.281423 
L 69.428763 100.453497 
L 70.170569 97.832586 
L 70.912375 94.651879 
L 71.654181 93.324062 
L 72.395987 91.50681 
L 73.879599 89.607642 
L 74.621405 88.231025 
L 75.363211 88.330463 
L 76.846823 85.242515 
L 78.330435 84.577275 
L 79.072241 85.014604 
L 79.814047 84.2777 
L 80.555853 85.053867 
L 81.297659 85.372358 
L 82.039465 85.497059 
L 82.781271 84.125583 
L 83.523077 83.278087 
L 84.264883 82.688894 
L 85.748495 82.413752 
L 86.490301 82.61518 
L 87.232107 81.887289 
L 87.973913 81.771798 
L 89.457525 79.315943 
L 90.199331 79.182383 
L 90.941137 78.31059 
L 91.682943 78.710587 
L 93.166555 76.13517 
L 93.908361 73.650044 
L 94.650167 72.454408 
L 95.391973 73.055575 
L 96.133779 71.344333 
L 96.875585 71.493326 
L 97.617391 70.880165 
L 98.359197 70.025657 
L 99.101003 69.824665 
L 99.842809 68.703591 
L 100.584615 68.715844 
L 101.326421 68.950293 
L 102.068227 69.613914 
L 102.810033 69.04181 
L 103.551839 67.81603 
L 104.293645 68.140738 
L 105.035452 67.008081 
L 105.777258 68.711748 
L 106.519064 67.980215 
L 107.26087 67.678514 
L 108.002676 67.665977 
L 108.744482 67.024754 
L 109.486288 66.722481 
L 110.228094 65.957857 
L 110.9699 66.375105 
L 111.711706 66.033944 
L 112.453512 65.857994 
L 113.195318 66.395166 
L 113.937124 64.658335 
L 114.67893 65.007694 
L 115.420736 64.993681 
L 116.162542 64.485538 
L 116.904348 65.471749 
L 117.646154 64.60315 
L 118.38796 65.025013 
L 119.129766 65.296825 
L 119.871572 64.990541 
L 121.355184 63.742455 
L 122.09699 63.757902 
L 122.838796 65.051055 
L 123.580602 64.542411 
L 124.322408 65.57573 
L 125.064214 65.069658 
L 125.80602 65.85657 
L 126.547826 66.313488 
L 127.289632 67.005032 
L 128.031438 66.483928 
L 128.773244 66.234956 
L 130.256856 69.242069 
L 130.998662 67.9222 
L 131.740468 67.720362 
L 132.482274 66.758549 
L 133.965886 65.746439 
L 134.707692 65.189025 
L 135.449498 64.404381 
L 136.191304 65.372781 
L 136.93311 66.11422 
L 138.416722 63.438892 
L 139.158528 64.960847 
L 139.900334 65.732487 
L 140.64214 66.180082 
L 141.383946 66.846783 
L 142.125753 68.382505 
L 142.867559 69.560306 
L 143.609365 68.394279 
L 144.351171 68.951334 
L 145.092977 68.234065 
L 145.834783 68.406234 
L 147.318395 67.8674 
L 148.060201 67.250122 
L 148.802007 65.506878 
L 149.543813 64.692568 
L 150.285619 63.430067 
L 151.027425 61.822648 
L 151.769231 62.964051 
L 152.511037 62.58422 
L 153.252843 64.555483 
L 153.994649 63.45561 
L 155.478261 61.592862 
L 156.220067 61.930463 
L 156.961873 64.07704 
L 157.703679 64.498663 
L 158.445485 63.258143 
L 159.187291 62.696632 
L 159.929097 61.520731 
L 160.670903 61.594889 
L 161.412709 59.201822 
L 162.154515 60.461471 
L 162.896321 61.315135 
L 163.638127 61.384522 
L 164.379933 62.269929 
L 165.121739 60.415792 
L 165.863545 62.183496 
L 166.605351 63.050665 
L 167.347157 63.541833 
L 168.088963 64.470161 
L 168.830769 63.114437 
L 169.572575 63.483208 
L 171.797993 60.600063 
L 172.539799 60.2688 
L 173.281605 61.819901 
L 174.023411 62.171661 
L 174.765217 62.386614 
L 175.507023 62.022765 
L 176.248829 61.248436 
L 176.990635 62.020273 
L 177.732441 63.558844 
L 178.474247 63.003868 
L 179.216054 63.706957 
L 179.95786 63.433186 
L 180.699666 62.288582 
L 181.441472 60.559452 
L 182.183278 58.094694 
L 182.925084 57.096615 
L 183.66689 57.723011 
L 184.408696 57.843692 
L 185.892308 56.081258 
L 186.634114 58.029175 
L 187.37592 58.804526 
L 188.117726 58.8491 
L 188.859532 58.527824 
L 190.343144 58.423026 
L 191.08495 58.953931 
L 191.826756 58.153946 
L 192.568562 58.856312 
L 193.310368 61.320968 
L 194.052174 60.617825 
L 194.79398 58.817985 
L 195.535786 57.318222 
L 196.277592 57.246337 
L 197.019398 57.646856 
L 198.50301 57.698488 
L 199.244816 57.097769 
L 199.986622 57.838845 
L 200.728428 56.438399 
L 201.470234 54.593908 
L 202.21204 54.681511 
L 202.953846 55.30899 
L 203.695652 55.413092 
L 204.437458 55.695918 
L 205.92107 54.995252 
L 206.662876 54.662949 
L 207.404682 54.586966 
L 208.146488 54.689424 
L 208.888294 54.915277 
L 210.371906 56.139952 
L 211.113712 55.151146 
L 211.855518 55.427428 
L 212.597324 56.188181 
L 213.33913 56.429131 
L 214.080936 56.308969 
L 214.822742 56.804236 
L 215.564548 57.856554 
L 216.306355 56.687334 
L 217.048161 56.73374 
L 217.789967 56.478857 
L 218.531773 55.39582 
L 219.273579 57.460167 
L 220.015385 57.989312 
L 220.757191 58.262262 
L 222.240803 58.493232 
L 222.982609 57.802625 
L 223.724415 57.582176 
L 225.208027 60.697368 
L 225.949833 60.286247 
L 226.691639 61.615207 
L 228.917057 58.574208 
L 229.658863 60.129534 
L 230.400669 62.051668 
L 231.142475 63.512553 
L 231.884281 63.386761 
L 232.626087 61.450271 
L 233.367893 60.895616 
L 234.109699 61.036809 
L 234.851505 60.648905 
L 235.593311 60.023192 
L 236.335117 60.099383 
L 237.076923 59.980186 
L 237.818729 58.752701 
L 238.560535 56.965115 
L 239.302341 57.068836 
L 240.044147 57.946111 
L 240.785953 58.084073 
L 242.269565 56.719665 
L 243.753177 58.983059 
L 244.494983 58.743047 
L 245.236789 59.342092 
L 245.978595 59.494723 
L 246.720401 61.292094 
L 247.462207 60.202593 
L 248.204013 59.512247 
L 249.687625 60.354539 
L 250.429431 60.3478 
L 251.171237 60.48624 
L 251.913043 60.307307 
L 253.396656 60.508335 
L 254.138462 60.001774 
L 255.622074 58.701667 
L 256.36388 57.727399 
L 257.105686 59.952289 
L 257.847492 59.462796 
L 258.589298 62.067156 
L 260.07291 59.395078 
L 261.556522 60.130731 
L 262.298328 60.806892 
L 263.040134 59.934293 
L 263.78194 60.386488 
L 264.523746 61.563115 
L 265.265552 59.13608 
L 266.007358 58.890604 
L 266.749164 57.232841 
L 267.49097 56.603939 
L 268.232776 57.474637 
L 268.974582 57.934108 
L 269.716388 56.958788 
L 270.458194 56.401277 
L 271.2 56.864992 
L 271.2 56.864992 
" style="fill:none;stroke:#4c72b0;stroke-linecap:round;stroke-width:1.75;"/>
   </g>
   <g id="line2d_22">
    <path clip-path="url(#p2f6edcd6dd)" d="M 49.4 151.506815 
L 50.141806 149.661311 
L 50.883612 148.738494 
L 52.367224 145.968806 
L 53.10903 144.977309 
L 54.592642 140.298663 
L 55.334448 138.497734 
L 56.076254 135.972105 
L 59.043478 123.329801 
L 60.52709 117.910613 
L 62.010702 112.136721 
L 62.752508 109.869478 
L 64.23612 104.342094 
L 65.719732 102.163693 
L 66.461538 100.739487 
L 67.203344 97.820156 
L 69.428763 90.915343 
L 70.170569 89.462193 
L 70.912375 87.666937 
L 71.654181 87.355137 
L 72.395987 86.479937 
L 73.137793 84.674778 
L 73.879599 84.086081 
L 74.621405 84.227461 
L 76.105017 83.893888 
L 76.846823 83.051065 
L 77.588629 83.517557 
L 78.330435 82.931348 
L 79.072241 82.642673 
L 79.814047 80.210937 
L 80.555853 80.579202 
L 81.297659 79.916245 
L 82.039465 77.851493 
L 82.781271 77.001976 
L 83.523077 77.386306 
L 84.264883 77.557388 
L 85.006689 78.602571 
L 85.748495 77.748103 
L 86.490301 77.550641 
L 87.232107 76.722917 
L 87.973913 77.7892 
L 88.715719 76.662988 
L 89.457525 76.494607 
L 90.199331 77.151228 
L 90.941137 77.453886 
L 91.682943 76.532972 
L 92.424749 76.376247 
L 93.166555 76.337142 
L 93.908361 75.999393 
L 94.650167 75.38674 
L 95.391973 76.242956 
L 96.133779 75.896387 
L 96.875585 76.24026 
L 97.617391 77.20722 
L 98.359197 77.115379 
L 99.101003 77.168497 
L 99.842809 78.436791 
L 100.584615 79.106714 
L 101.326421 78.527899 
L 102.068227 79.320759 
L 102.810033 79.946618 
L 103.551839 78.54879 
L 104.293645 78.278934 
L 105.035452 78.7014 
L 105.777258 77.721986 
L 106.519064 77.048885 
L 108.744482 73.151692 
L 109.486288 73.005091 
L 110.9699 71.89093 
L 111.711706 71.934207 
L 112.453512 72.443944 
L 113.195318 70.7468 
L 113.937124 70.329213 
L 114.67893 71.643502 
L 115.420736 71.590128 
L 116.162542 72.549395 
L 117.646154 72.760583 
L 118.38796 72.590916 
L 119.129766 73.414497 
L 119.871572 73.799323 
L 120.613378 73.169898 
L 121.355184 73.603765 
L 122.09699 74.413406 
L 122.838796 74.041473 
L 123.580602 74.257423 
L 124.322408 73.593244 
L 125.064214 73.687265 
L 127.289632 74.817225 
L 128.031438 74.763534 
L 128.773244 75.283191 
L 129.51505 75.528563 
L 130.256856 75.439958 
L 130.998662 76.210268 
L 131.740468 76.043917 
L 132.482274 76.510683 
L 133.22408 77.227625 
L 133.965886 77.063419 
L 134.707692 77.197878 
L 135.449498 76.505274 
L 136.191304 77.474616 
L 136.93311 77.958977 
L 137.674916 78.742242 
L 138.416722 78.242646 
L 139.158528 77.326488 
L 139.900334 78.391751 
L 140.64214 77.481437 
L 141.383946 77.014208 
L 142.125753 76.392131 
L 142.867559 76.499148 
L 143.609365 76.357181 
L 144.351171 77.901216 
L 145.092977 77.786667 
L 145.834783 77.840785 
L 146.576589 78.055143 
L 147.318395 77.764274 
L 148.060201 76.985974 
L 148.802007 77.875387 
L 149.543813 78.301825 
L 150.285619 79.839936 
L 151.027425 80.153727 
L 151.769231 81.01577 
L 152.511037 78.538665 
L 153.252843 77.487539 
L 153.994649 76.700241 
L 155.478261 75.997728 
L 156.220067 75.715423 
L 156.961873 74.788007 
L 157.703679 73.328135 
L 159.187291 71.669181 
L 159.929097 71.31686 
L 160.670903 71.605887 
L 161.412709 71.281855 
L 162.154515 71.519619 
L 163.638127 72.239381 
L 164.379933 72.834031 
L 165.863545 76.028016 
L 168.088963 74.972029 
L 169.572575 75.858751 
L 170.314381 76.448878 
L 171.056187 77.347166 
L 171.797993 79.764749 
L 172.539799 79.565606 
L 173.281605 79.087088 
L 174.023411 79.298034 
L 174.765217 79.769504 
L 175.507023 80.078032 
L 176.248829 79.718238 
L 176.990635 79.725677 
L 178.474247 81.295063 
L 179.216054 81.730611 
L 179.95786 79.157172 
L 180.699666 79.042035 
L 182.183278 77.169117 
L 182.925084 76.077947 
L 183.66689 76.367884 
L 184.408696 77.98394 
L 185.150502 77.625176 
L 186.634114 75.430311 
L 187.37592 74.098753 
L 188.117726 74.33717 
L 188.859532 75.193763 
L 190.343144 74.36487 
L 191.08495 75.422247 
L 191.826756 76.089553 
L 192.568562 73.992821 
L 193.310368 73.092495 
L 194.052174 73.149488 
L 194.79398 73.808112 
L 195.535786 74.307758 
L 197.019398 72.793347 
L 198.50301 75.023214 
L 199.244816 75.504025 
L 199.986622 76.353111 
L 200.728428 78.389924 
L 201.470234 79.135478 
L 202.21204 79.350622 
L 202.953846 78.333909 
L 203.695652 77.994107 
L 204.437458 79.283822 
L 205.179264 79.019577 
L 205.92107 77.51092 
L 206.662876 78.184186 
L 207.404682 77.003955 
L 208.146488 76.369081 
L 208.888294 75.093965 
L 209.6301 75.190588 
L 210.371906 74.977737 
L 211.113712 74.60021 
L 211.855518 73.993849 
L 212.597324 73.744657 
L 213.33913 74.140846 
L 214.080936 74.146517 
L 214.822742 72.301555 
L 215.564548 73.199787 
L 216.306355 72.191911 
L 217.789967 71.282697 
L 218.531773 72.095348 
L 219.273579 71.344835 
L 220.757191 71.591946 
L 221.498997 70.757467 
L 222.240803 71.370669 
L 222.982609 73.006716 
L 223.724415 72.084071 
L 224.466221 72.051793 
L 225.208027 73.669124 
L 225.949833 74.607501 
L 226.691639 73.567126 
L 227.433445 74.101117 
L 228.175251 73.89604 
L 228.917057 73.911473 
L 229.658863 74.69719 
L 230.400669 75.174304 
L 231.142475 73.235045 
L 231.884281 72.537036 
L 232.626087 73.482589 
L 233.367893 72.54608 
L 234.109699 72.489194 
L 234.851505 74.170205 
L 235.593311 74.933542 
L 236.335117 75.160647 
L 237.076923 74.249942 
L 237.818729 73.767413 
L 239.302341 74.928277 
L 240.044147 75.832168 
L 240.785953 75.191176 
L 241.527759 75.988928 
L 242.269565 76.239822 
L 243.011371 75.575087 
L 243.753177 75.180329 
L 244.494983 74.394608 
L 245.236789 74.491322 
L 245.978595 74.877109 
L 246.720401 73.797674 
L 247.462207 73.50967 
L 248.204013 72.79614 
L 248.945819 73.421737 
L 249.687625 73.219046 
L 250.429431 71.785498 
L 251.171237 71.480793 
L 251.913043 72.329449 
L 252.654849 73.774789 
L 253.396656 74.731706 
L 254.138462 74.024355 
L 254.880268 74.85078 
L 255.622074 76.77339 
L 256.36388 77.005155 
L 257.105686 77.823992 
L 257.847492 77.034285 
L 258.589298 77.822183 
L 260.07291 76.645024 
L 261.556522 74.619865 
L 262.298328 75.030847 
L 263.040134 75.099493 
L 263.78194 73.854287 
L 264.523746 75.212716 
L 265.265552 73.018153 
L 266.007358 72.828961 
L 266.749164 72.105467 
L 267.49097 72.689071 
L 268.232776 72.42055 
L 268.974582 73.185859 
L 270.458194 74.167906 
L 271.2 72.951286 
L 271.2 72.951286 
" style="fill:none;stroke:#55a868;stroke-linecap:round;stroke-width:1.75;"/>
   </g>
   <g id="patch_3">
    <path d="M 49.4 160.84 
L 49.4 32.4092 
" style="fill:none;"/>
   </g>
   <g id="patch_4">
    <path d="M 271.2 160.84 
L 271.2 32.4092 
" style="fill:none;"/>
   </g>
   <g id="patch_5">
    <path d="M 49.4 160.84 
L 271.2 160.84 
" style="fill:none;"/>
   </g>
   <g id="patch_6">
    <path d="M 49.4 32.4092 
L 271.2 32.4092 
" style="fill:none;"/>
   </g>
   <g id="legend_1">
    <g id="line2d_23">
     <path d="M 54.6 17.35449 
L 67.6 17.35449 
" style="fill:none;stroke:#4c72b0;stroke-linecap:round;stroke-width:1.75;"/>
    </g>
    <g id="line2d_24"/>
    <g id="text_14">
     <!-- td3-tf1 -->
     <defs>
      <path d="M 40.234375 0 
L 40.234375 6.546875 
Q 35.296875 -1.171875 25.734375 -1.171875 
Q 19.53125 -1.171875 14.328125 2.25 
Q 9.125 5.671875 6.265625 11.796875 
Q 3.421875 17.921875 3.421875 25.875 
Q 3.421875 33.640625 6 39.96875 
Q 8.59375 46.296875 13.765625 49.65625 
Q 18.953125 53.03125 25.34375 53.03125 
Q 30.03125 53.03125 33.6875 51.046875 
Q 37.359375 49.078125 39.65625 45.90625 
L 39.65625 71.578125 
L 48.390625 71.578125 
L 48.390625 0 
z
M 12.453125 25.875 
Q 12.453125 15.921875 16.640625 10.984375 
Q 20.84375 6.0625 26.5625 6.0625 
Q 32.328125 6.0625 36.34375 10.765625 
Q 40.375 15.484375 40.375 25.140625 
Q 40.375 35.796875 36.265625 40.765625 
Q 32.171875 45.75 26.171875 45.75 
Q 20.3125 45.75 16.375 40.96875 
Q 12.453125 36.1875 12.453125 25.875 
z
" id="ArialMT-100"/>
      <path d="M 3.171875 21.484375 
L 3.171875 30.328125 
L 30.171875 30.328125 
L 30.171875 21.484375 
z
" id="ArialMT-45"/>
     </defs>
     <g style="fill:#262626;" transform="translate(78 21.90449)scale(0.13 -0.13)">
      <use xlink:href="#ArialMT-116"/>
      <use x="27.783203" xlink:href="#ArialMT-100"/>
      <use x="83.398438" xlink:href="#ArialMT-51"/>
      <use x="139.013672" xlink:href="#ArialMT-45"/>
      <use x="172.314453" xlink:href="#ArialMT-116"/>
      <use x="200.097656" xlink:href="#ArialMT-102"/>
      <use x="227.880859" xlink:href="#ArialMT-49"/>
     </g>
    </g>
    <g id="line2d_25">
     <path d="M 173.267344 17.35449 
L 186.267344 17.35449 
" style="fill:none;stroke:#55a868;stroke-linecap:round;stroke-width:1.75;"/>
    </g>
    <g id="line2d_26"/>
    <g id="text_15">
     <!-- td3-pyTorch -->
     <defs>
      <path d="M 6.59375 -19.875 
L 6.59375 51.859375 
L 14.59375 51.859375 
L 14.59375 45.125 
Q 17.4375 49.078125 21 51.046875 
Q 24.5625 53.03125 29.640625 53.03125 
Q 36.28125 53.03125 41.359375 49.609375 
Q 46.4375 46.1875 49.015625 39.953125 
Q 51.609375 33.734375 51.609375 26.3125 
Q 51.609375 18.359375 48.75 11.984375 
Q 45.90625 5.609375 40.453125 2.21875 
Q 35.015625 -1.171875 29 -1.171875 
Q 24.609375 -1.171875 21.109375 0.6875 
Q 17.625 2.546875 15.375 5.375 
L 15.375 -19.875 
z
M 14.546875 25.640625 
Q 14.546875 15.625 18.59375 10.84375 
Q 22.65625 6.0625 28.421875 6.0625 
Q 34.28125 6.0625 38.453125 11.015625 
Q 42.625 15.96875 42.625 26.375 
Q 42.625 36.28125 38.546875 41.203125 
Q 34.46875 46.140625 28.8125 46.140625 
Q 23.1875 46.140625 18.859375 40.890625 
Q 14.546875 35.640625 14.546875 25.640625 
z
" id="ArialMT-112"/>
      <path d="M 6.203125 -19.96875 
L 5.21875 -11.71875 
Q 8.109375 -12.5 10.25 -12.5 
Q 13.1875 -12.5 14.9375 -11.515625 
Q 16.703125 -10.546875 17.828125 -8.796875 
Q 18.65625 -7.46875 20.515625 -2.25 
Q 20.75 -1.515625 21.296875 -0.09375 
L 1.609375 51.859375 
L 11.078125 51.859375 
L 21.875 21.828125 
Q 23.96875 16.109375 25.640625 9.8125 
Q 27.15625 15.875 29.25 21.625 
L 40.328125 51.859375 
L 49.125 51.859375 
L 29.390625 -0.875 
Q 26.21875 -9.421875 24.46875 -12.640625 
Q 22.125 -17 19.09375 -19.015625 
Q 16.0625 -21.046875 11.859375 -21.046875 
Q 9.328125 -21.046875 6.203125 -19.96875 
z
" id="ArialMT-121"/>
      <path d="M 6.59375 0 
L 6.59375 71.578125 
L 15.375 71.578125 
L 15.375 45.90625 
Q 21.53125 53.03125 30.90625 53.03125 
Q 36.671875 53.03125 40.921875 50.75 
Q 45.171875 48.484375 47 44.484375 
Q 48.828125 40.484375 48.828125 32.859375 
L 48.828125 0 
L 40.046875 0 
L 40.046875 32.859375 
Q 40.046875 39.453125 37.1875 42.453125 
Q 34.328125 45.453125 29.109375 45.453125 
Q 25.203125 45.453125 21.75 43.421875 
Q 18.3125 41.40625 16.84375 37.9375 
Q 15.375 34.46875 15.375 28.375 
L 15.375 0 
z
" id="ArialMT-104"/>
     </defs>
     <g style="fill:#262626;" transform="translate(196.667344 21.90449)scale(0.13 -0.13)">
      <use xlink:href="#ArialMT-116"/>
      <use x="27.783203" xlink:href="#ArialMT-100"/>
      <use x="83.398438" xlink:href="#ArialMT-51"/>
      <use x="139.013672" xlink:href="#ArialMT-45"/>
      <use x="172.314453" xlink:href="#ArialMT-112"/>
      <use x="227.929688" xlink:href="#ArialMT-121"/>
      <use x="277.929688" xlink:href="#ArialMT-84"/>
      <use x="338.841797" xlink:href="#ArialMT-111"/>
      <use x="394.457031" xlink:href="#ArialMT-114"/>
      <use x="427.757812" xlink:href="#ArialMT-99"/>
      <use x="477.757812" xlink:href="#ArialMT-104"/>
     </g>
    </g>
   </g>
  </g>
 </g>
 <defs>
  <clipPath id="p2f6edcd6dd">
   <rect height="128.4308" width="221.8" x="49.4" y="32.4092"/>
  </clipPath>
 </defs>
</svg>
