<?xml version="1.0" encoding="utf-8" standalone="no"?>
<!DOCTYPE svg PUBLIC "-//W3C//DTD SVG 1.1//EN"
  "http://www.w3.org/Graphics/SVG/1.1/DTD/svg11.dtd">
<!-- Created with matplotlib (https://matplotlib.org/) -->
<svg height="198pt" version="1.1" viewBox="0 0 277.2 198" width="277.2pt" xmlns="http://www.w3.org/2000/svg" xmlns:xlink="http://www.w3.org/1999/xlink">
 <defs>
  <style type="text/css">
*{stroke-linecap:butt;stroke-linejoin:round;}
  </style>
 </defs>
 <g id="figure_1">
  <g id="patch_1">
   <path d="M 0 198 
L 277.2 198 
L 277.2 0 
L 0 0 
z
" style="fill:#ffffff;"/>
  </g>
  <g id="axes_1">
   <g id="patch_2">
    <path d="M 49.4 160.84 
L 271.2 160.84 
L 271.2 32.4092 
L 49.4 32.4092 
z
" style="fill:#eaeaf2;"/>
   </g>
   <g id="matplotlib.axis_1">
    <g id="xtick_1">
     <g id="line2d_1">
      <path clip-path="url(#pa1529735d2)" d="M 85.748569 160.84 
L 85.748569 32.4092 
" style="fill:none;stroke:#ffffff;stroke-linecap:round;"/>
     </g>
     <g id="line2d_2"/>
     <g id="text_1">
      <!-- 0.5 -->
      <defs>
       <path d="M 4.15625 35.296875 
Q 4.15625 48 6.765625 55.734375 
Q 9.375 63.484375 14.515625 67.671875 
Q 19.671875 71.875 27.484375 71.875 
Q 33.25 71.875 37.59375 69.546875 
Q 41.9375 67.234375 44.765625 62.859375 
Q 47.609375 58.5 49.21875 52.21875 
Q 50.828125 45.953125 50.828125 35.296875 
Q 50.828125 22.703125 48.234375 14.96875 
Q 45.65625 7.234375 40.5 3 
Q 35.359375 -1.21875 27.484375 -1.21875 
Q 17.140625 -1.21875 11.234375 6.203125 
Q 4.15625 15.140625 4.15625 35.296875 
z
M 13.1875 35.296875 
Q 13.1875 17.671875 17.3125 11.828125 
Q 21.4375 6 27.484375 6 
Q 33.546875 6 37.671875 11.859375 
Q 41.796875 17.71875 41.796875 35.296875 
Q 41.796875 52.984375 37.671875 58.78125 
Q 33.546875 64.59375 27.390625 64.59375 
Q 21.34375 64.59375 17.71875 59.46875 
Q 13.1875 52.9375 13.1875 35.296875 
z
" id="ArialMT-48"/>
       <path d="M 9.078125 0 
L 9.078125 10.015625 
L 19.09375 10.015625 
L 19.09375 0 
z
" id="ArialMT-46"/>
       <path d="M 4.15625 18.75 
L 13.375 19.53125 
Q 14.40625 12.796875 18.140625 9.390625 
Q 21.875 6 27.15625 6 
Q 33.5 6 37.890625 10.78125 
Q 42.28125 15.578125 42.28125 23.484375 
Q 42.28125 31 38.0625 35.34375 
Q 33.84375 39.703125 27 39.703125 
Q 22.75 39.703125 19.328125 37.765625 
Q 15.921875 35.84375 13.96875 32.765625 
L 5.71875 33.84375 
L 12.640625 70.609375 
L 48.25 70.609375 
L 48.25 62.203125 
L 19.671875 62.203125 
L 15.828125 42.96875 
Q 22.265625 47.46875 29.34375 47.46875 
Q 38.71875 47.46875 45.15625 40.96875 
Q 51.609375 34.46875 51.609375 24.265625 
Q 51.609375 14.546875 45.953125 7.46875 
Q 39.0625 -1.21875 27.15625 -1.21875 
Q 17.390625 -1.21875 11.203125 4.25 
Q 5.03125 9.71875 4.15625 18.75 
z
" id="ArialMT-53"/>
      </defs>
      <g style="fill:#262626;" transform="translate(78.798569 174.997813)scale(0.1 -0.1)">
       <use xlink:href="#ArialMT-48"/>
       <use x="55.615234" xlink:href="#ArialMT-46"/>
       <use x="83.398438" xlink:href="#ArialMT-53"/>
      </g>
     </g>
    </g>
    <g id="xtick_2">
     <g id="line2d_3">
      <path clip-path="url(#pa1529735d2)" d="M 122.83887 160.84 
L 122.83887 32.4092 
" style="fill:none;stroke:#ffffff;stroke-linecap:round;"/>
     </g>
     <g id="line2d_4"/>
     <g id="text_2">
      <!-- 1.0 -->
      <defs>
       <path d="M 37.25 0 
L 28.46875 0 
L 28.46875 56 
Q 25.296875 52.984375 20.140625 49.953125 
Q 14.984375 46.921875 10.890625 45.40625 
L 10.890625 53.90625 
Q 18.265625 57.375 23.78125 62.296875 
Q 29.296875 67.234375 31.59375 71.875 
L 37.25 71.875 
z
" id="ArialMT-49"/>
      </defs>
      <g style="fill:#262626;" transform="translate(115.88887 174.997813)scale(0.1 -0.1)">
       <use xlink:href="#ArialMT-49"/>
       <use x="55.615234" xlink:href="#ArialMT-46"/>
       <use x="83.398438" xlink:href="#ArialMT-48"/>
      </g>
     </g>
    </g>
    <g id="xtick_3">
     <g id="line2d_5">
      <path clip-path="url(#pa1529735d2)" d="M 159.929171 160.84 
L 159.929171 32.4092 
" style="fill:none;stroke:#ffffff;stroke-linecap:round;"/>
     </g>
     <g id="line2d_6"/>
     <g id="text_3">
      <!-- 1.5 -->
      <g style="fill:#262626;" transform="translate(152.979171 174.997813)scale(0.1 -0.1)">
       <use xlink:href="#ArialMT-49"/>
       <use x="55.615234" xlink:href="#ArialMT-46"/>
       <use x="83.398438" xlink:href="#ArialMT-53"/>
      </g>
     </g>
    </g>
    <g id="xtick_4">
     <g id="line2d_7">
      <path clip-path="url(#pa1529735d2)" d="M 197.019472 160.84 
L 197.019472 32.4092 
" style="fill:none;stroke:#ffffff;stroke-linecap:round;"/>
     </g>
     <g id="line2d_8"/>
     <g id="text_4">
      <!-- 2.0 -->
      <defs>
       <path d="M 50.34375 8.453125 
L 50.34375 0 
L 3.03125 0 
Q 2.9375 3.171875 4.046875 6.109375 
Q 5.859375 10.9375 9.828125 15.625 
Q 13.8125 20.3125 21.34375 26.46875 
Q 33.015625 36.03125 37.109375 41.625 
Q 41.21875 47.21875 41.21875 52.203125 
Q 41.21875 57.421875 37.46875 61 
Q 33.734375 64.59375 27.734375 64.59375 
Q 21.390625 64.59375 17.578125 60.78125 
Q 13.765625 56.984375 13.71875 50.25 
L 4.6875 51.171875 
Q 5.609375 61.28125 11.65625 66.578125 
Q 17.71875 71.875 27.9375 71.875 
Q 38.234375 71.875 44.234375 66.15625 
Q 50.25 60.453125 50.25 52 
Q 50.25 47.703125 48.484375 43.546875 
Q 46.734375 39.40625 42.65625 34.8125 
Q 38.578125 30.21875 29.109375 22.21875 
Q 21.1875 15.578125 18.9375 13.203125 
Q 16.703125 10.84375 15.234375 8.453125 
z
" id="ArialMT-50"/>
      </defs>
      <g style="fill:#262626;" transform="translate(190.069472 174.997813)scale(0.1 -0.1)">
       <use xlink:href="#ArialMT-50"/>
       <use x="55.615234" xlink:href="#ArialMT-46"/>
       <use x="83.398438" xlink:href="#ArialMT-48"/>
      </g>
     </g>
    </g>
    <g id="xtick_5">
     <g id="line2d_9">
      <path clip-path="url(#pa1529735d2)" d="M 234.109773 160.84 
L 234.109773 32.4092 
" style="fill:none;stroke:#ffffff;stroke-linecap:round;"/>
     </g>
     <g id="line2d_10"/>
     <g id="text_5">
      <!-- 2.5 -->
      <g style="fill:#262626;" transform="translate(227.159773 174.997813)scale(0.1 -0.1)">
       <use xlink:href="#ArialMT-50"/>
       <use x="55.615234" xlink:href="#ArialMT-46"/>
       <use x="83.398438" xlink:href="#ArialMT-53"/>
      </g>
     </g>
    </g>
    <g id="text_6">
     <!-- TotalEnvInteracts -->
     <defs>
      <path d="M 25.921875 0 
L 25.921875 63.140625 
L 2.34375 63.140625 
L 2.34375 71.578125 
L 59.078125 71.578125 
L 59.078125 63.140625 
L 35.40625 63.140625 
L 35.40625 0 
z
" id="ArialMT-84"/>
      <path d="M 3.328125 25.921875 
Q 3.328125 40.328125 11.328125 47.265625 
Q 18.015625 53.03125 27.640625 53.03125 
Q 38.328125 53.03125 45.109375 46.015625 
Q 51.90625 39.015625 51.90625 26.65625 
Q 51.90625 16.65625 48.90625 10.90625 
Q 45.90625 5.171875 40.15625 2 
Q 34.421875 -1.171875 27.640625 -1.171875 
Q 16.75 -1.171875 10.03125 5.8125 
Q 3.328125 12.796875 3.328125 25.921875 
z
M 12.359375 25.921875 
Q 12.359375 15.96875 16.703125 11.015625 
Q 21.046875 6.0625 27.640625 6.0625 
Q 34.1875 6.0625 38.53125 11.03125 
Q 42.875 16.015625 42.875 26.21875 
Q 42.875 35.84375 38.5 40.796875 
Q 34.125 45.75 27.640625 45.75 
Q 21.046875 45.75 16.703125 40.8125 
Q 12.359375 35.890625 12.359375 25.921875 
z
" id="ArialMT-111"/>
      <path d="M 25.78125 7.859375 
L 27.046875 0.09375 
Q 23.34375 -0.6875 20.40625 -0.6875 
Q 15.625 -0.6875 12.984375 0.828125 
Q 10.359375 2.34375 9.28125 4.8125 
Q 8.203125 7.28125 8.203125 15.1875 
L 8.203125 45.015625 
L 1.765625 45.015625 
L 1.765625 51.859375 
L 8.203125 51.859375 
L 8.203125 64.703125 
L 16.9375 69.96875 
L 16.9375 51.859375 
L 25.78125 51.859375 
L 25.78125 45.015625 
L 16.9375 45.015625 
L 16.9375 14.703125 
Q 16.9375 10.9375 17.40625 9.859375 
Q 17.875 8.796875 18.921875 8.15625 
Q 19.96875 7.515625 21.921875 7.515625 
Q 23.390625 7.515625 25.78125 7.859375 
z
" id="ArialMT-116"/>
      <path d="M 40.4375 6.390625 
Q 35.546875 2.25 31.03125 0.53125 
Q 26.515625 -1.171875 21.34375 -1.171875 
Q 12.796875 -1.171875 8.203125 3 
Q 3.609375 7.171875 3.609375 13.671875 
Q 3.609375 17.484375 5.34375 20.625 
Q 7.078125 23.78125 9.890625 25.6875 
Q 12.703125 27.59375 16.21875 28.5625 
Q 18.796875 29.25 24.03125 29.890625 
Q 34.671875 31.15625 39.703125 32.90625 
Q 39.75 34.71875 39.75 35.203125 
Q 39.75 40.578125 37.25 42.78125 
Q 33.890625 45.75 27.25 45.75 
Q 21.046875 45.75 18.09375 43.578125 
Q 15.140625 41.40625 13.71875 35.890625 
L 5.125 37.0625 
Q 6.296875 42.578125 8.984375 45.96875 
Q 11.671875 49.359375 16.75 51.1875 
Q 21.828125 53.03125 28.515625 53.03125 
Q 35.15625 53.03125 39.296875 51.46875 
Q 43.453125 49.90625 45.40625 47.53125 
Q 47.359375 45.171875 48.140625 41.546875 
Q 48.578125 39.3125 48.578125 33.453125 
L 48.578125 21.734375 
Q 48.578125 9.46875 49.140625 6.21875 
Q 49.703125 2.984375 51.375 0 
L 42.1875 0 
Q 40.828125 2.734375 40.4375 6.390625 
z
M 39.703125 26.03125 
Q 34.90625 24.078125 25.34375 22.703125 
Q 19.921875 21.921875 17.671875 20.9375 
Q 15.4375 19.96875 14.203125 18.09375 
Q 12.984375 16.21875 12.984375 13.921875 
Q 12.984375 10.40625 15.640625 8.0625 
Q 18.3125 5.71875 23.4375 5.71875 
Q 28.515625 5.71875 32.46875 7.9375 
Q 36.421875 10.15625 38.28125 14.015625 
Q 39.703125 17 39.703125 22.796875 
z
" id="ArialMT-97"/>
      <path d="M 6.390625 0 
L 6.390625 71.578125 
L 15.1875 71.578125 
L 15.1875 0 
z
" id="ArialMT-108"/>
      <path d="M 7.90625 0 
L 7.90625 71.578125 
L 59.671875 71.578125 
L 59.671875 63.140625 
L 17.390625 63.140625 
L 17.390625 41.21875 
L 56.984375 41.21875 
L 56.984375 32.8125 
L 17.390625 32.8125 
L 17.390625 8.453125 
L 61.328125 8.453125 
L 61.328125 0 
z
" id="ArialMT-69"/>
      <path d="M 6.59375 0 
L 6.59375 51.859375 
L 14.5 51.859375 
L 14.5 44.484375 
Q 20.21875 53.03125 31 53.03125 
Q 35.6875 53.03125 39.625 51.34375 
Q 43.5625 49.65625 45.515625 46.921875 
Q 47.46875 44.1875 48.25 40.4375 
Q 48.734375 37.984375 48.734375 31.890625 
L 48.734375 0 
L 39.9375 0 
L 39.9375 31.546875 
Q 39.9375 36.921875 38.90625 39.578125 
Q 37.890625 42.234375 35.28125 43.8125 
Q 32.671875 45.40625 29.15625 45.40625 
Q 23.53125 45.40625 19.453125 41.84375 
Q 15.375 38.28125 15.375 28.328125 
L 15.375 0 
z
" id="ArialMT-110"/>
      <path d="M 21 0 
L 1.265625 51.859375 
L 10.546875 51.859375 
L 21.6875 20.796875 
Q 23.484375 15.765625 25 10.359375 
Q 26.171875 14.453125 28.265625 20.21875 
L 39.796875 51.859375 
L 48.828125 51.859375 
L 29.203125 0 
z
" id="ArialMT-118"/>
      <path d="M 9.328125 0 
L 9.328125 71.578125 
L 18.796875 71.578125 
L 18.796875 0 
z
" id="ArialMT-73"/>
      <path d="M 42.09375 16.703125 
L 51.171875 15.578125 
Q 49.03125 7.625 43.21875 3.21875 
Q 37.40625 -1.171875 28.375 -1.171875 
Q 17 -1.171875 10.328125 5.828125 
Q 3.65625 12.84375 3.65625 25.484375 
Q 3.65625 38.578125 10.390625 45.796875 
Q 17.140625 53.03125 27.875 53.03125 
Q 38.28125 53.03125 44.875 45.953125 
Q 51.46875 38.875 51.46875 26.03125 
Q 51.46875 25.25 51.421875 23.6875 
L 12.75 23.6875 
Q 13.234375 15.140625 17.578125 10.59375 
Q 21.921875 6.0625 28.421875 6.0625 
Q 33.25 6.0625 36.671875 8.59375 
Q 40.09375 11.140625 42.09375 16.703125 
z
M 13.234375 30.90625 
L 42.1875 30.90625 
Q 41.609375 37.453125 38.875 40.71875 
Q 34.671875 45.796875 27.984375 45.796875 
Q 21.921875 45.796875 17.796875 41.75 
Q 13.671875 37.703125 13.234375 30.90625 
z
" id="ArialMT-101"/>
      <path d="M 6.5 0 
L 6.5 51.859375 
L 14.40625 51.859375 
L 14.40625 44 
Q 17.4375 49.515625 20 51.265625 
Q 22.5625 53.03125 25.640625 53.03125 
Q 30.078125 53.03125 34.671875 50.203125 
L 31.640625 42.046875 
Q 28.421875 43.953125 25.203125 43.953125 
Q 22.3125 43.953125 20.015625 42.21875 
Q 17.71875 40.484375 16.75 37.40625 
Q 15.28125 32.71875 15.28125 27.15625 
L 15.28125 0 
z
" id="ArialMT-114"/>
      <path d="M 40.4375 19 
L 49.078125 17.875 
Q 47.65625 8.9375 41.8125 3.875 
Q 35.984375 -1.171875 27.484375 -1.171875 
Q 16.84375 -1.171875 10.375 5.78125 
Q 3.90625 12.75 3.90625 25.734375 
Q 3.90625 34.125 6.6875 40.421875 
Q 9.46875 46.734375 15.15625 49.875 
Q 20.84375 53.03125 27.546875 53.03125 
Q 35.984375 53.03125 41.359375 48.75 
Q 46.734375 44.484375 48.25 36.625 
L 39.703125 35.296875 
Q 38.484375 40.53125 35.375 43.15625 
Q 32.28125 45.796875 27.875 45.796875 
Q 21.234375 45.796875 17.078125 41.03125 
Q 12.9375 36.28125 12.9375 25.984375 
Q 12.9375 15.53125 16.9375 10.796875 
Q 20.953125 6.0625 27.390625 6.0625 
Q 32.5625 6.0625 36.03125 9.234375 
Q 39.5 12.40625 40.4375 19 
z
" id="ArialMT-99"/>
      <path d="M 3.078125 15.484375 
L 11.765625 16.84375 
Q 12.5 11.625 15.84375 8.84375 
Q 19.1875 6.0625 25.203125 6.0625 
Q 31.25 6.0625 34.171875 8.515625 
Q 37.109375 10.984375 37.109375 14.3125 
Q 37.109375 17.28125 34.515625 19 
Q 32.71875 20.171875 25.53125 21.96875 
Q 15.875 24.421875 12.140625 26.203125 
Q 8.40625 27.984375 6.46875 31.125 
Q 4.546875 34.28125 4.546875 38.09375 
Q 4.546875 41.546875 6.125 44.5 
Q 7.71875 47.46875 10.453125 49.421875 
Q 12.5 50.921875 16.03125 51.96875 
Q 19.578125 53.03125 23.640625 53.03125 
Q 29.734375 53.03125 34.34375 51.265625 
Q 38.96875 49.515625 41.15625 46.5 
Q 43.359375 43.5 44.1875 38.484375 
L 35.59375 37.3125 
Q 35.015625 41.3125 32.203125 43.546875 
Q 29.390625 45.796875 24.265625 45.796875 
Q 18.21875 45.796875 15.625 43.796875 
Q 13.03125 41.796875 13.03125 39.109375 
Q 13.03125 37.40625 14.109375 36.03125 
Q 15.1875 34.625 17.484375 33.6875 
Q 18.796875 33.203125 25.25 31.453125 
Q 34.578125 28.953125 38.25 27.359375 
Q 41.9375 25.78125 44.03125 22.75 
Q 46.140625 19.734375 46.140625 15.234375 
Q 46.140625 10.84375 43.578125 6.953125 
Q 41.015625 3.078125 36.171875 0.953125 
Q 31.34375 -1.171875 25.25 -1.171875 
Q 15.140625 -1.171875 9.84375 3.03125 
Q 4.546875 7.234375 3.078125 15.484375 
z
" id="ArialMT-115"/>
     </defs>
     <g style="fill:#262626;" transform="translate(117.515156 188.858906)scale(0.11 -0.11)">
      <use xlink:href="#ArialMT-84"/>
      <use x="60.912109" xlink:href="#ArialMT-111"/>
      <use x="116.527344" xlink:href="#ArialMT-116"/>
      <use x="144.310547" xlink:href="#ArialMT-97"/>
      <use x="199.925781" xlink:href="#ArialMT-108"/>
      <use x="222.142578" xlink:href="#ArialMT-69"/>
      <use x="288.841797" xlink:href="#ArialMT-110"/>
      <use x="344.457031" xlink:href="#ArialMT-118"/>
      <use x="394.457031" xlink:href="#ArialMT-73"/>
      <use x="422.240234" xlink:href="#ArialMT-110"/>
      <use x="477.855469" xlink:href="#ArialMT-116"/>
      <use x="505.638672" xlink:href="#ArialMT-101"/>
      <use x="561.253906" xlink:href="#ArialMT-114"/>
      <use x="594.554688" xlink:href="#ArialMT-97"/>
      <use x="650.169922" xlink:href="#ArialMT-99"/>
      <use x="700.169922" xlink:href="#ArialMT-116"/>
      <use x="727.953125" xlink:href="#ArialMT-115"/>
     </g>
    </g>
    <g id="text_7">
     <!-- 1e6 -->
     <defs>
      <path d="M 49.75 54.046875 
L 41.015625 53.375 
Q 39.84375 58.546875 37.703125 60.890625 
Q 34.125 64.65625 28.90625 64.65625 
Q 24.703125 64.65625 21.53125 62.3125 
Q 17.390625 59.28125 14.984375 53.46875 
Q 12.59375 47.65625 12.5 36.921875 
Q 15.671875 41.75 20.265625 44.09375 
Q 24.859375 46.4375 29.890625 46.4375 
Q 38.671875 46.4375 44.84375 39.96875 
Q 51.03125 33.5 51.03125 23.25 
Q 51.03125 16.5 48.125 10.71875 
Q 45.21875 4.9375 40.140625 1.859375 
Q 35.0625 -1.21875 28.609375 -1.21875 
Q 17.625 -1.21875 10.6875 6.859375 
Q 3.765625 14.9375 3.765625 33.5 
Q 3.765625 54.25 11.421875 63.671875 
Q 18.109375 71.875 29.4375 71.875 
Q 37.890625 71.875 43.28125 67.140625 
Q 48.6875 62.40625 49.75 54.046875 
z
M 13.875 23.1875 
Q 13.875 18.65625 15.796875 14.5 
Q 17.71875 10.359375 21.1875 8.171875 
Q 24.65625 6 28.46875 6 
Q 34.03125 6 38.03125 10.484375 
Q 42.046875 14.984375 42.046875 22.703125 
Q 42.046875 30.125 38.078125 34.390625 
Q 34.125 38.671875 28.125 38.671875 
Q 22.171875 38.671875 18.015625 34.390625 
Q 13.875 30.125 13.875 23.1875 
z
" id="ArialMT-54"/>
     </defs>
     <g style="fill:#262626;" transform="translate(254.517187 187.143125)scale(0.1 -0.1)">
      <use xlink:href="#ArialMT-49"/>
      <use x="55.615234" xlink:href="#ArialMT-101"/>
      <use x="111.230469" xlink:href="#ArialMT-54"/>
     </g>
    </g>
   </g>
   <g id="matplotlib.axis_2">
    <g id="ytick_1">
     <g id="line2d_11">
      <path clip-path="url(#pa1529735d2)" d="M 49.4 157.307506 
L 271.2 157.307506 
" style="fill:none;stroke:#ffffff;stroke-linecap:round;"/>
     </g>
     <g id="line2d_12"/>
     <g id="text_8">
      <!-- 0 -->
      <g style="fill:#262626;" transform="translate(36.839062 160.886412)scale(0.1 -0.1)">
       <use xlink:href="#ArialMT-48"/>
      </g>
     </g>
    </g>
    <g id="ytick_2">
     <g id="line2d_13">
      <path clip-path="url(#pa1529735d2)" d="M 49.4 116.888917 
L 271.2 116.888917 
" style="fill:none;stroke:#ffffff;stroke-linecap:round;"/>
     </g>
     <g id="line2d_14"/>
     <g id="text_9">
      <!-- 2000 -->
      <g style="fill:#262626;" transform="translate(20.15625 120.467823)scale(0.1 -0.1)">
       <use xlink:href="#ArialMT-50"/>
       <use x="55.615234" xlink:href="#ArialMT-48"/>
       <use x="111.230469" xlink:href="#ArialMT-48"/>
       <use x="166.845703" xlink:href="#ArialMT-48"/>
      </g>
     </g>
    </g>
    <g id="ytick_3">
     <g id="line2d_15">
      <path clip-path="url(#pa1529735d2)" d="M 49.4 76.470328 
L 271.2 76.470328 
" style="fill:none;stroke:#ffffff;stroke-linecap:round;"/>
     </g>
     <g id="line2d_16"/>
     <g id="text_10">
      <!-- 4000 -->
      <defs>
       <path d="M 32.328125 0 
L 32.328125 17.140625 
L 1.265625 17.140625 
L 1.265625 25.203125 
L 33.9375 71.578125 
L 41.109375 71.578125 
L 41.109375 25.203125 
L 50.78125 25.203125 
L 50.78125 17.140625 
L 41.109375 17.140625 
L 41.109375 0 
z
M 32.328125 25.203125 
L 32.328125 57.46875 
L 9.90625 25.203125 
z
" id="ArialMT-52"/>
      </defs>
      <g style="fill:#262626;" transform="translate(20.15625 80.049234)scale(0.1 -0.1)">
       <use xlink:href="#ArialMT-52"/>
       <use x="55.615234" xlink:href="#ArialMT-48"/>
       <use x="111.230469" xlink:href="#ArialMT-48"/>
       <use x="166.845703" xlink:href="#ArialMT-48"/>
      </g>
     </g>
    </g>
    <g id="ytick_4">
     <g id="line2d_17">
      <path clip-path="url(#pa1529735d2)" d="M 49.4 36.051739 
L 271.2 36.051739 
" style="fill:none;stroke:#ffffff;stroke-linecap:round;"/>
     </g>
     <g id="line2d_18"/>
     <g id="text_11">
      <!-- 6000 -->
      <g style="fill:#262626;" transform="translate(20.15625 39.630645)scale(0.1 -0.1)">
       <use xlink:href="#ArialMT-54"/>
       <use x="55.615234" xlink:href="#ArialMT-48"/>
       <use x="111.230469" xlink:href="#ArialMT-48"/>
       <use x="166.845703" xlink:href="#ArialMT-48"/>
      </g>
     </g>
    </g>
    <g id="text_12">
     <!-- Performance -->
     <defs>
      <path d="M 7.71875 0 
L 7.71875 71.578125 
L 34.71875 71.578125 
Q 41.84375 71.578125 45.609375 70.90625 
Q 50.875 70.015625 54.4375 67.546875 
Q 58.015625 65.09375 60.1875 60.640625 
Q 62.359375 56.203125 62.359375 50.875 
Q 62.359375 41.75 56.546875 35.421875 
Q 50.734375 29.109375 35.546875 29.109375 
L 17.1875 29.109375 
L 17.1875 0 
z
M 17.1875 37.546875 
L 35.6875 37.546875 
Q 44.875 37.546875 48.734375 40.96875 
Q 52.59375 44.390625 52.59375 50.59375 
Q 52.59375 55.078125 50.3125 58.265625 
Q 48.046875 61.46875 44.34375 62.5 
Q 41.9375 63.140625 35.5 63.140625 
L 17.1875 63.140625 
z
" id="ArialMT-80"/>
      <path d="M 8.6875 0 
L 8.6875 45.015625 
L 0.921875 45.015625 
L 0.921875 51.859375 
L 8.6875 51.859375 
L 8.6875 57.375 
Q 8.6875 62.59375 9.625 65.140625 
Q 10.890625 68.5625 14.078125 70.671875 
Q 17.28125 72.796875 23.046875 72.796875 
Q 26.765625 72.796875 31.25 71.921875 
L 29.9375 64.265625 
Q 27.203125 64.75 24.75 64.75 
Q 20.75 64.75 19.09375 63.03125 
Q 17.4375 61.328125 17.4375 56.640625 
L 17.4375 51.859375 
L 27.546875 51.859375 
L 27.546875 45.015625 
L 17.4375 45.015625 
L 17.4375 0 
z
" id="ArialMT-102"/>
      <path d="M 6.59375 0 
L 6.59375 51.859375 
L 14.453125 51.859375 
L 14.453125 44.578125 
Q 16.890625 48.390625 20.9375 50.703125 
Q 25 53.03125 30.171875 53.03125 
Q 35.9375 53.03125 39.625 50.640625 
Q 43.3125 48.25 44.828125 43.953125 
Q 50.984375 53.03125 60.84375 53.03125 
Q 68.5625 53.03125 72.703125 48.75 
Q 76.859375 44.484375 76.859375 35.59375 
L 76.859375 0 
L 68.109375 0 
L 68.109375 32.671875 
Q 68.109375 37.9375 67.25 40.25 
Q 66.40625 42.578125 64.15625 43.984375 
Q 61.921875 45.40625 58.890625 45.40625 
Q 53.421875 45.40625 49.796875 41.765625 
Q 46.1875 38.140625 46.1875 30.125 
L 46.1875 0 
L 37.40625 0 
L 37.40625 33.6875 
Q 37.40625 39.546875 35.25 42.46875 
Q 33.109375 45.40625 28.21875 45.40625 
Q 24.515625 45.40625 21.359375 43.453125 
Q 18.21875 41.5 16.796875 37.734375 
Q 15.375 33.984375 15.375 26.90625 
L 15.375 0 
z
" id="ArialMT-109"/>
     </defs>
     <g style="fill:#262626;" transform="translate(13.97 128.107803)rotate(-90)scale(0.11 -0.11)">
      <use xlink:href="#ArialMT-80"/>
      <use x="66.699219" xlink:href="#ArialMT-101"/>
      <use x="122.314453" xlink:href="#ArialMT-114"/>
      <use x="155.615234" xlink:href="#ArialMT-102"/>
      <use x="183.398438" xlink:href="#ArialMT-111"/>
      <use x="239.013672" xlink:href="#ArialMT-114"/>
      <use x="272.314453" xlink:href="#ArialMT-109"/>
      <use x="355.615234" xlink:href="#ArialMT-97"/>
      <use x="411.230469" xlink:href="#ArialMT-110"/>
      <use x="466.845703" xlink:href="#ArialMT-99"/>
      <use x="516.845703" xlink:href="#ArialMT-101"/>
     </g>
    </g>
   </g>
   <g id="PolyCollection_1">
    <path clip-path="url(#pa1529735d2)" d="M 49.4 151.844126 
L 49.4 154.834889 
L 50.141806 154.522377 
L 50.883612 154.117452 
L 51.625418 153.843005 
L 52.367224 153.695809 
L 53.10903 153.486311 
L 53.850836 152.265511 
L 54.592642 151.568537 
L 55.334448 150.97552 
L 56.076254 150.47435 
L 56.81806 149.997173 
L 57.559866 149.85853 
L 58.301672 149.353574 
L 59.043478 148.839298 
L 59.785284 148.570211 
L 60.52709 148.113377 
L 61.268896 147.662449 
L 62.010702 147.619863 
L 62.752508 147.544183 
L 63.494314 147.304284 
L 64.23612 147.171287 
L 64.977926 146.856216 
L 65.719732 146.646681 
L 66.461538 145.9492 
L 67.203344 145.645462 
L 67.945151 144.801787 
L 68.686957 144.2853 
L 69.428763 144.179655 
L 70.170569 144.020355 
L 70.912375 143.611234 
L 71.654181 143.200061 
L 72.395987 142.919478 
L 73.137793 142.582484 
L 73.879599 142.119173 
L 74.621405 142.188371 
L 75.363211 141.543631 
L 76.105017 141.45124 
L 76.846823 141.271982 
L 77.588629 140.501914 
L 78.330435 139.803942 
L 79.072241 139.439426 
L 79.814047 138.564915 
L 80.555853 137.570712 
L 81.297659 137.489268 
L 82.039465 136.408932 
L 82.781271 135.643017 
L 83.523077 135.057563 
L 84.264883 134.386103 
L 85.006689 133.742165 
L 85.748495 133.492337 
L 86.490301 133.000739 
L 87.232107 131.842096 
L 87.973913 131.58461 
L 88.715719 131.090068 
L 89.457525 130.187607 
L 90.199331 129.844168 
L 90.941137 129.428434 
L 91.682943 129.035019 
L 92.424749 128.758245 
L 93.166555 128.693788 
L 93.908361 128.174334 
L 94.650167 127.940944 
L 95.391973 127.497739 
L 96.133779 127.047679 
L 96.875585 126.996322 
L 97.617391 126.561845 
L 98.359197 126.02505 
L 99.101003 125.31992 
L 99.842809 125.079468 
L 100.584615 125.208234 
L 101.326421 124.97124 
L 102.068227 124.6328 
L 102.810033 124.677812 
L 103.551839 124.852285 
L 104.293645 124.496876 
L 105.035452 124.437656 
L 105.777258 123.873444 
L 106.519064 123.578547 
L 107.26087 123.392268 
L 108.002676 123.150755 
L 108.744482 122.64038 
L 109.486288 122.353863 
L 110.228094 122.307779 
L 110.9699 121.880026 
L 111.711706 121.565692 
L 112.453512 121.561988 
L 113.195318 121.382969 
L 113.937124 121.537597 
L 114.67893 121.518519 
L 115.420736 121.139957 
L 116.162542 121.107201 
L 116.904348 121.171233 
L 117.646154 120.983603 
L 118.38796 120.660764 
L 119.129766 120.462109 
L 119.871572 120.757129 
L 120.613378 120.60692 
L 121.355184 120.366747 
L 122.09699 120.145264 
L 122.838796 120.029858 
L 123.580602 120.122524 
L 124.322408 119.573149 
L 125.064214 119.366544 
L 125.80602 119.178577 
L 126.547826 119.342452 
L 127.289632 119.275134 
L 128.031438 118.57837 
L 128.773244 118.560948 
L 129.51505 118.560259 
L 130.256856 118.277986 
L 130.998662 119.121144 
L 131.740468 119.402723 
L 132.482274 120.509988 
L 133.22408 121.563686 
L 133.965886 121.876069 
L 134.707692 121.697451 
L 135.449498 121.368853 
L 136.191304 121.310189 
L 136.93311 120.76448 
L 137.674916 121.147591 
L 138.416722 120.931552 
L 139.158528 118.306414 
L 139.900334 116.77147 
L 140.64214 114.949047 
L 141.383946 113.246801 
L 142.125753 112.988702 
L 142.867559 112.443098 
L 143.609365 112.555349 
L 144.351171 112.308662 
L 145.092977 112.455236 
L 145.834783 111.693146 
L 146.576589 111.461071 
L 147.318395 111.087769 
L 148.060201 111.185385 
L 148.802007 111.573411 
L 149.543813 111.839628 
L 150.285619 111.082552 
L 151.027425 111.03998 
L 151.769231 110.799429 
L 152.511037 110.902976 
L 153.252843 110.084328 
L 153.994649 110.142968 
L 154.736455 109.406372 
L 155.478261 109.044485 
L 156.220067 108.153934 
L 156.961873 106.646474 
L 157.703679 106.07435 
L 158.445485 105.664448 
L 159.187291 105.12864 
L 159.929097 104.18167 
L 160.670903 102.929067 
L 161.412709 102.72389 
L 162.154515 102.229273 
L 162.896321 102.020906 
L 163.638127 101.738923 
L 164.379933 101.381687 
L 165.121739 101.73139 
L 165.863545 100.846835 
L 166.605351 100.311283 
L 167.347157 99.863712 
L 168.088963 99.326356 
L 168.830769 99.210275 
L 169.572575 98.342774 
L 170.314381 97.773716 
L 171.056187 97.999729 
L 171.797993 97.180723 
L 172.539799 97.174625 
L 173.281605 96.221359 
L 174.023411 95.89744 
L 174.765217 95.867009 
L 175.507023 96.78875 
L 176.248829 96.431714 
L 176.990635 96.200129 
L 177.732441 96.189643 
L 178.474247 95.472312 
L 179.216054 94.379702 
L 179.95786 93.98164 
L 180.699666 96.239507 
L 181.441472 96.596161 
L 182.183278 97.244506 
L 182.925084 97.083697 
L 183.66689 95.607086 
L 184.408696 96.377156 
L 185.150502 96.441685 
L 185.892308 96.721439 
L 186.634114 96.486313 
L 187.37592 96.613425 
L 188.117726 96.415172 
L 188.859532 94.450902 
L 189.601338 94.055188 
L 190.343144 93.452292 
L 191.08495 92.565527 
L 191.826756 91.99411 
L 192.568562 90.82959 
L 193.310368 90.628675 
L 194.052174 90.138005 
L 194.79398 89.831733 
L 195.535786 89.724779 
L 196.277592 89.260611 
L 197.019398 88.911547 
L 197.761204 88.454589 
L 198.50301 87.865061 
L 199.244816 87.39602 
L 199.986622 86.862562 
L 200.728428 87.112095 
L 201.470234 86.365275 
L 202.21204 86.424268 
L 202.953846 85.87165 
L 203.695652 85.215546 
L 204.437458 85.320362 
L 205.179264 85.192304 
L 205.92107 85.410576 
L 206.662876 84.68807 
L 207.404682 84.708376 
L 208.146488 84.409884 
L 208.888294 83.768341 
L 209.6301 83.802498 
L 210.371906 82.984223 
L 211.113712 83.197424 
L 211.855518 83.140424 
L 212.597324 83.167601 
L 213.33913 82.600126 
L 214.080936 81.815228 
L 214.822742 82.829549 
L 215.564548 83.042916 
L 216.306355 83.796502 
L 217.048161 84.246398 
L 217.789967 83.821392 
L 218.531773 84.032242 
L 219.273579 83.879882 
L 220.015385 84.438601 
L 220.757191 83.851536 
L 221.498997 83.97178 
L 222.240803 84.113031 
L 222.982609 83.131381 
L 223.724415 82.174061 
L 224.466221 80.895213 
L 225.208027 80.170071 
L 225.949833 79.827541 
L 226.691639 79.930396 
L 227.433445 79.960188 
L 228.175251 79.890774 
L 228.917057 80.522943 
L 229.658863 80.521986 
L 230.400669 80.787072 
L 231.142475 80.599198 
L 231.884281 81.600085 
L 232.626087 81.768363 
L 233.367893 82.236369 
L 234.109699 82.627385 
L 234.851505 82.357321 
L 235.593311 82.28994 
L 236.335117 81.25195 
L 237.076923 80.746484 
L 237.818729 80.952526 
L 238.560535 80.313312 
L 239.302341 79.995824 
L 240.044147 79.48838 
L 240.785953 80.245269 
L 241.527759 80.261623 
L 242.269565 79.733144 
L 243.011371 80.300181 
L 243.753177 80.175736 
L 244.494983 80.190622 
L 245.236789 80.037099 
L 245.978595 79.075461 
L 246.720401 79.053167 
L 247.462207 79.241599 
L 248.204013 79.256513 
L 248.945819 78.046971 
L 249.687625 77.713401 
L 250.429431 78.399904 
L 251.171237 77.714816 
L 251.913043 77.33649 
L 252.654849 77.120354 
L 253.396656 77.070874 
L 254.138462 77.455585 
L 254.880268 77.521747 
L 255.622074 77.838254 
L 256.36388 76.910063 
L 257.105686 77.500315 
L 257.847492 77.492448 
L 258.589298 76.268796 
L 259.331104 76.131509 
L 260.07291 77.221933 
L 260.814716 77.251208 
L 261.556522 76.611384 
L 262.298328 76.77898 
L 263.040134 76.925856 
L 263.78194 78.66395 
L 264.523746 82.055266 
L 265.265552 84.767642 
L 266.007358 84.584804 
L 266.749164 86.307701 
L 267.49097 86.526908 
L 268.232776 86.709923 
L 268.974582 88.517251 
L 269.716388 89.674527 
L 270.458194 91.284757 
L 271.2 93.925683 
L 271.2 48.797289 
L 271.2 48.797289 
L 270.458194 48.638409 
L 269.716388 49.989891 
L 268.974582 51.986682 
L 268.232776 51.793006 
L 267.49097 51.587207 
L 266.749164 52.460866 
L 266.007358 52.917585 
L 265.265552 53.067325 
L 264.523746 51.532309 
L 263.78194 51.457991 
L 263.040134 51.28571 
L 262.298328 51.281372 
L 261.556522 50.052972 
L 260.814716 47.025813 
L 260.07291 47.091066 
L 259.331104 46.623888 
L 258.589298 45.933922 
L 257.847492 45.773526 
L 257.105686 45.055998 
L 256.36388 45.4988 
L 255.622074 45.659782 
L 254.880268 45.426789 
L 254.138462 45.873913 
L 253.396656 45.820176 
L 252.654849 45.86627 
L 251.913043 45.631991 
L 251.171237 46.549749 
L 250.429431 46.197997 
L 249.687625 46.420849 
L 248.945819 47.396855 
L 248.204013 47.131774 
L 247.462207 47.364142 
L 246.720401 47.481239 
L 245.978595 47.229684 
L 245.236789 47.450775 
L 244.494983 47.784662 
L 243.753177 48.039066 
L 243.011371 47.437329 
L 242.269565 48.110254 
L 241.527759 47.680727 
L 240.785953 46.636537 
L 240.044147 46.821536 
L 239.302341 47.178058 
L 238.560535 47.297314 
L 237.818729 47.389327 
L 237.076923 47.460738 
L 236.335117 46.982161 
L 235.593311 46.813216 
L 234.851505 46.70906 
L 234.109699 46.552293 
L 233.367893 47.779737 
L 232.626087 48.133116 
L 231.884281 49.164359 
L 231.142475 49.19284 
L 230.400669 49.851434 
L 229.658863 50.176012 
L 228.917057 50.209613 
L 228.175251 50.642426 
L 227.433445 50.816669 
L 226.691639 51.17379 
L 225.949833 51.693021 
L 225.208027 50.676584 
L 224.466221 50.794495 
L 223.724415 50.399433 
L 222.982609 51.092874 
L 222.240803 50.447041 
L 221.498997 50.518131 
L 220.757191 51.499869 
L 220.015385 51.767519 
L 219.273579 51.861612 
L 218.531773 51.423034 
L 217.789967 52.186803 
L 217.048161 51.783966 
L 216.306355 51.994314 
L 215.564548 51.256991 
L 214.822742 50.680566 
L 214.080936 50.822569 
L 213.33913 51.172865 
L 212.597324 50.418583 
L 211.855518 50.04807 
L 211.113712 49.929743 
L 210.371906 50.440128 
L 209.6301 49.717959 
L 208.888294 50.22444 
L 208.146488 50.397332 
L 207.404682 51.211036 
L 206.662876 51.779314 
L 205.92107 52.148183 
L 205.179264 51.488016 
L 204.437458 51.852418 
L 203.695652 52.057723 
L 202.953846 52.212024 
L 202.21204 52.500866 
L 201.470234 52.630662 
L 200.728428 52.658674 
L 199.986622 52.41283 
L 199.244816 52.393427 
L 198.50301 51.455355 
L 197.761204 51.814786 
L 197.019398 52.280149 
L 196.277592 52.132105 
L 195.535786 52.393233 
L 194.79398 52.601691 
L 194.052174 52.377764 
L 193.310368 52.712168 
L 192.568562 52.761777 
L 191.826756 53.697348 
L 191.08495 53.977752 
L 190.343144 55.326174 
L 189.601338 55.23337 
L 188.859532 55.324381 
L 188.117726 55.712064 
L 187.37592 55.724927 
L 186.634114 55.979027 
L 185.892308 56.064769 
L 185.150502 56.237327 
L 184.408696 55.769545 
L 183.66689 55.462706 
L 182.925084 54.647022 
L 182.183278 53.456331 
L 181.441472 52.731352 
L 180.699666 52.749429 
L 179.95786 53.178204 
L 179.216054 52.940641 
L 178.474247 53.477615 
L 177.732441 53.814399 
L 176.990635 53.250496 
L 176.248829 54.389768 
L 175.507023 54.126435 
L 174.765217 53.966572 
L 174.023411 53.697875 
L 173.281605 53.667427 
L 172.539799 54.075111 
L 171.797993 54.108222 
L 171.056187 54.749807 
L 170.314381 54.176346 
L 169.572575 53.921513 
L 168.830769 54.858776 
L 168.088963 53.906976 
L 167.347157 54.160709 
L 166.605351 54.2982 
L 165.863545 54.773603 
L 165.121739 55.414196 
L 164.379933 55.481169 
L 163.638127 55.808204 
L 162.896321 55.327377 
L 162.154515 55.565175 
L 161.412709 55.828166 
L 160.670903 55.435525 
L 159.929097 55.822634 
L 159.187291 56.529514 
L 158.445485 57.410829 
L 157.703679 58.554613 
L 156.961873 59.879611 
L 156.220067 61.059154 
L 155.478261 60.857775 
L 154.736455 61.072624 
L 153.994649 60.507723 
L 153.252843 60.502397 
L 152.511037 61.085369 
L 151.769231 61.307425 
L 151.027425 61.049449 
L 150.285619 60.171104 
L 149.543813 59.599679 
L 148.802007 58.714924 
L 148.060201 57.800553 
L 147.318395 58.221539 
L 146.576589 58.11247 
L 145.834783 58.974686 
L 145.092977 59.166564 
L 144.351171 59.080665 
L 143.609365 59.115455 
L 142.867559 58.923034 
L 142.125753 59.153847 
L 141.383946 59.930907 
L 140.64214 60.723688 
L 139.900334 60.801362 
L 139.158528 60.749258 
L 138.416722 61.480881 
L 137.674916 62.023132 
L 136.93311 62.509838 
L 136.191304 62.537808 
L 135.449498 63.084449 
L 134.707692 63.455955 
L 133.965886 63.958662 
L 133.22408 63.00512 
L 132.482274 62.636406 
L 131.740468 62.218151 
L 130.998662 62.351513 
L 130.256856 61.278231 
L 129.51505 61.140015 
L 128.773244 61.288647 
L 128.031438 61.191729 
L 127.289632 61.812217 
L 126.547826 61.745164 
L 125.80602 61.614912 
L 125.064214 61.844457 
L 124.322408 62.211353 
L 123.580602 62.597806 
L 122.838796 62.50226 
L 122.09699 62.591195 
L 121.355184 62.452787 
L 120.613378 62.975731 
L 119.871572 63.22332 
L 119.129766 63.355304 
L 118.38796 63.628102 
L 117.646154 64.492775 
L 116.904348 64.73208 
L 116.162542 64.730171 
L 115.420736 64.826391 
L 114.67893 65.543294 
L 113.937124 65.832678 
L 113.195318 66.530384 
L 112.453512 67.407619 
L 111.711706 68.064464 
L 110.9699 68.559024 
L 110.228094 69.459274 
L 109.486288 69.489393 
L 108.744482 70.496077 
L 108.002676 70.629457 
L 107.26087 71.139634 
L 106.519064 71.717715 
L 105.777258 72.446547 
L 105.035452 72.863579 
L 104.293645 73.281786 
L 103.551839 73.551014 
L 102.810033 73.191348 
L 102.068227 73.767645 
L 101.326421 74.74479 
L 100.584615 75.858692 
L 99.842809 78.974441 
L 99.101003 81.018278 
L 98.359197 82.942063 
L 97.617391 84.054037 
L 96.875585 84.800784 
L 96.133779 85.574924 
L 95.391973 86.403381 
L 94.650167 87.410281 
L 93.908361 88.315862 
L 93.166555 89.151525 
L 92.424749 88.79214 
L 91.682943 87.174388 
L 90.941137 86.310154 
L 90.199331 84.135954 
L 89.457525 83.918374 
L 88.715719 84.703763 
L 87.973913 84.826673 
L 87.232107 85.357096 
L 86.490301 86.080695 
L 85.748495 87.691607 
L 85.006689 88.44678 
L 84.264883 89.430364 
L 83.523077 90.609988 
L 82.781271 91.742018 
L 82.039465 93.524182 
L 81.297659 94.388304 
L 80.555853 95.194169 
L 79.814047 96.799586 
L 79.072241 98.992625 
L 78.330435 100.101878 
L 77.588629 100.419563 
L 76.846823 101.819372 
L 76.105017 105.208049 
L 75.363211 107.605221 
L 74.621405 108.570069 
L 73.879599 111.554476 
L 73.137793 112.850434 
L 72.395987 114.983592 
L 71.654181 116.456819 
L 70.912375 117.656394 
L 70.170569 119.236451 
L 69.428763 121.666286 
L 68.686957 123.419346 
L 67.945151 123.967634 
L 67.203344 125.221476 
L 66.461538 127.419465 
L 65.719732 128.085124 
L 64.977926 130.578057 
L 64.23612 132.041175 
L 63.494314 133.885048 
L 62.752508 135.393968 
L 62.010702 137.353306 
L 61.268896 138.350246 
L 60.52709 139.765435 
L 59.785284 141.061355 
L 59.043478 142.073448 
L 58.301672 143.070773 
L 57.559866 143.72724 
L 56.81806 144.371893 
L 56.076254 145.101489 
L 55.334448 145.993677 
L 54.592642 146.574576 
L 53.850836 147.513359 
L 53.10903 149.167389 
L 52.367224 149.612099 
L 51.625418 150.122403 
L 50.883612 150.583273 
L 50.141806 151.201206 
L 49.4 151.844126 
z
" style="fill:#4c72b0;fill-opacity:0.2;"/>
   </g>
   <g id="PolyCollection_2">
    <path clip-path="url(#pa1529735d2)" d="M 49.4 152.023256 
L 49.4 155.002236 
L 50.141806 154.630493 
L 50.883612 153.962381 
L 51.625418 153.562582 
L 52.367224 153.13641 
L 53.10903 152.733268 
L 53.850836 151.290287 
L 54.592642 150.523234 
L 55.334448 149.862214 
L 56.076254 149.080628 
L 56.81806 148.439091 
L 57.559866 148.049952 
L 58.301672 147.483945 
L 59.043478 147.293766 
L 59.785284 146.811801 
L 60.52709 146.546365 
L 61.268896 146.289333 
L 62.010702 145.848219 
L 62.752508 145.674379 
L 63.494314 145.184153 
L 64.23612 144.872296 
L 64.977926 144.408408 
L 65.719732 144.008696 
L 66.461538 143.615041 
L 67.203344 142.842099 
L 67.945151 142.511445 
L 68.686957 142.033466 
L 69.428763 141.441315 
L 70.170569 141.094828 
L 70.912375 140.67281 
L 71.654181 139.802387 
L 72.395987 139.144671 
L 73.137793 138.592523 
L 73.879599 138.25195 
L 74.621405 137.391739 
L 75.363211 136.901278 
L 76.105017 136.09796 
L 76.846823 134.838705 
L 77.588629 133.834035 
L 78.330435 132.751364 
L 79.072241 131.610162 
L 79.814047 131.138006 
L 80.555853 130.311299 
L 81.297659 130.196952 
L 82.039465 129.148872 
L 82.781271 129.056676 
L 83.523077 128.444712 
L 84.264883 127.865907 
L 85.006689 127.471046 
L 85.748495 127.088417 
L 86.490301 126.396611 
L 87.232107 125.607262 
L 87.973913 125.315106 
L 88.715719 125.130006 
L 89.457525 123.479353 
L 90.199331 123.52484 
L 90.941137 122.928032 
L 91.682943 121.52236 
L 92.424749 120.966989 
L 93.166555 121.205754 
L 93.908361 120.38349 
L 94.650167 119.68762 
L 95.391973 118.82866 
L 96.133779 118.039498 
L 96.875585 116.732049 
L 97.617391 116.135955 
L 98.359197 114.968488 
L 99.101003 113.901351 
L 99.842809 113.62474 
L 100.584615 113.166281 
L 101.326421 111.986987 
L 102.068227 111.543587 
L 102.810033 110.931126 
L 103.551839 110.845601 
L 104.293645 110.517656 
L 105.035452 110.280017 
L 105.777258 109.832183 
L 106.519064 108.88095 
L 107.26087 108.339841 
L 108.002676 107.319377 
L 108.744482 106.252291 
L 109.486288 105.867555 
L 110.228094 105.196523 
L 110.9699 104.405274 
L 111.711706 104.040255 
L 112.453512 103.286987 
L 113.195318 102.188434 
L 113.937124 101.652195 
L 114.67893 101.402408 
L 115.420736 100.762748 
L 116.162542 100.344163 
L 116.904348 99.645916 
L 117.646154 99.918806 
L 118.38796 99.827848 
L 119.129766 100.24593 
L 119.871572 100.002205 
L 120.613378 99.924543 
L 121.355184 99.971778 
L 122.09699 99.565442 
L 122.838796 99.454461 
L 123.580602 99.980323 
L 124.322408 100.161944 
L 125.064214 100.24362 
L 125.80602 99.837584 
L 126.547826 99.450616 
L 127.289632 98.975029 
L 128.031438 98.672635 
L 128.773244 98.451405 
L 129.51505 97.598789 
L 130.256856 97.583912 
L 130.998662 97.10003 
L 131.740468 96.971864 
L 132.482274 96.652362 
L 133.22408 96.263648 
L 133.965886 95.516409 
L 134.707692 94.824358 
L 135.449498 94.522127 
L 136.191304 94.509574 
L 136.93311 94.43149 
L 137.674916 94.23876 
L 138.416722 94.158805 
L 139.158528 93.915763 
L 139.900334 93.544761 
L 140.64214 93.54356 
L 141.383946 93.597866 
L 142.125753 93.293701 
L 142.867559 93.684335 
L 143.609365 93.60869 
L 144.351171 92.702766 
L 145.092977 92.075346 
L 145.834783 92.038799 
L 146.576589 91.262731 
L 147.318395 91.152707 
L 148.060201 90.658077 
L 148.802007 90.126831 
L 149.543813 89.672881 
L 150.285619 89.592393 
L 151.027425 89.40145 
L 151.769231 88.835274 
L 152.511037 88.595201 
L 153.252843 88.914321 
L 153.994649 88.690605 
L 154.736455 89.956574 
L 155.478261 90.535448 
L 156.220067 92.747171 
L 156.961873 94.080034 
L 157.703679 94.522664 
L 158.445485 97.09659 
L 159.187291 97.951579 
L 159.929097 97.987367 
L 160.670903 98.06538 
L 161.412709 97.51917 
L 162.154515 97.315343 
L 162.896321 94.830912 
L 163.638127 93.567407 
L 164.379933 92.091797 
L 165.121739 91.660821 
L 165.863545 91.640454 
L 166.605351 89.393602 
L 167.347157 88.938315 
L 168.088963 88.476799 
L 168.830769 88.233115 
L 169.572575 87.79866 
L 170.314381 87.453116 
L 171.056187 87.193532 
L 171.797993 86.607326 
L 172.539799 85.534439 
L 173.281605 86.214643 
L 174.023411 85.92042 
L 174.765217 86.153057 
L 175.507023 85.444951 
L 176.248829 85.967812 
L 176.990635 86.485678 
L 177.732441 87.071643 
L 178.474247 87.171208 
L 179.216054 87.741802 
L 179.95786 87.926351 
L 180.699666 88.171592 
L 181.441472 87.428708 
L 182.183278 87.338303 
L 182.925084 86.105599 
L 183.66689 86.797906 
L 184.408696 85.505645 
L 185.150502 85.100104 
L 185.892308 85.915454 
L 186.634114 87.689238 
L 187.37592 87.803107 
L 188.117726 88.13117 
L 188.859532 88.863708 
L 189.601338 89.951255 
L 190.343144 90.01736 
L 191.08495 90.076441 
L 191.826756 89.556732 
L 192.568562 89.668613 
L 193.310368 89.887872 
L 194.052174 88.134799 
L 194.79398 86.571889 
L 195.535786 86.054744 
L 196.277592 85.3865 
L 197.019398 84.62756 
L 197.761204 83.65063 
L 198.50301 83.454761 
L 199.244816 83.193375 
L 199.986622 82.996024 
L 200.728428 83.142326 
L 201.470234 83.209183 
L 202.21204 82.786917 
L 202.953846 82.440641 
L 203.695652 82.616598 
L 204.437458 82.820056 
L 205.179264 82.781873 
L 205.92107 82.828183 
L 206.662876 83.191579 
L 207.404682 83.070179 
L 208.146488 83.538489 
L 208.888294 83.107664 
L 209.6301 82.518095 
L 210.371906 82.451605 
L 211.113712 82.433925 
L 211.855518 81.7727 
L 212.597324 81.528465 
L 213.33913 81.686329 
L 214.080936 81.363727 
L 214.822742 81.316917 
L 215.564548 81.249313 
L 216.306355 81.646795 
L 217.048161 81.423855 
L 217.789967 81.460496 
L 218.531773 81.537783 
L 219.273579 81.178223 
L 220.015385 81.444678 
L 220.757191 81.485446 
L 221.498997 80.745474 
L 222.240803 80.757206 
L 222.982609 80.325686 
L 223.724415 80.720193 
L 224.466221 79.889459 
L 225.208027 80.376883 
L 225.949833 80.523937 
L 226.691639 80.427705 
L 227.433445 80.428174 
L 228.175251 80.36385 
L 228.917057 80.41051 
L 229.658863 80.361755 
L 230.400669 80.581476 
L 231.142475 80.843412 
L 231.884281 81.016435 
L 232.626087 80.646139 
L 233.367893 79.977371 
L 234.109699 79.703298 
L 234.851505 79.706158 
L 235.593311 80.354392 
L 236.335117 80.2528 
L 237.076923 79.745929 
L 237.818729 80.117501 
L 238.560535 79.550576 
L 239.302341 79.217142 
L 240.044147 78.540976 
L 240.785953 78.916379 
L 241.527759 79.111548 
L 242.269565 78.481977 
L 243.011371 78.299194 
L 243.753177 77.135489 
L 244.494983 77.073751 
L 245.236789 77.183781 
L 245.978595 76.723774 
L 246.720401 76.440345 
L 247.462207 76.202633 
L 248.204013 76.08257 
L 248.945819 75.8081 
L 249.687625 75.531118 
L 250.429431 75.987372 
L 251.171237 76.200076 
L 251.913043 76.481248 
L 252.654849 76.525791 
L 253.396656 76.874408 
L 254.138462 76.740387 
L 254.880268 77.600773 
L 255.622074 77.392538 
L 256.36388 77.212948 
L 257.105686 76.940379 
L 257.847492 77.066418 
L 258.589298 76.801709 
L 259.331104 76.997901 
L 260.07291 76.876096 
L 260.814716 77.553859 
L 261.556522 77.816127 
L 262.298328 78.230341 
L 263.040134 77.990062 
L 263.78194 78.437396 
L 264.523746 78.730891 
L 265.265552 79.158207 
L 266.007358 79.255579 
L 266.749164 79.730981 
L 267.49097 79.117353 
L 268.232776 79.509506 
L 268.974582 78.746637 
L 269.716388 78.449169 
L 270.458194 78.328876 
L 271.2 78.079824 
L 271.2 39.858389 
L 271.2 39.858389 
L 270.458194 40.569789 
L 269.716388 40.567405 
L 268.974582 40.113031 
L 268.232776 39.69928 
L 267.49097 39.701432 
L 266.749164 39.236191 
L 266.007358 38.940545 
L 265.265552 39.280762 
L 264.523746 38.940215 
L 263.78194 38.569775 
L 263.040134 39.038184 
L 262.298328 38.465 
L 261.556522 38.246964 
L 260.814716 38.517284 
L 260.07291 38.721584 
L 259.331104 38.492533 
L 258.589298 39.2454 
L 257.847492 39.882367 
L 257.105686 39.470189 
L 256.36388 39.94386 
L 255.622074 39.878811 
L 254.880268 39.862574 
L 254.138462 40.009572 
L 253.396656 40.155805 
L 252.654849 40.188098 
L 251.913043 40.611769 
L 251.171237 41.238141 
L 250.429431 41.142643 
L 249.687625 40.833666 
L 248.945819 40.861527 
L 248.204013 40.92273 
L 247.462207 40.896703 
L 246.720401 41.010291 
L 245.978595 41.588083 
L 245.236789 41.432655 
L 244.494983 41.613942 
L 243.753177 41.574495 
L 243.011371 41.143944 
L 242.269565 40.960727 
L 241.527759 40.673229 
L 240.785953 40.562001 
L 240.044147 40.427037 
L 239.302341 40.788653 
L 238.560535 40.696348 
L 237.818729 39.971661 
L 237.076923 40.040052 
L 236.335117 40.126784 
L 235.593311 40.251674 
L 234.851505 40.95255 
L 234.109699 41.88289 
L 233.367893 42.301056 
L 232.626087 43.065157 
L 231.884281 43.558312 
L 231.142475 43.89181 
L 230.400669 44.436635 
L 229.658863 44.56964 
L 228.917057 45.133564 
L 228.175251 45.625932 
L 227.433445 45.271461 
L 226.691639 44.66347 
L 225.949833 43.948646 
L 225.208027 43.809043 
L 224.466221 43.462509 
L 223.724415 42.44584 
L 222.982609 42.057237 
L 222.240803 41.42276 
L 221.498997 41.297657 
L 220.757191 41.294269 
L 220.015385 40.534234 
L 219.273579 40.728927 
L 218.531773 41.494777 
L 217.789967 41.294697 
L 217.048161 41.197226 
L 216.306355 41.612971 
L 215.564548 42.479467 
L 214.822742 42.485849 
L 214.080936 43.560275 
L 213.33913 43.665409 
L 212.597324 43.341771 
L 211.855518 43.947922 
L 211.113712 44.409443 
L 210.371906 44.001095 
L 209.6301 43.978908 
L 208.888294 44.291974 
L 208.146488 44.075516 
L 207.404682 43.841123 
L 206.662876 43.856987 
L 205.92107 43.135337 
L 205.179264 43.216646 
L 204.437458 43.667865 
L 203.695652 43.750905 
L 202.953846 43.464621 
L 202.21204 43.536983 
L 201.470234 43.648561 
L 200.728428 44.521011 
L 199.986622 44.584273 
L 199.244816 44.982739 
L 198.50301 45.522778 
L 197.761204 46.050944 
L 197.019398 46.350306 
L 196.277592 46.74927 
L 195.535786 46.208886 
L 194.79398 46.204035 
L 194.052174 45.476665 
L 193.310368 45.280992 
L 192.568562 44.462382 
L 191.826756 44.971117 
L 191.08495 45.076414 
L 190.343144 44.791273 
L 189.601338 44.718309 
L 188.859532 44.85274 
L 188.117726 44.438427 
L 187.37592 45.287665 
L 186.634114 46.172849 
L 185.892308 47.263015 
L 185.150502 47.610529 
L 184.408696 48.380047 
L 183.66689 48.982299 
L 182.925084 48.71743 
L 182.183278 49.233212 
L 181.441472 49.757804 
L 180.699666 50.987796 
L 179.95786 51.694994 
L 179.216054 51.635706 
L 178.474247 51.38457 
L 177.732441 51.407356 
L 176.990635 52.419648 
L 176.248829 52.479804 
L 175.507023 50.980253 
L 174.765217 51.011214 
L 174.023411 50.027963 
L 173.281605 49.559092 
L 172.539799 49.076022 
L 171.797993 49.047275 
L 171.056187 49.17667 
L 170.314381 49.65201 
L 169.572575 49.650709 
L 168.830769 49.00901 
L 168.088963 48.952355 
L 167.347157 49.416924 
L 166.605351 50.362398 
L 165.863545 50.126854 
L 165.121739 51.956446 
L 164.379933 53.577706 
L 163.638127 54.99671 
L 162.896321 56.22026 
L 162.154515 57.559653 
L 161.412709 57.887246 
L 160.670903 58.065289 
L 159.929097 58.021279 
L 159.187291 58.053607 
L 158.445485 57.925091 
L 157.703679 59.675401 
L 156.961873 58.797834 
L 156.220067 58.322664 
L 155.478261 57.039847 
L 154.736455 55.606462 
L 153.994649 53.104402 
L 153.252843 53.001493 
L 152.511037 53.091366 
L 151.769231 53.010515 
L 151.027425 53.815975 
L 150.285619 54.466881 
L 149.543813 53.992628 
L 148.802007 54.891348 
L 148.060201 55.695637 
L 147.318395 57.357588 
L 146.576589 57.588224 
L 145.834783 57.681492 
L 145.092977 57.50201 
L 144.351171 57.225446 
L 143.609365 57.166427 
L 142.867559 56.139507 
L 142.125753 56.270094 
L 141.383946 56.095295 
L 140.64214 55.52943 
L 139.900334 55.243975 
L 139.158528 53.578486 
L 138.416722 53.499172 
L 137.674916 53.383774 
L 136.93311 53.599821 
L 136.191304 54.061083 
L 135.449498 55.392979 
L 134.707692 55.701466 
L 133.965886 56.517516 
L 133.22408 57.047068 
L 132.482274 57.167732 
L 131.740468 57.229235 
L 130.998662 58.179707 
L 130.256856 58.265485 
L 129.51505 59.022727 
L 128.773244 60.645062 
L 128.031438 60.614735 
L 127.289632 60.73503 
L 126.547826 61.512248 
L 125.80602 61.133391 
L 125.064214 61.124186 
L 124.322408 61.106619 
L 123.580602 61.257824 
L 122.838796 61.266205 
L 122.09699 61.676701 
L 121.355184 61.537439 
L 120.613378 60.445062 
L 119.871572 61.082719 
L 119.129766 60.942851 
L 118.38796 61.239984 
L 117.646154 61.415102 
L 116.904348 62.048938 
L 116.162542 62.727689 
L 115.420736 63.980002 
L 114.67893 64.099319 
L 113.937124 64.044197 
L 113.195318 64.581453 
L 112.453512 64.85415 
L 111.711706 65.215211 
L 110.9699 65.705649 
L 110.228094 65.740731 
L 109.486288 66.240131 
L 108.744482 65.888854 
L 108.002676 66.500117 
L 107.26087 65.949486 
L 106.519064 66.22039 
L 105.777258 66.918776 
L 105.035452 67.408379 
L 104.293645 68.717159 
L 103.551839 69.283861 
L 102.810033 69.83919 
L 102.068227 70.243972 
L 101.326421 70.940869 
L 100.584615 72.455385 
L 99.842809 72.890452 
L 99.101003 73.176794 
L 98.359197 75.223966 
L 97.617391 77.129817 
L 96.875585 77.306221 
L 96.133779 76.793184 
L 95.391973 77.673665 
L 94.650167 78.063655 
L 93.908361 79.579439 
L 93.166555 80.289456 
L 92.424749 82.224728 
L 91.682943 83.9502 
L 90.941137 86.438333 
L 90.199331 87.014813 
L 89.457525 87.411352 
L 88.715719 89.271516 
L 87.973913 91.486022 
L 87.232107 93.126433 
L 86.490301 94.120668 
L 85.748495 95.790652 
L 85.006689 96.943472 
L 84.264883 97.437032 
L 83.523077 99.099569 
L 82.781271 99.508629 
L 82.039465 100.517818 
L 81.297659 102.177374 
L 80.555853 102.653592 
L 79.814047 102.896984 
L 79.072241 103.711301 
L 78.330435 104.740682 
L 77.588629 104.844684 
L 76.846823 105.714238 
L 76.105017 106.798635 
L 75.363211 106.531491 
L 74.621405 107.532685 
L 73.879599 109.365404 
L 73.137793 111.048047 
L 72.395987 113.23202 
L 71.654181 115.397083 
L 70.912375 117.073024 
L 70.170569 119.104005 
L 69.428763 120.922279 
L 68.686957 123.640826 
L 67.945151 125.885163 
L 67.203344 128.381882 
L 66.461538 129.96879 
L 65.719732 131.281573 
L 64.977926 132.19898 
L 64.23612 133.199253 
L 63.494314 134.454068 
L 62.752508 136.324376 
L 62.010702 137.898272 
L 61.268896 139.009809 
L 60.52709 140.15742 
L 59.785284 141.257217 
L 59.043478 142.239823 
L 58.301672 143.677137 
L 57.559866 144.693817 
L 56.81806 145.573887 
L 56.076254 146.670204 
L 55.334448 147.084434 
L 54.592642 147.618031 
L 53.850836 148.588276 
L 53.10903 149.9378 
L 52.367224 150.291285 
L 51.625418 150.650438 
L 50.883612 150.954596 
L 50.141806 151.251595 
L 49.4 152.023256 
z
" style="fill:#55a868;fill-opacity:0.2;"/>
   </g>
   <g id="line2d_19">
    <path clip-path="url(#pa1529735d2)" d="M 49.4 153.339508 
L 51.625418 151.982704 
L 53.10903 151.32685 
L 53.850836 149.889435 
L 54.592642 149.071557 
L 59.043478 145.456373 
L 59.785284 144.815783 
L 61.268896 143.006348 
L 62.010702 142.486584 
L 64.23612 139.606231 
L 64.977926 138.717137 
L 65.719732 137.365902 
L 66.461538 136.684333 
L 67.945151 134.384711 
L 68.686957 133.852323 
L 69.428763 132.92297 
L 70.170569 131.628403 
L 70.912375 130.633814 
L 72.395987 128.951535 
L 73.137793 127.716459 
L 73.879599 126.836825 
L 74.621405 125.37922 
L 75.363211 124.574426 
L 76.105017 123.329645 
L 76.846823 121.545677 
L 77.588629 120.460739 
L 78.330435 119.95291 
L 79.072241 119.216026 
L 80.555853 116.382441 
L 81.297659 115.938786 
L 82.039465 114.966557 
L 82.781271 113.692518 
L 85.006689 111.094472 
L 85.748495 110.591972 
L 87.232107 108.599596 
L 88.715719 107.896916 
L 89.457525 107.052991 
L 90.199331 106.990061 
L 90.941137 107.869294 
L 91.682943 108.104703 
L 92.424749 108.775192 
L 93.166555 108.922657 
L 96.133779 106.311301 
L 96.875585 105.898553 
L 97.617391 105.307941 
L 98.359197 104.483556 
L 100.584615 100.533463 
L 102.068227 99.200223 
L 102.810033 98.93458 
L 103.551839 99.20165 
L 105.777258 98.159996 
L 107.26087 97.265951 
L 108.744482 96.568229 
L 109.486288 95.921628 
L 110.228094 95.883526 
L 110.9699 95.219525 
L 113.937124 93.685138 
L 114.67893 93.530907 
L 115.420736 92.983174 
L 117.646154 92.738189 
L 118.38796 92.144433 
L 119.129766 91.908706 
L 119.871572 91.990225 
L 120.613378 91.791326 
L 121.355184 91.409767 
L 123.580602 91.360165 
L 124.322408 90.892251 
L 125.80602 90.396745 
L 126.547826 90.543808 
L 127.289632 90.543675 
L 128.031438 89.88505 
L 128.773244 89.924798 
L 130.256856 89.778108 
L 130.998662 90.736329 
L 131.740468 90.810437 
L 133.22408 92.284403 
L 133.965886 92.917366 
L 136.93311 91.637159 
L 137.674916 91.585361 
L 138.416722 91.206216 
L 139.158528 89.527836 
L 139.900334 88.786416 
L 140.64214 87.836368 
L 141.383946 86.588854 
L 142.867559 85.683066 
L 143.609365 85.835402 
L 144.351171 85.694664 
L 145.092977 85.8109 
L 146.576589 84.786771 
L 148.060201 84.492969 
L 149.543813 85.719654 
L 150.285619 85.626828 
L 151.027425 86.044715 
L 152.511037 85.994172 
L 153.252843 85.293362 
L 153.994649 85.325346 
L 154.736455 85.239498 
L 156.220067 84.606544 
L 156.961873 83.263042 
L 158.445485 81.537639 
L 159.929097 80.002152 
L 160.670903 79.182296 
L 161.412709 79.276028 
L 162.154515 78.897224 
L 162.896321 78.674142 
L 163.638127 78.773563 
L 164.379933 78.431428 
L 165.121739 78.572793 
L 165.863545 77.810219 
L 166.605351 77.304742 
L 168.088963 76.616666 
L 168.830769 77.034526 
L 169.572575 76.132143 
L 170.314381 75.975031 
L 171.056187 76.374768 
L 171.797993 75.644473 
L 172.539799 75.624868 
L 173.281605 74.944393 
L 174.023411 74.797658 
L 174.765217 74.916791 
L 175.507023 75.457592 
L 176.248829 75.410741 
L 176.990635 74.725313 
L 177.732441 75.002021 
L 178.474247 74.474964 
L 179.216054 73.660171 
L 179.95786 73.579922 
L 180.699666 74.494468 
L 181.441472 74.663756 
L 182.183278 75.350419 
L 182.925084 75.86536 
L 183.66689 75.534896 
L 184.408696 76.073351 
L 185.150502 76.339506 
L 185.892308 76.393104 
L 187.37592 76.169176 
L 188.117726 76.063618 
L 188.859532 74.887642 
L 190.343144 74.389233 
L 191.08495 73.271639 
L 191.826756 72.845729 
L 192.568562 71.795684 
L 193.310368 71.670421 
L 194.052174 71.257885 
L 194.79398 71.216712 
L 195.535786 71.059006 
L 196.277592 70.696358 
L 197.019398 70.595848 
L 198.50301 69.660208 
L 199.244816 69.894724 
L 199.986622 69.637696 
L 200.728428 69.885384 
L 201.470234 69.497968 
L 202.21204 69.462567 
L 203.695652 68.636635 
L 204.437458 68.58639 
L 205.179264 68.34016 
L 205.92107 68.77938 
L 206.662876 68.233692 
L 207.404682 67.959706 
L 208.146488 67.403608 
L 208.888294 66.99639 
L 209.6301 66.760228 
L 211.855518 66.594247 
L 213.33913 66.886496 
L 214.080936 66.318898 
L 215.564548 67.149954 
L 216.306355 67.895408 
L 217.048161 68.015182 
L 217.789967 68.004097 
L 218.531773 67.727638 
L 220.015385 68.10306 
L 221.498997 67.244956 
L 222.240803 67.280036 
L 222.982609 67.112128 
L 223.724415 66.286747 
L 225.208027 65.423327 
L 225.949833 65.760281 
L 227.433445 65.388428 
L 228.175251 65.2666 
L 228.917057 65.366278 
L 230.400669 65.319253 
L 231.142475 64.896019 
L 231.884281 65.382222 
L 232.626087 64.95074 
L 233.367893 65.008053 
L 234.109699 64.589839 
L 235.593311 64.551578 
L 236.335117 64.117056 
L 237.818729 64.170926 
L 238.560535 63.805313 
L 239.302341 63.586941 
L 240.044147 63.154958 
L 240.785953 63.440903 
L 241.527759 63.971175 
L 243.011371 63.868755 
L 243.753177 64.107401 
L 244.494983 63.987642 
L 245.236789 63.743937 
L 245.978595 63.152572 
L 247.462207 63.302871 
L 248.204013 63.194144 
L 248.945819 62.721913 
L 249.687625 62.067125 
L 250.429431 62.29895 
L 251.171237 62.132282 
L 251.913043 61.48424 
L 253.396656 61.445525 
L 254.138462 61.664749 
L 254.880268 61.474268 
L 255.622074 61.749018 
L 256.36388 61.204431 
L 257.105686 61.278156 
L 257.847492 61.632987 
L 258.589298 61.101359 
L 259.331104 61.377698 
L 260.07291 62.156499 
L 260.814716 62.13851 
L 261.556522 63.332178 
L 262.298328 64.030176 
L 263.040134 64.105783 
L 263.78194 65.06097 
L 264.523746 66.793787 
L 265.265552 68.917483 
L 266.007358 68.751194 
L 266.749164 69.384284 
L 267.49097 69.057058 
L 268.232776 69.251464 
L 268.974582 70.251967 
L 269.716388 69.832209 
L 270.458194 69.961583 
L 271.2 71.361486 
L 271.2 71.361486 
" style="fill:none;stroke:#4c72b0;stroke-linecap:round;stroke-width:1.75;"/>
   </g>
   <g id="line2d_20">
    <path clip-path="url(#pa1529735d2)" d="M 49.4 153.512746 
L 50.883612 152.458489 
L 53.10903 151.335534 
L 53.850836 149.939281 
L 54.592642 149.070633 
L 56.076254 147.875416 
L 56.81806 147.006489 
L 57.559866 146.371885 
L 60.52709 143.351892 
L 62.010702 141.873246 
L 62.752508 140.999377 
L 63.494314 139.819111 
L 64.977926 138.303694 
L 65.719732 137.645135 
L 66.461538 136.791915 
L 67.203344 135.61199 
L 70.170569 130.099417 
L 71.654181 127.599735 
L 73.137793 124.820285 
L 73.879599 123.808677 
L 74.621405 122.462212 
L 75.363211 121.716384 
L 76.105017 121.448298 
L 76.846823 120.276472 
L 77.588629 119.33936 
L 78.330435 118.746023 
L 79.072241 117.660732 
L 80.555853 116.482446 
L 81.297659 116.187163 
L 82.039465 114.833345 
L 83.523077 113.772141 
L 84.264883 112.651469 
L 85.006689 112.207259 
L 85.748495 111.439534 
L 86.490301 110.25864 
L 87.973913 108.400564 
L 88.715719 107.200761 
L 89.457525 105.445352 
L 90.199331 105.269827 
L 90.941137 104.683182 
L 91.682943 102.73628 
L 92.424749 101.595858 
L 93.908361 99.981464 
L 94.650167 98.875638 
L 95.391973 98.251163 
L 96.133779 97.416341 
L 97.617391 96.632886 
L 99.101003 93.539073 
L 99.842809 93.257596 
L 100.584615 92.810833 
L 101.326421 91.463928 
L 102.810033 90.385158 
L 103.551839 90.064731 
L 104.293645 89.617408 
L 105.035452 88.844198 
L 105.777258 88.375479 
L 106.519064 87.55067 
L 107.26087 87.144663 
L 108.002676 86.909747 
L 108.744482 86.070572 
L 109.486288 86.053843 
L 110.228094 85.468627 
L 111.711706 84.627733 
L 113.937124 82.848196 
L 114.67893 82.750864 
L 115.420736 82.371375 
L 116.904348 80.847427 
L 118.38796 80.533916 
L 119.129766 80.594391 
L 119.871572 80.542462 
L 120.613378 80.184803 
L 121.355184 80.754608 
L 122.09699 80.621072 
L 122.838796 80.360333 
L 123.580602 80.619073 
L 125.064214 80.683903 
L 125.80602 80.485488 
L 126.547826 80.481432 
L 127.289632 79.85503 
L 128.031438 79.643685 
L 128.773244 79.548233 
L 129.51505 78.310758 
L 131.740468 77.100549 
L 133.22408 76.655358 
L 134.707692 75.262912 
L 135.449498 74.957553 
L 136.191304 74.285328 
L 137.674916 73.811267 
L 139.158528 73.747125 
L 139.900334 74.394368 
L 140.64214 74.536495 
L 141.383946 74.84658 
L 142.125753 74.781897 
L 142.867559 74.911921 
L 143.609365 75.387558 
L 144.351171 74.964106 
L 145.092977 74.788678 
L 145.834783 74.860146 
L 146.576589 74.425477 
L 147.318395 74.255147 
L 148.060201 73.176857 
L 149.543813 71.832755 
L 150.285619 72.029637 
L 151.027425 71.608712 
L 151.769231 70.922894 
L 152.511037 70.843284 
L 153.252843 70.957907 
L 153.994649 70.897503 
L 154.736455 72.781518 
L 155.478261 73.787648 
L 156.220067 75.534917 
L 156.961873 76.438934 
L 157.703679 77.099032 
L 159.187291 78.002593 
L 160.670903 78.065334 
L 162.154515 77.437498 
L 162.896321 75.525586 
L 165.121739 71.808634 
L 167.347157 69.17762 
L 168.088963 68.714577 
L 168.830769 68.621062 
L 169.572575 68.724684 
L 170.314381 68.552563 
L 171.797993 67.8273 
L 172.539799 67.30523 
L 173.281605 67.886867 
L 174.023411 67.974192 
L 174.765217 68.582135 
L 175.507023 68.212602 
L 176.248829 69.223808 
L 176.990635 69.452663 
L 177.732441 69.2395 
L 178.474247 69.277889 
L 179.216054 69.688754 
L 179.95786 69.810673 
L 180.699666 69.579694 
L 181.441472 68.593256 
L 182.183278 68.285758 
L 182.925084 67.411514 
L 183.66689 67.890103 
L 184.408696 66.942846 
L 185.150502 66.355317 
L 186.634114 66.931043 
L 188.117726 66.284798 
L 189.601338 67.334782 
L 191.08495 67.576427 
L 192.568562 67.065497 
L 193.310368 67.584432 
L 194.052174 66.805732 
L 194.79398 66.387962 
L 195.535786 66.131815 
L 196.277592 66.067885 
L 197.761204 64.850787 
L 199.986622 63.790149 
L 200.728428 63.831669 
L 201.470234 63.428872 
L 202.953846 62.952631 
L 203.695652 63.183751 
L 204.437458 63.243961 
L 205.179264 62.99926 
L 205.92107 62.98176 
L 206.662876 63.524283 
L 207.404682 63.455651 
L 208.146488 63.807003 
L 208.888294 63.699819 
L 209.6301 63.248501 
L 210.371906 63.22635 
L 211.113712 63.421684 
L 212.597324 62.435118 
L 213.33913 62.675869 
L 214.080936 62.462001 
L 214.822742 61.901383 
L 215.564548 61.86439 
L 217.048161 61.310541 
L 218.531773 61.51628 
L 219.273579 60.953575 
L 220.015385 60.989456 
L 220.757191 61.389858 
L 221.498997 61.021566 
L 222.982609 61.191461 
L 223.724415 61.583017 
L 224.466221 61.675984 
L 225.208027 62.092963 
L 225.949833 62.236291 
L 227.433445 62.849817 
L 228.175251 62.994891 
L 229.658863 62.465697 
L 230.400669 62.509056 
L 231.884281 62.287374 
L 232.626087 61.855648 
L 233.367893 61.139213 
L 234.851505 60.329354 
L 236.335117 60.189792 
L 237.076923 59.89299 
L 238.560535 60.123462 
L 239.302341 60.002898 
L 240.044147 59.484006 
L 241.527759 59.892389 
L 242.269565 59.721352 
L 243.011371 59.721569 
L 243.753177 59.354992 
L 245.236789 59.308218 
L 245.978595 59.155928 
L 246.720401 58.725318 
L 247.462207 58.549668 
L 248.204013 58.50265 
L 249.687625 58.182392 
L 250.429431 58.565007 
L 251.171237 58.719109 
L 252.654849 58.356945 
L 253.396656 58.515107 
L 254.138462 58.374979 
L 254.880268 58.731673 
L 256.36388 58.578404 
L 257.105686 58.205284 
L 257.847492 58.474392 
L 258.589298 58.023555 
L 259.331104 57.745217 
L 260.07291 57.79884 
L 260.814716 58.035572 
L 261.556522 58.031545 
L 262.298328 58.34767 
L 263.040134 58.514123 
L 263.78194 58.503586 
L 265.265552 59.219485 
L 266.007358 59.098062 
L 266.749164 59.483586 
L 267.49097 59.409393 
L 268.232776 59.604393 
L 268.974582 59.429834 
L 269.716388 59.508287 
L 270.458194 59.449333 
L 271.2 58.969106 
L 271.2 58.969106 
" style="fill:none;stroke:#55a868;stroke-linecap:round;stroke-width:1.75;"/>
   </g>
   <g id="patch_3">
    <path d="M 49.4 160.84 
L 49.4 32.4092 
" style="fill:none;"/>
   </g>
   <g id="patch_4">
    <path d="M 271.2 160.84 
L 271.2 32.4092 
" style="fill:none;"/>
   </g>
   <g id="patch_5">
    <path d="M 49.4 160.84 
L 271.2 160.84 
" style="fill:none;"/>
   </g>
   <g id="patch_6">
    <path d="M 49.4 32.4092 
L 271.2 32.4092 
" style="fill:none;"/>
   </g>
   <g id="legend_1">
    <g id="line2d_21">
     <path d="M 54.6 17.35449 
L 67.6 17.35449 
" style="fill:none;stroke:#4c72b0;stroke-linecap:round;stroke-width:1.75;"/>
    </g>
    <g id="line2d_22"/>
    <g id="text_13">
     <!-- td3-tf1 -->
     <defs>
      <path d="M 40.234375 0 
L 40.234375 6.546875 
Q 35.296875 -1.171875 25.734375 -1.171875 
Q 19.53125 -1.171875 14.328125 2.25 
Q 9.125 5.671875 6.265625 11.796875 
Q 3.421875 17.921875 3.421875 25.875 
Q 3.421875 33.640625 6 39.96875 
Q 8.59375 46.296875 13.765625 49.65625 
Q 18.953125 53.03125 25.34375 53.03125 
Q 30.03125 53.03125 33.6875 51.046875 
Q 37.359375 49.078125 39.65625 45.90625 
L 39.65625 71.578125 
L 48.390625 71.578125 
L 48.390625 0 
z
M 12.453125 25.875 
Q 12.453125 15.921875 16.640625 10.984375 
Q 20.84375 6.0625 26.5625 6.0625 
Q 32.328125 6.0625 36.34375 10.765625 
Q 40.375 15.484375 40.375 25.140625 
Q 40.375 35.796875 36.265625 40.765625 
Q 32.171875 45.75 26.171875 45.75 
Q 20.3125 45.75 16.375 40.96875 
Q 12.453125 36.1875 12.453125 25.875 
z
" id="ArialMT-100"/>
      <path d="M 4.203125 18.890625 
L 12.984375 20.0625 
Q 14.5 12.59375 18.140625 9.296875 
Q 21.78125 6 27 6 
Q 33.203125 6 37.46875 10.296875 
Q 41.75 14.59375 41.75 20.953125 
Q 41.75 27 37.796875 30.921875 
Q 33.84375 34.859375 27.734375 34.859375 
Q 25.25 34.859375 21.53125 33.890625 
L 22.515625 41.609375 
Q 23.390625 41.5 23.921875 41.5 
Q 29.546875 41.5 34.03125 44.421875 
Q 38.53125 47.359375 38.53125 53.46875 
Q 38.53125 58.296875 35.25 61.46875 
Q 31.984375 64.65625 26.8125 64.65625 
Q 21.6875 64.65625 18.265625 61.421875 
Q 14.84375 58.203125 13.875 51.765625 
L 5.078125 53.328125 
Q 6.6875 62.15625 12.390625 67.015625 
Q 18.109375 71.875 26.609375 71.875 
Q 32.46875 71.875 37.390625 69.359375 
Q 42.328125 66.84375 44.9375 62.5 
Q 47.5625 58.15625 47.5625 53.265625 
Q 47.5625 48.640625 45.0625 44.828125 
Q 42.578125 41.015625 37.703125 38.765625 
Q 44.046875 37.3125 47.5625 32.6875 
Q 51.078125 28.078125 51.078125 21.140625 
Q 51.078125 11.765625 44.234375 5.25 
Q 37.40625 -1.265625 26.953125 -1.265625 
Q 17.53125 -1.265625 11.296875 4.34375 
Q 5.078125 9.96875 4.203125 18.890625 
z
" id="ArialMT-51"/>
      <path d="M 3.171875 21.484375 
L 3.171875 30.328125 
L 30.171875 30.328125 
L 30.171875 21.484375 
z
" id="ArialMT-45"/>
     </defs>
     <g style="fill:#262626;" transform="translate(78 21.90449)scale(0.13 -0.13)">
      <use xlink:href="#ArialMT-116"/>
      <use x="27.783203" xlink:href="#ArialMT-100"/>
      <use x="83.398438" xlink:href="#ArialMT-51"/>
      <use x="139.013672" xlink:href="#ArialMT-45"/>
      <use x="172.314453" xlink:href="#ArialMT-116"/>
      <use x="200.097656" xlink:href="#ArialMT-102"/>
      <use x="227.880859" xlink:href="#ArialMT-49"/>
     </g>
    </g>
    <g id="line2d_23">
     <path d="M 173.267344 17.35449 
L 186.267344 17.35449 
" style="fill:none;stroke:#55a868;stroke-linecap:round;stroke-width:1.75;"/>
    </g>
    <g id="line2d_24"/>
    <g id="text_14">
     <!-- td3-pyTorch -->
     <defs>
      <path d="M 6.59375 -19.875 
L 6.59375 51.859375 
L 14.59375 51.859375 
L 14.59375 45.125 
Q 17.4375 49.078125 21 51.046875 
Q 24.5625 53.03125 29.640625 53.03125 
Q 36.28125 53.03125 41.359375 49.609375 
Q 46.4375 46.1875 49.015625 39.953125 
Q 51.609375 33.734375 51.609375 26.3125 
Q 51.609375 18.359375 48.75 11.984375 
Q 45.90625 5.609375 40.453125 2.21875 
Q 35.015625 -1.171875 29 -1.171875 
Q 24.609375 -1.171875 21.109375 0.6875 
Q 17.625 2.546875 15.375 5.375 
L 15.375 -19.875 
z
M 14.546875 25.640625 
Q 14.546875 15.625 18.59375 10.84375 
Q 22.65625 6.0625 28.421875 6.0625 
Q 34.28125 6.0625 38.453125 11.015625 
Q 42.625 15.96875 42.625 26.375 
Q 42.625 36.28125 38.546875 41.203125 
Q 34.46875 46.140625 28.8125 46.140625 
Q 23.1875 46.140625 18.859375 40.890625 
Q 14.546875 35.640625 14.546875 25.640625 
z
" id="ArialMT-112"/>
      <path d="M 6.203125 -19.96875 
L 5.21875 -11.71875 
Q 8.109375 -12.5 10.25 -12.5 
Q 13.1875 -12.5 14.9375 -11.515625 
Q 16.703125 -10.546875 17.828125 -8.796875 
Q 18.65625 -7.46875 20.515625 -2.25 
Q 20.75 -1.515625 21.296875 -0.09375 
L 1.609375 51.859375 
L 11.078125 51.859375 
L 21.875 21.828125 
Q 23.96875 16.109375 25.640625 9.8125 
Q 27.15625 15.875 29.25 21.625 
L 40.328125 51.859375 
L 49.125 51.859375 
L 29.390625 -0.875 
Q 26.21875 -9.421875 24.46875 -12.640625 
Q 22.125 -17 19.09375 -19.015625 
Q 16.0625 -21.046875 11.859375 -21.046875 
Q 9.328125 -21.046875 6.203125 -19.96875 
z
" id="ArialMT-121"/>
      <path d="M 6.59375 0 
L 6.59375 71.578125 
L 15.375 71.578125 
L 15.375 45.90625 
Q 21.53125 53.03125 30.90625 53.03125 
Q 36.671875 53.03125 40.921875 50.75 
Q 45.171875 48.484375 47 44.484375 
Q 48.828125 40.484375 48.828125 32.859375 
L 48.828125 0 
L 40.046875 0 
L 40.046875 32.859375 
Q 40.046875 39.453125 37.1875 42.453125 
Q 34.328125 45.453125 29.109375 45.453125 
Q 25.203125 45.453125 21.75 43.421875 
Q 18.3125 41.40625 16.84375 37.9375 
Q 15.375 34.46875 15.375 28.375 
L 15.375 0 
z
" id="ArialMT-104"/>
     </defs>
     <g style="fill:#262626;" transform="translate(196.667344 21.90449)scale(0.13 -0.13)">
      <use xlink:href="#ArialMT-116"/>
      <use x="27.783203" xlink:href="#ArialMT-100"/>
      <use x="83.398438" xlink:href="#ArialMT-51"/>
      <use x="139.013672" xlink:href="#ArialMT-45"/>
      <use x="172.314453" xlink:href="#ArialMT-112"/>
      <use x="227.929688" xlink:href="#ArialMT-121"/>
      <use x="277.929688" xlink:href="#ArialMT-84"/>
      <use x="338.841797" xlink:href="#ArialMT-111"/>
      <use x="394.457031" xlink:href="#ArialMT-114"/>
      <use x="427.757812" xlink:href="#ArialMT-99"/>
      <use x="477.757812" xlink:href="#ArialMT-104"/>
     </g>
    </g>
   </g>
  </g>
 </g>
 <defs>
  <clipPath id="pa1529735d2">
   <rect height="128.4308" width="221.8" x="49.4" y="32.4092"/>
  </clipPath>
 </defs>
</svg>
