<?xml version="1.0" encoding="utf-8" standalone="no"?>
<!DOCTYPE svg PUBLIC "-//W3C//DTD SVG 1.1//EN"
  "http://www.w3.org/Graphics/SVG/1.1/DTD/svg11.dtd">
<!-- Created with matplotlib (https://matplotlib.org/) -->
<svg height="198pt" version="1.1" viewBox="0 0 277.2 198" width="277.2pt" xmlns="http://www.w3.org/2000/svg" xmlns:xlink="http://www.w3.org/1999/xlink">
 <defs>
  <style type="text/css">
*{stroke-linecap:butt;stroke-linejoin:round;}
  </style>
 </defs>
 <g id="figure_1">
  <g id="patch_1">
   <path d="M 0 198 
L 277.2 198 
L 277.2 0 
L 0 0 
z
" style="fill:#ffffff;"/>
  </g>
  <g id="axes_1">
   <g id="patch_2">
    <path d="M 49.4 160.84 
L 271.2 160.84 
L 271.2 32.4092 
L 49.4 32.4092 
z
" style="fill:#eaeaf2;"/>
   </g>
   <g id="matplotlib.axis_1">
    <g id="xtick_1">
     <g id="line2d_1">
      <path clip-path="url(#p99eafc5894)" d="M 85.748569 160.84 
L 85.748569 32.4092 
" style="fill:none;stroke:#ffffff;stroke-linecap:round;"/>
     </g>
     <g id="line2d_2"/>
     <g id="text_1">
      <!-- 0.5 -->
      <defs>
       <path d="M 4.15625 35.296875 
Q 4.15625 48 6.765625 55.734375 
Q 9.375 63.484375 14.515625 67.671875 
Q 19.671875 71.875 27.484375 71.875 
Q 33.25 71.875 37.59375 69.546875 
Q 41.9375 67.234375 44.765625 62.859375 
Q 47.609375 58.5 49.21875 52.21875 
Q 50.828125 45.953125 50.828125 35.296875 
Q 50.828125 22.703125 48.234375 14.96875 
Q 45.65625 7.234375 40.5 3 
Q 35.359375 -1.21875 27.484375 -1.21875 
Q 17.140625 -1.21875 11.234375 6.203125 
Q 4.15625 15.140625 4.15625 35.296875 
z
M 13.1875 35.296875 
Q 13.1875 17.671875 17.3125 11.828125 
Q 21.4375 6 27.484375 6 
Q 33.546875 6 37.671875 11.859375 
Q 41.796875 17.71875 41.796875 35.296875 
Q 41.796875 52.984375 37.671875 58.78125 
Q 33.546875 64.59375 27.390625 64.59375 
Q 21.34375 64.59375 17.71875 59.46875 
Q 13.1875 52.9375 13.1875 35.296875 
z
" id="ArialMT-48"/>
       <path d="M 9.078125 0 
L 9.078125 10.015625 
L 19.09375 10.015625 
L 19.09375 0 
z
" id="ArialMT-46"/>
       <path d="M 4.15625 18.75 
L 13.375 19.53125 
Q 14.40625 12.796875 18.140625 9.390625 
Q 21.875 6 27.15625 6 
Q 33.5 6 37.890625 10.78125 
Q 42.28125 15.578125 42.28125 23.484375 
Q 42.28125 31 38.0625 35.34375 
Q 33.84375 39.703125 27 39.703125 
Q 22.75 39.703125 19.328125 37.765625 
Q 15.921875 35.84375 13.96875 32.765625 
L 5.71875 33.84375 
L 12.640625 70.609375 
L 48.25 70.609375 
L 48.25 62.203125 
L 19.671875 62.203125 
L 15.828125 42.96875 
Q 22.265625 47.46875 29.34375 47.46875 
Q 38.71875 47.46875 45.15625 40.96875 
Q 51.609375 34.46875 51.609375 24.265625 
Q 51.609375 14.546875 45.953125 7.46875 
Q 39.0625 -1.21875 27.15625 -1.21875 
Q 17.390625 -1.21875 11.203125 4.25 
Q 5.03125 9.71875 4.15625 18.75 
z
" id="ArialMT-53"/>
      </defs>
      <g style="fill:#262626;" transform="translate(78.798569 174.997813)scale(0.1 -0.1)">
       <use xlink:href="#ArialMT-48"/>
       <use x="55.615234" xlink:href="#ArialMT-46"/>
       <use x="83.398438" xlink:href="#ArialMT-53"/>
      </g>
     </g>
    </g>
    <g id="xtick_2">
     <g id="line2d_3">
      <path clip-path="url(#p99eafc5894)" d="M 122.83887 160.84 
L 122.83887 32.4092 
" style="fill:none;stroke:#ffffff;stroke-linecap:round;"/>
     </g>
     <g id="line2d_4"/>
     <g id="text_2">
      <!-- 1.0 -->
      <defs>
       <path d="M 37.25 0 
L 28.46875 0 
L 28.46875 56 
Q 25.296875 52.984375 20.140625 49.953125 
Q 14.984375 46.921875 10.890625 45.40625 
L 10.890625 53.90625 
Q 18.265625 57.375 23.78125 62.296875 
Q 29.296875 67.234375 31.59375 71.875 
L 37.25 71.875 
z
" id="ArialMT-49"/>
      </defs>
      <g style="fill:#262626;" transform="translate(115.88887 174.997813)scale(0.1 -0.1)">
       <use xlink:href="#ArialMT-49"/>
       <use x="55.615234" xlink:href="#ArialMT-46"/>
       <use x="83.398438" xlink:href="#ArialMT-48"/>
      </g>
     </g>
    </g>
    <g id="xtick_3">
     <g id="line2d_5">
      <path clip-path="url(#p99eafc5894)" d="M 159.929171 160.84 
L 159.929171 32.4092 
" style="fill:none;stroke:#ffffff;stroke-linecap:round;"/>
     </g>
     <g id="line2d_6"/>
     <g id="text_3">
      <!-- 1.5 -->
      <g style="fill:#262626;" transform="translate(152.979171 174.997813)scale(0.1 -0.1)">
       <use xlink:href="#ArialMT-49"/>
       <use x="55.615234" xlink:href="#ArialMT-46"/>
       <use x="83.398438" xlink:href="#ArialMT-53"/>
      </g>
     </g>
    </g>
    <g id="xtick_4">
     <g id="line2d_7">
      <path clip-path="url(#p99eafc5894)" d="M 197.019472 160.84 
L 197.019472 32.4092 
" style="fill:none;stroke:#ffffff;stroke-linecap:round;"/>
     </g>
     <g id="line2d_8"/>
     <g id="text_4">
      <!-- 2.0 -->
      <defs>
       <path d="M 50.34375 8.453125 
L 50.34375 0 
L 3.03125 0 
Q 2.9375 3.171875 4.046875 6.109375 
Q 5.859375 10.9375 9.828125 15.625 
Q 13.8125 20.3125 21.34375 26.46875 
Q 33.015625 36.03125 37.109375 41.625 
Q 41.21875 47.21875 41.21875 52.203125 
Q 41.21875 57.421875 37.46875 61 
Q 33.734375 64.59375 27.734375 64.59375 
Q 21.390625 64.59375 17.578125 60.78125 
Q 13.765625 56.984375 13.71875 50.25 
L 4.6875 51.171875 
Q 5.609375 61.28125 11.65625 66.578125 
Q 17.71875 71.875 27.9375 71.875 
Q 38.234375 71.875 44.234375 66.15625 
Q 50.25 60.453125 50.25 52 
Q 50.25 47.703125 48.484375 43.546875 
Q 46.734375 39.40625 42.65625 34.8125 
Q 38.578125 30.21875 29.109375 22.21875 
Q 21.1875 15.578125 18.9375 13.203125 
Q 16.703125 10.84375 15.234375 8.453125 
z
" id="ArialMT-50"/>
      </defs>
      <g style="fill:#262626;" transform="translate(190.069472 174.997813)scale(0.1 -0.1)">
       <use xlink:href="#ArialMT-50"/>
       <use x="55.615234" xlink:href="#ArialMT-46"/>
       <use x="83.398438" xlink:href="#ArialMT-48"/>
      </g>
     </g>
    </g>
    <g id="xtick_5">
     <g id="line2d_9">
      <path clip-path="url(#p99eafc5894)" d="M 234.109773 160.84 
L 234.109773 32.4092 
" style="fill:none;stroke:#ffffff;stroke-linecap:round;"/>
     </g>
     <g id="line2d_10"/>
     <g id="text_5">
      <!-- 2.5 -->
      <g style="fill:#262626;" transform="translate(227.159773 174.997813)scale(0.1 -0.1)">
       <use xlink:href="#ArialMT-50"/>
       <use x="55.615234" xlink:href="#ArialMT-46"/>
       <use x="83.398438" xlink:href="#ArialMT-53"/>
      </g>
     </g>
    </g>
    <g id="text_6">
     <!-- TotalEnvInteracts -->
     <defs>
      <path d="M 25.921875 0 
L 25.921875 63.140625 
L 2.34375 63.140625 
L 2.34375 71.578125 
L 59.078125 71.578125 
L 59.078125 63.140625 
L 35.40625 63.140625 
L 35.40625 0 
z
" id="ArialMT-84"/>
      <path d="M 3.328125 25.921875 
Q 3.328125 40.328125 11.328125 47.265625 
Q 18.015625 53.03125 27.640625 53.03125 
Q 38.328125 53.03125 45.109375 46.015625 
Q 51.90625 39.015625 51.90625 26.65625 
Q 51.90625 16.65625 48.90625 10.90625 
Q 45.90625 5.171875 40.15625 2 
Q 34.421875 -1.171875 27.640625 -1.171875 
Q 16.75 -1.171875 10.03125 5.8125 
Q 3.328125 12.796875 3.328125 25.921875 
z
M 12.359375 25.921875 
Q 12.359375 15.96875 16.703125 11.015625 
Q 21.046875 6.0625 27.640625 6.0625 
Q 34.1875 6.0625 38.53125 11.03125 
Q 42.875 16.015625 42.875 26.21875 
Q 42.875 35.84375 38.5 40.796875 
Q 34.125 45.75 27.640625 45.75 
Q 21.046875 45.75 16.703125 40.8125 
Q 12.359375 35.890625 12.359375 25.921875 
z
" id="ArialMT-111"/>
      <path d="M 25.78125 7.859375 
L 27.046875 0.09375 
Q 23.34375 -0.6875 20.40625 -0.6875 
Q 15.625 -0.6875 12.984375 0.828125 
Q 10.359375 2.34375 9.28125 4.8125 
Q 8.203125 7.28125 8.203125 15.1875 
L 8.203125 45.015625 
L 1.765625 45.015625 
L 1.765625 51.859375 
L 8.203125 51.859375 
L 8.203125 64.703125 
L 16.9375 69.96875 
L 16.9375 51.859375 
L 25.78125 51.859375 
L 25.78125 45.015625 
L 16.9375 45.015625 
L 16.9375 14.703125 
Q 16.9375 10.9375 17.40625 9.859375 
Q 17.875 8.796875 18.921875 8.15625 
Q 19.96875 7.515625 21.921875 7.515625 
Q 23.390625 7.515625 25.78125 7.859375 
z
" id="ArialMT-116"/>
      <path d="M 40.4375 6.390625 
Q 35.546875 2.25 31.03125 0.53125 
Q 26.515625 -1.171875 21.34375 -1.171875 
Q 12.796875 -1.171875 8.203125 3 
Q 3.609375 7.171875 3.609375 13.671875 
Q 3.609375 17.484375 5.34375 20.625 
Q 7.078125 23.78125 9.890625 25.6875 
Q 12.703125 27.59375 16.21875 28.5625 
Q 18.796875 29.25 24.03125 29.890625 
Q 34.671875 31.15625 39.703125 32.90625 
Q 39.75 34.71875 39.75 35.203125 
Q 39.75 40.578125 37.25 42.78125 
Q 33.890625 45.75 27.25 45.75 
Q 21.046875 45.75 18.09375 43.578125 
Q 15.140625 41.40625 13.71875 35.890625 
L 5.125 37.0625 
Q 6.296875 42.578125 8.984375 45.96875 
Q 11.671875 49.359375 16.75 51.1875 
Q 21.828125 53.03125 28.515625 53.03125 
Q 35.15625 53.03125 39.296875 51.46875 
Q 43.453125 49.90625 45.40625 47.53125 
Q 47.359375 45.171875 48.140625 41.546875 
Q 48.578125 39.3125 48.578125 33.453125 
L 48.578125 21.734375 
Q 48.578125 9.46875 49.140625 6.21875 
Q 49.703125 2.984375 51.375 0 
L 42.1875 0 
Q 40.828125 2.734375 40.4375 6.390625 
z
M 39.703125 26.03125 
Q 34.90625 24.078125 25.34375 22.703125 
Q 19.921875 21.921875 17.671875 20.9375 
Q 15.4375 19.96875 14.203125 18.09375 
Q 12.984375 16.21875 12.984375 13.921875 
Q 12.984375 10.40625 15.640625 8.0625 
Q 18.3125 5.71875 23.4375 5.71875 
Q 28.515625 5.71875 32.46875 7.9375 
Q 36.421875 10.15625 38.28125 14.015625 
Q 39.703125 17 39.703125 22.796875 
z
" id="ArialMT-97"/>
      <path d="M 6.390625 0 
L 6.390625 71.578125 
L 15.1875 71.578125 
L 15.1875 0 
z
" id="ArialMT-108"/>
      <path d="M 7.90625 0 
L 7.90625 71.578125 
L 59.671875 71.578125 
L 59.671875 63.140625 
L 17.390625 63.140625 
L 17.390625 41.21875 
L 56.984375 41.21875 
L 56.984375 32.8125 
L 17.390625 32.8125 
L 17.390625 8.453125 
L 61.328125 8.453125 
L 61.328125 0 
z
" id="ArialMT-69"/>
      <path d="M 6.59375 0 
L 6.59375 51.859375 
L 14.5 51.859375 
L 14.5 44.484375 
Q 20.21875 53.03125 31 53.03125 
Q 35.6875 53.03125 39.625 51.34375 
Q 43.5625 49.65625 45.515625 46.921875 
Q 47.46875 44.1875 48.25 40.4375 
Q 48.734375 37.984375 48.734375 31.890625 
L 48.734375 0 
L 39.9375 0 
L 39.9375 31.546875 
Q 39.9375 36.921875 38.90625 39.578125 
Q 37.890625 42.234375 35.28125 43.8125 
Q 32.671875 45.40625 29.15625 45.40625 
Q 23.53125 45.40625 19.453125 41.84375 
Q 15.375 38.28125 15.375 28.328125 
L 15.375 0 
z
" id="ArialMT-110"/>
      <path d="M 21 0 
L 1.265625 51.859375 
L 10.546875 51.859375 
L 21.6875 20.796875 
Q 23.484375 15.765625 25 10.359375 
Q 26.171875 14.453125 28.265625 20.21875 
L 39.796875 51.859375 
L 48.828125 51.859375 
L 29.203125 0 
z
" id="ArialMT-118"/>
      <path d="M 9.328125 0 
L 9.328125 71.578125 
L 18.796875 71.578125 
L 18.796875 0 
z
" id="ArialMT-73"/>
      <path d="M 42.09375 16.703125 
L 51.171875 15.578125 
Q 49.03125 7.625 43.21875 3.21875 
Q 37.40625 -1.171875 28.375 -1.171875 
Q 17 -1.171875 10.328125 5.828125 
Q 3.65625 12.84375 3.65625 25.484375 
Q 3.65625 38.578125 10.390625 45.796875 
Q 17.140625 53.03125 27.875 53.03125 
Q 38.28125 53.03125 44.875 45.953125 
Q 51.46875 38.875 51.46875 26.03125 
Q 51.46875 25.25 51.421875 23.6875 
L 12.75 23.6875 
Q 13.234375 15.140625 17.578125 10.59375 
Q 21.921875 6.0625 28.421875 6.0625 
Q 33.25 6.0625 36.671875 8.59375 
Q 40.09375 11.140625 42.09375 16.703125 
z
M 13.234375 30.90625 
L 42.1875 30.90625 
Q 41.609375 37.453125 38.875 40.71875 
Q 34.671875 45.796875 27.984375 45.796875 
Q 21.921875 45.796875 17.796875 41.75 
Q 13.671875 37.703125 13.234375 30.90625 
z
" id="ArialMT-101"/>
      <path d="M 6.5 0 
L 6.5 51.859375 
L 14.40625 51.859375 
L 14.40625 44 
Q 17.4375 49.515625 20 51.265625 
Q 22.5625 53.03125 25.640625 53.03125 
Q 30.078125 53.03125 34.671875 50.203125 
L 31.640625 42.046875 
Q 28.421875 43.953125 25.203125 43.953125 
Q 22.3125 43.953125 20.015625 42.21875 
Q 17.71875 40.484375 16.75 37.40625 
Q 15.28125 32.71875 15.28125 27.15625 
L 15.28125 0 
z
" id="ArialMT-114"/>
      <path d="M 40.4375 19 
L 49.078125 17.875 
Q 47.65625 8.9375 41.8125 3.875 
Q 35.984375 -1.171875 27.484375 -1.171875 
Q 16.84375 -1.171875 10.375 5.78125 
Q 3.90625 12.75 3.90625 25.734375 
Q 3.90625 34.125 6.6875 40.421875 
Q 9.46875 46.734375 15.15625 49.875 
Q 20.84375 53.03125 27.546875 53.03125 
Q 35.984375 53.03125 41.359375 48.75 
Q 46.734375 44.484375 48.25 36.625 
L 39.703125 35.296875 
Q 38.484375 40.53125 35.375 43.15625 
Q 32.28125 45.796875 27.875 45.796875 
Q 21.234375 45.796875 17.078125 41.03125 
Q 12.9375 36.28125 12.9375 25.984375 
Q 12.9375 15.53125 16.9375 10.796875 
Q 20.953125 6.0625 27.390625 6.0625 
Q 32.5625 6.0625 36.03125 9.234375 
Q 39.5 12.40625 40.4375 19 
z
" id="ArialMT-99"/>
      <path d="M 3.078125 15.484375 
L 11.765625 16.84375 
Q 12.5 11.625 15.84375 8.84375 
Q 19.1875 6.0625 25.203125 6.0625 
Q 31.25 6.0625 34.171875 8.515625 
Q 37.109375 10.984375 37.109375 14.3125 
Q 37.109375 17.28125 34.515625 19 
Q 32.71875 20.171875 25.53125 21.96875 
Q 15.875 24.421875 12.140625 26.203125 
Q 8.40625 27.984375 6.46875 31.125 
Q 4.546875 34.28125 4.546875 38.09375 
Q 4.546875 41.546875 6.125 44.5 
Q 7.71875 47.46875 10.453125 49.421875 
Q 12.5 50.921875 16.03125 51.96875 
Q 19.578125 53.03125 23.640625 53.03125 
Q 29.734375 53.03125 34.34375 51.265625 
Q 38.96875 49.515625 41.15625 46.5 
Q 43.359375 43.5 44.1875 38.484375 
L 35.59375 37.3125 
Q 35.015625 41.3125 32.203125 43.546875 
Q 29.390625 45.796875 24.265625 45.796875 
Q 18.21875 45.796875 15.625 43.796875 
Q 13.03125 41.796875 13.03125 39.109375 
Q 13.03125 37.40625 14.109375 36.03125 
Q 15.1875 34.625 17.484375 33.6875 
Q 18.796875 33.203125 25.25 31.453125 
Q 34.578125 28.953125 38.25 27.359375 
Q 41.9375 25.78125 44.03125 22.75 
Q 46.140625 19.734375 46.140625 15.234375 
Q 46.140625 10.84375 43.578125 6.953125 
Q 41.015625 3.078125 36.171875 0.953125 
Q 31.34375 -1.171875 25.25 -1.171875 
Q 15.140625 -1.171875 9.84375 3.03125 
Q 4.546875 7.234375 3.078125 15.484375 
z
" id="ArialMT-115"/>
     </defs>
     <g style="fill:#262626;" transform="translate(117.515156 188.858906)scale(0.11 -0.11)">
      <use xlink:href="#ArialMT-84"/>
      <use x="60.912109" xlink:href="#ArialMT-111"/>
      <use x="116.527344" xlink:href="#ArialMT-116"/>
      <use x="144.310547" xlink:href="#ArialMT-97"/>
      <use x="199.925781" xlink:href="#ArialMT-108"/>
      <use x="222.142578" xlink:href="#ArialMT-69"/>
      <use x="288.841797" xlink:href="#ArialMT-110"/>
      <use x="344.457031" xlink:href="#ArialMT-118"/>
      <use x="394.457031" xlink:href="#ArialMT-73"/>
      <use x="422.240234" xlink:href="#ArialMT-110"/>
      <use x="477.855469" xlink:href="#ArialMT-116"/>
      <use x="505.638672" xlink:href="#ArialMT-101"/>
      <use x="561.253906" xlink:href="#ArialMT-114"/>
      <use x="594.554688" xlink:href="#ArialMT-97"/>
      <use x="650.169922" xlink:href="#ArialMT-99"/>
      <use x="700.169922" xlink:href="#ArialMT-116"/>
      <use x="727.953125" xlink:href="#ArialMT-115"/>
     </g>
    </g>
    <g id="text_7">
     <!-- 1e6 -->
     <defs>
      <path d="M 49.75 54.046875 
L 41.015625 53.375 
Q 39.84375 58.546875 37.703125 60.890625 
Q 34.125 64.65625 28.90625 64.65625 
Q 24.703125 64.65625 21.53125 62.3125 
Q 17.390625 59.28125 14.984375 53.46875 
Q 12.59375 47.65625 12.5 36.921875 
Q 15.671875 41.75 20.265625 44.09375 
Q 24.859375 46.4375 29.890625 46.4375 
Q 38.671875 46.4375 44.84375 39.96875 
Q 51.03125 33.5 51.03125 23.25 
Q 51.03125 16.5 48.125 10.71875 
Q 45.21875 4.9375 40.140625 1.859375 
Q 35.0625 -1.21875 28.609375 -1.21875 
Q 17.625 -1.21875 10.6875 6.859375 
Q 3.765625 14.9375 3.765625 33.5 
Q 3.765625 54.25 11.421875 63.671875 
Q 18.109375 71.875 29.4375 71.875 
Q 37.890625 71.875 43.28125 67.140625 
Q 48.6875 62.40625 49.75 54.046875 
z
M 13.875 23.1875 
Q 13.875 18.65625 15.796875 14.5 
Q 17.71875 10.359375 21.1875 8.171875 
Q 24.65625 6 28.46875 6 
Q 34.03125 6 38.03125 10.484375 
Q 42.046875 14.984375 42.046875 22.703125 
Q 42.046875 30.125 38.078125 34.390625 
Q 34.125 38.671875 28.125 38.671875 
Q 22.171875 38.671875 18.015625 34.390625 
Q 13.875 30.125 13.875 23.1875 
z
" id="ArialMT-54"/>
     </defs>
     <g style="fill:#262626;" transform="translate(254.517187 187.143125)scale(0.1 -0.1)">
      <use xlink:href="#ArialMT-49"/>
      <use x="55.615234" xlink:href="#ArialMT-101"/>
      <use x="111.230469" xlink:href="#ArialMT-54"/>
     </g>
    </g>
   </g>
   <g id="matplotlib.axis_2">
    <g id="ytick_1">
     <g id="line2d_11">
      <path clip-path="url(#p99eafc5894)" d="M 49.4 158.396264 
L 271.2 158.396264 
" style="fill:none;stroke:#ffffff;stroke-linecap:round;"/>
     </g>
     <g id="line2d_12"/>
     <g id="text_8">
      <!-- 0 -->
      <g style="fill:#262626;" transform="translate(36.839062 161.97517)scale(0.1 -0.1)">
       <use xlink:href="#ArialMT-48"/>
      </g>
     </g>
    </g>
    <g id="ytick_2">
     <g id="line2d_13">
      <path clip-path="url(#p99eafc5894)" d="M 49.4 136.682903 
L 271.2 136.682903 
" style="fill:none;stroke:#ffffff;stroke-linecap:round;"/>
     </g>
     <g id="line2d_14"/>
     <g id="text_9">
      <!-- 1000 -->
      <g style="fill:#262626;" transform="translate(20.15625 140.26181)scale(0.1 -0.1)">
       <use xlink:href="#ArialMT-49"/>
       <use x="55.615234" xlink:href="#ArialMT-48"/>
       <use x="111.230469" xlink:href="#ArialMT-48"/>
       <use x="166.845703" xlink:href="#ArialMT-48"/>
      </g>
     </g>
    </g>
    <g id="ytick_3">
     <g id="line2d_15">
      <path clip-path="url(#p99eafc5894)" d="M 49.4 114.969543 
L 271.2 114.969543 
" style="fill:none;stroke:#ffffff;stroke-linecap:round;"/>
     </g>
     <g id="line2d_16"/>
     <g id="text_10">
      <!-- 2000 -->
      <g style="fill:#262626;" transform="translate(20.15625 118.54845)scale(0.1 -0.1)">
       <use xlink:href="#ArialMT-50"/>
       <use x="55.615234" xlink:href="#ArialMT-48"/>
       <use x="111.230469" xlink:href="#ArialMT-48"/>
       <use x="166.845703" xlink:href="#ArialMT-48"/>
      </g>
     </g>
    </g>
    <g id="ytick_4">
     <g id="line2d_17">
      <path clip-path="url(#p99eafc5894)" d="M 49.4 93.256183 
L 271.2 93.256183 
" style="fill:none;stroke:#ffffff;stroke-linecap:round;"/>
     </g>
     <g id="line2d_18"/>
     <g id="text_11">
      <!-- 3000 -->
      <defs>
       <path d="M 4.203125 18.890625 
L 12.984375 20.0625 
Q 14.5 12.59375 18.140625 9.296875 
Q 21.78125 6 27 6 
Q 33.203125 6 37.46875 10.296875 
Q 41.75 14.59375 41.75 20.953125 
Q 41.75 27 37.796875 30.921875 
Q 33.84375 34.859375 27.734375 34.859375 
Q 25.25 34.859375 21.53125 33.890625 
L 22.515625 41.609375 
Q 23.390625 41.5 23.921875 41.5 
Q 29.546875 41.5 34.03125 44.421875 
Q 38.53125 47.359375 38.53125 53.46875 
Q 38.53125 58.296875 35.25 61.46875 
Q 31.984375 64.65625 26.8125 64.65625 
Q 21.6875 64.65625 18.265625 61.421875 
Q 14.84375 58.203125 13.875 51.765625 
L 5.078125 53.328125 
Q 6.6875 62.15625 12.390625 67.015625 
Q 18.109375 71.875 26.609375 71.875 
Q 32.46875 71.875 37.390625 69.359375 
Q 42.328125 66.84375 44.9375 62.5 
Q 47.5625 58.15625 47.5625 53.265625 
Q 47.5625 48.640625 45.0625 44.828125 
Q 42.578125 41.015625 37.703125 38.765625 
Q 44.046875 37.3125 47.5625 32.6875 
Q 51.078125 28.078125 51.078125 21.140625 
Q 51.078125 11.765625 44.234375 5.25 
Q 37.40625 -1.265625 26.953125 -1.265625 
Q 17.53125 -1.265625 11.296875 4.34375 
Q 5.078125 9.96875 4.203125 18.890625 
z
" id="ArialMT-51"/>
      </defs>
      <g style="fill:#262626;" transform="translate(20.15625 96.835089)scale(0.1 -0.1)">
       <use xlink:href="#ArialMT-51"/>
       <use x="55.615234" xlink:href="#ArialMT-48"/>
       <use x="111.230469" xlink:href="#ArialMT-48"/>
       <use x="166.845703" xlink:href="#ArialMT-48"/>
      </g>
     </g>
    </g>
    <g id="ytick_5">
     <g id="line2d_19">
      <path clip-path="url(#p99eafc5894)" d="M 49.4 71.542823 
L 271.2 71.542823 
" style="fill:none;stroke:#ffffff;stroke-linecap:round;"/>
     </g>
     <g id="line2d_20"/>
     <g id="text_12">
      <!-- 4000 -->
      <defs>
       <path d="M 32.328125 0 
L 32.328125 17.140625 
L 1.265625 17.140625 
L 1.265625 25.203125 
L 33.9375 71.578125 
L 41.109375 71.578125 
L 41.109375 25.203125 
L 50.78125 25.203125 
L 50.78125 17.140625 
L 41.109375 17.140625 
L 41.109375 0 
z
M 32.328125 25.203125 
L 32.328125 57.46875 
L 9.90625 25.203125 
z
" id="ArialMT-52"/>
      </defs>
      <g style="fill:#262626;" transform="translate(20.15625 75.121729)scale(0.1 -0.1)">
       <use xlink:href="#ArialMT-52"/>
       <use x="55.615234" xlink:href="#ArialMT-48"/>
       <use x="111.230469" xlink:href="#ArialMT-48"/>
       <use x="166.845703" xlink:href="#ArialMT-48"/>
      </g>
     </g>
    </g>
    <g id="ytick_6">
     <g id="line2d_21">
      <path clip-path="url(#p99eafc5894)" d="M 49.4 49.829463 
L 271.2 49.829463 
" style="fill:none;stroke:#ffffff;stroke-linecap:round;"/>
     </g>
     <g id="line2d_22"/>
     <g id="text_13">
      <!-- 5000 -->
      <g style="fill:#262626;" transform="translate(20.15625 53.408369)scale(0.1 -0.1)">
       <use xlink:href="#ArialMT-53"/>
       <use x="55.615234" xlink:href="#ArialMT-48"/>
       <use x="111.230469" xlink:href="#ArialMT-48"/>
       <use x="166.845703" xlink:href="#ArialMT-48"/>
      </g>
     </g>
    </g>
    <g id="text_14">
     <!-- Performance -->
     <defs>
      <path d="M 7.71875 0 
L 7.71875 71.578125 
L 34.71875 71.578125 
Q 41.84375 71.578125 45.609375 70.90625 
Q 50.875 70.015625 54.4375 67.546875 
Q 58.015625 65.09375 60.1875 60.640625 
Q 62.359375 56.203125 62.359375 50.875 
Q 62.359375 41.75 56.546875 35.421875 
Q 50.734375 29.109375 35.546875 29.109375 
L 17.1875 29.109375 
L 17.1875 0 
z
M 17.1875 37.546875 
L 35.6875 37.546875 
Q 44.875 37.546875 48.734375 40.96875 
Q 52.59375 44.390625 52.59375 50.59375 
Q 52.59375 55.078125 50.3125 58.265625 
Q 48.046875 61.46875 44.34375 62.5 
Q 41.9375 63.140625 35.5 63.140625 
L 17.1875 63.140625 
z
" id="ArialMT-80"/>
      <path d="M 8.6875 0 
L 8.6875 45.015625 
L 0.921875 45.015625 
L 0.921875 51.859375 
L 8.6875 51.859375 
L 8.6875 57.375 
Q 8.6875 62.59375 9.625 65.140625 
Q 10.890625 68.5625 14.078125 70.671875 
Q 17.28125 72.796875 23.046875 72.796875 
Q 26.765625 72.796875 31.25 71.921875 
L 29.9375 64.265625 
Q 27.203125 64.75 24.75 64.75 
Q 20.75 64.75 19.09375 63.03125 
Q 17.4375 61.328125 17.4375 56.640625 
L 17.4375 51.859375 
L 27.546875 51.859375 
L 27.546875 45.015625 
L 17.4375 45.015625 
L 17.4375 0 
z
" id="ArialMT-102"/>
      <path d="M 6.59375 0 
L 6.59375 51.859375 
L 14.453125 51.859375 
L 14.453125 44.578125 
Q 16.890625 48.390625 20.9375 50.703125 
Q 25 53.03125 30.171875 53.03125 
Q 35.9375 53.03125 39.625 50.640625 
Q 43.3125 48.25 44.828125 43.953125 
Q 50.984375 53.03125 60.84375 53.03125 
Q 68.5625 53.03125 72.703125 48.75 
Q 76.859375 44.484375 76.859375 35.59375 
L 76.859375 0 
L 68.109375 0 
L 68.109375 32.671875 
Q 68.109375 37.9375 67.25 40.25 
Q 66.40625 42.578125 64.15625 43.984375 
Q 61.921875 45.40625 58.890625 45.40625 
Q 53.421875 45.40625 49.796875 41.765625 
Q 46.1875 38.140625 46.1875 30.125 
L 46.1875 0 
L 37.40625 0 
L 37.40625 33.6875 
Q 37.40625 39.546875 35.25 42.46875 
Q 33.109375 45.40625 28.21875 45.40625 
Q 24.515625 45.40625 21.359375 43.453125 
Q 18.21875 41.5 16.796875 37.734375 
Q 15.375 33.984375 15.375 26.90625 
L 15.375 0 
z
" id="ArialMT-109"/>
     </defs>
     <g style="fill:#262626;" transform="translate(13.97 128.107803)rotate(-90)scale(0.11 -0.11)">
      <use xlink:href="#ArialMT-80"/>
      <use x="66.699219" xlink:href="#ArialMT-101"/>
      <use x="122.314453" xlink:href="#ArialMT-114"/>
      <use x="155.615234" xlink:href="#ArialMT-102"/>
      <use x="183.398438" xlink:href="#ArialMT-111"/>
      <use x="239.013672" xlink:href="#ArialMT-114"/>
      <use x="272.314453" xlink:href="#ArialMT-109"/>
      <use x="355.615234" xlink:href="#ArialMT-97"/>
      <use x="411.230469" xlink:href="#ArialMT-110"/>
      <use x="466.845703" xlink:href="#ArialMT-99"/>
      <use x="516.845703" xlink:href="#ArialMT-101"/>
     </g>
    </g>
   </g>
   <g id="PolyCollection_1">
    <path clip-path="url(#p99eafc5894)" d="M 49.4 152.470358 
L 49.4 155.002236 
L 50.141806 154.750031 
L 50.883612 154.446471 
L 51.625418 153.949005 
L 52.367224 153.84762 
L 53.10903 153.962886 
L 53.850836 153.642037 
L 54.592642 153.358672 
L 55.334448 153.326183 
L 56.076254 153.131393 
L 56.81806 153.47137 
L 57.559866 153.760849 
L 58.301672 153.788615 
L 59.043478 153.854508 
L 59.785284 153.880498 
L 60.52709 153.700784 
L 61.268896 153.514991 
L 62.010702 152.289773 
L 62.752508 151.603768 
L 63.494314 151.324088 
L 64.23612 150.000365 
L 64.977926 148.41096 
L 65.719732 146.527695 
L 66.461538 144.937614 
L 67.203344 143.43781 
L 67.945151 141.603425 
L 68.686957 139.587011 
L 69.428763 137.749969 
L 70.170569 135.491159 
L 70.912375 132.453519 
L 71.654181 130.565085 
L 72.395987 127.703041 
L 73.137793 125.700097 
L 73.879599 123.253727 
L 74.621405 120.636832 
L 75.363211 118.441269 
L 76.105017 116.189719 
L 76.846823 115.12592 
L 77.588629 113.949808 
L 78.330435 112.3341 
L 79.072241 110.836418 
L 79.814047 108.995253 
L 80.555853 107.445258 
L 81.297659 105.533231 
L 82.039465 103.657075 
L 82.781271 102.932339 
L 83.523077 102.780314 
L 84.264883 101.961527 
L 85.006689 100.700814 
L 85.748495 100.785007 
L 86.490301 98.859747 
L 87.232107 98.892377 
L 87.973913 97.892593 
L 88.715719 97.343312 
L 89.457525 96.658605 
L 90.199331 96.576168 
L 90.941137 96.231198 
L 91.682943 94.858722 
L 92.424749 94.246708 
L 93.166555 92.561796 
L 93.908361 90.741173 
L 94.650167 91.35114 
L 95.391973 90.752602 
L 96.133779 90.306006 
L 96.875585 90.026345 
L 97.617391 89.669332 
L 98.359197 88.698842 
L 99.101003 86.98504 
L 99.842809 86.245701 
L 100.584615 85.871866 
L 101.326421 85.946682 
L 102.068227 85.598515 
L 102.810033 84.713685 
L 103.551839 84.217064 
L 104.293645 84.395191 
L 105.035452 84.076874 
L 105.777258 83.801312 
L 106.519064 82.900708 
L 107.26087 83.228432 
L 108.002676 85.018267 
L 108.744482 86.08055 
L 109.486288 87.988406 
L 110.228094 88.114166 
L 110.9699 87.80862 
L 111.711706 88.104338 
L 112.453512 87.873431 
L 113.195318 87.67605 
L 113.937124 87.85766 
L 114.67893 87.941819 
L 115.420736 88.645191 
L 116.162542 86.042094 
L 116.904348 83.942619 
L 117.646154 82.189013 
L 118.38796 81.934831 
L 119.129766 81.765125 
L 119.871572 81.37057 
L 120.613378 81.058131 
L 121.355184 80.996768 
L 122.09699 80.912843 
L 122.838796 80.684655 
L 123.580602 80.749833 
L 124.322408 82.209148 
L 125.064214 83.93925 
L 125.80602 85.39892 
L 126.547826 86.055222 
L 127.289632 88.13316 
L 128.031438 89.193866 
L 128.773244 90.105857 
L 129.51505 90.247744 
L 130.256856 89.971239 
L 130.998662 90.864374 
L 131.740468 89.377665 
L 132.482274 87.662998 
L 133.22408 86.109789 
L 133.965886 85.649153 
L 134.707692 84.782451 
L 135.449498 83.730402 
L 136.191304 82.673398 
L 136.93311 82.255626 
L 137.674916 81.82852 
L 138.416722 81.62209 
L 139.158528 80.077889 
L 139.900334 78.732793 
L 140.64214 78.514186 
L 141.383946 78.462705 
L 142.125753 77.325899 
L 142.867559 76.881858 
L 143.609365 76.486923 
L 144.351171 76.834117 
L 145.092977 76.687417 
L 145.834783 77.05532 
L 146.576589 76.898729 
L 147.318395 76.932811 
L 148.060201 77.25654 
L 148.802007 78.040602 
L 149.543813 77.82173 
L 150.285619 77.592794 
L 151.027425 77.126946 
L 151.769231 77.166379 
L 152.511037 77.165173 
L 153.252843 77.355701 
L 153.994649 76.942389 
L 154.736455 77.703431 
L 155.478261 77.889921 
L 156.220067 78.600075 
L 156.961873 78.326725 
L 157.703679 77.845729 
L 158.445485 77.629672 
L 159.187291 78.06305 
L 159.929097 77.452215 
L 160.670903 77.124308 
L 161.412709 76.533013 
L 162.154515 76.450922 
L 162.896321 75.42713 
L 163.638127 75.903519 
L 164.379933 74.464223 
L 165.121739 73.979779 
L 165.863545 74.268673 
L 166.605351 75.121524 
L 167.347157 75.072191 
L 168.088963 75.580323 
L 168.830769 75.352768 
L 169.572575 76.293551 
L 170.314381 76.330295 
L 171.056187 75.979646 
L 171.797993 75.027443 
L 172.539799 74.819401 
L 173.281605 74.242225 
L 174.023411 74.078057 
L 174.765217 74.272887 
L 175.507023 74.374298 
L 176.248829 73.765255 
L 176.990635 73.699853 
L 177.732441 72.729745 
L 178.474247 72.666841 
L 179.216054 72.527615 
L 179.95786 72.619026 
L 180.699666 72.562327 
L 181.441472 72.663325 
L 182.183278 72.787528 
L 182.925084 71.364015 
L 183.66689 70.983749 
L 184.408696 71.859757 
L 185.150502 72.016956 
L 185.892308 71.881159 
L 186.634114 71.730122 
L 187.37592 71.640085 
L 188.117726 71.589042 
L 188.859532 71.564383 
L 189.601338 71.723346 
L 190.343144 71.710944 
L 191.08495 71.827773 
L 191.826756 73.291877 
L 192.568562 72.727019 
L 193.310368 72.363001 
L 194.052174 72.229761 
L 194.79398 71.885372 
L 195.535786 71.674955 
L 196.277592 71.686488 
L 197.019398 71.478812 
L 197.761204 71.19346 
L 198.50301 70.912607 
L 199.244816 70.609197 
L 199.986622 69.478817 
L 200.728428 69.185648 
L 201.470234 69.281039 
L 202.21204 69.615335 
L 202.953846 69.898366 
L 203.695652 70.78894 
L 204.437458 71.311906 
L 205.179264 71.175336 
L 205.92107 71.358829 
L 206.662876 71.590912 
L 207.404682 71.529912 
L 208.146488 71.074407 
L 208.888294 71.107975 
L 209.6301 71.150626 
L 210.371906 70.688845 
L 211.113712 70.468696 
L 211.855518 69.538213 
L 212.597324 68.989638 
L 213.33913 69.06839 
L 214.080936 68.730401 
L 214.822742 68.746656 
L 215.564548 68.739186 
L 216.306355 68.600645 
L 217.048161 68.521764 
L 217.789967 68.43677 
L 218.531773 68.610807 
L 219.273579 68.439349 
L 220.015385 68.374748 
L 220.757191 68.4683 
L 221.498997 68.394338 
L 222.240803 68.347218 
L 222.982609 68.599758 
L 223.724415 68.793373 
L 224.466221 69.303431 
L 225.208027 69.223457 
L 225.949833 69.066224 
L 226.691639 68.951646 
L 227.433445 69.074002 
L 228.175251 70.450186 
L 228.917057 70.216431 
L 229.658863 70.400715 
L 230.400669 70.111686 
L 231.142475 69.775961 
L 231.884281 69.679829 
L 232.626087 69.497969 
L 233.367893 69.827516 
L 234.109699 70.155367 
L 234.851505 69.769138 
L 235.593311 69.730674 
L 236.335117 68.386715 
L 237.076923 68.35686 
L 237.818729 68.196717 
L 238.560535 69.660316 
L 239.302341 69.639771 
L 240.044147 69.390973 
L 240.785953 70.075432 
L 241.527759 69.789573 
L 242.269565 69.154593 
L 243.011371 69.720291 
L 243.753177 69.729934 
L 244.494983 70.319629 
L 245.236789 70.397251 
L 245.978595 70.930038 
L 246.720401 69.964446 
L 247.462207 69.825717 
L 248.204013 70.286248 
L 248.945819 70.223448 
L 249.687625 69.763803 
L 250.429431 70.389787 
L 251.171237 69.94404 
L 251.913043 69.782689 
L 252.654849 69.247178 
L 253.396656 69.180902 
L 254.138462 68.676841 
L 254.880268 67.962014 
L 255.622074 68.302183 
L 256.36388 69.0917 
L 257.105686 68.434883 
L 257.847492 68.077615 
L 258.589298 67.747448 
L 259.331104 68.059468 
L 260.07291 68.129896 
L 260.814716 68.130505 
L 261.556522 68.112912 
L 262.298328 68.131672 
L 263.040134 68.507706 
L 263.78194 68.202733 
L 264.523746 66.965755 
L 265.265552 66.499823 
L 266.007358 66.532044 
L 266.749164 66.305553 
L 267.49097 67.775149 
L 268.232776 67.890113 
L 268.974582 68.157247 
L 269.716388 68.709795 
L 270.458194 69.133863 
L 271.2 69.092116 
L 271.2 41.404628 
L 271.2 41.404628 
L 270.458194 41.009619 
L 269.716388 41.002367 
L 268.974582 41.352146 
L 268.232776 41.035524 
L 267.49097 41.013157 
L 266.749164 41.651763 
L 266.007358 41.777297 
L 265.265552 40.786986 
L 264.523746 40.713417 
L 263.78194 42.186898 
L 263.040134 42.213264 
L 262.298328 42.253445 
L 261.556522 43.184846 
L 260.814716 43.09435 
L 260.07291 43.275656 
L 259.331104 43.350414 
L 258.589298 43.342632 
L 257.847492 43.644878 
L 257.105686 43.831371 
L 256.36388 43.843959 
L 255.622074 42.873252 
L 254.880268 42.666368 
L 254.138462 43.54721 
L 253.396656 43.135833 
L 252.654849 43.68797 
L 251.913043 44.11746 
L 251.171237 44.378307 
L 250.429431 45.003486 
L 249.687625 44.150921 
L 248.945819 44.169902 
L 248.204013 44.395712 
L 247.462207 43.862296 
L 246.720401 44.829755 
L 245.978595 44.923999 
L 245.236789 45.029249 
L 244.494983 44.830448 
L 243.753177 44.94467 
L 243.011371 45.129406 
L 242.269565 44.758794 
L 241.527759 45.277835 
L 240.785953 46.197578 
L 240.044147 46.159986 
L 239.302341 46.522549 
L 238.560535 46.06442 
L 237.818729 45.16793 
L 237.076923 45.265473 
L 236.335117 44.82168 
L 235.593311 45.026482 
L 234.851505 44.903077 
L 234.109699 45.741571 
L 233.367893 45.351074 
L 232.626087 44.248781 
L 231.884281 44.373781 
L 231.142475 44.401649 
L 230.400669 46.060082 
L 229.658863 45.910113 
L 228.917057 45.925026 
L 228.175251 46.32942 
L 227.433445 46.269034 
L 226.691639 46.054537 
L 225.949833 45.408681 
L 225.208027 45.65003 
L 224.466221 45.404473 
L 223.724415 45.441122 
L 222.982609 45.307188 
L 222.240803 44.008905 
L 221.498997 44.1602 
L 220.757191 43.91567 
L 220.015385 44.30925 
L 219.273579 44.386911 
L 218.531773 44.729487 
L 217.789967 45.00485 
L 217.048161 45.3357 
L 216.306355 45.761438 
L 215.564548 45.965103 
L 214.822742 46.725986 
L 214.080936 46.988437 
L 213.33913 47.375916 
L 212.597324 47.644894 
L 211.855518 47.912762 
L 211.113712 48.79502 
L 210.371906 48.605121 
L 209.6301 48.296156 
L 208.888294 47.964048 
L 208.146488 48.038418 
L 207.404682 47.699454 
L 206.662876 47.18303 
L 205.92107 46.898448 
L 205.179264 46.55815 
L 204.437458 46.555191 
L 203.695652 46.371088 
L 202.953846 46.071951 
L 202.21204 46.462548 
L 201.470234 46.454464 
L 200.728428 46.405889 
L 199.986622 46.303941 
L 199.244816 46.544503 
L 198.50301 46.672808 
L 197.761204 47.026012 
L 197.019398 47.671195 
L 196.277592 47.542835 
L 195.535786 47.369316 
L 194.79398 46.50636 
L 194.052174 46.508685 
L 193.310368 46.900006 
L 192.568562 47.104198 
L 191.826756 47.830968 
L 191.08495 47.86703 
L 190.343144 47.753881 
L 189.601338 47.814624 
L 188.859532 47.422053 
L 188.117726 47.563847 
L 187.37592 47.628013 
L 186.634114 48.466936 
L 185.892308 48.481849 
L 185.150502 48.289281 
L 184.408696 48.622152 
L 183.66689 48.203689 
L 182.925084 48.420504 
L 182.183278 48.812562 
L 181.441472 48.935004 
L 180.699666 49.343117 
L 179.95786 49.548511 
L 179.216054 50.159308 
L 178.474247 49.896096 
L 177.732441 50.109943 
L 176.990635 50.415843 
L 176.248829 50.431297 
L 175.507023 50.97216 
L 174.765217 50.852839 
L 174.023411 50.117077 
L 173.281605 50.349312 
L 172.539799 50.443718 
L 171.797993 51.125961 
L 171.056187 51.112687 
L 170.314381 51.527001 
L 169.572575 51.526548 
L 168.830769 51.714115 
L 168.088963 51.900299 
L 167.347157 51.720809 
L 166.605351 51.878745 
L 165.863545 52.553764 
L 165.121739 52.45762 
L 164.379933 52.706029 
L 163.638127 52.134518 
L 162.896321 52.252184 
L 162.154515 52.878548 
L 161.412709 52.680923 
L 160.670903 52.581905 
L 159.929097 53.035477 
L 159.187291 54.514229 
L 158.445485 55.482411 
L 157.703679 55.62463 
L 156.961873 56.037348 
L 156.220067 55.945197 
L 155.478261 55.777813 
L 154.736455 55.972313 
L 153.994649 54.779446 
L 153.252843 55.305192 
L 152.511037 55.491984 
L 151.769231 55.241671 
L 151.027425 54.267284 
L 150.285619 53.531466 
L 149.543813 54.353043 
L 148.802007 53.911297 
L 148.060201 54.870568 
L 147.318395 54.925269 
L 146.576589 55.239846 
L 145.834783 55.250188 
L 145.092977 55.008807 
L 144.351171 54.813162 
L 143.609365 54.823692 
L 142.867559 54.151616 
L 142.125753 54.700146 
L 141.383946 54.702863 
L 140.64214 54.859024 
L 139.900334 54.623721 
L 139.158528 55.565242 
L 138.416722 56.057418 
L 137.674916 56.134098 
L 136.93311 56.917465 
L 136.191304 58.293112 
L 135.449498 58.399887 
L 134.707692 58.727797 
L 133.965886 58.312471 
L 133.22408 58.312207 
L 132.482274 58.258547 
L 131.740468 57.784207 
L 130.998662 56.400407 
L 130.256856 55.402395 
L 129.51505 55.447601 
L 128.773244 54.971654 
L 128.031438 54.438806 
L 127.289632 54.973003 
L 126.547826 55.726802 
L 125.80602 56.070148 
L 125.064214 55.966082 
L 124.322408 56.362725 
L 123.580602 56.022451 
L 122.838796 56.241346 
L 122.09699 56.459751 
L 121.355184 57.053178 
L 120.613378 57.745868 
L 119.871572 58.825327 
L 119.129766 59.541135 
L 118.38796 60.260513 
L 117.646154 60.712659 
L 116.904348 60.319668 
L 116.162542 60.215991 
L 115.420736 59.95865 
L 114.67893 59.356361 
L 113.937124 60.560209 
L 113.195318 61.306613 
L 112.453512 61.231676 
L 111.711706 60.791523 
L 110.9699 60.276376 
L 110.228094 59.875846 
L 109.486288 60.166902 
L 108.744482 60.930131 
L 108.002676 60.982402 
L 107.26087 61.582182 
L 106.519064 63.31632 
L 105.777258 61.722237 
L 105.035452 61.054457 
L 104.293645 60.756522 
L 103.551839 61.132161 
L 102.810033 61.979397 
L 102.068227 61.95361 
L 101.326421 61.774607 
L 100.584615 62.028808 
L 99.842809 62.093263 
L 99.101003 62.729722 
L 98.359197 61.248625 
L 97.617391 61.76177 
L 96.875585 62.003208 
L 96.133779 62.717328 
L 95.391973 63.602117 
L 94.650167 63.401926 
L 93.908361 64.216572 
L 93.166555 64.457251 
L 92.424749 64.6307 
L 91.682943 65.409429 
L 90.941137 65.027589 
L 90.199331 65.450457 
L 89.457525 65.275704 
L 88.715719 65.246904 
L 87.973913 65.314007 
L 87.232107 65.149291 
L 86.490301 65.565811 
L 85.748495 65.695586 
L 85.006689 66.831334 
L 84.264883 68.17848 
L 83.523077 68.626393 
L 82.781271 69.123737 
L 82.039465 69.4723 
L 81.297659 70.382249 
L 80.555853 71.691539 
L 79.814047 73.579574 
L 79.072241 74.714554 
L 78.330435 77.115778 
L 77.588629 77.384862 
L 76.846823 78.196746 
L 76.105017 79.652282 
L 75.363211 80.659955 
L 74.621405 82.011535 
L 73.879599 84.602771 
L 73.137793 85.530153 
L 72.395987 85.58765 
L 71.654181 86.035681 
L 70.912375 87.466775 
L 70.170569 87.564341 
L 69.428763 90.114548 
L 68.686957 93.193622 
L 67.945151 93.980905 
L 67.203344 96.687369 
L 66.461538 100.707436 
L 65.719732 102.783537 
L 64.977926 105.254582 
L 64.23612 109.664929 
L 63.494314 112.836446 
L 62.752508 117.023756 
L 62.010702 120.713695 
L 61.268896 123.593212 
L 60.52709 126.619373 
L 59.785284 131.179172 
L 59.043478 134.377743 
L 58.301672 136.460135 
L 57.559866 138.908709 
L 56.81806 142.020923 
L 56.076254 144.49396 
L 55.334448 146.446368 
L 54.592642 147.58264 
L 53.850836 149.175578 
L 53.10903 150.476101 
L 52.367224 151.482745 
L 51.625418 151.552928 
L 50.883612 151.915175 
L 50.141806 152.249565 
L 49.4 152.470358 
z
" style="fill:#4c72b0;fill-opacity:0.2;"/>
   </g>
   <g id="PolyCollection_2">
    <path clip-path="url(#p99eafc5894)" d="M 49.4 151.41442 
L 49.4 154.638526 
L 50.141806 154.004158 
L 50.883612 153.685046 
L 51.625418 153.314046 
L 52.367224 153.014585 
L 53.10903 152.712031 
L 53.850836 152.701675 
L 54.592642 152.734114 
L 55.334448 152.94076 
L 56.076254 153.341281 
L 56.81806 153.542218 
L 57.559866 153.450344 
L 58.301672 153.367789 
L 59.043478 153.061428 
L 59.785284 152.797751 
L 60.52709 153.084162 
L 61.268896 152.832042 
L 62.010702 152.861635 
L 62.752508 152.003163 
L 63.494314 151.058829 
L 64.23612 150.24657 
L 64.977926 149.559354 
L 65.719732 149.09723 
L 66.461538 148.398767 
L 67.203344 147.452083 
L 67.945151 146.488281 
L 68.686957 144.606854 
L 69.428763 143.664984 
L 70.170569 142.556266 
L 70.912375 142.083068 
L 71.654181 141.268875 
L 72.395987 140.442812 
L 73.137793 139.023107 
L 73.879599 137.423105 
L 74.621405 136.010836 
L 75.363211 135.140976 
L 76.105017 133.490092 
L 76.846823 131.800638 
L 77.588629 129.828843 
L 78.330435 128.353717 
L 79.072241 126.004487 
L 79.814047 124.480716 
L 80.555853 122.250404 
L 81.297659 121.278023 
L 82.039465 119.702597 
L 82.781271 119.092839 
L 83.523077 117.733527 
L 84.264883 117.015175 
L 85.006689 116.234094 
L 85.748495 115.696227 
L 86.490301 115.214936 
L 87.232107 114.862039 
L 87.973913 113.945466 
L 88.715719 112.771425 
L 89.457525 111.18657 
L 90.199331 109.905464 
L 90.941137 108.269443 
L 91.682943 107.376618 
L 92.424749 107.149892 
L 93.166555 106.962013 
L 93.908361 105.977148 
L 94.650167 106.052066 
L 95.391973 105.333869 
L 96.133779 105.119408 
L 96.875585 105.547978 
L 97.617391 105.448974 
L 98.359197 104.409563 
L 99.101003 103.849135 
L 99.842809 102.55034 
L 100.584615 100.791938 
L 101.326421 99.532891 
L 102.068227 100.049244 
L 102.810033 97.821071 
L 103.551839 97.373844 
L 104.293645 96.709076 
L 105.035452 94.831956 
L 105.777258 94.337134 
L 106.519064 95.64878 
L 107.26087 94.84273 
L 108.002676 95.25274 
L 108.744482 94.148371 
L 109.486288 93.47054 
L 110.228094 91.592756 
L 110.9699 92.93485 
L 111.711706 92.829488 
L 112.453512 90.551522 
L 113.195318 90.089828 
L 113.937124 90.194011 
L 114.67893 88.248007 
L 115.420736 89.168338 
L 116.162542 89.110249 
L 116.904348 90.419676 
L 117.646154 89.964801 
L 118.38796 89.492455 
L 119.129766 87.393513 
L 119.871572 85.811804 
L 120.613378 86.891104 
L 121.355184 86.384287 
L 122.09699 84.448418 
L 122.838796 83.910439 
L 123.580602 81.998038 
L 124.322408 81.302758 
L 125.064214 80.190451 
L 125.80602 80.510755 
L 126.547826 80.111783 
L 127.289632 80.189161 
L 128.031438 80.720518 
L 128.773244 80.647368 
L 129.51505 82.621748 
L 130.256856 82.524217 
L 130.998662 82.507015 
L 131.740468 82.079081 
L 132.482274 81.260734 
L 133.22408 81.723765 
L 133.965886 82.029647 
L 134.707692 81.916338 
L 135.449498 81.243131 
L 136.191304 80.31718 
L 136.93311 78.968872 
L 137.674916 77.792678 
L 138.416722 77.380663 
L 139.158528 77.267464 
L 139.900334 77.06277 
L 140.64214 77.163836 
L 141.383946 76.287777 
L 142.125753 76.628932 
L 142.867559 76.826135 
L 143.609365 77.280631 
L 144.351171 78.0358 
L 145.092977 78.035205 
L 145.834783 77.666586 
L 146.576589 77.378113 
L 147.318395 77.271718 
L 148.060201 77.685701 
L 148.802007 77.583772 
L 149.543813 77.812397 
L 150.285619 76.89074 
L 151.027425 77.389636 
L 151.769231 77.044438 
L 152.511037 77.123523 
L 153.252843 77.218678 
L 153.994649 80.065533 
L 154.736455 80.104935 
L 155.478261 80.346387 
L 156.220067 79.132692 
L 156.961873 79.240179 
L 157.703679 78.945782 
L 158.445485 79.090968 
L 159.187291 79.57642 
L 159.929097 79.369072 
L 160.670903 79.343608 
L 161.412709 80.286015 
L 162.154515 76.350356 
L 162.896321 77.743725 
L 163.638127 76.930809 
L 164.379933 76.849024 
L 165.121739 76.396296 
L 165.863545 76.009614 
L 166.605351 75.959345 
L 167.347157 74.477759 
L 168.088963 74.279418 
L 168.830769 73.123911 
L 169.572575 72.019281 
L 170.314381 73.404312 
L 171.056187 73.09882 
L 171.797993 73.513483 
L 172.539799 73.892919 
L 173.281605 74.716156 
L 174.023411 74.62713 
L 174.765217 74.04121 
L 175.507023 74.855152 
L 176.248829 76.528158 
L 176.990635 76.558786 
L 177.732441 76.088783 
L 178.474247 74.449338 
L 179.216054 73.873053 
L 179.95786 73.289115 
L 180.699666 73.105488 
L 181.441472 72.07143 
L 182.183278 72.45761 
L 182.925084 72.430055 
L 183.66689 71.334747 
L 184.408696 69.990018 
L 185.150502 69.761258 
L 185.892308 69.48653 
L 186.634114 69.39803 
L 187.37592 69.333145 
L 188.117726 69.15614 
L 188.859532 68.766382 
L 189.601338 68.993775 
L 190.343144 69.324168 
L 191.08495 71.021301 
L 191.826756 71.349318 
L 192.568562 71.64572 
L 193.310368 72.374428 
L 194.052174 72.140975 
L 194.79398 72.475148 
L 195.535786 73.119192 
L 196.277592 72.912735 
L 197.019398 72.773832 
L 197.761204 73.480734 
L 198.50301 72.7436 
L 199.244816 71.894946 
L 199.986622 71.709532 
L 200.728428 70.863896 
L 201.470234 70.309095 
L 202.21204 70.060791 
L 202.953846 69.912946 
L 203.695652 68.803315 
L 204.437458 68.715777 
L 205.179264 68.607501 
L 205.92107 67.2645 
L 206.662876 68.071522 
L 207.404682 67.456335 
L 208.146488 67.965299 
L 208.888294 69.605015 
L 209.6301 69.971329 
L 210.371906 72.527575 
L 211.113712 72.474296 
L 211.855518 72.758557 
L 212.597324 73.400463 
L 213.33913 73.645545 
L 214.080936 73.704995 
L 214.822742 74.019878 
L 215.564548 74.821904 
L 216.306355 73.324628 
L 217.048161 70.950094 
L 217.789967 70.748881 
L 218.531773 69.189105 
L 219.273579 68.61109 
L 220.015385 70.087638 
L 220.757191 70.204941 
L 221.498997 70.95722 
L 222.240803 71.422642 
L 222.982609 69.847463 
L 223.724415 68.902298 
L 224.466221 67.361733 
L 225.208027 67.829538 
L 225.949833 67.330868 
L 226.691639 67.088102 
L 227.433445 67.377459 
L 228.175251 66.028534 
L 228.917057 65.663401 
L 229.658863 66.403027 
L 230.400669 66.078218 
L 231.142475 66.433301 
L 231.884281 66.426187 
L 232.626087 67.159805 
L 233.367893 67.803548 
L 234.109699 67.866545 
L 234.851505 67.894132 
L 235.593311 68.134943 
L 236.335117 68.205464 
L 237.076923 67.765053 
L 237.818729 66.140053 
L 238.560535 65.531663 
L 239.302341 67.809868 
L 240.044147 67.726501 
L 240.785953 67.6432 
L 241.527759 68.947155 
L 242.269565 68.824767 
L 243.011371 69.094044 
L 243.753177 70.358711 
L 244.494983 69.465794 
L 245.236789 69.579369 
L 245.978595 69.533926 
L 246.720401 70.02094 
L 247.462207 67.541568 
L 248.204013 67.396882 
L 248.945819 67.098168 
L 249.687625 67.377588 
L 250.429431 67.51187 
L 251.171237 67.159475 
L 251.913043 65.810726 
L 252.654849 65.82804 
L 253.396656 65.58046 
L 254.138462 67.17305 
L 254.880268 66.961044 
L 255.622074 67.21134 
L 256.36388 67.802454 
L 257.105686 67.6368 
L 257.847492 66.380234 
L 258.589298 66.088417 
L 259.331104 65.904805 
L 260.07291 65.289982 
L 260.814716 65.251135 
L 261.556522 65.145162 
L 262.298328 64.094492 
L 263.040134 65.318707 
L 263.78194 65.824326 
L 264.523746 65.693771 
L 265.265552 67.068156 
L 266.007358 66.636671 
L 266.749164 67.322346 
L 267.49097 68.475767 
L 268.232776 69.407863 
L 268.974582 70.540291 
L 269.716388 71.924517 
L 270.458194 71.622027 
L 271.2 71.151552 
L 271.2 47.363486 
L 271.2 47.363486 
L 270.458194 46.455122 
L 269.716388 45.246638 
L 268.974582 44.74093 
L 268.232776 44.259732 
L 267.49097 43.983823 
L 266.749164 43.787909 
L 266.007358 43.076508 
L 265.265552 39.877055 
L 264.523746 38.477943 
L 263.78194 38.246964 
L 263.040134 39.63487 
L 262.298328 39.799239 
L 261.556522 39.7793 
L 260.814716 39.664651 
L 260.07291 39.577815 
L 259.331104 39.373584 
L 258.589298 39.285041 
L 257.847492 39.340689 
L 257.105686 39.347776 
L 256.36388 40.00869 
L 255.622074 40.148873 
L 254.880268 39.125928 
L 254.138462 39.299203 
L 253.396656 39.564177 
L 252.654849 39.866877 
L 251.913043 40.802005 
L 251.171237 40.410168 
L 250.429431 40.112694 
L 249.687625 39.964401 
L 248.945819 41.186351 
L 248.204013 40.456717 
L 247.462207 40.269983 
L 246.720401 39.995991 
L 245.978595 40.648149 
L 245.236789 40.554415 
L 244.494983 40.485061 
L 243.753177 39.892049 
L 243.011371 40.158419 
L 242.269565 40.335468 
L 241.527759 40.850705 
L 240.785953 43.793331 
L 240.044147 44.173819 
L 239.302341 44.296297 
L 238.560535 44.599191 
L 237.818729 44.939446 
L 237.076923 45.124826 
L 236.335117 44.988533 
L 235.593311 46.065884 
L 234.851505 46.221896 
L 234.109699 46.046524 
L 233.367893 45.535452 
L 232.626087 42.645857 
L 231.884281 43.330263 
L 231.142475 44.016967 
L 230.400669 44.939126 
L 229.658863 44.098679 
L 228.917057 43.80719 
L 228.175251 43.488089 
L 227.433445 42.871954 
L 226.691639 44.324979 
L 225.949833 45.015852 
L 225.208027 46.317284 
L 224.466221 47.547494 
L 223.724415 47.292281 
L 222.982609 46.728717 
L 222.240803 45.749352 
L 221.498997 45.262303 
L 220.757191 45.615739 
L 220.015385 46.195012 
L 219.273579 45.649579 
L 218.531773 44.581942 
L 217.789967 44.573463 
L 217.048161 43.333688 
L 216.306355 42.153064 
L 215.564548 40.638629 
L 214.822742 40.777622 
L 214.080936 41.71648 
L 213.33913 42.247153 
L 212.597324 42.026876 
L 211.855518 42.045323 
L 211.113712 42.396351 
L 210.371906 42.929324 
L 209.6301 43.589354 
L 208.888294 44.041121 
L 208.146488 44.209667 
L 207.404682 43.670625 
L 206.662876 43.892033 
L 205.92107 43.449589 
L 205.179264 43.009812 
L 204.437458 42.862239 
L 203.695652 42.978639 
L 202.953846 43.014647 
L 202.21204 43.100322 
L 201.470234 42.831078 
L 200.728428 43.262286 
L 199.986622 43.329059 
L 199.244816 43.355993 
L 198.50301 43.875816 
L 197.761204 45.311119 
L 197.019398 45.829732 
L 196.277592 45.800317 
L 195.535786 45.678241 
L 194.79398 45.46645 
L 194.052174 45.444384 
L 193.310368 45.355321 
L 192.568562 44.962672 
L 191.826756 44.87879 
L 191.08495 44.93001 
L 190.343144 45.15292 
L 189.601338 44.302177 
L 188.859532 44.478106 
L 188.117726 44.887378 
L 187.37592 45.990098 
L 186.634114 46.724429 
L 185.892308 47.135331 
L 185.150502 47.423891 
L 184.408696 47.552932 
L 183.66689 47.614964 
L 182.925084 48.489818 
L 182.183278 48.359918 
L 181.441472 47.783174 
L 180.699666 48.025237 
L 179.95786 48.820064 
L 179.216054 47.820809 
L 178.474247 47.231862 
L 177.732441 47.120753 
L 176.990635 47.882448 
L 176.248829 48.678053 
L 175.507023 49.127524 
L 174.765217 48.990406 
L 174.023411 49.439914 
L 173.281605 49.584257 
L 172.539799 49.64872 
L 171.797993 49.080939 
L 171.056187 49.812926 
L 170.314381 50.191149 
L 169.572575 49.574817 
L 168.830769 48.721041 
L 168.088963 48.157642 
L 167.347157 48.475238 
L 166.605351 48.221344 
L 165.863545 48.622526 
L 165.121739 49.124024 
L 164.379933 48.9346 
L 163.638127 49.711054 
L 162.896321 49.479651 
L 162.154515 49.861386 
L 161.412709 49.587931 
L 160.670903 49.733684 
L 159.929097 50.387762 
L 159.187291 50.706799 
L 158.445485 52.189884 
L 157.703679 52.879575 
L 156.961873 52.747359 
L 156.220067 53.203311 
L 155.478261 53.314528 
L 154.736455 53.247347 
L 153.994649 54.774187 
L 153.252843 55.231071 
L 152.511037 55.527051 
L 151.769231 55.302055 
L 151.027425 55.465897 
L 150.285619 54.333281 
L 149.543813 54.506407 
L 148.802007 55.729691 
L 148.060201 55.920698 
L 147.318395 55.35573 
L 146.576589 55.467233 
L 145.834783 54.525065 
L 145.092977 57.231741 
L 144.351171 57.564091 
L 143.609365 57.782014 
L 142.867559 57.597553 
L 142.125753 58.336426 
L 141.383946 57.977994 
L 140.64214 57.577313 
L 139.900334 57.795942 
L 139.158528 57.785719 
L 138.416722 58.206861 
L 137.674916 58.273444 
L 136.93311 56.2914 
L 136.191304 56.482721 
L 135.449498 56.567672 
L 134.707692 56.779271 
L 133.965886 56.574544 
L 133.22408 57.16535 
L 132.482274 57.269673 
L 131.740468 57.074286 
L 130.998662 57.494899 
L 130.256856 57.57488 
L 129.51505 57.666 
L 128.773244 57.825114 
L 128.031438 58.002361 
L 127.289632 58.341887 
L 126.547826 59.092745 
L 125.80602 59.069482 
L 125.064214 59.816368 
L 124.322408 59.723622 
L 123.580602 59.692863 
L 122.838796 59.26971 
L 122.09699 59.91873 
L 121.355184 59.80884 
L 120.613378 60.164448 
L 119.871572 60.556008 
L 119.129766 60.303942 
L 118.38796 59.131769 
L 117.646154 59.008571 
L 116.904348 58.178274 
L 116.162542 60.124928 
L 115.420736 60.875696 
L 114.67893 61.3959 
L 113.937124 62.209137 
L 113.195318 62.22124 
L 112.453512 62.020761 
L 111.711706 61.306913 
L 110.9699 61.915522 
L 110.228094 62.707622 
L 109.486288 62.662024 
L 108.744482 62.994179 
L 108.002676 61.3807 
L 107.26087 61.274145 
L 106.519064 61.61285 
L 105.777258 61.098748 
L 105.035452 61.553105 
L 104.293645 62.230875 
L 103.551839 62.641749 
L 102.810033 64.022127 
L 102.068227 64.652421 
L 101.326421 65.352315 
L 100.584615 65.027127 
L 99.842809 65.804303 
L 99.101003 65.489683 
L 98.359197 65.101628 
L 97.617391 64.754451 
L 96.875585 65.60357 
L 96.133779 65.220793 
L 95.391973 65.155881 
L 94.650167 64.569196 
L 93.908361 65.128772 
L 93.166555 65.545287 
L 92.424749 66.725736 
L 91.682943 67.502826 
L 90.941137 70.024815 
L 90.199331 71.074128 
L 89.457525 72.165792 
L 88.715719 71.827153 
L 87.973913 73.064685 
L 87.232107 73.191605 
L 86.490301 73.520993 
L 85.748495 73.686707 
L 85.006689 74.296714 
L 84.264883 75.73734 
L 83.523077 76.312087 
L 82.781271 76.334078 
L 82.039465 77.158823 
L 81.297659 77.169681 
L 80.555853 78.549188 
L 79.814047 79.414244 
L 79.072241 81.746182 
L 78.330435 83.551288 
L 77.588629 85.909948 
L 76.846823 88.712628 
L 76.105017 90.02811 
L 75.363211 92.121264 
L 74.621405 95.492809 
L 73.879599 97.699226 
L 73.137793 100.314609 
L 72.395987 103.075287 
L 71.654181 105.081192 
L 70.912375 107.080564 
L 70.170569 110.931166 
L 69.428763 113.446984 
L 68.686957 114.131748 
L 67.945151 115.34106 
L 67.203344 117.82288 
L 66.461538 118.903785 
L 65.719732 120.821924 
L 64.977926 123.265309 
L 64.23612 125.234585 
L 63.494314 126.660395 
L 62.752508 129.103838 
L 62.010702 129.604432 
L 61.268896 131.3571 
L 60.52709 134.315954 
L 59.785284 136.96793 
L 59.043478 138.127521 
L 58.301672 139.566744 
L 57.559866 141.289632 
L 56.81806 142.856525 
L 56.076254 144.585743 
L 55.334448 147.244456 
L 54.592642 148.299115 
L 53.850836 149.452664 
L 53.10903 150.476191 
L 52.367224 150.667312 
L 51.625418 151.037826 
L 50.883612 151.308155 
L 50.141806 151.320846 
L 49.4 151.41442 
z
" style="fill:#55a868;fill-opacity:0.2;"/>
   </g>
   <g id="line2d_23">
    <path clip-path="url(#p99eafc5894)" d="M 49.4 153.736297 
L 50.883612 153.180823 
L 51.625418 152.750966 
L 52.367224 152.665182 
L 53.10903 152.219493 
L 56.076254 148.812676 
L 56.81806 147.746147 
L 58.301672 145.124375 
L 59.043478 144.116126 
L 59.785284 142.529835 
L 60.52709 140.160078 
L 61.268896 138.554101 
L 63.494314 132.080267 
L 64.23612 129.832647 
L 64.977926 126.832771 
L 67.945151 117.792165 
L 68.686957 116.390317 
L 70.170569 111.52775 
L 72.395987 106.645346 
L 73.137793 105.615125 
L 73.879599 103.928249 
L 74.621405 101.324183 
L 76.105017 97.921001 
L 76.846823 96.661333 
L 78.330435 94.724939 
L 79.072241 92.775486 
L 80.555853 89.568399 
L 82.039465 86.564688 
L 82.781271 86.028038 
L 83.523077 85.703353 
L 84.264883 85.070004 
L 85.006689 83.766074 
L 85.748495 83.240296 
L 86.490301 82.212779 
L 87.232107 82.020834 
L 88.715719 81.295108 
L 89.457525 80.967155 
L 90.199331 81.013312 
L 91.682943 80.134075 
L 92.424749 79.438704 
L 93.908361 77.478873 
L 95.391973 77.17736 
L 96.133779 76.511667 
L 96.875585 76.014776 
L 97.617391 75.715551 
L 98.359197 74.973734 
L 99.101003 74.857381 
L 99.842809 74.169482 
L 100.584615 73.950337 
L 102.068227 73.776062 
L 102.810033 73.346541 
L 103.551839 72.674613 
L 105.035452 72.565666 
L 105.777258 72.761774 
L 106.519064 73.108514 
L 107.26087 72.405307 
L 109.486288 74.077654 
L 110.228094 73.995006 
L 110.9699 74.042498 
L 111.711706 74.44793 
L 112.453512 74.552553 
L 113.195318 74.491332 
L 113.937124 74.208935 
L 114.67893 73.64909 
L 115.420736 74.30192 
L 116.904348 72.131143 
L 117.646154 71.450836 
L 119.129766 70.65313 
L 119.871572 70.097949 
L 120.613378 69.402 
L 122.09699 68.686297 
L 122.838796 68.463001 
L 123.580602 68.386142 
L 124.322408 69.285937 
L 125.80602 70.734534 
L 126.547826 70.891012 
L 127.289632 71.553082 
L 128.031438 71.816336 
L 128.773244 72.538755 
L 129.51505 72.847673 
L 130.256856 72.686817 
L 130.998662 73.632391 
L 131.740468 73.580936 
L 133.22408 72.210998 
L 134.707692 71.755124 
L 137.674916 68.981309 
L 138.416722 68.839754 
L 139.900334 66.678257 
L 140.64214 66.686605 
L 141.383946 66.582784 
L 142.867559 65.516737 
L 145.834783 66.152754 
L 147.318395 65.92904 
L 148.060201 66.063554 
L 148.802007 65.97595 
L 149.543813 66.087387 
L 150.285619 65.56213 
L 151.027425 65.697115 
L 151.769231 66.204025 
L 152.511037 66.328578 
L 153.252843 66.330447 
L 153.994649 65.860918 
L 154.736455 66.837872 
L 155.478261 66.833867 
L 156.220067 67.272636 
L 156.961873 67.182036 
L 157.703679 66.735179 
L 159.187291 66.28864 
L 159.929097 65.243846 
L 160.670903 64.853107 
L 161.412709 64.606968 
L 162.154515 64.664735 
L 162.896321 63.839657 
L 163.638127 64.019019 
L 165.121739 63.2187 
L 166.605351 63.500135 
L 167.347157 63.3965 
L 168.088963 63.740311 
L 168.830769 63.533442 
L 169.572575 63.910049 
L 170.314381 63.928648 
L 171.797993 63.076702 
L 173.281605 62.295769 
L 174.023411 62.097567 
L 174.765217 62.562863 
L 175.507023 62.673229 
L 176.248829 62.098276 
L 176.990635 62.057848 
L 177.732441 61.419844 
L 178.474247 61.281468 
L 179.216054 61.343462 
L 179.95786 61.083769 
L 182.183278 60.800045 
L 182.925084 59.892259 
L 183.66689 59.593719 
L 184.408696 60.240954 
L 185.150502 60.153119 
L 185.892308 60.181504 
L 186.634114 60.098529 
L 187.37592 59.634049 
L 188.859532 59.493218 
L 189.601338 59.768985 
L 190.343144 59.732413 
L 191.08495 59.847402 
L 191.826756 60.561423 
L 192.568562 59.915609 
L 194.052174 59.369223 
L 194.79398 59.195866 
L 195.535786 59.522135 
L 196.277592 59.614661 
L 197.019398 59.575004 
L 197.761204 59.109736 
L 199.244816 58.57685 
L 199.986622 57.891379 
L 200.728428 57.795769 
L 202.953846 57.985159 
L 203.695652 58.580014 
L 204.437458 58.933548 
L 205.179264 58.866743 
L 207.404682 59.614683 
L 208.888294 59.536011 
L 209.6301 59.723391 
L 211.113712 59.631858 
L 211.855518 58.725487 
L 212.597324 58.317266 
L 213.33913 58.222153 
L 214.080936 57.859419 
L 214.822742 57.736321 
L 215.564548 57.352144 
L 217.048161 56.928732 
L 217.789967 56.72081 
L 218.531773 56.670147 
L 219.273579 56.41313 
L 222.240803 56.178062 
L 222.982609 56.953473 
L 225.208027 57.436743 
L 225.949833 57.237452 
L 227.433445 57.671518 
L 228.175251 58.389803 
L 228.917057 58.070729 
L 229.658863 58.155414 
L 230.400669 58.085884 
L 231.142475 57.088805 
L 232.626087 56.873375 
L 233.367893 57.589295 
L 234.109699 57.948469 
L 234.851505 57.336108 
L 235.593311 57.378578 
L 236.335117 56.604197 
L 237.076923 56.811166 
L 237.818729 56.682323 
L 238.560535 57.862368 
L 239.302341 58.08116 
L 240.044147 57.77548 
L 240.785953 58.136505 
L 242.269565 56.956694 
L 243.011371 57.424848 
L 243.753177 57.337302 
L 245.236789 57.71325 
L 245.978595 57.927019 
L 247.462207 56.844007 
L 248.204013 57.34098 
L 249.687625 56.957362 
L 250.429431 57.696637 
L 251.171237 57.161174 
L 251.913043 56.950075 
L 252.654849 56.467574 
L 253.396656 56.158368 
L 254.138462 56.112025 
L 254.880268 55.314191 
L 255.622074 55.587718 
L 256.36388 56.467829 
L 258.589298 55.54504 
L 259.331104 55.704941 
L 261.556522 55.648879 
L 262.298328 55.192559 
L 263.040134 55.360485 
L 263.78194 55.194816 
L 264.523746 53.839586 
L 265.265552 53.643405 
L 266.007358 54.15467 
L 266.749164 53.978658 
L 267.49097 54.394153 
L 268.232776 54.462818 
L 268.974582 54.754696 
L 269.716388 54.856081 
L 271.2 55.248372 
L 271.2 55.248372 
" style="fill:none;stroke:#4c72b0;stroke-linecap:round;stroke-width:1.75;"/>
   </g>
   <g id="line2d_24">
    <path clip-path="url(#p99eafc5894)" d="M 49.4 153.026473 
L 50.141806 152.662502 
L 50.883612 152.4966 
L 53.10903 151.594111 
L 55.334448 150.092608 
L 56.076254 148.963512 
L 57.559866 147.369988 
L 59.043478 145.594475 
L 59.785284 144.882841 
L 60.52709 143.700058 
L 61.268896 142.094571 
L 62.010702 141.233033 
L 62.752508 140.5535 
L 63.494314 138.859612 
L 64.23612 137.740577 
L 67.945151 130.914671 
L 68.686957 129.369301 
L 69.428763 128.555984 
L 70.170569 126.743716 
L 70.912375 124.581816 
L 72.395987 121.759049 
L 75.363211 113.63112 
L 76.105017 111.759101 
L 76.846823 110.256633 
L 77.588629 107.869396 
L 80.555853 100.399796 
L 81.297659 99.223852 
L 82.781271 97.713458 
L 84.264883 96.376257 
L 85.006689 95.265404 
L 85.748495 94.691467 
L 87.232107 94.026822 
L 87.973913 93.505076 
L 88.715719 92.299289 
L 89.457525 91.676181 
L 90.941137 89.147129 
L 91.682943 87.439722 
L 92.424749 86.937814 
L 93.908361 85.55296 
L 94.650167 85.310631 
L 96.133779 85.170101 
L 96.875585 85.575774 
L 98.359197 84.755596 
L 99.101003 84.669409 
L 99.842809 84.177321 
L 100.584615 82.909533 
L 101.326421 82.442603 
L 102.068227 82.350833 
L 102.810033 80.921599 
L 103.551839 80.007796 
L 104.293645 79.469976 
L 105.035452 78.192531 
L 105.777258 77.717941 
L 106.519064 78.630815 
L 107.26087 78.058438 
L 108.744482 78.571275 
L 109.486288 78.066282 
L 110.228094 77.150189 
L 110.9699 77.425186 
L 111.711706 77.068201 
L 112.453512 76.286142 
L 113.195318 76.155534 
L 113.937124 76.201574 
L 114.67893 74.821953 
L 115.420736 75.022017 
L 116.904348 74.298975 
L 117.646154 74.486686 
L 118.38796 74.312112 
L 119.129766 73.848727 
L 119.871572 73.183906 
L 120.613378 73.527776 
L 121.355184 73.096564 
L 122.09699 72.183574 
L 122.838796 71.590075 
L 123.580602 70.845451 
L 124.322408 70.51319 
L 125.064214 70.00341 
L 127.289632 69.265524 
L 128.031438 69.361439 
L 128.773244 69.236241 
L 129.51505 70.143874 
L 130.998662 70.000957 
L 132.482274 69.265204 
L 133.22408 69.444557 
L 133.965886 69.302096 
L 134.707692 69.347804 
L 136.191304 68.39995 
L 136.93311 67.630136 
L 137.674916 68.033061 
L 139.900334 67.429356 
L 140.64214 67.370575 
L 141.383946 67.132885 
L 142.125753 67.482679 
L 142.867559 67.211844 
L 144.351171 67.799945 
L 145.092977 67.633473 
L 145.834783 66.095825 
L 146.576589 66.422673 
L 147.318395 66.313724 
L 148.060201 66.803199 
L 148.802007 66.656732 
L 150.285619 65.61201 
L 151.027425 66.427766 
L 151.769231 66.173246 
L 152.511037 66.325287 
L 153.252843 66.224875 
L 153.994649 67.41986 
L 154.736455 66.676141 
L 155.478261 66.830457 
L 156.220067 66.168001 
L 158.445485 65.640426 
L 159.187291 65.14161 
L 160.670903 64.538646 
L 161.412709 64.936973 
L 162.154515 63.105871 
L 162.896321 63.611688 
L 163.638127 63.320931 
L 164.379933 62.891812 
L 165.121739 62.76016 
L 165.863545 62.31607 
L 166.605351 62.090344 
L 167.347157 61.476498 
L 169.572575 60.797049 
L 170.314381 61.79773 
L 171.056187 61.455873 
L 171.797993 61.297211 
L 173.281605 62.150206 
L 174.023411 62.033522 
L 174.765217 61.515808 
L 175.507023 61.991338 
L 176.248829 62.603106 
L 176.990635 62.220617 
L 177.732441 61.604768 
L 178.474247 60.8406 
L 179.216054 60.846931 
L 179.95786 61.054589 
L 180.699666 60.565363 
L 181.441472 59.927302 
L 182.183278 60.408764 
L 182.925084 60.459937 
L 183.66689 59.474856 
L 184.408696 58.771475 
L 185.892308 58.31093 
L 186.634114 58.061229 
L 187.37592 57.661622 
L 188.117726 57.021759 
L 188.859532 56.622244 
L 189.601338 56.647976 
L 190.343144 57.238544 
L 191.08495 57.975655 
L 192.568562 58.304196 
L 193.310368 58.864875 
L 194.052174 58.79268 
L 194.79398 58.970799 
L 195.535786 59.398717 
L 197.019398 59.301782 
L 197.761204 59.395926 
L 198.50301 58.309708 
L 199.244816 57.625469 
L 199.986622 57.519296 
L 201.470234 56.570087 
L 202.21204 56.580557 
L 202.953846 56.463797 
L 203.695652 55.890977 
L 204.437458 55.789008 
L 205.179264 55.808656 
L 205.92107 55.357044 
L 206.662876 55.981778 
L 207.404682 55.56348 
L 208.146488 56.087483 
L 208.888294 56.823068 
L 209.6301 56.780341 
L 210.371906 57.72845 
L 211.113712 57.435324 
L 211.855518 57.40194 
L 213.33913 57.946349 
L 214.822742 57.39875 
L 215.564548 57.730266 
L 216.306355 57.738846 
L 217.048161 57.141891 
L 217.789967 57.661172 
L 218.531773 56.885523 
L 219.273579 57.130335 
L 220.015385 58.141325 
L 220.757191 57.91034 
L 221.498997 58.109761 
L 222.240803 58.585997 
L 223.724415 58.097289 
L 224.466221 57.454613 
L 225.208027 57.073411 
L 225.949833 56.17336 
L 228.175251 54.758311 
L 228.917057 54.735295 
L 229.658863 55.250853 
L 230.400669 55.508672 
L 231.884281 54.878225 
L 232.626087 54.902831 
L 233.367893 56.6695 
L 234.109699 56.956535 
L 235.593311 57.100414 
L 236.335117 56.596998 
L 237.076923 56.44494 
L 237.818729 55.53975 
L 238.560535 55.065427 
L 239.302341 56.053083 
L 240.044147 55.95016 
L 240.785953 55.718266 
L 241.527759 54.89893 
L 242.269565 54.580117 
L 243.011371 54.626232 
L 243.753177 55.12538 
L 244.494983 54.975427 
L 245.978595 55.091038 
L 246.720401 55.008466 
L 247.462207 53.905776 
L 248.204013 53.9268 
L 248.945819 54.142259 
L 249.687625 53.670995 
L 250.429431 53.812282 
L 251.171237 53.784822 
L 252.654849 52.847459 
L 253.396656 52.572318 
L 254.138462 53.236126 
L 254.880268 53.043486 
L 255.622074 53.680106 
L 256.36388 53.905572 
L 257.105686 53.492288 
L 257.847492 52.860462 
L 258.589298 52.686729 
L 259.331104 52.639194 
L 260.07291 52.433898 
L 261.556522 52.462231 
L 262.298328 51.946865 
L 263.040134 52.476789 
L 263.78194 52.035645 
L 264.523746 52.085857 
L 266.007358 54.856589 
L 268.974582 57.640611 
L 269.716388 58.585578 
L 270.458194 59.038574 
L 271.2 59.257519 
L 271.2 59.257519 
" style="fill:none;stroke:#55a868;stroke-linecap:round;stroke-width:1.75;"/>
   </g>
   <g id="patch_3">
    <path d="M 49.4 160.84 
L 49.4 32.4092 
" style="fill:none;"/>
   </g>
   <g id="patch_4">
    <path d="M 271.2 160.84 
L 271.2 32.4092 
" style="fill:none;"/>
   </g>
   <g id="patch_5">
    <path d="M 49.4 160.84 
L 271.2 160.84 
" style="fill:none;"/>
   </g>
   <g id="patch_6">
    <path d="M 49.4 32.4092 
L 271.2 32.4092 
" style="fill:none;"/>
   </g>
   <g id="legend_1">
    <g id="line2d_25">
     <path d="M 54.6 17.35449 
L 67.6 17.35449 
" style="fill:none;stroke:#4c72b0;stroke-linecap:round;stroke-width:1.75;"/>
    </g>
    <g id="line2d_26"/>
    <g id="text_15">
     <!-- td3-tf1 -->
     <defs>
      <path d="M 40.234375 0 
L 40.234375 6.546875 
Q 35.296875 -1.171875 25.734375 -1.171875 
Q 19.53125 -1.171875 14.328125 2.25 
Q 9.125 5.671875 6.265625 11.796875 
Q 3.421875 17.921875 3.421875 25.875 
Q 3.421875 33.640625 6 39.96875 
Q 8.59375 46.296875 13.765625 49.65625 
Q 18.953125 53.03125 25.34375 53.03125 
Q 30.03125 53.03125 33.6875 51.046875 
Q 37.359375 49.078125 39.65625 45.90625 
L 39.65625 71.578125 
L 48.390625 71.578125 
L 48.390625 0 
z
M 12.453125 25.875 
Q 12.453125 15.921875 16.640625 10.984375 
Q 20.84375 6.0625 26.5625 6.0625 
Q 32.328125 6.0625 36.34375 10.765625 
Q 40.375 15.484375 40.375 25.140625 
Q 40.375 35.796875 36.265625 40.765625 
Q 32.171875 45.75 26.171875 45.75 
Q 20.3125 45.75 16.375 40.96875 
Q 12.453125 36.1875 12.453125 25.875 
z
" id="ArialMT-100"/>
      <path d="M 3.171875 21.484375 
L 3.171875 30.328125 
L 30.171875 30.328125 
L 30.171875 21.484375 
z
" id="ArialMT-45"/>
     </defs>
     <g style="fill:#262626;" transform="translate(78 21.90449)scale(0.13 -0.13)">
      <use xlink:href="#ArialMT-116"/>
      <use x="27.783203" xlink:href="#ArialMT-100"/>
      <use x="83.398438" xlink:href="#ArialMT-51"/>
      <use x="139.013672" xlink:href="#ArialMT-45"/>
      <use x="172.314453" xlink:href="#ArialMT-116"/>
      <use x="200.097656" xlink:href="#ArialMT-102"/>
      <use x="227.880859" xlink:href="#ArialMT-49"/>
     </g>
    </g>
    <g id="line2d_27">
     <path d="M 173.267344 17.35449 
L 186.267344 17.35449 
" style="fill:none;stroke:#55a868;stroke-linecap:round;stroke-width:1.75;"/>
    </g>
    <g id="line2d_28"/>
    <g id="text_16">
     <!-- td3-pyTorch -->
     <defs>
      <path d="M 6.59375 -19.875 
L 6.59375 51.859375 
L 14.59375 51.859375 
L 14.59375 45.125 
Q 17.4375 49.078125 21 51.046875 
Q 24.5625 53.03125 29.640625 53.03125 
Q 36.28125 53.03125 41.359375 49.609375 
Q 46.4375 46.1875 49.015625 39.953125 
Q 51.609375 33.734375 51.609375 26.3125 
Q 51.609375 18.359375 48.75 11.984375 
Q 45.90625 5.609375 40.453125 2.21875 
Q 35.015625 -1.171875 29 -1.171875 
Q 24.609375 -1.171875 21.109375 0.6875 
Q 17.625 2.546875 15.375 5.375 
L 15.375 -19.875 
z
M 14.546875 25.640625 
Q 14.546875 15.625 18.59375 10.84375 
Q 22.65625 6.0625 28.421875 6.0625 
Q 34.28125 6.0625 38.453125 11.015625 
Q 42.625 15.96875 42.625 26.375 
Q 42.625 36.28125 38.546875 41.203125 
Q 34.46875 46.140625 28.8125 46.140625 
Q 23.1875 46.140625 18.859375 40.890625 
Q 14.546875 35.640625 14.546875 25.640625 
z
" id="ArialMT-112"/>
      <path d="M 6.203125 -19.96875 
L 5.21875 -11.71875 
Q 8.109375 -12.5 10.25 -12.5 
Q 13.1875 -12.5 14.9375 -11.515625 
Q 16.703125 -10.546875 17.828125 -8.796875 
Q 18.65625 -7.46875 20.515625 -2.25 
Q 20.75 -1.515625 21.296875 -0.09375 
L 1.609375 51.859375 
L 11.078125 51.859375 
L 21.875 21.828125 
Q 23.96875 16.109375 25.640625 9.8125 
Q 27.15625 15.875 29.25 21.625 
L 40.328125 51.859375 
L 49.125 51.859375 
L 29.390625 -0.875 
Q 26.21875 -9.421875 24.46875 -12.640625 
Q 22.125 -17 19.09375 -19.015625 
Q 16.0625 -21.046875 11.859375 -21.046875 
Q 9.328125 -21.046875 6.203125 -19.96875 
z
" id="ArialMT-121"/>
      <path d="M 6.59375 0 
L 6.59375 71.578125 
L 15.375 71.578125 
L 15.375 45.90625 
Q 21.53125 53.03125 30.90625 53.03125 
Q 36.671875 53.03125 40.921875 50.75 
Q 45.171875 48.484375 47 44.484375 
Q 48.828125 40.484375 48.828125 32.859375 
L 48.828125 0 
L 40.046875 0 
L 40.046875 32.859375 
Q 40.046875 39.453125 37.1875 42.453125 
Q 34.328125 45.453125 29.109375 45.453125 
Q 25.203125 45.453125 21.75 43.421875 
Q 18.3125 41.40625 16.84375 37.9375 
Q 15.375 34.46875 15.375 28.375 
L 15.375 0 
z
" id="ArialMT-104"/>
     </defs>
     <g style="fill:#262626;" transform="translate(196.667344 21.90449)scale(0.13 -0.13)">
      <use xlink:href="#ArialMT-116"/>
      <use x="27.783203" xlink:href="#ArialMT-100"/>
      <use x="83.398438" xlink:href="#ArialMT-51"/>
      <use x="139.013672" xlink:href="#ArialMT-45"/>
      <use x="172.314453" xlink:href="#ArialMT-112"/>
      <use x="227.929688" xlink:href="#ArialMT-121"/>
      <use x="277.929688" xlink:href="#ArialMT-84"/>
      <use x="338.841797" xlink:href="#ArialMT-111"/>
      <use x="394.457031" xlink:href="#ArialMT-114"/>
      <use x="427.757812" xlink:href="#ArialMT-99"/>
      <use x="477.757812" xlink:href="#ArialMT-104"/>
     </g>
    </g>
   </g>
  </g>
 </g>
 <defs>
  <clipPath id="p99eafc5894">
   <rect height="128.4308" width="221.8" x="49.4" y="32.4092"/>
  </clipPath>
 </defs>
</svg>
