<?xml version="1.0" encoding="utf-8" standalone="no"?>
<!DOCTYPE svg PUBLIC "-//W3C//DTD SVG 1.1//EN"
  "http://www.w3.org/Graphics/SVG/1.1/DTD/svg11.dtd">
<!-- Created with matplotlib (https://matplotlib.org/) -->
<svg height="198pt" version="1.1" viewBox="0 0 277.2 198" width="277.2pt" xmlns="http://www.w3.org/2000/svg" xmlns:xlink="http://www.w3.org/1999/xlink">
 <defs>
  <style type="text/css">
*{stroke-linecap:butt;stroke-linejoin:round;}
  </style>
 </defs>
 <g id="figure_1">
  <g id="patch_1">
   <path d="M 0 198 
L 277.2 198 
L 277.2 0 
L 0 0 
z
" style="fill:#ffffff;"/>
  </g>
  <g id="axes_1">
   <g id="patch_2">
    <path d="M 54.98 160.84 
L 271.2 160.84 
L 271.2 32.4092 
L 54.98 32.4092 
z
" style="fill:#eaeaf2;"/>
   </g>
   <g id="matplotlib.axis_1">
    <g id="xtick_1">
     <g id="line2d_1">
      <path clip-path="url(#pae4cf3db47)" d="M 90.414119 160.84 
L 90.414119 32.4092 
" style="fill:none;stroke:#ffffff;stroke-linecap:round;"/>
     </g>
     <g id="line2d_2"/>
     <g id="text_1">
      <!-- 0.5 -->
      <defs>
       <path d="M 4.15625 35.296875 
Q 4.15625 48 6.765625 55.734375 
Q 9.375 63.484375 14.515625 67.671875 
Q 19.671875 71.875 27.484375 71.875 
Q 33.25 71.875 37.59375 69.546875 
Q 41.9375 67.234375 44.765625 62.859375 
Q 47.609375 58.5 49.21875 52.21875 
Q 50.828125 45.953125 50.828125 35.296875 
Q 50.828125 22.703125 48.234375 14.96875 
Q 45.65625 7.234375 40.5 3 
Q 35.359375 -1.21875 27.484375 -1.21875 
Q 17.140625 -1.21875 11.234375 6.203125 
Q 4.15625 15.140625 4.15625 35.296875 
z
M 13.1875 35.296875 
Q 13.1875 17.671875 17.3125 11.828125 
Q 21.4375 6 27.484375 6 
Q 33.546875 6 37.671875 11.859375 
Q 41.796875 17.71875 41.796875 35.296875 
Q 41.796875 52.984375 37.671875 58.78125 
Q 33.546875 64.59375 27.390625 64.59375 
Q 21.34375 64.59375 17.71875 59.46875 
Q 13.1875 52.9375 13.1875 35.296875 
z
" id="ArialMT-48"/>
       <path d="M 9.078125 0 
L 9.078125 10.015625 
L 19.09375 10.015625 
L 19.09375 0 
z
" id="ArialMT-46"/>
       <path d="M 4.15625 18.75 
L 13.375 19.53125 
Q 14.40625 12.796875 18.140625 9.390625 
Q 21.875 6 27.15625 6 
Q 33.5 6 37.890625 10.78125 
Q 42.28125 15.578125 42.28125 23.484375 
Q 42.28125 31 38.0625 35.34375 
Q 33.84375 39.703125 27 39.703125 
Q 22.75 39.703125 19.328125 37.765625 
Q 15.921875 35.84375 13.96875 32.765625 
L 5.71875 33.84375 
L 12.640625 70.609375 
L 48.25 70.609375 
L 48.25 62.203125 
L 19.671875 62.203125 
L 15.828125 42.96875 
Q 22.265625 47.46875 29.34375 47.46875 
Q 38.71875 47.46875 45.15625 40.96875 
Q 51.609375 34.46875 51.609375 24.265625 
Q 51.609375 14.546875 45.953125 7.46875 
Q 39.0625 -1.21875 27.15625 -1.21875 
Q 17.390625 -1.21875 11.203125 4.25 
Q 5.03125 9.71875 4.15625 18.75 
z
" id="ArialMT-53"/>
      </defs>
      <g style="fill:#262626;" transform="translate(83.464119 174.997813)scale(0.1 -0.1)">
       <use xlink:href="#ArialMT-48"/>
       <use x="55.615234" xlink:href="#ArialMT-46"/>
       <use x="83.398438" xlink:href="#ArialMT-53"/>
      </g>
     </g>
    </g>
    <g id="xtick_2">
     <g id="line2d_3">
      <path clip-path="url(#pae4cf3db47)" d="M 126.57131 160.84 
L 126.57131 32.4092 
" style="fill:none;stroke:#ffffff;stroke-linecap:round;"/>
     </g>
     <g id="line2d_4"/>
     <g id="text_2">
      <!-- 1.0 -->
      <defs>
       <path d="M 37.25 0 
L 28.46875 0 
L 28.46875 56 
Q 25.296875 52.984375 20.140625 49.953125 
Q 14.984375 46.921875 10.890625 45.40625 
L 10.890625 53.90625 
Q 18.265625 57.375 23.78125 62.296875 
Q 29.296875 67.234375 31.59375 71.875 
L 37.25 71.875 
z
" id="ArialMT-49"/>
      </defs>
      <g style="fill:#262626;" transform="translate(119.62131 174.997813)scale(0.1 -0.1)">
       <use xlink:href="#ArialMT-49"/>
       <use x="55.615234" xlink:href="#ArialMT-46"/>
       <use x="83.398438" xlink:href="#ArialMT-48"/>
      </g>
     </g>
    </g>
    <g id="xtick_3">
     <g id="line2d_5">
      <path clip-path="url(#pae4cf3db47)" d="M 162.7285 160.84 
L 162.7285 32.4092 
" style="fill:none;stroke:#ffffff;stroke-linecap:round;"/>
     </g>
     <g id="line2d_6"/>
     <g id="text_3">
      <!-- 1.5 -->
      <g style="fill:#262626;" transform="translate(155.7785 174.997813)scale(0.1 -0.1)">
       <use xlink:href="#ArialMT-49"/>
       <use x="55.615234" xlink:href="#ArialMT-46"/>
       <use x="83.398438" xlink:href="#ArialMT-53"/>
      </g>
     </g>
    </g>
    <g id="xtick_4">
     <g id="line2d_7">
      <path clip-path="url(#pae4cf3db47)" d="M 198.885691 160.84 
L 198.885691 32.4092 
" style="fill:none;stroke:#ffffff;stroke-linecap:round;"/>
     </g>
     <g id="line2d_8"/>
     <g id="text_4">
      <!-- 2.0 -->
      <defs>
       <path d="M 50.34375 8.453125 
L 50.34375 0 
L 3.03125 0 
Q 2.9375 3.171875 4.046875 6.109375 
Q 5.859375 10.9375 9.828125 15.625 
Q 13.8125 20.3125 21.34375 26.46875 
Q 33.015625 36.03125 37.109375 41.625 
Q 41.21875 47.21875 41.21875 52.203125 
Q 41.21875 57.421875 37.46875 61 
Q 33.734375 64.59375 27.734375 64.59375 
Q 21.390625 64.59375 17.578125 60.78125 
Q 13.765625 56.984375 13.71875 50.25 
L 4.6875 51.171875 
Q 5.609375 61.28125 11.65625 66.578125 
Q 17.71875 71.875 27.9375 71.875 
Q 38.234375 71.875 44.234375 66.15625 
Q 50.25 60.453125 50.25 52 
Q 50.25 47.703125 48.484375 43.546875 
Q 46.734375 39.40625 42.65625 34.8125 
Q 38.578125 30.21875 29.109375 22.21875 
Q 21.1875 15.578125 18.9375 13.203125 
Q 16.703125 10.84375 15.234375 8.453125 
z
" id="ArialMT-50"/>
      </defs>
      <g style="fill:#262626;" transform="translate(191.935691 174.997813)scale(0.1 -0.1)">
       <use xlink:href="#ArialMT-50"/>
       <use x="55.615234" xlink:href="#ArialMT-46"/>
       <use x="83.398438" xlink:href="#ArialMT-48"/>
      </g>
     </g>
    </g>
    <g id="xtick_5">
     <g id="line2d_9">
      <path clip-path="url(#pae4cf3db47)" d="M 235.042882 160.84 
L 235.042882 32.4092 
" style="fill:none;stroke:#ffffff;stroke-linecap:round;"/>
     </g>
     <g id="line2d_10"/>
     <g id="text_5">
      <!-- 2.5 -->
      <g style="fill:#262626;" transform="translate(228.092882 174.997813)scale(0.1 -0.1)">
       <use xlink:href="#ArialMT-50"/>
       <use x="55.615234" xlink:href="#ArialMT-46"/>
       <use x="83.398438" xlink:href="#ArialMT-53"/>
      </g>
     </g>
    </g>
    <g id="text_6">
     <!-- TotalEnvInteracts -->
     <defs>
      <path d="M 25.921875 0 
L 25.921875 63.140625 
L 2.34375 63.140625 
L 2.34375 71.578125 
L 59.078125 71.578125 
L 59.078125 63.140625 
L 35.40625 63.140625 
L 35.40625 0 
z
" id="ArialMT-84"/>
      <path d="M 3.328125 25.921875 
Q 3.328125 40.328125 11.328125 47.265625 
Q 18.015625 53.03125 27.640625 53.03125 
Q 38.328125 53.03125 45.109375 46.015625 
Q 51.90625 39.015625 51.90625 26.65625 
Q 51.90625 16.65625 48.90625 10.90625 
Q 45.90625 5.171875 40.15625 2 
Q 34.421875 -1.171875 27.640625 -1.171875 
Q 16.75 -1.171875 10.03125 5.8125 
Q 3.328125 12.796875 3.328125 25.921875 
z
M 12.359375 25.921875 
Q 12.359375 15.96875 16.703125 11.015625 
Q 21.046875 6.0625 27.640625 6.0625 
Q 34.1875 6.0625 38.53125 11.03125 
Q 42.875 16.015625 42.875 26.21875 
Q 42.875 35.84375 38.5 40.796875 
Q 34.125 45.75 27.640625 45.75 
Q 21.046875 45.75 16.703125 40.8125 
Q 12.359375 35.890625 12.359375 25.921875 
z
" id="ArialMT-111"/>
      <path d="M 25.78125 7.859375 
L 27.046875 0.09375 
Q 23.34375 -0.6875 20.40625 -0.6875 
Q 15.625 -0.6875 12.984375 0.828125 
Q 10.359375 2.34375 9.28125 4.8125 
Q 8.203125 7.28125 8.203125 15.1875 
L 8.203125 45.015625 
L 1.765625 45.015625 
L 1.765625 51.859375 
L 8.203125 51.859375 
L 8.203125 64.703125 
L 16.9375 69.96875 
L 16.9375 51.859375 
L 25.78125 51.859375 
L 25.78125 45.015625 
L 16.9375 45.015625 
L 16.9375 14.703125 
Q 16.9375 10.9375 17.40625 9.859375 
Q 17.875 8.796875 18.921875 8.15625 
Q 19.96875 7.515625 21.921875 7.515625 
Q 23.390625 7.515625 25.78125 7.859375 
z
" id="ArialMT-116"/>
      <path d="M 40.4375 6.390625 
Q 35.546875 2.25 31.03125 0.53125 
Q 26.515625 -1.171875 21.34375 -1.171875 
Q 12.796875 -1.171875 8.203125 3 
Q 3.609375 7.171875 3.609375 13.671875 
Q 3.609375 17.484375 5.34375 20.625 
Q 7.078125 23.78125 9.890625 25.6875 
Q 12.703125 27.59375 16.21875 28.5625 
Q 18.796875 29.25 24.03125 29.890625 
Q 34.671875 31.15625 39.703125 32.90625 
Q 39.75 34.71875 39.75 35.203125 
Q 39.75 40.578125 37.25 42.78125 
Q 33.890625 45.75 27.25 45.75 
Q 21.046875 45.75 18.09375 43.578125 
Q 15.140625 41.40625 13.71875 35.890625 
L 5.125 37.0625 
Q 6.296875 42.578125 8.984375 45.96875 
Q 11.671875 49.359375 16.75 51.1875 
Q 21.828125 53.03125 28.515625 53.03125 
Q 35.15625 53.03125 39.296875 51.46875 
Q 43.453125 49.90625 45.40625 47.53125 
Q 47.359375 45.171875 48.140625 41.546875 
Q 48.578125 39.3125 48.578125 33.453125 
L 48.578125 21.734375 
Q 48.578125 9.46875 49.140625 6.21875 
Q 49.703125 2.984375 51.375 0 
L 42.1875 0 
Q 40.828125 2.734375 40.4375 6.390625 
z
M 39.703125 26.03125 
Q 34.90625 24.078125 25.34375 22.703125 
Q 19.921875 21.921875 17.671875 20.9375 
Q 15.4375 19.96875 14.203125 18.09375 
Q 12.984375 16.21875 12.984375 13.921875 
Q 12.984375 10.40625 15.640625 8.0625 
Q 18.3125 5.71875 23.4375 5.71875 
Q 28.515625 5.71875 32.46875 7.9375 
Q 36.421875 10.15625 38.28125 14.015625 
Q 39.703125 17 39.703125 22.796875 
z
" id="ArialMT-97"/>
      <path d="M 6.390625 0 
L 6.390625 71.578125 
L 15.1875 71.578125 
L 15.1875 0 
z
" id="ArialMT-108"/>
      <path d="M 7.90625 0 
L 7.90625 71.578125 
L 59.671875 71.578125 
L 59.671875 63.140625 
L 17.390625 63.140625 
L 17.390625 41.21875 
L 56.984375 41.21875 
L 56.984375 32.8125 
L 17.390625 32.8125 
L 17.390625 8.453125 
L 61.328125 8.453125 
L 61.328125 0 
z
" id="ArialMT-69"/>
      <path d="M 6.59375 0 
L 6.59375 51.859375 
L 14.5 51.859375 
L 14.5 44.484375 
Q 20.21875 53.03125 31 53.03125 
Q 35.6875 53.03125 39.625 51.34375 
Q 43.5625 49.65625 45.515625 46.921875 
Q 47.46875 44.1875 48.25 40.4375 
Q 48.734375 37.984375 48.734375 31.890625 
L 48.734375 0 
L 39.9375 0 
L 39.9375 31.546875 
Q 39.9375 36.921875 38.90625 39.578125 
Q 37.890625 42.234375 35.28125 43.8125 
Q 32.671875 45.40625 29.15625 45.40625 
Q 23.53125 45.40625 19.453125 41.84375 
Q 15.375 38.28125 15.375 28.328125 
L 15.375 0 
z
" id="ArialMT-110"/>
      <path d="M 21 0 
L 1.265625 51.859375 
L 10.546875 51.859375 
L 21.6875 20.796875 
Q 23.484375 15.765625 25 10.359375 
Q 26.171875 14.453125 28.265625 20.21875 
L 39.796875 51.859375 
L 48.828125 51.859375 
L 29.203125 0 
z
" id="ArialMT-118"/>
      <path d="M 9.328125 0 
L 9.328125 71.578125 
L 18.796875 71.578125 
L 18.796875 0 
z
" id="ArialMT-73"/>
      <path d="M 42.09375 16.703125 
L 51.171875 15.578125 
Q 49.03125 7.625 43.21875 3.21875 
Q 37.40625 -1.171875 28.375 -1.171875 
Q 17 -1.171875 10.328125 5.828125 
Q 3.65625 12.84375 3.65625 25.484375 
Q 3.65625 38.578125 10.390625 45.796875 
Q 17.140625 53.03125 27.875 53.03125 
Q 38.28125 53.03125 44.875 45.953125 
Q 51.46875 38.875 51.46875 26.03125 
Q 51.46875 25.25 51.421875 23.6875 
L 12.75 23.6875 
Q 13.234375 15.140625 17.578125 10.59375 
Q 21.921875 6.0625 28.421875 6.0625 
Q 33.25 6.0625 36.671875 8.59375 
Q 40.09375 11.140625 42.09375 16.703125 
z
M 13.234375 30.90625 
L 42.1875 30.90625 
Q 41.609375 37.453125 38.875 40.71875 
Q 34.671875 45.796875 27.984375 45.796875 
Q 21.921875 45.796875 17.796875 41.75 
Q 13.671875 37.703125 13.234375 30.90625 
z
" id="ArialMT-101"/>
      <path d="M 6.5 0 
L 6.5 51.859375 
L 14.40625 51.859375 
L 14.40625 44 
Q 17.4375 49.515625 20 51.265625 
Q 22.5625 53.03125 25.640625 53.03125 
Q 30.078125 53.03125 34.671875 50.203125 
L 31.640625 42.046875 
Q 28.421875 43.953125 25.203125 43.953125 
Q 22.3125 43.953125 20.015625 42.21875 
Q 17.71875 40.484375 16.75 37.40625 
Q 15.28125 32.71875 15.28125 27.15625 
L 15.28125 0 
z
" id="ArialMT-114"/>
      <path d="M 40.4375 19 
L 49.078125 17.875 
Q 47.65625 8.9375 41.8125 3.875 
Q 35.984375 -1.171875 27.484375 -1.171875 
Q 16.84375 -1.171875 10.375 5.78125 
Q 3.90625 12.75 3.90625 25.734375 
Q 3.90625 34.125 6.6875 40.421875 
Q 9.46875 46.734375 15.15625 49.875 
Q 20.84375 53.03125 27.546875 53.03125 
Q 35.984375 53.03125 41.359375 48.75 
Q 46.734375 44.484375 48.25 36.625 
L 39.703125 35.296875 
Q 38.484375 40.53125 35.375 43.15625 
Q 32.28125 45.796875 27.875 45.796875 
Q 21.234375 45.796875 17.078125 41.03125 
Q 12.9375 36.28125 12.9375 25.984375 
Q 12.9375 15.53125 16.9375 10.796875 
Q 20.953125 6.0625 27.390625 6.0625 
Q 32.5625 6.0625 36.03125 9.234375 
Q 39.5 12.40625 40.4375 19 
z
" id="ArialMT-99"/>
      <path d="M 3.078125 15.484375 
L 11.765625 16.84375 
Q 12.5 11.625 15.84375 8.84375 
Q 19.1875 6.0625 25.203125 6.0625 
Q 31.25 6.0625 34.171875 8.515625 
Q 37.109375 10.984375 37.109375 14.3125 
Q 37.109375 17.28125 34.515625 19 
Q 32.71875 20.171875 25.53125 21.96875 
Q 15.875 24.421875 12.140625 26.203125 
Q 8.40625 27.984375 6.46875 31.125 
Q 4.546875 34.28125 4.546875 38.09375 
Q 4.546875 41.546875 6.125 44.5 
Q 7.71875 47.46875 10.453125 49.421875 
Q 12.5 50.921875 16.03125 51.96875 
Q 19.578125 53.03125 23.640625 53.03125 
Q 29.734375 53.03125 34.34375 51.265625 
Q 38.96875 49.515625 41.15625 46.5 
Q 43.359375 43.5 44.1875 38.484375 
L 35.59375 37.3125 
Q 35.015625 41.3125 32.203125 43.546875 
Q 29.390625 45.796875 24.265625 45.796875 
Q 18.21875 45.796875 15.625 43.796875 
Q 13.03125 41.796875 13.03125 39.109375 
Q 13.03125 37.40625 14.109375 36.03125 
Q 15.1875 34.625 17.484375 33.6875 
Q 18.796875 33.203125 25.25 31.453125 
Q 34.578125 28.953125 38.25 27.359375 
Q 41.9375 25.78125 44.03125 22.75 
Q 46.140625 19.734375 46.140625 15.234375 
Q 46.140625 10.84375 43.578125 6.953125 
Q 41.015625 3.078125 36.171875 0.953125 
Q 31.34375 -1.171875 25.25 -1.171875 
Q 15.140625 -1.171875 9.84375 3.03125 
Q 4.546875 7.234375 3.078125 15.484375 
z
" id="ArialMT-115"/>
     </defs>
     <g style="fill:#262626;" transform="translate(120.305156 188.858906)scale(0.11 -0.11)">
      <use xlink:href="#ArialMT-84"/>
      <use x="60.912109" xlink:href="#ArialMT-111"/>
      <use x="116.527344" xlink:href="#ArialMT-116"/>
      <use x="144.310547" xlink:href="#ArialMT-97"/>
      <use x="199.925781" xlink:href="#ArialMT-108"/>
      <use x="222.142578" xlink:href="#ArialMT-69"/>
      <use x="288.841797" xlink:href="#ArialMT-110"/>
      <use x="344.457031" xlink:href="#ArialMT-118"/>
      <use x="394.457031" xlink:href="#ArialMT-73"/>
      <use x="422.240234" xlink:href="#ArialMT-110"/>
      <use x="477.855469" xlink:href="#ArialMT-116"/>
      <use x="505.638672" xlink:href="#ArialMT-101"/>
      <use x="561.253906" xlink:href="#ArialMT-114"/>
      <use x="594.554688" xlink:href="#ArialMT-97"/>
      <use x="650.169922" xlink:href="#ArialMT-99"/>
      <use x="700.169922" xlink:href="#ArialMT-116"/>
      <use x="727.953125" xlink:href="#ArialMT-115"/>
     </g>
    </g>
    <g id="text_7">
     <!-- 1e6 -->
     <defs>
      <path d="M 49.75 54.046875 
L 41.015625 53.375 
Q 39.84375 58.546875 37.703125 60.890625 
Q 34.125 64.65625 28.90625 64.65625 
Q 24.703125 64.65625 21.53125 62.3125 
Q 17.390625 59.28125 14.984375 53.46875 
Q 12.59375 47.65625 12.5 36.921875 
Q 15.671875 41.75 20.265625 44.09375 
Q 24.859375 46.4375 29.890625 46.4375 
Q 38.671875 46.4375 44.84375 39.96875 
Q 51.03125 33.5 51.03125 23.25 
Q 51.03125 16.5 48.125 10.71875 
Q 45.21875 4.9375 40.140625 1.859375 
Q 35.0625 -1.21875 28.609375 -1.21875 
Q 17.625 -1.21875 10.6875 6.859375 
Q 3.765625 14.9375 3.765625 33.5 
Q 3.765625 54.25 11.421875 63.671875 
Q 18.109375 71.875 29.4375 71.875 
Q 37.890625 71.875 43.28125 67.140625 
Q 48.6875 62.40625 49.75 54.046875 
z
M 13.875 23.1875 
Q 13.875 18.65625 15.796875 14.5 
Q 17.71875 10.359375 21.1875 8.171875 
Q 24.65625 6 28.46875 6 
Q 34.03125 6 38.03125 10.484375 
Q 42.046875 14.984375 42.046875 22.703125 
Q 42.046875 30.125 38.078125 34.390625 
Q 34.125 38.671875 28.125 38.671875 
Q 22.171875 38.671875 18.015625 34.390625 
Q 13.875 30.125 13.875 23.1875 
z
" id="ArialMT-54"/>
     </defs>
     <g style="fill:#262626;" transform="translate(254.517187 187.143125)scale(0.1 -0.1)">
      <use xlink:href="#ArialMT-49"/>
      <use x="55.615234" xlink:href="#ArialMT-101"/>
      <use x="111.230469" xlink:href="#ArialMT-54"/>
     </g>
    </g>
   </g>
   <g id="matplotlib.axis_2">
    <g id="ytick_1">
     <g id="line2d_11">
      <path clip-path="url(#pae4cf3db47)" d="M 54.98 152.138764 
L 271.2 152.138764 
" style="fill:none;stroke:#ffffff;stroke-linecap:round;"/>
     </g>
     <g id="line2d_12"/>
     <g id="text_8">
      <!-- 2000 -->
      <g style="fill:#262626;" transform="translate(25.73625 155.71767)scale(0.1 -0.1)">
       <use xlink:href="#ArialMT-50"/>
       <use x="55.615234" xlink:href="#ArialMT-48"/>
       <use x="111.230469" xlink:href="#ArialMT-48"/>
       <use x="166.845703" xlink:href="#ArialMT-48"/>
      </g>
     </g>
    </g>
    <g id="ytick_2">
     <g id="line2d_13">
      <path clip-path="url(#pae4cf3db47)" d="M 54.98 130.561052 
L 271.2 130.561052 
" style="fill:none;stroke:#ffffff;stroke-linecap:round;"/>
     </g>
     <g id="line2d_14"/>
     <g id="text_9">
      <!-- 4000 -->
      <defs>
       <path d="M 32.328125 0 
L 32.328125 17.140625 
L 1.265625 17.140625 
L 1.265625 25.203125 
L 33.9375 71.578125 
L 41.109375 71.578125 
L 41.109375 25.203125 
L 50.78125 25.203125 
L 50.78125 17.140625 
L 41.109375 17.140625 
L 41.109375 0 
z
M 32.328125 25.203125 
L 32.328125 57.46875 
L 9.90625 25.203125 
z
" id="ArialMT-52"/>
      </defs>
      <g style="fill:#262626;" transform="translate(25.73625 134.139958)scale(0.1 -0.1)">
       <use xlink:href="#ArialMT-52"/>
       <use x="55.615234" xlink:href="#ArialMT-48"/>
       <use x="111.230469" xlink:href="#ArialMT-48"/>
       <use x="166.845703" xlink:href="#ArialMT-48"/>
      </g>
     </g>
    </g>
    <g id="ytick_3">
     <g id="line2d_15">
      <path clip-path="url(#pae4cf3db47)" d="M 54.98 108.98334 
L 271.2 108.98334 
" style="fill:none;stroke:#ffffff;stroke-linecap:round;"/>
     </g>
     <g id="line2d_16"/>
     <g id="text_10">
      <!-- 6000 -->
      <g style="fill:#262626;" transform="translate(25.73625 112.562247)scale(0.1 -0.1)">
       <use xlink:href="#ArialMT-54"/>
       <use x="55.615234" xlink:href="#ArialMT-48"/>
       <use x="111.230469" xlink:href="#ArialMT-48"/>
       <use x="166.845703" xlink:href="#ArialMT-48"/>
      </g>
     </g>
    </g>
    <g id="ytick_4">
     <g id="line2d_17">
      <path clip-path="url(#pae4cf3db47)" d="M 54.98 87.405629 
L 271.2 87.405629 
" style="fill:none;stroke:#ffffff;stroke-linecap:round;"/>
     </g>
     <g id="line2d_18"/>
     <g id="text_11">
      <!-- 8000 -->
      <defs>
       <path d="M 17.671875 38.8125 
Q 12.203125 40.828125 9.5625 44.53125 
Q 6.9375 48.25 6.9375 53.421875 
Q 6.9375 61.234375 12.546875 66.546875 
Q 18.171875 71.875 27.484375 71.875 
Q 36.859375 71.875 42.578125 66.421875 
Q 48.296875 60.984375 48.296875 53.171875 
Q 48.296875 48.1875 45.671875 44.5 
Q 43.0625 40.828125 37.75 38.8125 
Q 44.34375 36.671875 47.78125 31.875 
Q 51.21875 27.09375 51.21875 20.453125 
Q 51.21875 11.28125 44.71875 5.03125 
Q 38.234375 -1.21875 27.640625 -1.21875 
Q 17.046875 -1.21875 10.546875 5.046875 
Q 4.046875 11.328125 4.046875 20.703125 
Q 4.046875 27.6875 7.59375 32.390625 
Q 11.140625 37.109375 17.671875 38.8125 
z
M 15.921875 53.71875 
Q 15.921875 48.640625 19.1875 45.40625 
Q 22.46875 42.1875 27.6875 42.1875 
Q 32.765625 42.1875 36.015625 45.375 
Q 39.265625 48.578125 39.265625 53.21875 
Q 39.265625 58.0625 35.90625 61.359375 
Q 32.5625 64.65625 27.59375 64.65625 
Q 22.5625 64.65625 19.234375 61.421875 
Q 15.921875 58.203125 15.921875 53.71875 
z
M 13.09375 20.65625 
Q 13.09375 16.890625 14.875 13.375 
Q 16.65625 9.859375 20.171875 7.921875 
Q 23.6875 6 27.734375 6 
Q 34.03125 6 38.125 10.046875 
Q 42.234375 14.109375 42.234375 20.359375 
Q 42.234375 26.703125 38.015625 30.859375 
Q 33.796875 35.015625 27.4375 35.015625 
Q 21.234375 35.015625 17.15625 30.90625 
Q 13.09375 26.8125 13.09375 20.65625 
z
" id="ArialMT-56"/>
      </defs>
      <g style="fill:#262626;" transform="translate(25.73625 90.984535)scale(0.1 -0.1)">
       <use xlink:href="#ArialMT-56"/>
       <use x="55.615234" xlink:href="#ArialMT-48"/>
       <use x="111.230469" xlink:href="#ArialMT-48"/>
       <use x="166.845703" xlink:href="#ArialMT-48"/>
      </g>
     </g>
    </g>
    <g id="ytick_5">
     <g id="line2d_19">
      <path clip-path="url(#pae4cf3db47)" d="M 54.98 65.827917 
L 271.2 65.827917 
" style="fill:none;stroke:#ffffff;stroke-linecap:round;"/>
     </g>
     <g id="line2d_20"/>
     <g id="text_12">
      <!-- 10000 -->
      <g style="fill:#262626;" transform="translate(20.175312 69.406823)scale(0.1 -0.1)">
       <use xlink:href="#ArialMT-49"/>
       <use x="55.615234" xlink:href="#ArialMT-48"/>
       <use x="111.230469" xlink:href="#ArialMT-48"/>
       <use x="166.845703" xlink:href="#ArialMT-48"/>
       <use x="222.460938" xlink:href="#ArialMT-48"/>
      </g>
     </g>
    </g>
    <g id="ytick_6">
     <g id="line2d_21">
      <path clip-path="url(#pae4cf3db47)" d="M 54.98 44.250205 
L 271.2 44.250205 
" style="fill:none;stroke:#ffffff;stroke-linecap:round;"/>
     </g>
     <g id="line2d_22"/>
     <g id="text_13">
      <!-- 12000 -->
      <g style="fill:#262626;" transform="translate(20.175312 47.829111)scale(0.1 -0.1)">
       <use xlink:href="#ArialMT-49"/>
       <use x="55.615234" xlink:href="#ArialMT-50"/>
       <use x="111.230469" xlink:href="#ArialMT-48"/>
       <use x="166.845703" xlink:href="#ArialMT-48"/>
       <use x="222.460938" xlink:href="#ArialMT-48"/>
      </g>
     </g>
    </g>
    <g id="text_14">
     <!-- Performance -->
     <defs>
      <path d="M 7.71875 0 
L 7.71875 71.578125 
L 34.71875 71.578125 
Q 41.84375 71.578125 45.609375 70.90625 
Q 50.875 70.015625 54.4375 67.546875 
Q 58.015625 65.09375 60.1875 60.640625 
Q 62.359375 56.203125 62.359375 50.875 
Q 62.359375 41.75 56.546875 35.421875 
Q 50.734375 29.109375 35.546875 29.109375 
L 17.1875 29.109375 
L 17.1875 0 
z
M 17.1875 37.546875 
L 35.6875 37.546875 
Q 44.875 37.546875 48.734375 40.96875 
Q 52.59375 44.390625 52.59375 50.59375 
Q 52.59375 55.078125 50.3125 58.265625 
Q 48.046875 61.46875 44.34375 62.5 
Q 41.9375 63.140625 35.5 63.140625 
L 17.1875 63.140625 
z
" id="ArialMT-80"/>
      <path d="M 8.6875 0 
L 8.6875 45.015625 
L 0.921875 45.015625 
L 0.921875 51.859375 
L 8.6875 51.859375 
L 8.6875 57.375 
Q 8.6875 62.59375 9.625 65.140625 
Q 10.890625 68.5625 14.078125 70.671875 
Q 17.28125 72.796875 23.046875 72.796875 
Q 26.765625 72.796875 31.25 71.921875 
L 29.9375 64.265625 
Q 27.203125 64.75 24.75 64.75 
Q 20.75 64.75 19.09375 63.03125 
Q 17.4375 61.328125 17.4375 56.640625 
L 17.4375 51.859375 
L 27.546875 51.859375 
L 27.546875 45.015625 
L 17.4375 45.015625 
L 17.4375 0 
z
" id="ArialMT-102"/>
      <path d="M 6.59375 0 
L 6.59375 51.859375 
L 14.453125 51.859375 
L 14.453125 44.578125 
Q 16.890625 48.390625 20.9375 50.703125 
Q 25 53.03125 30.171875 53.03125 
Q 35.9375 53.03125 39.625 50.640625 
Q 43.3125 48.25 44.828125 43.953125 
Q 50.984375 53.03125 60.84375 53.03125 
Q 68.5625 53.03125 72.703125 48.75 
Q 76.859375 44.484375 76.859375 35.59375 
L 76.859375 0 
L 68.109375 0 
L 68.109375 32.671875 
Q 68.109375 37.9375 67.25 40.25 
Q 66.40625 42.578125 64.15625 43.984375 
Q 61.921875 45.40625 58.890625 45.40625 
Q 53.421875 45.40625 49.796875 41.765625 
Q 46.1875 38.140625 46.1875 30.125 
L 46.1875 0 
L 37.40625 0 
L 37.40625 33.6875 
Q 37.40625 39.546875 35.25 42.46875 
Q 33.109375 45.40625 28.21875 45.40625 
Q 24.515625 45.40625 21.359375 43.453125 
Q 18.21875 41.5 16.796875 37.734375 
Q 15.375 33.984375 15.375 26.90625 
L 15.375 0 
z
" id="ArialMT-109"/>
     </defs>
     <g style="fill:#262626;" transform="translate(13.989062 128.107803)rotate(-90)scale(0.11 -0.11)">
      <use xlink:href="#ArialMT-80"/>
      <use x="66.699219" xlink:href="#ArialMT-101"/>
      <use x="122.314453" xlink:href="#ArialMT-114"/>
      <use x="155.615234" xlink:href="#ArialMT-102"/>
      <use x="183.398438" xlink:href="#ArialMT-111"/>
      <use x="239.013672" xlink:href="#ArialMT-114"/>
      <use x="272.314453" xlink:href="#ArialMT-109"/>
      <use x="355.615234" xlink:href="#ArialMT-97"/>
      <use x="411.230469" xlink:href="#ArialMT-110"/>
      <use x="466.845703" xlink:href="#ArialMT-99"/>
      <use x="516.845703" xlink:href="#ArialMT-101"/>
     </g>
    </g>
   </g>
   <g id="PolyCollection_1">
    <path clip-path="url(#pae4cf3db47)" d="M 54.98 144.899431 
L 54.98 149.705841 
L 55.703144 145.108399 
L 56.426288 142.004056 
L 57.149431 138.926458 
L 57.872575 136.495397 
L 58.595719 134.67258 
L 59.318863 128.721013 
L 60.042007 123.889534 
L 60.765151 120.437973 
L 61.488294 118.186588 
L 62.211438 116.427546 
L 62.934582 114.912225 
L 63.657726 113.640035 
L 64.38087 112.413672 
L 65.104013 111.415218 
L 65.827157 110.421167 
L 66.550301 109.351589 
L 67.273445 108.586903 
L 67.996589 107.923147 
L 68.719732 106.778111 
L 69.442876 105.723244 
L 70.16602 105.209184 
L 70.889164 104.756551 
L 71.612308 103.893309 
L 72.335452 103.162101 
L 73.058595 102.250513 
L 73.781739 101.563302 
L 74.504883 100.690661 
L 75.228027 99.786092 
L 75.951171 98.932307 
L 76.674314 98.431948 
L 77.397458 97.780059 
L 78.120602 96.682339 
L 78.843746 95.822026 
L 79.56689 95.042492 
L 80.290033 94.444792 
L 81.013177 93.950925 
L 81.736321 93.411405 
L 82.459465 92.903788 
L 83.182609 92.380355 
L 83.905753 91.991432 
L 84.628896 91.433507 
L 85.35204 90.963915 
L 86.075184 90.625727 
L 86.798328 90.289023 
L 87.521472 89.923024 
L 88.244615 89.554313 
L 88.967759 88.959007 
L 89.690903 88.559008 
L 90.414047 88.332445 
L 91.137191 88.195591 
L 91.860334 87.57579 
L 92.583478 87.15829 
L 93.306622 86.808003 
L 94.029766 86.518616 
L 94.75291 86.156177 
L 95.476054 86.087418 
L 96.199197 85.988943 
L 96.922341 86.003985 
L 97.645485 85.61143 
L 98.368629 85.254142 
L 99.091773 84.798899 
L 99.814916 84.708769 
L 100.53806 84.719015 
L 101.261204 84.496422 
L 101.984348 84.137582 
L 102.707492 83.945993 
L 103.430635 83.559616 
L 104.153779 83.044065 
L 104.876923 82.665729 
L 105.600067 82.571286 
L 106.323211 82.392519 
L 107.046355 82.237287 
L 107.769498 81.975141 
L 108.492642 81.644293 
L 109.215786 81.431772 
L 109.93893 81.31578 
L 110.662074 81.167343 
L 111.385217 80.976961 
L 112.108361 81.5543 
L 112.831505 81.34508 
L 113.554649 81.180839 
L 114.277793 80.995992 
L 115.000936 80.799134 
L 115.72408 80.634276 
L 116.447224 80.518815 
L 117.170368 80.441899 
L 117.893512 80.268355 
L 118.616656 80.070022 
L 119.339799 80.036093 
L 120.062943 79.401907 
L 120.786087 79.331214 
L 121.509231 79.175658 
L 122.232375 79.029057 
L 122.955518 78.960338 
L 123.678662 78.701818 
L 124.401806 78.491251 
L 125.12495 78.26889 
L 125.848094 78.018985 
L 126.571237 77.890706 
L 127.294381 77.55304 
L 128.017525 77.298056 
L 128.740669 77.129436 
L 129.463813 76.946286 
L 130.186957 76.759406 
L 130.9101 76.587306 
L 131.633244 76.460342 
L 132.356388 76.234451 
L 133.079532 75.998578 
L 133.802676 75.900485 
L 134.525819 75.645948 
L 135.248963 75.806751 
L 135.972107 75.656384 
L 136.695251 75.569584 
L 137.418395 75.414843 
L 138.141538 75.406988 
L 138.864682 75.08083 
L 139.587826 75.037037 
L 140.31097 74.963531 
L 141.034114 74.832105 
L 141.757258 74.647266 
L 142.480401 74.45002 
L 143.203545 74.065774 
L 143.926689 73.922515 
L 144.649833 74.006819 
L 145.372977 73.854751 
L 146.09612 73.499901 
L 146.819264 73.414977 
L 147.542408 73.241021 
L 148.265552 73.363557 
L 148.988696 73.298514 
L 149.711839 73.149667 
L 150.434983 73.009229 
L 151.158127 72.808529 
L 151.881271 72.45018 
L 152.604415 71.950092 
L 153.327559 71.688815 
L 154.050702 71.479643 
L 154.773846 71.296504 
L 155.49699 71.147308 
L 156.220134 70.794459 
L 156.943278 70.801756 
L 157.666421 70.864025 
L 158.389565 70.896925 
L 159.112709 71.06352 
L 159.835853 71.13636 
L 160.558997 71.101235 
L 161.28214 71.22225 
L 162.005284 71.164058 
L 162.728428 71.071023 
L 163.451572 70.99708 
L 164.174716 71.301268 
L 164.89786 70.981692 
L 165.621003 70.828928 
L 166.344147 70.621029 
L 167.067291 70.264421 
L 167.790435 70.197081 
L 168.513579 70.166575 
L 169.236722 70.071363 
L 169.959866 69.91774 
L 170.68301 69.832236 
L 171.406154 69.64277 
L 172.129298 69.122425 
L 172.852441 69.259676 
L 173.575585 69.067999 
L 174.298729 69.195703 
L 175.021873 69.127395 
L 175.745017 68.922112 
L 176.468161 69.068897 
L 177.191304 68.959262 
L 177.914448 69.00097 
L 178.637592 68.865118 
L 179.360736 68.737549 
L 180.08388 68.755475 
L 180.807023 68.634043 
L 181.530167 68.512014 
L 182.253311 68.262463 
L 182.976455 68.148527 
L 183.699599 68.060625 
L 184.422742 67.924452 
L 185.145886 68.122622 
L 185.86903 68.043303 
L 186.592174 68.120891 
L 187.315318 68.096641 
L 188.038462 67.918656 
L 188.761605 67.690633 
L 189.484749 67.616144 
L 190.207893 67.490327 
L 190.931037 67.442794 
L 191.654181 67.534326 
L 192.377324 67.2539 
L 193.100468 66.899858 
L 193.823612 66.638681 
L 194.546756 66.246544 
L 195.2699 66.17753 
L 195.993043 66.178918 
L 196.716187 66.115256 
L 197.439331 66.090153 
L 198.162475 66.126529 
L 198.885619 66.085137 
L 199.608763 65.934957 
L 200.331906 65.861674 
L 201.05505 65.743186 
L 201.778194 65.675463 
L 202.501338 65.811703 
L 203.224482 66.006355 
L 203.947625 65.860345 
L 204.670769 65.87763 
L 205.393913 65.846607 
L 206.117057 65.866069 
L 206.840201 65.888546 
L 207.563344 65.745037 
L 208.286488 66.01118 
L 209.009632 65.872945 
L 209.732776 66.036979 
L 210.45592 66.02808 
L 211.179064 65.940916 
L 211.902207 65.761616 
L 212.625351 65.766483 
L 213.348495 65.763082 
L 214.071639 66.455651 
L 214.794783 68.279592 
L 215.517926 70.13763 
L 216.24107 71.463001 
L 216.964214 72.490608 
L 217.687358 72.427812 
L 218.410502 72.83445 
L 219.133645 72.954701 
L 219.856789 73.462351 
L 220.579933 73.017461 
L 221.303077 72.464827 
L 222.026221 70.013766 
L 222.749365 67.381352 
L 223.472508 66.394724 
L 224.195652 65.96224 
L 224.918796 65.707853 
L 225.64194 65.888798 
L 226.365084 65.736291 
L 227.088227 66.189847 
L 227.811371 66.293853 
L 228.534515 66.219287 
L 229.257659 65.921512 
L 229.980803 65.696573 
L 230.703946 65.604667 
L 231.42709 65.616402 
L 232.150234 65.701041 
L 232.873378 65.408692 
L 233.596522 65.314608 
L 234.319666 65.297439 
L 235.042809 64.757354 
L 235.765953 64.46398 
L 236.489097 64.298259 
L 237.212241 64.539978 
L 237.935385 64.346638 
L 238.658528 64.142045 
L 239.381672 63.934643 
L 240.104816 63.682799 
L 240.82796 63.589216 
L 241.551104 63.445001 
L 242.274247 63.498038 
L 242.997391 63.3113 
L 243.720535 63.203654 
L 244.443679 63.2488 
L 245.166823 62.874083 
L 245.889967 62.944946 
L 246.61311 63.067506 
L 247.336254 62.823326 
L 248.059398 62.893512 
L 248.782542 62.94087 
L 249.505686 62.994374 
L 250.228829 62.959014 
L 250.951973 62.957488 
L 251.675117 63.021278 
L 252.398261 63.145861 
L 253.121405 62.860796 
L 253.844548 62.74862 
L 254.567692 62.950715 
L 255.290836 63.480256 
L 256.01398 63.2355 
L 256.737124 63.066347 
L 257.460268 62.832746 
L 258.183411 62.530318 
L 258.906555 62.776765 
L 259.629699 62.555284 
L 260.352843 62.37135 
L 261.075987 62.39884 
L 261.79913 62.700125 
L 262.522274 62.325821 
L 263.245418 61.784909 
L 263.968562 61.85055 
L 264.691706 61.771442 
L 265.414849 61.856225 
L 266.137993 61.952899 
L 266.861137 61.642385 
L 267.584281 61.708511 
L 268.307425 61.649165 
L 269.030569 61.779048 
L 269.753712 61.424393 
L 270.476856 61.464054 
L 271.2 61.365996 
L 271.2 38.697818 
L 271.2 38.697818 
L 270.476856 38.246964 
L 269.753712 38.555211 
L 269.030569 38.844001 
L 268.307425 38.758468 
L 267.584281 39.22544 
L 266.861137 39.021092 
L 266.137993 39.15265 
L 265.414849 38.808229 
L 264.691706 38.633495 
L 263.968562 38.678876 
L 263.245418 38.703968 
L 262.522274 39.588363 
L 261.79913 39.304487 
L 261.075987 39.826403 
L 260.352843 39.935679 
L 259.629699 39.467891 
L 258.906555 39.486595 
L 258.183411 39.567177 
L 257.460268 39.82229 
L 256.737124 39.941677 
L 256.01398 40.120956 
L 255.290836 40.558713 
L 254.567692 39.99706 
L 253.844548 39.89062 
L 253.121405 39.25164 
L 252.398261 39.692686 
L 251.675117 39.78279 
L 250.951973 39.559606 
L 250.228829 39.057325 
L 249.505686 39.241932 
L 248.782542 39.696054 
L 248.059398 39.733525 
L 247.336254 39.202481 
L 246.61311 39.476301 
L 245.889967 39.945428 
L 245.166823 40.391263 
L 244.443679 40.427513 
L 243.720535 40.097212 
L 242.997391 40.66864 
L 242.274247 40.593613 
L 241.551104 40.984933 
L 240.82796 40.598055 
L 240.104816 40.885982 
L 239.381672 40.982973 
L 238.658528 40.592661 
L 237.935385 40.554459 
L 237.212241 40.048627 
L 236.489097 39.370624 
L 235.765953 39.59217 
L 235.042809 39.489192 
L 234.319666 39.944568 
L 233.596522 39.681812 
L 232.873378 39.791874 
L 232.150234 39.642662 
L 231.42709 39.919758 
L 230.703946 40.291145 
L 229.980803 40.281244 
L 229.257659 40.560873 
L 228.534515 41.016787 
L 227.811371 41.066932 
L 227.088227 41.124594 
L 226.365084 41.02365 
L 225.64194 41.135239 
L 224.918796 41.294429 
L 224.195652 41.804361 
L 223.472508 42.281363 
L 222.749365 42.682142 
L 222.026221 42.334916 
L 221.303077 41.726571 
L 220.579933 41.350438 
L 219.856789 41.381365 
L 219.133645 41.414483 
L 218.410502 41.857964 
L 217.687358 42.143808 
L 216.964214 42.283507 
L 216.24107 42.329417 
L 215.517926 43.635102 
L 214.794783 43.91346 
L 214.071639 43.792299 
L 213.348495 42.547465 
L 212.625351 42.186129 
L 211.902207 41.965264 
L 211.179064 42.320013 
L 210.45592 42.517285 
L 209.732776 42.589661 
L 209.009632 42.717629 
L 208.286488 42.756967 
L 207.563344 42.051426 
L 206.840201 41.994206 
L 206.117057 42.176015 
L 205.393913 42.532697 
L 204.670769 42.439591 
L 203.947625 42.542434 
L 203.224482 42.824141 
L 202.501338 42.609545 
L 201.778194 42.543581 
L 201.05505 42.976384 
L 200.331906 43.182506 
L 199.608763 43.394331 
L 198.885619 43.551715 
L 198.162475 43.353508 
L 197.439331 43.247949 
L 196.716187 43.368082 
L 195.993043 43.427364 
L 195.2699 43.14088 
L 194.546756 43.610977 
L 193.823612 43.910532 
L 193.100468 44.014847 
L 192.377324 43.937385 
L 191.654181 44.553263 
L 190.931037 44.789339 
L 190.207893 44.938228 
L 189.484749 45.000275 
L 188.761605 45.211962 
L 188.038462 45.666855 
L 187.315318 46.368775 
L 186.592174 46.464909 
L 185.86903 46.811106 
L 185.145886 46.988491 
L 184.422742 47.39801 
L 183.699599 47.026099 
L 182.976455 46.921624 
L 182.253311 47.269562 
L 181.530167 47.321902 
L 180.807023 47.467409 
L 180.08388 47.584988 
L 179.360736 47.387393 
L 178.637592 47.716485 
L 177.914448 47.723203 
L 177.191304 47.8225 
L 176.468161 48.251764 
L 175.745017 48.731895 
L 175.021873 48.892882 
L 174.298729 49.132473 
L 173.575585 49.62295 
L 172.852441 49.981589 
L 172.129298 49.957985 
L 171.406154 49.96363 
L 170.68301 50.235703 
L 169.959866 50.241692 
L 169.236722 50.357464 
L 168.513579 50.409492 
L 167.790435 50.785746 
L 167.067291 50.896611 
L 166.344147 50.926546 
L 165.621003 51.011878 
L 164.89786 51.095677 
L 164.174716 51.132702 
L 163.451572 51.527523 
L 162.728428 51.177121 
L 162.005284 51.505663 
L 161.28214 51.181602 
L 160.558997 51.057811 
L 159.835853 50.874658 
L 159.112709 50.893804 
L 158.389565 50.689517 
L 157.666421 50.861238 
L 156.943278 50.872346 
L 156.220134 50.97085 
L 155.49699 51.409349 
L 154.773846 51.395856 
L 154.050702 51.258378 
L 153.327559 51.303526 
L 152.604415 51.614012 
L 151.881271 51.829963 
L 151.158127 52.261869 
L 150.434983 52.503123 
L 149.711839 52.427296 
L 148.988696 52.546396 
L 148.265552 52.676047 
L 147.542408 52.182236 
L 146.819264 52.410478 
L 146.09612 52.444712 
L 145.372977 52.733398 
L 144.649833 52.933758 
L 143.926689 52.812083 
L 143.203545 52.561205 
L 142.480401 52.732347 
L 141.757258 52.945193 
L 141.034114 53.080072 
L 140.31097 53.416007 
L 139.587826 53.95249 
L 138.864682 53.923333 
L 138.141538 54.233067 
L 137.418395 54.489931 
L 136.695251 54.587056 
L 135.972107 54.758944 
L 135.248963 55.164822 
L 134.525819 55.03439 
L 133.802676 55.210041 
L 133.079532 55.089953 
L 132.356388 55.182837 
L 131.633244 55.166062 
L 130.9101 55.332899 
L 130.186957 55.55244 
L 129.463813 55.426399 
L 128.740669 55.436775 
L 128.017525 55.519204 
L 127.294381 55.760865 
L 126.571237 56.06603 
L 125.848094 56.963174 
L 125.12495 57.521165 
L 124.401806 57.537641 
L 123.678662 57.53735 
L 122.955518 57.782351 
L 122.232375 58.109872 
L 121.509231 58.276999 
L 120.786087 58.512175 
L 120.062943 58.57215 
L 119.339799 58.602099 
L 118.616656 58.623506 
L 117.893512 58.007219 
L 117.170368 57.611122 
L 116.447224 57.85524 
L 115.72408 58.130358 
L 115.000936 58.173682 
L 114.277793 58.014712 
L 113.554649 58.253483 
L 112.831505 58.52889 
L 112.108361 58.813182 
L 111.385217 59.462612 
L 110.662074 59.739001 
L 109.93893 59.895707 
L 109.215786 60.548843 
L 108.492642 60.897399 
L 107.769498 60.918415 
L 107.046355 61.31857 
L 106.323211 61.675042 
L 105.600067 61.96992 
L 104.876923 61.981632 
L 104.153779 62.380876 
L 103.430635 62.198022 
L 102.707492 62.586739 
L 101.984348 62.830435 
L 101.261204 62.823792 
L 100.53806 63.001123 
L 99.814916 63.29548 
L 99.091773 63.284413 
L 98.368629 63.724739 
L 97.645485 64.203916 
L 96.922341 64.294803 
L 96.199197 64.333023 
L 95.476054 64.624872 
L 94.75291 64.862385 
L 94.029766 65.147481 
L 93.306622 65.415935 
L 92.583478 65.765058 
L 91.860334 66.156183 
L 91.137191 66.775979 
L 90.414047 66.927438 
L 89.690903 67.244128 
L 88.967759 67.939944 
L 88.244615 68.310508 
L 87.521472 68.849766 
L 86.798328 69.316926 
L 86.075184 69.710661 
L 85.35204 70.300271 
L 84.628896 70.634095 
L 83.905753 71.342289 
L 83.182609 71.780317 
L 82.459465 72.234407 
L 81.736321 72.684595 
L 81.013177 73.217638 
L 80.290033 74.136928 
L 79.56689 74.67915 
L 78.843746 75.413168 
L 78.120602 76.957278 
L 77.397458 77.558711 
L 76.674314 78.454237 
L 75.951171 79.119968 
L 75.228027 80.113757 
L 74.504883 81.008499 
L 73.781739 81.70934 
L 73.058595 82.707841 
L 72.335452 83.434881 
L 71.612308 84.444883 
L 70.889164 85.271584 
L 70.16602 85.738235 
L 69.442876 86.8328 
L 68.719732 87.799476 
L 67.996589 88.751876 
L 67.273445 89.932584 
L 66.550301 91.50731 
L 65.827157 93.271809 
L 65.104013 95.063786 
L 64.38087 97.029965 
L 63.657726 99.789165 
L 62.934582 102.335823 
L 62.211438 105.730698 
L 61.488294 108.856341 
L 60.765151 112.689071 
L 60.042007 117.446936 
L 59.318863 123.601902 
L 58.595719 130.453736 
L 57.872575 133.124964 
L 57.149431 135.754231 
L 56.426288 138.707435 
L 55.703144 141.619142 
L 54.98 144.899431 
z
" style="fill:#4c72b0;fill-opacity:0.2;"/>
   </g>
   <g id="PolyCollection_2">
    <path clip-path="url(#pae4cf3db47)" d="M 54.98 145.171281 
L 54.98 155.002236 
L 55.703144 151.578183 
L 56.426288 148.537844 
L 57.149431 145.606429 
L 57.872575 143.12799 
L 58.595719 141.023191 
L 59.318863 135.578647 
L 60.042007 130.799585 
L 60.765151 126.768734 
L 61.488294 123.977749 
L 62.211438 121.607547 
L 62.934582 119.126987 
L 63.657726 117.279704 
L 64.38087 115.357871 
L 65.104013 114.331728 
L 65.827157 113.097198 
L 66.550301 111.554887 
L 67.273445 109.980641 
L 67.996589 108.354372 
L 68.719732 107.306622 
L 69.442876 106.184562 
L 70.16602 105.047073 
L 70.889164 104.111027 
L 71.612308 102.995408 
L 72.335452 102.185312 
L 73.058595 101.066675 
L 73.781739 99.936303 
L 74.504883 99.127907 
L 75.228027 98.456153 
L 75.951171 97.843283 
L 76.674314 96.829323 
L 77.397458 96.081737 
L 78.120602 95.415602 
L 78.843746 94.823538 
L 79.56689 94.344777 
L 80.290033 93.640077 
L 81.013177 92.887906 
L 81.736321 92.508555 
L 82.459465 91.812737 
L 83.182609 91.218847 
L 83.905753 90.68614 
L 84.628896 90.180188 
L 85.35204 89.509214 
L 86.075184 89.137957 
L 86.798328 88.560167 
L 87.521472 87.996307 
L 88.244615 87.624057 
L 88.967759 87.106398 
L 89.690903 86.48065 
L 90.414047 86.38284 
L 91.137191 86.202659 
L 91.860334 85.989471 
L 92.583478 85.734036 
L 93.306622 85.402956 
L 94.029766 85.008513 
L 94.75291 84.59597 
L 95.476054 84.339226 
L 96.199197 83.945926 
L 96.922341 83.892532 
L 97.645485 83.700488 
L 98.368629 83.31083 
L 99.091773 83.051403 
L 99.814916 82.681935 
L 100.53806 82.508377 
L 101.261204 82.337737 
L 101.984348 82.042583 
L 102.707492 81.92173 
L 103.430635 81.641326 
L 104.153779 81.505027 
L 104.876923 81.171626 
L 105.600067 80.951104 
L 106.323211 81.166185 
L 107.046355 80.920892 
L 107.769498 80.716077 
L 108.492642 80.467179 
L 109.215786 80.320459 
L 109.93893 80.309216 
L 110.662074 80.172057 
L 111.385217 80.167458 
L 112.108361 80.107588 
L 112.831505 79.841202 
L 113.554649 79.772835 
L 114.277793 79.281017 
L 115.000936 79.031407 
L 115.72408 79.157302 
L 116.447224 79.011988 
L 117.170368 78.912899 
L 117.893512 78.644309 
L 118.616656 78.404123 
L 119.339799 78.371992 
L 120.062943 78.127278 
L 120.786087 78.084842 
L 121.509231 77.857204 
L 122.232375 77.704885 
L 122.955518 77.747096 
L 123.678662 77.456644 
L 124.401806 77.299922 
L 125.12495 77.045159 
L 125.848094 76.836498 
L 126.571237 76.705256 
L 127.294381 76.363156 
L 128.017525 76.236713 
L 128.740669 76.080351 
L 129.463813 76.158601 
L 130.186957 75.985531 
L 130.9101 75.67044 
L 131.633244 75.337206 
L 132.356388 75.186198 
L 133.079532 75.021865 
L 133.802676 74.971957 
L 134.525819 74.803946 
L 135.248963 74.573964 
L 135.972107 74.372694 
L 136.695251 74.129562 
L 137.418395 73.895552 
L 138.141538 73.836821 
L 138.864682 73.958917 
L 139.587826 73.901608 
L 140.31097 73.971069 
L 141.034114 73.82204 
L 141.757258 73.580817 
L 142.480401 73.683903 
L 143.203545 73.585576 
L 143.926689 73.54364 
L 144.649833 73.432152 
L 145.372977 73.373057 
L 146.09612 73.242235 
L 146.819264 72.827533 
L 147.542408 72.563611 
L 148.265552 72.207615 
L 148.988696 72.017625 
L 149.711839 71.991436 
L 150.434983 71.556162 
L 151.158127 71.720451 
L 151.881271 71.736496 
L 152.604415 71.633091 
L 153.327559 71.258376 
L 154.050702 70.967176 
L 154.773846 70.961679 
L 155.49699 70.965787 
L 156.220134 70.723107 
L 156.943278 70.678791 
L 157.666421 70.37905 
L 158.389565 70.298107 
L 159.112709 69.951237 
L 159.835853 69.385616 
L 160.558997 69.080116 
L 161.28214 68.887952 
L 162.005284 68.87582 
L 162.728428 68.656396 
L 163.451572 68.339735 
L 164.174716 68.255128 
L 164.89786 68.024376 
L 165.621003 67.98192 
L 166.344147 68.001149 
L 167.067291 67.908666 
L 167.790435 67.896663 
L 168.513579 68.111287 
L 169.236722 68.22156 
L 169.959866 67.971353 
L 170.68301 68.065483 
L 171.406154 68.003367 
L 172.129298 68.071876 
L 172.852441 68.104436 
L 173.575585 67.9689 
L 174.298729 67.742234 
L 175.021873 67.517373 
L 175.745017 67.435108 
L 176.468161 67.099801 
L 177.191304 66.799243 
L 177.914448 66.744705 
L 178.637592 66.346582 
L 179.360736 66.358218 
L 180.08388 66.070767 
L 180.807023 66.012004 
L 181.530167 66.213573 
L 182.253311 65.854005 
L 182.976455 65.57567 
L 183.699599 65.474444 
L 184.422742 65.565558 
L 185.145886 65.637481 
L 185.86903 65.64888 
L 186.592174 65.877446 
L 187.315318 65.814487 
L 188.038462 65.681793 
L 188.761605 65.49204 
L 189.484749 65.090352 
L 190.207893 65.12628 
L 190.931037 65.521832 
L 191.654181 65.568213 
L 192.377324 65.551179 
L 193.100468 65.278721 
L 193.823612 64.94635 
L 194.546756 64.636888 
L 195.2699 64.395434 
L 195.993043 64.301079 
L 196.716187 64.194762 
L 197.439331 64.199894 
L 198.162475 63.984531 
L 198.885619 63.681034 
L 199.608763 63.292925 
L 200.331906 62.860456 
L 201.05505 62.805829 
L 201.778194 62.840438 
L 202.501338 62.731558 
L 203.224482 62.721336 
L 203.947625 62.948302 
L 204.670769 62.881092 
L 205.393913 62.63727 
L 206.117057 62.690162 
L 206.840201 63.207322 
L 207.563344 63.312944 
L 208.286488 63.532166 
L 209.009632 63.3096 
L 209.732776 63.451825 
L 210.45592 63.479607 
L 211.179064 63.48959 
L 211.902207 63.674622 
L 212.625351 63.690947 
L 213.348495 63.948935 
L 214.071639 64.168279 
L 214.794783 63.867946 
L 215.517926 63.91778 
L 216.24107 63.812704 
L 216.964214 63.89475 
L 217.687358 63.700745 
L 218.410502 63.549119 
L 219.133645 63.250031 
L 219.856789 62.693791 
L 220.579933 62.677428 
L 221.303077 62.552173 
L 222.026221 62.419784 
L 222.749365 62.288331 
L 223.472508 62.085742 
L 224.195652 61.766896 
L 224.918796 62.078173 
L 225.64194 62.036469 
L 226.365084 61.944256 
L 227.088227 61.899012 
L 227.811371 62.11037 
L 228.534515 62.29078 
L 229.257659 62.234208 
L 229.980803 62.014897 
L 230.703946 61.837207 
L 231.42709 61.839946 
L 232.150234 61.812974 
L 232.873378 61.559163 
L 233.596522 61.450477 
L 234.319666 61.539381 
L 235.042809 61.388934 
L 235.765953 61.255112 
L 236.489097 60.909645 
L 237.212241 60.851101 
L 237.935385 60.837221 
L 238.658528 60.724977 
L 239.381672 60.497541 
L 240.104816 60.351997 
L 240.82796 60.10806 
L 241.551104 60.219136 
L 242.274247 60.057282 
L 242.997391 60.09709 
L 243.720535 59.895635 
L 244.443679 59.991904 
L 245.166823 60.154535 
L 245.889967 60.065715 
L 246.61311 60.094251 
L 247.336254 60.030487 
L 248.059398 59.950123 
L 248.782542 59.754704 
L 249.505686 59.643574 
L 250.228829 59.696388 
L 250.951973 59.591536 
L 251.675117 59.486007 
L 252.398261 59.520605 
L 253.121405 59.194541 
L 253.844548 59.255697 
L 254.567692 59.178904 
L 255.290836 59.143644 
L 256.01398 59.259526 
L 256.737124 59.212163 
L 257.460268 59.420214 
L 258.183411 59.205559 
L 258.906555 59.203334 
L 259.629699 59.13775 
L 260.352843 59.004491 
L 261.075987 59.259811 
L 261.79913 59.353418 
L 262.522274 59.223889 
L 263.245418 59.3862 
L 263.968562 59.532859 
L 264.691706 59.900575 
L 265.414849 59.66066 
L 266.137993 59.667984 
L 266.861137 59.67707 
L 267.584281 59.68266 
L 268.307425 59.76342 
L 269.030569 59.620264 
L 269.753712 59.454693 
L 270.476856 59.585791 
L 271.2 59.576367 
L 271.2 43.899164 
L 271.2 43.899164 
L 270.476856 43.481957 
L 269.753712 43.388605 
L 269.030569 43.591128 
L 268.307425 43.430296 
L 267.584281 43.623536 
L 266.861137 44.006603 
L 266.137993 43.854783 
L 265.414849 43.908822 
L 264.691706 43.376857 
L 263.968562 43.029444 
L 263.245418 43.007606 
L 262.522274 43.161996 
L 261.79913 43.137555 
L 261.075987 42.967037 
L 260.352843 42.823959 
L 259.629699 42.500327 
L 258.906555 42.014255 
L 258.183411 42.111384 
L 257.460268 41.971674 
L 256.737124 41.930747 
L 256.01398 41.85876 
L 255.290836 41.619473 
L 254.567692 41.484588 
L 253.844548 41.46176 
L 253.121405 41.280889 
L 252.398261 41.09457 
L 251.675117 41.365314 
L 250.951973 41.504723 
L 250.228829 41.670335 
L 249.505686 41.519608 
L 248.782542 41.559235 
L 248.059398 41.993144 
L 247.336254 42.194951 
L 246.61311 42.098051 
L 245.889967 41.88235 
L 245.166823 41.828902 
L 244.443679 42.476202 
L 243.720535 42.290449 
L 242.997391 42.590254 
L 242.274247 42.583967 
L 241.551104 42.60279 
L 240.82796 42.576634 
L 240.104816 42.796159 
L 239.381672 42.665929 
L 238.658528 43.055798 
L 237.935385 43.451904 
L 237.212241 43.771971 
L 236.489097 43.765193 
L 235.765953 43.972565 
L 235.042809 43.772678 
L 234.319666 43.83252 
L 233.596522 44.065164 
L 232.873378 44.216485 
L 232.150234 43.923241 
L 231.42709 44.17985 
L 230.703946 43.953717 
L 229.980803 43.60088 
L 229.257659 43.846657 
L 228.534515 43.764548 
L 227.811371 43.629664 
L 227.088227 43.645958 
L 226.365084 43.532617 
L 225.64194 43.508084 
L 224.918796 43.370958 
L 224.195652 43.317903 
L 223.472508 43.572833 
L 222.749365 44.002561 
L 222.026221 44.088002 
L 221.303077 44.012682 
L 220.579933 44.316659 
L 219.856789 44.617197 
L 219.133645 45.012581 
L 218.410502 45.144228 
L 217.687358 44.960213 
L 216.964214 45.25426 
L 216.24107 45.199777 
L 215.517926 45.142194 
L 214.794783 45.102441 
L 214.071639 46.339005 
L 213.348495 46.179001 
L 212.625351 46.06367 
L 211.902207 45.951738 
L 211.179064 45.76351 
L 210.45592 45.792979 
L 209.732776 45.746892 
L 209.009632 45.804471 
L 208.286488 45.822301 
L 207.563344 45.64661 
L 206.840201 45.359736 
L 206.117057 44.586935 
L 205.393913 44.729867 
L 204.670769 44.908563 
L 203.947625 44.962524 
L 203.224482 44.785372 
L 202.501338 44.50844 
L 201.778194 44.979103 
L 201.05505 45.010413 
L 200.331906 45.054052 
L 199.608763 44.850144 
L 198.885619 45.12412 
L 198.162475 45.74708 
L 197.439331 45.728256 
L 196.716187 45.559395 
L 195.993043 45.713169 
L 195.2699 45.838096 
L 194.546756 46.074155 
L 193.823612 46.012154 
L 193.100468 46.140582 
L 192.377324 46.303058 
L 191.654181 46.746647 
L 190.931037 46.606603 
L 190.207893 45.944266 
L 189.484749 45.963452 
L 188.761605 46.090388 
L 188.038462 46.097324 
L 187.315318 46.627724 
L 186.592174 46.740907 
L 185.86903 46.807956 
L 185.145886 46.973626 
L 184.422742 47.008175 
L 183.699599 47.065655 
L 182.976455 47.300109 
L 182.253311 47.654314 
L 181.530167 48.167364 
L 180.807023 48.228644 
L 180.08388 48.235079 
L 179.360736 47.954574 
L 178.637592 48.003188 
L 177.914448 48.359107 
L 177.191304 48.433196 
L 176.468161 48.951662 
L 175.745017 49.122868 
L 175.021873 49.26234 
L 174.298729 49.463764 
L 173.575585 49.392621 
L 172.852441 49.74524 
L 172.129298 49.893589 
L 171.406154 50.069799 
L 170.68301 50.296946 
L 169.959866 50.28575 
L 169.236722 50.289991 
L 168.513579 50.093239 
L 167.790435 50.216015 
L 167.067291 50.488353 
L 166.344147 50.704958 
L 165.621003 50.842254 
L 164.89786 51.040786 
L 164.174716 51.542737 
L 163.451572 51.682562 
L 162.728428 51.664556 
L 162.005284 51.939007 
L 161.28214 52.179887 
L 160.558997 52.441224 
L 159.835853 52.681648 
L 159.112709 53.340343 
L 158.389565 53.416678 
L 157.666421 53.618523 
L 156.943278 53.8186 
L 156.220134 53.837679 
L 155.49699 53.828786 
L 154.773846 54.02988 
L 154.050702 54.118701 
L 153.327559 54.26419 
L 152.604415 54.337671 
L 151.881271 54.45914 
L 151.158127 53.786285 
L 150.434983 53.987534 
L 149.711839 53.977049 
L 148.988696 53.911447 
L 148.265552 53.897305 
L 147.542408 54.166595 
L 146.819264 54.400394 
L 146.09612 54.608775 
L 145.372977 54.72534 
L 144.649833 54.841134 
L 143.926689 55.194994 
L 143.203545 55.528728 
L 142.480401 55.490157 
L 141.757258 55.602213 
L 141.034114 55.716914 
L 140.31097 55.924277 
L 139.587826 56.334798 
L 138.864682 56.479231 
L 138.141538 56.615269 
L 137.418395 57.028376 
L 136.695251 57.053035 
L 135.972107 57.03013 
L 135.248963 57.241664 
L 134.525819 57.454724 
L 133.802676 58.034157 
L 133.079532 58.433774 
L 132.356388 58.547275 
L 131.633244 58.419032 
L 130.9101 58.811033 
L 130.186957 58.869631 
L 129.463813 58.881225 
L 128.740669 59.442266 
L 128.017525 59.461199 
L 127.294381 59.673847 
L 126.571237 60.23082 
L 125.848094 60.033056 
L 125.12495 60.243008 
L 124.401806 60.672328 
L 123.678662 60.927075 
L 122.955518 60.986692 
L 122.232375 61.420678 
L 121.509231 61.635612 
L 120.786087 61.974162 
L 120.062943 62.304034 
L 119.339799 62.636978 
L 118.616656 62.522625 
L 117.893512 63.016654 
L 117.170368 63.230365 
L 116.447224 63.362546 
L 115.72408 63.924335 
L 115.000936 64.196586 
L 114.277793 64.158826 
L 113.554649 64.507831 
L 112.831505 64.593003 
L 112.108361 64.907211 
L 111.385217 64.997271 
L 110.662074 65.16384 
L 109.93893 65.247546 
L 109.215786 65.280058 
L 108.492642 65.689254 
L 107.769498 65.692123 
L 107.046355 65.999139 
L 106.323211 66.427148 
L 105.600067 66.686076 
L 104.876923 66.893494 
L 104.153779 67.163749 
L 103.430635 67.491452 
L 102.707492 67.943913 
L 101.984348 68.2984 
L 101.261204 68.618142 
L 100.53806 68.748256 
L 99.814916 69.159632 
L 99.091773 69.605201 
L 98.368629 69.935126 
L 97.645485 70.368553 
L 96.922341 70.551101 
L 96.199197 70.896025 
L 95.476054 71.190207 
L 94.75291 71.740709 
L 94.029766 72.149382 
L 93.306622 72.710822 
L 92.583478 73.505435 
L 91.860334 73.747679 
L 91.137191 74.125114 
L 90.414047 74.954364 
L 89.690903 75.630383 
L 88.967759 76.182751 
L 88.244615 76.792619 
L 87.521472 77.227694 
L 86.798328 77.620687 
L 86.075184 78.149053 
L 85.35204 78.712915 
L 84.628896 78.82019 
L 83.905753 79.295233 
L 83.182609 79.954239 
L 82.459465 80.140691 
L 81.736321 80.417072 
L 81.013177 80.985935 
L 80.290033 81.329733 
L 79.56689 82.000287 
L 78.843746 82.552847 
L 78.120602 83.055836 
L 77.397458 83.460223 
L 76.674314 84.16455 
L 75.951171 85.051405 
L 75.228027 85.4268 
L 74.504883 86.103681 
L 73.781739 86.996865 
L 73.058595 87.73428 
L 72.335452 88.529488 
L 71.612308 89.434437 
L 70.889164 90.198239 
L 70.16602 90.93553 
L 69.442876 91.902645 
L 68.719732 93.038861 
L 67.996589 93.747567 
L 67.273445 94.89291 
L 66.550301 96.210756 
L 65.827157 97.443447 
L 65.104013 99.142302 
L 64.38087 100.784882 
L 63.657726 102.501677 
L 62.934582 104.881765 
L 62.211438 107.828603 
L 61.488294 110.348979 
L 60.765151 113.746822 
L 60.042007 117.924613 
L 59.318863 123.449866 
L 58.595719 130.222969 
L 57.872575 132.475617 
L 57.149431 134.970969 
L 56.426288 138.030076 
L 55.703144 141.44918 
L 54.98 145.171281 
z
" style="fill:#55a868;fill-opacity:0.2;"/>
   </g>
   <g id="line2d_23">
    <path clip-path="url(#pae4cf3db47)" d="M 54.98 147.302636 
L 55.703144 143.363771 
L 57.872575 134.81018 
L 58.595719 132.563158 
L 60.042007 120.668235 
L 60.765151 116.563522 
L 61.488294 113.521465 
L 62.934582 108.624024 
L 64.38087 104.721819 
L 66.550301 100.42945 
L 67.273445 99.259744 
L 68.719732 97.288794 
L 69.442876 96.278022 
L 70.16602 95.473709 
L 70.889164 95.014068 
L 75.951171 89.026137 
L 76.674314 88.443093 
L 78.120602 86.819809 
L 78.843746 85.617597 
L 79.56689 84.860821 
L 83.182609 82.080336 
L 83.905753 81.666861 
L 84.628896 81.033801 
L 88.244615 78.932411 
L 89.690903 77.901568 
L 90.414047 77.629942 
L 91.137191 77.485785 
L 91.860334 76.865986 
L 93.306622 76.111969 
L 95.476054 75.356145 
L 96.199197 75.160983 
L 96.922341 75.149394 
L 97.645485 74.907673 
L 99.091773 74.041656 
L 100.53806 73.860069 
L 102.707492 73.266366 
L 103.430635 72.878819 
L 104.153779 72.712471 
L 104.876923 72.323681 
L 105.600067 72.270603 
L 109.215786 70.990307 
L 109.93893 70.605744 
L 112.831505 69.936985 
L 114.277793 69.505352 
L 115.72408 69.382317 
L 117.170368 69.026511 
L 119.339799 69.319096 
L 120.062943 68.987029 
L 120.786087 68.921695 
L 124.401806 68.014446 
L 125.12495 67.895028 
L 127.294381 66.656952 
L 128.017525 66.40863 
L 129.463813 66.186343 
L 130.186957 66.155923 
L 131.633244 65.813202 
L 134.525819 65.340169 
L 135.248963 65.485786 
L 135.972107 65.207664 
L 138.141538 64.820028 
L 138.864682 64.502081 
L 139.587826 64.494763 
L 141.034114 63.956088 
L 142.480401 63.591183 
L 143.203545 63.31349 
L 144.649833 63.470288 
L 145.372977 63.294074 
L 146.09612 62.972306 
L 146.819264 62.912727 
L 147.542408 62.711628 
L 148.265552 63.019802 
L 151.158127 62.535199 
L 152.604415 61.782052 
L 153.327559 61.496171 
L 154.773846 61.34618 
L 155.49699 61.278328 
L 156.220134 60.882654 
L 158.389565 60.793221 
L 159.112709 60.978662 
L 160.558997 61.079523 
L 162.005284 61.33486 
L 162.728428 61.124072 
L 163.451572 61.262301 
L 164.174716 61.216985 
L 167.067291 60.580516 
L 167.790435 60.491413 
L 168.513579 60.288033 
L 170.68301 60.033969 
L 172.129298 59.540205 
L 172.852441 59.620632 
L 174.298729 59.164088 
L 176.468161 58.660331 
L 177.191304 58.390881 
L 178.637592 58.290802 
L 179.360736 58.062471 
L 180.08388 58.170232 
L 182.253311 57.766012 
L 182.976455 57.535075 
L 185.145886 57.555557 
L 187.315318 57.232708 
L 188.761605 56.451297 
L 190.931037 56.116067 
L 191.654181 56.043795 
L 192.377324 55.595642 
L 193.823612 55.274606 
L 195.2699 54.659205 
L 195.993043 54.803141 
L 197.439331 54.669051 
L 198.885619 54.818426 
L 201.778194 54.109522 
L 203.224482 54.415248 
L 203.947625 54.201389 
L 207.563344 53.898232 
L 208.286488 54.384074 
L 209.732776 54.31332 
L 211.179064 54.130464 
L 211.902207 53.86344 
L 213.348495 54.155274 
L 215.517926 56.886366 
L 216.24107 56.896209 
L 216.964214 57.387058 
L 217.687358 57.28581 
L 218.410502 57.346207 
L 219.133645 57.184592 
L 219.856789 57.421858 
L 220.579933 57.183949 
L 221.303077 57.095699 
L 222.026221 56.174341 
L 222.749365 55.031747 
L 223.472508 54.338043 
L 224.918796 53.501141 
L 225.64194 53.512018 
L 226.365084 53.37997 
L 227.088227 53.65722 
L 228.534515 53.618037 
L 229.980803 52.988908 
L 230.703946 52.947906 
L 232.150234 52.671851 
L 233.596522 52.49821 
L 234.319666 52.621003 
L 235.042809 52.123273 
L 236.489097 51.834442 
L 237.212241 52.294303 
L 237.935385 52.450549 
L 238.658528 52.367353 
L 239.381672 52.458808 
L 240.82796 52.093635 
L 241.551104 52.214967 
L 243.720535 51.650433 
L 244.443679 51.838157 
L 247.336254 51.012903 
L 248.059398 51.313518 
L 248.782542 51.318462 
L 250.228829 51.00817 
L 251.675117 51.402034 
L 252.398261 51.419274 
L 253.121405 51.056218 
L 254.567692 51.473887 
L 255.290836 52.019484 
L 256.01398 51.678228 
L 258.183411 51.048747 
L 258.906555 51.13168 
L 259.629699 51.011587 
L 260.352843 51.153514 
L 262.522274 50.957092 
L 263.245418 50.244439 
L 265.414849 50.332227 
L 266.137993 50.552774 
L 266.861137 50.331739 
L 267.584281 50.466975 
L 268.307425 50.203817 
L 269.030569 50.311524 
L 269.753712 49.989802 
L 270.476856 49.855509 
L 271.2 50.031907 
L 271.2 50.031907 
" style="fill:none;stroke:#4c72b0;stroke-linecap:round;stroke-width:1.75;"/>
   </g>
   <g id="line2d_24">
    <path clip-path="url(#pae4cf3db47)" d="M 54.98 150.086759 
L 56.426288 143.28396 
L 57.149431 140.288699 
L 58.595719 135.62308 
L 59.318863 129.514256 
L 60.042007 124.362099 
L 60.765151 120.257778 
L 61.488294 117.163364 
L 63.657726 109.89069 
L 64.38087 108.071377 
L 66.550301 103.882822 
L 67.996589 101.05097 
L 68.719732 100.172741 
L 70.16602 97.991302 
L 72.335452 95.3574 
L 74.504883 92.615794 
L 75.228027 91.941476 
L 75.951171 91.447344 
L 76.674314 90.496936 
L 77.397458 89.77098 
L 79.56689 88.172532 
L 81.013177 86.93692 
L 88.967759 81.644574 
L 89.690903 81.055517 
L 93.306622 79.056889 
L 94.75291 78.168339 
L 96.199197 77.420975 
L 97.645485 77.034521 
L 99.814916 75.920784 
L 100.53806 75.628317 
L 101.261204 75.477939 
L 104.876923 74.03256 
L 105.600067 73.81859 
L 106.323211 73.796666 
L 107.769498 73.2041 
L 108.492642 73.078217 
L 109.215786 72.800258 
L 110.662074 72.667948 
L 112.108361 72.507399 
L 112.831505 72.217103 
L 113.554649 72.140333 
L 114.277793 71.719921 
L 115.72408 71.540818 
L 116.447224 71.187267 
L 117.170368 71.071632 
L 117.893512 70.830481 
L 118.616656 70.463374 
L 119.339799 70.504485 
L 121.509231 69.746408 
L 124.401806 68.986125 
L 125.12495 68.644084 
L 125.848094 68.434777 
L 126.571237 68.468038 
L 127.294381 68.018502 
L 130.9101 67.240737 
L 131.633244 66.878119 
L 132.356388 66.866737 
L 133.802676 66.503057 
L 134.525819 66.129335 
L 135.972107 65.701412 
L 137.418395 65.461964 
L 138.141538 65.226045 
L 139.587826 65.118203 
L 141.757258 64.591515 
L 143.203545 64.557152 
L 145.372977 64.049199 
L 146.09612 63.925505 
L 148.265552 63.05246 
L 151.158127 62.753368 
L 151.881271 63.097818 
L 153.327559 62.761283 
L 154.050702 62.542939 
L 155.49699 62.397287 
L 158.389565 61.857392 
L 159.112709 61.64579 
L 159.835853 61.033632 
L 161.28214 60.533919 
L 162.005284 60.407414 
L 163.451572 60.011149 
L 164.174716 59.898932 
L 164.89786 59.532581 
L 167.790435 59.056339 
L 170.68301 59.181215 
L 172.129298 58.982732 
L 172.852441 58.924838 
L 173.575585 58.68076 
L 174.298729 58.602999 
L 176.468161 58.025732 
L 177.191304 57.61622 
L 177.914448 57.551906 
L 178.637592 57.174885 
L 181.530167 57.190468 
L 182.976455 56.43789 
L 183.699599 56.27005 
L 186.592174 56.309177 
L 187.315318 56.221105 
L 188.038462 55.889558 
L 188.761605 55.791214 
L 189.484749 55.526902 
L 190.207893 55.535273 
L 190.931037 56.064218 
L 191.654181 56.15743 
L 193.823612 55.479252 
L 194.546756 55.355521 
L 195.2699 55.116765 
L 196.716187 54.877078 
L 197.439331 54.964075 
L 198.162475 54.865806 
L 198.885619 54.402577 
L 199.608763 54.071534 
L 201.05505 53.908121 
L 201.778194 53.90977 
L 202.501338 53.619999 
L 203.947625 53.955413 
L 204.670769 53.894828 
L 205.393913 53.683568 
L 206.117057 53.638548 
L 206.840201 54.283529 
L 208.286488 54.677234 
L 209.009632 54.557036 
L 212.625351 54.877309 
L 214.071639 55.253642 
L 214.794783 54.485193 
L 216.964214 54.574505 
L 217.687358 54.330479 
L 218.410502 54.346673 
L 219.133645 54.131306 
L 219.856789 53.655494 
L 222.026221 53.253893 
L 222.749365 53.145446 
L 224.195652 52.542399 
L 224.918796 52.724566 
L 229.257659 53.040433 
L 229.980803 52.807889 
L 231.42709 53.009898 
L 232.150234 52.868108 
L 232.873378 52.887824 
L 235.042809 52.580806 
L 235.765953 52.613839 
L 236.489097 52.337419 
L 237.212241 52.311536 
L 238.658528 51.890387 
L 239.381672 51.581735 
L 240.104816 51.574078 
L 240.82796 51.342347 
L 241.551104 51.410963 
L 242.274247 51.320625 
L 242.997391 51.343672 
L 243.720535 51.093042 
L 244.443679 51.234053 
L 245.166823 50.991719 
L 245.889967 50.974033 
L 247.336254 51.112719 
L 248.059398 50.971633 
L 248.782542 50.65697 
L 249.505686 50.581591 
L 250.228829 50.683362 
L 253.121405 50.237715 
L 253.844548 50.358728 
L 255.290836 50.381558 
L 256.01398 50.559143 
L 256.737124 50.571455 
L 257.460268 50.695944 
L 258.906555 50.608795 
L 260.352843 50.914225 
L 261.79913 51.245487 
L 263.245418 51.196903 
L 263.968562 51.281152 
L 264.691706 51.638716 
L 265.414849 51.784741 
L 269.030569 51.605696 
L 269.753712 51.421649 
L 271.2 51.737766 
L 271.2 51.737766 
" style="fill:none;stroke:#55a868;stroke-linecap:round;stroke-width:1.75;"/>
   </g>
   <g id="patch_3">
    <path d="M 54.98 160.84 
L 54.98 32.4092 
" style="fill:none;"/>
   </g>
   <g id="patch_4">
    <path d="M 271.2 160.84 
L 271.2 32.4092 
" style="fill:none;"/>
   </g>
   <g id="patch_5">
    <path d="M 54.98 160.84 
L 271.2 160.84 
" style="fill:none;"/>
   </g>
   <g id="patch_6">
    <path d="M 54.98 32.4092 
L 271.2 32.4092 
" style="fill:none;"/>
   </g>
   <g id="legend_1">
    <g id="line2d_25">
     <path d="M 60.18 17.35449 
L 73.18 17.35449 
" style="fill:none;stroke:#4c72b0;stroke-linecap:round;stroke-width:1.75;"/>
    </g>
    <g id="line2d_26"/>
    <g id="text_15">
     <!-- td3-tf1 -->
     <defs>
      <path d="M 40.234375 0 
L 40.234375 6.546875 
Q 35.296875 -1.171875 25.734375 -1.171875 
Q 19.53125 -1.171875 14.328125 2.25 
Q 9.125 5.671875 6.265625 11.796875 
Q 3.421875 17.921875 3.421875 25.875 
Q 3.421875 33.640625 6 39.96875 
Q 8.59375 46.296875 13.765625 49.65625 
Q 18.953125 53.03125 25.34375 53.03125 
Q 30.03125 53.03125 33.6875 51.046875 
Q 37.359375 49.078125 39.65625 45.90625 
L 39.65625 71.578125 
L 48.390625 71.578125 
L 48.390625 0 
z
M 12.453125 25.875 
Q 12.453125 15.921875 16.640625 10.984375 
Q 20.84375 6.0625 26.5625 6.0625 
Q 32.328125 6.0625 36.34375 10.765625 
Q 40.375 15.484375 40.375 25.140625 
Q 40.375 35.796875 36.265625 40.765625 
Q 32.171875 45.75 26.171875 45.75 
Q 20.3125 45.75 16.375 40.96875 
Q 12.453125 36.1875 12.453125 25.875 
z
" id="ArialMT-100"/>
      <path d="M 4.203125 18.890625 
L 12.984375 20.0625 
Q 14.5 12.59375 18.140625 9.296875 
Q 21.78125 6 27 6 
Q 33.203125 6 37.46875 10.296875 
Q 41.75 14.59375 41.75 20.953125 
Q 41.75 27 37.796875 30.921875 
Q 33.84375 34.859375 27.734375 34.859375 
Q 25.25 34.859375 21.53125 33.890625 
L 22.515625 41.609375 
Q 23.390625 41.5 23.921875 41.5 
Q 29.546875 41.5 34.03125 44.421875 
Q 38.53125 47.359375 38.53125 53.46875 
Q 38.53125 58.296875 35.25 61.46875 
Q 31.984375 64.65625 26.8125 64.65625 
Q 21.6875 64.65625 18.265625 61.421875 
Q 14.84375 58.203125 13.875 51.765625 
L 5.078125 53.328125 
Q 6.6875 62.15625 12.390625 67.015625 
Q 18.109375 71.875 26.609375 71.875 
Q 32.46875 71.875 37.390625 69.359375 
Q 42.328125 66.84375 44.9375 62.5 
Q 47.5625 58.15625 47.5625 53.265625 
Q 47.5625 48.640625 45.0625 44.828125 
Q 42.578125 41.015625 37.703125 38.765625 
Q 44.046875 37.3125 47.5625 32.6875 
Q 51.078125 28.078125 51.078125 21.140625 
Q 51.078125 11.765625 44.234375 5.25 
Q 37.40625 -1.265625 26.953125 -1.265625 
Q 17.53125 -1.265625 11.296875 4.34375 
Q 5.078125 9.96875 4.203125 18.890625 
z
" id="ArialMT-51"/>
      <path d="M 3.171875 21.484375 
L 3.171875 30.328125 
L 30.171875 30.328125 
L 30.171875 21.484375 
z
" id="ArialMT-45"/>
     </defs>
     <g style="fill:#262626;" transform="translate(83.58 21.90449)scale(0.13 -0.13)">
      <use xlink:href="#ArialMT-116"/>
      <use x="27.783203" xlink:href="#ArialMT-100"/>
      <use x="83.398438" xlink:href="#ArialMT-51"/>
      <use x="139.013672" xlink:href="#ArialMT-45"/>
      <use x="172.314453" xlink:href="#ArialMT-116"/>
      <use x="200.097656" xlink:href="#ArialMT-102"/>
      <use x="227.880859" xlink:href="#ArialMT-49"/>
     </g>
    </g>
    <g id="line2d_27">
     <path d="M 173.267344 17.35449 
L 186.267344 17.35449 
" style="fill:none;stroke:#55a868;stroke-linecap:round;stroke-width:1.75;"/>
    </g>
    <g id="line2d_28"/>
    <g id="text_16">
     <!-- td3-pyTorch -->
     <defs>
      <path d="M 6.59375 -19.875 
L 6.59375 51.859375 
L 14.59375 51.859375 
L 14.59375 45.125 
Q 17.4375 49.078125 21 51.046875 
Q 24.5625 53.03125 29.640625 53.03125 
Q 36.28125 53.03125 41.359375 49.609375 
Q 46.4375 46.1875 49.015625 39.953125 
Q 51.609375 33.734375 51.609375 26.3125 
Q 51.609375 18.359375 48.75 11.984375 
Q 45.90625 5.609375 40.453125 2.21875 
Q 35.015625 -1.171875 29 -1.171875 
Q 24.609375 -1.171875 21.109375 0.6875 
Q 17.625 2.546875 15.375 5.375 
L 15.375 -19.875 
z
M 14.546875 25.640625 
Q 14.546875 15.625 18.59375 10.84375 
Q 22.65625 6.0625 28.421875 6.0625 
Q 34.28125 6.0625 38.453125 11.015625 
Q 42.625 15.96875 42.625 26.375 
Q 42.625 36.28125 38.546875 41.203125 
Q 34.46875 46.140625 28.8125 46.140625 
Q 23.1875 46.140625 18.859375 40.890625 
Q 14.546875 35.640625 14.546875 25.640625 
z
" id="ArialMT-112"/>
      <path d="M 6.203125 -19.96875 
L 5.21875 -11.71875 
Q 8.109375 -12.5 10.25 -12.5 
Q 13.1875 -12.5 14.9375 -11.515625 
Q 16.703125 -10.546875 17.828125 -8.796875 
Q 18.65625 -7.46875 20.515625 -2.25 
Q 20.75 -1.515625 21.296875 -0.09375 
L 1.609375 51.859375 
L 11.078125 51.859375 
L 21.875 21.828125 
Q 23.96875 16.109375 25.640625 9.8125 
Q 27.15625 15.875 29.25 21.625 
L 40.328125 51.859375 
L 49.125 51.859375 
L 29.390625 -0.875 
Q 26.21875 -9.421875 24.46875 -12.640625 
Q 22.125 -17 19.09375 -19.015625 
Q 16.0625 -21.046875 11.859375 -21.046875 
Q 9.328125 -21.046875 6.203125 -19.96875 
z
" id="ArialMT-121"/>
      <path d="M 6.59375 0 
L 6.59375 71.578125 
L 15.375 71.578125 
L 15.375 45.90625 
Q 21.53125 53.03125 30.90625 53.03125 
Q 36.671875 53.03125 40.921875 50.75 
Q 45.171875 48.484375 47 44.484375 
Q 48.828125 40.484375 48.828125 32.859375 
L 48.828125 0 
L 40.046875 0 
L 40.046875 32.859375 
Q 40.046875 39.453125 37.1875 42.453125 
Q 34.328125 45.453125 29.109375 45.453125 
Q 25.203125 45.453125 21.75 43.421875 
Q 18.3125 41.40625 16.84375 37.9375 
Q 15.375 34.46875 15.375 28.375 
L 15.375 0 
z
" id="ArialMT-104"/>
     </defs>
     <g style="fill:#262626;" transform="translate(196.667344 21.90449)scale(0.13 -0.13)">
      <use xlink:href="#ArialMT-116"/>
      <use x="27.783203" xlink:href="#ArialMT-100"/>
      <use x="83.398438" xlink:href="#ArialMT-51"/>
      <use x="139.013672" xlink:href="#ArialMT-45"/>
      <use x="172.314453" xlink:href="#ArialMT-112"/>
      <use x="227.929688" xlink:href="#ArialMT-121"/>
      <use x="277.929688" xlink:href="#ArialMT-84"/>
      <use x="338.841797" xlink:href="#ArialMT-111"/>
      <use x="394.457031" xlink:href="#ArialMT-114"/>
      <use x="427.757812" xlink:href="#ArialMT-99"/>
      <use x="477.757812" xlink:href="#ArialMT-104"/>
     </g>
    </g>
   </g>
  </g>
 </g>
 <defs>
  <clipPath id="pae4cf3db47">
   <rect height="128.4308" width="216.22" x="54.98" y="32.4092"/>
  </clipPath>
 </defs>
</svg>
