<svg id="Layer_1" data-name="Layer 1" xmlns="http://www.w3.org/2000/svg" viewBox="0 0 300 101.61">
  <defs>
    <style>
      .cls-1 {
        fill: #1d0d4c;
      }

      .cls-2 {
        fill: #00f183;
      }
    </style>
  </defs>
  <title>adsfdsfgArtboard 2</title>
  <g>
    <path class="cls-1" d="M171.26,31.44c-2,0-3.41.68-4.11,2l-.37.7V31.77h-3.24V45.93h3.4V37.51c0-2,1.1-3.17,3-3.17s2.86,1.12,2.86,3.08v8.51h3.41V36.81C176.21,33.44,174.36,31.44,171.26,31.44Zm-16.53,0c-4,0-6.52,2.51-6.52,6.54v2c0,3.89,2.52,6.3,6.58,6.3a6.18,6.18,0,0,0,5.81-3L158.48,42a4.71,4.71,0,0,1-3.69,1.91,3.06,3.06,0,0,1-3.28-3.39V40H161V37.62C161,33.86,158.56,31.44,154.73,31.44Zm3.2,6.24h-6.42v-.34c0-2.33,1.14-3.61,3.22-3.61s3.2,1.26,3.2,3.39Zm52.12-8.24V26.73H198.27v2.71h4.13V43.22h-4.13v2.71h11.78V43.22h-4.13V29.44Zm-89.37-3.1c-5.27,0-8.54,3.28-8.54,8.56v2.86c0,5.28,3.27,8.56,8.54,8.56s8.53-3.28,8.53-8.56V34.9C129.21,29.62,125.94,26.34,120.68,26.34Zm5,11.62c0,3.5-1.82,5.52-5,5.52s-5-2-5-5.52V34.71c0-3.51,1.83-5.52,5-5.52s5,2,5,5.52Zm14.23-6.52a4.82,4.82,0,0,0-4.14,2l-.37.56V31.77h-3.24v19h3.41V43.91l.36.54a4.74,4.74,0,0,0,4,1.82c2.94,0,5.9-1.92,5.9-6.21V37.65C145.85,34.56,144,31.44,139.92,31.44Zm2.52,8.45c0,2.28-1.33,3.7-3.47,3.7a3.37,3.37,0,0,1-3.39-3.65V37.82a3.41,3.41,0,0,1,3.42-3.7c2.12,0,3.44,1.41,3.44,3.7Zm43.19-13.16-6.88,19.2h3.46l1.32-4.11h7.9l0,0,1.3,4.07h3.46l-6.88-19.2Zm-1.25,12.38,3.1-9.71,3.07,9.71Z"/>
    <g>
      <path class="cls-1" d="M113.25,69.86v-.49h2v.44c0,2.38,1.92,4,5.07,4s5-1.35,5-3.77c0-1.54-1-2.63-2.71-3.09l-5.37-1.41c-2.74-.7-3.77-2.3-3.77-4.47,0-3.36,2.66-5.32,6.57-5.32s6.64,2.2,6.64,5.43v.46h-2v-.41c0-2.25-1.74-3.8-4.66-3.8-2.66,0-4.53,1.22-4.53,3.47a2.73,2.73,0,0,0,2.36,2.91l5.5,1.46c2.33.62,4,2.17,4,4.61,0,3.47-3,5.61-7,5.61S113.25,73.33,113.25,69.86Z"/>
      <path class="cls-1" d="M131.23,79.84V61.24h2v2.17a5.17,5.17,0,0,1,4.69-2.5c3.71,0,5.8,2.69,5.8,6.21v2.12c0,3.61-2.25,6.21-5.75,6.21a5.19,5.19,0,0,1-4.63-2.39v6.78Zm10.38-12.63c0-2.55-1.22-4.61-4.09-4.61s-4.23,2.08-4.23,4.77v1.79a4.29,4.29,0,0,0,4.26,4.61c2.63,0,4.06-2.06,4.06-4.61Z"/>
      <path class="cls-1" d="M148.55,56.33a1.25,1.25,0,1,1-1.3,1.25A1.22,1.22,0,0,1,148.55,56.33Zm-1,4.91h2.06V75.12h-2.06Z"/>
      <path class="cls-1" d="M154.11,61.24h1.95V63.6a4.67,4.67,0,0,1,4.64-2.69c3.12,0,5.1,2.12,5.1,5.45v8.76h-2.06V66.66c0-2.36-1.06-4-3.55-4-2.28,0-4,1.39-4,4.26v8.16h-2.06Z"/>
      <path class="cls-1" d="M170.06,61.24H172V63.6c.65-1.57,2.22-2.69,4.64-2.69,3.11,0,5.09,2.12,5.09,5.45v8.76h-2.06V66.66c0-2.36-1.06-4-3.55-4-2.28,0-4,1.39-4,4.26v8.16h-2.06Z"/>
      <path class="cls-1" d="M187.17,56.33a1.25,1.25,0,1,1-1.3,1.25A1.22,1.22,0,0,1,187.17,56.33Zm-1,4.91h2.06V75.12h-2.06Z"/>
      <path class="cls-1" d="M192.72,61.24h2V63.6c.65-1.57,2.22-2.69,4.63-2.69,3.12,0,5.1,2.12,5.1,5.45v8.76h-2.06V66.66c0-2.36-1.06-4-3.55-4-2.28,0-4,1.39-4,4.26v8.16h-2.07Z"/>
      <path class="cls-1" d="M208.24,76.61h2c.76,1.33,2.09,1.93,4,1.93,2.41,0,4.06-1.36,4.06-3.47V71.92c-.43,1.28-2.33,2.63-4.66,2.63A5.4,5.4,0,0,1,208,68.89V66.58a5.38,5.38,0,0,1,5.7-5.67,5,5,0,0,1,4.71,2.63v-2.3h2V75.12c0,2.88-2.6,5-6.12,5C211.49,80.17,209,78.89,208.24,76.61Zm10.08-7.94V66.88a4.18,4.18,0,0,0-4.17-4.28c-2.71,0-4.12,1.49-4.12,4.14v2c0,2.61,1.38,4.15,4,4.15A4,4,0,0,0,218.32,68.67Z"/>
      <path class="cls-1" d="M230.85,68.72V56.14H233V68.91c0,3,2,4.83,5.17,4.83s5.18-1.87,5.18-4.83V56.14h2.12V68.72c0,3.94-2.8,6.78-7.3,6.78S230.85,72.66,230.85,68.72Z"/>
      <path class="cls-1" d="M249.94,79.84V61.24h1.95v2.17a5.17,5.17,0,0,1,4.69-2.5c3.72,0,5.8,2.69,5.8,6.21v2.12c0,3.61-2.25,6.21-5.74,6.21A5.2,5.2,0,0,1,252,73.06v6.78Zm10.38-12.63c0-2.55-1.22-4.61-4.09-4.61S252,64.68,252,67.37v1.79a4.29,4.29,0,0,0,4.26,4.61c2.63,0,4.06-2.06,4.06-4.61Z"/>
    </g>
    <path class="cls-2" d="M41.25,36V65.64a3.91,3.91,0,0,0,2,3.38L68.89,83.85a3.88,3.88,0,0,0,3.9,0L98.48,69a3.91,3.91,0,0,0,2-3.38V36a3.91,3.91,0,0,0-2-3.38L72.79,17.76a3.88,3.88,0,0,0-3.9,0L43.2,32.59A3.91,3.91,0,0,0,41.25,36Z"/>
    <path class="cls-1" d="M83.72,52.65a13.13,13.13,0,0,0,0-3.65c5.18-4,8.68-7.87,7.49-9.94-1.44-2.48-8.2-.19-12.34,1.51a13.27,13.27,0,0,0-3.16-1.84c-.86-6.47-2.47-11.44-4.86-11.44-2.87,0-4.26,7-4.86,11.45a13.07,13.07,0,0,0-3.16,1.81C56.8,38.05,51.68,37,50.48,39c-1.43,2.49,4,7.21,7.51,9.94a12.91,12.91,0,0,0,0,3.62c-5.2,4-8.71,7.88-7.51,10,.45.78,1.43,1.09,2.7,1.09,2.75,0,6.83-1.45,9.66-2.62A12.87,12.87,0,0,0,66,62.84c.85,6.49,2.47,11.48,4.86,11.48,2.88,0,4.27-7,4.86-11.46a13,13,0,0,0,3.16-1.8c3.84,1.58,7.31,2.61,9.63,2.61,1.34,0,2.29-.34,2.73-1.09C92.63,60.09,87.26,55.38,83.72,52.65ZM81,44.9a12,12,0,0,1,.6,1.19.62.62,0,0,0,.57.37.7.7,0,0,0,.25-.05.62.62,0,0,0,.32-.82,14.58,14.58,0,0,0-.66-1.31,13.14,13.14,0,0,0-2.17-2.79c6.67-2.67,9.76-2.57,10.2-1.81.76,1.33-3.51,6.41-13.45,12.7a1.34,1.34,0,0,0-.27-.17V49.4a1.57,1.57,0,0,0,0-2.83c-.09-2.19-.24-4.36-.47-6.41A11.75,11.75,0,0,1,81,44.9ZM71.87,55.22a.81.81,0,0,0-.24-.17,1.57,1.57,0,0,0-1.81.17L67.53,53.9a1.36,1.36,0,0,0,0-.29,1.58,1.58,0,0,0-1-1.49V49.48a1.19,1.19,0,0,0,.26-.11h0a1.58,1.58,0,0,0,.76-1.66l2.28-1.32a2.07,2.07,0,0,0,.24.17h0a1.51,1.51,0,0,0,.79.21,1.61,1.61,0,0,0,1-.38l2.29,1.32a1.36,1.36,0,0,0,0,.29,1.56,1.56,0,0,0,1.06,1.48v2.64a1.59,1.59,0,0,0-.27.12,1.57,1.57,0,0,0-.76,1.66ZM70.84,39a11.73,11.73,0,0,1,1.33.08.62.62,0,0,0,.14-1.24,14.48,14.48,0,0,0-1.47-.08,13,13,0,0,0-3.52.49c1-7.12,2.66-9.75,3.54-9.75,1.53,0,3.79,6.25,4.27,18l-.29.14-2.43-1.4a1.63,1.63,0,0,0,0-.49,1.61,1.61,0,0,0-.74-1,1.59,1.59,0,0,0-1.69.08c-1.93-1-3.89-2-5.78-2.79A11.78,11.78,0,0,1,70.84,39ZM60.66,44.92c.23-.38.47-.76.73-1.11a.62.62,0,0,0-.13-.87.63.63,0,0,0-.87.13,12.33,12.33,0,0,0-.8,1.23,12.93,12.93,0,0,0-1.34,3.3c-5.67-4.45-7.13-7.18-6.69-8,.76-1.32,7.31-.16,17.72,5.3a1.74,1.74,0,0,0,0,.32l-2.43,1.4a1.82,1.82,0,0,0-.45-.2,1.58,1.58,0,0,0-1.2.16,1.54,1.54,0,0,0-.73,1,1.65,1.65,0,0,0,0,.54c-1.84,1.16-3.63,2.38-5.29,3.6A11.87,11.87,0,0,1,60.66,44.92Zm0,11.76a9.35,9.35,0,0,1-.6-1.18.62.62,0,1,0-1.14.5,12.36,12.36,0,0,0,.66,1.31,13.18,13.18,0,0,0,2.18,2.79c-6.7,2.69-9.8,2.59-10.24,1.83C50.78,60.6,55.06,55.52,65,49.22a2,2,0,0,0,.26.18v2.81a1.57,1.57,0,0,0,0,2.82c.09,2.18.24,4.34.47,6.38A11.71,11.71,0,0,1,60.68,56.68Zm8.86,5.8a.63.63,0,0,0-.69.55.63.63,0,0,0,.55.69,14.48,14.48,0,0,0,1.47.08,12.79,12.79,0,0,0,3.49-.49c-1,7.14-2.65,9.77-3.54,9.77-1.17,0-2.77-3.68-3.67-10.68,0,0,0,0,0-.06-.27-2.12-.47-4.54-.58-7.26l.28-.14,2.43,1.4a1.56,1.56,0,0,0,.78,1.44,1.6,1.6,0,0,0,.79.22,1.45,1.45,0,0,0,.41-.06,1.69,1.69,0,0,0,.49-.23c1.93,1,3.88,2,5.77,2.78A11.89,11.89,0,0,1,69.54,62.48ZM90.12,62c-.58,1-4.56.56-11.07-2.16l-.06,0c-2-.83-4.17-1.86-6.59-3.13a1.62,1.62,0,0,0,0-.31l2.43-1.41a1.63,1.63,0,0,0,.44.21,2,2,0,0,0,.41,0A1.58,1.58,0,0,0,77.23,54a1.41,1.41,0,0,0,0-.54c1.85-1.17,3.65-2.39,5.32-3.62A11.75,11.75,0,0,1,81,56.66a10,10,0,0,1-.72,1.11.61.61,0,0,0,.13.87.58.58,0,0,0,.37.13.61.61,0,0,0,.5-.26,12.33,12.33,0,0,0,.8-1.23A12.5,12.5,0,0,0,83.45,54C89.1,58.47,90.56,61.19,90.12,62Z"/>
  </g>
</svg>
